G04 EAGLE Gerber RS-274X export*
G75*
%MOMM*%
%FSLAX34Y34*%
%LPD*%
%INSilkscreen Top*%
%IPPOS*%
%AMOC8*
5,1,8,0,0,1.08239X$1,22.5*%
G01*
%ADD10C,0.152400*%
%ADD11C,0.076200*%
%ADD12C,0.101600*%
%ADD13C,0.200000*%
%ADD14C,0.127000*%

G36*
X486158Y239270D02*
X486158Y239270D01*
X486160Y239269D01*
X486203Y239289D01*
X486247Y239307D01*
X486247Y239309D01*
X486249Y239310D01*
X486282Y239395D01*
X486282Y243205D01*
X486281Y243207D01*
X486282Y243209D01*
X486262Y243252D01*
X486244Y243296D01*
X486242Y243296D01*
X486241Y243298D01*
X486156Y243331D01*
X483616Y243331D01*
X483614Y243330D01*
X483612Y243331D01*
X483569Y243311D01*
X483525Y243293D01*
X483525Y243291D01*
X483523Y243290D01*
X483490Y243205D01*
X483490Y239395D01*
X483491Y239393D01*
X483490Y239391D01*
X483510Y239348D01*
X483528Y239304D01*
X483530Y239304D01*
X483531Y239302D01*
X483616Y239269D01*
X486156Y239269D01*
X486158Y239270D01*
G37*
D10*
X256568Y42418D02*
X256568Y26162D01*
X254762Y26162D02*
X258374Y26162D01*
X258374Y42418D02*
X254762Y42418D01*
X264940Y36999D02*
X264940Y26162D01*
X264940Y36999D02*
X269455Y36999D01*
X269559Y36997D01*
X269662Y36991D01*
X269766Y36981D01*
X269869Y36967D01*
X269971Y36949D01*
X270072Y36928D01*
X270173Y36902D01*
X270272Y36873D01*
X270371Y36840D01*
X270468Y36803D01*
X270563Y36762D01*
X270657Y36718D01*
X270749Y36670D01*
X270839Y36619D01*
X270928Y36564D01*
X271014Y36506D01*
X271097Y36444D01*
X271179Y36380D01*
X271257Y36312D01*
X271333Y36242D01*
X271407Y36169D01*
X271477Y36092D01*
X271545Y36014D01*
X271609Y35932D01*
X271671Y35849D01*
X271729Y35763D01*
X271784Y35674D01*
X271835Y35584D01*
X271883Y35492D01*
X271927Y35398D01*
X271968Y35303D01*
X272005Y35206D01*
X272038Y35107D01*
X272067Y35008D01*
X272093Y34907D01*
X272114Y34806D01*
X272132Y34704D01*
X272146Y34601D01*
X272156Y34497D01*
X272162Y34394D01*
X272164Y34290D01*
X272165Y34290D02*
X272165Y26162D01*
X280362Y32484D02*
X284878Y30678D01*
X280362Y32484D02*
X280274Y32521D01*
X280188Y32562D01*
X280103Y32606D01*
X280020Y32654D01*
X279940Y32705D01*
X279861Y32759D01*
X279785Y32817D01*
X279711Y32877D01*
X279639Y32941D01*
X279571Y33007D01*
X279505Y33077D01*
X279442Y33148D01*
X279381Y33223D01*
X279324Y33299D01*
X279271Y33378D01*
X279220Y33459D01*
X279173Y33542D01*
X279129Y33627D01*
X279089Y33714D01*
X279052Y33802D01*
X279019Y33892D01*
X278989Y33983D01*
X278964Y34075D01*
X278942Y34168D01*
X278924Y34262D01*
X278909Y34356D01*
X278899Y34451D01*
X278893Y34547D01*
X278890Y34642D01*
X278891Y34738D01*
X278897Y34833D01*
X278906Y34929D01*
X278919Y35023D01*
X278935Y35117D01*
X278956Y35211D01*
X278981Y35303D01*
X279009Y35394D01*
X279041Y35484D01*
X279076Y35573D01*
X279115Y35660D01*
X279158Y35746D01*
X279204Y35830D01*
X279254Y35911D01*
X279306Y35991D01*
X279362Y36069D01*
X279422Y36144D01*
X279484Y36216D01*
X279549Y36286D01*
X279617Y36354D01*
X279687Y36418D01*
X279760Y36480D01*
X279836Y36538D01*
X279914Y36594D01*
X279994Y36646D01*
X280076Y36695D01*
X280160Y36740D01*
X280246Y36782D01*
X280333Y36821D01*
X280422Y36856D01*
X280513Y36887D01*
X280604Y36914D01*
X280697Y36938D01*
X280790Y36958D01*
X280884Y36974D01*
X280979Y36986D01*
X281074Y36995D01*
X281170Y36999D01*
X281265Y37000D01*
X281512Y36993D01*
X281758Y36981D01*
X282004Y36963D01*
X282250Y36938D01*
X282494Y36908D01*
X282738Y36872D01*
X282981Y36831D01*
X283223Y36783D01*
X283464Y36729D01*
X283703Y36670D01*
X283941Y36605D01*
X284177Y36534D01*
X284412Y36458D01*
X284645Y36376D01*
X284875Y36288D01*
X285103Y36195D01*
X285330Y36097D01*
X284878Y30677D02*
X284966Y30640D01*
X285052Y30599D01*
X285137Y30555D01*
X285220Y30507D01*
X285300Y30456D01*
X285379Y30402D01*
X285455Y30344D01*
X285529Y30284D01*
X285601Y30220D01*
X285669Y30154D01*
X285735Y30084D01*
X285798Y30013D01*
X285859Y29938D01*
X285916Y29862D01*
X285969Y29783D01*
X286020Y29702D01*
X286067Y29619D01*
X286111Y29534D01*
X286151Y29447D01*
X286188Y29359D01*
X286221Y29269D01*
X286251Y29178D01*
X286276Y29086D01*
X286298Y28993D01*
X286316Y28899D01*
X286331Y28805D01*
X286341Y28710D01*
X286347Y28614D01*
X286350Y28519D01*
X286349Y28423D01*
X286343Y28328D01*
X286334Y28232D01*
X286321Y28138D01*
X286305Y28044D01*
X286284Y27950D01*
X286259Y27858D01*
X286231Y27767D01*
X286199Y27677D01*
X286164Y27588D01*
X286125Y27501D01*
X286082Y27415D01*
X286036Y27331D01*
X285986Y27250D01*
X285934Y27170D01*
X285878Y27092D01*
X285818Y27017D01*
X285756Y26945D01*
X285691Y26875D01*
X285623Y26807D01*
X285553Y26743D01*
X285480Y26681D01*
X285404Y26623D01*
X285326Y26567D01*
X285246Y26515D01*
X285164Y26466D01*
X285080Y26421D01*
X284994Y26379D01*
X284907Y26340D01*
X284818Y26305D01*
X284727Y26274D01*
X284636Y26247D01*
X284543Y26223D01*
X284450Y26203D01*
X284356Y26187D01*
X284261Y26175D01*
X284166Y26166D01*
X284070Y26162D01*
X283975Y26161D01*
X283975Y26162D02*
X283613Y26171D01*
X283251Y26189D01*
X282890Y26216D01*
X282530Y26251D01*
X282170Y26294D01*
X281811Y26346D01*
X281454Y26407D01*
X281099Y26476D01*
X280745Y26553D01*
X280393Y26639D01*
X280043Y26733D01*
X279695Y26836D01*
X279350Y26946D01*
X279008Y27065D01*
X291258Y36999D02*
X296676Y36999D01*
X293064Y42418D02*
X293064Y28871D01*
X293066Y28770D01*
X293072Y28669D01*
X293081Y28568D01*
X293094Y28467D01*
X293111Y28367D01*
X293132Y28268D01*
X293156Y28170D01*
X293184Y28073D01*
X293216Y27976D01*
X293251Y27881D01*
X293290Y27788D01*
X293332Y27696D01*
X293378Y27605D01*
X293427Y27516D01*
X293479Y27430D01*
X293535Y27345D01*
X293593Y27262D01*
X293655Y27182D01*
X293720Y27104D01*
X293787Y27028D01*
X293857Y26955D01*
X293930Y26885D01*
X294006Y26818D01*
X294084Y26753D01*
X294164Y26691D01*
X294247Y26633D01*
X294332Y26577D01*
X294419Y26525D01*
X294507Y26476D01*
X294598Y26430D01*
X294690Y26388D01*
X294783Y26349D01*
X294878Y26314D01*
X294975Y26282D01*
X295072Y26254D01*
X295170Y26230D01*
X295269Y26209D01*
X295369Y26192D01*
X295470Y26179D01*
X295571Y26170D01*
X295672Y26164D01*
X295773Y26162D01*
X296676Y26162D01*
X303061Y26162D02*
X303061Y36999D01*
X308479Y36999D01*
X308479Y35193D01*
X313917Y36999D02*
X313917Y28871D01*
X313918Y28871D02*
X313920Y28770D01*
X313926Y28669D01*
X313935Y28568D01*
X313948Y28467D01*
X313965Y28367D01*
X313986Y28268D01*
X314010Y28170D01*
X314038Y28073D01*
X314070Y27976D01*
X314105Y27881D01*
X314144Y27788D01*
X314186Y27696D01*
X314232Y27605D01*
X314281Y27516D01*
X314333Y27430D01*
X314389Y27345D01*
X314447Y27262D01*
X314509Y27182D01*
X314574Y27104D01*
X314641Y27028D01*
X314711Y26955D01*
X314784Y26885D01*
X314860Y26818D01*
X314938Y26753D01*
X315018Y26691D01*
X315101Y26633D01*
X315186Y26577D01*
X315273Y26525D01*
X315361Y26476D01*
X315452Y26430D01*
X315544Y26388D01*
X315637Y26349D01*
X315732Y26314D01*
X315829Y26282D01*
X315926Y26254D01*
X316024Y26230D01*
X316123Y26209D01*
X316223Y26192D01*
X316324Y26179D01*
X316425Y26170D01*
X316526Y26164D01*
X316627Y26162D01*
X321142Y26162D01*
X321142Y36999D01*
X328785Y36999D02*
X328785Y26162D01*
X328785Y36999D02*
X336913Y36999D01*
X337014Y36997D01*
X337115Y36991D01*
X337216Y36982D01*
X337317Y36969D01*
X337417Y36952D01*
X337516Y36931D01*
X337614Y36907D01*
X337711Y36879D01*
X337808Y36847D01*
X337903Y36812D01*
X337996Y36773D01*
X338088Y36731D01*
X338179Y36685D01*
X338268Y36636D01*
X338354Y36584D01*
X338439Y36528D01*
X338522Y36470D01*
X338602Y36408D01*
X338680Y36343D01*
X338756Y36276D01*
X338829Y36206D01*
X338899Y36133D01*
X338966Y36057D01*
X339031Y35979D01*
X339093Y35899D01*
X339151Y35816D01*
X339207Y35731D01*
X339259Y35645D01*
X339308Y35556D01*
X339354Y35465D01*
X339396Y35373D01*
X339435Y35280D01*
X339470Y35185D01*
X339502Y35088D01*
X339530Y34991D01*
X339554Y34893D01*
X339575Y34794D01*
X339592Y34694D01*
X339605Y34593D01*
X339614Y34492D01*
X339620Y34391D01*
X339622Y34290D01*
X339622Y26162D01*
X334203Y26162D02*
X334203Y36999D01*
X349452Y26162D02*
X353968Y26162D01*
X349452Y26162D02*
X349351Y26164D01*
X349250Y26170D01*
X349149Y26179D01*
X349048Y26192D01*
X348948Y26209D01*
X348849Y26230D01*
X348751Y26254D01*
X348654Y26282D01*
X348557Y26314D01*
X348462Y26349D01*
X348369Y26388D01*
X348277Y26430D01*
X348186Y26476D01*
X348098Y26525D01*
X348011Y26577D01*
X347926Y26633D01*
X347843Y26691D01*
X347763Y26753D01*
X347685Y26818D01*
X347609Y26885D01*
X347536Y26955D01*
X347466Y27028D01*
X347399Y27104D01*
X347334Y27182D01*
X347272Y27262D01*
X347214Y27345D01*
X347158Y27430D01*
X347106Y27516D01*
X347057Y27605D01*
X347011Y27696D01*
X346969Y27788D01*
X346930Y27881D01*
X346895Y27976D01*
X346863Y28073D01*
X346835Y28170D01*
X346811Y28268D01*
X346790Y28367D01*
X346773Y28467D01*
X346760Y28568D01*
X346751Y28669D01*
X346745Y28770D01*
X346743Y28871D01*
X346743Y33387D01*
X346744Y33387D02*
X346746Y33506D01*
X346752Y33626D01*
X346762Y33745D01*
X346776Y33863D01*
X346793Y33982D01*
X346815Y34099D01*
X346840Y34216D01*
X346870Y34331D01*
X346903Y34446D01*
X346940Y34560D01*
X346980Y34672D01*
X347025Y34783D01*
X347073Y34892D01*
X347124Y35000D01*
X347179Y35106D01*
X347238Y35210D01*
X347300Y35312D01*
X347365Y35412D01*
X347434Y35510D01*
X347506Y35606D01*
X347581Y35699D01*
X347658Y35789D01*
X347739Y35877D01*
X347823Y35962D01*
X347910Y36044D01*
X347999Y36124D01*
X348091Y36200D01*
X348185Y36274D01*
X348282Y36344D01*
X348380Y36411D01*
X348481Y36475D01*
X348585Y36535D01*
X348690Y36592D01*
X348797Y36645D01*
X348905Y36695D01*
X349015Y36741D01*
X349127Y36783D01*
X349240Y36822D01*
X349354Y36857D01*
X349469Y36888D01*
X349586Y36916D01*
X349703Y36939D01*
X349820Y36959D01*
X349939Y36975D01*
X350058Y36987D01*
X350177Y36995D01*
X350296Y36999D01*
X350416Y36999D01*
X350535Y36995D01*
X350654Y36987D01*
X350773Y36975D01*
X350892Y36959D01*
X351009Y36939D01*
X351126Y36916D01*
X351243Y36888D01*
X351358Y36857D01*
X351472Y36822D01*
X351585Y36783D01*
X351697Y36741D01*
X351807Y36695D01*
X351915Y36645D01*
X352022Y36592D01*
X352127Y36535D01*
X352231Y36475D01*
X352332Y36411D01*
X352430Y36344D01*
X352527Y36274D01*
X352621Y36200D01*
X352713Y36124D01*
X352802Y36044D01*
X352889Y35962D01*
X352973Y35877D01*
X353054Y35789D01*
X353131Y35699D01*
X353206Y35606D01*
X353278Y35510D01*
X353347Y35412D01*
X353412Y35312D01*
X353474Y35210D01*
X353533Y35106D01*
X353588Y35000D01*
X353639Y34892D01*
X353687Y34783D01*
X353732Y34672D01*
X353772Y34560D01*
X353809Y34446D01*
X353842Y34331D01*
X353872Y34216D01*
X353897Y34099D01*
X353919Y33982D01*
X353936Y33863D01*
X353950Y33745D01*
X353960Y33626D01*
X353966Y33506D01*
X353968Y33387D01*
X353968Y31581D01*
X346743Y31581D01*
X360811Y26162D02*
X360811Y36999D01*
X365327Y36999D01*
X365431Y36997D01*
X365534Y36991D01*
X365638Y36981D01*
X365741Y36967D01*
X365843Y36949D01*
X365944Y36928D01*
X366045Y36902D01*
X366144Y36873D01*
X366243Y36840D01*
X366340Y36803D01*
X366435Y36762D01*
X366529Y36718D01*
X366621Y36670D01*
X366711Y36619D01*
X366800Y36564D01*
X366886Y36506D01*
X366969Y36444D01*
X367051Y36380D01*
X367129Y36312D01*
X367205Y36242D01*
X367279Y36169D01*
X367349Y36092D01*
X367417Y36014D01*
X367481Y35932D01*
X367543Y35849D01*
X367601Y35763D01*
X367656Y35674D01*
X367707Y35584D01*
X367755Y35492D01*
X367799Y35398D01*
X367840Y35303D01*
X367877Y35206D01*
X367910Y35107D01*
X367939Y35008D01*
X367965Y34907D01*
X367986Y34806D01*
X368004Y34704D01*
X368018Y34601D01*
X368028Y34497D01*
X368034Y34394D01*
X368036Y34290D01*
X368036Y26162D01*
X373582Y36999D02*
X379001Y36999D01*
X375388Y42418D02*
X375388Y28871D01*
X375389Y28871D02*
X375391Y28770D01*
X375397Y28669D01*
X375406Y28568D01*
X375419Y28467D01*
X375436Y28367D01*
X375457Y28268D01*
X375481Y28170D01*
X375509Y28073D01*
X375541Y27976D01*
X375576Y27881D01*
X375615Y27788D01*
X375657Y27696D01*
X375703Y27605D01*
X375752Y27516D01*
X375804Y27430D01*
X375860Y27345D01*
X375918Y27262D01*
X375980Y27182D01*
X376045Y27104D01*
X376112Y27028D01*
X376182Y26955D01*
X376255Y26885D01*
X376331Y26818D01*
X376409Y26753D01*
X376489Y26691D01*
X376572Y26633D01*
X376657Y26577D01*
X376744Y26525D01*
X376832Y26476D01*
X376923Y26430D01*
X377015Y26388D01*
X377108Y26349D01*
X377203Y26314D01*
X377300Y26282D01*
X377397Y26254D01*
X377495Y26230D01*
X377594Y26209D01*
X377694Y26192D01*
X377795Y26179D01*
X377896Y26170D01*
X377997Y26164D01*
X378098Y26162D01*
X379001Y26162D01*
X387867Y32484D02*
X391931Y32484D01*
X387867Y32484D02*
X387755Y32482D01*
X387644Y32476D01*
X387533Y32466D01*
X387422Y32453D01*
X387312Y32435D01*
X387203Y32413D01*
X387094Y32388D01*
X386986Y32359D01*
X386880Y32326D01*
X386774Y32289D01*
X386670Y32249D01*
X386568Y32205D01*
X386467Y32157D01*
X386368Y32106D01*
X386270Y32051D01*
X386175Y31993D01*
X386082Y31932D01*
X385991Y31867D01*
X385902Y31799D01*
X385816Y31728D01*
X385733Y31655D01*
X385652Y31578D01*
X385573Y31498D01*
X385498Y31416D01*
X385426Y31331D01*
X385356Y31244D01*
X385290Y31154D01*
X385227Y31062D01*
X385167Y30967D01*
X385111Y30871D01*
X385058Y30773D01*
X385009Y30673D01*
X384963Y30571D01*
X384921Y30468D01*
X384882Y30363D01*
X384847Y30257D01*
X384816Y30150D01*
X384789Y30042D01*
X384765Y29933D01*
X384746Y29823D01*
X384730Y29713D01*
X384718Y29602D01*
X384710Y29490D01*
X384706Y29379D01*
X384706Y29267D01*
X384710Y29156D01*
X384718Y29044D01*
X384730Y28933D01*
X384746Y28823D01*
X384765Y28713D01*
X384789Y28604D01*
X384816Y28496D01*
X384847Y28389D01*
X384882Y28283D01*
X384921Y28178D01*
X384963Y28075D01*
X385009Y27973D01*
X385058Y27873D01*
X385111Y27775D01*
X385167Y27679D01*
X385227Y27584D01*
X385290Y27492D01*
X385356Y27402D01*
X385426Y27315D01*
X385498Y27230D01*
X385573Y27148D01*
X385652Y27068D01*
X385733Y26991D01*
X385816Y26918D01*
X385902Y26847D01*
X385991Y26779D01*
X386082Y26714D01*
X386175Y26653D01*
X386270Y26595D01*
X386368Y26540D01*
X386467Y26489D01*
X386568Y26441D01*
X386670Y26397D01*
X386774Y26357D01*
X386880Y26320D01*
X386986Y26287D01*
X387094Y26258D01*
X387203Y26233D01*
X387312Y26211D01*
X387422Y26193D01*
X387533Y26180D01*
X387644Y26170D01*
X387755Y26164D01*
X387867Y26162D01*
X391931Y26162D01*
X391931Y34290D01*
X391930Y34290D02*
X391928Y34391D01*
X391922Y34492D01*
X391913Y34593D01*
X391900Y34694D01*
X391883Y34794D01*
X391862Y34893D01*
X391838Y34991D01*
X391810Y35088D01*
X391778Y35185D01*
X391743Y35280D01*
X391704Y35373D01*
X391662Y35465D01*
X391616Y35556D01*
X391567Y35645D01*
X391515Y35731D01*
X391459Y35816D01*
X391401Y35899D01*
X391339Y35979D01*
X391274Y36057D01*
X391207Y36133D01*
X391137Y36206D01*
X391064Y36276D01*
X390988Y36343D01*
X390910Y36408D01*
X390830Y36470D01*
X390747Y36528D01*
X390662Y36584D01*
X390576Y36636D01*
X390487Y36685D01*
X390396Y36731D01*
X390304Y36773D01*
X390211Y36812D01*
X390116Y36847D01*
X390019Y36879D01*
X389922Y36907D01*
X389824Y36931D01*
X389725Y36952D01*
X389625Y36969D01*
X389524Y36982D01*
X389423Y36991D01*
X389322Y36997D01*
X389221Y36999D01*
X385609Y36999D01*
X397550Y36999D02*
X402968Y36999D01*
X399356Y42418D02*
X399356Y28871D01*
X399358Y28770D01*
X399364Y28669D01*
X399373Y28568D01*
X399386Y28467D01*
X399403Y28367D01*
X399424Y28268D01*
X399448Y28170D01*
X399476Y28073D01*
X399508Y27976D01*
X399543Y27881D01*
X399582Y27788D01*
X399624Y27696D01*
X399670Y27605D01*
X399719Y27516D01*
X399771Y27430D01*
X399827Y27345D01*
X399885Y27262D01*
X399947Y27182D01*
X400012Y27104D01*
X400079Y27028D01*
X400149Y26955D01*
X400222Y26885D01*
X400298Y26818D01*
X400376Y26753D01*
X400456Y26691D01*
X400539Y26633D01*
X400624Y26577D01*
X400711Y26525D01*
X400799Y26476D01*
X400890Y26430D01*
X400982Y26388D01*
X401075Y26349D01*
X401170Y26314D01*
X401267Y26282D01*
X401364Y26254D01*
X401462Y26230D01*
X401561Y26209D01*
X401661Y26192D01*
X401762Y26179D01*
X401863Y26170D01*
X401964Y26164D01*
X402065Y26162D01*
X402968Y26162D01*
X408712Y26162D02*
X408712Y36999D01*
X408260Y41515D02*
X408260Y42418D01*
X409164Y42418D01*
X409164Y41515D01*
X408260Y41515D01*
X414999Y33387D02*
X414999Y29774D01*
X415000Y33387D02*
X415002Y33506D01*
X415008Y33626D01*
X415018Y33745D01*
X415032Y33863D01*
X415049Y33982D01*
X415071Y34099D01*
X415096Y34216D01*
X415126Y34331D01*
X415159Y34446D01*
X415196Y34560D01*
X415236Y34672D01*
X415281Y34783D01*
X415329Y34892D01*
X415380Y35000D01*
X415435Y35106D01*
X415494Y35210D01*
X415556Y35312D01*
X415621Y35412D01*
X415690Y35510D01*
X415762Y35606D01*
X415837Y35699D01*
X415914Y35789D01*
X415995Y35877D01*
X416079Y35962D01*
X416166Y36044D01*
X416255Y36124D01*
X416347Y36200D01*
X416441Y36274D01*
X416538Y36344D01*
X416636Y36411D01*
X416737Y36475D01*
X416841Y36535D01*
X416946Y36592D01*
X417053Y36645D01*
X417161Y36695D01*
X417271Y36741D01*
X417383Y36783D01*
X417496Y36822D01*
X417610Y36857D01*
X417725Y36888D01*
X417842Y36916D01*
X417959Y36939D01*
X418076Y36959D01*
X418195Y36975D01*
X418314Y36987D01*
X418433Y36995D01*
X418552Y36999D01*
X418672Y36999D01*
X418791Y36995D01*
X418910Y36987D01*
X419029Y36975D01*
X419148Y36959D01*
X419265Y36939D01*
X419382Y36916D01*
X419499Y36888D01*
X419614Y36857D01*
X419728Y36822D01*
X419841Y36783D01*
X419953Y36741D01*
X420063Y36695D01*
X420171Y36645D01*
X420278Y36592D01*
X420383Y36535D01*
X420487Y36475D01*
X420588Y36411D01*
X420686Y36344D01*
X420783Y36274D01*
X420877Y36200D01*
X420969Y36124D01*
X421058Y36044D01*
X421145Y35962D01*
X421229Y35877D01*
X421310Y35789D01*
X421387Y35699D01*
X421462Y35606D01*
X421534Y35510D01*
X421603Y35412D01*
X421668Y35312D01*
X421730Y35210D01*
X421789Y35106D01*
X421844Y35000D01*
X421895Y34892D01*
X421943Y34783D01*
X421988Y34672D01*
X422028Y34560D01*
X422065Y34446D01*
X422098Y34331D01*
X422128Y34216D01*
X422153Y34099D01*
X422175Y33982D01*
X422192Y33863D01*
X422206Y33745D01*
X422216Y33626D01*
X422222Y33506D01*
X422224Y33387D01*
X422224Y29774D01*
X422222Y29655D01*
X422216Y29535D01*
X422206Y29416D01*
X422192Y29298D01*
X422175Y29179D01*
X422153Y29062D01*
X422128Y28945D01*
X422098Y28830D01*
X422065Y28715D01*
X422028Y28601D01*
X421988Y28489D01*
X421943Y28378D01*
X421895Y28269D01*
X421844Y28161D01*
X421789Y28055D01*
X421730Y27951D01*
X421668Y27849D01*
X421603Y27749D01*
X421534Y27651D01*
X421462Y27555D01*
X421387Y27462D01*
X421310Y27372D01*
X421229Y27284D01*
X421145Y27199D01*
X421058Y27117D01*
X420969Y27037D01*
X420877Y26961D01*
X420783Y26887D01*
X420686Y26817D01*
X420588Y26750D01*
X420487Y26686D01*
X420383Y26626D01*
X420278Y26569D01*
X420171Y26516D01*
X420063Y26466D01*
X419953Y26420D01*
X419841Y26378D01*
X419728Y26339D01*
X419614Y26304D01*
X419499Y26273D01*
X419382Y26245D01*
X419265Y26222D01*
X419148Y26202D01*
X419029Y26186D01*
X418910Y26174D01*
X418791Y26166D01*
X418672Y26162D01*
X418552Y26162D01*
X418433Y26166D01*
X418314Y26174D01*
X418195Y26186D01*
X418076Y26202D01*
X417959Y26222D01*
X417842Y26245D01*
X417725Y26273D01*
X417610Y26304D01*
X417496Y26339D01*
X417383Y26378D01*
X417271Y26420D01*
X417161Y26466D01*
X417053Y26516D01*
X416946Y26569D01*
X416841Y26626D01*
X416737Y26686D01*
X416636Y26750D01*
X416538Y26817D01*
X416441Y26887D01*
X416347Y26961D01*
X416255Y27037D01*
X416166Y27117D01*
X416079Y27199D01*
X415995Y27284D01*
X415914Y27372D01*
X415837Y27462D01*
X415762Y27555D01*
X415690Y27651D01*
X415621Y27749D01*
X415556Y27849D01*
X415494Y27951D01*
X415435Y28055D01*
X415380Y28161D01*
X415329Y28269D01*
X415281Y28378D01*
X415236Y28489D01*
X415196Y28601D01*
X415159Y28715D01*
X415126Y28830D01*
X415096Y28945D01*
X415071Y29062D01*
X415049Y29179D01*
X415032Y29298D01*
X415018Y29416D01*
X415008Y29535D01*
X415002Y29655D01*
X415000Y29774D01*
X429067Y26162D02*
X429067Y36999D01*
X433583Y36999D01*
X433687Y36997D01*
X433790Y36991D01*
X433894Y36981D01*
X433997Y36967D01*
X434099Y36949D01*
X434200Y36928D01*
X434301Y36902D01*
X434400Y36873D01*
X434499Y36840D01*
X434596Y36803D01*
X434691Y36762D01*
X434785Y36718D01*
X434877Y36670D01*
X434967Y36619D01*
X435056Y36564D01*
X435142Y36506D01*
X435225Y36444D01*
X435307Y36380D01*
X435385Y36312D01*
X435461Y36242D01*
X435535Y36169D01*
X435605Y36092D01*
X435673Y36014D01*
X435737Y35932D01*
X435799Y35849D01*
X435857Y35763D01*
X435912Y35674D01*
X435963Y35584D01*
X436011Y35492D01*
X436055Y35398D01*
X436096Y35303D01*
X436133Y35206D01*
X436166Y35107D01*
X436195Y35008D01*
X436221Y34907D01*
X436242Y34806D01*
X436260Y34704D01*
X436274Y34601D01*
X436284Y34497D01*
X436290Y34394D01*
X436292Y34290D01*
X436292Y26162D01*
X450708Y26162D02*
X456127Y42418D01*
X461545Y26162D01*
X460191Y30226D02*
X452063Y30226D01*
X467902Y26162D02*
X467902Y36999D01*
X476030Y36999D01*
X476131Y36997D01*
X476232Y36991D01*
X476333Y36982D01*
X476434Y36969D01*
X476534Y36952D01*
X476633Y36931D01*
X476731Y36907D01*
X476828Y36879D01*
X476925Y36847D01*
X477020Y36812D01*
X477113Y36773D01*
X477205Y36731D01*
X477296Y36685D01*
X477385Y36636D01*
X477471Y36584D01*
X477556Y36528D01*
X477639Y36470D01*
X477719Y36408D01*
X477797Y36343D01*
X477873Y36276D01*
X477946Y36206D01*
X478016Y36133D01*
X478083Y36057D01*
X478148Y35979D01*
X478210Y35899D01*
X478268Y35816D01*
X478324Y35731D01*
X478376Y35645D01*
X478425Y35556D01*
X478471Y35465D01*
X478513Y35373D01*
X478552Y35280D01*
X478587Y35185D01*
X478619Y35088D01*
X478647Y34991D01*
X478671Y34893D01*
X478692Y34794D01*
X478709Y34694D01*
X478722Y34593D01*
X478731Y34492D01*
X478737Y34391D01*
X478739Y34290D01*
X478740Y34290D02*
X478740Y26162D01*
X473321Y26162D02*
X473321Y36999D01*
X486455Y36999D02*
X486455Y20743D01*
X486455Y36999D02*
X490971Y36999D01*
X491075Y36997D01*
X491178Y36991D01*
X491282Y36981D01*
X491385Y36967D01*
X491487Y36949D01*
X491588Y36928D01*
X491689Y36902D01*
X491788Y36873D01*
X491887Y36840D01*
X491984Y36803D01*
X492079Y36762D01*
X492173Y36718D01*
X492265Y36670D01*
X492355Y36619D01*
X492444Y36564D01*
X492530Y36506D01*
X492613Y36444D01*
X492695Y36380D01*
X492773Y36312D01*
X492849Y36242D01*
X492923Y36169D01*
X492993Y36092D01*
X493061Y36014D01*
X493125Y35932D01*
X493187Y35849D01*
X493245Y35763D01*
X493300Y35674D01*
X493351Y35584D01*
X493399Y35492D01*
X493443Y35398D01*
X493484Y35303D01*
X493521Y35206D01*
X493554Y35107D01*
X493583Y35008D01*
X493609Y34907D01*
X493630Y34806D01*
X493648Y34704D01*
X493662Y34601D01*
X493672Y34497D01*
X493678Y34394D01*
X493680Y34290D01*
X493680Y28871D01*
X493678Y28770D01*
X493672Y28669D01*
X493663Y28568D01*
X493650Y28467D01*
X493633Y28367D01*
X493612Y28268D01*
X493588Y28170D01*
X493560Y28073D01*
X493528Y27976D01*
X493493Y27881D01*
X493454Y27788D01*
X493412Y27696D01*
X493366Y27605D01*
X493317Y27516D01*
X493265Y27430D01*
X493209Y27345D01*
X493151Y27262D01*
X493089Y27182D01*
X493024Y27104D01*
X492957Y27028D01*
X492887Y26955D01*
X492814Y26885D01*
X492738Y26818D01*
X492660Y26753D01*
X492580Y26691D01*
X492497Y26633D01*
X492412Y26577D01*
X492326Y26525D01*
X492237Y26476D01*
X492146Y26430D01*
X492054Y26388D01*
X491961Y26349D01*
X491866Y26314D01*
X491769Y26282D01*
X491672Y26254D01*
X491574Y26230D01*
X491475Y26209D01*
X491375Y26192D01*
X491274Y26179D01*
X491173Y26170D01*
X491072Y26164D01*
X490971Y26162D01*
X486455Y26162D01*
X500166Y28871D02*
X500166Y42418D01*
X500166Y28871D02*
X500168Y28770D01*
X500174Y28669D01*
X500183Y28568D01*
X500196Y28467D01*
X500213Y28367D01*
X500234Y28268D01*
X500258Y28170D01*
X500286Y28073D01*
X500318Y27976D01*
X500353Y27881D01*
X500392Y27788D01*
X500434Y27696D01*
X500480Y27605D01*
X500529Y27516D01*
X500581Y27430D01*
X500637Y27345D01*
X500695Y27262D01*
X500757Y27182D01*
X500822Y27104D01*
X500889Y27028D01*
X500959Y26955D01*
X501032Y26885D01*
X501108Y26818D01*
X501186Y26753D01*
X501266Y26691D01*
X501349Y26633D01*
X501434Y26577D01*
X501521Y26525D01*
X501609Y26476D01*
X501700Y26430D01*
X501792Y26388D01*
X501885Y26349D01*
X501980Y26314D01*
X502077Y26282D01*
X502174Y26254D01*
X502272Y26230D01*
X502371Y26209D01*
X502471Y26192D01*
X502572Y26179D01*
X502673Y26170D01*
X502774Y26164D01*
X502875Y26162D01*
X509153Y26162D02*
X509153Y39709D01*
X509154Y39709D02*
X509156Y39813D01*
X509162Y39916D01*
X509172Y40020D01*
X509186Y40123D01*
X509204Y40225D01*
X509225Y40326D01*
X509251Y40427D01*
X509280Y40526D01*
X509313Y40625D01*
X509350Y40722D01*
X509391Y40817D01*
X509435Y40911D01*
X509483Y41003D01*
X509534Y41093D01*
X509589Y41182D01*
X509647Y41268D01*
X509709Y41351D01*
X509773Y41433D01*
X509841Y41511D01*
X509911Y41587D01*
X509984Y41661D01*
X510061Y41731D01*
X510139Y41799D01*
X510221Y41863D01*
X510304Y41925D01*
X510390Y41983D01*
X510479Y42038D01*
X510569Y42089D01*
X510661Y42137D01*
X510755Y42181D01*
X510850Y42222D01*
X510947Y42259D01*
X511046Y42292D01*
X511145Y42321D01*
X511246Y42347D01*
X511347Y42368D01*
X511449Y42386D01*
X511552Y42400D01*
X511656Y42410D01*
X511759Y42416D01*
X511863Y42418D01*
X512766Y42418D01*
X512766Y36999D02*
X507347Y36999D01*
X517088Y36999D02*
X517088Y26162D01*
X516637Y41515D02*
X516637Y42418D01*
X517540Y42418D01*
X517540Y41515D01*
X516637Y41515D01*
X526085Y26162D02*
X530601Y26162D01*
X526085Y26162D02*
X525984Y26164D01*
X525883Y26170D01*
X525782Y26179D01*
X525681Y26192D01*
X525581Y26209D01*
X525482Y26230D01*
X525384Y26254D01*
X525287Y26282D01*
X525190Y26314D01*
X525095Y26349D01*
X525002Y26388D01*
X524910Y26430D01*
X524819Y26476D01*
X524731Y26525D01*
X524644Y26577D01*
X524559Y26633D01*
X524476Y26691D01*
X524396Y26753D01*
X524318Y26818D01*
X524242Y26885D01*
X524169Y26955D01*
X524099Y27028D01*
X524032Y27104D01*
X523967Y27182D01*
X523905Y27262D01*
X523847Y27345D01*
X523791Y27430D01*
X523739Y27516D01*
X523690Y27605D01*
X523644Y27696D01*
X523602Y27788D01*
X523563Y27881D01*
X523528Y27976D01*
X523496Y28073D01*
X523468Y28170D01*
X523444Y28268D01*
X523423Y28367D01*
X523406Y28467D01*
X523393Y28568D01*
X523384Y28669D01*
X523378Y28770D01*
X523376Y28871D01*
X523376Y33387D01*
X523378Y33506D01*
X523384Y33626D01*
X523394Y33745D01*
X523408Y33863D01*
X523425Y33982D01*
X523447Y34099D01*
X523472Y34216D01*
X523502Y34331D01*
X523535Y34446D01*
X523572Y34560D01*
X523612Y34672D01*
X523657Y34783D01*
X523705Y34892D01*
X523756Y35000D01*
X523811Y35106D01*
X523870Y35210D01*
X523932Y35312D01*
X523997Y35412D01*
X524066Y35510D01*
X524138Y35606D01*
X524213Y35699D01*
X524290Y35789D01*
X524371Y35877D01*
X524455Y35962D01*
X524542Y36044D01*
X524631Y36124D01*
X524723Y36200D01*
X524817Y36274D01*
X524914Y36344D01*
X525012Y36411D01*
X525113Y36475D01*
X525217Y36535D01*
X525322Y36592D01*
X525429Y36645D01*
X525537Y36695D01*
X525647Y36741D01*
X525759Y36783D01*
X525872Y36822D01*
X525986Y36857D01*
X526101Y36888D01*
X526218Y36916D01*
X526335Y36939D01*
X526452Y36959D01*
X526571Y36975D01*
X526690Y36987D01*
X526809Y36995D01*
X526928Y36999D01*
X527048Y36999D01*
X527167Y36995D01*
X527286Y36987D01*
X527405Y36975D01*
X527524Y36959D01*
X527641Y36939D01*
X527758Y36916D01*
X527875Y36888D01*
X527990Y36857D01*
X528104Y36822D01*
X528217Y36783D01*
X528329Y36741D01*
X528439Y36695D01*
X528547Y36645D01*
X528654Y36592D01*
X528759Y36535D01*
X528863Y36475D01*
X528964Y36411D01*
X529062Y36344D01*
X529159Y36274D01*
X529253Y36200D01*
X529345Y36124D01*
X529434Y36044D01*
X529521Y35962D01*
X529605Y35877D01*
X529686Y35789D01*
X529763Y35699D01*
X529838Y35606D01*
X529910Y35510D01*
X529979Y35412D01*
X530044Y35312D01*
X530106Y35210D01*
X530165Y35106D01*
X530220Y35000D01*
X530271Y34892D01*
X530319Y34783D01*
X530364Y34672D01*
X530404Y34560D01*
X530441Y34446D01*
X530474Y34331D01*
X530504Y34216D01*
X530529Y34099D01*
X530551Y33982D01*
X530568Y33863D01*
X530582Y33745D01*
X530592Y33626D01*
X530598Y33506D01*
X530600Y33387D01*
X530601Y33387D02*
X530601Y31581D01*
X523376Y31581D01*
X537529Y26162D02*
X537529Y36999D01*
X542947Y36999D01*
X542947Y35193D01*
X555437Y42418D02*
X560856Y26162D01*
X566275Y42418D01*
X571972Y38806D02*
X576487Y42418D01*
X576487Y26162D01*
X571972Y26162D02*
X581003Y26162D01*
D11*
X44154Y279781D02*
X41021Y289179D01*
X47286Y289179D02*
X44154Y279781D01*
X50775Y283436D02*
X57040Y283436D01*
X53907Y280303D02*
X53907Y286568D01*
X41021Y207899D02*
X44154Y198501D01*
X47286Y207899D01*
X50775Y202156D02*
X57040Y202156D01*
D12*
X46341Y232241D02*
X46341Y234188D01*
X52832Y234188D01*
X52832Y230293D01*
X52830Y230194D01*
X52824Y230094D01*
X52815Y229995D01*
X52802Y229897D01*
X52785Y229799D01*
X52764Y229701D01*
X52739Y229605D01*
X52711Y229510D01*
X52679Y229416D01*
X52644Y229323D01*
X52605Y229231D01*
X52562Y229141D01*
X52517Y229053D01*
X52467Y228966D01*
X52415Y228882D01*
X52359Y228799D01*
X52301Y228719D01*
X52239Y228641D01*
X52174Y228566D01*
X52106Y228493D01*
X52036Y228423D01*
X51963Y228355D01*
X51888Y228290D01*
X51810Y228228D01*
X51730Y228170D01*
X51647Y228114D01*
X51563Y228062D01*
X51476Y228012D01*
X51388Y227967D01*
X51298Y227924D01*
X51206Y227885D01*
X51113Y227850D01*
X51019Y227818D01*
X50924Y227790D01*
X50828Y227765D01*
X50730Y227744D01*
X50632Y227727D01*
X50534Y227714D01*
X50435Y227705D01*
X50335Y227699D01*
X50236Y227697D01*
X43744Y227697D01*
X43744Y227696D02*
X43645Y227698D01*
X43545Y227704D01*
X43446Y227713D01*
X43348Y227726D01*
X43250Y227744D01*
X43152Y227764D01*
X43056Y227789D01*
X42960Y227817D01*
X42866Y227849D01*
X42773Y227884D01*
X42682Y227923D01*
X42592Y227966D01*
X42503Y228011D01*
X42417Y228061D01*
X42332Y228113D01*
X42250Y228169D01*
X42170Y228228D01*
X42092Y228289D01*
X42016Y228354D01*
X41943Y228422D01*
X41873Y228492D01*
X41805Y228565D01*
X41740Y228641D01*
X41679Y228719D01*
X41620Y228799D01*
X41564Y228881D01*
X41512Y228966D01*
X41463Y229052D01*
X41417Y229141D01*
X41374Y229231D01*
X41335Y229322D01*
X41300Y229415D01*
X41268Y229509D01*
X41240Y229605D01*
X41215Y229701D01*
X41195Y229799D01*
X41177Y229897D01*
X41164Y229995D01*
X41155Y230094D01*
X41149Y230193D01*
X41147Y230293D01*
X41148Y230293D02*
X41148Y234188D01*
X41148Y239889D02*
X52832Y239889D01*
X52832Y246380D02*
X41148Y239889D01*
X41148Y246380D02*
X52832Y246380D01*
X52832Y252081D02*
X41148Y252081D01*
X41148Y255326D01*
X41150Y255439D01*
X41156Y255552D01*
X41166Y255665D01*
X41180Y255778D01*
X41197Y255890D01*
X41219Y256001D01*
X41244Y256111D01*
X41274Y256221D01*
X41307Y256329D01*
X41344Y256436D01*
X41384Y256542D01*
X41429Y256646D01*
X41477Y256749D01*
X41528Y256850D01*
X41583Y256949D01*
X41641Y257046D01*
X41703Y257141D01*
X41768Y257234D01*
X41836Y257324D01*
X41907Y257412D01*
X41982Y257498D01*
X42059Y257581D01*
X42139Y257661D01*
X42222Y257738D01*
X42308Y257813D01*
X42396Y257884D01*
X42486Y257952D01*
X42579Y258017D01*
X42674Y258079D01*
X42771Y258137D01*
X42870Y258192D01*
X42971Y258243D01*
X43074Y258291D01*
X43178Y258336D01*
X43284Y258376D01*
X43391Y258413D01*
X43499Y258446D01*
X43609Y258476D01*
X43719Y258501D01*
X43830Y258523D01*
X43942Y258540D01*
X44055Y258554D01*
X44168Y258564D01*
X44281Y258570D01*
X44394Y258572D01*
X49586Y258572D01*
X49699Y258570D01*
X49812Y258564D01*
X49925Y258554D01*
X50038Y258540D01*
X50150Y258523D01*
X50261Y258501D01*
X50371Y258476D01*
X50481Y258446D01*
X50589Y258413D01*
X50696Y258376D01*
X50802Y258336D01*
X50906Y258291D01*
X51009Y258243D01*
X51110Y258192D01*
X51209Y258137D01*
X51306Y258079D01*
X51401Y258017D01*
X51494Y257952D01*
X51584Y257884D01*
X51672Y257813D01*
X51758Y257738D01*
X51841Y257661D01*
X51921Y257581D01*
X51998Y257498D01*
X52073Y257412D01*
X52144Y257324D01*
X52212Y257234D01*
X52277Y257141D01*
X52339Y257046D01*
X52397Y256949D01*
X52452Y256850D01*
X52503Y256749D01*
X52551Y256646D01*
X52596Y256542D01*
X52636Y256436D01*
X52673Y256329D01*
X52706Y256221D01*
X52736Y256111D01*
X52761Y256001D01*
X52783Y255890D01*
X52800Y255778D01*
X52814Y255665D01*
X52824Y255552D01*
X52830Y255439D01*
X52832Y255326D01*
X52832Y252081D01*
D11*
X310261Y391541D02*
X319659Y394674D01*
X310261Y397806D01*
X316004Y401295D02*
X316004Y407560D01*
X319137Y404427D02*
X312872Y404427D01*
X391541Y391541D02*
X400939Y394674D01*
X391541Y397806D01*
X397284Y401295D02*
X397284Y407560D01*
X375398Y376442D02*
X375398Y374876D01*
X375398Y376442D02*
X380619Y376442D01*
X380619Y373309D01*
X380617Y373220D01*
X380611Y373132D01*
X380602Y373044D01*
X380589Y372956D01*
X380572Y372869D01*
X380552Y372783D01*
X380527Y372698D01*
X380500Y372613D01*
X380468Y372530D01*
X380434Y372449D01*
X380395Y372369D01*
X380354Y372291D01*
X380309Y372214D01*
X380261Y372140D01*
X380210Y372067D01*
X380156Y371997D01*
X380098Y371930D01*
X380038Y371864D01*
X379976Y371802D01*
X379910Y371742D01*
X379843Y371684D01*
X379773Y371630D01*
X379700Y371579D01*
X379626Y371531D01*
X379549Y371486D01*
X379471Y371445D01*
X379391Y371406D01*
X379310Y371372D01*
X379227Y371340D01*
X379142Y371313D01*
X379057Y371288D01*
X378971Y371268D01*
X378884Y371251D01*
X378796Y371238D01*
X378708Y371229D01*
X378620Y371223D01*
X378531Y371221D01*
X373309Y371221D01*
X373218Y371223D01*
X373127Y371229D01*
X373036Y371239D01*
X372946Y371253D01*
X372857Y371271D01*
X372768Y371292D01*
X372681Y371318D01*
X372595Y371347D01*
X372510Y371380D01*
X372426Y371417D01*
X372344Y371457D01*
X372265Y371501D01*
X372187Y371548D01*
X372111Y371599D01*
X372037Y371653D01*
X371966Y371710D01*
X371898Y371770D01*
X371832Y371833D01*
X371769Y371899D01*
X371709Y371967D01*
X371652Y372038D01*
X371598Y372112D01*
X371547Y372188D01*
X371500Y372265D01*
X371456Y372345D01*
X371416Y372427D01*
X371379Y372511D01*
X371346Y372595D01*
X371317Y372682D01*
X371291Y372769D01*
X371270Y372858D01*
X371252Y372947D01*
X371238Y373037D01*
X371228Y373128D01*
X371222Y373219D01*
X371220Y373310D01*
X371221Y373309D02*
X371221Y376442D01*
X371221Y380975D02*
X380619Y380975D01*
X380619Y386196D02*
X371221Y380975D01*
X371221Y386196D02*
X380619Y386196D01*
X380619Y390728D02*
X371221Y390728D01*
X371221Y393339D01*
X371223Y393439D01*
X371229Y393539D01*
X371238Y393638D01*
X371252Y393738D01*
X371269Y393836D01*
X371290Y393934D01*
X371314Y394031D01*
X371343Y394127D01*
X371375Y394222D01*
X371410Y394315D01*
X371449Y394407D01*
X371492Y394498D01*
X371538Y394586D01*
X371588Y394673D01*
X371640Y394758D01*
X371696Y394841D01*
X371755Y394922D01*
X371818Y395000D01*
X371883Y395076D01*
X371951Y395150D01*
X372021Y395220D01*
X372095Y395288D01*
X372171Y395353D01*
X372249Y395416D01*
X372330Y395475D01*
X372413Y395531D01*
X372498Y395583D01*
X372585Y395633D01*
X372673Y395679D01*
X372764Y395722D01*
X372856Y395761D01*
X372949Y395796D01*
X373044Y395828D01*
X373140Y395857D01*
X373237Y395881D01*
X373335Y395902D01*
X373433Y395919D01*
X373533Y395933D01*
X373632Y395942D01*
X373732Y395948D01*
X373832Y395950D01*
X373832Y395949D02*
X378008Y395949D01*
X378008Y395950D02*
X378108Y395948D01*
X378208Y395942D01*
X378307Y395933D01*
X378407Y395919D01*
X378505Y395902D01*
X378603Y395881D01*
X378700Y395857D01*
X378796Y395828D01*
X378891Y395796D01*
X378984Y395761D01*
X379076Y395722D01*
X379167Y395679D01*
X379255Y395633D01*
X379342Y395583D01*
X379427Y395531D01*
X379510Y395475D01*
X379591Y395416D01*
X379669Y395353D01*
X379745Y395288D01*
X379819Y395220D01*
X379889Y395150D01*
X379957Y395076D01*
X380022Y395000D01*
X380085Y394922D01*
X380144Y394841D01*
X380200Y394758D01*
X380252Y394673D01*
X380302Y394586D01*
X380348Y394498D01*
X380391Y394407D01*
X380430Y394315D01*
X380465Y394222D01*
X380497Y394127D01*
X380526Y394031D01*
X380550Y393934D01*
X380571Y393836D01*
X380588Y393738D01*
X380602Y393638D01*
X380611Y393539D01*
X380617Y393439D01*
X380619Y393339D01*
X380619Y390728D01*
X339979Y387505D02*
X330581Y387505D01*
X339979Y386461D02*
X339979Y388549D01*
X330581Y388549D02*
X330581Y386461D01*
X330581Y392515D02*
X339979Y392515D01*
X339979Y397736D02*
X330581Y392515D01*
X330581Y397736D02*
X339979Y397736D01*
X336324Y402051D02*
X336324Y408316D01*
X333192Y405184D02*
X339457Y405184D01*
X350901Y387505D02*
X360299Y387505D01*
X360299Y386461D02*
X360299Y388549D01*
X350901Y388549D02*
X350901Y386461D01*
X350901Y392515D02*
X360299Y392515D01*
X360299Y397736D02*
X350901Y392515D01*
X350901Y397736D02*
X360299Y397736D01*
X356644Y402051D02*
X356644Y408316D01*
X506865Y269762D02*
X508432Y269762D01*
X508432Y264541D01*
X505299Y264541D01*
X505210Y264543D01*
X505122Y264549D01*
X505034Y264558D01*
X504946Y264571D01*
X504859Y264588D01*
X504773Y264608D01*
X504688Y264633D01*
X504603Y264660D01*
X504520Y264692D01*
X504439Y264726D01*
X504359Y264765D01*
X504281Y264806D01*
X504204Y264851D01*
X504130Y264899D01*
X504057Y264950D01*
X503987Y265004D01*
X503920Y265062D01*
X503854Y265122D01*
X503792Y265184D01*
X503732Y265250D01*
X503674Y265317D01*
X503620Y265387D01*
X503569Y265460D01*
X503521Y265534D01*
X503476Y265611D01*
X503435Y265689D01*
X503396Y265769D01*
X503362Y265850D01*
X503330Y265933D01*
X503303Y266018D01*
X503278Y266103D01*
X503258Y266189D01*
X503241Y266276D01*
X503228Y266364D01*
X503219Y266452D01*
X503213Y266540D01*
X503211Y266629D01*
X503211Y271851D01*
X503213Y271942D01*
X503219Y272033D01*
X503229Y272124D01*
X503243Y272214D01*
X503260Y272303D01*
X503282Y272391D01*
X503308Y272479D01*
X503337Y272565D01*
X503370Y272650D01*
X503407Y272733D01*
X503447Y272815D01*
X503491Y272895D01*
X503538Y272973D01*
X503589Y273049D01*
X503642Y273122D01*
X503699Y273193D01*
X503760Y273262D01*
X503823Y273327D01*
X503888Y273390D01*
X503957Y273450D01*
X504028Y273508D01*
X504101Y273561D01*
X504177Y273612D01*
X504255Y273659D01*
X504335Y273703D01*
X504417Y273743D01*
X504500Y273780D01*
X504585Y273813D01*
X504671Y273842D01*
X504759Y273868D01*
X504847Y273890D01*
X504936Y273907D01*
X505026Y273921D01*
X505117Y273931D01*
X505208Y273937D01*
X505299Y273939D01*
X508432Y273939D01*
X512964Y273939D02*
X512964Y264541D01*
X518185Y264541D02*
X512964Y273939D01*
X518185Y273939D02*
X518185Y264541D01*
X522718Y264541D02*
X522718Y273939D01*
X525328Y273939D01*
X525428Y273937D01*
X525528Y273931D01*
X525627Y273922D01*
X525727Y273908D01*
X525825Y273891D01*
X525923Y273870D01*
X526020Y273846D01*
X526116Y273817D01*
X526211Y273785D01*
X526304Y273750D01*
X526396Y273711D01*
X526487Y273668D01*
X526575Y273622D01*
X526662Y273572D01*
X526747Y273520D01*
X526830Y273464D01*
X526911Y273405D01*
X526989Y273342D01*
X527065Y273277D01*
X527139Y273209D01*
X527209Y273139D01*
X527277Y273065D01*
X527342Y272989D01*
X527405Y272911D01*
X527464Y272830D01*
X527520Y272747D01*
X527572Y272662D01*
X527622Y272575D01*
X527668Y272487D01*
X527711Y272396D01*
X527750Y272304D01*
X527785Y272211D01*
X527817Y272116D01*
X527846Y272020D01*
X527870Y271923D01*
X527891Y271825D01*
X527908Y271727D01*
X527922Y271627D01*
X527931Y271528D01*
X527937Y271428D01*
X527939Y271328D01*
X527939Y267152D01*
X527937Y267052D01*
X527931Y266952D01*
X527922Y266853D01*
X527908Y266753D01*
X527891Y266655D01*
X527870Y266557D01*
X527846Y266460D01*
X527817Y266364D01*
X527785Y266269D01*
X527750Y266176D01*
X527711Y266084D01*
X527668Y265993D01*
X527622Y265905D01*
X527572Y265818D01*
X527520Y265733D01*
X527464Y265650D01*
X527405Y265569D01*
X527342Y265491D01*
X527277Y265415D01*
X527209Y265341D01*
X527139Y265271D01*
X527065Y265203D01*
X526989Y265138D01*
X526911Y265075D01*
X526830Y265016D01*
X526747Y264960D01*
X526662Y264908D01*
X526575Y264858D01*
X526487Y264812D01*
X526396Y264769D01*
X526304Y264730D01*
X526211Y264695D01*
X526116Y264663D01*
X526020Y264634D01*
X525923Y264610D01*
X525825Y264589D01*
X525727Y264572D01*
X525627Y264558D01*
X525528Y264549D01*
X525428Y264543D01*
X525328Y264541D01*
X522718Y264541D01*
X499537Y243459D02*
X502670Y234061D01*
X505803Y243459D01*
X509116Y238238D02*
X509116Y236149D01*
X509116Y238238D02*
X509118Y238328D01*
X509124Y238417D01*
X509133Y238507D01*
X509147Y238596D01*
X509164Y238684D01*
X509185Y238771D01*
X509210Y238858D01*
X509239Y238943D01*
X509271Y239027D01*
X509306Y239109D01*
X509346Y239190D01*
X509388Y239269D01*
X509434Y239346D01*
X509484Y239421D01*
X509536Y239494D01*
X509592Y239565D01*
X509650Y239633D01*
X509712Y239698D01*
X509776Y239761D01*
X509843Y239821D01*
X509912Y239878D01*
X509984Y239932D01*
X510058Y239983D01*
X510134Y240031D01*
X510212Y240075D01*
X510292Y240116D01*
X510374Y240154D01*
X510457Y240188D01*
X510542Y240218D01*
X510628Y240245D01*
X510714Y240268D01*
X510802Y240287D01*
X510891Y240302D01*
X510980Y240314D01*
X511069Y240322D01*
X511159Y240326D01*
X511249Y240326D01*
X511339Y240322D01*
X511428Y240314D01*
X511517Y240302D01*
X511606Y240287D01*
X511694Y240268D01*
X511780Y240245D01*
X511866Y240218D01*
X511951Y240188D01*
X512034Y240154D01*
X512116Y240116D01*
X512196Y240075D01*
X512274Y240031D01*
X512350Y239983D01*
X512424Y239932D01*
X512496Y239878D01*
X512565Y239821D01*
X512632Y239761D01*
X512696Y239698D01*
X512758Y239633D01*
X512816Y239565D01*
X512872Y239494D01*
X512924Y239421D01*
X512974Y239346D01*
X513020Y239269D01*
X513062Y239190D01*
X513102Y239109D01*
X513137Y239027D01*
X513169Y238943D01*
X513198Y238858D01*
X513223Y238771D01*
X513244Y238684D01*
X513261Y238596D01*
X513275Y238507D01*
X513284Y238417D01*
X513290Y238328D01*
X513292Y238238D01*
X513293Y238238D02*
X513293Y236149D01*
X513292Y236149D02*
X513290Y236059D01*
X513284Y235970D01*
X513275Y235880D01*
X513261Y235791D01*
X513244Y235703D01*
X513223Y235616D01*
X513198Y235529D01*
X513169Y235444D01*
X513137Y235360D01*
X513102Y235278D01*
X513062Y235197D01*
X513020Y235118D01*
X512974Y235041D01*
X512924Y234966D01*
X512872Y234893D01*
X512816Y234822D01*
X512758Y234754D01*
X512696Y234689D01*
X512632Y234626D01*
X512565Y234566D01*
X512496Y234509D01*
X512424Y234455D01*
X512350Y234404D01*
X512274Y234356D01*
X512196Y234312D01*
X512116Y234271D01*
X512034Y234233D01*
X511951Y234199D01*
X511866Y234169D01*
X511780Y234142D01*
X511694Y234119D01*
X511606Y234100D01*
X511517Y234085D01*
X511428Y234073D01*
X511339Y234065D01*
X511249Y234061D01*
X511159Y234061D01*
X511069Y234065D01*
X510980Y234073D01*
X510891Y234085D01*
X510802Y234100D01*
X510714Y234119D01*
X510628Y234142D01*
X510542Y234169D01*
X510457Y234199D01*
X510374Y234233D01*
X510292Y234271D01*
X510212Y234312D01*
X510134Y234356D01*
X510058Y234404D01*
X509984Y234455D01*
X509912Y234509D01*
X509843Y234566D01*
X509776Y234626D01*
X509712Y234689D01*
X509650Y234754D01*
X509592Y234822D01*
X509536Y234893D01*
X509484Y234966D01*
X509434Y235041D01*
X509388Y235118D01*
X509346Y235197D01*
X509306Y235278D01*
X509271Y235360D01*
X509239Y235444D01*
X509210Y235529D01*
X509185Y235616D01*
X509164Y235703D01*
X509147Y235791D01*
X509133Y235880D01*
X509124Y235970D01*
X509118Y236059D01*
X509116Y236149D01*
X517345Y235627D02*
X517345Y240326D01*
X517346Y235627D02*
X517348Y235550D01*
X517354Y235474D01*
X517363Y235397D01*
X517376Y235321D01*
X517393Y235246D01*
X517413Y235172D01*
X517438Y235099D01*
X517465Y235028D01*
X517496Y234957D01*
X517531Y234889D01*
X517569Y234822D01*
X517610Y234757D01*
X517654Y234694D01*
X517701Y234634D01*
X517752Y234575D01*
X517805Y234520D01*
X517860Y234467D01*
X517919Y234416D01*
X517979Y234369D01*
X518042Y234325D01*
X518107Y234284D01*
X518174Y234246D01*
X518242Y234211D01*
X518313Y234180D01*
X518384Y234153D01*
X518457Y234128D01*
X518531Y234108D01*
X518606Y234091D01*
X518682Y234078D01*
X518759Y234069D01*
X518835Y234063D01*
X518912Y234061D01*
X521522Y234061D01*
X521522Y240326D01*
X524806Y240326D02*
X527939Y240326D01*
X525851Y243459D02*
X525851Y235627D01*
X525853Y235550D01*
X525859Y235474D01*
X525868Y235397D01*
X525881Y235321D01*
X525898Y235246D01*
X525918Y235172D01*
X525943Y235099D01*
X525970Y235028D01*
X526001Y234957D01*
X526036Y234889D01*
X526074Y234822D01*
X526115Y234757D01*
X526159Y234694D01*
X526206Y234634D01*
X526257Y234575D01*
X526310Y234520D01*
X526365Y234467D01*
X526424Y234416D01*
X526484Y234369D01*
X526547Y234325D01*
X526612Y234284D01*
X526679Y234246D01*
X526747Y234211D01*
X526818Y234180D01*
X526889Y234153D01*
X526962Y234128D01*
X527036Y234108D01*
X527111Y234091D01*
X527187Y234078D01*
X527264Y234069D01*
X527340Y234063D01*
X527417Y234061D01*
X527939Y234061D01*
D12*
X340953Y158242D02*
X337058Y146558D01*
X344847Y146558D02*
X340953Y158242D01*
X343874Y149479D02*
X338032Y149479D01*
X349592Y146558D02*
X349592Y158242D01*
X352837Y158242D01*
X352950Y158240D01*
X353063Y158234D01*
X353176Y158224D01*
X353289Y158210D01*
X353401Y158193D01*
X353512Y158171D01*
X353622Y158146D01*
X353732Y158116D01*
X353840Y158083D01*
X353947Y158046D01*
X354053Y158006D01*
X354157Y157961D01*
X354260Y157913D01*
X354361Y157862D01*
X354460Y157807D01*
X354557Y157749D01*
X354652Y157687D01*
X354745Y157622D01*
X354835Y157554D01*
X354923Y157483D01*
X355009Y157408D01*
X355092Y157331D01*
X355172Y157251D01*
X355249Y157168D01*
X355324Y157082D01*
X355395Y156994D01*
X355463Y156904D01*
X355528Y156811D01*
X355590Y156716D01*
X355648Y156619D01*
X355703Y156520D01*
X355754Y156419D01*
X355802Y156316D01*
X355847Y156212D01*
X355887Y156106D01*
X355924Y155999D01*
X355957Y155891D01*
X355987Y155781D01*
X356012Y155671D01*
X356034Y155560D01*
X356051Y155448D01*
X356065Y155335D01*
X356075Y155222D01*
X356081Y155109D01*
X356083Y154996D01*
X356081Y154883D01*
X356075Y154770D01*
X356065Y154657D01*
X356051Y154544D01*
X356034Y154432D01*
X356012Y154321D01*
X355987Y154211D01*
X355957Y154101D01*
X355924Y153993D01*
X355887Y153886D01*
X355847Y153780D01*
X355802Y153676D01*
X355754Y153573D01*
X355703Y153472D01*
X355648Y153373D01*
X355590Y153276D01*
X355528Y153181D01*
X355463Y153088D01*
X355395Y152998D01*
X355324Y152910D01*
X355249Y152824D01*
X355172Y152741D01*
X355092Y152661D01*
X355009Y152584D01*
X354923Y152509D01*
X354835Y152438D01*
X354745Y152370D01*
X354652Y152305D01*
X354557Y152243D01*
X354460Y152185D01*
X354361Y152130D01*
X354260Y152079D01*
X354157Y152031D01*
X354053Y151986D01*
X353947Y151946D01*
X353840Y151909D01*
X353732Y151876D01*
X353622Y151846D01*
X353512Y151821D01*
X353401Y151799D01*
X353289Y151782D01*
X353176Y151768D01*
X353063Y151758D01*
X352950Y151752D01*
X352837Y151750D01*
X352837Y151751D02*
X349592Y151751D01*
X353486Y151751D02*
X356083Y146558D01*
X360948Y155646D02*
X364194Y158242D01*
X364194Y146558D01*
X367439Y146558D02*
X360948Y146558D01*
X372491Y151102D02*
X380280Y151102D01*
X376386Y154996D02*
X376386Y147207D01*
X349758Y298958D02*
X353653Y310642D01*
X357547Y298958D01*
X356574Y301879D02*
X350732Y301879D01*
X362292Y298958D02*
X362292Y310642D01*
X365537Y310642D01*
X365650Y310640D01*
X365763Y310634D01*
X365876Y310624D01*
X365989Y310610D01*
X366101Y310593D01*
X366212Y310571D01*
X366322Y310546D01*
X366432Y310516D01*
X366540Y310483D01*
X366647Y310446D01*
X366753Y310406D01*
X366857Y310361D01*
X366960Y310313D01*
X367061Y310262D01*
X367160Y310207D01*
X367257Y310149D01*
X367352Y310087D01*
X367445Y310022D01*
X367535Y309954D01*
X367623Y309883D01*
X367709Y309808D01*
X367792Y309731D01*
X367872Y309651D01*
X367949Y309568D01*
X368024Y309482D01*
X368095Y309394D01*
X368163Y309304D01*
X368228Y309211D01*
X368290Y309116D01*
X368348Y309019D01*
X368403Y308920D01*
X368454Y308819D01*
X368502Y308716D01*
X368547Y308612D01*
X368587Y308506D01*
X368624Y308399D01*
X368657Y308291D01*
X368687Y308181D01*
X368712Y308071D01*
X368734Y307960D01*
X368751Y307848D01*
X368765Y307735D01*
X368775Y307622D01*
X368781Y307509D01*
X368783Y307396D01*
X368781Y307283D01*
X368775Y307170D01*
X368765Y307057D01*
X368751Y306944D01*
X368734Y306832D01*
X368712Y306721D01*
X368687Y306611D01*
X368657Y306501D01*
X368624Y306393D01*
X368587Y306286D01*
X368547Y306180D01*
X368502Y306076D01*
X368454Y305973D01*
X368403Y305872D01*
X368348Y305773D01*
X368290Y305676D01*
X368228Y305581D01*
X368163Y305488D01*
X368095Y305398D01*
X368024Y305310D01*
X367949Y305224D01*
X367872Y305141D01*
X367792Y305061D01*
X367709Y304984D01*
X367623Y304909D01*
X367535Y304838D01*
X367445Y304770D01*
X367352Y304705D01*
X367257Y304643D01*
X367160Y304585D01*
X367061Y304530D01*
X366960Y304479D01*
X366857Y304431D01*
X366753Y304386D01*
X366647Y304346D01*
X366540Y304309D01*
X366432Y304276D01*
X366322Y304246D01*
X366212Y304221D01*
X366101Y304199D01*
X365989Y304182D01*
X365876Y304168D01*
X365763Y304158D01*
X365650Y304152D01*
X365537Y304150D01*
X365537Y304151D02*
X362292Y304151D01*
X366186Y304151D02*
X368783Y298958D01*
X373648Y308046D02*
X376894Y310642D01*
X376894Y298958D01*
X380139Y298958D02*
X373648Y298958D01*
X385191Y303502D02*
X392980Y303502D01*
X277453Y158242D02*
X273558Y146558D01*
X281347Y146558D02*
X277453Y158242D01*
X280374Y149479D02*
X274532Y149479D01*
X286092Y146558D02*
X286092Y158242D01*
X289337Y158242D01*
X289450Y158240D01*
X289563Y158234D01*
X289676Y158224D01*
X289789Y158210D01*
X289901Y158193D01*
X290012Y158171D01*
X290122Y158146D01*
X290232Y158116D01*
X290340Y158083D01*
X290447Y158046D01*
X290553Y158006D01*
X290657Y157961D01*
X290760Y157913D01*
X290861Y157862D01*
X290960Y157807D01*
X291057Y157749D01*
X291152Y157687D01*
X291245Y157622D01*
X291335Y157554D01*
X291423Y157483D01*
X291509Y157408D01*
X291592Y157331D01*
X291672Y157251D01*
X291749Y157168D01*
X291824Y157082D01*
X291895Y156994D01*
X291963Y156904D01*
X292028Y156811D01*
X292090Y156716D01*
X292148Y156619D01*
X292203Y156520D01*
X292254Y156419D01*
X292302Y156316D01*
X292347Y156212D01*
X292387Y156106D01*
X292424Y155999D01*
X292457Y155891D01*
X292487Y155781D01*
X292512Y155671D01*
X292534Y155560D01*
X292551Y155448D01*
X292565Y155335D01*
X292575Y155222D01*
X292581Y155109D01*
X292583Y154996D01*
X292581Y154883D01*
X292575Y154770D01*
X292565Y154657D01*
X292551Y154544D01*
X292534Y154432D01*
X292512Y154321D01*
X292487Y154211D01*
X292457Y154101D01*
X292424Y153993D01*
X292387Y153886D01*
X292347Y153780D01*
X292302Y153676D01*
X292254Y153573D01*
X292203Y153472D01*
X292148Y153373D01*
X292090Y153276D01*
X292028Y153181D01*
X291963Y153088D01*
X291895Y152998D01*
X291824Y152910D01*
X291749Y152824D01*
X291672Y152741D01*
X291592Y152661D01*
X291509Y152584D01*
X291423Y152509D01*
X291335Y152438D01*
X291245Y152370D01*
X291152Y152305D01*
X291057Y152243D01*
X290960Y152185D01*
X290861Y152130D01*
X290760Y152079D01*
X290657Y152031D01*
X290553Y151986D01*
X290447Y151946D01*
X290340Y151909D01*
X290232Y151876D01*
X290122Y151846D01*
X290012Y151821D01*
X289901Y151799D01*
X289789Y151782D01*
X289676Y151768D01*
X289563Y151758D01*
X289450Y151752D01*
X289337Y151750D01*
X289337Y151751D02*
X286092Y151751D01*
X289986Y151751D02*
X292583Y146558D01*
X303939Y155321D02*
X303937Y155428D01*
X303931Y155534D01*
X303921Y155640D01*
X303908Y155746D01*
X303890Y155852D01*
X303869Y155956D01*
X303844Y156060D01*
X303815Y156163D01*
X303783Y156264D01*
X303746Y156364D01*
X303706Y156463D01*
X303663Y156561D01*
X303616Y156657D01*
X303565Y156751D01*
X303511Y156843D01*
X303454Y156933D01*
X303394Y157021D01*
X303330Y157106D01*
X303263Y157189D01*
X303193Y157270D01*
X303121Y157348D01*
X303045Y157424D01*
X302967Y157496D01*
X302886Y157566D01*
X302803Y157633D01*
X302718Y157697D01*
X302630Y157757D01*
X302540Y157814D01*
X302448Y157868D01*
X302354Y157919D01*
X302258Y157966D01*
X302160Y158009D01*
X302061Y158049D01*
X301961Y158086D01*
X301860Y158118D01*
X301757Y158147D01*
X301653Y158172D01*
X301549Y158193D01*
X301443Y158211D01*
X301337Y158224D01*
X301231Y158234D01*
X301125Y158240D01*
X301018Y158242D01*
X300897Y158240D01*
X300776Y158234D01*
X300656Y158224D01*
X300535Y158211D01*
X300416Y158193D01*
X300296Y158172D01*
X300178Y158147D01*
X300061Y158118D01*
X299944Y158085D01*
X299829Y158049D01*
X299715Y158008D01*
X299602Y157965D01*
X299490Y157917D01*
X299381Y157866D01*
X299273Y157811D01*
X299166Y157753D01*
X299062Y157692D01*
X298960Y157627D01*
X298860Y157559D01*
X298762Y157488D01*
X298666Y157414D01*
X298573Y157337D01*
X298483Y157256D01*
X298395Y157173D01*
X298310Y157087D01*
X298227Y156998D01*
X298148Y156907D01*
X298071Y156813D01*
X297998Y156717D01*
X297928Y156619D01*
X297861Y156518D01*
X297797Y156415D01*
X297737Y156310D01*
X297680Y156203D01*
X297626Y156095D01*
X297576Y155985D01*
X297530Y155873D01*
X297487Y155760D01*
X297448Y155645D01*
X302966Y153049D02*
X303045Y153126D01*
X303121Y153207D01*
X303194Y153290D01*
X303264Y153375D01*
X303331Y153463D01*
X303395Y153553D01*
X303455Y153645D01*
X303512Y153740D01*
X303566Y153836D01*
X303617Y153934D01*
X303664Y154034D01*
X303708Y154136D01*
X303748Y154239D01*
X303784Y154343D01*
X303816Y154449D01*
X303845Y154555D01*
X303870Y154663D01*
X303892Y154771D01*
X303909Y154881D01*
X303923Y154990D01*
X303932Y155100D01*
X303938Y155211D01*
X303940Y155321D01*
X302966Y153049D02*
X297448Y146558D01*
X303939Y146558D01*
X308991Y151102D02*
X316780Y151102D01*
X312886Y154996D02*
X312886Y147207D01*
X305520Y337058D02*
X309414Y348742D01*
X313309Y337058D01*
X312335Y339979D02*
X306493Y339979D01*
X318053Y337058D02*
X318053Y348742D01*
X321299Y348742D01*
X321412Y348740D01*
X321525Y348734D01*
X321638Y348724D01*
X321751Y348710D01*
X321863Y348693D01*
X321974Y348671D01*
X322084Y348646D01*
X322194Y348616D01*
X322302Y348583D01*
X322409Y348546D01*
X322515Y348506D01*
X322619Y348461D01*
X322722Y348413D01*
X322823Y348362D01*
X322922Y348307D01*
X323019Y348249D01*
X323114Y348187D01*
X323207Y348122D01*
X323297Y348054D01*
X323385Y347983D01*
X323471Y347908D01*
X323554Y347831D01*
X323634Y347751D01*
X323711Y347668D01*
X323786Y347582D01*
X323857Y347494D01*
X323925Y347404D01*
X323990Y347311D01*
X324052Y347216D01*
X324110Y347119D01*
X324165Y347020D01*
X324216Y346919D01*
X324264Y346816D01*
X324309Y346712D01*
X324349Y346606D01*
X324386Y346499D01*
X324419Y346391D01*
X324449Y346281D01*
X324474Y346171D01*
X324496Y346060D01*
X324513Y345948D01*
X324527Y345835D01*
X324537Y345722D01*
X324543Y345609D01*
X324545Y345496D01*
X324543Y345383D01*
X324537Y345270D01*
X324527Y345157D01*
X324513Y345044D01*
X324496Y344932D01*
X324474Y344821D01*
X324449Y344711D01*
X324419Y344601D01*
X324386Y344493D01*
X324349Y344386D01*
X324309Y344280D01*
X324264Y344176D01*
X324216Y344073D01*
X324165Y343972D01*
X324110Y343873D01*
X324052Y343776D01*
X323990Y343681D01*
X323925Y343588D01*
X323857Y343498D01*
X323786Y343410D01*
X323711Y343324D01*
X323634Y343241D01*
X323554Y343161D01*
X323471Y343084D01*
X323385Y343009D01*
X323297Y342938D01*
X323207Y342870D01*
X323114Y342805D01*
X323019Y342743D01*
X322922Y342685D01*
X322823Y342630D01*
X322722Y342579D01*
X322619Y342531D01*
X322515Y342486D01*
X322409Y342446D01*
X322302Y342409D01*
X322194Y342376D01*
X322084Y342346D01*
X321974Y342321D01*
X321863Y342299D01*
X321751Y342282D01*
X321638Y342268D01*
X321525Y342258D01*
X321412Y342252D01*
X321299Y342250D01*
X321299Y342251D02*
X318053Y342251D01*
X321948Y342251D02*
X324545Y337058D01*
X335901Y345821D02*
X335899Y345928D01*
X335893Y346034D01*
X335883Y346140D01*
X335870Y346246D01*
X335852Y346352D01*
X335831Y346456D01*
X335806Y346560D01*
X335777Y346663D01*
X335745Y346764D01*
X335708Y346864D01*
X335668Y346963D01*
X335625Y347061D01*
X335578Y347157D01*
X335527Y347251D01*
X335473Y347343D01*
X335416Y347433D01*
X335356Y347521D01*
X335292Y347606D01*
X335225Y347689D01*
X335155Y347770D01*
X335083Y347848D01*
X335007Y347924D01*
X334929Y347996D01*
X334848Y348066D01*
X334765Y348133D01*
X334680Y348197D01*
X334592Y348257D01*
X334502Y348314D01*
X334410Y348368D01*
X334316Y348419D01*
X334220Y348466D01*
X334122Y348509D01*
X334023Y348549D01*
X333923Y348586D01*
X333822Y348618D01*
X333719Y348647D01*
X333615Y348672D01*
X333511Y348693D01*
X333405Y348711D01*
X333299Y348724D01*
X333193Y348734D01*
X333087Y348740D01*
X332980Y348742D01*
X332859Y348740D01*
X332738Y348734D01*
X332618Y348724D01*
X332497Y348711D01*
X332378Y348693D01*
X332258Y348672D01*
X332140Y348647D01*
X332023Y348618D01*
X331906Y348585D01*
X331791Y348549D01*
X331677Y348508D01*
X331564Y348465D01*
X331452Y348417D01*
X331343Y348366D01*
X331235Y348311D01*
X331128Y348253D01*
X331024Y348192D01*
X330922Y348127D01*
X330822Y348059D01*
X330724Y347988D01*
X330628Y347914D01*
X330535Y347837D01*
X330445Y347756D01*
X330357Y347673D01*
X330272Y347587D01*
X330189Y347498D01*
X330110Y347407D01*
X330033Y347313D01*
X329960Y347217D01*
X329890Y347119D01*
X329823Y347018D01*
X329759Y346915D01*
X329699Y346810D01*
X329642Y346703D01*
X329588Y346595D01*
X329538Y346485D01*
X329492Y346373D01*
X329449Y346260D01*
X329410Y346145D01*
X334927Y343549D02*
X335006Y343626D01*
X335082Y343707D01*
X335155Y343790D01*
X335225Y343875D01*
X335292Y343963D01*
X335356Y344053D01*
X335416Y344145D01*
X335473Y344240D01*
X335527Y344336D01*
X335578Y344434D01*
X335625Y344534D01*
X335669Y344636D01*
X335709Y344739D01*
X335745Y344843D01*
X335777Y344949D01*
X335806Y345055D01*
X335831Y345163D01*
X335853Y345271D01*
X335870Y345381D01*
X335884Y345490D01*
X335893Y345600D01*
X335899Y345711D01*
X335901Y345821D01*
X334927Y343549D02*
X329410Y337058D01*
X335901Y337058D01*
X340953Y341602D02*
X348742Y341602D01*
X353653Y247142D02*
X349758Y235458D01*
X357547Y235458D02*
X353653Y247142D01*
X356574Y238379D02*
X350732Y238379D01*
X362292Y235458D02*
X362292Y247142D01*
X365537Y247142D01*
X365650Y247140D01*
X365763Y247134D01*
X365876Y247124D01*
X365989Y247110D01*
X366101Y247093D01*
X366212Y247071D01*
X366322Y247046D01*
X366432Y247016D01*
X366540Y246983D01*
X366647Y246946D01*
X366753Y246906D01*
X366857Y246861D01*
X366960Y246813D01*
X367061Y246762D01*
X367160Y246707D01*
X367257Y246649D01*
X367352Y246587D01*
X367445Y246522D01*
X367535Y246454D01*
X367623Y246383D01*
X367709Y246308D01*
X367792Y246231D01*
X367872Y246151D01*
X367949Y246068D01*
X368024Y245982D01*
X368095Y245894D01*
X368163Y245804D01*
X368228Y245711D01*
X368290Y245616D01*
X368348Y245519D01*
X368403Y245420D01*
X368454Y245319D01*
X368502Y245216D01*
X368547Y245112D01*
X368587Y245006D01*
X368624Y244899D01*
X368657Y244791D01*
X368687Y244681D01*
X368712Y244571D01*
X368734Y244460D01*
X368751Y244348D01*
X368765Y244235D01*
X368775Y244122D01*
X368781Y244009D01*
X368783Y243896D01*
X368781Y243783D01*
X368775Y243670D01*
X368765Y243557D01*
X368751Y243444D01*
X368734Y243332D01*
X368712Y243221D01*
X368687Y243111D01*
X368657Y243001D01*
X368624Y242893D01*
X368587Y242786D01*
X368547Y242680D01*
X368502Y242576D01*
X368454Y242473D01*
X368403Y242372D01*
X368348Y242273D01*
X368290Y242176D01*
X368228Y242081D01*
X368163Y241988D01*
X368095Y241898D01*
X368024Y241810D01*
X367949Y241724D01*
X367872Y241641D01*
X367792Y241561D01*
X367709Y241484D01*
X367623Y241409D01*
X367535Y241338D01*
X367445Y241270D01*
X367352Y241205D01*
X367257Y241143D01*
X367160Y241085D01*
X367061Y241030D01*
X366960Y240979D01*
X366857Y240931D01*
X366753Y240886D01*
X366647Y240846D01*
X366540Y240809D01*
X366432Y240776D01*
X366322Y240746D01*
X366212Y240721D01*
X366101Y240699D01*
X365989Y240682D01*
X365876Y240668D01*
X365763Y240658D01*
X365650Y240652D01*
X365537Y240650D01*
X365537Y240651D02*
X362292Y240651D01*
X366186Y240651D02*
X368783Y235458D01*
X373648Y235458D02*
X376894Y235458D01*
X377007Y235460D01*
X377120Y235466D01*
X377233Y235476D01*
X377346Y235490D01*
X377458Y235507D01*
X377569Y235529D01*
X377679Y235554D01*
X377789Y235584D01*
X377897Y235617D01*
X378004Y235654D01*
X378110Y235694D01*
X378214Y235739D01*
X378317Y235787D01*
X378418Y235838D01*
X378517Y235893D01*
X378614Y235951D01*
X378709Y236013D01*
X378802Y236078D01*
X378892Y236146D01*
X378980Y236217D01*
X379066Y236292D01*
X379149Y236369D01*
X379229Y236449D01*
X379306Y236532D01*
X379381Y236618D01*
X379452Y236706D01*
X379520Y236796D01*
X379585Y236889D01*
X379647Y236984D01*
X379705Y237081D01*
X379760Y237180D01*
X379811Y237281D01*
X379859Y237384D01*
X379904Y237488D01*
X379944Y237594D01*
X379981Y237701D01*
X380014Y237809D01*
X380044Y237919D01*
X380069Y238029D01*
X380091Y238140D01*
X380108Y238252D01*
X380122Y238365D01*
X380132Y238478D01*
X380138Y238591D01*
X380140Y238704D01*
X380138Y238817D01*
X380132Y238930D01*
X380122Y239043D01*
X380108Y239156D01*
X380091Y239268D01*
X380069Y239379D01*
X380044Y239489D01*
X380014Y239599D01*
X379981Y239707D01*
X379944Y239814D01*
X379904Y239920D01*
X379859Y240024D01*
X379811Y240127D01*
X379760Y240228D01*
X379705Y240327D01*
X379647Y240424D01*
X379585Y240519D01*
X379520Y240612D01*
X379452Y240702D01*
X379381Y240790D01*
X379306Y240876D01*
X379229Y240959D01*
X379149Y241039D01*
X379066Y241116D01*
X378980Y241191D01*
X378892Y241262D01*
X378802Y241330D01*
X378709Y241395D01*
X378614Y241457D01*
X378517Y241515D01*
X378418Y241570D01*
X378317Y241621D01*
X378214Y241669D01*
X378110Y241714D01*
X378004Y241754D01*
X377897Y241791D01*
X377789Y241824D01*
X377679Y241854D01*
X377569Y241879D01*
X377458Y241901D01*
X377346Y241918D01*
X377233Y241932D01*
X377120Y241942D01*
X377007Y241948D01*
X376894Y241950D01*
X377543Y247142D02*
X373648Y247142D01*
X377543Y247142D02*
X377644Y247140D01*
X377744Y247134D01*
X377844Y247124D01*
X377944Y247111D01*
X378043Y247093D01*
X378142Y247072D01*
X378239Y247047D01*
X378336Y247018D01*
X378431Y246985D01*
X378525Y246949D01*
X378617Y246909D01*
X378708Y246866D01*
X378797Y246819D01*
X378884Y246769D01*
X378970Y246715D01*
X379053Y246658D01*
X379133Y246598D01*
X379212Y246535D01*
X379288Y246468D01*
X379361Y246399D01*
X379431Y246327D01*
X379499Y246253D01*
X379564Y246176D01*
X379625Y246096D01*
X379684Y246014D01*
X379739Y245930D01*
X379791Y245844D01*
X379840Y245756D01*
X379885Y245666D01*
X379927Y245574D01*
X379965Y245481D01*
X379999Y245386D01*
X380030Y245291D01*
X380057Y245194D01*
X380080Y245096D01*
X380100Y244997D01*
X380115Y244897D01*
X380127Y244797D01*
X380135Y244697D01*
X380139Y244596D01*
X380139Y244496D01*
X380135Y244395D01*
X380127Y244295D01*
X380115Y244195D01*
X380100Y244095D01*
X380080Y243996D01*
X380057Y243898D01*
X380030Y243801D01*
X379999Y243706D01*
X379965Y243611D01*
X379927Y243518D01*
X379885Y243426D01*
X379840Y243336D01*
X379791Y243248D01*
X379739Y243162D01*
X379684Y243078D01*
X379625Y242996D01*
X379564Y242916D01*
X379499Y242839D01*
X379431Y242765D01*
X379361Y242693D01*
X379288Y242624D01*
X379212Y242557D01*
X379133Y242494D01*
X379053Y242434D01*
X378970Y242377D01*
X378884Y242323D01*
X378797Y242273D01*
X378708Y242226D01*
X378617Y242183D01*
X378525Y242143D01*
X378431Y242107D01*
X378336Y242074D01*
X378239Y242045D01*
X378142Y242020D01*
X378043Y241999D01*
X377944Y241981D01*
X377844Y241968D01*
X377744Y241958D01*
X377644Y241952D01*
X377543Y241950D01*
X377543Y241949D02*
X374946Y241949D01*
X385191Y240002D02*
X392980Y240002D01*
X389086Y243896D02*
X389086Y236107D01*
X260858Y362458D02*
X264753Y374142D01*
X268647Y362458D01*
X267674Y365379D02*
X261832Y365379D01*
X273392Y362458D02*
X273392Y374142D01*
X276637Y374142D01*
X276750Y374140D01*
X276863Y374134D01*
X276976Y374124D01*
X277089Y374110D01*
X277201Y374093D01*
X277312Y374071D01*
X277422Y374046D01*
X277532Y374016D01*
X277640Y373983D01*
X277747Y373946D01*
X277853Y373906D01*
X277957Y373861D01*
X278060Y373813D01*
X278161Y373762D01*
X278260Y373707D01*
X278357Y373649D01*
X278452Y373587D01*
X278545Y373522D01*
X278635Y373454D01*
X278723Y373383D01*
X278809Y373308D01*
X278892Y373231D01*
X278972Y373151D01*
X279049Y373068D01*
X279124Y372982D01*
X279195Y372894D01*
X279263Y372804D01*
X279328Y372711D01*
X279390Y372616D01*
X279448Y372519D01*
X279503Y372420D01*
X279554Y372319D01*
X279602Y372216D01*
X279647Y372112D01*
X279687Y372006D01*
X279724Y371899D01*
X279757Y371791D01*
X279787Y371681D01*
X279812Y371571D01*
X279834Y371460D01*
X279851Y371348D01*
X279865Y371235D01*
X279875Y371122D01*
X279881Y371009D01*
X279883Y370896D01*
X279881Y370783D01*
X279875Y370670D01*
X279865Y370557D01*
X279851Y370444D01*
X279834Y370332D01*
X279812Y370221D01*
X279787Y370111D01*
X279757Y370001D01*
X279724Y369893D01*
X279687Y369786D01*
X279647Y369680D01*
X279602Y369576D01*
X279554Y369473D01*
X279503Y369372D01*
X279448Y369273D01*
X279390Y369176D01*
X279328Y369081D01*
X279263Y368988D01*
X279195Y368898D01*
X279124Y368810D01*
X279049Y368724D01*
X278972Y368641D01*
X278892Y368561D01*
X278809Y368484D01*
X278723Y368409D01*
X278635Y368338D01*
X278545Y368270D01*
X278452Y368205D01*
X278357Y368143D01*
X278260Y368085D01*
X278161Y368030D01*
X278060Y367979D01*
X277957Y367931D01*
X277853Y367886D01*
X277747Y367846D01*
X277640Y367809D01*
X277532Y367776D01*
X277422Y367746D01*
X277312Y367721D01*
X277201Y367699D01*
X277089Y367682D01*
X276976Y367668D01*
X276863Y367658D01*
X276750Y367652D01*
X276637Y367650D01*
X276637Y367651D02*
X273392Y367651D01*
X277286Y367651D02*
X279883Y362458D01*
X284748Y362458D02*
X287994Y362458D01*
X288107Y362460D01*
X288220Y362466D01*
X288333Y362476D01*
X288446Y362490D01*
X288558Y362507D01*
X288669Y362529D01*
X288779Y362554D01*
X288889Y362584D01*
X288997Y362617D01*
X289104Y362654D01*
X289210Y362694D01*
X289314Y362739D01*
X289417Y362787D01*
X289518Y362838D01*
X289617Y362893D01*
X289714Y362951D01*
X289809Y363013D01*
X289902Y363078D01*
X289992Y363146D01*
X290080Y363217D01*
X290166Y363292D01*
X290249Y363369D01*
X290329Y363449D01*
X290406Y363532D01*
X290481Y363618D01*
X290552Y363706D01*
X290620Y363796D01*
X290685Y363889D01*
X290747Y363984D01*
X290805Y364081D01*
X290860Y364180D01*
X290911Y364281D01*
X290959Y364384D01*
X291004Y364488D01*
X291044Y364594D01*
X291081Y364701D01*
X291114Y364809D01*
X291144Y364919D01*
X291169Y365029D01*
X291191Y365140D01*
X291208Y365252D01*
X291222Y365365D01*
X291232Y365478D01*
X291238Y365591D01*
X291240Y365704D01*
X291238Y365817D01*
X291232Y365930D01*
X291222Y366043D01*
X291208Y366156D01*
X291191Y366268D01*
X291169Y366379D01*
X291144Y366489D01*
X291114Y366599D01*
X291081Y366707D01*
X291044Y366814D01*
X291004Y366920D01*
X290959Y367024D01*
X290911Y367127D01*
X290860Y367228D01*
X290805Y367327D01*
X290747Y367424D01*
X290685Y367519D01*
X290620Y367612D01*
X290552Y367702D01*
X290481Y367790D01*
X290406Y367876D01*
X290329Y367959D01*
X290249Y368039D01*
X290166Y368116D01*
X290080Y368191D01*
X289992Y368262D01*
X289902Y368330D01*
X289809Y368395D01*
X289714Y368457D01*
X289617Y368515D01*
X289518Y368570D01*
X289417Y368621D01*
X289314Y368669D01*
X289210Y368714D01*
X289104Y368754D01*
X288997Y368791D01*
X288889Y368824D01*
X288779Y368854D01*
X288669Y368879D01*
X288558Y368901D01*
X288446Y368918D01*
X288333Y368932D01*
X288220Y368942D01*
X288107Y368948D01*
X287994Y368950D01*
X288643Y374142D02*
X284748Y374142D01*
X288643Y374142D02*
X288744Y374140D01*
X288844Y374134D01*
X288944Y374124D01*
X289044Y374111D01*
X289143Y374093D01*
X289242Y374072D01*
X289339Y374047D01*
X289436Y374018D01*
X289531Y373985D01*
X289625Y373949D01*
X289717Y373909D01*
X289808Y373866D01*
X289897Y373819D01*
X289984Y373769D01*
X290070Y373715D01*
X290153Y373658D01*
X290233Y373598D01*
X290312Y373535D01*
X290388Y373468D01*
X290461Y373399D01*
X290531Y373327D01*
X290599Y373253D01*
X290664Y373176D01*
X290725Y373096D01*
X290784Y373014D01*
X290839Y372930D01*
X290891Y372844D01*
X290940Y372756D01*
X290985Y372666D01*
X291027Y372574D01*
X291065Y372481D01*
X291099Y372386D01*
X291130Y372291D01*
X291157Y372194D01*
X291180Y372096D01*
X291200Y371997D01*
X291215Y371897D01*
X291227Y371797D01*
X291235Y371697D01*
X291239Y371596D01*
X291239Y371496D01*
X291235Y371395D01*
X291227Y371295D01*
X291215Y371195D01*
X291200Y371095D01*
X291180Y370996D01*
X291157Y370898D01*
X291130Y370801D01*
X291099Y370706D01*
X291065Y370611D01*
X291027Y370518D01*
X290985Y370426D01*
X290940Y370336D01*
X290891Y370248D01*
X290839Y370162D01*
X290784Y370078D01*
X290725Y369996D01*
X290664Y369916D01*
X290599Y369839D01*
X290531Y369765D01*
X290461Y369693D01*
X290388Y369624D01*
X290312Y369557D01*
X290233Y369494D01*
X290153Y369434D01*
X290070Y369377D01*
X289984Y369323D01*
X289897Y369273D01*
X289808Y369226D01*
X289717Y369183D01*
X289625Y369143D01*
X289531Y369107D01*
X289436Y369074D01*
X289339Y369045D01*
X289242Y369020D01*
X289143Y368999D01*
X289044Y368981D01*
X288944Y368968D01*
X288844Y368958D01*
X288744Y368952D01*
X288643Y368950D01*
X288643Y368949D02*
X286046Y368949D01*
X296291Y367002D02*
X304080Y367002D01*
X215251Y413258D02*
X212654Y413258D01*
X212555Y413260D01*
X212455Y413266D01*
X212356Y413275D01*
X212258Y413288D01*
X212160Y413305D01*
X212062Y413326D01*
X211966Y413351D01*
X211871Y413379D01*
X211777Y413411D01*
X211684Y413446D01*
X211592Y413485D01*
X211502Y413528D01*
X211414Y413573D01*
X211327Y413623D01*
X211243Y413675D01*
X211160Y413731D01*
X211080Y413789D01*
X211002Y413851D01*
X210927Y413916D01*
X210854Y413984D01*
X210784Y414054D01*
X210716Y414127D01*
X210651Y414202D01*
X210589Y414280D01*
X210531Y414360D01*
X210475Y414443D01*
X210423Y414527D01*
X210373Y414614D01*
X210328Y414702D01*
X210285Y414792D01*
X210246Y414884D01*
X210211Y414977D01*
X210179Y415071D01*
X210151Y415166D01*
X210126Y415262D01*
X210105Y415360D01*
X210088Y415458D01*
X210075Y415556D01*
X210066Y415655D01*
X210060Y415755D01*
X210058Y415854D01*
X210058Y422346D01*
X210060Y422445D01*
X210066Y422545D01*
X210075Y422644D01*
X210088Y422742D01*
X210105Y422840D01*
X210126Y422938D01*
X210151Y423034D01*
X210179Y423129D01*
X210211Y423223D01*
X210246Y423316D01*
X210285Y423408D01*
X210328Y423498D01*
X210373Y423586D01*
X210423Y423673D01*
X210475Y423757D01*
X210531Y423840D01*
X210589Y423920D01*
X210651Y423998D01*
X210716Y424073D01*
X210784Y424146D01*
X210854Y424216D01*
X210927Y424284D01*
X211002Y424349D01*
X211080Y424411D01*
X211160Y424469D01*
X211243Y424525D01*
X211327Y424577D01*
X211414Y424627D01*
X211502Y424672D01*
X211592Y424715D01*
X211684Y424754D01*
X211776Y424789D01*
X211871Y424821D01*
X211966Y424849D01*
X212062Y424874D01*
X212160Y424895D01*
X212258Y424912D01*
X212356Y424925D01*
X212455Y424934D01*
X212555Y424940D01*
X212654Y424942D01*
X215251Y424942D01*
X219616Y422346D02*
X222862Y424942D01*
X222862Y413258D01*
X226107Y413258D02*
X219616Y413258D01*
X75551Y337058D02*
X72954Y337058D01*
X72855Y337060D01*
X72755Y337066D01*
X72656Y337075D01*
X72558Y337088D01*
X72460Y337105D01*
X72362Y337126D01*
X72266Y337151D01*
X72171Y337179D01*
X72077Y337211D01*
X71984Y337246D01*
X71892Y337285D01*
X71802Y337328D01*
X71714Y337373D01*
X71627Y337423D01*
X71543Y337475D01*
X71460Y337531D01*
X71380Y337589D01*
X71302Y337651D01*
X71227Y337716D01*
X71154Y337784D01*
X71084Y337854D01*
X71016Y337927D01*
X70951Y338002D01*
X70889Y338080D01*
X70831Y338160D01*
X70775Y338243D01*
X70723Y338327D01*
X70673Y338414D01*
X70628Y338502D01*
X70585Y338592D01*
X70546Y338684D01*
X70511Y338777D01*
X70479Y338871D01*
X70451Y338966D01*
X70426Y339062D01*
X70405Y339160D01*
X70388Y339258D01*
X70375Y339356D01*
X70366Y339455D01*
X70360Y339555D01*
X70358Y339654D01*
X70358Y346146D01*
X70360Y346245D01*
X70366Y346345D01*
X70375Y346444D01*
X70388Y346542D01*
X70405Y346640D01*
X70426Y346738D01*
X70451Y346834D01*
X70479Y346929D01*
X70511Y347023D01*
X70546Y347116D01*
X70585Y347208D01*
X70628Y347298D01*
X70673Y347386D01*
X70723Y347473D01*
X70775Y347557D01*
X70831Y347640D01*
X70889Y347720D01*
X70951Y347798D01*
X71016Y347873D01*
X71084Y347946D01*
X71154Y348016D01*
X71227Y348084D01*
X71302Y348149D01*
X71380Y348211D01*
X71460Y348269D01*
X71543Y348325D01*
X71627Y348377D01*
X71714Y348427D01*
X71802Y348472D01*
X71892Y348515D01*
X71984Y348554D01*
X72076Y348589D01*
X72171Y348621D01*
X72266Y348649D01*
X72362Y348674D01*
X72460Y348695D01*
X72558Y348712D01*
X72656Y348725D01*
X72755Y348734D01*
X72855Y348740D01*
X72954Y348742D01*
X75551Y348742D01*
X83486Y348742D02*
X83593Y348740D01*
X83699Y348734D01*
X83805Y348724D01*
X83911Y348711D01*
X84017Y348693D01*
X84121Y348672D01*
X84225Y348647D01*
X84328Y348618D01*
X84429Y348586D01*
X84529Y348549D01*
X84628Y348509D01*
X84726Y348466D01*
X84822Y348419D01*
X84916Y348368D01*
X85008Y348314D01*
X85098Y348257D01*
X85186Y348197D01*
X85271Y348133D01*
X85354Y348066D01*
X85435Y347996D01*
X85513Y347924D01*
X85589Y347848D01*
X85661Y347770D01*
X85731Y347689D01*
X85798Y347606D01*
X85862Y347521D01*
X85922Y347433D01*
X85979Y347343D01*
X86033Y347251D01*
X86084Y347157D01*
X86131Y347061D01*
X86174Y346963D01*
X86214Y346864D01*
X86251Y346764D01*
X86283Y346663D01*
X86312Y346560D01*
X86337Y346456D01*
X86358Y346352D01*
X86376Y346246D01*
X86389Y346140D01*
X86399Y346034D01*
X86405Y345928D01*
X86407Y345821D01*
X83486Y348742D02*
X83365Y348740D01*
X83244Y348734D01*
X83124Y348724D01*
X83003Y348711D01*
X82884Y348693D01*
X82764Y348672D01*
X82646Y348647D01*
X82529Y348618D01*
X82412Y348585D01*
X82297Y348549D01*
X82183Y348508D01*
X82070Y348465D01*
X81958Y348417D01*
X81849Y348366D01*
X81741Y348311D01*
X81634Y348253D01*
X81530Y348192D01*
X81428Y348127D01*
X81328Y348059D01*
X81230Y347988D01*
X81134Y347914D01*
X81041Y347837D01*
X80951Y347756D01*
X80863Y347673D01*
X80778Y347587D01*
X80695Y347498D01*
X80616Y347407D01*
X80539Y347313D01*
X80466Y347217D01*
X80396Y347119D01*
X80329Y347018D01*
X80265Y346915D01*
X80205Y346810D01*
X80148Y346703D01*
X80094Y346595D01*
X80044Y346485D01*
X79998Y346373D01*
X79955Y346260D01*
X79916Y346145D01*
X85434Y343549D02*
X85513Y343626D01*
X85589Y343707D01*
X85662Y343790D01*
X85732Y343875D01*
X85799Y343963D01*
X85863Y344053D01*
X85923Y344145D01*
X85980Y344240D01*
X86034Y344336D01*
X86085Y344434D01*
X86132Y344534D01*
X86176Y344636D01*
X86216Y344739D01*
X86252Y344843D01*
X86284Y344949D01*
X86313Y345055D01*
X86338Y345163D01*
X86360Y345271D01*
X86377Y345381D01*
X86391Y345490D01*
X86400Y345600D01*
X86406Y345711D01*
X86408Y345821D01*
X85434Y343549D02*
X79916Y337058D01*
X86407Y337058D01*
X75551Y159258D02*
X72954Y159258D01*
X72855Y159260D01*
X72755Y159266D01*
X72656Y159275D01*
X72558Y159288D01*
X72460Y159305D01*
X72362Y159326D01*
X72266Y159351D01*
X72171Y159379D01*
X72077Y159411D01*
X71984Y159446D01*
X71892Y159485D01*
X71802Y159528D01*
X71714Y159573D01*
X71627Y159623D01*
X71543Y159675D01*
X71460Y159731D01*
X71380Y159789D01*
X71302Y159851D01*
X71227Y159916D01*
X71154Y159984D01*
X71084Y160054D01*
X71016Y160127D01*
X70951Y160202D01*
X70889Y160280D01*
X70831Y160360D01*
X70775Y160443D01*
X70723Y160527D01*
X70673Y160614D01*
X70628Y160702D01*
X70585Y160792D01*
X70546Y160884D01*
X70511Y160977D01*
X70479Y161071D01*
X70451Y161166D01*
X70426Y161262D01*
X70405Y161360D01*
X70388Y161458D01*
X70375Y161556D01*
X70366Y161655D01*
X70360Y161755D01*
X70358Y161854D01*
X70358Y168346D01*
X70360Y168445D01*
X70366Y168545D01*
X70375Y168644D01*
X70388Y168742D01*
X70405Y168840D01*
X70426Y168938D01*
X70451Y169034D01*
X70479Y169129D01*
X70511Y169223D01*
X70546Y169316D01*
X70585Y169408D01*
X70628Y169498D01*
X70673Y169586D01*
X70723Y169673D01*
X70775Y169757D01*
X70831Y169840D01*
X70889Y169920D01*
X70951Y169998D01*
X71016Y170073D01*
X71084Y170146D01*
X71154Y170216D01*
X71227Y170284D01*
X71302Y170349D01*
X71380Y170411D01*
X71460Y170469D01*
X71543Y170525D01*
X71627Y170577D01*
X71714Y170627D01*
X71802Y170672D01*
X71892Y170715D01*
X71984Y170754D01*
X72076Y170789D01*
X72171Y170821D01*
X72266Y170849D01*
X72362Y170874D01*
X72460Y170895D01*
X72558Y170912D01*
X72656Y170925D01*
X72755Y170934D01*
X72855Y170940D01*
X72954Y170942D01*
X75551Y170942D01*
X79916Y159258D02*
X83162Y159258D01*
X83275Y159260D01*
X83388Y159266D01*
X83501Y159276D01*
X83614Y159290D01*
X83726Y159307D01*
X83837Y159329D01*
X83947Y159354D01*
X84057Y159384D01*
X84165Y159417D01*
X84272Y159454D01*
X84378Y159494D01*
X84482Y159539D01*
X84585Y159587D01*
X84686Y159638D01*
X84785Y159693D01*
X84882Y159751D01*
X84977Y159813D01*
X85070Y159878D01*
X85160Y159946D01*
X85248Y160017D01*
X85334Y160092D01*
X85417Y160169D01*
X85497Y160249D01*
X85574Y160332D01*
X85649Y160418D01*
X85720Y160506D01*
X85788Y160596D01*
X85853Y160689D01*
X85915Y160784D01*
X85973Y160881D01*
X86028Y160980D01*
X86079Y161081D01*
X86127Y161184D01*
X86172Y161288D01*
X86212Y161394D01*
X86249Y161501D01*
X86282Y161609D01*
X86312Y161719D01*
X86337Y161829D01*
X86359Y161940D01*
X86376Y162052D01*
X86390Y162165D01*
X86400Y162278D01*
X86406Y162391D01*
X86408Y162504D01*
X86406Y162617D01*
X86400Y162730D01*
X86390Y162843D01*
X86376Y162956D01*
X86359Y163068D01*
X86337Y163179D01*
X86312Y163289D01*
X86282Y163399D01*
X86249Y163507D01*
X86212Y163614D01*
X86172Y163720D01*
X86127Y163824D01*
X86079Y163927D01*
X86028Y164028D01*
X85973Y164127D01*
X85915Y164224D01*
X85853Y164319D01*
X85788Y164412D01*
X85720Y164502D01*
X85649Y164590D01*
X85574Y164676D01*
X85497Y164759D01*
X85417Y164839D01*
X85334Y164916D01*
X85248Y164991D01*
X85160Y165062D01*
X85070Y165130D01*
X84977Y165195D01*
X84882Y165257D01*
X84785Y165315D01*
X84686Y165370D01*
X84585Y165421D01*
X84482Y165469D01*
X84378Y165514D01*
X84272Y165554D01*
X84165Y165591D01*
X84057Y165624D01*
X83947Y165654D01*
X83837Y165679D01*
X83726Y165701D01*
X83614Y165718D01*
X83501Y165732D01*
X83388Y165742D01*
X83275Y165748D01*
X83162Y165750D01*
X83811Y170942D02*
X79916Y170942D01*
X83811Y170942D02*
X83912Y170940D01*
X84012Y170934D01*
X84112Y170924D01*
X84212Y170911D01*
X84311Y170893D01*
X84410Y170872D01*
X84507Y170847D01*
X84604Y170818D01*
X84699Y170785D01*
X84793Y170749D01*
X84885Y170709D01*
X84976Y170666D01*
X85065Y170619D01*
X85152Y170569D01*
X85238Y170515D01*
X85321Y170458D01*
X85401Y170398D01*
X85480Y170335D01*
X85556Y170268D01*
X85629Y170199D01*
X85699Y170127D01*
X85767Y170053D01*
X85832Y169976D01*
X85893Y169896D01*
X85952Y169814D01*
X86007Y169730D01*
X86059Y169644D01*
X86108Y169556D01*
X86153Y169466D01*
X86195Y169374D01*
X86233Y169281D01*
X86267Y169186D01*
X86298Y169091D01*
X86325Y168994D01*
X86348Y168896D01*
X86368Y168797D01*
X86383Y168697D01*
X86395Y168597D01*
X86403Y168497D01*
X86407Y168396D01*
X86407Y168296D01*
X86403Y168195D01*
X86395Y168095D01*
X86383Y167995D01*
X86368Y167895D01*
X86348Y167796D01*
X86325Y167698D01*
X86298Y167601D01*
X86267Y167506D01*
X86233Y167411D01*
X86195Y167318D01*
X86153Y167226D01*
X86108Y167136D01*
X86059Y167048D01*
X86007Y166962D01*
X85952Y166878D01*
X85893Y166796D01*
X85832Y166716D01*
X85767Y166639D01*
X85699Y166565D01*
X85629Y166493D01*
X85556Y166424D01*
X85480Y166357D01*
X85401Y166294D01*
X85321Y166234D01*
X85238Y166177D01*
X85152Y166123D01*
X85065Y166073D01*
X84976Y166026D01*
X84885Y165983D01*
X84793Y165943D01*
X84699Y165907D01*
X84604Y165874D01*
X84507Y165845D01*
X84410Y165820D01*
X84311Y165799D01*
X84212Y165781D01*
X84112Y165768D01*
X84012Y165758D01*
X83912Y165752D01*
X83811Y165750D01*
X83811Y165749D02*
X81214Y165749D01*
X174554Y83058D02*
X177151Y83058D01*
X174554Y83058D02*
X174455Y83060D01*
X174355Y83066D01*
X174256Y83075D01*
X174158Y83088D01*
X174060Y83105D01*
X173962Y83126D01*
X173866Y83151D01*
X173771Y83179D01*
X173677Y83211D01*
X173584Y83246D01*
X173492Y83285D01*
X173402Y83328D01*
X173314Y83373D01*
X173227Y83423D01*
X173143Y83475D01*
X173060Y83531D01*
X172980Y83589D01*
X172902Y83651D01*
X172827Y83716D01*
X172754Y83784D01*
X172684Y83854D01*
X172616Y83927D01*
X172551Y84002D01*
X172489Y84080D01*
X172431Y84160D01*
X172375Y84243D01*
X172323Y84327D01*
X172273Y84414D01*
X172228Y84502D01*
X172185Y84592D01*
X172146Y84684D01*
X172111Y84777D01*
X172079Y84871D01*
X172051Y84966D01*
X172026Y85062D01*
X172005Y85160D01*
X171988Y85258D01*
X171975Y85356D01*
X171966Y85455D01*
X171960Y85555D01*
X171958Y85654D01*
X171958Y92146D01*
X171960Y92245D01*
X171966Y92345D01*
X171975Y92444D01*
X171988Y92542D01*
X172005Y92640D01*
X172026Y92738D01*
X172051Y92834D01*
X172079Y92929D01*
X172111Y93023D01*
X172146Y93116D01*
X172185Y93208D01*
X172228Y93298D01*
X172273Y93386D01*
X172323Y93473D01*
X172375Y93557D01*
X172431Y93640D01*
X172489Y93720D01*
X172551Y93798D01*
X172616Y93873D01*
X172684Y93946D01*
X172754Y94016D01*
X172827Y94084D01*
X172902Y94149D01*
X172980Y94211D01*
X173060Y94269D01*
X173143Y94325D01*
X173227Y94377D01*
X173314Y94427D01*
X173402Y94472D01*
X173492Y94515D01*
X173584Y94554D01*
X173676Y94589D01*
X173771Y94621D01*
X173866Y94649D01*
X173962Y94674D01*
X174060Y94695D01*
X174158Y94712D01*
X174256Y94725D01*
X174355Y94734D01*
X174455Y94740D01*
X174554Y94742D01*
X177151Y94742D01*
X184113Y94742D02*
X181516Y85654D01*
X188007Y85654D01*
X186060Y88251D02*
X186060Y83058D01*
D10*
X35400Y286300D02*
X30400Y291300D01*
X35400Y286300D02*
X35400Y276300D01*
X30400Y271300D01*
X20400Y271300D02*
X15400Y276300D01*
X15400Y286300D01*
X20400Y291300D01*
X30400Y291300D01*
X30400Y271300D02*
X35400Y266300D01*
X35400Y256300D01*
X30400Y251300D01*
X20400Y251300D02*
X15400Y256300D01*
X15400Y266300D01*
X20400Y271300D01*
X30400Y271300D01*
X30400Y251300D02*
X35400Y246300D01*
X35400Y236300D01*
X30400Y231300D01*
X20400Y231300D02*
X15400Y236300D01*
X15400Y246300D01*
X20400Y251300D01*
X30400Y251300D01*
X30400Y231300D02*
X35400Y226300D01*
X35400Y216300D01*
X30400Y211300D01*
X20400Y211300D02*
X15400Y216300D01*
X15400Y226300D01*
X20400Y231300D01*
X30400Y231300D01*
X30400Y211300D02*
X35400Y206300D01*
X35400Y196300D01*
X30400Y191300D01*
X20400Y191300D01*
X15400Y196300D01*
X15400Y206300D01*
X20400Y211300D01*
X30400Y211300D01*
X305600Y424100D02*
X310600Y429100D01*
X320600Y429100D01*
X325600Y424100D01*
X325600Y414100D02*
X320600Y409100D01*
X310600Y409100D01*
X305600Y414100D01*
X305600Y424100D01*
X325600Y424100D02*
X330600Y429100D01*
X340600Y429100D01*
X345600Y424100D01*
X345600Y414100D02*
X340600Y409100D01*
X330600Y409100D01*
X325600Y414100D01*
X325600Y424100D01*
X345600Y424100D02*
X350600Y429100D01*
X360600Y429100D01*
X365600Y424100D01*
X365600Y414100D02*
X360600Y409100D01*
X350600Y409100D01*
X345600Y414100D01*
X345600Y424100D01*
X365600Y424100D02*
X370600Y429100D01*
X380600Y429100D01*
X385600Y424100D01*
X385600Y414100D02*
X380600Y409100D01*
X370600Y409100D01*
X365600Y414100D01*
X365600Y424100D01*
X385600Y424100D02*
X390600Y429100D01*
X400600Y429100D01*
X405600Y424100D01*
X405600Y414100D01*
X400600Y409100D01*
X390600Y409100D01*
X385600Y414100D01*
X385600Y424100D01*
X533400Y247650D02*
X533400Y234950D01*
X533400Y247650D02*
X539750Y254000D01*
X552450Y254000D01*
X558800Y247650D01*
X552450Y228600D02*
X539750Y228600D01*
X533400Y234950D01*
X552450Y228600D02*
X558800Y234950D01*
X558800Y247650D01*
X539750Y254000D02*
X533400Y260350D01*
X533400Y273050D01*
X539750Y279400D01*
X552450Y279400D01*
X558800Y273050D01*
X558800Y260350D01*
X552450Y254000D01*
D12*
X159258Y413258D02*
X159258Y424942D01*
X162504Y424942D01*
X162617Y424940D01*
X162730Y424934D01*
X162843Y424924D01*
X162956Y424910D01*
X163068Y424893D01*
X163179Y424871D01*
X163289Y424846D01*
X163399Y424816D01*
X163507Y424783D01*
X163614Y424746D01*
X163720Y424706D01*
X163824Y424661D01*
X163927Y424613D01*
X164028Y424562D01*
X164127Y424507D01*
X164224Y424449D01*
X164319Y424387D01*
X164412Y424322D01*
X164502Y424254D01*
X164590Y424183D01*
X164676Y424108D01*
X164759Y424031D01*
X164839Y423951D01*
X164916Y423868D01*
X164991Y423782D01*
X165062Y423694D01*
X165130Y423604D01*
X165195Y423511D01*
X165257Y423416D01*
X165315Y423319D01*
X165370Y423220D01*
X165421Y423119D01*
X165469Y423016D01*
X165514Y422912D01*
X165554Y422806D01*
X165591Y422699D01*
X165624Y422591D01*
X165654Y422481D01*
X165679Y422371D01*
X165701Y422260D01*
X165718Y422148D01*
X165732Y422035D01*
X165742Y421922D01*
X165748Y421809D01*
X165750Y421696D01*
X165748Y421583D01*
X165742Y421470D01*
X165732Y421357D01*
X165718Y421244D01*
X165701Y421132D01*
X165679Y421021D01*
X165654Y420911D01*
X165624Y420801D01*
X165591Y420693D01*
X165554Y420586D01*
X165514Y420480D01*
X165469Y420376D01*
X165421Y420273D01*
X165370Y420172D01*
X165315Y420073D01*
X165257Y419976D01*
X165195Y419881D01*
X165130Y419788D01*
X165062Y419698D01*
X164991Y419610D01*
X164916Y419524D01*
X164839Y419441D01*
X164759Y419361D01*
X164676Y419284D01*
X164590Y419209D01*
X164502Y419138D01*
X164412Y419070D01*
X164319Y419005D01*
X164224Y418943D01*
X164127Y418885D01*
X164028Y418830D01*
X163927Y418779D01*
X163824Y418731D01*
X163720Y418686D01*
X163614Y418646D01*
X163507Y418609D01*
X163399Y418576D01*
X163289Y418546D01*
X163179Y418521D01*
X163068Y418499D01*
X162956Y418482D01*
X162843Y418468D01*
X162730Y418458D01*
X162617Y418452D01*
X162504Y418450D01*
X162504Y418451D02*
X159258Y418451D01*
X163153Y418451D02*
X165749Y413258D01*
X170614Y422346D02*
X173860Y424942D01*
X173860Y413258D01*
X177105Y413258D02*
X170614Y413258D01*
X222758Y94742D02*
X222758Y83058D01*
X222758Y94742D02*
X226004Y94742D01*
X226117Y94740D01*
X226230Y94734D01*
X226343Y94724D01*
X226456Y94710D01*
X226568Y94693D01*
X226679Y94671D01*
X226789Y94646D01*
X226899Y94616D01*
X227007Y94583D01*
X227114Y94546D01*
X227220Y94506D01*
X227324Y94461D01*
X227427Y94413D01*
X227528Y94362D01*
X227627Y94307D01*
X227724Y94249D01*
X227819Y94187D01*
X227912Y94122D01*
X228002Y94054D01*
X228090Y93983D01*
X228176Y93908D01*
X228259Y93831D01*
X228339Y93751D01*
X228416Y93668D01*
X228491Y93582D01*
X228562Y93494D01*
X228630Y93404D01*
X228695Y93311D01*
X228757Y93216D01*
X228815Y93119D01*
X228870Y93020D01*
X228921Y92919D01*
X228969Y92816D01*
X229014Y92712D01*
X229054Y92606D01*
X229091Y92499D01*
X229124Y92391D01*
X229154Y92281D01*
X229179Y92171D01*
X229201Y92060D01*
X229218Y91948D01*
X229232Y91835D01*
X229242Y91722D01*
X229248Y91609D01*
X229250Y91496D01*
X229248Y91383D01*
X229242Y91270D01*
X229232Y91157D01*
X229218Y91044D01*
X229201Y90932D01*
X229179Y90821D01*
X229154Y90711D01*
X229124Y90601D01*
X229091Y90493D01*
X229054Y90386D01*
X229014Y90280D01*
X228969Y90176D01*
X228921Y90073D01*
X228870Y89972D01*
X228815Y89873D01*
X228757Y89776D01*
X228695Y89681D01*
X228630Y89588D01*
X228562Y89498D01*
X228491Y89410D01*
X228416Y89324D01*
X228339Y89241D01*
X228259Y89161D01*
X228176Y89084D01*
X228090Y89009D01*
X228002Y88938D01*
X227912Y88870D01*
X227819Y88805D01*
X227724Y88743D01*
X227627Y88685D01*
X227528Y88630D01*
X227427Y88579D01*
X227324Y88531D01*
X227220Y88486D01*
X227114Y88446D01*
X227007Y88409D01*
X226899Y88376D01*
X226789Y88346D01*
X226679Y88321D01*
X226568Y88299D01*
X226456Y88282D01*
X226343Y88268D01*
X226230Y88258D01*
X226117Y88252D01*
X226004Y88250D01*
X226004Y88251D02*
X222758Y88251D01*
X226653Y88251D02*
X229249Y83058D01*
X240605Y91821D02*
X240603Y91928D01*
X240597Y92034D01*
X240587Y92140D01*
X240574Y92246D01*
X240556Y92352D01*
X240535Y92456D01*
X240510Y92560D01*
X240481Y92663D01*
X240449Y92764D01*
X240412Y92864D01*
X240372Y92963D01*
X240329Y93061D01*
X240282Y93157D01*
X240231Y93251D01*
X240177Y93343D01*
X240120Y93433D01*
X240060Y93521D01*
X239996Y93606D01*
X239929Y93689D01*
X239859Y93770D01*
X239787Y93848D01*
X239711Y93924D01*
X239633Y93996D01*
X239552Y94066D01*
X239469Y94133D01*
X239384Y94197D01*
X239296Y94257D01*
X239206Y94314D01*
X239114Y94368D01*
X239020Y94419D01*
X238924Y94466D01*
X238826Y94509D01*
X238727Y94549D01*
X238627Y94586D01*
X238526Y94618D01*
X238423Y94647D01*
X238319Y94672D01*
X238215Y94693D01*
X238109Y94711D01*
X238003Y94724D01*
X237897Y94734D01*
X237791Y94740D01*
X237684Y94742D01*
X237563Y94740D01*
X237442Y94734D01*
X237322Y94724D01*
X237201Y94711D01*
X237082Y94693D01*
X236962Y94672D01*
X236844Y94647D01*
X236727Y94618D01*
X236610Y94585D01*
X236495Y94549D01*
X236381Y94508D01*
X236268Y94465D01*
X236156Y94417D01*
X236047Y94366D01*
X235939Y94311D01*
X235832Y94253D01*
X235728Y94192D01*
X235626Y94127D01*
X235526Y94059D01*
X235428Y93988D01*
X235332Y93914D01*
X235239Y93837D01*
X235149Y93756D01*
X235061Y93673D01*
X234976Y93587D01*
X234893Y93498D01*
X234814Y93407D01*
X234737Y93313D01*
X234664Y93217D01*
X234594Y93119D01*
X234527Y93018D01*
X234463Y92915D01*
X234403Y92810D01*
X234346Y92703D01*
X234292Y92595D01*
X234242Y92485D01*
X234196Y92373D01*
X234153Y92260D01*
X234114Y92145D01*
X239632Y89549D02*
X239711Y89626D01*
X239787Y89707D01*
X239860Y89790D01*
X239930Y89875D01*
X239997Y89963D01*
X240061Y90053D01*
X240121Y90145D01*
X240178Y90240D01*
X240232Y90336D01*
X240283Y90434D01*
X240330Y90534D01*
X240374Y90636D01*
X240414Y90739D01*
X240450Y90843D01*
X240482Y90949D01*
X240511Y91055D01*
X240536Y91163D01*
X240558Y91271D01*
X240575Y91381D01*
X240589Y91490D01*
X240598Y91600D01*
X240604Y91711D01*
X240606Y91821D01*
X239632Y89549D02*
X234114Y83058D01*
X240605Y83058D01*
D13*
X39500Y373100D02*
X39502Y373163D01*
X39508Y373225D01*
X39518Y373287D01*
X39531Y373349D01*
X39549Y373409D01*
X39570Y373468D01*
X39595Y373526D01*
X39624Y373582D01*
X39656Y373636D01*
X39691Y373688D01*
X39729Y373737D01*
X39771Y373785D01*
X39815Y373829D01*
X39863Y373871D01*
X39912Y373909D01*
X39964Y373944D01*
X40018Y373976D01*
X40074Y374005D01*
X40132Y374030D01*
X40191Y374051D01*
X40251Y374069D01*
X40313Y374082D01*
X40375Y374092D01*
X40437Y374098D01*
X40500Y374100D01*
X40563Y374098D01*
X40625Y374092D01*
X40687Y374082D01*
X40749Y374069D01*
X40809Y374051D01*
X40868Y374030D01*
X40926Y374005D01*
X40982Y373976D01*
X41036Y373944D01*
X41088Y373909D01*
X41137Y373871D01*
X41185Y373829D01*
X41229Y373785D01*
X41271Y373737D01*
X41309Y373688D01*
X41344Y373636D01*
X41376Y373582D01*
X41405Y373526D01*
X41430Y373468D01*
X41451Y373409D01*
X41469Y373349D01*
X41482Y373287D01*
X41492Y373225D01*
X41498Y373163D01*
X41500Y373100D01*
X41498Y373037D01*
X41492Y372975D01*
X41482Y372913D01*
X41469Y372851D01*
X41451Y372791D01*
X41430Y372732D01*
X41405Y372674D01*
X41376Y372618D01*
X41344Y372564D01*
X41309Y372512D01*
X41271Y372463D01*
X41229Y372415D01*
X41185Y372371D01*
X41137Y372329D01*
X41088Y372291D01*
X41036Y372256D01*
X40982Y372224D01*
X40926Y372195D01*
X40868Y372170D01*
X40809Y372149D01*
X40749Y372131D01*
X40687Y372118D01*
X40625Y372108D01*
X40563Y372102D01*
X40500Y372100D01*
X40437Y372102D01*
X40375Y372108D01*
X40313Y372118D01*
X40251Y372131D01*
X40191Y372149D01*
X40132Y372170D01*
X40074Y372195D01*
X40018Y372224D01*
X39964Y372256D01*
X39912Y372291D01*
X39863Y372329D01*
X39815Y372371D01*
X39771Y372415D01*
X39729Y372463D01*
X39691Y372512D01*
X39656Y372564D01*
X39624Y372618D01*
X39595Y372674D01*
X39570Y372732D01*
X39549Y372791D01*
X39531Y372851D01*
X39518Y372913D01*
X39508Y372975D01*
X39502Y373037D01*
X39500Y373100D01*
D14*
X43400Y436600D02*
X31000Y436600D01*
X31000Y401600D01*
X83600Y436600D02*
X96000Y436600D01*
X96000Y401600D01*
D12*
X21802Y391503D02*
X10118Y387608D01*
X10118Y395397D02*
X21802Y391503D01*
X21802Y400142D02*
X10118Y400142D01*
X10118Y403387D01*
X10120Y403500D01*
X10126Y403613D01*
X10136Y403726D01*
X10150Y403839D01*
X10167Y403951D01*
X10189Y404062D01*
X10214Y404172D01*
X10244Y404282D01*
X10277Y404390D01*
X10314Y404497D01*
X10354Y404603D01*
X10399Y404707D01*
X10447Y404810D01*
X10498Y404911D01*
X10553Y405010D01*
X10611Y405107D01*
X10673Y405202D01*
X10738Y405295D01*
X10806Y405385D01*
X10877Y405473D01*
X10952Y405559D01*
X11029Y405642D01*
X11109Y405722D01*
X11192Y405799D01*
X11278Y405874D01*
X11366Y405945D01*
X11456Y406013D01*
X11549Y406078D01*
X11644Y406140D01*
X11741Y406198D01*
X11840Y406253D01*
X11941Y406304D01*
X12044Y406352D01*
X12148Y406397D01*
X12254Y406437D01*
X12361Y406474D01*
X12469Y406507D01*
X12579Y406537D01*
X12689Y406562D01*
X12800Y406584D01*
X12912Y406601D01*
X13025Y406615D01*
X13138Y406625D01*
X13251Y406631D01*
X13364Y406633D01*
X13477Y406631D01*
X13590Y406625D01*
X13703Y406615D01*
X13816Y406601D01*
X13928Y406584D01*
X14039Y406562D01*
X14149Y406537D01*
X14259Y406507D01*
X14367Y406474D01*
X14474Y406437D01*
X14580Y406397D01*
X14684Y406352D01*
X14787Y406304D01*
X14888Y406253D01*
X14987Y406198D01*
X15084Y406140D01*
X15179Y406078D01*
X15272Y406013D01*
X15362Y405945D01*
X15450Y405874D01*
X15536Y405799D01*
X15619Y405722D01*
X15699Y405642D01*
X15776Y405559D01*
X15851Y405473D01*
X15922Y405385D01*
X15990Y405295D01*
X16055Y405202D01*
X16117Y405107D01*
X16175Y405010D01*
X16230Y404911D01*
X16281Y404810D01*
X16329Y404707D01*
X16374Y404603D01*
X16414Y404497D01*
X16451Y404390D01*
X16484Y404282D01*
X16514Y404172D01*
X16539Y404062D01*
X16561Y403951D01*
X16578Y403839D01*
X16592Y403726D01*
X16602Y403613D01*
X16608Y403500D01*
X16610Y403387D01*
X16609Y403387D02*
X16609Y400142D01*
X16609Y404036D02*
X21802Y406633D01*
X21802Y411902D02*
X21802Y417095D01*
X21802Y411902D02*
X10118Y411902D01*
X10118Y417095D01*
X15311Y415796D02*
X15311Y411902D01*
X15311Y426329D02*
X15311Y428276D01*
X21802Y428276D01*
X21802Y424382D01*
X21800Y424283D01*
X21794Y424183D01*
X21785Y424084D01*
X21772Y423986D01*
X21755Y423888D01*
X21734Y423790D01*
X21709Y423694D01*
X21681Y423599D01*
X21649Y423505D01*
X21614Y423412D01*
X21575Y423320D01*
X21532Y423230D01*
X21487Y423142D01*
X21437Y423055D01*
X21385Y422971D01*
X21329Y422888D01*
X21271Y422808D01*
X21209Y422730D01*
X21144Y422655D01*
X21076Y422582D01*
X21006Y422512D01*
X20933Y422444D01*
X20858Y422379D01*
X20780Y422317D01*
X20700Y422259D01*
X20617Y422203D01*
X20533Y422151D01*
X20446Y422101D01*
X20358Y422056D01*
X20268Y422013D01*
X20176Y421974D01*
X20083Y421939D01*
X19989Y421907D01*
X19894Y421879D01*
X19798Y421854D01*
X19700Y421833D01*
X19602Y421816D01*
X19504Y421803D01*
X19405Y421794D01*
X19305Y421788D01*
X19206Y421786D01*
X19206Y421785D02*
X12714Y421785D01*
X12615Y421787D01*
X12515Y421793D01*
X12416Y421802D01*
X12318Y421815D01*
X12220Y421833D01*
X12122Y421853D01*
X12026Y421878D01*
X11930Y421906D01*
X11836Y421938D01*
X11743Y421973D01*
X11652Y422012D01*
X11562Y422055D01*
X11473Y422100D01*
X11387Y422150D01*
X11302Y422202D01*
X11220Y422258D01*
X11140Y422317D01*
X11062Y422378D01*
X10986Y422443D01*
X10913Y422511D01*
X10843Y422581D01*
X10775Y422654D01*
X10710Y422730D01*
X10649Y422808D01*
X10590Y422888D01*
X10534Y422970D01*
X10482Y423055D01*
X10433Y423141D01*
X10387Y423230D01*
X10344Y423320D01*
X10305Y423411D01*
X10270Y423504D01*
X10238Y423598D01*
X10210Y423694D01*
X10185Y423790D01*
X10165Y423888D01*
X10147Y423986D01*
X10134Y424084D01*
X10125Y424183D01*
X10119Y424282D01*
X10117Y424382D01*
X10118Y424382D02*
X10118Y428276D01*
X17258Y433709D02*
X17258Y441498D01*
X13364Y437604D02*
X21153Y437604D01*
D13*
X98200Y109500D02*
X98202Y109563D01*
X98208Y109625D01*
X98218Y109687D01*
X98231Y109749D01*
X98249Y109809D01*
X98270Y109868D01*
X98295Y109926D01*
X98324Y109982D01*
X98356Y110036D01*
X98391Y110088D01*
X98429Y110137D01*
X98471Y110185D01*
X98515Y110229D01*
X98563Y110271D01*
X98612Y110309D01*
X98664Y110344D01*
X98718Y110376D01*
X98774Y110405D01*
X98832Y110430D01*
X98891Y110451D01*
X98951Y110469D01*
X99013Y110482D01*
X99075Y110492D01*
X99137Y110498D01*
X99200Y110500D01*
X99263Y110498D01*
X99325Y110492D01*
X99387Y110482D01*
X99449Y110469D01*
X99509Y110451D01*
X99568Y110430D01*
X99626Y110405D01*
X99682Y110376D01*
X99736Y110344D01*
X99788Y110309D01*
X99837Y110271D01*
X99885Y110229D01*
X99929Y110185D01*
X99971Y110137D01*
X100009Y110088D01*
X100044Y110036D01*
X100076Y109982D01*
X100105Y109926D01*
X100130Y109868D01*
X100151Y109809D01*
X100169Y109749D01*
X100182Y109687D01*
X100192Y109625D01*
X100198Y109563D01*
X100200Y109500D01*
X100198Y109437D01*
X100192Y109375D01*
X100182Y109313D01*
X100169Y109251D01*
X100151Y109191D01*
X100130Y109132D01*
X100105Y109074D01*
X100076Y109018D01*
X100044Y108964D01*
X100009Y108912D01*
X99971Y108863D01*
X99929Y108815D01*
X99885Y108771D01*
X99837Y108729D01*
X99788Y108691D01*
X99736Y108656D01*
X99682Y108624D01*
X99626Y108595D01*
X99568Y108570D01*
X99509Y108549D01*
X99449Y108531D01*
X99387Y108518D01*
X99325Y108508D01*
X99263Y108502D01*
X99200Y108500D01*
X99137Y108502D01*
X99075Y108508D01*
X99013Y108518D01*
X98951Y108531D01*
X98891Y108549D01*
X98832Y108570D01*
X98774Y108595D01*
X98718Y108624D01*
X98664Y108656D01*
X98612Y108691D01*
X98563Y108729D01*
X98515Y108771D01*
X98471Y108815D01*
X98429Y108863D01*
X98391Y108912D01*
X98356Y108964D01*
X98324Y109018D01*
X98295Y109074D01*
X98270Y109132D01*
X98249Y109191D01*
X98231Y109251D01*
X98218Y109313D01*
X98208Y109375D01*
X98202Y109437D01*
X98200Y109500D01*
D14*
X96300Y46000D02*
X108700Y46000D01*
X108700Y81000D01*
X56100Y46000D02*
X43700Y46000D01*
X43700Y81000D01*
D12*
X117898Y41102D02*
X129582Y44996D01*
X117898Y48891D01*
X117898Y53635D02*
X129582Y53635D01*
X117898Y53635D02*
X117898Y56881D01*
X117900Y56994D01*
X117906Y57107D01*
X117916Y57220D01*
X117930Y57333D01*
X117947Y57445D01*
X117969Y57556D01*
X117994Y57666D01*
X118024Y57776D01*
X118057Y57884D01*
X118094Y57991D01*
X118134Y58097D01*
X118179Y58201D01*
X118227Y58304D01*
X118278Y58405D01*
X118333Y58504D01*
X118391Y58601D01*
X118453Y58696D01*
X118518Y58789D01*
X118586Y58879D01*
X118657Y58967D01*
X118732Y59053D01*
X118809Y59136D01*
X118889Y59216D01*
X118972Y59293D01*
X119058Y59368D01*
X119146Y59439D01*
X119236Y59507D01*
X119329Y59572D01*
X119424Y59634D01*
X119521Y59692D01*
X119620Y59747D01*
X119721Y59798D01*
X119824Y59846D01*
X119928Y59891D01*
X120034Y59931D01*
X120141Y59968D01*
X120249Y60001D01*
X120359Y60031D01*
X120469Y60056D01*
X120580Y60078D01*
X120692Y60095D01*
X120805Y60109D01*
X120918Y60119D01*
X121031Y60125D01*
X121144Y60127D01*
X121257Y60125D01*
X121370Y60119D01*
X121483Y60109D01*
X121596Y60095D01*
X121708Y60078D01*
X121819Y60056D01*
X121929Y60031D01*
X122039Y60001D01*
X122147Y59968D01*
X122254Y59931D01*
X122360Y59891D01*
X122464Y59846D01*
X122567Y59798D01*
X122668Y59747D01*
X122767Y59692D01*
X122864Y59634D01*
X122959Y59572D01*
X123052Y59507D01*
X123142Y59439D01*
X123230Y59368D01*
X123316Y59293D01*
X123399Y59216D01*
X123479Y59136D01*
X123556Y59053D01*
X123631Y58967D01*
X123702Y58879D01*
X123770Y58789D01*
X123835Y58696D01*
X123897Y58601D01*
X123955Y58504D01*
X124010Y58405D01*
X124061Y58304D01*
X124109Y58201D01*
X124154Y58097D01*
X124194Y57991D01*
X124231Y57884D01*
X124264Y57776D01*
X124294Y57666D01*
X124319Y57556D01*
X124341Y57445D01*
X124358Y57333D01*
X124372Y57220D01*
X124382Y57107D01*
X124388Y56994D01*
X124390Y56881D01*
X124389Y56881D02*
X124389Y53635D01*
X124389Y57530D02*
X129582Y60127D01*
X129582Y65395D02*
X129582Y70588D01*
X129582Y65395D02*
X117898Y65395D01*
X117898Y70588D01*
X123091Y69290D02*
X123091Y65395D01*
X123091Y79823D02*
X123091Y81770D01*
X129582Y81770D01*
X129582Y77875D01*
X129580Y77776D01*
X129574Y77676D01*
X129565Y77577D01*
X129552Y77479D01*
X129535Y77381D01*
X129514Y77283D01*
X129489Y77187D01*
X129461Y77092D01*
X129429Y76998D01*
X129394Y76905D01*
X129355Y76813D01*
X129312Y76723D01*
X129267Y76635D01*
X129217Y76548D01*
X129165Y76464D01*
X129109Y76381D01*
X129051Y76301D01*
X128989Y76223D01*
X128924Y76148D01*
X128856Y76075D01*
X128786Y76005D01*
X128713Y75937D01*
X128638Y75872D01*
X128560Y75810D01*
X128480Y75752D01*
X128397Y75696D01*
X128313Y75644D01*
X128226Y75594D01*
X128138Y75549D01*
X128048Y75506D01*
X127956Y75467D01*
X127863Y75432D01*
X127769Y75400D01*
X127674Y75372D01*
X127578Y75347D01*
X127480Y75326D01*
X127382Y75309D01*
X127284Y75296D01*
X127185Y75287D01*
X127085Y75281D01*
X126986Y75279D01*
X120494Y75279D01*
X120494Y75278D02*
X120395Y75280D01*
X120295Y75286D01*
X120196Y75295D01*
X120098Y75308D01*
X120000Y75326D01*
X119902Y75346D01*
X119806Y75371D01*
X119710Y75399D01*
X119616Y75431D01*
X119523Y75466D01*
X119432Y75505D01*
X119342Y75548D01*
X119253Y75593D01*
X119167Y75643D01*
X119082Y75695D01*
X119000Y75751D01*
X118920Y75810D01*
X118842Y75871D01*
X118766Y75936D01*
X118693Y76004D01*
X118623Y76074D01*
X118555Y76147D01*
X118490Y76223D01*
X118429Y76301D01*
X118370Y76381D01*
X118314Y76463D01*
X118262Y76548D01*
X118213Y76634D01*
X118167Y76723D01*
X118124Y76813D01*
X118085Y76904D01*
X118050Y76997D01*
X118018Y77091D01*
X117990Y77187D01*
X117965Y77283D01*
X117945Y77381D01*
X117927Y77479D01*
X117914Y77577D01*
X117905Y77676D01*
X117899Y77775D01*
X117897Y77875D01*
X117898Y77875D02*
X117898Y81770D01*
X125038Y87203D02*
X125038Y94992D01*
D10*
X423164Y208788D02*
X465836Y208788D01*
X465836Y299212D02*
X423164Y299212D01*
D11*
X415001Y301442D02*
X415001Y305421D01*
X415001Y301442D02*
X417322Y298457D01*
X415001Y301442D02*
X412679Y298457D01*
X415001Y301442D02*
X418648Y302768D01*
X415001Y301442D02*
X411353Y302768D01*
X412115Y256653D02*
X412115Y251347D01*
X412115Y256653D02*
X412117Y256767D01*
X412123Y256882D01*
X412133Y256996D01*
X412147Y257109D01*
X412164Y257223D01*
X412186Y257335D01*
X412211Y257447D01*
X412241Y257557D01*
X412274Y257667D01*
X412311Y257775D01*
X412351Y257882D01*
X412396Y257988D01*
X412443Y258092D01*
X412495Y258194D01*
X412550Y258294D01*
X412608Y258393D01*
X412670Y258489D01*
X412735Y258584D01*
X412803Y258675D01*
X412875Y258765D01*
X412949Y258852D01*
X413026Y258936D01*
X413107Y259018D01*
X413190Y259097D01*
X413275Y259173D01*
X413364Y259246D01*
X413454Y259315D01*
X413547Y259382D01*
X413643Y259445D01*
X413740Y259505D01*
X413840Y259562D01*
X413941Y259615D01*
X414044Y259665D01*
X414149Y259711D01*
X414255Y259754D01*
X414363Y259792D01*
X414472Y259827D01*
X414582Y259858D01*
X414693Y259886D01*
X414805Y259909D01*
X414918Y259929D01*
X415031Y259945D01*
X415145Y259957D01*
X415259Y259965D01*
X415374Y259969D01*
X415488Y259969D01*
X415603Y259965D01*
X415717Y259957D01*
X415831Y259945D01*
X415944Y259929D01*
X416057Y259909D01*
X416169Y259886D01*
X416280Y259858D01*
X416390Y259827D01*
X416499Y259792D01*
X416607Y259754D01*
X416713Y259711D01*
X416818Y259665D01*
X416921Y259615D01*
X417022Y259562D01*
X417122Y259505D01*
X417219Y259445D01*
X417315Y259382D01*
X417408Y259315D01*
X417498Y259246D01*
X417587Y259173D01*
X417672Y259097D01*
X417755Y259018D01*
X417836Y258936D01*
X417913Y258852D01*
X417987Y258765D01*
X418059Y258675D01*
X418127Y258584D01*
X418192Y258489D01*
X418254Y258393D01*
X418312Y258294D01*
X418367Y258194D01*
X418419Y258092D01*
X418466Y257988D01*
X418511Y257882D01*
X418551Y257775D01*
X418588Y257667D01*
X418621Y257557D01*
X418651Y257447D01*
X418676Y257335D01*
X418698Y257223D01*
X418715Y257109D01*
X418729Y256996D01*
X418739Y256882D01*
X418745Y256767D01*
X418747Y256653D01*
X418747Y251347D01*
X418745Y251233D01*
X418739Y251118D01*
X418729Y251004D01*
X418715Y250891D01*
X418698Y250777D01*
X418676Y250665D01*
X418651Y250553D01*
X418621Y250443D01*
X418588Y250333D01*
X418551Y250225D01*
X418511Y250118D01*
X418466Y250012D01*
X418419Y249908D01*
X418367Y249806D01*
X418312Y249706D01*
X418254Y249607D01*
X418192Y249511D01*
X418127Y249416D01*
X418059Y249325D01*
X417987Y249235D01*
X417913Y249148D01*
X417836Y249064D01*
X417755Y248982D01*
X417672Y248903D01*
X417587Y248827D01*
X417498Y248754D01*
X417408Y248685D01*
X417315Y248618D01*
X417219Y248555D01*
X417122Y248495D01*
X417022Y248438D01*
X416921Y248385D01*
X416818Y248335D01*
X416713Y248289D01*
X416607Y248246D01*
X416499Y248208D01*
X416390Y248173D01*
X416280Y248142D01*
X416169Y248114D01*
X416057Y248091D01*
X415944Y248071D01*
X415831Y248055D01*
X415717Y248043D01*
X415603Y248035D01*
X415488Y248031D01*
X415374Y248031D01*
X415259Y248035D01*
X415145Y248043D01*
X415031Y248055D01*
X414918Y248071D01*
X414805Y248091D01*
X414693Y248114D01*
X414582Y248142D01*
X414472Y248173D01*
X414363Y248208D01*
X414255Y248246D01*
X414149Y248289D01*
X414044Y248335D01*
X413941Y248385D01*
X413840Y248438D01*
X413740Y248495D01*
X413643Y248555D01*
X413547Y248618D01*
X413454Y248685D01*
X413364Y248754D01*
X413275Y248827D01*
X413190Y248903D01*
X413107Y248982D01*
X413026Y249064D01*
X412949Y249148D01*
X412875Y249235D01*
X412803Y249325D01*
X412735Y249416D01*
X412670Y249511D01*
X412608Y249607D01*
X412550Y249706D01*
X412495Y249806D01*
X412443Y249908D01*
X412396Y250012D01*
X412351Y250118D01*
X412311Y250225D01*
X412274Y250333D01*
X412241Y250443D01*
X412211Y250553D01*
X412186Y250665D01*
X412164Y250777D01*
X412147Y250891D01*
X412133Y251004D01*
X412123Y251118D01*
X412117Y251233D01*
X412115Y251347D01*
X424074Y248031D02*
X424074Y259969D01*
X427390Y259969D01*
X427504Y259967D01*
X427619Y259961D01*
X427733Y259951D01*
X427846Y259937D01*
X427960Y259920D01*
X428072Y259898D01*
X428184Y259873D01*
X428294Y259843D01*
X428404Y259810D01*
X428512Y259773D01*
X428619Y259733D01*
X428725Y259688D01*
X428829Y259641D01*
X428931Y259589D01*
X429031Y259534D01*
X429130Y259476D01*
X429226Y259414D01*
X429321Y259349D01*
X429412Y259281D01*
X429502Y259209D01*
X429589Y259135D01*
X429673Y259058D01*
X429755Y258977D01*
X429834Y258894D01*
X429910Y258809D01*
X429983Y258720D01*
X430052Y258630D01*
X430119Y258537D01*
X430182Y258441D01*
X430242Y258344D01*
X430299Y258244D01*
X430352Y258143D01*
X430402Y258040D01*
X430448Y257935D01*
X430491Y257829D01*
X430529Y257721D01*
X430564Y257612D01*
X430595Y257502D01*
X430623Y257391D01*
X430646Y257279D01*
X430666Y257166D01*
X430682Y257053D01*
X430694Y256939D01*
X430702Y256825D01*
X430706Y256710D01*
X430706Y256596D01*
X430702Y256481D01*
X430694Y256367D01*
X430682Y256253D01*
X430666Y256140D01*
X430646Y256027D01*
X430623Y255915D01*
X430595Y255804D01*
X430564Y255694D01*
X430529Y255585D01*
X430491Y255477D01*
X430448Y255371D01*
X430402Y255266D01*
X430352Y255163D01*
X430299Y255062D01*
X430242Y254962D01*
X430182Y254865D01*
X430119Y254769D01*
X430052Y254676D01*
X429983Y254586D01*
X429910Y254497D01*
X429834Y254412D01*
X429755Y254329D01*
X429673Y254248D01*
X429589Y254171D01*
X429502Y254097D01*
X429412Y254025D01*
X429321Y253957D01*
X429226Y253892D01*
X429130Y253830D01*
X429031Y253772D01*
X428931Y253717D01*
X428829Y253665D01*
X428725Y253618D01*
X428619Y253573D01*
X428512Y253533D01*
X428404Y253496D01*
X428294Y253463D01*
X428184Y253433D01*
X428072Y253408D01*
X427960Y253386D01*
X427846Y253369D01*
X427733Y253355D01*
X427619Y253345D01*
X427504Y253339D01*
X427390Y253337D01*
X424074Y253337D01*
X434495Y246705D02*
X439801Y246705D01*
X443456Y248031D02*
X447435Y259969D01*
X451414Y248031D01*
X450420Y251016D02*
X444451Y251016D01*
X456029Y248031D02*
X456029Y259969D01*
X460008Y253337D01*
X463987Y259969D01*
X463987Y248031D01*
X469794Y248031D02*
X469794Y259969D01*
X473110Y259969D01*
X473224Y259967D01*
X473339Y259961D01*
X473453Y259951D01*
X473566Y259937D01*
X473680Y259920D01*
X473792Y259898D01*
X473904Y259873D01*
X474014Y259843D01*
X474124Y259810D01*
X474232Y259773D01*
X474339Y259733D01*
X474445Y259688D01*
X474549Y259641D01*
X474651Y259589D01*
X474751Y259534D01*
X474850Y259476D01*
X474946Y259414D01*
X475041Y259349D01*
X475132Y259281D01*
X475222Y259209D01*
X475309Y259135D01*
X475393Y259058D01*
X475475Y258977D01*
X475554Y258894D01*
X475630Y258809D01*
X475703Y258720D01*
X475772Y258630D01*
X475839Y258537D01*
X475902Y258441D01*
X475962Y258344D01*
X476019Y258244D01*
X476072Y258143D01*
X476122Y258040D01*
X476168Y257935D01*
X476211Y257829D01*
X476249Y257721D01*
X476284Y257612D01*
X476315Y257502D01*
X476343Y257391D01*
X476366Y257279D01*
X476386Y257166D01*
X476402Y257053D01*
X476414Y256939D01*
X476422Y256825D01*
X476426Y256710D01*
X476426Y256596D01*
X476422Y256481D01*
X476414Y256367D01*
X476402Y256253D01*
X476386Y256140D01*
X476366Y256027D01*
X476343Y255915D01*
X476315Y255804D01*
X476284Y255694D01*
X476249Y255585D01*
X476211Y255477D01*
X476168Y255371D01*
X476122Y255266D01*
X476072Y255163D01*
X476019Y255062D01*
X475962Y254962D01*
X475902Y254865D01*
X475839Y254769D01*
X475772Y254676D01*
X475703Y254586D01*
X475630Y254497D01*
X475554Y254412D01*
X475475Y254329D01*
X475393Y254248D01*
X475309Y254171D01*
X475222Y254097D01*
X475132Y254025D01*
X475041Y253957D01*
X474946Y253892D01*
X474850Y253830D01*
X474751Y253772D01*
X474651Y253717D01*
X474549Y253665D01*
X474445Y253618D01*
X474339Y253573D01*
X474232Y253533D01*
X474124Y253496D01*
X474014Y253463D01*
X473904Y253433D01*
X473792Y253408D01*
X473680Y253386D01*
X473566Y253369D01*
X473453Y253355D01*
X473339Y253345D01*
X473224Y253339D01*
X473110Y253337D01*
X469794Y253337D01*
X484293Y248031D02*
X484395Y248033D01*
X484496Y248039D01*
X484597Y248049D01*
X484698Y248062D01*
X484798Y248080D01*
X484897Y248101D01*
X484996Y248126D01*
X485093Y248155D01*
X485190Y248187D01*
X485285Y248223D01*
X485378Y248263D01*
X485470Y248306D01*
X485560Y248353D01*
X485649Y248404D01*
X485735Y248457D01*
X485819Y248514D01*
X485901Y248574D01*
X485981Y248637D01*
X486058Y248703D01*
X486133Y248772D01*
X486205Y248844D01*
X486274Y248919D01*
X486340Y248996D01*
X486403Y249076D01*
X486463Y249158D01*
X486520Y249242D01*
X486573Y249328D01*
X486624Y249417D01*
X486671Y249507D01*
X486714Y249599D01*
X486754Y249692D01*
X486790Y249787D01*
X486822Y249884D01*
X486851Y249981D01*
X486876Y250080D01*
X486897Y250179D01*
X486915Y250279D01*
X486928Y250380D01*
X486938Y250481D01*
X486944Y250582D01*
X486946Y250684D01*
X484293Y248031D02*
X484146Y248033D01*
X483998Y248039D01*
X483851Y248048D01*
X483704Y248062D01*
X483558Y248079D01*
X483412Y248101D01*
X483266Y248126D01*
X483122Y248155D01*
X482978Y248187D01*
X482835Y248224D01*
X482693Y248264D01*
X482552Y248308D01*
X482413Y248356D01*
X482275Y248407D01*
X482138Y248462D01*
X482002Y248521D01*
X481868Y248583D01*
X481736Y248648D01*
X481606Y248717D01*
X481477Y248790D01*
X481351Y248865D01*
X481226Y248944D01*
X481104Y249027D01*
X480984Y249112D01*
X480866Y249201D01*
X480751Y249293D01*
X480637Y249387D01*
X480527Y249485D01*
X480419Y249586D01*
X480314Y249689D01*
X480645Y257316D02*
X480647Y257418D01*
X480653Y257519D01*
X480663Y257620D01*
X480676Y257721D01*
X480694Y257821D01*
X480715Y257920D01*
X480740Y258019D01*
X480769Y258116D01*
X480801Y258213D01*
X480837Y258308D01*
X480877Y258401D01*
X480920Y258493D01*
X480967Y258583D01*
X481018Y258672D01*
X481071Y258758D01*
X481128Y258842D01*
X481188Y258924D01*
X481251Y259004D01*
X481317Y259081D01*
X481386Y259156D01*
X481458Y259228D01*
X481533Y259297D01*
X481610Y259363D01*
X481690Y259426D01*
X481772Y259486D01*
X481856Y259543D01*
X481942Y259596D01*
X482031Y259647D01*
X482121Y259694D01*
X482213Y259737D01*
X482306Y259777D01*
X482401Y259813D01*
X482498Y259845D01*
X482595Y259874D01*
X482694Y259899D01*
X482793Y259920D01*
X482893Y259938D01*
X482994Y259951D01*
X483095Y259961D01*
X483196Y259967D01*
X483298Y259969D01*
X483437Y259967D01*
X483576Y259961D01*
X483715Y259951D01*
X483854Y259938D01*
X483992Y259920D01*
X484129Y259899D01*
X484266Y259874D01*
X484402Y259845D01*
X484537Y259812D01*
X484672Y259776D01*
X484805Y259735D01*
X484937Y259691D01*
X485068Y259644D01*
X485197Y259592D01*
X485325Y259537D01*
X485451Y259479D01*
X485576Y259417D01*
X485698Y259351D01*
X485819Y259283D01*
X485938Y259210D01*
X486055Y259135D01*
X486170Y259056D01*
X486282Y258974D01*
X481972Y254995D02*
X481887Y255047D01*
X481804Y255103D01*
X481723Y255161D01*
X481644Y255223D01*
X481568Y255287D01*
X481494Y255354D01*
X481422Y255424D01*
X481354Y255496D01*
X481287Y255571D01*
X481224Y255648D01*
X481164Y255728D01*
X481106Y255810D01*
X481052Y255894D01*
X481001Y255979D01*
X480953Y256067D01*
X480908Y256156D01*
X480867Y256247D01*
X480829Y256340D01*
X480795Y256434D01*
X480764Y256528D01*
X480736Y256625D01*
X480712Y256722D01*
X480692Y256819D01*
X480676Y256918D01*
X480663Y257017D01*
X480653Y257116D01*
X480648Y257216D01*
X480646Y257316D01*
X485620Y253005D02*
X485705Y252953D01*
X485788Y252897D01*
X485869Y252839D01*
X485948Y252777D01*
X486024Y252713D01*
X486098Y252646D01*
X486170Y252576D01*
X486238Y252504D01*
X486305Y252429D01*
X486368Y252352D01*
X486428Y252272D01*
X486486Y252190D01*
X486540Y252106D01*
X486591Y252021D01*
X486639Y251933D01*
X486684Y251844D01*
X486725Y251753D01*
X486763Y251660D01*
X486797Y251567D01*
X486828Y251472D01*
X486856Y251375D01*
X486880Y251278D01*
X486900Y251181D01*
X486916Y251082D01*
X486929Y250983D01*
X486939Y250884D01*
X486944Y250784D01*
X486946Y250684D01*
X485620Y253005D02*
X481972Y254995D01*
D13*
X152800Y269600D02*
X152800Y314600D01*
X202800Y314600D02*
X202800Y269600D01*
X164800Y314600D02*
X152800Y314600D01*
X190800Y314600D02*
X202800Y314600D01*
X189453Y247610D02*
X189455Y247658D01*
X189461Y247705D01*
X189471Y247752D01*
X189484Y247798D01*
X189501Y247843D01*
X189522Y247886D01*
X189546Y247927D01*
X189574Y247967D01*
X189604Y248003D01*
X189638Y248038D01*
X189674Y248069D01*
X189713Y248097D01*
X189753Y248122D01*
X189796Y248144D01*
X189840Y248162D01*
X189886Y248176D01*
X189933Y248187D01*
X189980Y248194D01*
X190028Y248197D01*
X190076Y248196D01*
X190124Y248191D01*
X190171Y248182D01*
X190217Y248170D01*
X190262Y248153D01*
X190305Y248134D01*
X190347Y248110D01*
X190387Y248083D01*
X190424Y248054D01*
X190459Y248021D01*
X190491Y247985D01*
X190520Y247947D01*
X190546Y247907D01*
X190569Y247865D01*
X190588Y247821D01*
X190603Y247775D01*
X190615Y247729D01*
X190623Y247682D01*
X190627Y247634D01*
X190627Y247586D01*
X190623Y247538D01*
X190615Y247491D01*
X190603Y247445D01*
X190588Y247399D01*
X190569Y247355D01*
X190546Y247313D01*
X190520Y247273D01*
X190491Y247235D01*
X190459Y247199D01*
X190424Y247166D01*
X190387Y247137D01*
X190347Y247110D01*
X190305Y247086D01*
X190262Y247067D01*
X190217Y247050D01*
X190171Y247038D01*
X190124Y247029D01*
X190076Y247024D01*
X190028Y247023D01*
X189980Y247026D01*
X189933Y247033D01*
X189886Y247044D01*
X189840Y247058D01*
X189796Y247076D01*
X189753Y247098D01*
X189713Y247123D01*
X189674Y247151D01*
X189638Y247182D01*
X189604Y247217D01*
X189574Y247253D01*
X189546Y247293D01*
X189522Y247334D01*
X189501Y247377D01*
X189484Y247422D01*
X189471Y247468D01*
X189461Y247515D01*
X189455Y247562D01*
X189453Y247610D01*
D12*
X162369Y288296D02*
X158474Y299980D01*
X166263Y299980D02*
X162369Y288296D01*
X171008Y288296D02*
X171008Y299980D01*
X174253Y299980D01*
X174366Y299978D01*
X174479Y299972D01*
X174592Y299962D01*
X174705Y299948D01*
X174817Y299931D01*
X174928Y299909D01*
X175038Y299884D01*
X175148Y299854D01*
X175256Y299821D01*
X175363Y299784D01*
X175469Y299744D01*
X175573Y299699D01*
X175676Y299651D01*
X175777Y299600D01*
X175876Y299545D01*
X175973Y299487D01*
X176068Y299425D01*
X176161Y299360D01*
X176251Y299292D01*
X176339Y299221D01*
X176425Y299146D01*
X176508Y299069D01*
X176588Y298989D01*
X176665Y298906D01*
X176740Y298820D01*
X176811Y298732D01*
X176879Y298642D01*
X176944Y298549D01*
X177006Y298454D01*
X177064Y298357D01*
X177119Y298258D01*
X177170Y298157D01*
X177218Y298054D01*
X177263Y297950D01*
X177303Y297844D01*
X177340Y297737D01*
X177373Y297629D01*
X177403Y297519D01*
X177428Y297409D01*
X177450Y297298D01*
X177467Y297186D01*
X177481Y297073D01*
X177491Y296960D01*
X177497Y296847D01*
X177499Y296734D01*
X177497Y296621D01*
X177491Y296508D01*
X177481Y296395D01*
X177467Y296282D01*
X177450Y296170D01*
X177428Y296059D01*
X177403Y295949D01*
X177373Y295839D01*
X177340Y295731D01*
X177303Y295624D01*
X177263Y295518D01*
X177218Y295414D01*
X177170Y295311D01*
X177119Y295210D01*
X177064Y295111D01*
X177006Y295014D01*
X176944Y294919D01*
X176879Y294826D01*
X176811Y294736D01*
X176740Y294648D01*
X176665Y294562D01*
X176588Y294479D01*
X176508Y294399D01*
X176425Y294322D01*
X176339Y294247D01*
X176251Y294176D01*
X176161Y294108D01*
X176068Y294043D01*
X175973Y293981D01*
X175876Y293923D01*
X175777Y293868D01*
X175676Y293817D01*
X175573Y293769D01*
X175469Y293724D01*
X175363Y293684D01*
X175256Y293647D01*
X175148Y293614D01*
X175038Y293584D01*
X174928Y293559D01*
X174817Y293537D01*
X174705Y293520D01*
X174592Y293506D01*
X174479Y293496D01*
X174366Y293490D01*
X174253Y293488D01*
X174253Y293489D02*
X171008Y293489D01*
X174902Y293489D02*
X177499Y288296D01*
X182477Y292840D02*
X190266Y292840D01*
X186372Y296734D02*
X186372Y288945D01*
D13*
X152800Y174900D02*
X152800Y129900D01*
X202800Y129900D02*
X202800Y174900D01*
X164800Y174900D02*
X152800Y174900D01*
X190800Y174900D02*
X202800Y174900D01*
X189453Y107910D02*
X189455Y107958D01*
X189461Y108005D01*
X189471Y108052D01*
X189484Y108098D01*
X189501Y108143D01*
X189522Y108186D01*
X189546Y108227D01*
X189574Y108267D01*
X189604Y108303D01*
X189638Y108338D01*
X189674Y108369D01*
X189713Y108397D01*
X189753Y108422D01*
X189796Y108444D01*
X189840Y108462D01*
X189886Y108476D01*
X189933Y108487D01*
X189980Y108494D01*
X190028Y108497D01*
X190076Y108496D01*
X190124Y108491D01*
X190171Y108482D01*
X190217Y108470D01*
X190262Y108453D01*
X190305Y108434D01*
X190347Y108410D01*
X190387Y108383D01*
X190424Y108354D01*
X190459Y108321D01*
X190491Y108285D01*
X190520Y108247D01*
X190546Y108207D01*
X190569Y108165D01*
X190588Y108121D01*
X190603Y108075D01*
X190615Y108029D01*
X190623Y107982D01*
X190627Y107934D01*
X190627Y107886D01*
X190623Y107838D01*
X190615Y107791D01*
X190603Y107745D01*
X190588Y107699D01*
X190569Y107655D01*
X190546Y107613D01*
X190520Y107573D01*
X190491Y107535D01*
X190459Y107499D01*
X190424Y107466D01*
X190387Y107437D01*
X190347Y107410D01*
X190305Y107386D01*
X190262Y107367D01*
X190217Y107350D01*
X190171Y107338D01*
X190124Y107329D01*
X190076Y107324D01*
X190028Y107323D01*
X189980Y107326D01*
X189933Y107333D01*
X189886Y107344D01*
X189840Y107358D01*
X189796Y107376D01*
X189753Y107398D01*
X189713Y107423D01*
X189674Y107451D01*
X189638Y107482D01*
X189604Y107517D01*
X189574Y107553D01*
X189546Y107593D01*
X189522Y107634D01*
X189501Y107677D01*
X189484Y107722D01*
X189471Y107768D01*
X189461Y107815D01*
X189455Y107862D01*
X189453Y107910D01*
D12*
X162369Y148596D02*
X158474Y160280D01*
X166263Y160280D02*
X162369Y148596D01*
X171008Y148596D02*
X171008Y160280D01*
X174253Y160280D01*
X174366Y160278D01*
X174479Y160272D01*
X174592Y160262D01*
X174705Y160248D01*
X174817Y160231D01*
X174928Y160209D01*
X175038Y160184D01*
X175148Y160154D01*
X175256Y160121D01*
X175363Y160084D01*
X175469Y160044D01*
X175573Y159999D01*
X175676Y159951D01*
X175777Y159900D01*
X175876Y159845D01*
X175973Y159787D01*
X176068Y159725D01*
X176161Y159660D01*
X176251Y159592D01*
X176339Y159521D01*
X176425Y159446D01*
X176508Y159369D01*
X176588Y159289D01*
X176665Y159206D01*
X176740Y159120D01*
X176811Y159032D01*
X176879Y158942D01*
X176944Y158849D01*
X177006Y158754D01*
X177064Y158657D01*
X177119Y158558D01*
X177170Y158457D01*
X177218Y158354D01*
X177263Y158250D01*
X177303Y158144D01*
X177340Y158037D01*
X177373Y157929D01*
X177403Y157819D01*
X177428Y157709D01*
X177450Y157598D01*
X177467Y157486D01*
X177481Y157373D01*
X177491Y157260D01*
X177497Y157147D01*
X177499Y157034D01*
X177497Y156921D01*
X177491Y156808D01*
X177481Y156695D01*
X177467Y156582D01*
X177450Y156470D01*
X177428Y156359D01*
X177403Y156249D01*
X177373Y156139D01*
X177340Y156031D01*
X177303Y155924D01*
X177263Y155818D01*
X177218Y155714D01*
X177170Y155611D01*
X177119Y155510D01*
X177064Y155411D01*
X177006Y155314D01*
X176944Y155219D01*
X176879Y155126D01*
X176811Y155036D01*
X176740Y154948D01*
X176665Y154862D01*
X176588Y154779D01*
X176508Y154699D01*
X176425Y154622D01*
X176339Y154547D01*
X176251Y154476D01*
X176161Y154408D01*
X176068Y154343D01*
X175973Y154281D01*
X175876Y154223D01*
X175777Y154168D01*
X175676Y154117D01*
X175573Y154069D01*
X175469Y154024D01*
X175363Y153984D01*
X175256Y153947D01*
X175148Y153914D01*
X175038Y153884D01*
X174928Y153859D01*
X174817Y153837D01*
X174705Y153820D01*
X174592Y153806D01*
X174479Y153796D01*
X174366Y153790D01*
X174253Y153788D01*
X174253Y153789D02*
X171008Y153789D01*
X174902Y153789D02*
X177499Y148596D01*
X182477Y153140D02*
X190266Y153140D01*
D13*
X241700Y231500D02*
X241700Y276500D01*
X291700Y276500D02*
X291700Y231500D01*
X253700Y276500D02*
X241700Y276500D01*
X279700Y276500D02*
X291700Y276500D01*
X278353Y209510D02*
X278355Y209558D01*
X278361Y209605D01*
X278371Y209652D01*
X278384Y209698D01*
X278401Y209743D01*
X278422Y209786D01*
X278446Y209827D01*
X278474Y209867D01*
X278504Y209903D01*
X278538Y209938D01*
X278574Y209969D01*
X278613Y209997D01*
X278653Y210022D01*
X278696Y210044D01*
X278740Y210062D01*
X278786Y210076D01*
X278833Y210087D01*
X278880Y210094D01*
X278928Y210097D01*
X278976Y210096D01*
X279024Y210091D01*
X279071Y210082D01*
X279117Y210070D01*
X279162Y210053D01*
X279205Y210034D01*
X279247Y210010D01*
X279287Y209983D01*
X279324Y209954D01*
X279359Y209921D01*
X279391Y209885D01*
X279420Y209847D01*
X279446Y209807D01*
X279469Y209765D01*
X279488Y209721D01*
X279503Y209675D01*
X279515Y209629D01*
X279523Y209582D01*
X279527Y209534D01*
X279527Y209486D01*
X279523Y209438D01*
X279515Y209391D01*
X279503Y209345D01*
X279488Y209299D01*
X279469Y209255D01*
X279446Y209213D01*
X279420Y209173D01*
X279391Y209135D01*
X279359Y209099D01*
X279324Y209066D01*
X279287Y209037D01*
X279247Y209010D01*
X279205Y208986D01*
X279162Y208967D01*
X279117Y208950D01*
X279071Y208938D01*
X279024Y208929D01*
X278976Y208924D01*
X278928Y208923D01*
X278880Y208926D01*
X278833Y208933D01*
X278786Y208944D01*
X278740Y208958D01*
X278696Y208976D01*
X278653Y208998D01*
X278613Y209023D01*
X278574Y209051D01*
X278538Y209082D01*
X278504Y209117D01*
X278474Y209153D01*
X278446Y209193D01*
X278422Y209234D01*
X278401Y209277D01*
X278384Y209322D01*
X278371Y209368D01*
X278361Y209415D01*
X278355Y209462D01*
X278353Y209510D01*
D12*
X239126Y250196D02*
X235231Y261880D01*
X243021Y261880D02*
X239126Y250196D01*
X247765Y250196D02*
X247765Y261880D01*
X251011Y261880D01*
X251124Y261878D01*
X251237Y261872D01*
X251350Y261862D01*
X251463Y261848D01*
X251575Y261831D01*
X251686Y261809D01*
X251796Y261784D01*
X251906Y261754D01*
X252014Y261721D01*
X252121Y261684D01*
X252227Y261644D01*
X252331Y261599D01*
X252434Y261551D01*
X252535Y261500D01*
X252634Y261445D01*
X252731Y261387D01*
X252826Y261325D01*
X252919Y261260D01*
X253009Y261192D01*
X253097Y261121D01*
X253183Y261046D01*
X253266Y260969D01*
X253346Y260889D01*
X253423Y260806D01*
X253498Y260720D01*
X253569Y260632D01*
X253637Y260542D01*
X253702Y260449D01*
X253764Y260354D01*
X253822Y260257D01*
X253877Y260158D01*
X253928Y260057D01*
X253976Y259954D01*
X254021Y259850D01*
X254061Y259744D01*
X254098Y259637D01*
X254131Y259529D01*
X254161Y259419D01*
X254186Y259309D01*
X254208Y259198D01*
X254225Y259086D01*
X254239Y258973D01*
X254249Y258860D01*
X254255Y258747D01*
X254257Y258634D01*
X254255Y258521D01*
X254249Y258408D01*
X254239Y258295D01*
X254225Y258182D01*
X254208Y258070D01*
X254186Y257959D01*
X254161Y257849D01*
X254131Y257739D01*
X254098Y257631D01*
X254061Y257524D01*
X254021Y257418D01*
X253976Y257314D01*
X253928Y257211D01*
X253877Y257110D01*
X253822Y257011D01*
X253764Y256914D01*
X253702Y256819D01*
X253637Y256726D01*
X253569Y256636D01*
X253498Y256548D01*
X253423Y256462D01*
X253346Y256379D01*
X253266Y256299D01*
X253183Y256222D01*
X253097Y256147D01*
X253009Y256076D01*
X252919Y256008D01*
X252826Y255943D01*
X252731Y255881D01*
X252634Y255823D01*
X252535Y255768D01*
X252434Y255717D01*
X252331Y255669D01*
X252227Y255624D01*
X252121Y255584D01*
X252014Y255547D01*
X251906Y255514D01*
X251796Y255484D01*
X251686Y255459D01*
X251575Y255437D01*
X251463Y255420D01*
X251350Y255406D01*
X251237Y255396D01*
X251124Y255390D01*
X251011Y255388D01*
X251011Y255389D02*
X247765Y255389D01*
X251660Y255389D02*
X254256Y250196D01*
X258472Y250196D02*
X262367Y261880D01*
X266262Y250196D01*
X265288Y253117D02*
X259446Y253117D01*
X271045Y250196D02*
X271045Y261880D01*
X274940Y255389D01*
X278835Y261880D01*
X278835Y250196D01*
X284818Y250196D02*
X284818Y261880D01*
X288063Y261880D01*
X288176Y261878D01*
X288289Y261872D01*
X288402Y261862D01*
X288515Y261848D01*
X288627Y261831D01*
X288738Y261809D01*
X288848Y261784D01*
X288958Y261754D01*
X289066Y261721D01*
X289173Y261684D01*
X289279Y261644D01*
X289383Y261599D01*
X289486Y261551D01*
X289587Y261500D01*
X289686Y261445D01*
X289783Y261387D01*
X289878Y261325D01*
X289971Y261260D01*
X290061Y261192D01*
X290149Y261121D01*
X290235Y261046D01*
X290318Y260969D01*
X290398Y260889D01*
X290475Y260806D01*
X290550Y260720D01*
X290621Y260632D01*
X290689Y260542D01*
X290754Y260449D01*
X290816Y260354D01*
X290874Y260257D01*
X290929Y260158D01*
X290980Y260057D01*
X291028Y259954D01*
X291073Y259850D01*
X291113Y259744D01*
X291150Y259637D01*
X291183Y259529D01*
X291213Y259419D01*
X291238Y259309D01*
X291260Y259198D01*
X291277Y259086D01*
X291291Y258973D01*
X291301Y258860D01*
X291307Y258747D01*
X291309Y258634D01*
X291307Y258521D01*
X291301Y258408D01*
X291291Y258295D01*
X291277Y258182D01*
X291260Y258070D01*
X291238Y257959D01*
X291213Y257849D01*
X291183Y257739D01*
X291150Y257631D01*
X291113Y257524D01*
X291073Y257418D01*
X291028Y257314D01*
X290980Y257211D01*
X290929Y257110D01*
X290874Y257011D01*
X290816Y256914D01*
X290754Y256819D01*
X290689Y256726D01*
X290621Y256636D01*
X290550Y256548D01*
X290475Y256462D01*
X290398Y256379D01*
X290318Y256299D01*
X290235Y256222D01*
X290149Y256147D01*
X290061Y256076D01*
X289971Y256008D01*
X289878Y255943D01*
X289783Y255881D01*
X289686Y255823D01*
X289587Y255768D01*
X289486Y255717D01*
X289383Y255669D01*
X289279Y255624D01*
X289173Y255584D01*
X289066Y255547D01*
X288958Y255514D01*
X288848Y255484D01*
X288738Y255459D01*
X288627Y255437D01*
X288515Y255420D01*
X288402Y255406D01*
X288289Y255396D01*
X288176Y255390D01*
X288063Y255388D01*
X288063Y255389D02*
X284818Y255389D01*
M02*
