G04 EAGLE Gerber RS-274X export*
G75*
%MOMM*%
%FSLAX34Y34*%
%LPD*%
%INSolderpaste Top*%
%IPPOS*%
%AMOC8*
5,1,8,0,0,1.08239X$1,22.5*%
G01*
%ADD10R,1.000000X1.100000*%
%ADD11R,1.100000X1.000000*%
%ADD12R,0.950000X2.150000*%
%ADD13R,3.250000X2.150000*%
%ADD14R,2.286000X0.558800*%
%ADD15R,1.600000X2.000000*%
%ADD16R,2.000000X2.000000*%


D10*
X334400Y139700D03*
X351400Y139700D03*
X347100Y292100D03*
X364100Y292100D03*
X270900Y139700D03*
X287900Y139700D03*
X351400Y355600D03*
X334400Y355600D03*
X347100Y228600D03*
X364100Y228600D03*
X258200Y355600D03*
X275200Y355600D03*
D11*
X207400Y406400D03*
X224400Y406400D03*
X67700Y330200D03*
X84700Y330200D03*
X67700Y152400D03*
X84700Y152400D03*
X169300Y76200D03*
X186300Y76200D03*
D10*
X156600Y406400D03*
X173600Y406400D03*
X220100Y76200D03*
X237100Y76200D03*
D12*
X40500Y390100D03*
X63500Y390100D03*
X86500Y390100D03*
D13*
X63500Y448100D03*
D12*
X99200Y92500D03*
X76200Y92500D03*
X53200Y92500D03*
D13*
X76200Y34500D03*
D14*
X419354Y292100D03*
X419354Y279400D03*
X419354Y266700D03*
X419354Y254000D03*
X419354Y241300D03*
X419354Y228600D03*
X419354Y215900D03*
X469646Y215900D03*
X469646Y228600D03*
X469646Y241300D03*
X469646Y254000D03*
X469646Y266700D03*
X469646Y279400D03*
X469646Y292100D03*
D15*
X189550Y262100D03*
D16*
X177800Y322100D03*
D15*
X166050Y262100D03*
X189550Y122400D03*
D16*
X177800Y182400D03*
D15*
X166050Y122400D03*
X278450Y224000D03*
D16*
X266700Y284000D03*
D15*
X254950Y224000D03*
M02*
