G04 EAGLE Gerber RS-274X export*
G75*
%MOMM*%
%FSLAX34Y34*%
%LPD*%
%INBottom Copper*%
%IPPOS*%
%AMOC8*
5,1,8,0,0,1.08239X$1,22.5*%
G01*
%ADD10R,1.524000X1.524000*%
%ADD11C,1.524000*%
%ADD12C,1.524000*%
%ADD13C,0.956400*%
%ADD14C,0.756400*%
%ADD15C,0.304800*%
%ADD16C,0.914400*%

G36*
X573098Y10164D02*
X573098Y10164D01*
X573117Y10162D01*
X573219Y10184D01*
X573321Y10200D01*
X573338Y10210D01*
X573358Y10214D01*
X573447Y10267D01*
X573538Y10316D01*
X573552Y10330D01*
X573569Y10340D01*
X573636Y10419D01*
X573708Y10494D01*
X573716Y10512D01*
X573729Y10527D01*
X573768Y10623D01*
X573811Y10717D01*
X573813Y10737D01*
X573821Y10755D01*
X573839Y10922D01*
X573839Y468378D01*
X573836Y468398D01*
X573838Y468417D01*
X573816Y468519D01*
X573800Y468621D01*
X573790Y468638D01*
X573786Y468658D01*
X573733Y468747D01*
X573684Y468838D01*
X573670Y468852D01*
X573660Y468869D01*
X573581Y468936D01*
X573506Y469008D01*
X573488Y469016D01*
X573473Y469029D01*
X573377Y469068D01*
X573283Y469111D01*
X573263Y469113D01*
X573245Y469121D01*
X573078Y469139D01*
X564927Y469139D01*
X564831Y469124D01*
X564734Y469114D01*
X564710Y469104D01*
X564685Y469100D01*
X564599Y469054D01*
X564510Y469014D01*
X564490Y468997D01*
X564467Y468984D01*
X564400Y468914D01*
X564328Y468848D01*
X564316Y468825D01*
X564298Y468806D01*
X564257Y468718D01*
X564210Y468632D01*
X564205Y468607D01*
X564194Y468583D01*
X564183Y468486D01*
X564166Y468390D01*
X564170Y468364D01*
X564167Y468339D01*
X564188Y468243D01*
X564202Y468147D01*
X564214Y468124D01*
X564219Y468098D01*
X564269Y468014D01*
X564313Y467928D01*
X564332Y467910D01*
X564346Y467887D01*
X564420Y467824D01*
X564489Y467756D01*
X564518Y467740D01*
X564532Y467727D01*
X564563Y467715D01*
X564636Y467675D01*
X565547Y467297D01*
X568897Y463947D01*
X570711Y459569D01*
X570711Y454831D01*
X568897Y450453D01*
X565547Y447103D01*
X561169Y445289D01*
X556431Y445289D01*
X552053Y447103D01*
X548703Y450453D01*
X546889Y454831D01*
X546889Y459569D01*
X548703Y463947D01*
X552053Y467297D01*
X552964Y467675D01*
X553047Y467726D01*
X553133Y467772D01*
X553151Y467791D01*
X553173Y467804D01*
X553235Y467879D01*
X553302Y467950D01*
X553313Y467974D01*
X553330Y467994D01*
X553365Y468085D01*
X553406Y468173D01*
X553409Y468199D01*
X553418Y468223D01*
X553422Y468321D01*
X553433Y468417D01*
X553427Y468443D01*
X553428Y468469D01*
X553401Y468563D01*
X553381Y468658D01*
X553367Y468680D01*
X553360Y468705D01*
X553304Y468785D01*
X553254Y468869D01*
X553235Y468886D01*
X553220Y468907D01*
X553142Y468966D01*
X553068Y469029D01*
X553043Y469039D01*
X553022Y469054D01*
X552930Y469084D01*
X552839Y469121D01*
X552807Y469124D01*
X552788Y469130D01*
X552755Y469130D01*
X552673Y469139D01*
X10922Y469139D01*
X10902Y469136D01*
X10883Y469138D01*
X10781Y469116D01*
X10679Y469100D01*
X10662Y469090D01*
X10642Y469086D01*
X10553Y469033D01*
X10462Y468984D01*
X10448Y468970D01*
X10431Y468960D01*
X10364Y468881D01*
X10292Y468806D01*
X10284Y468788D01*
X10271Y468773D01*
X10232Y468677D01*
X10189Y468583D01*
X10187Y468563D01*
X10179Y468545D01*
X10161Y468378D01*
X10161Y10922D01*
X10164Y10902D01*
X10162Y10883D01*
X10184Y10781D01*
X10200Y10679D01*
X10210Y10662D01*
X10214Y10642D01*
X10267Y10553D01*
X10316Y10462D01*
X10330Y10448D01*
X10340Y10431D01*
X10419Y10364D01*
X10494Y10292D01*
X10512Y10284D01*
X10527Y10271D01*
X10623Y10232D01*
X10717Y10189D01*
X10737Y10187D01*
X10755Y10179D01*
X10922Y10161D01*
X573078Y10161D01*
X573098Y10164D01*
G37*
%LPC*%
G36*
X219311Y93471D02*
X219311Y93471D01*
X216697Y94554D01*
X214696Y96555D01*
X213613Y99169D01*
X213613Y101999D01*
X214696Y104613D01*
X216438Y106355D01*
X216491Y106429D01*
X216551Y106499D01*
X216563Y106529D01*
X216582Y106555D01*
X216609Y106642D01*
X216643Y106727D01*
X216647Y106768D01*
X216654Y106790D01*
X216653Y106822D01*
X216661Y106894D01*
X216661Y133002D01*
X445292Y361633D01*
X445345Y361707D01*
X445405Y361776D01*
X445417Y361806D01*
X445436Y361832D01*
X445463Y361919D01*
X445497Y362004D01*
X445501Y362045D01*
X445508Y362068D01*
X445507Y362100D01*
X445515Y362171D01*
X445515Y364269D01*
X445501Y364359D01*
X445493Y364450D01*
X445481Y364480D01*
X445476Y364512D01*
X445433Y364592D01*
X445397Y364676D01*
X445371Y364708D01*
X445360Y364729D01*
X445337Y364751D01*
X445292Y364807D01*
X400483Y409616D01*
X400389Y409684D01*
X400385Y409687D01*
X400362Y409707D01*
X400355Y409710D01*
X400295Y409754D01*
X400289Y409756D01*
X400284Y409760D01*
X400173Y409794D01*
X400061Y409830D01*
X400055Y409830D01*
X400049Y409832D01*
X399932Y409829D01*
X399815Y409828D01*
X399808Y409826D01*
X399803Y409826D01*
X399785Y409819D01*
X399654Y409781D01*
X397621Y408939D01*
X393579Y408939D01*
X389844Y410486D01*
X386986Y413344D01*
X386311Y414975D01*
X386289Y415010D01*
X386275Y415050D01*
X386224Y415114D01*
X386181Y415184D01*
X386149Y415210D01*
X386123Y415243D01*
X386055Y415288D01*
X385992Y415340D01*
X385953Y415356D01*
X385918Y415379D01*
X385838Y415399D01*
X385762Y415429D01*
X385720Y415430D01*
X385680Y415441D01*
X385598Y415436D01*
X385516Y415439D01*
X385476Y415427D01*
X385434Y415425D01*
X385359Y415393D01*
X385280Y415371D01*
X385246Y415347D01*
X385207Y415331D01*
X385145Y415277D01*
X385078Y415230D01*
X385053Y415197D01*
X385021Y415169D01*
X384936Y415040D01*
X384931Y415033D01*
X384931Y415031D01*
X384929Y415029D01*
X384290Y413775D01*
X383350Y412481D01*
X382219Y411350D01*
X380925Y410410D01*
X379500Y409684D01*
X377979Y409189D01*
X377123Y409054D01*
X377123Y418338D01*
X377120Y418358D01*
X377122Y418377D01*
X377100Y418479D01*
X377083Y418581D01*
X377074Y418598D01*
X377070Y418618D01*
X377017Y418707D01*
X376968Y418798D01*
X376954Y418812D01*
X376944Y418829D01*
X376865Y418896D01*
X376790Y418967D01*
X376772Y418976D01*
X376757Y418989D01*
X376661Y419027D01*
X376567Y419071D01*
X376547Y419073D01*
X376529Y419081D01*
X376362Y419099D01*
X374838Y419099D01*
X374818Y419096D01*
X374799Y419098D01*
X374697Y419076D01*
X374595Y419059D01*
X374578Y419050D01*
X374558Y419046D01*
X374469Y418993D01*
X374378Y418944D01*
X374364Y418930D01*
X374347Y418920D01*
X374280Y418841D01*
X374209Y418766D01*
X374200Y418748D01*
X374187Y418733D01*
X374148Y418637D01*
X374105Y418543D01*
X374103Y418523D01*
X374095Y418505D01*
X374077Y418338D01*
X374077Y409054D01*
X373221Y409189D01*
X371700Y409684D01*
X370275Y410410D01*
X368981Y411350D01*
X367850Y412481D01*
X366910Y413775D01*
X366271Y415029D01*
X366246Y415063D01*
X366229Y415101D01*
X366174Y415161D01*
X366125Y415227D01*
X366091Y415251D01*
X366062Y415282D01*
X365991Y415322D01*
X365924Y415369D01*
X365884Y415381D01*
X365847Y415401D01*
X365766Y415415D01*
X365688Y415439D01*
X365646Y415437D01*
X365605Y415444D01*
X365524Y415433D01*
X365442Y415430D01*
X365403Y415415D01*
X365361Y415409D01*
X365288Y415372D01*
X365212Y415343D01*
X365180Y415316D01*
X365142Y415297D01*
X365085Y415239D01*
X365022Y415187D01*
X364999Y415152D01*
X364970Y415122D01*
X364895Y414986D01*
X364891Y414979D01*
X364890Y414977D01*
X364889Y414975D01*
X364214Y413344D01*
X361356Y410486D01*
X357621Y408939D01*
X353579Y408939D01*
X349844Y410486D01*
X346986Y413344D01*
X346303Y414993D01*
X346265Y415054D01*
X346236Y415119D01*
X346201Y415158D01*
X346174Y415202D01*
X346118Y415248D01*
X346070Y415301D01*
X346024Y415326D01*
X345984Y415359D01*
X345917Y415385D01*
X345854Y415419D01*
X345803Y415428D01*
X345755Y415447D01*
X345683Y415450D01*
X345612Y415463D01*
X345561Y415455D01*
X345509Y415457D01*
X345440Y415437D01*
X345369Y415427D01*
X345323Y415403D01*
X345273Y415389D01*
X345214Y415348D01*
X345150Y415316D01*
X345113Y415278D01*
X345071Y415249D01*
X345028Y415191D01*
X344978Y415140D01*
X344943Y415077D01*
X344924Y415051D01*
X344917Y415029D01*
X344897Y414993D01*
X344214Y413344D01*
X341356Y410486D01*
X337621Y408939D01*
X333579Y408939D01*
X329844Y410486D01*
X327060Y413270D01*
X327002Y413312D01*
X326950Y413362D01*
X326903Y413383D01*
X326861Y413414D01*
X326792Y413435D01*
X326727Y413465D01*
X326675Y413471D01*
X326625Y413486D01*
X326554Y413484D01*
X326483Y413492D01*
X326432Y413481D01*
X326380Y413480D01*
X326312Y413455D01*
X326242Y413440D01*
X326197Y413413D01*
X326149Y413395D01*
X326093Y413351D01*
X326031Y413314D01*
X325997Y413274D01*
X325957Y413242D01*
X325918Y413181D01*
X325871Y413127D01*
X325852Y413079D01*
X325824Y413035D01*
X325806Y412965D01*
X325779Y412899D01*
X325771Y412827D01*
X325763Y412796D01*
X325765Y412773D01*
X325761Y412732D01*
X325761Y410428D01*
X324272Y408939D01*
X306928Y408939D01*
X305439Y410428D01*
X305439Y414274D01*
X305436Y414294D01*
X305438Y414313D01*
X305416Y414415D01*
X305400Y414517D01*
X305390Y414534D01*
X305386Y414554D01*
X305333Y414643D01*
X305284Y414734D01*
X305270Y414748D01*
X305260Y414765D01*
X305181Y414832D01*
X305106Y414904D01*
X305088Y414912D01*
X305073Y414925D01*
X304977Y414964D01*
X304883Y415007D01*
X304863Y415009D01*
X304845Y415017D01*
X304678Y415035D01*
X253459Y415035D01*
X253369Y415021D01*
X253278Y415013D01*
X253248Y415001D01*
X253216Y414996D01*
X253136Y414953D01*
X253052Y414917D01*
X253020Y414891D01*
X252999Y414880D01*
X252977Y414857D01*
X252921Y414812D01*
X244826Y406717D01*
X244773Y406643D01*
X244713Y406574D01*
X244701Y406544D01*
X244682Y406518D01*
X244655Y406431D01*
X244621Y406346D01*
X244617Y406305D01*
X244610Y406283D01*
X244611Y406250D01*
X244603Y406179D01*
X244603Y403715D01*
X243520Y401101D01*
X241519Y399100D01*
X238905Y398017D01*
X236075Y398017D01*
X233461Y399100D01*
X231460Y401101D01*
X230377Y403715D01*
X230377Y406545D01*
X231460Y409159D01*
X233461Y411160D01*
X236075Y412243D01*
X238539Y412243D01*
X238629Y412257D01*
X238720Y412265D01*
X238750Y412277D01*
X238782Y412282D01*
X238862Y412325D01*
X238946Y412361D01*
X238978Y412387D01*
X238999Y412398D01*
X239021Y412421D01*
X239077Y412466D01*
X249776Y423165D01*
X304678Y423165D01*
X304698Y423168D01*
X304717Y423166D01*
X304819Y423188D01*
X304921Y423204D01*
X304938Y423214D01*
X304958Y423218D01*
X305047Y423271D01*
X305138Y423320D01*
X305152Y423334D01*
X305169Y423344D01*
X305236Y423423D01*
X305308Y423498D01*
X305316Y423516D01*
X305329Y423531D01*
X305368Y423627D01*
X305411Y423721D01*
X305413Y423741D01*
X305421Y423759D01*
X305439Y423926D01*
X305439Y427772D01*
X306928Y429261D01*
X324272Y429261D01*
X325761Y427772D01*
X325761Y425468D01*
X325772Y425397D01*
X325774Y425326D01*
X325792Y425277D01*
X325800Y425225D01*
X325834Y425162D01*
X325859Y425095D01*
X325891Y425054D01*
X325916Y425008D01*
X325968Y424959D01*
X326012Y424903D01*
X326056Y424874D01*
X326094Y424838D01*
X326159Y424808D01*
X326219Y424770D01*
X326270Y424757D01*
X326317Y424735D01*
X326388Y424727D01*
X326458Y424709D01*
X326510Y424714D01*
X326561Y424708D01*
X326632Y424723D01*
X326703Y424729D01*
X326751Y424749D01*
X326802Y424760D01*
X326863Y424797D01*
X326929Y424825D01*
X326985Y424870D01*
X327013Y424886D01*
X327028Y424904D01*
X327060Y424930D01*
X329844Y427714D01*
X333579Y429261D01*
X337621Y429261D01*
X341356Y427714D01*
X344214Y424856D01*
X344897Y423207D01*
X344935Y423146D01*
X344964Y423081D01*
X344999Y423042D01*
X345026Y422998D01*
X345082Y422952D01*
X345130Y422899D01*
X345176Y422874D01*
X345216Y422841D01*
X345283Y422815D01*
X345346Y422781D01*
X345397Y422772D01*
X345445Y422753D01*
X345517Y422750D01*
X345588Y422737D01*
X345639Y422745D01*
X345691Y422743D01*
X345760Y422763D01*
X345831Y422773D01*
X345877Y422797D01*
X345927Y422811D01*
X345986Y422852D01*
X346050Y422884D01*
X346087Y422922D01*
X346129Y422951D01*
X346172Y423009D01*
X346222Y423060D01*
X346257Y423123D01*
X346276Y423149D01*
X346283Y423171D01*
X346303Y423207D01*
X346986Y424856D01*
X349844Y427714D01*
X353579Y429261D01*
X357621Y429261D01*
X361356Y427714D01*
X364214Y424856D01*
X364889Y423225D01*
X364911Y423190D01*
X364925Y423150D01*
X364974Y423088D01*
X365009Y423029D01*
X365013Y423026D01*
X365019Y423016D01*
X365051Y422990D01*
X365077Y422957D01*
X365145Y422912D01*
X365174Y422888D01*
X365196Y422869D01*
X365198Y422868D01*
X365208Y422860D01*
X365247Y422844D01*
X365282Y422821D01*
X365362Y422801D01*
X365438Y422771D01*
X365480Y422770D01*
X365520Y422759D01*
X365561Y422762D01*
X365591Y422758D01*
X365594Y422758D01*
X365625Y422763D01*
X365684Y422761D01*
X365724Y422773D01*
X365766Y422775D01*
X365809Y422794D01*
X365837Y422798D01*
X365867Y422814D01*
X365920Y422829D01*
X365954Y422853D01*
X365993Y422869D01*
X366026Y422898D01*
X366054Y422913D01*
X366081Y422941D01*
X366122Y422970D01*
X366147Y423003D01*
X366179Y423031D01*
X366207Y423074D01*
X366223Y423091D01*
X366235Y423118D01*
X366264Y423160D01*
X366269Y423167D01*
X366269Y423169D01*
X366271Y423171D01*
X366910Y424425D01*
X367850Y425719D01*
X368981Y426850D01*
X370275Y427790D01*
X371700Y428516D01*
X373221Y429011D01*
X374077Y429146D01*
X374077Y419862D01*
X374080Y419842D01*
X374078Y419823D01*
X374100Y419721D01*
X374117Y419619D01*
X374126Y419602D01*
X374130Y419582D01*
X374183Y419493D01*
X374232Y419402D01*
X374246Y419388D01*
X374256Y419371D01*
X374335Y419304D01*
X374410Y419233D01*
X374428Y419224D01*
X374443Y419211D01*
X374539Y419173D01*
X374633Y419129D01*
X374653Y419127D01*
X374671Y419119D01*
X374838Y419101D01*
X376362Y419101D01*
X376382Y419104D01*
X376401Y419102D01*
X376503Y419124D01*
X376605Y419141D01*
X376622Y419150D01*
X376642Y419154D01*
X376731Y419207D01*
X376822Y419256D01*
X376836Y419270D01*
X376853Y419280D01*
X376920Y419359D01*
X376991Y419434D01*
X377000Y419452D01*
X377013Y419467D01*
X377052Y419563D01*
X377095Y419657D01*
X377097Y419677D01*
X377105Y419695D01*
X377123Y419862D01*
X377123Y429146D01*
X377979Y429011D01*
X379500Y428516D01*
X380925Y427790D01*
X382219Y426850D01*
X383350Y425719D01*
X384290Y424425D01*
X384929Y423171D01*
X384954Y423137D01*
X384971Y423099D01*
X385003Y423064D01*
X385024Y423029D01*
X385050Y423006D01*
X385075Y422973D01*
X385109Y422949D01*
X385138Y422918D01*
X385183Y422893D01*
X385211Y422869D01*
X385239Y422857D01*
X385276Y422831D01*
X385316Y422819D01*
X385353Y422799D01*
X385408Y422789D01*
X385439Y422777D01*
X385473Y422773D01*
X385512Y422761D01*
X385554Y422763D01*
X385595Y422756D01*
X385676Y422767D01*
X385758Y422770D01*
X385797Y422785D01*
X385839Y422791D01*
X385912Y422828D01*
X385988Y422857D01*
X386020Y422884D01*
X386058Y422903D01*
X386067Y422912D01*
X386069Y422913D01*
X386101Y422947D01*
X386115Y422961D01*
X386178Y423013D01*
X386201Y423048D01*
X386230Y423078D01*
X386236Y423089D01*
X386238Y423091D01*
X386244Y423104D01*
X386305Y423214D01*
X386309Y423221D01*
X386310Y423223D01*
X386311Y423225D01*
X386986Y424856D01*
X389844Y427714D01*
X393579Y429261D01*
X397621Y429261D01*
X401356Y427714D01*
X404214Y424856D01*
X405761Y421121D01*
X405761Y417079D01*
X405591Y416670D01*
X405565Y416556D01*
X405536Y416443D01*
X405537Y416436D01*
X405535Y416430D01*
X405546Y416314D01*
X405555Y416197D01*
X405558Y416192D01*
X405558Y416185D01*
X405606Y416078D01*
X405651Y415971D01*
X405656Y415965D01*
X405658Y415961D01*
X405671Y415947D01*
X405756Y415840D01*
X451041Y370556D01*
X451115Y370503D01*
X451184Y370443D01*
X451214Y370431D01*
X451240Y370412D01*
X451327Y370385D01*
X451412Y370351D01*
X451453Y370347D01*
X451475Y370340D01*
X451508Y370341D01*
X451579Y370333D01*
X454043Y370333D01*
X456657Y369250D01*
X458658Y367249D01*
X459741Y364635D01*
X459741Y361805D01*
X458658Y359191D01*
X456657Y357190D01*
X454043Y356107D01*
X451579Y356107D01*
X451489Y356093D01*
X451398Y356085D01*
X451368Y356073D01*
X451336Y356068D01*
X451256Y356025D01*
X451172Y355989D01*
X451140Y355963D01*
X451119Y355952D01*
X451097Y355929D01*
X451041Y355884D01*
X225014Y129857D01*
X224961Y129783D01*
X224901Y129714D01*
X224889Y129684D01*
X224870Y129658D01*
X224843Y129571D01*
X224809Y129486D01*
X224805Y129445D01*
X224798Y129422D01*
X224799Y129390D01*
X224791Y129319D01*
X224791Y106894D01*
X224805Y106803D01*
X224813Y106713D01*
X224825Y106683D01*
X224830Y106651D01*
X224873Y106570D01*
X224909Y106486D01*
X224935Y106454D01*
X224946Y106433D01*
X224969Y106411D01*
X225014Y106355D01*
X226756Y104613D01*
X227839Y101999D01*
X227839Y99169D01*
X226756Y96555D01*
X224755Y94554D01*
X222141Y93471D01*
X219311Y93471D01*
G37*
%LPD*%
%LPC*%
G36*
X536459Y231139D02*
X536459Y231139D01*
X532724Y232686D01*
X529866Y235544D01*
X528319Y239279D01*
X528319Y243321D01*
X529866Y247056D01*
X532724Y249914D01*
X536459Y251461D01*
X555741Y251461D01*
X559476Y249914D01*
X562334Y247056D01*
X563881Y243321D01*
X563881Y239279D01*
X562334Y235544D01*
X559476Y232686D01*
X555741Y231139D01*
X536459Y231139D01*
G37*
%LPD*%
%LPC*%
G36*
X25399Y261299D02*
X25399Y261299D01*
X25399Y262062D01*
X25396Y262082D01*
X25398Y262101D01*
X25376Y262203D01*
X25359Y262305D01*
X25350Y262322D01*
X25346Y262342D01*
X25293Y262431D01*
X25244Y262522D01*
X25230Y262536D01*
X25220Y262553D01*
X25141Y262620D01*
X25066Y262691D01*
X25048Y262700D01*
X25033Y262713D01*
X24937Y262752D01*
X24843Y262795D01*
X24823Y262797D01*
X24805Y262805D01*
X24638Y262823D01*
X15354Y262823D01*
X15489Y263679D01*
X15984Y265200D01*
X16710Y266625D01*
X17650Y267919D01*
X18781Y269050D01*
X19761Y269762D01*
X19766Y269768D01*
X19773Y269772D01*
X19852Y269855D01*
X19934Y269937D01*
X19937Y269944D01*
X19943Y269950D01*
X19991Y270054D01*
X20042Y270158D01*
X20043Y270166D01*
X20046Y270173D01*
X20059Y270287D01*
X20074Y270402D01*
X20073Y270410D01*
X20073Y270417D01*
X20049Y270530D01*
X20027Y270643D01*
X20023Y270650D01*
X20021Y270658D01*
X19962Y270757D01*
X19905Y270857D01*
X19899Y270862D01*
X19895Y270869D01*
X19807Y270944D01*
X19722Y271021D01*
X19714Y271024D01*
X19708Y271029D01*
X19601Y271072D01*
X19495Y271117D01*
X19487Y271118D01*
X19480Y271121D01*
X19313Y271139D01*
X16728Y271139D01*
X15239Y272628D01*
X15239Y289972D01*
X16728Y291461D01*
X34072Y291461D01*
X35561Y289972D01*
X35561Y272628D01*
X34072Y271139D01*
X31487Y271139D01*
X31479Y271138D01*
X31471Y271139D01*
X31357Y271118D01*
X31244Y271100D01*
X31237Y271096D01*
X31229Y271094D01*
X31128Y271038D01*
X31027Y270984D01*
X31021Y270979D01*
X31014Y270975D01*
X30936Y270890D01*
X30857Y270806D01*
X30854Y270799D01*
X30848Y270793D01*
X30802Y270687D01*
X30754Y270583D01*
X30753Y270575D01*
X30750Y270568D01*
X30739Y270453D01*
X30727Y270339D01*
X30728Y270331D01*
X30727Y270323D01*
X30754Y270210D01*
X30779Y270098D01*
X30783Y270091D01*
X30785Y270084D01*
X30846Y269985D01*
X30905Y269887D01*
X30911Y269882D01*
X30915Y269875D01*
X31039Y269762D01*
X32019Y269050D01*
X33150Y267919D01*
X34090Y266625D01*
X34816Y265200D01*
X35311Y263679D01*
X35446Y262823D01*
X26162Y262823D01*
X26142Y262820D01*
X26123Y262822D01*
X26021Y262800D01*
X25919Y262783D01*
X25902Y262774D01*
X25882Y262770D01*
X25793Y262717D01*
X25702Y262668D01*
X25688Y262654D01*
X25671Y262644D01*
X25604Y262565D01*
X25533Y262490D01*
X25524Y262472D01*
X25511Y262457D01*
X25473Y262361D01*
X25429Y262267D01*
X25427Y262247D01*
X25419Y262229D01*
X25401Y262062D01*
X25401Y261299D01*
X25399Y261299D01*
G37*
%LPD*%
%LPC*%
G36*
X23379Y191139D02*
X23379Y191139D01*
X19644Y192686D01*
X16786Y195544D01*
X15239Y199279D01*
X15239Y203321D01*
X16786Y207056D01*
X19644Y209914D01*
X21275Y210589D01*
X21310Y210611D01*
X21350Y210625D01*
X21414Y210676D01*
X21484Y210719D01*
X21510Y210751D01*
X21543Y210777D01*
X21588Y210845D01*
X21640Y210908D01*
X21656Y210947D01*
X21679Y210982D01*
X21699Y211061D01*
X21729Y211138D01*
X21730Y211180D01*
X21741Y211220D01*
X21736Y211302D01*
X21739Y211384D01*
X21727Y211424D01*
X21725Y211466D01*
X21693Y211541D01*
X21671Y211620D01*
X21647Y211654D01*
X21631Y211693D01*
X21577Y211755D01*
X21530Y211822D01*
X21497Y211847D01*
X21469Y211879D01*
X21340Y211964D01*
X21333Y211969D01*
X21331Y211969D01*
X21329Y211971D01*
X20075Y212610D01*
X18781Y213550D01*
X17650Y214681D01*
X16710Y215975D01*
X15984Y217400D01*
X15489Y218921D01*
X15354Y219777D01*
X24638Y219777D01*
X24658Y219780D01*
X24677Y219778D01*
X24779Y219800D01*
X24881Y219817D01*
X24898Y219826D01*
X24918Y219830D01*
X25007Y219883D01*
X25098Y219932D01*
X25112Y219946D01*
X25129Y219956D01*
X25196Y220035D01*
X25267Y220110D01*
X25276Y220128D01*
X25289Y220143D01*
X25327Y220239D01*
X25371Y220333D01*
X25373Y220353D01*
X25381Y220371D01*
X25399Y220538D01*
X25399Y221301D01*
X25401Y221301D01*
X25401Y220538D01*
X25404Y220518D01*
X25402Y220499D01*
X25424Y220397D01*
X25441Y220295D01*
X25450Y220278D01*
X25454Y220258D01*
X25507Y220169D01*
X25556Y220078D01*
X25570Y220064D01*
X25580Y220047D01*
X25659Y219980D01*
X25734Y219909D01*
X25752Y219900D01*
X25767Y219887D01*
X25863Y219848D01*
X25957Y219805D01*
X25977Y219803D01*
X25995Y219795D01*
X26162Y219777D01*
X35446Y219777D01*
X35311Y218921D01*
X34816Y217400D01*
X34090Y215975D01*
X33150Y214681D01*
X32019Y213550D01*
X30725Y212610D01*
X29471Y211971D01*
X29437Y211946D01*
X29399Y211929D01*
X29339Y211874D01*
X29273Y211825D01*
X29249Y211791D01*
X29218Y211762D01*
X29178Y211691D01*
X29131Y211624D01*
X29119Y211584D01*
X29099Y211547D01*
X29085Y211466D01*
X29061Y211388D01*
X29063Y211346D01*
X29056Y211305D01*
X29067Y211224D01*
X29070Y211142D01*
X29085Y211103D01*
X29091Y211061D01*
X29128Y210988D01*
X29157Y210912D01*
X29184Y210880D01*
X29203Y210842D01*
X29261Y210785D01*
X29313Y210722D01*
X29348Y210699D01*
X29378Y210670D01*
X29514Y210595D01*
X29521Y210591D01*
X29523Y210590D01*
X29525Y210589D01*
X31156Y209914D01*
X34014Y207056D01*
X35561Y203321D01*
X35561Y199279D01*
X34014Y195544D01*
X31156Y192686D01*
X27421Y191139D01*
X23379Y191139D01*
G37*
%LPD*%
%LPC*%
G36*
X23031Y13489D02*
X23031Y13489D01*
X18653Y15303D01*
X15303Y18653D01*
X13489Y23031D01*
X13489Y27769D01*
X15303Y32147D01*
X18653Y35497D01*
X23031Y37311D01*
X27769Y37311D01*
X32147Y35497D01*
X35497Y32147D01*
X37311Y27769D01*
X37311Y23031D01*
X35497Y18653D01*
X32147Y15303D01*
X27769Y13489D01*
X23031Y13489D01*
G37*
%LPD*%
%LPC*%
G36*
X547623Y268223D02*
X547623Y268223D01*
X547623Y276861D01*
X554520Y276861D01*
X556099Y276611D01*
X557620Y276116D01*
X559045Y275390D01*
X560339Y274450D01*
X561470Y273319D01*
X562410Y272025D01*
X563136Y270600D01*
X563631Y269079D01*
X563766Y268223D01*
X547623Y268223D01*
G37*
%LPD*%
%LPC*%
G36*
X528434Y268223D02*
X528434Y268223D01*
X528569Y269079D01*
X529064Y270600D01*
X529790Y272025D01*
X530730Y273319D01*
X531861Y274450D01*
X533155Y275390D01*
X534580Y276116D01*
X536101Y276611D01*
X537680Y276861D01*
X544577Y276861D01*
X544577Y268223D01*
X528434Y268223D01*
G37*
%LPD*%
%LPC*%
G36*
X547623Y256539D02*
X547623Y256539D01*
X547623Y265177D01*
X563766Y265177D01*
X563631Y264321D01*
X563136Y262800D01*
X562410Y261375D01*
X561470Y260081D01*
X560339Y258950D01*
X559045Y258010D01*
X557620Y257284D01*
X556099Y256789D01*
X554520Y256539D01*
X547623Y256539D01*
G37*
%LPD*%
%LPC*%
G36*
X537680Y256539D02*
X537680Y256539D01*
X536101Y256789D01*
X534580Y257284D01*
X533155Y258010D01*
X531861Y258950D01*
X530730Y260081D01*
X529790Y261375D01*
X529064Y262800D01*
X528569Y264321D01*
X528434Y265177D01*
X544577Y265177D01*
X544577Y256539D01*
X537680Y256539D01*
G37*
%LPD*%
%LPC*%
G36*
X26923Y242823D02*
X26923Y242823D01*
X26923Y259777D01*
X35446Y259777D01*
X35311Y258921D01*
X34816Y257400D01*
X34090Y255975D01*
X33150Y254681D01*
X32019Y253550D01*
X30725Y252610D01*
X29486Y251978D01*
X29476Y251971D01*
X29465Y251967D01*
X29378Y251899D01*
X29288Y251833D01*
X29281Y251823D01*
X29271Y251815D01*
X29211Y251723D01*
X29146Y251631D01*
X29143Y251620D01*
X29136Y251610D01*
X29108Y251502D01*
X29076Y251396D01*
X29077Y251384D01*
X29074Y251372D01*
X29081Y251261D01*
X29085Y251150D01*
X29090Y251139D01*
X29090Y251127D01*
X29133Y251024D01*
X29172Y250920D01*
X29180Y250910D01*
X29184Y250899D01*
X29258Y250815D01*
X29328Y250729D01*
X29338Y250723D01*
X29346Y250714D01*
X29486Y250622D01*
X30725Y249990D01*
X32019Y249050D01*
X33150Y247919D01*
X34090Y246625D01*
X34816Y245200D01*
X35311Y243679D01*
X35446Y242823D01*
X26923Y242823D01*
G37*
%LPD*%
%LPC*%
G36*
X26923Y222823D02*
X26923Y222823D01*
X26923Y239777D01*
X35446Y239777D01*
X35311Y238921D01*
X34816Y237400D01*
X34090Y235975D01*
X33150Y234681D01*
X32019Y233550D01*
X30725Y232610D01*
X29486Y231978D01*
X29476Y231971D01*
X29465Y231967D01*
X29378Y231899D01*
X29288Y231833D01*
X29281Y231823D01*
X29271Y231816D01*
X29210Y231722D01*
X29146Y231631D01*
X29143Y231620D01*
X29136Y231610D01*
X29108Y231502D01*
X29076Y231396D01*
X29077Y231384D01*
X29074Y231372D01*
X29081Y231261D01*
X29085Y231150D01*
X29090Y231139D01*
X29090Y231127D01*
X29133Y231024D01*
X29172Y230920D01*
X29180Y230910D01*
X29184Y230899D01*
X29257Y230816D01*
X29328Y230729D01*
X29338Y230723D01*
X29346Y230714D01*
X29486Y230622D01*
X30725Y229990D01*
X32019Y229050D01*
X33150Y227919D01*
X34090Y226625D01*
X34816Y225200D01*
X35311Y223679D01*
X35446Y222823D01*
X26923Y222823D01*
G37*
%LPD*%
%LPC*%
G36*
X15354Y222823D02*
X15354Y222823D01*
X15489Y223679D01*
X15984Y225200D01*
X16710Y226625D01*
X17650Y227919D01*
X18781Y229050D01*
X20075Y229990D01*
X21314Y230622D01*
X21324Y230629D01*
X21335Y230633D01*
X21422Y230701D01*
X21512Y230767D01*
X21519Y230777D01*
X21529Y230785D01*
X21589Y230877D01*
X21654Y230969D01*
X21657Y230980D01*
X21664Y230990D01*
X21692Y231098D01*
X21724Y231204D01*
X21723Y231216D01*
X21726Y231228D01*
X21719Y231339D01*
X21715Y231450D01*
X21710Y231461D01*
X21710Y231473D01*
X21667Y231576D01*
X21628Y231680D01*
X21620Y231690D01*
X21616Y231701D01*
X21542Y231785D01*
X21472Y231871D01*
X21462Y231877D01*
X21454Y231886D01*
X21314Y231978D01*
X20075Y232610D01*
X18781Y233550D01*
X17650Y234681D01*
X16710Y235975D01*
X15984Y237400D01*
X15489Y238921D01*
X15354Y239777D01*
X23877Y239777D01*
X23877Y222823D01*
X15354Y222823D01*
G37*
%LPD*%
%LPC*%
G36*
X15354Y242823D02*
X15354Y242823D01*
X15489Y243679D01*
X15984Y245200D01*
X16710Y246625D01*
X17650Y247919D01*
X18781Y249050D01*
X20075Y249990D01*
X21314Y250622D01*
X21324Y250629D01*
X21335Y250633D01*
X21422Y250701D01*
X21512Y250767D01*
X21519Y250777D01*
X21529Y250784D01*
X21590Y250878D01*
X21654Y250969D01*
X21657Y250980D01*
X21664Y250990D01*
X21692Y251097D01*
X21724Y251204D01*
X21723Y251216D01*
X21726Y251228D01*
X21719Y251339D01*
X21715Y251450D01*
X21710Y251461D01*
X21710Y251473D01*
X21667Y251576D01*
X21628Y251680D01*
X21620Y251690D01*
X21616Y251701D01*
X21543Y251784D01*
X21472Y251871D01*
X21462Y251877D01*
X21454Y251886D01*
X21314Y251978D01*
X20075Y252610D01*
X18781Y253550D01*
X17650Y254681D01*
X16710Y255975D01*
X15984Y257400D01*
X15489Y258921D01*
X15354Y259777D01*
X23877Y259777D01*
X23877Y242823D01*
X15354Y242823D01*
G37*
%LPD*%
%LPC*%
G36*
X546099Y266699D02*
X546099Y266699D01*
X546099Y266701D01*
X546101Y266701D01*
X546101Y266699D01*
X546099Y266699D01*
G37*
%LPD*%
%LPC*%
G36*
X25399Y241299D02*
X25399Y241299D01*
X25399Y241301D01*
X25401Y241301D01*
X25401Y241299D01*
X25399Y241299D01*
G37*
%LPD*%
D10*
X25400Y281300D03*
D11*
X25400Y241300D03*
X25400Y261300D03*
X25400Y221300D03*
X25400Y201300D03*
D10*
X315600Y419100D03*
D11*
X355600Y419100D03*
X335600Y419100D03*
X375600Y419100D03*
X395600Y419100D03*
D12*
X538480Y241300D02*
X553720Y241300D01*
X553720Y266700D02*
X538480Y266700D01*
D13*
X114300Y330200D03*
D14*
X195580Y394970D03*
D15*
X251460Y419100D02*
X315600Y419100D01*
X251460Y419100D02*
X237490Y405130D01*
D16*
X237490Y405130D03*
D15*
X396748Y419100D02*
X452628Y363220D01*
X396748Y419100D02*
X395600Y419100D01*
X220726Y131318D02*
X220726Y100584D01*
X220726Y131318D02*
X452628Y363220D01*
D16*
X452628Y363220D03*
X220726Y100584D03*
M02*
