G04 EAGLE Gerber RS-274X export*
G75*
%MOMM*%
%FSLAX34Y34*%
%LPD*%
%IN*%
%IPPOS*%
%AMOC8*
5,1,8,0,0,1.08239X$1,22.5*%
G01*
%ADD10C,0.254000*%


D10*
X0Y0D02*
X584000Y0D01*
X584000Y479300D01*
X0Y479300D01*
X0Y0D01*
X27150Y25228D02*
X27083Y24890D01*
X26951Y24571D01*
X26759Y24284D01*
X26516Y24041D01*
X26229Y23849D01*
X25910Y23717D01*
X25572Y23650D01*
X25228Y23650D01*
X24890Y23717D01*
X24571Y23849D01*
X24284Y24041D01*
X24041Y24284D01*
X23849Y24571D01*
X23717Y24890D01*
X23650Y25228D01*
X23650Y25572D01*
X23717Y25910D01*
X23849Y26229D01*
X24041Y26516D01*
X24284Y26759D01*
X24571Y26951D01*
X24890Y27083D01*
X25228Y27150D01*
X25572Y27150D01*
X25910Y27083D01*
X26229Y26951D01*
X26516Y26759D01*
X26759Y26516D01*
X26951Y26229D01*
X27083Y25910D01*
X27150Y25572D01*
X27150Y25228D01*
X560550Y457028D02*
X560483Y456690D01*
X560351Y456371D01*
X560159Y456084D01*
X559916Y455841D01*
X559629Y455649D01*
X559310Y455517D01*
X558972Y455450D01*
X558628Y455450D01*
X558290Y455517D01*
X557971Y455649D01*
X557684Y455841D01*
X557441Y456084D01*
X557249Y456371D01*
X557117Y456690D01*
X557050Y457028D01*
X557050Y457372D01*
X557117Y457710D01*
X557249Y458029D01*
X557441Y458316D01*
X557684Y458559D01*
X557971Y458751D01*
X558290Y458883D01*
X558628Y458950D01*
X558972Y458950D01*
X559310Y458883D01*
X559629Y458751D01*
X559916Y458559D01*
X560159Y458316D01*
X560351Y458029D01*
X560483Y457710D01*
X560550Y457372D01*
X560550Y457028D01*
M02*
