%TF.GenerationSoftware,KiCad,Pcbnew,5.1.10*%
%TF.CreationDate,2021-06-12T19:58:10-07:00*%
%TF.ProjectId,Instrumentation-Amplifier,496e7374-7275-46d6-956e-746174696f6e,2.0*%
%TF.SameCoordinates,Original*%
%TF.FileFunction,Paste,Top*%
%TF.FilePolarity,Positive*%
%FSLAX46Y46*%
G04 Gerber Fmt 4.6, Leading zero omitted, Abs format (unit mm)*
G04 Created by KiCad (PCBNEW 5.1.10) date 2021-06-12 19:58:10*
%MOMM*%
%LPD*%
G01*
G04 APERTURE LIST*
%ADD10C,0.010000*%
%ADD11R,1.000000X1.100000*%
%ADD12R,1.100000X1.000000*%
%ADD13R,0.965200X1.295400*%
%ADD14R,0.940000X1.020000*%
%ADD15R,0.990000X3.790000*%
%ADD16R,1.981200X0.558800*%
G04 APERTURE END LIST*
D10*
%TO.C,U1*%
G36*
X121980000Y-108675000D02*
G01*
X121980000Y-107225000D01*
X123240000Y-107225000D01*
X123240000Y-108675000D01*
X121980000Y-108675000D01*
G37*
X121980000Y-108675000D02*
X121980000Y-107225000D01*
X123240000Y-107225000D01*
X123240000Y-108675000D01*
X121980000Y-108675000D01*
G36*
X120180000Y-108675000D02*
G01*
X120180000Y-107225000D01*
X121440000Y-107225000D01*
X121440000Y-108675000D01*
X120180000Y-108675000D01*
G37*
X120180000Y-108675000D02*
X120180000Y-107225000D01*
X121440000Y-107225000D01*
X121440000Y-108675000D01*
X120180000Y-108675000D01*
G36*
X118380000Y-108675000D02*
G01*
X118380000Y-107225000D01*
X119640000Y-107225000D01*
X119640000Y-108675000D01*
X118380000Y-108675000D01*
G37*
X118380000Y-108675000D02*
X118380000Y-107225000D01*
X119640000Y-107225000D01*
X119640000Y-108675000D01*
X118380000Y-108675000D01*
G36*
X112980000Y-108675000D02*
G01*
X112980000Y-107225000D01*
X114240000Y-107225000D01*
X114240000Y-108675000D01*
X112980000Y-108675000D01*
G37*
X112980000Y-108675000D02*
X112980000Y-107225000D01*
X114240000Y-107225000D01*
X114240000Y-108675000D01*
X112980000Y-108675000D01*
G36*
X114780000Y-108675000D02*
G01*
X114780000Y-107225000D01*
X116040000Y-107225000D01*
X116040000Y-108675000D01*
X114780000Y-108675000D01*
G37*
X114780000Y-108675000D02*
X114780000Y-107225000D01*
X116040000Y-107225000D01*
X116040000Y-108675000D01*
X114780000Y-108675000D01*
G36*
X116580000Y-108675000D02*
G01*
X116580000Y-107225000D01*
X117840000Y-107225000D01*
X117840000Y-108675000D01*
X116580000Y-108675000D01*
G37*
X116580000Y-108675000D02*
X116580000Y-107225000D01*
X117840000Y-107225000D01*
X117840000Y-108675000D01*
X116580000Y-108675000D01*
G36*
X121980000Y-103595000D02*
G01*
X121980000Y-102145000D01*
X123240000Y-102145000D01*
X123240000Y-103595000D01*
X121980000Y-103595000D01*
G37*
X121980000Y-103595000D02*
X121980000Y-102145000D01*
X123240000Y-102145000D01*
X123240000Y-103595000D01*
X121980000Y-103595000D01*
G36*
X120180000Y-103595000D02*
G01*
X120180000Y-102145000D01*
X121440000Y-102145000D01*
X121440000Y-103595000D01*
X120180000Y-103595000D01*
G37*
X120180000Y-103595000D02*
X120180000Y-102145000D01*
X121440000Y-102145000D01*
X121440000Y-103595000D01*
X120180000Y-103595000D01*
G36*
X118380000Y-103595000D02*
G01*
X118380000Y-102145000D01*
X119640000Y-102145000D01*
X119640000Y-103595000D01*
X118380000Y-103595000D01*
G37*
X118380000Y-103595000D02*
X118380000Y-102145000D01*
X119640000Y-102145000D01*
X119640000Y-103595000D01*
X118380000Y-103595000D01*
G36*
X112980000Y-103595000D02*
G01*
X112980000Y-102145000D01*
X114240000Y-102145000D01*
X114240000Y-103595000D01*
X112980000Y-103595000D01*
G37*
X112980000Y-103595000D02*
X112980000Y-102145000D01*
X114240000Y-102145000D01*
X114240000Y-103595000D01*
X112980000Y-103595000D01*
G36*
X114780000Y-103595000D02*
G01*
X114780000Y-102145000D01*
X116040000Y-102145000D01*
X116040000Y-103595000D01*
X114780000Y-103595000D01*
G37*
X114780000Y-103595000D02*
X114780000Y-102145000D01*
X116040000Y-102145000D01*
X116040000Y-103595000D01*
X114780000Y-103595000D01*
G36*
X116580000Y-103595000D02*
G01*
X116580000Y-102145000D01*
X117840000Y-102145000D01*
X117840000Y-103595000D01*
X116580000Y-103595000D01*
G37*
X116580000Y-103595000D02*
X116580000Y-102145000D01*
X117840000Y-102145000D01*
X117840000Y-103595000D01*
X116580000Y-103595000D01*
G36*
X121980000Y-106135000D02*
G01*
X121980000Y-104685000D01*
X123240000Y-104685000D01*
X123240000Y-106135000D01*
X121980000Y-106135000D01*
G37*
X121980000Y-106135000D02*
X121980000Y-104685000D01*
X123240000Y-104685000D01*
X123240000Y-106135000D01*
X121980000Y-106135000D01*
G36*
X120180000Y-106135000D02*
G01*
X120180000Y-104685000D01*
X121440000Y-104685000D01*
X121440000Y-106135000D01*
X120180000Y-106135000D01*
G37*
X120180000Y-106135000D02*
X120180000Y-104685000D01*
X121440000Y-104685000D01*
X121440000Y-106135000D01*
X120180000Y-106135000D01*
G36*
X118380000Y-106135000D02*
G01*
X118380000Y-104685000D01*
X119640000Y-104685000D01*
X119640000Y-106135000D01*
X118380000Y-106135000D01*
G37*
X118380000Y-106135000D02*
X118380000Y-104685000D01*
X119640000Y-104685000D01*
X119640000Y-106135000D01*
X118380000Y-106135000D01*
G36*
X112980000Y-106135000D02*
G01*
X112980000Y-104685000D01*
X114240000Y-104685000D01*
X114240000Y-106135000D01*
X112980000Y-106135000D01*
G37*
X112980000Y-106135000D02*
X112980000Y-104685000D01*
X114240000Y-104685000D01*
X114240000Y-106135000D01*
X112980000Y-106135000D01*
G36*
X114780000Y-106135000D02*
G01*
X114780000Y-104685000D01*
X116040000Y-104685000D01*
X116040000Y-106135000D01*
X114780000Y-106135000D01*
G37*
X114780000Y-106135000D02*
X114780000Y-104685000D01*
X116040000Y-104685000D01*
X116040000Y-106135000D01*
X114780000Y-106135000D01*
G36*
X116580000Y-106135000D02*
G01*
X116580000Y-104685000D01*
X117840000Y-104685000D01*
X117840000Y-106135000D01*
X116580000Y-106135000D01*
G37*
X116580000Y-106135000D02*
X116580000Y-104685000D01*
X117840000Y-104685000D01*
X117840000Y-106135000D01*
X116580000Y-106135000D01*
%TD*%
D11*
%TO.C,C1*%
X109220000Y-113870000D03*
X109220000Y-115570000D03*
%TD*%
D12*
%TO.C,C2*%
X112180000Y-125222000D03*
X113880000Y-125222000D03*
%TD*%
D13*
%TO.C,D1*%
X114554000Y-121920000D03*
X111506000Y-121920000D03*
%TD*%
D14*
%TO.C,R1*%
X121694000Y-122174000D03*
X120114000Y-122174000D03*
%TD*%
%TO.C,R2*%
X125250000Y-130810000D03*
X123670000Y-130810000D03*
%TD*%
D15*
%TO.C,U1*%
X120650000Y-116290000D03*
X118110000Y-116290000D03*
X115570000Y-116290000D03*
%TD*%
D16*
%TO.C,U2*%
X123621800Y-124841000D03*
X123621800Y-126111000D03*
X123621800Y-127381000D03*
X123621800Y-128651000D03*
X118694200Y-128651000D03*
X118694200Y-127381000D03*
X118694200Y-126111000D03*
X118694200Y-124841000D03*
%TD*%
M02*
