%TF.GenerationSoftware,KiCad,Pcbnew,5.1.10*%
%TF.CreationDate,2021-06-12T19:58:10-07:00*%
%TF.ProjectId,Instrumentation-Amplifier,496e7374-7275-46d6-956e-746174696f6e,2.0*%
%TF.SameCoordinates,Original*%
%TF.FileFunction,Legend,Top*%
%TF.FilePolarity,Positive*%
%FSLAX46Y46*%
G04 Gerber Fmt 4.6, Leading zero omitted, Abs format (unit mm)*
G04 Created by KiCad (PCBNEW 5.1.10) date 2021-06-12 19:58:10*
%MOMM*%
%LPD*%
G01*
G04 APERTURE LIST*
%ADD10C,0.076200*%
%ADD11C,0.101600*%
%ADD12C,0.010000*%
%ADD13C,0.127000*%
%ADD14C,0.120000*%
%ADD15C,0.200000*%
%ADD16C,0.400000*%
%ADD17C,0.015000*%
%ADD18C,0.150000*%
G04 APERTURE END LIST*
D10*
X105990571Y-102083809D02*
X105748666Y-102083809D01*
X105748666Y-101575809D01*
X106256666Y-101575809D02*
X106305047Y-101575809D01*
X106353428Y-101600000D01*
X106377619Y-101624190D01*
X106401809Y-101672571D01*
X106426000Y-101769333D01*
X106426000Y-101890285D01*
X106401809Y-101987047D01*
X106377619Y-102035428D01*
X106353428Y-102059619D01*
X106305047Y-102083809D01*
X106256666Y-102083809D01*
X106208285Y-102059619D01*
X106184095Y-102035428D01*
X106159904Y-101987047D01*
X106135714Y-101890285D01*
X106135714Y-101769333D01*
X106159904Y-101672571D01*
X106184095Y-101624190D01*
X106208285Y-101600000D01*
X106256666Y-101575809D01*
X106740476Y-101575809D02*
X106788857Y-101575809D01*
X106837238Y-101600000D01*
X106861428Y-101624190D01*
X106885619Y-101672571D01*
X106909809Y-101769333D01*
X106909809Y-101890285D01*
X106885619Y-101987047D01*
X106861428Y-102035428D01*
X106837238Y-102059619D01*
X106788857Y-102083809D01*
X106740476Y-102083809D01*
X106692095Y-102059619D01*
X106667904Y-102035428D01*
X106643714Y-101987047D01*
X106619523Y-101890285D01*
X106619523Y-101769333D01*
X106643714Y-101672571D01*
X106667904Y-101624190D01*
X106692095Y-101600000D01*
X106740476Y-101575809D01*
X107224285Y-101575809D02*
X107272666Y-101575809D01*
X107321047Y-101600000D01*
X107345238Y-101624190D01*
X107369428Y-101672571D01*
X107393619Y-101769333D01*
X107393619Y-101890285D01*
X107369428Y-101987047D01*
X107345238Y-102035428D01*
X107321047Y-102059619D01*
X107272666Y-102083809D01*
X107224285Y-102083809D01*
X107175904Y-102059619D01*
X107151714Y-102035428D01*
X107127523Y-101987047D01*
X107103333Y-101890285D01*
X107103333Y-101769333D01*
X107127523Y-101672571D01*
X107151714Y-101624190D01*
X107175904Y-101600000D01*
X107224285Y-101575809D01*
X107877428Y-102083809D02*
X107587142Y-102083809D01*
X107732285Y-102083809D02*
X107732285Y-101575809D01*
X107683904Y-101648380D01*
X107635523Y-101696761D01*
X107587142Y-101720952D01*
X108772476Y-102083809D02*
X108603142Y-101841904D01*
X108482190Y-102083809D02*
X108482190Y-101575809D01*
X108675714Y-101575809D01*
X108724095Y-101600000D01*
X108748285Y-101624190D01*
X108772476Y-101672571D01*
X108772476Y-101745142D01*
X108748285Y-101793523D01*
X108724095Y-101817714D01*
X108675714Y-101841904D01*
X108482190Y-101841904D01*
X109183714Y-102059619D02*
X109135333Y-102083809D01*
X109038571Y-102083809D01*
X108990190Y-102059619D01*
X108966000Y-102011238D01*
X108966000Y-101817714D01*
X108990190Y-101769333D01*
X109038571Y-101745142D01*
X109135333Y-101745142D01*
X109183714Y-101769333D01*
X109207904Y-101817714D01*
X109207904Y-101866095D01*
X108966000Y-101914476D01*
X109377238Y-101745142D02*
X109498190Y-102083809D01*
X109619142Y-101745142D01*
X110175523Y-101624190D02*
X110199714Y-101600000D01*
X110248095Y-101575809D01*
X110369047Y-101575809D01*
X110417428Y-101600000D01*
X110441619Y-101624190D01*
X110465809Y-101672571D01*
X110465809Y-101720952D01*
X110441619Y-101793523D01*
X110151333Y-102083809D01*
X110465809Y-102083809D01*
X110683523Y-102035428D02*
X110707714Y-102059619D01*
X110683523Y-102083809D01*
X110659333Y-102059619D01*
X110683523Y-102035428D01*
X110683523Y-102083809D01*
X111022190Y-101575809D02*
X111070571Y-101575809D01*
X111118952Y-101600000D01*
X111143142Y-101624190D01*
X111167333Y-101672571D01*
X111191523Y-101769333D01*
X111191523Y-101890285D01*
X111167333Y-101987047D01*
X111143142Y-102035428D01*
X111118952Y-102059619D01*
X111070571Y-102083809D01*
X111022190Y-102083809D01*
X110973809Y-102059619D01*
X110949619Y-102035428D01*
X110925428Y-101987047D01*
X110901238Y-101890285D01*
X110901238Y-101769333D01*
X110925428Y-101672571D01*
X110949619Y-101624190D01*
X110973809Y-101600000D01*
X111022190Y-101575809D01*
D11*
X121085428Y-132388428D02*
X121666000Y-132388428D01*
X121375714Y-132678714D02*
X121375714Y-132098142D01*
X122428000Y-132678714D02*
X121992571Y-132678714D01*
X122210285Y-132678714D02*
X122210285Y-131916714D01*
X122137714Y-132025571D01*
X122065142Y-132098142D01*
X121992571Y-132134428D01*
X122718285Y-131989285D02*
X122754571Y-131953000D01*
X122827142Y-131916714D01*
X123008571Y-131916714D01*
X123081142Y-131953000D01*
X123117428Y-131989285D01*
X123153714Y-132061857D01*
X123153714Y-132134428D01*
X123117428Y-132243285D01*
X122682000Y-132678714D01*
X123153714Y-132678714D01*
X123371428Y-131916714D02*
X123625428Y-132678714D01*
X123879428Y-131916714D01*
X116894428Y-130410857D02*
X116894428Y-129830285D01*
X117184714Y-130120571D02*
X116604142Y-130120571D01*
X117184714Y-129467428D02*
X116422714Y-129467428D01*
X117184714Y-129104571D02*
X116422714Y-129104571D01*
X117184714Y-128669142D01*
X116422714Y-128669142D01*
X114354428Y-130410857D02*
X114354428Y-129830285D01*
X114644714Y-129467428D02*
X113882714Y-129467428D01*
X114644714Y-129104571D02*
X113882714Y-129104571D01*
X114644714Y-128669142D01*
X113882714Y-128669142D01*
X111379000Y-129866571D02*
X111342714Y-129939142D01*
X111342714Y-130048000D01*
X111379000Y-130156857D01*
X111451571Y-130229428D01*
X111524142Y-130265714D01*
X111669285Y-130302000D01*
X111778142Y-130302000D01*
X111923285Y-130265714D01*
X111995857Y-130229428D01*
X112068428Y-130156857D01*
X112104714Y-130048000D01*
X112104714Y-129975428D01*
X112068428Y-129866571D01*
X112032142Y-129830285D01*
X111778142Y-129830285D01*
X111778142Y-129975428D01*
X112104714Y-129503714D02*
X111342714Y-129503714D01*
X112104714Y-129068285D01*
X111342714Y-129068285D01*
X112104714Y-128705428D02*
X111342714Y-128705428D01*
X111342714Y-128524000D01*
X111379000Y-128415142D01*
X111451571Y-128342571D01*
X111524142Y-128306285D01*
X111669285Y-128270000D01*
X111778142Y-128270000D01*
X111923285Y-128306285D01*
X111995857Y-128342571D01*
X112068428Y-128415142D01*
X112104714Y-128524000D01*
X112104714Y-128705428D01*
X108893428Y-126619000D02*
X108820857Y-126582714D01*
X108712000Y-126582714D01*
X108603142Y-126619000D01*
X108530571Y-126691571D01*
X108494285Y-126764142D01*
X108458000Y-126909285D01*
X108458000Y-127018142D01*
X108494285Y-127163285D01*
X108530571Y-127235857D01*
X108603142Y-127308428D01*
X108712000Y-127344714D01*
X108784571Y-127344714D01*
X108893428Y-127308428D01*
X108929714Y-127272142D01*
X108929714Y-127018142D01*
X108784571Y-127018142D01*
X109256285Y-127344714D02*
X109256285Y-126582714D01*
X109691714Y-127344714D01*
X109691714Y-126582714D01*
X110054571Y-127344714D02*
X110054571Y-126582714D01*
X110236000Y-126582714D01*
X110344857Y-126619000D01*
X110417428Y-126691571D01*
X110453714Y-126764142D01*
X110490000Y-126909285D01*
X110490000Y-127018142D01*
X110453714Y-127163285D01*
X110417428Y-127235857D01*
X110344857Y-127308428D01*
X110236000Y-127344714D01*
X110054571Y-127344714D01*
X108893428Y-124079000D02*
X108820857Y-124042714D01*
X108712000Y-124042714D01*
X108603142Y-124079000D01*
X108530571Y-124151571D01*
X108494285Y-124224142D01*
X108458000Y-124369285D01*
X108458000Y-124478142D01*
X108494285Y-124623285D01*
X108530571Y-124695857D01*
X108603142Y-124768428D01*
X108712000Y-124804714D01*
X108784571Y-124804714D01*
X108893428Y-124768428D01*
X108929714Y-124732142D01*
X108929714Y-124478142D01*
X108784571Y-124478142D01*
X109256285Y-124804714D02*
X109256285Y-124042714D01*
X109691714Y-124804714D01*
X109691714Y-124042714D01*
X110054571Y-124804714D02*
X110054571Y-124042714D01*
X110236000Y-124042714D01*
X110344857Y-124079000D01*
X110417428Y-124151571D01*
X110453714Y-124224142D01*
X110490000Y-124369285D01*
X110490000Y-124478142D01*
X110453714Y-124623285D01*
X110417428Y-124695857D01*
X110344857Y-124768428D01*
X110236000Y-124804714D01*
X110054571Y-124804714D01*
X108312857Y-121502714D02*
X108566857Y-122264714D01*
X108820857Y-121502714D01*
X109183714Y-122264714D02*
X109111142Y-122228428D01*
X109074857Y-122192142D01*
X109038571Y-122119571D01*
X109038571Y-121901857D01*
X109074857Y-121829285D01*
X109111142Y-121793000D01*
X109183714Y-121756714D01*
X109292571Y-121756714D01*
X109365142Y-121793000D01*
X109401428Y-121829285D01*
X109437714Y-121901857D01*
X109437714Y-122119571D01*
X109401428Y-122192142D01*
X109365142Y-122228428D01*
X109292571Y-122264714D01*
X109183714Y-122264714D01*
X110090857Y-121756714D02*
X110090857Y-122264714D01*
X109764285Y-121756714D02*
X109764285Y-122155857D01*
X109800571Y-122228428D01*
X109873142Y-122264714D01*
X109982000Y-122264714D01*
X110054571Y-122228428D01*
X110090857Y-122192142D01*
X110344857Y-121756714D02*
X110635142Y-121756714D01*
X110453714Y-121502714D02*
X110453714Y-122155857D01*
X110490000Y-122228428D01*
X110562571Y-122264714D01*
X110635142Y-122264714D01*
X108294714Y-119434428D02*
X108875285Y-119434428D01*
X108585000Y-119724714D02*
X108585000Y-119144142D01*
X109129285Y-118962714D02*
X109383285Y-119724714D01*
X109637285Y-118962714D01*
X109855000Y-119688428D02*
X109927571Y-119724714D01*
X110072714Y-119724714D01*
X110145285Y-119688428D01*
X110181571Y-119615857D01*
X110181571Y-119579571D01*
X110145285Y-119507000D01*
X110072714Y-119470714D01*
X109963857Y-119470714D01*
X109891285Y-119434428D01*
X109855000Y-119361857D01*
X109855000Y-119325571D01*
X109891285Y-119253000D01*
X109963857Y-119216714D01*
X110072714Y-119216714D01*
X110145285Y-119253000D01*
D12*
%TO.C,G\u002A\u002A\u002A*%
G36*
X106372698Y-106026937D02*
G01*
X106390262Y-106028957D01*
X106405575Y-106032840D01*
X106414505Y-106036076D01*
X106440821Y-106050241D01*
X106465987Y-106070754D01*
X106487838Y-106095558D01*
X106503184Y-106120454D01*
X106509458Y-106133780D01*
X106513476Y-106144736D01*
X106515729Y-106155930D01*
X106516709Y-106169972D01*
X106516911Y-106189471D01*
X106516904Y-106193092D01*
X106516635Y-106213999D01*
X106515648Y-106229011D01*
X106513486Y-106240696D01*
X106509693Y-106251623D01*
X106504464Y-106263017D01*
X106487017Y-106290762D01*
X106463647Y-106316029D01*
X106436790Y-106336385D01*
X106423884Y-106343456D01*
X106409743Y-106349611D01*
X106396599Y-106353474D01*
X106381421Y-106355666D01*
X106361178Y-106356809D01*
X106358267Y-106356905D01*
X106330818Y-106356775D01*
X106309413Y-106354575D01*
X106300211Y-106352359D01*
X106266461Y-106336958D01*
X106235803Y-106313719D01*
X106225530Y-106303451D01*
X106204120Y-106274845D01*
X106190054Y-106243550D01*
X106183102Y-106210659D01*
X106183047Y-106184273D01*
X106223623Y-106184273D01*
X106225646Y-106216390D01*
X106235203Y-106246177D01*
X106251875Y-106272648D01*
X106275247Y-106294820D01*
X106295847Y-106307496D01*
X106309984Y-106314255D01*
X106321248Y-106318091D01*
X106332960Y-106319643D01*
X106348441Y-106319552D01*
X106356540Y-106319193D01*
X106376656Y-106317599D01*
X106391440Y-106314642D01*
X106404007Y-106309573D01*
X106409811Y-106306378D01*
X106433152Y-106288882D01*
X106453801Y-106266286D01*
X106468991Y-106241649D01*
X106469632Y-106240251D01*
X106477117Y-106214488D01*
X106478642Y-106185811D01*
X106474288Y-106157239D01*
X106466777Y-106136782D01*
X106448891Y-106109141D01*
X106425811Y-106087465D01*
X106398712Y-106072284D01*
X106368767Y-106064124D01*
X106337153Y-106063513D01*
X106313851Y-106068091D01*
X106291398Y-106078182D01*
X106269456Y-106094277D01*
X106250147Y-106114290D01*
X106235593Y-106136141D01*
X106229549Y-106150811D01*
X106223623Y-106184273D01*
X106183047Y-106184273D01*
X106183032Y-106177269D01*
X106189616Y-106144472D01*
X106202622Y-106113364D01*
X106221821Y-106085040D01*
X106246981Y-106060593D01*
X106277874Y-106041118D01*
X106281048Y-106039590D01*
X106295630Y-106033134D01*
X106307759Y-106029167D01*
X106320452Y-106027105D01*
X106336731Y-106026365D01*
X106349800Y-106026314D01*
X106372698Y-106026937D01*
G37*
X106372698Y-106026937D02*
X106390262Y-106028957D01*
X106405575Y-106032840D01*
X106414505Y-106036076D01*
X106440821Y-106050241D01*
X106465987Y-106070754D01*
X106487838Y-106095558D01*
X106503184Y-106120454D01*
X106509458Y-106133780D01*
X106513476Y-106144736D01*
X106515729Y-106155930D01*
X106516709Y-106169972D01*
X106516911Y-106189471D01*
X106516904Y-106193092D01*
X106516635Y-106213999D01*
X106515648Y-106229011D01*
X106513486Y-106240696D01*
X106509693Y-106251623D01*
X106504464Y-106263017D01*
X106487017Y-106290762D01*
X106463647Y-106316029D01*
X106436790Y-106336385D01*
X106423884Y-106343456D01*
X106409743Y-106349611D01*
X106396599Y-106353474D01*
X106381421Y-106355666D01*
X106361178Y-106356809D01*
X106358267Y-106356905D01*
X106330818Y-106356775D01*
X106309413Y-106354575D01*
X106300211Y-106352359D01*
X106266461Y-106336958D01*
X106235803Y-106313719D01*
X106225530Y-106303451D01*
X106204120Y-106274845D01*
X106190054Y-106243550D01*
X106183102Y-106210659D01*
X106183047Y-106184273D01*
X106223623Y-106184273D01*
X106225646Y-106216390D01*
X106235203Y-106246177D01*
X106251875Y-106272648D01*
X106275247Y-106294820D01*
X106295847Y-106307496D01*
X106309984Y-106314255D01*
X106321248Y-106318091D01*
X106332960Y-106319643D01*
X106348441Y-106319552D01*
X106356540Y-106319193D01*
X106376656Y-106317599D01*
X106391440Y-106314642D01*
X106404007Y-106309573D01*
X106409811Y-106306378D01*
X106433152Y-106288882D01*
X106453801Y-106266286D01*
X106468991Y-106241649D01*
X106469632Y-106240251D01*
X106477117Y-106214488D01*
X106478642Y-106185811D01*
X106474288Y-106157239D01*
X106466777Y-106136782D01*
X106448891Y-106109141D01*
X106425811Y-106087465D01*
X106398712Y-106072284D01*
X106368767Y-106064124D01*
X106337153Y-106063513D01*
X106313851Y-106068091D01*
X106291398Y-106078182D01*
X106269456Y-106094277D01*
X106250147Y-106114290D01*
X106235593Y-106136141D01*
X106229549Y-106150811D01*
X106223623Y-106184273D01*
X106183047Y-106184273D01*
X106183032Y-106177269D01*
X106189616Y-106144472D01*
X106202622Y-106113364D01*
X106221821Y-106085040D01*
X106246981Y-106060593D01*
X106277874Y-106041118D01*
X106281048Y-106039590D01*
X106295630Y-106033134D01*
X106307759Y-106029167D01*
X106320452Y-106027105D01*
X106336731Y-106026365D01*
X106349800Y-106026314D01*
X106372698Y-106026937D01*
G36*
X107328767Y-106026563D02*
G01*
X107343070Y-106027993D01*
X107355201Y-106031102D01*
X107368305Y-106036553D01*
X107375825Y-106040176D01*
X107403900Y-106053997D01*
X107403900Y-106079132D01*
X107403330Y-106094612D01*
X107401225Y-106102306D01*
X107396998Y-106102840D01*
X107390060Y-106096842D01*
X107388681Y-106095342D01*
X107373992Y-106083576D01*
X107353845Y-106073385D01*
X107331243Y-106066050D01*
X107312966Y-106063064D01*
X107282970Y-106064822D01*
X107254341Y-106074239D01*
X107228365Y-106090507D01*
X107206330Y-106112818D01*
X107189520Y-106140365D01*
X107189389Y-106140649D01*
X107183655Y-106154615D01*
X107180659Y-106167018D01*
X107179821Y-106181424D01*
X107180308Y-106196616D01*
X107183170Y-106222706D01*
X107189612Y-106243910D01*
X107200908Y-106263488D01*
X107211910Y-106277418D01*
X107233508Y-106298070D01*
X107257372Y-106311359D01*
X107285395Y-106318222D01*
X107296439Y-106319274D01*
X107324887Y-106318874D01*
X107349398Y-106313038D01*
X107372943Y-106300856D01*
X107385325Y-106292068D01*
X107404311Y-106277576D01*
X107403047Y-106304045D01*
X107401784Y-106330514D01*
X107377030Y-106343154D01*
X107363306Y-106349558D01*
X107350799Y-106353532D01*
X107336440Y-106355746D01*
X107317164Y-106356867D01*
X107313530Y-106356986D01*
X107289062Y-106356870D01*
X107268985Y-106355048D01*
X107257850Y-106352569D01*
X107221952Y-106336554D01*
X107191480Y-106314244D01*
X107166886Y-106286032D01*
X107152416Y-106260912D01*
X107145913Y-106246103D01*
X107142004Y-106233484D01*
X107140048Y-106219827D01*
X107139404Y-106201904D01*
X107139370Y-106195283D01*
X107142487Y-106157056D01*
X107152247Y-106123694D01*
X107169088Y-106094298D01*
X107193451Y-106067971D01*
X107207151Y-106056759D01*
X107229893Y-106041972D01*
X107253150Y-106032447D01*
X107279434Y-106027430D01*
X107309150Y-106026152D01*
X107328767Y-106026563D01*
G37*
X107328767Y-106026563D02*
X107343070Y-106027993D01*
X107355201Y-106031102D01*
X107368305Y-106036553D01*
X107375825Y-106040176D01*
X107403900Y-106053997D01*
X107403900Y-106079132D01*
X107403330Y-106094612D01*
X107401225Y-106102306D01*
X107396998Y-106102840D01*
X107390060Y-106096842D01*
X107388681Y-106095342D01*
X107373992Y-106083576D01*
X107353845Y-106073385D01*
X107331243Y-106066050D01*
X107312966Y-106063064D01*
X107282970Y-106064822D01*
X107254341Y-106074239D01*
X107228365Y-106090507D01*
X107206330Y-106112818D01*
X107189520Y-106140365D01*
X107189389Y-106140649D01*
X107183655Y-106154615D01*
X107180659Y-106167018D01*
X107179821Y-106181424D01*
X107180308Y-106196616D01*
X107183170Y-106222706D01*
X107189612Y-106243910D01*
X107200908Y-106263488D01*
X107211910Y-106277418D01*
X107233508Y-106298070D01*
X107257372Y-106311359D01*
X107285395Y-106318222D01*
X107296439Y-106319274D01*
X107324887Y-106318874D01*
X107349398Y-106313038D01*
X107372943Y-106300856D01*
X107385325Y-106292068D01*
X107404311Y-106277576D01*
X107403047Y-106304045D01*
X107401784Y-106330514D01*
X107377030Y-106343154D01*
X107363306Y-106349558D01*
X107350799Y-106353532D01*
X107336440Y-106355746D01*
X107317164Y-106356867D01*
X107313530Y-106356986D01*
X107289062Y-106356870D01*
X107268985Y-106355048D01*
X107257850Y-106352569D01*
X107221952Y-106336554D01*
X107191480Y-106314244D01*
X107166886Y-106286032D01*
X107152416Y-106260912D01*
X107145913Y-106246103D01*
X107142004Y-106233484D01*
X107140048Y-106219827D01*
X107139404Y-106201904D01*
X107139370Y-106195283D01*
X107142487Y-106157056D01*
X107152247Y-106123694D01*
X107169088Y-106094298D01*
X107193451Y-106067971D01*
X107207151Y-106056759D01*
X107229893Y-106041972D01*
X107253150Y-106032447D01*
X107279434Y-106027430D01*
X107309150Y-106026152D01*
X107328767Y-106026563D01*
G36*
X105458299Y-106033951D02*
G01*
X105486860Y-106039137D01*
X105508868Y-106048205D01*
X105524970Y-106061501D01*
X105535811Y-106079375D01*
X105540866Y-106095929D01*
X105543376Y-106124043D01*
X105539060Y-106150214D01*
X105528590Y-106173185D01*
X105512637Y-106191698D01*
X105491875Y-106204495D01*
X105480909Y-106208112D01*
X105472519Y-106210817D01*
X105469267Y-106212999D01*
X105471609Y-106216905D01*
X105478125Y-106226578D01*
X105488045Y-106240908D01*
X105500604Y-106258787D01*
X105515031Y-106279106D01*
X105515110Y-106279215D01*
X105529793Y-106299838D01*
X105542865Y-106318294D01*
X105553492Y-106333395D01*
X105560839Y-106343955D01*
X105564043Y-106348742D01*
X105563680Y-106351827D01*
X105557283Y-106353496D01*
X105543698Y-106354031D01*
X105542386Y-106354033D01*
X105517639Y-106354033D01*
X105469522Y-106284183D01*
X105454702Y-106262918D01*
X105441374Y-106244261D01*
X105430314Y-106229264D01*
X105422302Y-106218979D01*
X105418115Y-106214455D01*
X105417819Y-106214333D01*
X105416626Y-106218334D01*
X105415601Y-106229405D01*
X105414816Y-106246153D01*
X105414342Y-106267181D01*
X105414234Y-106284183D01*
X105414234Y-106354033D01*
X105376134Y-106354033D01*
X105376134Y-106176233D01*
X105414234Y-106176233D01*
X105435314Y-106176233D01*
X105452132Y-106174739D01*
X105468871Y-106170998D01*
X105473577Y-106169358D01*
X105489360Y-106159167D01*
X105499284Y-106144793D01*
X105503506Y-106128010D01*
X105502185Y-106110590D01*
X105495479Y-106094309D01*
X105483544Y-106080939D01*
X105466539Y-106072255D01*
X105464901Y-106071799D01*
X105449126Y-106068556D01*
X105433485Y-106066663D01*
X105430109Y-106066507D01*
X105414234Y-106066167D01*
X105414234Y-106176233D01*
X105376134Y-106176233D01*
X105376134Y-106032300D01*
X105422541Y-106032300D01*
X105458299Y-106033951D01*
G37*
X105458299Y-106033951D02*
X105486860Y-106039137D01*
X105508868Y-106048205D01*
X105524970Y-106061501D01*
X105535811Y-106079375D01*
X105540866Y-106095929D01*
X105543376Y-106124043D01*
X105539060Y-106150214D01*
X105528590Y-106173185D01*
X105512637Y-106191698D01*
X105491875Y-106204495D01*
X105480909Y-106208112D01*
X105472519Y-106210817D01*
X105469267Y-106212999D01*
X105471609Y-106216905D01*
X105478125Y-106226578D01*
X105488045Y-106240908D01*
X105500604Y-106258787D01*
X105515031Y-106279106D01*
X105515110Y-106279215D01*
X105529793Y-106299838D01*
X105542865Y-106318294D01*
X105553492Y-106333395D01*
X105560839Y-106343955D01*
X105564043Y-106348742D01*
X105563680Y-106351827D01*
X105557283Y-106353496D01*
X105543698Y-106354031D01*
X105542386Y-106354033D01*
X105517639Y-106354033D01*
X105469522Y-106284183D01*
X105454702Y-106262918D01*
X105441374Y-106244261D01*
X105430314Y-106229264D01*
X105422302Y-106218979D01*
X105418115Y-106214455D01*
X105417819Y-106214333D01*
X105416626Y-106218334D01*
X105415601Y-106229405D01*
X105414816Y-106246153D01*
X105414342Y-106267181D01*
X105414234Y-106284183D01*
X105414234Y-106354033D01*
X105376134Y-106354033D01*
X105376134Y-106176233D01*
X105414234Y-106176233D01*
X105435314Y-106176233D01*
X105452132Y-106174739D01*
X105468871Y-106170998D01*
X105473577Y-106169358D01*
X105489360Y-106159167D01*
X105499284Y-106144793D01*
X105503506Y-106128010D01*
X105502185Y-106110590D01*
X105495479Y-106094309D01*
X105483544Y-106080939D01*
X105466539Y-106072255D01*
X105464901Y-106071799D01*
X105449126Y-106068556D01*
X105433485Y-106066663D01*
X105430109Y-106066507D01*
X105414234Y-106066167D01*
X105414234Y-106176233D01*
X105376134Y-106176233D01*
X105376134Y-106032300D01*
X105422541Y-106032300D01*
X105458299Y-106033951D01*
G36*
X108093933Y-106161314D02*
G01*
X108223149Y-106032300D01*
X108277995Y-106032300D01*
X108203272Y-106107442D01*
X108128549Y-106182583D01*
X108204249Y-106265133D01*
X108224440Y-106287261D01*
X108242611Y-106307387D01*
X108258011Y-106324662D01*
X108269889Y-106338237D01*
X108277493Y-106347262D01*
X108280075Y-106350858D01*
X108276290Y-106352495D01*
X108266293Y-106353621D01*
X108253742Y-106353979D01*
X108227283Y-106353925D01*
X108163783Y-106282110D01*
X108145410Y-106261478D01*
X108128843Y-106243155D01*
X108114915Y-106228040D01*
X108104462Y-106217034D01*
X108098318Y-106211037D01*
X108097108Y-106210197D01*
X108096067Y-106214168D01*
X108095169Y-106225233D01*
X108094475Y-106242021D01*
X108094045Y-106263158D01*
X108093933Y-106282067D01*
X108093933Y-106354033D01*
X108051600Y-106354033D01*
X108051600Y-106032300D01*
X108093933Y-106032300D01*
X108093933Y-106161314D01*
G37*
X108093933Y-106161314D02*
X108223149Y-106032300D01*
X108277995Y-106032300D01*
X108203272Y-106107442D01*
X108128549Y-106182583D01*
X108204249Y-106265133D01*
X108224440Y-106287261D01*
X108242611Y-106307387D01*
X108258011Y-106324662D01*
X108269889Y-106338237D01*
X108277493Y-106347262D01*
X108280075Y-106350858D01*
X108276290Y-106352495D01*
X108266293Y-106353621D01*
X108253742Y-106353979D01*
X108227283Y-106353925D01*
X108163783Y-106282110D01*
X108145410Y-106261478D01*
X108128843Y-106243155D01*
X108114915Y-106228040D01*
X108104462Y-106217034D01*
X108098318Y-106211037D01*
X108097108Y-106210197D01*
X108096067Y-106214168D01*
X108095169Y-106225233D01*
X108094475Y-106242021D01*
X108094045Y-106263158D01*
X108093933Y-106282067D01*
X108093933Y-106354033D01*
X108051600Y-106354033D01*
X108051600Y-106032300D01*
X108093933Y-106032300D01*
X108093933Y-106161314D01*
G36*
X109071834Y-106066167D02*
G01*
X108944834Y-106066167D01*
X108944834Y-106159300D01*
X109067600Y-106159300D01*
X109067600Y-106197400D01*
X108944834Y-106197400D01*
X108944834Y-106315933D01*
X109071834Y-106315933D01*
X109071834Y-106354033D01*
X108902500Y-106354033D01*
X108902500Y-106032300D01*
X109071834Y-106032300D01*
X109071834Y-106066167D01*
G37*
X109071834Y-106066167D02*
X108944834Y-106066167D01*
X108944834Y-106159300D01*
X109067600Y-106159300D01*
X109067600Y-106197400D01*
X108944834Y-106197400D01*
X108944834Y-106315933D01*
X109071834Y-106315933D01*
X109071834Y-106354033D01*
X108902500Y-106354033D01*
X108902500Y-106032300D01*
X109071834Y-106032300D01*
X109071834Y-106066167D01*
G36*
X109888867Y-106066167D02*
G01*
X109812667Y-106066167D01*
X109812667Y-106354033D01*
X109770334Y-106354033D01*
X109770334Y-106066167D01*
X109694134Y-106066167D01*
X109694134Y-106032300D01*
X109888867Y-106032300D01*
X109888867Y-106066167D01*
G37*
X109888867Y-106066167D02*
X109812667Y-106066167D01*
X109812667Y-106354033D01*
X109770334Y-106354033D01*
X109770334Y-106066167D01*
X109694134Y-106066167D01*
X109694134Y-106032300D01*
X109888867Y-106032300D01*
X109888867Y-106066167D01*
G36*
X110567380Y-106032923D02*
G01*
X110590341Y-106033775D01*
X110606917Y-106035022D01*
X110619191Y-106037011D01*
X110629243Y-106040091D01*
X110639157Y-106044612D01*
X110640118Y-106045104D01*
X110659828Y-106059199D01*
X110672839Y-106077982D01*
X110679424Y-106101953D01*
X110680407Y-106118691D01*
X110677052Y-106147907D01*
X110667166Y-106171759D01*
X110650678Y-106190359D01*
X110627516Y-106203820D01*
X110624467Y-106205026D01*
X110605359Y-106212279D01*
X110653494Y-106279981D01*
X110668310Y-106300983D01*
X110681279Y-106319680D01*
X110691651Y-106334966D01*
X110698678Y-106345733D01*
X110701607Y-106350874D01*
X110701648Y-106351069D01*
X110697836Y-106352697D01*
X110687955Y-106353402D01*
X110677733Y-106353186D01*
X110653799Y-106351917D01*
X110606824Y-106283283D01*
X110592237Y-106262187D01*
X110579170Y-106243701D01*
X110568400Y-106228891D01*
X110560704Y-106218823D01*
X110556859Y-106214563D01*
X110556675Y-106214491D01*
X110555619Y-106218437D01*
X110554711Y-106229459D01*
X110554016Y-106246164D01*
X110553596Y-106267163D01*
X110553500Y-106284183D01*
X110553500Y-106354033D01*
X110515400Y-106354033D01*
X110515400Y-106176233D01*
X110553500Y-106176233D01*
X110575725Y-106176227D01*
X110593130Y-106174610D01*
X110608972Y-106170462D01*
X110612767Y-106168818D01*
X110628309Y-106156634D01*
X110638065Y-106139636D01*
X110640843Y-106120122D01*
X110640383Y-106115610D01*
X110635811Y-106097496D01*
X110627520Y-106084556D01*
X110614233Y-106075798D01*
X110594677Y-106070228D01*
X110579249Y-106067986D01*
X110553500Y-106065073D01*
X110553500Y-106176233D01*
X110515400Y-106176233D01*
X110515400Y-106031429D01*
X110567380Y-106032923D01*
G37*
X110567380Y-106032923D02*
X110590341Y-106033775D01*
X110606917Y-106035022D01*
X110619191Y-106037011D01*
X110629243Y-106040091D01*
X110639157Y-106044612D01*
X110640118Y-106045104D01*
X110659828Y-106059199D01*
X110672839Y-106077982D01*
X110679424Y-106101953D01*
X110680407Y-106118691D01*
X110677052Y-106147907D01*
X110667166Y-106171759D01*
X110650678Y-106190359D01*
X110627516Y-106203820D01*
X110624467Y-106205026D01*
X110605359Y-106212279D01*
X110653494Y-106279981D01*
X110668310Y-106300983D01*
X110681279Y-106319680D01*
X110691651Y-106334966D01*
X110698678Y-106345733D01*
X110701607Y-106350874D01*
X110701648Y-106351069D01*
X110697836Y-106352697D01*
X110687955Y-106353402D01*
X110677733Y-106353186D01*
X110653799Y-106351917D01*
X110606824Y-106283283D01*
X110592237Y-106262187D01*
X110579170Y-106243701D01*
X110568400Y-106228891D01*
X110560704Y-106218823D01*
X110556859Y-106214563D01*
X110556675Y-106214491D01*
X110555619Y-106218437D01*
X110554711Y-106229459D01*
X110554016Y-106246164D01*
X110553596Y-106267163D01*
X110553500Y-106284183D01*
X110553500Y-106354033D01*
X110515400Y-106354033D01*
X110515400Y-106176233D01*
X110553500Y-106176233D01*
X110575725Y-106176227D01*
X110593130Y-106174610D01*
X110608972Y-106170462D01*
X110612767Y-106168818D01*
X110628309Y-106156634D01*
X110638065Y-106139636D01*
X110640843Y-106120122D01*
X110640383Y-106115610D01*
X110635811Y-106097496D01*
X110627520Y-106084556D01*
X110614233Y-106075798D01*
X110594677Y-106070228D01*
X110579249Y-106067986D01*
X110553500Y-106065073D01*
X110553500Y-106176233D01*
X110515400Y-106176233D01*
X110515400Y-106031429D01*
X110567380Y-106032923D01*
G36*
X111335293Y-106032576D02*
G01*
X111340640Y-106034104D01*
X111345839Y-106038031D01*
X111351708Y-106045260D01*
X111359061Y-106056697D01*
X111368716Y-106073243D01*
X111381489Y-106095803D01*
X111388098Y-106107499D01*
X111400918Y-106129940D01*
X111410357Y-106145805D01*
X111417063Y-106155965D01*
X111421683Y-106161290D01*
X111424865Y-106162652D01*
X111427257Y-106160921D01*
X111427530Y-106160535D01*
X111431317Y-106154346D01*
X111438408Y-106142241D01*
X111447959Y-106125681D01*
X111459124Y-106106129D01*
X111465813Y-106094333D01*
X111477421Y-106074239D01*
X111487916Y-106056861D01*
X111496473Y-106043505D01*
X111502270Y-106035474D01*
X111504083Y-106033754D01*
X111511174Y-106032836D01*
X111523062Y-106032819D01*
X111528630Y-106033105D01*
X111548067Y-106034417D01*
X111495395Y-106125433D01*
X111442723Y-106216450D01*
X111442611Y-106285242D01*
X111442500Y-106354033D01*
X111404400Y-106354033D01*
X111404400Y-106218372D01*
X111351713Y-106126394D01*
X111299026Y-106034417D01*
X111320893Y-106033105D01*
X111328983Y-106032544D01*
X111335293Y-106032576D01*
G37*
X111335293Y-106032576D02*
X111340640Y-106034104D01*
X111345839Y-106038031D01*
X111351708Y-106045260D01*
X111359061Y-106056697D01*
X111368716Y-106073243D01*
X111381489Y-106095803D01*
X111388098Y-106107499D01*
X111400918Y-106129940D01*
X111410357Y-106145805D01*
X111417063Y-106155965D01*
X111421683Y-106161290D01*
X111424865Y-106162652D01*
X111427257Y-106160921D01*
X111427530Y-106160535D01*
X111431317Y-106154346D01*
X111438408Y-106142241D01*
X111447959Y-106125681D01*
X111459124Y-106106129D01*
X111465813Y-106094333D01*
X111477421Y-106074239D01*
X111487916Y-106056861D01*
X111496473Y-106043505D01*
X111502270Y-106035474D01*
X111504083Y-106033754D01*
X111511174Y-106032836D01*
X111523062Y-106032819D01*
X111528630Y-106033105D01*
X111548067Y-106034417D01*
X111495395Y-106125433D01*
X111442723Y-106216450D01*
X111442611Y-106285242D01*
X111442500Y-106354033D01*
X111404400Y-106354033D01*
X111404400Y-106218372D01*
X111351713Y-106126394D01*
X111299026Y-106034417D01*
X111320893Y-106033105D01*
X111328983Y-106032544D01*
X111335293Y-106032576D01*
G36*
X105516553Y-105231127D02*
G01*
X105543049Y-105233813D01*
X105564517Y-105238225D01*
X105586196Y-105244652D01*
X105606343Y-105251826D01*
X105623430Y-105259077D01*
X105635932Y-105265734D01*
X105642323Y-105271127D01*
X105642834Y-105272620D01*
X105640951Y-105278238D01*
X105635804Y-105289728D01*
X105628139Y-105305506D01*
X105618707Y-105323990D01*
X105616980Y-105327289D01*
X105591126Y-105376512D01*
X105579938Y-105369073D01*
X105551843Y-105353512D01*
X105524946Y-105344655D01*
X105500154Y-105342604D01*
X105478377Y-105347461D01*
X105464152Y-105356042D01*
X105455349Y-105366019D01*
X105450003Y-105376912D01*
X105449942Y-105377163D01*
X105449385Y-105385789D01*
X105453241Y-105393888D01*
X105461414Y-105402994D01*
X105470314Y-105410411D01*
X105482132Y-105417186D01*
X105498584Y-105424137D01*
X105521385Y-105432083D01*
X105524307Y-105433038D01*
X105557041Y-105444379D01*
X105582972Y-105455096D01*
X105603648Y-105465984D01*
X105620614Y-105477836D01*
X105632614Y-105488602D01*
X105647262Y-105506601D01*
X105656996Y-105527426D01*
X105662373Y-105552755D01*
X105663950Y-105583262D01*
X105660861Y-105624705D01*
X105651592Y-105660440D01*
X105635951Y-105690743D01*
X105613750Y-105715890D01*
X105584798Y-105736154D01*
X105548906Y-105751812D01*
X105547279Y-105752361D01*
X105524546Y-105757942D01*
X105496776Y-105761754D01*
X105467259Y-105763561D01*
X105439282Y-105763128D01*
X105422148Y-105761329D01*
X105404600Y-105757773D01*
X105384445Y-105752566D01*
X105371348Y-105748560D01*
X105356243Y-105742817D01*
X105339069Y-105735220D01*
X105321821Y-105726788D01*
X105306492Y-105718541D01*
X105295075Y-105711497D01*
X105289630Y-105706786D01*
X105290917Y-105702415D01*
X105295349Y-105692220D01*
X105302100Y-105677852D01*
X105310342Y-105660964D01*
X105319250Y-105643208D01*
X105327996Y-105626237D01*
X105335754Y-105611703D01*
X105341698Y-105601259D01*
X105344527Y-105597034D01*
X105348270Y-105598551D01*
X105356833Y-105603859D01*
X105366194Y-105610286D01*
X105391550Y-105626806D01*
X105413915Y-105637699D01*
X105435610Y-105643926D01*
X105452714Y-105646104D01*
X105472074Y-105646557D01*
X105486555Y-105644355D01*
X105496292Y-105640666D01*
X105511648Y-105629817D01*
X105520964Y-105615749D01*
X105523717Y-105600269D01*
X105519387Y-105585186D01*
X105514298Y-105578244D01*
X105506419Y-105570761D01*
X105497045Y-105564337D01*
X105484624Y-105558243D01*
X105467601Y-105551755D01*
X105444423Y-105544144D01*
X105435409Y-105541340D01*
X105401080Y-105529741D01*
X105373993Y-105518088D01*
X105352955Y-105505620D01*
X105336773Y-105491572D01*
X105324251Y-105475184D01*
X105319866Y-105467551D01*
X105315740Y-105458637D01*
X105313046Y-105449120D01*
X105311494Y-105436934D01*
X105310799Y-105420017D01*
X105310665Y-105401533D01*
X105310944Y-105378409D01*
X105311995Y-105361335D01*
X105314136Y-105347907D01*
X105317688Y-105335721D01*
X105320344Y-105328713D01*
X105337032Y-105298318D01*
X105360845Y-105272235D01*
X105391405Y-105250854D01*
X105400587Y-105246025D01*
X105414459Y-105239306D01*
X105425340Y-105234807D01*
X105435548Y-105232089D01*
X105447401Y-105230712D01*
X105463215Y-105230235D01*
X105483864Y-105230216D01*
X105516553Y-105231127D01*
G37*
X105516553Y-105231127D02*
X105543049Y-105233813D01*
X105564517Y-105238225D01*
X105586196Y-105244652D01*
X105606343Y-105251826D01*
X105623430Y-105259077D01*
X105635932Y-105265734D01*
X105642323Y-105271127D01*
X105642834Y-105272620D01*
X105640951Y-105278238D01*
X105635804Y-105289728D01*
X105628139Y-105305506D01*
X105618707Y-105323990D01*
X105616980Y-105327289D01*
X105591126Y-105376512D01*
X105579938Y-105369073D01*
X105551843Y-105353512D01*
X105524946Y-105344655D01*
X105500154Y-105342604D01*
X105478377Y-105347461D01*
X105464152Y-105356042D01*
X105455349Y-105366019D01*
X105450003Y-105376912D01*
X105449942Y-105377163D01*
X105449385Y-105385789D01*
X105453241Y-105393888D01*
X105461414Y-105402994D01*
X105470314Y-105410411D01*
X105482132Y-105417186D01*
X105498584Y-105424137D01*
X105521385Y-105432083D01*
X105524307Y-105433038D01*
X105557041Y-105444379D01*
X105582972Y-105455096D01*
X105603648Y-105465984D01*
X105620614Y-105477836D01*
X105632614Y-105488602D01*
X105647262Y-105506601D01*
X105656996Y-105527426D01*
X105662373Y-105552755D01*
X105663950Y-105583262D01*
X105660861Y-105624705D01*
X105651592Y-105660440D01*
X105635951Y-105690743D01*
X105613750Y-105715890D01*
X105584798Y-105736154D01*
X105548906Y-105751812D01*
X105547279Y-105752361D01*
X105524546Y-105757942D01*
X105496776Y-105761754D01*
X105467259Y-105763561D01*
X105439282Y-105763128D01*
X105422148Y-105761329D01*
X105404600Y-105757773D01*
X105384445Y-105752566D01*
X105371348Y-105748560D01*
X105356243Y-105742817D01*
X105339069Y-105735220D01*
X105321821Y-105726788D01*
X105306492Y-105718541D01*
X105295075Y-105711497D01*
X105289630Y-105706786D01*
X105290917Y-105702415D01*
X105295349Y-105692220D01*
X105302100Y-105677852D01*
X105310342Y-105660964D01*
X105319250Y-105643208D01*
X105327996Y-105626237D01*
X105335754Y-105611703D01*
X105341698Y-105601259D01*
X105344527Y-105597034D01*
X105348270Y-105598551D01*
X105356833Y-105603859D01*
X105366194Y-105610286D01*
X105391550Y-105626806D01*
X105413915Y-105637699D01*
X105435610Y-105643926D01*
X105452714Y-105646104D01*
X105472074Y-105646557D01*
X105486555Y-105644355D01*
X105496292Y-105640666D01*
X105511648Y-105629817D01*
X105520964Y-105615749D01*
X105523717Y-105600269D01*
X105519387Y-105585186D01*
X105514298Y-105578244D01*
X105506419Y-105570761D01*
X105497045Y-105564337D01*
X105484624Y-105558243D01*
X105467601Y-105551755D01*
X105444423Y-105544144D01*
X105435409Y-105541340D01*
X105401080Y-105529741D01*
X105373993Y-105518088D01*
X105352955Y-105505620D01*
X105336773Y-105491572D01*
X105324251Y-105475184D01*
X105319866Y-105467551D01*
X105315740Y-105458637D01*
X105313046Y-105449120D01*
X105311494Y-105436934D01*
X105310799Y-105420017D01*
X105310665Y-105401533D01*
X105310944Y-105378409D01*
X105311995Y-105361335D01*
X105314136Y-105347907D01*
X105317688Y-105335721D01*
X105320344Y-105328713D01*
X105337032Y-105298318D01*
X105360845Y-105272235D01*
X105391405Y-105250854D01*
X105400587Y-105246025D01*
X105414459Y-105239306D01*
X105425340Y-105234807D01*
X105435548Y-105232089D01*
X105447401Y-105230712D01*
X105463215Y-105230235D01*
X105483864Y-105230216D01*
X105516553Y-105231127D01*
G36*
X106194004Y-105411183D02*
G01*
X106195283Y-105581699D01*
X106205971Y-105602455D01*
X106220069Y-105622161D01*
X106238863Y-105635175D01*
X106262854Y-105641771D01*
X106279558Y-105642764D01*
X106300138Y-105641201D01*
X106316406Y-105636089D01*
X106321885Y-105633239D01*
X106331982Y-105626887D01*
X106340446Y-105619857D01*
X106347419Y-105611379D01*
X106353044Y-105600686D01*
X106357465Y-105587011D01*
X106360822Y-105569585D01*
X106363259Y-105547641D01*
X106364918Y-105520410D01*
X106365942Y-105487126D01*
X106366474Y-105447020D01*
X106366654Y-105399325D01*
X106366660Y-105392008D01*
X106366734Y-105240667D01*
X106502200Y-105240667D01*
X106502165Y-105398358D01*
X106502026Y-105449298D01*
X106501596Y-105492600D01*
X106500818Y-105529087D01*
X106499638Y-105559587D01*
X106497999Y-105584922D01*
X106495846Y-105605919D01*
X106493123Y-105623401D01*
X106489773Y-105638195D01*
X106485743Y-105651124D01*
X106484928Y-105653349D01*
X106470404Y-105680780D01*
X106448862Y-105705869D01*
X106421663Y-105727505D01*
X106390167Y-105744577D01*
X106360899Y-105754704D01*
X106340219Y-105758663D01*
X106314257Y-105761572D01*
X106286154Y-105763263D01*
X106259049Y-105763564D01*
X106236082Y-105762308D01*
X106231267Y-105761717D01*
X106188614Y-105752379D01*
X106151288Y-105737381D01*
X106119754Y-105717032D01*
X106094478Y-105691637D01*
X106075928Y-105661502D01*
X106074803Y-105659019D01*
X106070795Y-105648950D01*
X106067452Y-105637900D01*
X106064716Y-105625040D01*
X106062530Y-105609542D01*
X106060836Y-105590575D01*
X106059577Y-105567313D01*
X106058694Y-105538924D01*
X106058131Y-105504581D01*
X106057830Y-105463455D01*
X106057732Y-105414716D01*
X106057732Y-105413175D01*
X106057700Y-105240667D01*
X106192724Y-105240667D01*
X106194004Y-105411183D01*
G37*
X106194004Y-105411183D02*
X106195283Y-105581699D01*
X106205971Y-105602455D01*
X106220069Y-105622161D01*
X106238863Y-105635175D01*
X106262854Y-105641771D01*
X106279558Y-105642764D01*
X106300138Y-105641201D01*
X106316406Y-105636089D01*
X106321885Y-105633239D01*
X106331982Y-105626887D01*
X106340446Y-105619857D01*
X106347419Y-105611379D01*
X106353044Y-105600686D01*
X106357465Y-105587011D01*
X106360822Y-105569585D01*
X106363259Y-105547641D01*
X106364918Y-105520410D01*
X106365942Y-105487126D01*
X106366474Y-105447020D01*
X106366654Y-105399325D01*
X106366660Y-105392008D01*
X106366734Y-105240667D01*
X106502200Y-105240667D01*
X106502165Y-105398358D01*
X106502026Y-105449298D01*
X106501596Y-105492600D01*
X106500818Y-105529087D01*
X106499638Y-105559587D01*
X106497999Y-105584922D01*
X106495846Y-105605919D01*
X106493123Y-105623401D01*
X106489773Y-105638195D01*
X106485743Y-105651124D01*
X106484928Y-105653349D01*
X106470404Y-105680780D01*
X106448862Y-105705869D01*
X106421663Y-105727505D01*
X106390167Y-105744577D01*
X106360899Y-105754704D01*
X106340219Y-105758663D01*
X106314257Y-105761572D01*
X106286154Y-105763263D01*
X106259049Y-105763564D01*
X106236082Y-105762308D01*
X106231267Y-105761717D01*
X106188614Y-105752379D01*
X106151288Y-105737381D01*
X106119754Y-105717032D01*
X106094478Y-105691637D01*
X106075928Y-105661502D01*
X106074803Y-105659019D01*
X106070795Y-105648950D01*
X106067452Y-105637900D01*
X106064716Y-105625040D01*
X106062530Y-105609542D01*
X106060836Y-105590575D01*
X106059577Y-105567313D01*
X106058694Y-105538924D01*
X106058131Y-105504581D01*
X106057830Y-105463455D01*
X106057732Y-105414716D01*
X106057732Y-105413175D01*
X106057700Y-105240667D01*
X106192724Y-105240667D01*
X106194004Y-105411183D01*
G36*
X107169146Y-105392792D02*
G01*
X107287484Y-105544918D01*
X107288595Y-105392792D01*
X107289706Y-105240667D01*
X107425067Y-105240667D01*
X107425067Y-105748667D01*
X107286756Y-105748667D01*
X107170703Y-105598988D01*
X107054650Y-105449310D01*
X107053538Y-105598988D01*
X107052427Y-105748667D01*
X106917067Y-105748667D01*
X106917067Y-105240667D01*
X107050809Y-105240667D01*
X107169146Y-105392792D01*
G37*
X107169146Y-105392792D02*
X107287484Y-105544918D01*
X107288595Y-105392792D01*
X107289706Y-105240667D01*
X107425067Y-105240667D01*
X107425067Y-105748667D01*
X107286756Y-105748667D01*
X107170703Y-105598988D01*
X107054650Y-105449310D01*
X107053538Y-105598988D01*
X107052427Y-105748667D01*
X106917067Y-105748667D01*
X106917067Y-105240667D01*
X107050809Y-105240667D01*
X107169146Y-105392792D01*
G36*
X108514092Y-105240740D02*
G01*
X108554365Y-105240953D01*
X108587467Y-105241659D01*
X108614690Y-105243047D01*
X108637325Y-105245306D01*
X108656662Y-105248626D01*
X108673992Y-105253196D01*
X108690606Y-105259206D01*
X108707796Y-105266846D01*
X108714707Y-105270197D01*
X108751329Y-105292728D01*
X108783918Y-105321696D01*
X108811357Y-105355734D01*
X108832524Y-105393480D01*
X108845230Y-105429271D01*
X108848367Y-105446208D01*
X108850626Y-105468096D01*
X108851668Y-105491438D01*
X108851700Y-105496003D01*
X108849283Y-105538715D01*
X108841552Y-105576048D01*
X108827793Y-105609732D01*
X108807288Y-105641500D01*
X108779321Y-105673082D01*
X108777813Y-105674590D01*
X108749885Y-105699894D01*
X108724455Y-105717697D01*
X108716234Y-105722139D01*
X108700766Y-105729521D01*
X108686496Y-105735401D01*
X108672197Y-105739949D01*
X108656640Y-105743332D01*
X108638597Y-105745718D01*
X108616842Y-105747276D01*
X108590145Y-105748174D01*
X108557279Y-105748581D01*
X108522727Y-105748667D01*
X108407200Y-105748667D01*
X108407200Y-105635428D01*
X108542667Y-105635428D01*
X108578602Y-105633542D01*
X108598910Y-105631937D01*
X108614508Y-105628997D01*
X108629143Y-105623765D01*
X108642972Y-105617136D01*
X108670313Y-105599093D01*
X108690712Y-105576347D01*
X108704270Y-105548724D01*
X108711087Y-105516050D01*
X108712000Y-105496783D01*
X108708452Y-105461659D01*
X108698044Y-105430508D01*
X108681133Y-105404044D01*
X108658076Y-105382980D01*
X108653683Y-105380059D01*
X108637665Y-105370966D01*
X108621692Y-105364637D01*
X108603112Y-105360298D01*
X108579275Y-105357174D01*
X108573359Y-105356600D01*
X108542667Y-105353751D01*
X108542667Y-105635428D01*
X108407200Y-105635428D01*
X108407200Y-105240667D01*
X108514092Y-105240740D01*
G37*
X108514092Y-105240740D02*
X108554365Y-105240953D01*
X108587467Y-105241659D01*
X108614690Y-105243047D01*
X108637325Y-105245306D01*
X108656662Y-105248626D01*
X108673992Y-105253196D01*
X108690606Y-105259206D01*
X108707796Y-105266846D01*
X108714707Y-105270197D01*
X108751329Y-105292728D01*
X108783918Y-105321696D01*
X108811357Y-105355734D01*
X108832524Y-105393480D01*
X108845230Y-105429271D01*
X108848367Y-105446208D01*
X108850626Y-105468096D01*
X108851668Y-105491438D01*
X108851700Y-105496003D01*
X108849283Y-105538715D01*
X108841552Y-105576048D01*
X108827793Y-105609732D01*
X108807288Y-105641500D01*
X108779321Y-105673082D01*
X108777813Y-105674590D01*
X108749885Y-105699894D01*
X108724455Y-105717697D01*
X108716234Y-105722139D01*
X108700766Y-105729521D01*
X108686496Y-105735401D01*
X108672197Y-105739949D01*
X108656640Y-105743332D01*
X108638597Y-105745718D01*
X108616842Y-105747276D01*
X108590145Y-105748174D01*
X108557279Y-105748581D01*
X108522727Y-105748667D01*
X108407200Y-105748667D01*
X108407200Y-105635428D01*
X108542667Y-105635428D01*
X108578602Y-105633542D01*
X108598910Y-105631937D01*
X108614508Y-105628997D01*
X108629143Y-105623765D01*
X108642972Y-105617136D01*
X108670313Y-105599093D01*
X108690712Y-105576347D01*
X108704270Y-105548724D01*
X108711087Y-105516050D01*
X108712000Y-105496783D01*
X108708452Y-105461659D01*
X108698044Y-105430508D01*
X108681133Y-105404044D01*
X108658076Y-105382980D01*
X108653683Y-105380059D01*
X108637665Y-105370966D01*
X108621692Y-105364637D01*
X108603112Y-105360298D01*
X108579275Y-105357174D01*
X108573359Y-105356600D01*
X108542667Y-105353751D01*
X108542667Y-105635428D01*
X108407200Y-105635428D01*
X108407200Y-105240667D01*
X108514092Y-105240740D01*
G36*
X109537500Y-105354967D02*
G01*
X109380867Y-105354967D01*
X109380867Y-105435400D01*
X109529034Y-105435400D01*
X109529034Y-105553933D01*
X109380867Y-105553933D01*
X109380867Y-105634367D01*
X109537500Y-105634367D01*
X109537500Y-105748667D01*
X109245400Y-105748667D01*
X109245400Y-105240667D01*
X109537500Y-105240667D01*
X109537500Y-105354967D01*
G37*
X109537500Y-105354967D02*
X109380867Y-105354967D01*
X109380867Y-105435400D01*
X109529034Y-105435400D01*
X109529034Y-105553933D01*
X109380867Y-105553933D01*
X109380867Y-105634367D01*
X109537500Y-105634367D01*
X109537500Y-105748667D01*
X109245400Y-105748667D01*
X109245400Y-105240667D01*
X109537500Y-105240667D01*
X109537500Y-105354967D01*
G36*
X110383963Y-105240722D02*
G01*
X110403274Y-105240966D01*
X110416347Y-105241513D01*
X110424299Y-105242478D01*
X110428242Y-105243978D01*
X110429291Y-105246127D01*
X110428902Y-105248075D01*
X110426852Y-105253181D01*
X110421757Y-105265387D01*
X110413907Y-105284011D01*
X110403592Y-105308369D01*
X110391102Y-105337780D01*
X110376726Y-105371560D01*
X110360755Y-105409029D01*
X110343478Y-105449502D01*
X110325185Y-105492298D01*
X110321456Y-105501017D01*
X110216412Y-105746550D01*
X110106884Y-105748638D01*
X110003167Y-105501093D01*
X109985010Y-105457708D01*
X109967822Y-105416543D01*
X109951883Y-105378276D01*
X109937474Y-105343586D01*
X109924877Y-105313153D01*
X109914372Y-105287656D01*
X109906240Y-105267773D01*
X109900763Y-105254184D01*
X109898221Y-105247568D01*
X109898081Y-105247107D01*
X109898547Y-105244753D01*
X109901826Y-105243042D01*
X109909010Y-105241878D01*
X109921194Y-105241162D01*
X109939471Y-105240797D01*
X109964934Y-105240685D01*
X109970048Y-105240684D01*
X110043384Y-105240702D01*
X110102611Y-105390795D01*
X110115878Y-105424184D01*
X110128233Y-105454836D01*
X110139327Y-105481919D01*
X110148812Y-105504598D01*
X110156337Y-105522041D01*
X110161554Y-105533413D01*
X110164112Y-105537881D01*
X110164265Y-105537886D01*
X110166323Y-105533396D01*
X110171130Y-105521917D01*
X110178327Y-105504334D01*
X110187554Y-105481533D01*
X110198454Y-105454402D01*
X110210668Y-105423826D01*
X110223837Y-105390691D01*
X110224993Y-105387775D01*
X110283295Y-105240667D01*
X110357300Y-105240667D01*
X110383963Y-105240722D01*
G37*
X110383963Y-105240722D02*
X110403274Y-105240966D01*
X110416347Y-105241513D01*
X110424299Y-105242478D01*
X110428242Y-105243978D01*
X110429291Y-105246127D01*
X110428902Y-105248075D01*
X110426852Y-105253181D01*
X110421757Y-105265387D01*
X110413907Y-105284011D01*
X110403592Y-105308369D01*
X110391102Y-105337780D01*
X110376726Y-105371560D01*
X110360755Y-105409029D01*
X110343478Y-105449502D01*
X110325185Y-105492298D01*
X110321456Y-105501017D01*
X110216412Y-105746550D01*
X110106884Y-105748638D01*
X110003167Y-105501093D01*
X109985010Y-105457708D01*
X109967822Y-105416543D01*
X109951883Y-105378276D01*
X109937474Y-105343586D01*
X109924877Y-105313153D01*
X109914372Y-105287656D01*
X109906240Y-105267773D01*
X109900763Y-105254184D01*
X109898221Y-105247568D01*
X109898081Y-105247107D01*
X109898547Y-105244753D01*
X109901826Y-105243042D01*
X109909010Y-105241878D01*
X109921194Y-105241162D01*
X109939471Y-105240797D01*
X109964934Y-105240685D01*
X109970048Y-105240684D01*
X110043384Y-105240702D01*
X110102611Y-105390795D01*
X110115878Y-105424184D01*
X110128233Y-105454836D01*
X110139327Y-105481919D01*
X110148812Y-105504598D01*
X110156337Y-105522041D01*
X110161554Y-105533413D01*
X110164112Y-105537881D01*
X110164265Y-105537886D01*
X110166323Y-105533396D01*
X110171130Y-105521917D01*
X110178327Y-105504334D01*
X110187554Y-105481533D01*
X110198454Y-105454402D01*
X110210668Y-105423826D01*
X110223837Y-105390691D01*
X110224993Y-105387775D01*
X110283295Y-105240667D01*
X110357300Y-105240667D01*
X110383963Y-105240722D01*
G36*
X110930267Y-105748667D02*
G01*
X110794800Y-105748667D01*
X110794800Y-105240667D01*
X110930267Y-105240667D01*
X110930267Y-105748667D01*
G37*
X110930267Y-105748667D02*
X110794800Y-105748667D01*
X110794800Y-105240667D01*
X110930267Y-105240667D01*
X110930267Y-105748667D01*
G36*
X111480600Y-105634367D02*
G01*
X111641467Y-105634367D01*
X111641467Y-105748667D01*
X111345133Y-105748667D01*
X111345133Y-105240667D01*
X111480600Y-105240667D01*
X111480600Y-105634367D01*
G37*
X111480600Y-105634367D02*
X111641467Y-105634367D01*
X111641467Y-105748667D01*
X111345133Y-105748667D01*
X111345133Y-105240667D01*
X111480600Y-105240667D01*
X111480600Y-105634367D01*
G36*
X105984715Y-102651857D02*
G01*
X105994784Y-102657149D01*
X106008315Y-102664728D01*
X106012827Y-102667332D01*
X106029012Y-102676730D01*
X106044190Y-102685529D01*
X106055433Y-102692034D01*
X106056642Y-102692732D01*
X106070510Y-102700735D01*
X106084158Y-102708617D01*
X106092249Y-102713265D01*
X106106217Y-102721259D01*
X106124581Y-102731753D01*
X106145862Y-102743903D01*
X106165650Y-102755190D01*
X106187610Y-102767741D01*
X106207307Y-102779052D01*
X106223446Y-102788376D01*
X106234729Y-102794962D01*
X106239733Y-102797979D01*
X106247589Y-102802637D01*
X106258760Y-102808744D01*
X106260900Y-102809868D01*
X106270244Y-102814902D01*
X106284985Y-102823032D01*
X106303162Y-102833168D01*
X106322810Y-102844221D01*
X106324400Y-102845120D01*
X106344077Y-102856176D01*
X106362440Y-102866368D01*
X106377530Y-102874616D01*
X106387386Y-102879839D01*
X106387900Y-102880100D01*
X106399999Y-102886372D01*
X106410173Y-102891947D01*
X106411184Y-102892535D01*
X106417964Y-102896329D01*
X106430542Y-102903195D01*
X106447243Y-102912225D01*
X106466391Y-102922509D01*
X106470450Y-102924681D01*
X106490889Y-102935630D01*
X106510195Y-102946009D01*
X106526340Y-102954724D01*
X106537293Y-102960682D01*
X106538184Y-102961171D01*
X106555338Y-102970406D01*
X106579009Y-102982835D01*
X106608116Y-102997913D01*
X106641580Y-103015094D01*
X106678321Y-103033835D01*
X106717259Y-103053591D01*
X106757314Y-103073815D01*
X106797406Y-103093964D01*
X106836455Y-103113492D01*
X106873382Y-103131855D01*
X106907106Y-103148508D01*
X106936548Y-103162904D01*
X106960627Y-103174501D01*
X106965750Y-103176931D01*
X107003233Y-103194507D01*
X107046438Y-103214548D01*
X107093334Y-103236118D01*
X107141887Y-103258280D01*
X107181650Y-103276303D01*
X107233360Y-103299252D01*
X107289701Y-103323539D01*
X107348239Y-103348151D01*
X107406543Y-103372080D01*
X107462180Y-103394315D01*
X107512719Y-103413847D01*
X107513967Y-103414318D01*
X107535852Y-103422624D01*
X107555440Y-103430132D01*
X107571123Y-103436220D01*
X107581295Y-103440267D01*
X107583817Y-103441334D01*
X107596180Y-103446360D01*
X107615303Y-103453420D01*
X107639846Y-103462076D01*
X107668471Y-103471888D01*
X107699840Y-103482418D01*
X107732613Y-103493228D01*
X107765453Y-103503879D01*
X107797021Y-103513931D01*
X107825978Y-103522948D01*
X107850985Y-103530490D01*
X107870705Y-103536118D01*
X107881597Y-103538907D01*
X107904210Y-103544131D01*
X107940217Y-103618757D01*
X107953934Y-103647134D01*
X107970007Y-103680302D01*
X107987070Y-103715444D01*
X108003755Y-103749748D01*
X108017552Y-103778050D01*
X108031054Y-103805753D01*
X108044653Y-103833724D01*
X108057435Y-103860082D01*
X108068489Y-103882946D01*
X108076902Y-103900435D01*
X108078097Y-103902933D01*
X108086688Y-103920910D01*
X108097787Y-103944133D01*
X108110249Y-103970209D01*
X108122932Y-103996746D01*
X108129689Y-104010883D01*
X108142376Y-104037277D01*
X108157500Y-104068506D01*
X108173727Y-104101826D01*
X108189721Y-104134494D01*
X108202082Y-104159594D01*
X108213936Y-104183796D01*
X108224396Y-104205560D01*
X108232909Y-104223703D01*
X108238923Y-104237043D01*
X108241886Y-104244395D01*
X108242100Y-104245319D01*
X108245031Y-104249835D01*
X108246333Y-104250067D01*
X108250274Y-104253406D01*
X108250567Y-104255321D01*
X108252330Y-104261434D01*
X108256995Y-104272842D01*
X108263628Y-104287292D01*
X108265058Y-104290246D01*
X108271564Y-104303622D01*
X108280859Y-104322811D01*
X108292065Y-104345992D01*
X108304302Y-104371347D01*
X108316238Y-104396116D01*
X108330612Y-104425901D01*
X108346685Y-104459097D01*
X108362988Y-104492672D01*
X108378049Y-104523597D01*
X108386413Y-104540713D01*
X108397176Y-104562942D01*
X108406502Y-104582675D01*
X108413793Y-104598609D01*
X108418453Y-104609438D01*
X108419900Y-104613738D01*
X108422893Y-104618163D01*
X108424133Y-104618366D01*
X108428110Y-104621685D01*
X108428367Y-104623413D01*
X108430105Y-104629699D01*
X108434636Y-104640756D01*
X108440933Y-104654497D01*
X108447973Y-104668832D01*
X108454728Y-104681674D01*
X108460173Y-104690935D01*
X108463284Y-104694527D01*
X108463292Y-104694527D01*
X108466306Y-104691252D01*
X108466467Y-104689742D01*
X108468247Y-104684448D01*
X108473158Y-104672993D01*
X108480558Y-104656797D01*
X108489806Y-104637280D01*
X108495672Y-104625184D01*
X108508225Y-104599429D01*
X108522897Y-104569206D01*
X108538151Y-104537683D01*
X108552453Y-104508029D01*
X108557412Y-104497716D01*
X108570149Y-104471317D01*
X108583700Y-104443428D01*
X108596794Y-104416651D01*
X108608161Y-104393590D01*
X108612874Y-104384118D01*
X108621783Y-104365822D01*
X108629076Y-104349941D01*
X108634000Y-104338183D01*
X108635800Y-104332260D01*
X108638204Y-104326859D01*
X108640034Y-104326266D01*
X108644121Y-104323026D01*
X108644267Y-104321891D01*
X108646057Y-104316972D01*
X108651074Y-104305610D01*
X108658783Y-104288948D01*
X108668654Y-104268130D01*
X108680151Y-104244297D01*
X108686185Y-104231932D01*
X108699400Y-104204867D01*
X108712323Y-104178241D01*
X108724149Y-104153726D01*
X108734074Y-104132991D01*
X108741293Y-104117708D01*
X108742734Y-104114600D01*
X108748381Y-104102450D01*
X108755217Y-104087949D01*
X108763580Y-104070397D01*
X108773808Y-104049093D01*
X108786239Y-104023336D01*
X108801210Y-103992426D01*
X108819059Y-103955662D01*
X108840124Y-103912342D01*
X108851914Y-103888117D01*
X108865404Y-103860340D01*
X108879594Y-103831007D01*
X108893324Y-103802528D01*
X108905428Y-103777315D01*
X108913161Y-103761117D01*
X108924839Y-103736627D01*
X108938467Y-103708160D01*
X108952298Y-103679356D01*
X108963898Y-103655283D01*
X108974698Y-103632824D01*
X108985341Y-103610514D01*
X108994710Y-103590705D01*
X109001690Y-103575748D01*
X109002582Y-103573805D01*
X109007081Y-103563831D01*
X109010890Y-103556508D01*
X109015353Y-103551044D01*
X109021816Y-103546647D01*
X109031623Y-103542525D01*
X109046118Y-103537887D01*
X109066645Y-103531940D01*
X109080300Y-103528024D01*
X109132756Y-103512137D01*
X109191470Y-103492967D01*
X109255126Y-103471011D01*
X109322408Y-103446769D01*
X109391999Y-103420739D01*
X109462582Y-103393420D01*
X109532842Y-103365310D01*
X109601461Y-103336909D01*
X109667124Y-103308715D01*
X109712308Y-103288608D01*
X109730226Y-103280555D01*
X109745116Y-103273969D01*
X109755412Y-103269533D01*
X109759541Y-103267933D01*
X109763769Y-103266257D01*
X109774027Y-103261717D01*
X109788682Y-103255046D01*
X109802751Y-103248540D01*
X109820624Y-103240230D01*
X109843944Y-103229400D01*
X109870477Y-103217088D01*
X109897986Y-103204331D01*
X109918500Y-103194824D01*
X109936890Y-103186134D01*
X109961765Y-103174123D01*
X109992068Y-103159320D01*
X110026743Y-103142253D01*
X110064732Y-103123450D01*
X110104980Y-103103440D01*
X110146428Y-103082751D01*
X110188022Y-103061910D01*
X110228703Y-103041446D01*
X110267416Y-103021886D01*
X110303103Y-103003761D01*
X110334708Y-102987596D01*
X110361174Y-102973921D01*
X110375700Y-102966311D01*
X110405742Y-102950317D01*
X110441478Y-102931078D01*
X110481232Y-102909513D01*
X110523325Y-102886541D01*
X110566079Y-102863080D01*
X110607816Y-102840049D01*
X110646859Y-102818366D01*
X110681530Y-102798950D01*
X110684734Y-102797145D01*
X110708911Y-102783502D01*
X110727879Y-102772764D01*
X110743812Y-102763692D01*
X110758884Y-102755047D01*
X110775267Y-102745590D01*
X110780536Y-102742540D01*
X110820747Y-102719301D01*
X110854218Y-102700059D01*
X110881501Y-102684509D01*
X110903150Y-102672348D01*
X110919717Y-102663273D01*
X110931755Y-102656980D01*
X110939819Y-102653165D01*
X110944459Y-102651526D01*
X110946136Y-102651625D01*
X110946230Y-102656874D01*
X110942403Y-102665527D01*
X110942130Y-102665982D01*
X110936516Y-102675366D01*
X110928401Y-102689155D01*
X110919511Y-102704418D01*
X110919232Y-102704900D01*
X110908344Y-102723226D01*
X110895676Y-102743859D01*
X110885032Y-102760674D01*
X110876426Y-102774528D01*
X110870003Y-102785899D01*
X110866894Y-102792750D01*
X110866767Y-102793483D01*
X110864405Y-102797853D01*
X110863496Y-102798033D01*
X110859695Y-102801433D01*
X110854068Y-102809963D01*
X110851895Y-102813908D01*
X110846250Y-102824231D01*
X110842156Y-102830945D01*
X110841407Y-102831900D01*
X110837747Y-102836889D01*
X110834261Y-102842483D01*
X110830184Y-102849210D01*
X110822666Y-102861438D01*
X110812746Y-102877486D01*
X110801462Y-102895670D01*
X110800395Y-102897387D01*
X110789143Y-102915781D01*
X110779353Y-102932346D01*
X110772018Y-102945360D01*
X110768135Y-102953100D01*
X110767989Y-102953479D01*
X110763877Y-102960893D01*
X110760581Y-102963133D01*
X110756835Y-102966387D01*
X110756700Y-102967534D01*
X110754482Y-102973136D01*
X110748711Y-102983298D01*
X110741884Y-102993935D01*
X110734096Y-103006251D01*
X110728729Y-103016172D01*
X110727067Y-103020932D01*
X110724432Y-103026693D01*
X110723318Y-103027339D01*
X110719594Y-103031376D01*
X110712783Y-103040994D01*
X110704079Y-103054464D01*
X110699718Y-103061558D01*
X110690584Y-103076035D01*
X110682797Y-103087248D01*
X110677529Y-103093559D01*
X110676243Y-103094366D01*
X110671293Y-103096094D01*
X110660206Y-103100836D01*
X110644469Y-103107930D01*
X110625572Y-103116715D01*
X110619117Y-103119767D01*
X110599727Y-103128921D01*
X110583241Y-103136609D01*
X110571078Y-103142176D01*
X110564659Y-103144967D01*
X110564041Y-103145167D01*
X110559771Y-103146840D01*
X110549638Y-103151327D01*
X110535434Y-103157823D01*
X110527292Y-103161610D01*
X110503537Y-103172667D01*
X110473223Y-103186698D01*
X110437498Y-103203174D01*
X110397509Y-103221566D01*
X110363000Y-103237404D01*
X110314667Y-103259582D01*
X110271559Y-103279410D01*
X110232613Y-103297392D01*
X110196769Y-103314033D01*
X110162968Y-103329837D01*
X110130147Y-103345309D01*
X110097246Y-103360954D01*
X110063205Y-103377276D01*
X110026962Y-103394779D01*
X109987458Y-103413968D01*
X109943630Y-103435348D01*
X109894420Y-103459424D01*
X109838765Y-103486699D01*
X109833834Y-103489117D01*
X109802512Y-103504454D01*
X109771107Y-103519792D01*
X109741151Y-103534385D01*
X109714174Y-103547488D01*
X109691709Y-103558357D01*
X109675285Y-103566246D01*
X109675084Y-103566342D01*
X109657917Y-103574582D01*
X109634871Y-103585718D01*
X109607667Y-103598914D01*
X109578028Y-103613335D01*
X109547672Y-103628145D01*
X109529034Y-103637260D01*
X109495159Y-103653842D01*
X109457285Y-103672378D01*
X109418111Y-103691547D01*
X109380335Y-103710029D01*
X109346657Y-103726504D01*
X109337774Y-103730848D01*
X109307424Y-103745832D01*
X109283887Y-103757821D01*
X109266273Y-103767332D01*
X109253692Y-103774883D01*
X109245253Y-103780989D01*
X109240065Y-103786169D01*
X109238436Y-103788532D01*
X109232618Y-103797065D01*
X109228241Y-103801247D01*
X109227839Y-103801333D01*
X109224230Y-103804790D01*
X109222313Y-103809180D01*
X109218211Y-103816529D01*
X109210240Y-103827261D01*
X109203135Y-103835639D01*
X109192920Y-103847799D01*
X109184476Y-103859189D01*
X109180999Y-103864833D01*
X109174056Y-103875775D01*
X109165888Y-103886000D01*
X109158324Y-103895214D01*
X109148523Y-103908356D01*
X109140488Y-103919838D01*
X109131753Y-103932513D01*
X109124473Y-103942665D01*
X109120517Y-103947742D01*
X109117312Y-103951472D01*
X109112725Y-103957242D01*
X109106101Y-103965923D01*
X109096787Y-103978388D01*
X109084129Y-103995508D01*
X109067471Y-104018157D01*
X109057275Y-104032050D01*
X109042562Y-104052013D01*
X109028672Y-104070691D01*
X109016787Y-104086505D01*
X109008090Y-104097880D01*
X109005210Y-104101528D01*
X108996246Y-104112956D01*
X108988570Y-104123319D01*
X108987167Y-104125339D01*
X108975109Y-104143004D01*
X108967137Y-104154378D01*
X108962694Y-104160251D01*
X108961854Y-104161167D01*
X108957908Y-104165981D01*
X108949471Y-104177075D01*
X108936987Y-104193848D01*
X108920902Y-104215701D01*
X108901663Y-104242036D01*
X108898898Y-104245833D01*
X108887634Y-104261260D01*
X108877980Y-104274393D01*
X108871177Y-104283549D01*
X108868762Y-104286706D01*
X108864410Y-104292375D01*
X108855806Y-104303805D01*
X108843728Y-104319949D01*
X108828955Y-104339759D01*
X108812265Y-104362184D01*
X108794436Y-104386178D01*
X108776246Y-104410691D01*
X108758475Y-104434675D01*
X108741900Y-104457081D01*
X108727298Y-104476862D01*
X108715450Y-104492968D01*
X108707133Y-104504351D01*
X108704515Y-104507981D01*
X108698248Y-104516548D01*
X108689104Y-104528816D01*
X108678763Y-104542558D01*
X108668903Y-104555550D01*
X108661204Y-104565567D01*
X108657945Y-104569683D01*
X108653992Y-104575024D01*
X108646696Y-104585318D01*
X108637496Y-104598531D01*
X108635603Y-104601273D01*
X108625452Y-104615650D01*
X108616123Y-104628258D01*
X108609449Y-104636625D01*
X108608886Y-104637257D01*
X108601689Y-104646232D01*
X108593089Y-104658374D01*
X108590233Y-104662722D01*
X108582763Y-104673974D01*
X108576535Y-104682668D01*
X108574813Y-104684800D01*
X108572013Y-104688019D01*
X108568927Y-104691765D01*
X108564551Y-104697331D01*
X108557878Y-104706013D01*
X108547902Y-104719103D01*
X108536788Y-104733725D01*
X108511860Y-104766533D01*
X108461814Y-104766533D01*
X108436925Y-104766151D01*
X108419857Y-104764965D01*
X108409999Y-104762916D01*
X108407284Y-104761241D01*
X108393538Y-104744724D01*
X108385191Y-104733963D01*
X108381891Y-104728501D01*
X108381805Y-104728023D01*
X108379318Y-104723301D01*
X108374128Y-104716649D01*
X108365450Y-104705965D01*
X108359503Y-104698010D01*
X108355245Y-104692167D01*
X108346898Y-104680841D01*
X108335347Y-104665221D01*
X108321473Y-104646495D01*
X108306162Y-104625853D01*
X108290295Y-104604485D01*
X108274756Y-104583580D01*
X108260429Y-104564326D01*
X108248196Y-104547914D01*
X108238940Y-104535532D01*
X108233546Y-104528370D01*
X108232760Y-104527350D01*
X108228653Y-104521871D01*
X108221297Y-104511840D01*
X108213537Y-104501159D01*
X108203312Y-104487040D01*
X108194952Y-104475545D01*
X108187162Y-104464922D01*
X108178650Y-104453417D01*
X108168123Y-104439279D01*
X108154287Y-104420755D01*
X108148162Y-104412560D01*
X108134660Y-104394477D01*
X108122419Y-104378040D01*
X108112621Y-104364839D01*
X108106448Y-104356467D01*
X108105679Y-104355410D01*
X108095463Y-104341420D01*
X108082356Y-104323656D01*
X108067207Y-104303251D01*
X108050864Y-104281336D01*
X108034177Y-104259042D01*
X108017996Y-104237503D01*
X108003169Y-104217850D01*
X107990547Y-104201215D01*
X107980978Y-104188729D01*
X107975312Y-104181526D01*
X107974421Y-104180477D01*
X107968799Y-104173364D01*
X107966933Y-104169483D01*
X107964478Y-104164512D01*
X107959525Y-104157937D01*
X107948166Y-104144303D01*
X107940280Y-104134184D01*
X107933715Y-104124771D01*
X107931290Y-104121058D01*
X107924732Y-104111299D01*
X107919697Y-104104471D01*
X107919406Y-104104127D01*
X107915725Y-104099385D01*
X107908164Y-104089333D01*
X107897849Y-104075491D01*
X107885906Y-104059377D01*
X107873459Y-104042510D01*
X107861634Y-104026411D01*
X107851556Y-104012597D01*
X107849242Y-104009402D01*
X107841970Y-103999604D01*
X107832817Y-103987590D01*
X107830408Y-103984479D01*
X107823375Y-103974906D01*
X107819222Y-103968241D01*
X107818747Y-103966909D01*
X107816114Y-103962457D01*
X107809563Y-103954498D01*
X107806951Y-103951617D01*
X107796524Y-103939004D01*
X107786764Y-103925142D01*
X107785914Y-103923779D01*
X107777164Y-103910907D01*
X107767817Y-103899140D01*
X107766592Y-103897784D01*
X107757274Y-103886439D01*
X107748262Y-103873582D01*
X107747712Y-103872705D01*
X107739728Y-103860929D01*
X107731854Y-103850927D01*
X107731030Y-103850017D01*
X107724064Y-103841610D01*
X107715037Y-103829580D01*
X107710031Y-103822500D01*
X107700697Y-103809482D01*
X107691686Y-103797736D01*
X107687981Y-103793277D01*
X107681769Y-103785248D01*
X107679070Y-103779897D01*
X107679067Y-103779801D01*
X107675508Y-103776634D01*
X107665969Y-103770903D01*
X107652158Y-103763594D01*
X107644142Y-103759635D01*
X107629537Y-103752584D01*
X107609088Y-103742710D01*
X107584575Y-103730874D01*
X107557777Y-103717934D01*
X107530474Y-103704750D01*
X107525200Y-103702204D01*
X107500731Y-103690413D01*
X107478956Y-103679970D01*
X107460984Y-103671401D01*
X107447921Y-103665234D01*
X107440875Y-103661995D01*
X107439963Y-103661633D01*
X107435964Y-103659876D01*
X107425484Y-103654963D01*
X107409660Y-103647438D01*
X107389627Y-103637840D01*
X107366522Y-103626712D01*
X107358879Y-103623019D01*
X107331521Y-103609809D01*
X107303560Y-103596338D01*
X107277055Y-103583597D01*
X107254062Y-103572573D01*
X107236684Y-103564278D01*
X107214231Y-103553603D01*
X107188060Y-103541161D01*
X107162099Y-103528820D01*
X107147784Y-103522015D01*
X107125236Y-103511259D01*
X107098456Y-103498428D01*
X107070827Y-103485145D01*
X107046184Y-103473252D01*
X106999314Y-103450605D01*
X106952520Y-103428050D01*
X106907617Y-103406459D01*
X106866422Y-103386706D01*
X106830750Y-103369665D01*
X106826050Y-103367426D01*
X106803035Y-103356449D01*
X106775963Y-103343511D01*
X106748408Y-103330319D01*
X106726567Y-103319844D01*
X106703105Y-103308603D01*
X106678473Y-103296843D01*
X106655618Y-103285968D01*
X106637667Y-103277468D01*
X106550470Y-103236076D01*
X106462968Y-103193955D01*
X106440618Y-103183108D01*
X106416056Y-103171223D01*
X106391727Y-103159545D01*
X106369641Y-103149032D01*
X106351806Y-103140642D01*
X106343251Y-103136692D01*
X106310296Y-103121328D01*
X106282585Y-103107660D01*
X106260796Y-103096047D01*
X106245607Y-103086848D01*
X106238171Y-103080964D01*
X106230892Y-103071584D01*
X106222943Y-103059161D01*
X106221144Y-103055984D01*
X106213232Y-103042096D01*
X106203248Y-103025351D01*
X106192280Y-103007481D01*
X106181415Y-102990217D01*
X106171740Y-102975290D01*
X106164343Y-102964429D01*
X106160626Y-102959656D01*
X106155881Y-102953052D01*
X106155067Y-102950257D01*
X106152895Y-102945654D01*
X106146845Y-102935094D01*
X106137620Y-102919742D01*
X106125919Y-102900762D01*
X106112444Y-102879320D01*
X106111311Y-102877534D01*
X106091398Y-102846077D01*
X106074635Y-102819354D01*
X106059558Y-102794997D01*
X106044705Y-102770642D01*
X106028610Y-102743921D01*
X106026789Y-102740883D01*
X106021822Y-102733353D01*
X106019281Y-102730300D01*
X106015837Y-102725530D01*
X106010307Y-102716312D01*
X106008698Y-102713444D01*
X106002057Y-102702391D01*
X105996126Y-102694028D01*
X105995258Y-102693033D01*
X105990663Y-102685312D01*
X105989967Y-102681832D01*
X105986993Y-102674687D01*
X105983617Y-102671033D01*
X105979289Y-102664705D01*
X105977236Y-102656829D01*
X105978062Y-102650956D01*
X105980018Y-102649867D01*
X105984715Y-102651857D01*
G37*
X105984715Y-102651857D02*
X105994784Y-102657149D01*
X106008315Y-102664728D01*
X106012827Y-102667332D01*
X106029012Y-102676730D01*
X106044190Y-102685529D01*
X106055433Y-102692034D01*
X106056642Y-102692732D01*
X106070510Y-102700735D01*
X106084158Y-102708617D01*
X106092249Y-102713265D01*
X106106217Y-102721259D01*
X106124581Y-102731753D01*
X106145862Y-102743903D01*
X106165650Y-102755190D01*
X106187610Y-102767741D01*
X106207307Y-102779052D01*
X106223446Y-102788376D01*
X106234729Y-102794962D01*
X106239733Y-102797979D01*
X106247589Y-102802637D01*
X106258760Y-102808744D01*
X106260900Y-102809868D01*
X106270244Y-102814902D01*
X106284985Y-102823032D01*
X106303162Y-102833168D01*
X106322810Y-102844221D01*
X106324400Y-102845120D01*
X106344077Y-102856176D01*
X106362440Y-102866368D01*
X106377530Y-102874616D01*
X106387386Y-102879839D01*
X106387900Y-102880100D01*
X106399999Y-102886372D01*
X106410173Y-102891947D01*
X106411184Y-102892535D01*
X106417964Y-102896329D01*
X106430542Y-102903195D01*
X106447243Y-102912225D01*
X106466391Y-102922509D01*
X106470450Y-102924681D01*
X106490889Y-102935630D01*
X106510195Y-102946009D01*
X106526340Y-102954724D01*
X106537293Y-102960682D01*
X106538184Y-102961171D01*
X106555338Y-102970406D01*
X106579009Y-102982835D01*
X106608116Y-102997913D01*
X106641580Y-103015094D01*
X106678321Y-103033835D01*
X106717259Y-103053591D01*
X106757314Y-103073815D01*
X106797406Y-103093964D01*
X106836455Y-103113492D01*
X106873382Y-103131855D01*
X106907106Y-103148508D01*
X106936548Y-103162904D01*
X106960627Y-103174501D01*
X106965750Y-103176931D01*
X107003233Y-103194507D01*
X107046438Y-103214548D01*
X107093334Y-103236118D01*
X107141887Y-103258280D01*
X107181650Y-103276303D01*
X107233360Y-103299252D01*
X107289701Y-103323539D01*
X107348239Y-103348151D01*
X107406543Y-103372080D01*
X107462180Y-103394315D01*
X107512719Y-103413847D01*
X107513967Y-103414318D01*
X107535852Y-103422624D01*
X107555440Y-103430132D01*
X107571123Y-103436220D01*
X107581295Y-103440267D01*
X107583817Y-103441334D01*
X107596180Y-103446360D01*
X107615303Y-103453420D01*
X107639846Y-103462076D01*
X107668471Y-103471888D01*
X107699840Y-103482418D01*
X107732613Y-103493228D01*
X107765453Y-103503879D01*
X107797021Y-103513931D01*
X107825978Y-103522948D01*
X107850985Y-103530490D01*
X107870705Y-103536118D01*
X107881597Y-103538907D01*
X107904210Y-103544131D01*
X107940217Y-103618757D01*
X107953934Y-103647134D01*
X107970007Y-103680302D01*
X107987070Y-103715444D01*
X108003755Y-103749748D01*
X108017552Y-103778050D01*
X108031054Y-103805753D01*
X108044653Y-103833724D01*
X108057435Y-103860082D01*
X108068489Y-103882946D01*
X108076902Y-103900435D01*
X108078097Y-103902933D01*
X108086688Y-103920910D01*
X108097787Y-103944133D01*
X108110249Y-103970209D01*
X108122932Y-103996746D01*
X108129689Y-104010883D01*
X108142376Y-104037277D01*
X108157500Y-104068506D01*
X108173727Y-104101826D01*
X108189721Y-104134494D01*
X108202082Y-104159594D01*
X108213936Y-104183796D01*
X108224396Y-104205560D01*
X108232909Y-104223703D01*
X108238923Y-104237043D01*
X108241886Y-104244395D01*
X108242100Y-104245319D01*
X108245031Y-104249835D01*
X108246333Y-104250067D01*
X108250274Y-104253406D01*
X108250567Y-104255321D01*
X108252330Y-104261434D01*
X108256995Y-104272842D01*
X108263628Y-104287292D01*
X108265058Y-104290246D01*
X108271564Y-104303622D01*
X108280859Y-104322811D01*
X108292065Y-104345992D01*
X108304302Y-104371347D01*
X108316238Y-104396116D01*
X108330612Y-104425901D01*
X108346685Y-104459097D01*
X108362988Y-104492672D01*
X108378049Y-104523597D01*
X108386413Y-104540713D01*
X108397176Y-104562942D01*
X108406502Y-104582675D01*
X108413793Y-104598609D01*
X108418453Y-104609438D01*
X108419900Y-104613738D01*
X108422893Y-104618163D01*
X108424133Y-104618366D01*
X108428110Y-104621685D01*
X108428367Y-104623413D01*
X108430105Y-104629699D01*
X108434636Y-104640756D01*
X108440933Y-104654497D01*
X108447973Y-104668832D01*
X108454728Y-104681674D01*
X108460173Y-104690935D01*
X108463284Y-104694527D01*
X108463292Y-104694527D01*
X108466306Y-104691252D01*
X108466467Y-104689742D01*
X108468247Y-104684448D01*
X108473158Y-104672993D01*
X108480558Y-104656797D01*
X108489806Y-104637280D01*
X108495672Y-104625184D01*
X108508225Y-104599429D01*
X108522897Y-104569206D01*
X108538151Y-104537683D01*
X108552453Y-104508029D01*
X108557412Y-104497716D01*
X108570149Y-104471317D01*
X108583700Y-104443428D01*
X108596794Y-104416651D01*
X108608161Y-104393590D01*
X108612874Y-104384118D01*
X108621783Y-104365822D01*
X108629076Y-104349941D01*
X108634000Y-104338183D01*
X108635800Y-104332260D01*
X108638204Y-104326859D01*
X108640034Y-104326266D01*
X108644121Y-104323026D01*
X108644267Y-104321891D01*
X108646057Y-104316972D01*
X108651074Y-104305610D01*
X108658783Y-104288948D01*
X108668654Y-104268130D01*
X108680151Y-104244297D01*
X108686185Y-104231932D01*
X108699400Y-104204867D01*
X108712323Y-104178241D01*
X108724149Y-104153726D01*
X108734074Y-104132991D01*
X108741293Y-104117708D01*
X108742734Y-104114600D01*
X108748381Y-104102450D01*
X108755217Y-104087949D01*
X108763580Y-104070397D01*
X108773808Y-104049093D01*
X108786239Y-104023336D01*
X108801210Y-103992426D01*
X108819059Y-103955662D01*
X108840124Y-103912342D01*
X108851914Y-103888117D01*
X108865404Y-103860340D01*
X108879594Y-103831007D01*
X108893324Y-103802528D01*
X108905428Y-103777315D01*
X108913161Y-103761117D01*
X108924839Y-103736627D01*
X108938467Y-103708160D01*
X108952298Y-103679356D01*
X108963898Y-103655283D01*
X108974698Y-103632824D01*
X108985341Y-103610514D01*
X108994710Y-103590705D01*
X109001690Y-103575748D01*
X109002582Y-103573805D01*
X109007081Y-103563831D01*
X109010890Y-103556508D01*
X109015353Y-103551044D01*
X109021816Y-103546647D01*
X109031623Y-103542525D01*
X109046118Y-103537887D01*
X109066645Y-103531940D01*
X109080300Y-103528024D01*
X109132756Y-103512137D01*
X109191470Y-103492967D01*
X109255126Y-103471011D01*
X109322408Y-103446769D01*
X109391999Y-103420739D01*
X109462582Y-103393420D01*
X109532842Y-103365310D01*
X109601461Y-103336909D01*
X109667124Y-103308715D01*
X109712308Y-103288608D01*
X109730226Y-103280555D01*
X109745116Y-103273969D01*
X109755412Y-103269533D01*
X109759541Y-103267933D01*
X109763769Y-103266257D01*
X109774027Y-103261717D01*
X109788682Y-103255046D01*
X109802751Y-103248540D01*
X109820624Y-103240230D01*
X109843944Y-103229400D01*
X109870477Y-103217088D01*
X109897986Y-103204331D01*
X109918500Y-103194824D01*
X109936890Y-103186134D01*
X109961765Y-103174123D01*
X109992068Y-103159320D01*
X110026743Y-103142253D01*
X110064732Y-103123450D01*
X110104980Y-103103440D01*
X110146428Y-103082751D01*
X110188022Y-103061910D01*
X110228703Y-103041446D01*
X110267416Y-103021886D01*
X110303103Y-103003761D01*
X110334708Y-102987596D01*
X110361174Y-102973921D01*
X110375700Y-102966311D01*
X110405742Y-102950317D01*
X110441478Y-102931078D01*
X110481232Y-102909513D01*
X110523325Y-102886541D01*
X110566079Y-102863080D01*
X110607816Y-102840049D01*
X110646859Y-102818366D01*
X110681530Y-102798950D01*
X110684734Y-102797145D01*
X110708911Y-102783502D01*
X110727879Y-102772764D01*
X110743812Y-102763692D01*
X110758884Y-102755047D01*
X110775267Y-102745590D01*
X110780536Y-102742540D01*
X110820747Y-102719301D01*
X110854218Y-102700059D01*
X110881501Y-102684509D01*
X110903150Y-102672348D01*
X110919717Y-102663273D01*
X110931755Y-102656980D01*
X110939819Y-102653165D01*
X110944459Y-102651526D01*
X110946136Y-102651625D01*
X110946230Y-102656874D01*
X110942403Y-102665527D01*
X110942130Y-102665982D01*
X110936516Y-102675366D01*
X110928401Y-102689155D01*
X110919511Y-102704418D01*
X110919232Y-102704900D01*
X110908344Y-102723226D01*
X110895676Y-102743859D01*
X110885032Y-102760674D01*
X110876426Y-102774528D01*
X110870003Y-102785899D01*
X110866894Y-102792750D01*
X110866767Y-102793483D01*
X110864405Y-102797853D01*
X110863496Y-102798033D01*
X110859695Y-102801433D01*
X110854068Y-102809963D01*
X110851895Y-102813908D01*
X110846250Y-102824231D01*
X110842156Y-102830945D01*
X110841407Y-102831900D01*
X110837747Y-102836889D01*
X110834261Y-102842483D01*
X110830184Y-102849210D01*
X110822666Y-102861438D01*
X110812746Y-102877486D01*
X110801462Y-102895670D01*
X110800395Y-102897387D01*
X110789143Y-102915781D01*
X110779353Y-102932346D01*
X110772018Y-102945360D01*
X110768135Y-102953100D01*
X110767989Y-102953479D01*
X110763877Y-102960893D01*
X110760581Y-102963133D01*
X110756835Y-102966387D01*
X110756700Y-102967534D01*
X110754482Y-102973136D01*
X110748711Y-102983298D01*
X110741884Y-102993935D01*
X110734096Y-103006251D01*
X110728729Y-103016172D01*
X110727067Y-103020932D01*
X110724432Y-103026693D01*
X110723318Y-103027339D01*
X110719594Y-103031376D01*
X110712783Y-103040994D01*
X110704079Y-103054464D01*
X110699718Y-103061558D01*
X110690584Y-103076035D01*
X110682797Y-103087248D01*
X110677529Y-103093559D01*
X110676243Y-103094366D01*
X110671293Y-103096094D01*
X110660206Y-103100836D01*
X110644469Y-103107930D01*
X110625572Y-103116715D01*
X110619117Y-103119767D01*
X110599727Y-103128921D01*
X110583241Y-103136609D01*
X110571078Y-103142176D01*
X110564659Y-103144967D01*
X110564041Y-103145167D01*
X110559771Y-103146840D01*
X110549638Y-103151327D01*
X110535434Y-103157823D01*
X110527292Y-103161610D01*
X110503537Y-103172667D01*
X110473223Y-103186698D01*
X110437498Y-103203174D01*
X110397509Y-103221566D01*
X110363000Y-103237404D01*
X110314667Y-103259582D01*
X110271559Y-103279410D01*
X110232613Y-103297392D01*
X110196769Y-103314033D01*
X110162968Y-103329837D01*
X110130147Y-103345309D01*
X110097246Y-103360954D01*
X110063205Y-103377276D01*
X110026962Y-103394779D01*
X109987458Y-103413968D01*
X109943630Y-103435348D01*
X109894420Y-103459424D01*
X109838765Y-103486699D01*
X109833834Y-103489117D01*
X109802512Y-103504454D01*
X109771107Y-103519792D01*
X109741151Y-103534385D01*
X109714174Y-103547488D01*
X109691709Y-103558357D01*
X109675285Y-103566246D01*
X109675084Y-103566342D01*
X109657917Y-103574582D01*
X109634871Y-103585718D01*
X109607667Y-103598914D01*
X109578028Y-103613335D01*
X109547672Y-103628145D01*
X109529034Y-103637260D01*
X109495159Y-103653842D01*
X109457285Y-103672378D01*
X109418111Y-103691547D01*
X109380335Y-103710029D01*
X109346657Y-103726504D01*
X109337774Y-103730848D01*
X109307424Y-103745832D01*
X109283887Y-103757821D01*
X109266273Y-103767332D01*
X109253692Y-103774883D01*
X109245253Y-103780989D01*
X109240065Y-103786169D01*
X109238436Y-103788532D01*
X109232618Y-103797065D01*
X109228241Y-103801247D01*
X109227839Y-103801333D01*
X109224230Y-103804790D01*
X109222313Y-103809180D01*
X109218211Y-103816529D01*
X109210240Y-103827261D01*
X109203135Y-103835639D01*
X109192920Y-103847799D01*
X109184476Y-103859189D01*
X109180999Y-103864833D01*
X109174056Y-103875775D01*
X109165888Y-103886000D01*
X109158324Y-103895214D01*
X109148523Y-103908356D01*
X109140488Y-103919838D01*
X109131753Y-103932513D01*
X109124473Y-103942665D01*
X109120517Y-103947742D01*
X109117312Y-103951472D01*
X109112725Y-103957242D01*
X109106101Y-103965923D01*
X109096787Y-103978388D01*
X109084129Y-103995508D01*
X109067471Y-104018157D01*
X109057275Y-104032050D01*
X109042562Y-104052013D01*
X109028672Y-104070691D01*
X109016787Y-104086505D01*
X109008090Y-104097880D01*
X109005210Y-104101528D01*
X108996246Y-104112956D01*
X108988570Y-104123319D01*
X108987167Y-104125339D01*
X108975109Y-104143004D01*
X108967137Y-104154378D01*
X108962694Y-104160251D01*
X108961854Y-104161167D01*
X108957908Y-104165981D01*
X108949471Y-104177075D01*
X108936987Y-104193848D01*
X108920902Y-104215701D01*
X108901663Y-104242036D01*
X108898898Y-104245833D01*
X108887634Y-104261260D01*
X108877980Y-104274393D01*
X108871177Y-104283549D01*
X108868762Y-104286706D01*
X108864410Y-104292375D01*
X108855806Y-104303805D01*
X108843728Y-104319949D01*
X108828955Y-104339759D01*
X108812265Y-104362184D01*
X108794436Y-104386178D01*
X108776246Y-104410691D01*
X108758475Y-104434675D01*
X108741900Y-104457081D01*
X108727298Y-104476862D01*
X108715450Y-104492968D01*
X108707133Y-104504351D01*
X108704515Y-104507981D01*
X108698248Y-104516548D01*
X108689104Y-104528816D01*
X108678763Y-104542558D01*
X108668903Y-104555550D01*
X108661204Y-104565567D01*
X108657945Y-104569683D01*
X108653992Y-104575024D01*
X108646696Y-104585318D01*
X108637496Y-104598531D01*
X108635603Y-104601273D01*
X108625452Y-104615650D01*
X108616123Y-104628258D01*
X108609449Y-104636625D01*
X108608886Y-104637257D01*
X108601689Y-104646232D01*
X108593089Y-104658374D01*
X108590233Y-104662722D01*
X108582763Y-104673974D01*
X108576535Y-104682668D01*
X108574813Y-104684800D01*
X108572013Y-104688019D01*
X108568927Y-104691765D01*
X108564551Y-104697331D01*
X108557878Y-104706013D01*
X108547902Y-104719103D01*
X108536788Y-104733725D01*
X108511860Y-104766533D01*
X108461814Y-104766533D01*
X108436925Y-104766151D01*
X108419857Y-104764965D01*
X108409999Y-104762916D01*
X108407284Y-104761241D01*
X108393538Y-104744724D01*
X108385191Y-104733963D01*
X108381891Y-104728501D01*
X108381805Y-104728023D01*
X108379318Y-104723301D01*
X108374128Y-104716649D01*
X108365450Y-104705965D01*
X108359503Y-104698010D01*
X108355245Y-104692167D01*
X108346898Y-104680841D01*
X108335347Y-104665221D01*
X108321473Y-104646495D01*
X108306162Y-104625853D01*
X108290295Y-104604485D01*
X108274756Y-104583580D01*
X108260429Y-104564326D01*
X108248196Y-104547914D01*
X108238940Y-104535532D01*
X108233546Y-104528370D01*
X108232760Y-104527350D01*
X108228653Y-104521871D01*
X108221297Y-104511840D01*
X108213537Y-104501159D01*
X108203312Y-104487040D01*
X108194952Y-104475545D01*
X108187162Y-104464922D01*
X108178650Y-104453417D01*
X108168123Y-104439279D01*
X108154287Y-104420755D01*
X108148162Y-104412560D01*
X108134660Y-104394477D01*
X108122419Y-104378040D01*
X108112621Y-104364839D01*
X108106448Y-104356467D01*
X108105679Y-104355410D01*
X108095463Y-104341420D01*
X108082356Y-104323656D01*
X108067207Y-104303251D01*
X108050864Y-104281336D01*
X108034177Y-104259042D01*
X108017996Y-104237503D01*
X108003169Y-104217850D01*
X107990547Y-104201215D01*
X107980978Y-104188729D01*
X107975312Y-104181526D01*
X107974421Y-104180477D01*
X107968799Y-104173364D01*
X107966933Y-104169483D01*
X107964478Y-104164512D01*
X107959525Y-104157937D01*
X107948166Y-104144303D01*
X107940280Y-104134184D01*
X107933715Y-104124771D01*
X107931290Y-104121058D01*
X107924732Y-104111299D01*
X107919697Y-104104471D01*
X107919406Y-104104127D01*
X107915725Y-104099385D01*
X107908164Y-104089333D01*
X107897849Y-104075491D01*
X107885906Y-104059377D01*
X107873459Y-104042510D01*
X107861634Y-104026411D01*
X107851556Y-104012597D01*
X107849242Y-104009402D01*
X107841970Y-103999604D01*
X107832817Y-103987590D01*
X107830408Y-103984479D01*
X107823375Y-103974906D01*
X107819222Y-103968241D01*
X107818747Y-103966909D01*
X107816114Y-103962457D01*
X107809563Y-103954498D01*
X107806951Y-103951617D01*
X107796524Y-103939004D01*
X107786764Y-103925142D01*
X107785914Y-103923779D01*
X107777164Y-103910907D01*
X107767817Y-103899140D01*
X107766592Y-103897784D01*
X107757274Y-103886439D01*
X107748262Y-103873582D01*
X107747712Y-103872705D01*
X107739728Y-103860929D01*
X107731854Y-103850927D01*
X107731030Y-103850017D01*
X107724064Y-103841610D01*
X107715037Y-103829580D01*
X107710031Y-103822500D01*
X107700697Y-103809482D01*
X107691686Y-103797736D01*
X107687981Y-103793277D01*
X107681769Y-103785248D01*
X107679070Y-103779897D01*
X107679067Y-103779801D01*
X107675508Y-103776634D01*
X107665969Y-103770903D01*
X107652158Y-103763594D01*
X107644142Y-103759635D01*
X107629537Y-103752584D01*
X107609088Y-103742710D01*
X107584575Y-103730874D01*
X107557777Y-103717934D01*
X107530474Y-103704750D01*
X107525200Y-103702204D01*
X107500731Y-103690413D01*
X107478956Y-103679970D01*
X107460984Y-103671401D01*
X107447921Y-103665234D01*
X107440875Y-103661995D01*
X107439963Y-103661633D01*
X107435964Y-103659876D01*
X107425484Y-103654963D01*
X107409660Y-103647438D01*
X107389627Y-103637840D01*
X107366522Y-103626712D01*
X107358879Y-103623019D01*
X107331521Y-103609809D01*
X107303560Y-103596338D01*
X107277055Y-103583597D01*
X107254062Y-103572573D01*
X107236684Y-103564278D01*
X107214231Y-103553603D01*
X107188060Y-103541161D01*
X107162099Y-103528820D01*
X107147784Y-103522015D01*
X107125236Y-103511259D01*
X107098456Y-103498428D01*
X107070827Y-103485145D01*
X107046184Y-103473252D01*
X106999314Y-103450605D01*
X106952520Y-103428050D01*
X106907617Y-103406459D01*
X106866422Y-103386706D01*
X106830750Y-103369665D01*
X106826050Y-103367426D01*
X106803035Y-103356449D01*
X106775963Y-103343511D01*
X106748408Y-103330319D01*
X106726567Y-103319844D01*
X106703105Y-103308603D01*
X106678473Y-103296843D01*
X106655618Y-103285968D01*
X106637667Y-103277468D01*
X106550470Y-103236076D01*
X106462968Y-103193955D01*
X106440618Y-103183108D01*
X106416056Y-103171223D01*
X106391727Y-103159545D01*
X106369641Y-103149032D01*
X106351806Y-103140642D01*
X106343251Y-103136692D01*
X106310296Y-103121328D01*
X106282585Y-103107660D01*
X106260796Y-103096047D01*
X106245607Y-103086848D01*
X106238171Y-103080964D01*
X106230892Y-103071584D01*
X106222943Y-103059161D01*
X106221144Y-103055984D01*
X106213232Y-103042096D01*
X106203248Y-103025351D01*
X106192280Y-103007481D01*
X106181415Y-102990217D01*
X106171740Y-102975290D01*
X106164343Y-102964429D01*
X106160626Y-102959656D01*
X106155881Y-102953052D01*
X106155067Y-102950257D01*
X106152895Y-102945654D01*
X106146845Y-102935094D01*
X106137620Y-102919742D01*
X106125919Y-102900762D01*
X106112444Y-102879320D01*
X106111311Y-102877534D01*
X106091398Y-102846077D01*
X106074635Y-102819354D01*
X106059558Y-102794997D01*
X106044705Y-102770642D01*
X106028610Y-102743921D01*
X106026789Y-102740883D01*
X106021822Y-102733353D01*
X106019281Y-102730300D01*
X106015837Y-102725530D01*
X106010307Y-102716312D01*
X106008698Y-102713444D01*
X106002057Y-102702391D01*
X105996126Y-102694028D01*
X105995258Y-102693033D01*
X105990663Y-102685312D01*
X105989967Y-102681832D01*
X105986993Y-102674687D01*
X105983617Y-102671033D01*
X105979289Y-102664705D01*
X105977236Y-102656829D01*
X105978062Y-102650956D01*
X105980018Y-102649867D01*
X105984715Y-102651857D01*
G36*
X106488415Y-103460284D02*
G01*
X106505536Y-103464662D01*
X106529845Y-103471899D01*
X106533491Y-103473027D01*
X106556610Y-103480182D01*
X106584267Y-103488712D01*
X106612901Y-103497519D01*
X106637667Y-103505114D01*
X106661013Y-103512266D01*
X106683920Y-103519297D01*
X106703952Y-103525456D01*
X106718674Y-103529997D01*
X106720217Y-103530475D01*
X106738141Y-103536001D01*
X106762323Y-103543418D01*
X106790915Y-103552163D01*
X106822071Y-103561671D01*
X106853946Y-103571379D01*
X106884693Y-103580724D01*
X106900134Y-103585407D01*
X106923802Y-103592608D01*
X106949650Y-103600517D01*
X106973500Y-103607855D01*
X106982684Y-103610697D01*
X107004202Y-103617337D01*
X107029649Y-103625135D01*
X107054845Y-103632812D01*
X107065234Y-103635961D01*
X107089476Y-103643335D01*
X107117345Y-103651876D01*
X107144391Y-103660218D01*
X107156250Y-103663899D01*
X107184903Y-103672801D01*
X107215441Y-103682263D01*
X107246471Y-103691856D01*
X107276600Y-103701151D01*
X107304436Y-103709718D01*
X107328586Y-103717128D01*
X107347656Y-103722953D01*
X107360255Y-103726762D01*
X107361567Y-103727153D01*
X107377466Y-103731903D01*
X107395564Y-103737351D01*
X107402842Y-103739554D01*
X107420690Y-103744956D01*
X107439585Y-103750652D01*
X107446234Y-103752650D01*
X107474120Y-103761044D01*
X107498188Y-103768365D01*
X107522438Y-103775838D01*
X107549950Y-103784400D01*
X107579015Y-103793451D01*
X107601403Y-103800364D01*
X107618508Y-103805556D01*
X107631724Y-103809444D01*
X107642446Y-103812444D01*
X107652069Y-103814975D01*
X107652608Y-103815113D01*
X107663495Y-103818450D01*
X107669891Y-103821505D01*
X107670600Y-103822451D01*
X107673181Y-103827002D01*
X107679694Y-103835280D01*
X107683300Y-103839433D01*
X107690943Y-103848491D01*
X107695469Y-103854818D01*
X107696000Y-103856114D01*
X107698598Y-103860567D01*
X107704953Y-103868213D01*
X107705947Y-103869297D01*
X107714455Y-103879533D01*
X107724151Y-103892660D01*
X107727676Y-103897828D01*
X107734973Y-103908026D01*
X107740639Y-103914468D01*
X107742482Y-103915633D01*
X107746524Y-103918954D01*
X107749328Y-103923613D01*
X107754277Y-103931490D01*
X107762486Y-103942400D01*
X107767055Y-103947954D01*
X107776083Y-103959020D01*
X107787974Y-103974191D01*
X107800599Y-103990737D01*
X107804588Y-103996067D01*
X107815181Y-104010142D01*
X107823956Y-104021510D01*
X107829644Y-104028537D01*
X107830959Y-104029933D01*
X107834566Y-104034039D01*
X107841975Y-104043307D01*
X107851912Y-104056124D01*
X107857847Y-104063912D01*
X107869361Y-104078924D01*
X107879778Y-104092179D01*
X107887479Y-104101632D01*
X107889652Y-104104128D01*
X107897109Y-104113091D01*
X107905871Y-104124701D01*
X107907722Y-104127300D01*
X107915602Y-104138321D01*
X107923171Y-104148314D01*
X107932548Y-104160012D01*
X107941831Y-104171296D01*
X107950853Y-104182530D01*
X107961682Y-104196459D01*
X107967231Y-104203763D01*
X107978992Y-104219002D01*
X107992048Y-104235344D01*
X107997407Y-104241863D01*
X108009242Y-104256475D01*
X108022218Y-104273097D01*
X108028816Y-104281817D01*
X108047303Y-104306366D01*
X108066466Y-104331155D01*
X108088658Y-104359227D01*
X108089700Y-104360534D01*
X108101061Y-104374844D01*
X108111931Y-104388643D01*
X108119333Y-104398141D01*
X108128909Y-104410442D01*
X108139746Y-104424209D01*
X108142617Y-104427827D01*
X108153755Y-104441938D01*
X108168294Y-104460512D01*
X108184761Y-104481648D01*
X108201679Y-104503447D01*
X108217573Y-104524008D01*
X108230970Y-104541433D01*
X108239312Y-104552386D01*
X108250106Y-104566292D01*
X108260843Y-104579516D01*
X108266927Y-104586616D01*
X108277222Y-104599013D01*
X108287417Y-104612571D01*
X108288508Y-104614133D01*
X108297697Y-104626429D01*
X108307100Y-104637549D01*
X108308518Y-104639052D01*
X108316458Y-104648851D01*
X108317692Y-104654695D01*
X108313008Y-104656185D01*
X108309379Y-104653202D01*
X108300182Y-104644585D01*
X108285805Y-104630718D01*
X108266637Y-104611987D01*
X108243064Y-104588776D01*
X108215474Y-104561469D01*
X108184255Y-104530451D01*
X108149794Y-104496107D01*
X108112480Y-104458822D01*
X108072699Y-104418979D01*
X108030840Y-104376963D01*
X107987290Y-104333159D01*
X107979115Y-104324927D01*
X107650513Y-103993950D01*
X107574831Y-103977593D01*
X107549137Y-103972069D01*
X107524951Y-103966921D01*
X107504040Y-103962522D01*
X107488170Y-103959243D01*
X107480100Y-103957642D01*
X107467313Y-103955103D01*
X107449349Y-103951378D01*
X107429296Y-103947110D01*
X107420834Y-103945276D01*
X107398529Y-103940438D01*
X107374778Y-103935326D01*
X107353822Y-103930854D01*
X107348867Y-103929806D01*
X107319002Y-103923493D01*
X107294843Y-103918355D01*
X107273807Y-103913831D01*
X107253314Y-103909364D01*
X107230780Y-103904395D01*
X107204934Y-103898656D01*
X107181458Y-103893479D01*
X107159292Y-103888674D01*
X107140529Y-103884689D01*
X107127260Y-103881971D01*
X107124500Y-103881439D01*
X107116148Y-103879832D01*
X107105624Y-103877708D01*
X107091856Y-103874841D01*
X107073771Y-103871003D01*
X107050298Y-103865969D01*
X107020366Y-103859510D01*
X106995384Y-103854105D01*
X106955960Y-103845599D01*
X106922876Y-103838535D01*
X106894210Y-103832502D01*
X106878967Y-103829339D01*
X106862603Y-103825899D01*
X106840688Y-103821202D01*
X106815935Y-103815835D01*
X106791056Y-103810383D01*
X106787950Y-103809698D01*
X106763902Y-103804477D01*
X106740243Y-103799498D01*
X106719451Y-103795273D01*
X106704003Y-103792313D01*
X106702022Y-103791962D01*
X106675361Y-103787314D01*
X106658412Y-103759399D01*
X106649512Y-103744727D01*
X106641777Y-103731950D01*
X106636733Y-103723589D01*
X106636389Y-103723017D01*
X106631497Y-103715493D01*
X106629061Y-103712433D01*
X106625820Y-103707904D01*
X106619772Y-103698383D01*
X106614161Y-103689150D01*
X106606258Y-103675932D01*
X106599435Y-103664542D01*
X106596417Y-103659517D01*
X106591380Y-103651045D01*
X106584109Y-103638698D01*
X106579567Y-103630946D01*
X106572559Y-103619860D01*
X106566926Y-103612557D01*
X106564642Y-103610837D01*
X106561821Y-103607390D01*
X106561467Y-103604483D01*
X106559425Y-103598846D01*
X106557692Y-103598133D01*
X106553966Y-103594545D01*
X106551262Y-103587550D01*
X106547862Y-103579621D01*
X106544453Y-103576967D01*
X106540511Y-103573673D01*
X106540300Y-103572168D01*
X106538162Y-103567159D01*
X106532420Y-103556697D01*
X106524084Y-103542431D01*
X106514165Y-103526006D01*
X106503673Y-103509071D01*
X106493616Y-103493272D01*
X106485006Y-103480257D01*
X106478852Y-103471673D01*
X106478146Y-103470800D01*
X106473347Y-103464021D01*
X106473004Y-103459990D01*
X106477799Y-103458735D01*
X106488415Y-103460284D01*
G37*
X106488415Y-103460284D02*
X106505536Y-103464662D01*
X106529845Y-103471899D01*
X106533491Y-103473027D01*
X106556610Y-103480182D01*
X106584267Y-103488712D01*
X106612901Y-103497519D01*
X106637667Y-103505114D01*
X106661013Y-103512266D01*
X106683920Y-103519297D01*
X106703952Y-103525456D01*
X106718674Y-103529997D01*
X106720217Y-103530475D01*
X106738141Y-103536001D01*
X106762323Y-103543418D01*
X106790915Y-103552163D01*
X106822071Y-103561671D01*
X106853946Y-103571379D01*
X106884693Y-103580724D01*
X106900134Y-103585407D01*
X106923802Y-103592608D01*
X106949650Y-103600517D01*
X106973500Y-103607855D01*
X106982684Y-103610697D01*
X107004202Y-103617337D01*
X107029649Y-103625135D01*
X107054845Y-103632812D01*
X107065234Y-103635961D01*
X107089476Y-103643335D01*
X107117345Y-103651876D01*
X107144391Y-103660218D01*
X107156250Y-103663899D01*
X107184903Y-103672801D01*
X107215441Y-103682263D01*
X107246471Y-103691856D01*
X107276600Y-103701151D01*
X107304436Y-103709718D01*
X107328586Y-103717128D01*
X107347656Y-103722953D01*
X107360255Y-103726762D01*
X107361567Y-103727153D01*
X107377466Y-103731903D01*
X107395564Y-103737351D01*
X107402842Y-103739554D01*
X107420690Y-103744956D01*
X107439585Y-103750652D01*
X107446234Y-103752650D01*
X107474120Y-103761044D01*
X107498188Y-103768365D01*
X107522438Y-103775838D01*
X107549950Y-103784400D01*
X107579015Y-103793451D01*
X107601403Y-103800364D01*
X107618508Y-103805556D01*
X107631724Y-103809444D01*
X107642446Y-103812444D01*
X107652069Y-103814975D01*
X107652608Y-103815113D01*
X107663495Y-103818450D01*
X107669891Y-103821505D01*
X107670600Y-103822451D01*
X107673181Y-103827002D01*
X107679694Y-103835280D01*
X107683300Y-103839433D01*
X107690943Y-103848491D01*
X107695469Y-103854818D01*
X107696000Y-103856114D01*
X107698598Y-103860567D01*
X107704953Y-103868213D01*
X107705947Y-103869297D01*
X107714455Y-103879533D01*
X107724151Y-103892660D01*
X107727676Y-103897828D01*
X107734973Y-103908026D01*
X107740639Y-103914468D01*
X107742482Y-103915633D01*
X107746524Y-103918954D01*
X107749328Y-103923613D01*
X107754277Y-103931490D01*
X107762486Y-103942400D01*
X107767055Y-103947954D01*
X107776083Y-103959020D01*
X107787974Y-103974191D01*
X107800599Y-103990737D01*
X107804588Y-103996067D01*
X107815181Y-104010142D01*
X107823956Y-104021510D01*
X107829644Y-104028537D01*
X107830959Y-104029933D01*
X107834566Y-104034039D01*
X107841975Y-104043307D01*
X107851912Y-104056124D01*
X107857847Y-104063912D01*
X107869361Y-104078924D01*
X107879778Y-104092179D01*
X107887479Y-104101632D01*
X107889652Y-104104128D01*
X107897109Y-104113091D01*
X107905871Y-104124701D01*
X107907722Y-104127300D01*
X107915602Y-104138321D01*
X107923171Y-104148314D01*
X107932548Y-104160012D01*
X107941831Y-104171296D01*
X107950853Y-104182530D01*
X107961682Y-104196459D01*
X107967231Y-104203763D01*
X107978992Y-104219002D01*
X107992048Y-104235344D01*
X107997407Y-104241863D01*
X108009242Y-104256475D01*
X108022218Y-104273097D01*
X108028816Y-104281817D01*
X108047303Y-104306366D01*
X108066466Y-104331155D01*
X108088658Y-104359227D01*
X108089700Y-104360534D01*
X108101061Y-104374844D01*
X108111931Y-104388643D01*
X108119333Y-104398141D01*
X108128909Y-104410442D01*
X108139746Y-104424209D01*
X108142617Y-104427827D01*
X108153755Y-104441938D01*
X108168294Y-104460512D01*
X108184761Y-104481648D01*
X108201679Y-104503447D01*
X108217573Y-104524008D01*
X108230970Y-104541433D01*
X108239312Y-104552386D01*
X108250106Y-104566292D01*
X108260843Y-104579516D01*
X108266927Y-104586616D01*
X108277222Y-104599013D01*
X108287417Y-104612571D01*
X108288508Y-104614133D01*
X108297697Y-104626429D01*
X108307100Y-104637549D01*
X108308518Y-104639052D01*
X108316458Y-104648851D01*
X108317692Y-104654695D01*
X108313008Y-104656185D01*
X108309379Y-104653202D01*
X108300182Y-104644585D01*
X108285805Y-104630718D01*
X108266637Y-104611987D01*
X108243064Y-104588776D01*
X108215474Y-104561469D01*
X108184255Y-104530451D01*
X108149794Y-104496107D01*
X108112480Y-104458822D01*
X108072699Y-104418979D01*
X108030840Y-104376963D01*
X107987290Y-104333159D01*
X107979115Y-104324927D01*
X107650513Y-103993950D01*
X107574831Y-103977593D01*
X107549137Y-103972069D01*
X107524951Y-103966921D01*
X107504040Y-103962522D01*
X107488170Y-103959243D01*
X107480100Y-103957642D01*
X107467313Y-103955103D01*
X107449349Y-103951378D01*
X107429296Y-103947110D01*
X107420834Y-103945276D01*
X107398529Y-103940438D01*
X107374778Y-103935326D01*
X107353822Y-103930854D01*
X107348867Y-103929806D01*
X107319002Y-103923493D01*
X107294843Y-103918355D01*
X107273807Y-103913831D01*
X107253314Y-103909364D01*
X107230780Y-103904395D01*
X107204934Y-103898656D01*
X107181458Y-103893479D01*
X107159292Y-103888674D01*
X107140529Y-103884689D01*
X107127260Y-103881971D01*
X107124500Y-103881439D01*
X107116148Y-103879832D01*
X107105624Y-103877708D01*
X107091856Y-103874841D01*
X107073771Y-103871003D01*
X107050298Y-103865969D01*
X107020366Y-103859510D01*
X106995384Y-103854105D01*
X106955960Y-103845599D01*
X106922876Y-103838535D01*
X106894210Y-103832502D01*
X106878967Y-103829339D01*
X106862603Y-103825899D01*
X106840688Y-103821202D01*
X106815935Y-103815835D01*
X106791056Y-103810383D01*
X106787950Y-103809698D01*
X106763902Y-103804477D01*
X106740243Y-103799498D01*
X106719451Y-103795273D01*
X106704003Y-103792313D01*
X106702022Y-103791962D01*
X106675361Y-103787314D01*
X106658412Y-103759399D01*
X106649512Y-103744727D01*
X106641777Y-103731950D01*
X106636733Y-103723589D01*
X106636389Y-103723017D01*
X106631497Y-103715493D01*
X106629061Y-103712433D01*
X106625820Y-103707904D01*
X106619772Y-103698383D01*
X106614161Y-103689150D01*
X106606258Y-103675932D01*
X106599435Y-103664542D01*
X106596417Y-103659517D01*
X106591380Y-103651045D01*
X106584109Y-103638698D01*
X106579567Y-103630946D01*
X106572559Y-103619860D01*
X106566926Y-103612557D01*
X106564642Y-103610837D01*
X106561821Y-103607390D01*
X106561467Y-103604483D01*
X106559425Y-103598846D01*
X106557692Y-103598133D01*
X106553966Y-103594545D01*
X106551262Y-103587550D01*
X106547862Y-103579621D01*
X106544453Y-103576967D01*
X106540511Y-103573673D01*
X106540300Y-103572168D01*
X106538162Y-103567159D01*
X106532420Y-103556697D01*
X106524084Y-103542431D01*
X106514165Y-103526006D01*
X106503673Y-103509071D01*
X106493616Y-103493272D01*
X106485006Y-103480257D01*
X106478852Y-103471673D01*
X106478146Y-103470800D01*
X106473347Y-103464021D01*
X106473004Y-103459990D01*
X106477799Y-103458735D01*
X106488415Y-103460284D01*
G36*
X110451234Y-103462667D02*
G01*
X110448089Y-103470829D01*
X110440740Y-103484368D01*
X110428900Y-103503959D01*
X110424384Y-103511193D01*
X110413769Y-103528462D01*
X110405056Y-103543322D01*
X110399128Y-103554217D01*
X110396869Y-103559591D01*
X110396867Y-103559647D01*
X110394185Y-103564068D01*
X110393092Y-103564267D01*
X110389270Y-103567830D01*
X110386906Y-103573876D01*
X110382166Y-103584625D01*
X110376922Y-103592083D01*
X110368697Y-103602711D01*
X110363227Y-103611049D01*
X110359134Y-103617866D01*
X110351469Y-103630533D01*
X110341070Y-103647674D01*
X110328775Y-103667910D01*
X110315421Y-103689863D01*
X110301847Y-103712158D01*
X110288890Y-103733416D01*
X110277389Y-103752260D01*
X110268180Y-103767313D01*
X110267623Y-103768221D01*
X110259808Y-103779866D01*
X110252448Y-103786469D01*
X110242233Y-103790278D01*
X110231981Y-103792415D01*
X110219170Y-103794934D01*
X110200360Y-103798796D01*
X110177820Y-103803526D01*
X110153821Y-103808652D01*
X110147100Y-103810104D01*
X110122871Y-103815347D01*
X110099245Y-103820446D01*
X110078573Y-103824896D01*
X110063202Y-103828190D01*
X110060317Y-103828805D01*
X110029008Y-103835463D01*
X110004619Y-103840653D01*
X109985787Y-103844666D01*
X109971150Y-103847792D01*
X109959344Y-103850322D01*
X109949009Y-103852548D01*
X109941784Y-103854109D01*
X109907168Y-103861592D01*
X109879738Y-103867501D01*
X109858405Y-103872067D01*
X109842082Y-103875521D01*
X109829683Y-103878092D01*
X109820119Y-103880011D01*
X109812667Y-103881439D01*
X109801613Y-103883655D01*
X109784392Y-103887283D01*
X109763095Y-103891877D01*
X109739814Y-103896987D01*
X109732234Y-103898671D01*
X109708757Y-103903860D01*
X109686592Y-103908691D01*
X109667828Y-103912711D01*
X109654559Y-103915469D01*
X109651800Y-103916015D01*
X109635360Y-103919380D01*
X109618851Y-103923043D01*
X109615817Y-103923761D01*
X109603317Y-103926614D01*
X109585998Y-103930375D01*
X109567341Y-103934291D01*
X109565017Y-103934769D01*
X109543413Y-103939250D01*
X109518719Y-103944456D01*
X109496114Y-103949295D01*
X109495167Y-103949500D01*
X109472792Y-103954304D01*
X109448078Y-103959545D01*
X109426206Y-103964126D01*
X109425317Y-103964310D01*
X109404995Y-103968591D01*
X109383890Y-103973150D01*
X109366475Y-103977021D01*
X109366050Y-103977118D01*
X109346753Y-103981388D01*
X109325392Y-103985926D01*
X109314354Y-103988186D01*
X109288058Y-103993460D01*
X108956802Y-104324963D01*
X108912766Y-104369002D01*
X108870388Y-104411326D01*
X108830050Y-104451554D01*
X108792140Y-104489305D01*
X108757041Y-104524197D01*
X108725140Y-104555848D01*
X108696821Y-104583877D01*
X108672469Y-104607901D01*
X108652471Y-104627540D01*
X108637211Y-104642411D01*
X108627074Y-104652133D01*
X108622446Y-104656325D01*
X108622206Y-104656466D01*
X108618950Y-104653230D01*
X108618867Y-104652306D01*
X108621484Y-104646687D01*
X108627935Y-104638174D01*
X108629473Y-104636431D01*
X108636166Y-104628563D01*
X108646845Y-104615458D01*
X108660334Y-104598595D01*
X108675459Y-104579448D01*
X108691045Y-104559495D01*
X108702796Y-104544283D01*
X108711775Y-104532647D01*
X108723510Y-104517517D01*
X108736938Y-104500255D01*
X108750996Y-104482222D01*
X108764621Y-104464778D01*
X108776751Y-104449286D01*
X108786324Y-104437106D01*
X108792276Y-104429599D01*
X108793534Y-104428056D01*
X108798303Y-104422180D01*
X108807645Y-104410422D01*
X108820931Y-104393579D01*
X108837534Y-104372451D01*
X108856825Y-104347837D01*
X108878178Y-104320534D01*
X108893038Y-104301501D01*
X108907424Y-104283100D01*
X108923260Y-104262900D01*
X108937481Y-104244811D01*
X108939511Y-104242234D01*
X108951397Y-104227158D01*
X108959722Y-104216576D01*
X108966162Y-104208327D01*
X108972391Y-104200251D01*
X108980085Y-104190190D01*
X108990918Y-104175981D01*
X108992531Y-104173867D01*
X109003778Y-104159220D01*
X109013598Y-104146625D01*
X109020509Y-104137972D01*
X109022365Y-104135767D01*
X109028032Y-104128909D01*
X109036521Y-104118142D01*
X109042505Y-104110367D01*
X109050802Y-104099583D01*
X109056971Y-104091766D01*
X109059134Y-104089200D01*
X109062533Y-104085063D01*
X109069699Y-104075934D01*
X109079269Y-104063556D01*
X109082330Y-104059567D01*
X109093628Y-104045066D01*
X109104226Y-104031887D01*
X109112101Y-104022536D01*
X109113022Y-104021510D01*
X109119553Y-104013662D01*
X109122604Y-104008645D01*
X109122634Y-104008410D01*
X109125157Y-104003861D01*
X109131412Y-103995794D01*
X109133327Y-103993550D01*
X109140746Y-103984591D01*
X109151390Y-103971212D01*
X109163400Y-103955762D01*
X109168192Y-103949500D01*
X109178933Y-103935487D01*
X109187761Y-103924148D01*
X109193417Y-103917093D01*
X109194705Y-103915633D01*
X109197236Y-103912740D01*
X109202835Y-103905733D01*
X109212009Y-103893962D01*
X109225265Y-103876778D01*
X109243110Y-103853529D01*
X109244048Y-103852305D01*
X109256341Y-103836866D01*
X109266170Y-103826685D01*
X109275834Y-103820018D01*
X109287632Y-103815122D01*
X109296860Y-103812261D01*
X109315728Y-103806626D01*
X109335637Y-103800496D01*
X109347000Y-103796891D01*
X109362493Y-103791979D01*
X109384215Y-103785220D01*
X109410284Y-103777193D01*
X109438815Y-103768478D01*
X109467928Y-103759653D01*
X109478234Y-103756547D01*
X109490618Y-103752789D01*
X109508248Y-103747398D01*
X109528283Y-103741244D01*
X109539617Y-103737751D01*
X109563492Y-103730397D01*
X109590171Y-103722201D01*
X109614997Y-103714594D01*
X109622167Y-103712402D01*
X109642225Y-103706262D01*
X109667206Y-103698595D01*
X109693941Y-103690376D01*
X109719263Y-103682575D01*
X109719534Y-103682492D01*
X109752030Y-103672473D01*
X109778038Y-103664464D01*
X109799158Y-103657976D01*
X109816989Y-103652520D01*
X109833133Y-103647607D01*
X109849189Y-103642747D01*
X109866759Y-103637450D01*
X109871934Y-103635893D01*
X109895611Y-103628731D01*
X109921468Y-103620850D01*
X109945323Y-103613529D01*
X109954484Y-103610697D01*
X109976007Y-103604061D01*
X110001459Y-103596275D01*
X110026660Y-103588618D01*
X110037034Y-103585484D01*
X110056327Y-103579636D01*
X110073553Y-103574349D01*
X110086509Y-103570305D01*
X110092067Y-103568506D01*
X110100138Y-103565918D01*
X110114328Y-103561509D01*
X110132647Y-103555891D01*
X110153108Y-103549679D01*
X110153450Y-103549576D01*
X110179255Y-103541731D01*
X110208941Y-103532630D01*
X110238314Y-103523561D01*
X110257167Y-103517696D01*
X110281335Y-103510210D01*
X110306650Y-103502477D01*
X110329907Y-103495472D01*
X110346067Y-103490698D01*
X110367719Y-103484315D01*
X110390021Y-103477595D01*
X110411058Y-103471128D01*
X110428919Y-103465506D01*
X110441689Y-103461322D01*
X110446047Y-103459773D01*
X110450459Y-103459207D01*
X110451234Y-103462667D01*
G37*
X110451234Y-103462667D02*
X110448089Y-103470829D01*
X110440740Y-103484368D01*
X110428900Y-103503959D01*
X110424384Y-103511193D01*
X110413769Y-103528462D01*
X110405056Y-103543322D01*
X110399128Y-103554217D01*
X110396869Y-103559591D01*
X110396867Y-103559647D01*
X110394185Y-103564068D01*
X110393092Y-103564267D01*
X110389270Y-103567830D01*
X110386906Y-103573876D01*
X110382166Y-103584625D01*
X110376922Y-103592083D01*
X110368697Y-103602711D01*
X110363227Y-103611049D01*
X110359134Y-103617866D01*
X110351469Y-103630533D01*
X110341070Y-103647674D01*
X110328775Y-103667910D01*
X110315421Y-103689863D01*
X110301847Y-103712158D01*
X110288890Y-103733416D01*
X110277389Y-103752260D01*
X110268180Y-103767313D01*
X110267623Y-103768221D01*
X110259808Y-103779866D01*
X110252448Y-103786469D01*
X110242233Y-103790278D01*
X110231981Y-103792415D01*
X110219170Y-103794934D01*
X110200360Y-103798796D01*
X110177820Y-103803526D01*
X110153821Y-103808652D01*
X110147100Y-103810104D01*
X110122871Y-103815347D01*
X110099245Y-103820446D01*
X110078573Y-103824896D01*
X110063202Y-103828190D01*
X110060317Y-103828805D01*
X110029008Y-103835463D01*
X110004619Y-103840653D01*
X109985787Y-103844666D01*
X109971150Y-103847792D01*
X109959344Y-103850322D01*
X109949009Y-103852548D01*
X109941784Y-103854109D01*
X109907168Y-103861592D01*
X109879738Y-103867501D01*
X109858405Y-103872067D01*
X109842082Y-103875521D01*
X109829683Y-103878092D01*
X109820119Y-103880011D01*
X109812667Y-103881439D01*
X109801613Y-103883655D01*
X109784392Y-103887283D01*
X109763095Y-103891877D01*
X109739814Y-103896987D01*
X109732234Y-103898671D01*
X109708757Y-103903860D01*
X109686592Y-103908691D01*
X109667828Y-103912711D01*
X109654559Y-103915469D01*
X109651800Y-103916015D01*
X109635360Y-103919380D01*
X109618851Y-103923043D01*
X109615817Y-103923761D01*
X109603317Y-103926614D01*
X109585998Y-103930375D01*
X109567341Y-103934291D01*
X109565017Y-103934769D01*
X109543413Y-103939250D01*
X109518719Y-103944456D01*
X109496114Y-103949295D01*
X109495167Y-103949500D01*
X109472792Y-103954304D01*
X109448078Y-103959545D01*
X109426206Y-103964126D01*
X109425317Y-103964310D01*
X109404995Y-103968591D01*
X109383890Y-103973150D01*
X109366475Y-103977021D01*
X109366050Y-103977118D01*
X109346753Y-103981388D01*
X109325392Y-103985926D01*
X109314354Y-103988186D01*
X109288058Y-103993460D01*
X108956802Y-104324963D01*
X108912766Y-104369002D01*
X108870388Y-104411326D01*
X108830050Y-104451554D01*
X108792140Y-104489305D01*
X108757041Y-104524197D01*
X108725140Y-104555848D01*
X108696821Y-104583877D01*
X108672469Y-104607901D01*
X108652471Y-104627540D01*
X108637211Y-104642411D01*
X108627074Y-104652133D01*
X108622446Y-104656325D01*
X108622206Y-104656466D01*
X108618950Y-104653230D01*
X108618867Y-104652306D01*
X108621484Y-104646687D01*
X108627935Y-104638174D01*
X108629473Y-104636431D01*
X108636166Y-104628563D01*
X108646845Y-104615458D01*
X108660334Y-104598595D01*
X108675459Y-104579448D01*
X108691045Y-104559495D01*
X108702796Y-104544283D01*
X108711775Y-104532647D01*
X108723510Y-104517517D01*
X108736938Y-104500255D01*
X108750996Y-104482222D01*
X108764621Y-104464778D01*
X108776751Y-104449286D01*
X108786324Y-104437106D01*
X108792276Y-104429599D01*
X108793534Y-104428056D01*
X108798303Y-104422180D01*
X108807645Y-104410422D01*
X108820931Y-104393579D01*
X108837534Y-104372451D01*
X108856825Y-104347837D01*
X108878178Y-104320534D01*
X108893038Y-104301501D01*
X108907424Y-104283100D01*
X108923260Y-104262900D01*
X108937481Y-104244811D01*
X108939511Y-104242234D01*
X108951397Y-104227158D01*
X108959722Y-104216576D01*
X108966162Y-104208327D01*
X108972391Y-104200251D01*
X108980085Y-104190190D01*
X108990918Y-104175981D01*
X108992531Y-104173867D01*
X109003778Y-104159220D01*
X109013598Y-104146625D01*
X109020509Y-104137972D01*
X109022365Y-104135767D01*
X109028032Y-104128909D01*
X109036521Y-104118142D01*
X109042505Y-104110367D01*
X109050802Y-104099583D01*
X109056971Y-104091766D01*
X109059134Y-104089200D01*
X109062533Y-104085063D01*
X109069699Y-104075934D01*
X109079269Y-104063556D01*
X109082330Y-104059567D01*
X109093628Y-104045066D01*
X109104226Y-104031887D01*
X109112101Y-104022536D01*
X109113022Y-104021510D01*
X109119553Y-104013662D01*
X109122604Y-104008645D01*
X109122634Y-104008410D01*
X109125157Y-104003861D01*
X109131412Y-103995794D01*
X109133327Y-103993550D01*
X109140746Y-103984591D01*
X109151390Y-103971212D01*
X109163400Y-103955762D01*
X109168192Y-103949500D01*
X109178933Y-103935487D01*
X109187761Y-103924148D01*
X109193417Y-103917093D01*
X109194705Y-103915633D01*
X109197236Y-103912740D01*
X109202835Y-103905733D01*
X109212009Y-103893962D01*
X109225265Y-103876778D01*
X109243110Y-103853529D01*
X109244048Y-103852305D01*
X109256341Y-103836866D01*
X109266170Y-103826685D01*
X109275834Y-103820018D01*
X109287632Y-103815122D01*
X109296860Y-103812261D01*
X109315728Y-103806626D01*
X109335637Y-103800496D01*
X109347000Y-103796891D01*
X109362493Y-103791979D01*
X109384215Y-103785220D01*
X109410284Y-103777193D01*
X109438815Y-103768478D01*
X109467928Y-103759653D01*
X109478234Y-103756547D01*
X109490618Y-103752789D01*
X109508248Y-103747398D01*
X109528283Y-103741244D01*
X109539617Y-103737751D01*
X109563492Y-103730397D01*
X109590171Y-103722201D01*
X109614997Y-103714594D01*
X109622167Y-103712402D01*
X109642225Y-103706262D01*
X109667206Y-103698595D01*
X109693941Y-103690376D01*
X109719263Y-103682575D01*
X109719534Y-103682492D01*
X109752030Y-103672473D01*
X109778038Y-103664464D01*
X109799158Y-103657976D01*
X109816989Y-103652520D01*
X109833133Y-103647607D01*
X109849189Y-103642747D01*
X109866759Y-103637450D01*
X109871934Y-103635893D01*
X109895611Y-103628731D01*
X109921468Y-103620850D01*
X109945323Y-103613529D01*
X109954484Y-103610697D01*
X109976007Y-103604061D01*
X110001459Y-103596275D01*
X110026660Y-103588618D01*
X110037034Y-103585484D01*
X110056327Y-103579636D01*
X110073553Y-103574349D01*
X110086509Y-103570305D01*
X110092067Y-103568506D01*
X110100138Y-103565918D01*
X110114328Y-103561509D01*
X110132647Y-103555891D01*
X110153108Y-103549679D01*
X110153450Y-103549576D01*
X110179255Y-103541731D01*
X110208941Y-103532630D01*
X110238314Y-103523561D01*
X110257167Y-103517696D01*
X110281335Y-103510210D01*
X110306650Y-103502477D01*
X110329907Y-103495472D01*
X110346067Y-103490698D01*
X110367719Y-103484315D01*
X110390021Y-103477595D01*
X110411058Y-103471128D01*
X110428919Y-103465506D01*
X110441689Y-103461322D01*
X110446047Y-103459773D01*
X110450459Y-103459207D01*
X110451234Y-103462667D01*
G36*
X106710286Y-103816804D02*
G01*
X106726025Y-103819731D01*
X106738024Y-103822299D01*
X106773265Y-103830176D01*
X106803019Y-103836738D01*
X106830046Y-103842589D01*
X106857107Y-103848329D01*
X106864150Y-103849807D01*
X106881143Y-103853383D01*
X106895737Y-103856486D01*
X106905287Y-103858553D01*
X106906484Y-103858820D01*
X106918904Y-103861604D01*
X106937467Y-103865721D01*
X106960068Y-103870710D01*
X106984605Y-103876108D01*
X107008975Y-103881454D01*
X107031077Y-103886286D01*
X107048806Y-103890141D01*
X107058884Y-103892308D01*
X107090548Y-103899040D01*
X107115347Y-103904318D01*
X107134697Y-103908448D01*
X107150014Y-103911732D01*
X107162717Y-103914474D01*
X107174221Y-103916977D01*
X107179534Y-103918139D01*
X107198214Y-103922093D01*
X107220314Y-103926573D01*
X107240209Y-103930449D01*
X107256176Y-103933638D01*
X107268835Y-103936469D01*
X107275946Y-103938432D01*
X107276581Y-103938719D01*
X107282272Y-103940475D01*
X107293468Y-103942865D01*
X107302689Y-103944516D01*
X107317228Y-103947211D01*
X107338480Y-103951524D01*
X107364916Y-103957129D01*
X107395010Y-103963699D01*
X107427234Y-103970907D01*
X107444117Y-103974752D01*
X107456606Y-103977532D01*
X107473910Y-103981281D01*
X107492554Y-103985247D01*
X107494917Y-103985744D01*
X107517153Y-103990469D01*
X107542019Y-103995837D01*
X107562650Y-104000358D01*
X107583109Y-104004850D01*
X107604531Y-104009489D01*
X107622363Y-104013289D01*
X107622751Y-104013371D01*
X107648986Y-104018880D01*
X107952419Y-104322336D01*
X107994494Y-104364474D01*
X108034809Y-104404967D01*
X108072967Y-104443411D01*
X108108573Y-104479400D01*
X108141228Y-104512531D01*
X108170538Y-104542397D01*
X108196104Y-104568594D01*
X108217531Y-104590717D01*
X108234422Y-104608362D01*
X108246380Y-104621123D01*
X108253009Y-104628596D01*
X108254268Y-104630458D01*
X108250582Y-104630221D01*
X108242289Y-104625322D01*
X108231062Y-104616778D01*
X108229062Y-104615104D01*
X108213404Y-104601886D01*
X108196720Y-104587885D01*
X108185049Y-104578150D01*
X108157706Y-104555426D01*
X108135032Y-104536531D01*
X108115164Y-104519905D01*
X108096239Y-104503989D01*
X108076394Y-104487221D01*
X108068197Y-104480278D01*
X108053372Y-104467814D01*
X108036813Y-104454035D01*
X108028183Y-104446916D01*
X108013425Y-104434719D01*
X107998042Y-104421876D01*
X107990083Y-104415166D01*
X107976554Y-104403792D01*
X107960887Y-104390760D01*
X107951983Y-104383416D01*
X107937185Y-104371210D01*
X107921718Y-104358360D01*
X107913715Y-104351666D01*
X107903581Y-104343196D01*
X107888857Y-104330945D01*
X107871483Y-104316523D01*
X107853396Y-104301542D01*
X107852580Y-104300866D01*
X107832081Y-104283839D01*
X107809877Y-104265284D01*
X107788869Y-104247630D01*
X107774240Y-104235250D01*
X107755916Y-104219716D01*
X107734248Y-104201423D01*
X107712395Y-104183035D01*
X107698939Y-104171750D01*
X107658482Y-104137883D01*
X107604216Y-104133029D01*
X107580413Y-104130906D01*
X107551222Y-104128311D01*
X107519689Y-104125515D01*
X107488862Y-104122788D01*
X107475867Y-104121641D01*
X107450371Y-104119337D01*
X107426608Y-104117090D01*
X107406369Y-104115076D01*
X107391445Y-104113473D01*
X107384850Y-104112651D01*
X107373832Y-104111323D01*
X107356809Y-104109586D01*
X107336220Y-104107678D01*
X107317117Y-104106048D01*
X107301085Y-104104720D01*
X107284384Y-104103293D01*
X107266051Y-104101677D01*
X107245120Y-104099783D01*
X107220629Y-104097522D01*
X107191613Y-104094806D01*
X107157108Y-104091546D01*
X107116151Y-104087651D01*
X107067776Y-104083034D01*
X107065234Y-104082791D01*
X107034616Y-104079894D01*
X107000133Y-104076678D01*
X106965619Y-104073498D01*
X106934911Y-104070710D01*
X106929428Y-104070219D01*
X106905864Y-104068005D01*
X106884586Y-104065807D01*
X106867346Y-104063820D01*
X106855897Y-104062242D01*
X106852848Y-104061656D01*
X106844826Y-104056900D01*
X106835444Y-104045865D01*
X106824482Y-104028586D01*
X106812895Y-104008785D01*
X106804804Y-103995126D01*
X106799480Y-103986414D01*
X106796193Y-103981453D01*
X106794300Y-103979133D01*
X106788653Y-103971534D01*
X106782495Y-103960828D01*
X106778867Y-103952675D01*
X106775228Y-103946430D01*
X106773054Y-103945267D01*
X106769286Y-103941782D01*
X106765047Y-103933625D01*
X106759952Y-103923209D01*
X106752264Y-103909827D01*
X106747924Y-103902933D01*
X106737947Y-103887130D01*
X106727516Y-103869831D01*
X106724002Y-103863775D01*
X106717054Y-103852653D01*
X106711345Y-103845351D01*
X106708961Y-103843667D01*
X106705757Y-103840249D01*
X106705400Y-103837619D01*
X106702612Y-103829969D01*
X106698546Y-103824717D01*
X106694131Y-103818493D01*
X106694128Y-103815427D01*
X106699029Y-103815272D01*
X106710286Y-103816804D01*
G37*
X106710286Y-103816804D02*
X106726025Y-103819731D01*
X106738024Y-103822299D01*
X106773265Y-103830176D01*
X106803019Y-103836738D01*
X106830046Y-103842589D01*
X106857107Y-103848329D01*
X106864150Y-103849807D01*
X106881143Y-103853383D01*
X106895737Y-103856486D01*
X106905287Y-103858553D01*
X106906484Y-103858820D01*
X106918904Y-103861604D01*
X106937467Y-103865721D01*
X106960068Y-103870710D01*
X106984605Y-103876108D01*
X107008975Y-103881454D01*
X107031077Y-103886286D01*
X107048806Y-103890141D01*
X107058884Y-103892308D01*
X107090548Y-103899040D01*
X107115347Y-103904318D01*
X107134697Y-103908448D01*
X107150014Y-103911732D01*
X107162717Y-103914474D01*
X107174221Y-103916977D01*
X107179534Y-103918139D01*
X107198214Y-103922093D01*
X107220314Y-103926573D01*
X107240209Y-103930449D01*
X107256176Y-103933638D01*
X107268835Y-103936469D01*
X107275946Y-103938432D01*
X107276581Y-103938719D01*
X107282272Y-103940475D01*
X107293468Y-103942865D01*
X107302689Y-103944516D01*
X107317228Y-103947211D01*
X107338480Y-103951524D01*
X107364916Y-103957129D01*
X107395010Y-103963699D01*
X107427234Y-103970907D01*
X107444117Y-103974752D01*
X107456606Y-103977532D01*
X107473910Y-103981281D01*
X107492554Y-103985247D01*
X107494917Y-103985744D01*
X107517153Y-103990469D01*
X107542019Y-103995837D01*
X107562650Y-104000358D01*
X107583109Y-104004850D01*
X107604531Y-104009489D01*
X107622363Y-104013289D01*
X107622751Y-104013371D01*
X107648986Y-104018880D01*
X107952419Y-104322336D01*
X107994494Y-104364474D01*
X108034809Y-104404967D01*
X108072967Y-104443411D01*
X108108573Y-104479400D01*
X108141228Y-104512531D01*
X108170538Y-104542397D01*
X108196104Y-104568594D01*
X108217531Y-104590717D01*
X108234422Y-104608362D01*
X108246380Y-104621123D01*
X108253009Y-104628596D01*
X108254268Y-104630458D01*
X108250582Y-104630221D01*
X108242289Y-104625322D01*
X108231062Y-104616778D01*
X108229062Y-104615104D01*
X108213404Y-104601886D01*
X108196720Y-104587885D01*
X108185049Y-104578150D01*
X108157706Y-104555426D01*
X108135032Y-104536531D01*
X108115164Y-104519905D01*
X108096239Y-104503989D01*
X108076394Y-104487221D01*
X108068197Y-104480278D01*
X108053372Y-104467814D01*
X108036813Y-104454035D01*
X108028183Y-104446916D01*
X108013425Y-104434719D01*
X107998042Y-104421876D01*
X107990083Y-104415166D01*
X107976554Y-104403792D01*
X107960887Y-104390760D01*
X107951983Y-104383416D01*
X107937185Y-104371210D01*
X107921718Y-104358360D01*
X107913715Y-104351666D01*
X107903581Y-104343196D01*
X107888857Y-104330945D01*
X107871483Y-104316523D01*
X107853396Y-104301542D01*
X107852580Y-104300866D01*
X107832081Y-104283839D01*
X107809877Y-104265284D01*
X107788869Y-104247630D01*
X107774240Y-104235250D01*
X107755916Y-104219716D01*
X107734248Y-104201423D01*
X107712395Y-104183035D01*
X107698939Y-104171750D01*
X107658482Y-104137883D01*
X107604216Y-104133029D01*
X107580413Y-104130906D01*
X107551222Y-104128311D01*
X107519689Y-104125515D01*
X107488862Y-104122788D01*
X107475867Y-104121641D01*
X107450371Y-104119337D01*
X107426608Y-104117090D01*
X107406369Y-104115076D01*
X107391445Y-104113473D01*
X107384850Y-104112651D01*
X107373832Y-104111323D01*
X107356809Y-104109586D01*
X107336220Y-104107678D01*
X107317117Y-104106048D01*
X107301085Y-104104720D01*
X107284384Y-104103293D01*
X107266051Y-104101677D01*
X107245120Y-104099783D01*
X107220629Y-104097522D01*
X107191613Y-104094806D01*
X107157108Y-104091546D01*
X107116151Y-104087651D01*
X107067776Y-104083034D01*
X107065234Y-104082791D01*
X107034616Y-104079894D01*
X107000133Y-104076678D01*
X106965619Y-104073498D01*
X106934911Y-104070710D01*
X106929428Y-104070219D01*
X106905864Y-104068005D01*
X106884586Y-104065807D01*
X106867346Y-104063820D01*
X106855897Y-104062242D01*
X106852848Y-104061656D01*
X106844826Y-104056900D01*
X106835444Y-104045865D01*
X106824482Y-104028586D01*
X106812895Y-104008785D01*
X106804804Y-103995126D01*
X106799480Y-103986414D01*
X106796193Y-103981453D01*
X106794300Y-103979133D01*
X106788653Y-103971534D01*
X106782495Y-103960828D01*
X106778867Y-103952675D01*
X106775228Y-103946430D01*
X106773054Y-103945267D01*
X106769286Y-103941782D01*
X106765047Y-103933625D01*
X106759952Y-103923209D01*
X106752264Y-103909827D01*
X106747924Y-103902933D01*
X106737947Y-103887130D01*
X106727516Y-103869831D01*
X106724002Y-103863775D01*
X106717054Y-103852653D01*
X106711345Y-103845351D01*
X106708961Y-103843667D01*
X106705757Y-103840249D01*
X106705400Y-103837619D01*
X106702612Y-103829969D01*
X106698546Y-103824717D01*
X106694131Y-103818493D01*
X106694128Y-103815427D01*
X106699029Y-103815272D01*
X106710286Y-103816804D01*
G36*
X110234006Y-103816317D02*
G01*
X110235937Y-103819226D01*
X110236000Y-103820303D01*
X110233999Y-103825991D01*
X110232261Y-103826733D01*
X110227917Y-103830169D01*
X110225952Y-103834142D01*
X110222783Y-103840385D01*
X110215970Y-103852125D01*
X110206472Y-103867757D01*
X110195251Y-103885672D01*
X110193696Y-103888117D01*
X110182171Y-103906408D01*
X110172087Y-103922811D01*
X110164456Y-103935648D01*
X110160295Y-103943243D01*
X110160086Y-103943700D01*
X110156021Y-103951389D01*
X110148702Y-103963822D01*
X110139515Y-103978662D01*
X110136815Y-103982902D01*
X110127969Y-103997168D01*
X110121248Y-104008897D01*
X110117736Y-104016159D01*
X110117467Y-104017276D01*
X110114724Y-104021356D01*
X110113915Y-104021467D01*
X110110066Y-104024925D01*
X110104577Y-104033624D01*
X110102311Y-104038018D01*
X110095621Y-104049438D01*
X110088754Y-104057730D01*
X110086965Y-104059127D01*
X110080452Y-104061011D01*
X110067069Y-104063328D01*
X110048389Y-104065859D01*
X110025984Y-104068383D01*
X110008610Y-104070057D01*
X109977649Y-104072863D01*
X109942705Y-104076077D01*
X109907618Y-104079342D01*
X109876226Y-104082303D01*
X109869817Y-104082915D01*
X109807851Y-104088834D01*
X109752247Y-104094116D01*
X109700941Y-104098955D01*
X109651869Y-104103543D01*
X109602967Y-104108071D01*
X109552171Y-104112733D01*
X109497416Y-104117721D01*
X109465534Y-104120612D01*
X109438657Y-104123119D01*
X109411513Y-104125776D01*
X109386624Y-104128328D01*
X109366513Y-104130520D01*
X109359700Y-104131321D01*
X109339765Y-104133427D01*
X109319969Y-104134989D01*
X109304114Y-104135715D01*
X109302099Y-104135734D01*
X109292311Y-104136043D01*
X109284308Y-104137581D01*
X109276275Y-104141313D01*
X109266393Y-104148205D01*
X109252845Y-104159222D01*
X109244271Y-104166458D01*
X109225873Y-104181985D01*
X109203939Y-104200394D01*
X109181462Y-104219178D01*
X109164688Y-104233133D01*
X109144217Y-104250179D01*
X109122033Y-104268754D01*
X109101040Y-104286420D01*
X109086481Y-104298750D01*
X109071921Y-104311063D01*
X109052592Y-104327301D01*
X109030252Y-104345995D01*
X109006658Y-104365675D01*
X108984482Y-104384109D01*
X108963631Y-104401420D01*
X108944507Y-104417319D01*
X108928253Y-104430854D01*
X108916010Y-104441073D01*
X108908922Y-104447027D01*
X108908239Y-104447609D01*
X108900783Y-104453856D01*
X108888944Y-104463627D01*
X108874918Y-104475113D01*
X108870558Y-104478666D01*
X108856217Y-104490423D01*
X108843326Y-104501136D01*
X108834123Y-104508940D01*
X108832437Y-104510416D01*
X108824751Y-104517013D01*
X108812725Y-104527072D01*
X108798597Y-104538725D01*
X108794390Y-104542166D01*
X108779259Y-104554668D01*
X108760371Y-104570500D01*
X108740362Y-104587442D01*
X108725235Y-104600375D01*
X108706695Y-104616128D01*
X108693572Y-104626747D01*
X108685024Y-104632798D01*
X108680209Y-104634849D01*
X108678283Y-104633467D01*
X108678134Y-104632055D01*
X108681065Y-104628676D01*
X108689593Y-104619720D01*
X108703319Y-104605589D01*
X108721847Y-104586686D01*
X108744778Y-104563412D01*
X108771714Y-104536169D01*
X108802258Y-104505360D01*
X108836010Y-104471386D01*
X108872574Y-104434650D01*
X108911551Y-104395553D01*
X108952544Y-104354498D01*
X108982955Y-104324080D01*
X109034718Y-104272374D01*
X109080834Y-104226402D01*
X109121601Y-104185876D01*
X109157322Y-104150505D01*
X109188294Y-104119999D01*
X109214819Y-104094069D01*
X109237197Y-104072423D01*
X109255728Y-104054772D01*
X109270712Y-104040826D01*
X109282449Y-104030294D01*
X109291240Y-104022887D01*
X109297383Y-104018315D01*
X109301181Y-104016287D01*
X109301513Y-104016196D01*
X109312508Y-104013737D01*
X109328446Y-104010247D01*
X109345990Y-104006457D01*
X109347000Y-104006241D01*
X109367060Y-104001925D01*
X109388106Y-103997369D01*
X109404150Y-103993871D01*
X109422403Y-103989908D01*
X109443654Y-103985347D01*
X109459184Y-103982047D01*
X109474451Y-103978778D01*
X109495459Y-103974218D01*
X109519685Y-103968918D01*
X109544605Y-103963428D01*
X109550200Y-103962189D01*
X109588500Y-103953735D01*
X109619823Y-103946897D01*
X109645447Y-103941401D01*
X109666649Y-103936975D01*
X109684707Y-103933344D01*
X109687784Y-103932742D01*
X109695238Y-103931270D01*
X109703420Y-103929600D01*
X109713416Y-103927498D01*
X109726311Y-103924730D01*
X109743192Y-103921060D01*
X109765143Y-103916255D01*
X109793250Y-103910079D01*
X109826425Y-103902777D01*
X109846245Y-103898479D01*
X109865343Y-103894454D01*
X109880550Y-103891364D01*
X109884634Y-103890576D01*
X109895688Y-103888357D01*
X109912910Y-103884728D01*
X109934209Y-103880138D01*
X109957491Y-103875034D01*
X109965067Y-103873355D01*
X109989787Y-103867883D01*
X110014396Y-103862477D01*
X110036371Y-103857687D01*
X110053191Y-103854066D01*
X110056084Y-103853453D01*
X110076490Y-103849124D01*
X110098615Y-103844400D01*
X110113234Y-103841260D01*
X110132316Y-103837228D01*
X110152339Y-103833126D01*
X110164034Y-103830807D01*
X110179747Y-103827544D01*
X110194099Y-103824214D01*
X110200017Y-103822658D01*
X110217467Y-103817940D01*
X110228323Y-103815857D01*
X110234006Y-103816317D01*
G37*
X110234006Y-103816317D02*
X110235937Y-103819226D01*
X110236000Y-103820303D01*
X110233999Y-103825991D01*
X110232261Y-103826733D01*
X110227917Y-103830169D01*
X110225952Y-103834142D01*
X110222783Y-103840385D01*
X110215970Y-103852125D01*
X110206472Y-103867757D01*
X110195251Y-103885672D01*
X110193696Y-103888117D01*
X110182171Y-103906408D01*
X110172087Y-103922811D01*
X110164456Y-103935648D01*
X110160295Y-103943243D01*
X110160086Y-103943700D01*
X110156021Y-103951389D01*
X110148702Y-103963822D01*
X110139515Y-103978662D01*
X110136815Y-103982902D01*
X110127969Y-103997168D01*
X110121248Y-104008897D01*
X110117736Y-104016159D01*
X110117467Y-104017276D01*
X110114724Y-104021356D01*
X110113915Y-104021467D01*
X110110066Y-104024925D01*
X110104577Y-104033624D01*
X110102311Y-104038018D01*
X110095621Y-104049438D01*
X110088754Y-104057730D01*
X110086965Y-104059127D01*
X110080452Y-104061011D01*
X110067069Y-104063328D01*
X110048389Y-104065859D01*
X110025984Y-104068383D01*
X110008610Y-104070057D01*
X109977649Y-104072863D01*
X109942705Y-104076077D01*
X109907618Y-104079342D01*
X109876226Y-104082303D01*
X109869817Y-104082915D01*
X109807851Y-104088834D01*
X109752247Y-104094116D01*
X109700941Y-104098955D01*
X109651869Y-104103543D01*
X109602967Y-104108071D01*
X109552171Y-104112733D01*
X109497416Y-104117721D01*
X109465534Y-104120612D01*
X109438657Y-104123119D01*
X109411513Y-104125776D01*
X109386624Y-104128328D01*
X109366513Y-104130520D01*
X109359700Y-104131321D01*
X109339765Y-104133427D01*
X109319969Y-104134989D01*
X109304114Y-104135715D01*
X109302099Y-104135734D01*
X109292311Y-104136043D01*
X109284308Y-104137581D01*
X109276275Y-104141313D01*
X109266393Y-104148205D01*
X109252845Y-104159222D01*
X109244271Y-104166458D01*
X109225873Y-104181985D01*
X109203939Y-104200394D01*
X109181462Y-104219178D01*
X109164688Y-104233133D01*
X109144217Y-104250179D01*
X109122033Y-104268754D01*
X109101040Y-104286420D01*
X109086481Y-104298750D01*
X109071921Y-104311063D01*
X109052592Y-104327301D01*
X109030252Y-104345995D01*
X109006658Y-104365675D01*
X108984482Y-104384109D01*
X108963631Y-104401420D01*
X108944507Y-104417319D01*
X108928253Y-104430854D01*
X108916010Y-104441073D01*
X108908922Y-104447027D01*
X108908239Y-104447609D01*
X108900783Y-104453856D01*
X108888944Y-104463627D01*
X108874918Y-104475113D01*
X108870558Y-104478666D01*
X108856217Y-104490423D01*
X108843326Y-104501136D01*
X108834123Y-104508940D01*
X108832437Y-104510416D01*
X108824751Y-104517013D01*
X108812725Y-104527072D01*
X108798597Y-104538725D01*
X108794390Y-104542166D01*
X108779259Y-104554668D01*
X108760371Y-104570500D01*
X108740362Y-104587442D01*
X108725235Y-104600375D01*
X108706695Y-104616128D01*
X108693572Y-104626747D01*
X108685024Y-104632798D01*
X108680209Y-104634849D01*
X108678283Y-104633467D01*
X108678134Y-104632055D01*
X108681065Y-104628676D01*
X108689593Y-104619720D01*
X108703319Y-104605589D01*
X108721847Y-104586686D01*
X108744778Y-104563412D01*
X108771714Y-104536169D01*
X108802258Y-104505360D01*
X108836010Y-104471386D01*
X108872574Y-104434650D01*
X108911551Y-104395553D01*
X108952544Y-104354498D01*
X108982955Y-104324080D01*
X109034718Y-104272374D01*
X109080834Y-104226402D01*
X109121601Y-104185876D01*
X109157322Y-104150505D01*
X109188294Y-104119999D01*
X109214819Y-104094069D01*
X109237197Y-104072423D01*
X109255728Y-104054772D01*
X109270712Y-104040826D01*
X109282449Y-104030294D01*
X109291240Y-104022887D01*
X109297383Y-104018315D01*
X109301181Y-104016287D01*
X109301513Y-104016196D01*
X109312508Y-104013737D01*
X109328446Y-104010247D01*
X109345990Y-104006457D01*
X109347000Y-104006241D01*
X109367060Y-104001925D01*
X109388106Y-103997369D01*
X109404150Y-103993871D01*
X109422403Y-103989908D01*
X109443654Y-103985347D01*
X109459184Y-103982047D01*
X109474451Y-103978778D01*
X109495459Y-103974218D01*
X109519685Y-103968918D01*
X109544605Y-103963428D01*
X109550200Y-103962189D01*
X109588500Y-103953735D01*
X109619823Y-103946897D01*
X109645447Y-103941401D01*
X109666649Y-103936975D01*
X109684707Y-103933344D01*
X109687784Y-103932742D01*
X109695238Y-103931270D01*
X109703420Y-103929600D01*
X109713416Y-103927498D01*
X109726311Y-103924730D01*
X109743192Y-103921060D01*
X109765143Y-103916255D01*
X109793250Y-103910079D01*
X109826425Y-103902777D01*
X109846245Y-103898479D01*
X109865343Y-103894454D01*
X109880550Y-103891364D01*
X109884634Y-103890576D01*
X109895688Y-103888357D01*
X109912910Y-103884728D01*
X109934209Y-103880138D01*
X109957491Y-103875034D01*
X109965067Y-103873355D01*
X109989787Y-103867883D01*
X110014396Y-103862477D01*
X110036371Y-103857687D01*
X110053191Y-103854066D01*
X110056084Y-103853453D01*
X110076490Y-103849124D01*
X110098615Y-103844400D01*
X110113234Y-103841260D01*
X110132316Y-103837228D01*
X110152339Y-103833126D01*
X110164034Y-103830807D01*
X110179747Y-103827544D01*
X110194099Y-103824214D01*
X110200017Y-103822658D01*
X110217467Y-103817940D01*
X110228323Y-103815857D01*
X110234006Y-103816317D01*
G36*
X106884259Y-104086485D02*
G01*
X106895308Y-104087799D01*
X106912550Y-104089496D01*
X106933733Y-104091367D01*
X106956603Y-104093204D01*
X106959400Y-104093416D01*
X106984965Y-104095462D01*
X107011679Y-104097807D01*
X107036282Y-104100153D01*
X107054650Y-104102103D01*
X107074957Y-104104256D01*
X107100143Y-104106650D01*
X107126637Y-104108959D01*
X107145667Y-104110471D01*
X107181311Y-104113258D01*
X107224230Y-104116802D01*
X107273276Y-104121002D01*
X107327301Y-104125761D01*
X107385155Y-104130977D01*
X107412367Y-104133470D01*
X107441926Y-104136153D01*
X107476406Y-104139226D01*
X107512289Y-104142378D01*
X107546058Y-104145298D01*
X107559495Y-104146442D01*
X107584668Y-104148699D01*
X107607298Y-104150963D01*
X107625877Y-104153065D01*
X107638900Y-104154834D01*
X107644666Y-104156019D01*
X107648339Y-104157782D01*
X107653290Y-104161002D01*
X107660441Y-104166418D01*
X107670716Y-104174774D01*
X107685039Y-104186810D01*
X107704334Y-104203269D01*
X107716942Y-104214083D01*
X107730048Y-104225209D01*
X107746449Y-104238953D01*
X107762881Y-104252584D01*
X107764965Y-104254300D01*
X107777759Y-104265322D01*
X107787555Y-104274707D01*
X107792821Y-104280949D01*
X107793317Y-104282201D01*
X107790098Y-104283444D01*
X107780226Y-104284589D01*
X107763422Y-104285648D01*
X107739405Y-104286630D01*
X107707897Y-104287545D01*
X107668616Y-104288405D01*
X107621284Y-104289220D01*
X107595458Y-104289601D01*
X107545538Y-104290302D01*
X107489508Y-104291086D01*
X107429726Y-104291922D01*
X107368547Y-104292776D01*
X107308329Y-104293615D01*
X107251427Y-104294406D01*
X107200198Y-104295117D01*
X107196109Y-104295174D01*
X106994667Y-104297965D01*
X106987420Y-104287774D01*
X106981858Y-104279511D01*
X106973400Y-104266440D01*
X106963591Y-104250959D01*
X106960386Y-104245833D01*
X106951178Y-104231472D01*
X106943431Y-104220145D01*
X106938352Y-104213589D01*
X106937300Y-104212672D01*
X106934034Y-104207836D01*
X106934000Y-104207250D01*
X106931870Y-104202424D01*
X106926001Y-104191791D01*
X106917174Y-104176702D01*
X106906172Y-104158508D01*
X106900134Y-104148723D01*
X106888322Y-104129383D01*
X106878304Y-104112358D01*
X106870866Y-104099032D01*
X106866795Y-104090791D01*
X106866267Y-104089030D01*
X106869181Y-104085928D01*
X106878631Y-104085782D01*
X106884259Y-104086485D01*
G37*
X106884259Y-104086485D02*
X106895308Y-104087799D01*
X106912550Y-104089496D01*
X106933733Y-104091367D01*
X106956603Y-104093204D01*
X106959400Y-104093416D01*
X106984965Y-104095462D01*
X107011679Y-104097807D01*
X107036282Y-104100153D01*
X107054650Y-104102103D01*
X107074957Y-104104256D01*
X107100143Y-104106650D01*
X107126637Y-104108959D01*
X107145667Y-104110471D01*
X107181311Y-104113258D01*
X107224230Y-104116802D01*
X107273276Y-104121002D01*
X107327301Y-104125761D01*
X107385155Y-104130977D01*
X107412367Y-104133470D01*
X107441926Y-104136153D01*
X107476406Y-104139226D01*
X107512289Y-104142378D01*
X107546058Y-104145298D01*
X107559495Y-104146442D01*
X107584668Y-104148699D01*
X107607298Y-104150963D01*
X107625877Y-104153065D01*
X107638900Y-104154834D01*
X107644666Y-104156019D01*
X107648339Y-104157782D01*
X107653290Y-104161002D01*
X107660441Y-104166418D01*
X107670716Y-104174774D01*
X107685039Y-104186810D01*
X107704334Y-104203269D01*
X107716942Y-104214083D01*
X107730048Y-104225209D01*
X107746449Y-104238953D01*
X107762881Y-104252584D01*
X107764965Y-104254300D01*
X107777759Y-104265322D01*
X107787555Y-104274707D01*
X107792821Y-104280949D01*
X107793317Y-104282201D01*
X107790098Y-104283444D01*
X107780226Y-104284589D01*
X107763422Y-104285648D01*
X107739405Y-104286630D01*
X107707897Y-104287545D01*
X107668616Y-104288405D01*
X107621284Y-104289220D01*
X107595458Y-104289601D01*
X107545538Y-104290302D01*
X107489508Y-104291086D01*
X107429726Y-104291922D01*
X107368547Y-104292776D01*
X107308329Y-104293615D01*
X107251427Y-104294406D01*
X107200198Y-104295117D01*
X107196109Y-104295174D01*
X106994667Y-104297965D01*
X106987420Y-104287774D01*
X106981858Y-104279511D01*
X106973400Y-104266440D01*
X106963591Y-104250959D01*
X106960386Y-104245833D01*
X106951178Y-104231472D01*
X106943431Y-104220145D01*
X106938352Y-104213589D01*
X106937300Y-104212672D01*
X106934034Y-104207836D01*
X106934000Y-104207250D01*
X106931870Y-104202424D01*
X106926001Y-104191791D01*
X106917174Y-104176702D01*
X106906172Y-104158508D01*
X106900134Y-104148723D01*
X106888322Y-104129383D01*
X106878304Y-104112358D01*
X106870866Y-104099032D01*
X106866795Y-104090791D01*
X106866267Y-104089030D01*
X106869181Y-104085928D01*
X106878631Y-104085782D01*
X106884259Y-104086485D01*
G36*
X110068140Y-104085939D02*
G01*
X110069390Y-104086279D01*
X110068081Y-104090450D01*
X110062978Y-104100300D01*
X110054875Y-104114391D01*
X110044569Y-104131288D01*
X110043684Y-104132701D01*
X110033005Y-104150080D01*
X110024224Y-104165072D01*
X110018220Y-104176124D01*
X110015872Y-104181685D01*
X110015867Y-104181790D01*
X110012952Y-104186328D01*
X110011634Y-104186567D01*
X110007582Y-104189835D01*
X110007400Y-104191166D01*
X110005150Y-104197079D01*
X109999411Y-104207045D01*
X109995222Y-104213391D01*
X109987235Y-104225396D01*
X109976818Y-104241654D01*
X109965893Y-104259158D01*
X109963033Y-104263825D01*
X109943024Y-104296633D01*
X109819637Y-104295819D01*
X109785912Y-104295550D01*
X109745681Y-104295151D01*
X109700903Y-104294646D01*
X109653539Y-104294060D01*
X109605547Y-104293416D01*
X109558888Y-104292739D01*
X109522684Y-104292171D01*
X109479747Y-104291501D01*
X109434843Y-104290854D01*
X109389733Y-104290254D01*
X109346177Y-104289720D01*
X109305938Y-104289276D01*
X109270776Y-104288943D01*
X109244342Y-104288752D01*
X109211444Y-104288508D01*
X109186081Y-104288150D01*
X109167320Y-104287616D01*
X109154229Y-104286843D01*
X109145874Y-104285771D01*
X109141325Y-104284337D01*
X109139649Y-104282480D01*
X109139567Y-104281817D01*
X109141653Y-104276180D01*
X109143424Y-104275467D01*
X109147863Y-104272814D01*
X109157747Y-104265373D01*
X109172137Y-104253913D01*
X109190093Y-104239208D01*
X109210677Y-104222028D01*
X109232949Y-104203146D01*
X109255971Y-104183334D01*
X109263500Y-104176786D01*
X109275559Y-104166928D01*
X109286294Y-104159276D01*
X109292226Y-104156009D01*
X109299092Y-104154639D01*
X109312849Y-104152794D01*
X109331945Y-104150651D01*
X109354830Y-104148385D01*
X109375726Y-104146527D01*
X109407532Y-104143807D01*
X109443484Y-104140679D01*
X109479821Y-104137472D01*
X109512781Y-104134518D01*
X109522684Y-104133617D01*
X109591988Y-104127345D01*
X109654142Y-104121848D01*
X109708826Y-104117152D01*
X109755720Y-104113286D01*
X109793617Y-104110342D01*
X109818318Y-104108369D01*
X109843711Y-104106114D01*
X109866642Y-104103871D01*
X109882517Y-104102109D01*
X109903805Y-104099796D01*
X109928594Y-104097524D01*
X109951929Y-104095744D01*
X109954484Y-104095579D01*
X109978063Y-104093816D01*
X110004440Y-104091418D01*
X110028215Y-104088881D01*
X110029932Y-104088676D01*
X110046778Y-104086891D01*
X110060190Y-104085938D01*
X110068140Y-104085939D01*
G37*
X110068140Y-104085939D02*
X110069390Y-104086279D01*
X110068081Y-104090450D01*
X110062978Y-104100300D01*
X110054875Y-104114391D01*
X110044569Y-104131288D01*
X110043684Y-104132701D01*
X110033005Y-104150080D01*
X110024224Y-104165072D01*
X110018220Y-104176124D01*
X110015872Y-104181685D01*
X110015867Y-104181790D01*
X110012952Y-104186328D01*
X110011634Y-104186567D01*
X110007582Y-104189835D01*
X110007400Y-104191166D01*
X110005150Y-104197079D01*
X109999411Y-104207045D01*
X109995222Y-104213391D01*
X109987235Y-104225396D01*
X109976818Y-104241654D01*
X109965893Y-104259158D01*
X109963033Y-104263825D01*
X109943024Y-104296633D01*
X109819637Y-104295819D01*
X109785912Y-104295550D01*
X109745681Y-104295151D01*
X109700903Y-104294646D01*
X109653539Y-104294060D01*
X109605547Y-104293416D01*
X109558888Y-104292739D01*
X109522684Y-104292171D01*
X109479747Y-104291501D01*
X109434843Y-104290854D01*
X109389733Y-104290254D01*
X109346177Y-104289720D01*
X109305938Y-104289276D01*
X109270776Y-104288943D01*
X109244342Y-104288752D01*
X109211444Y-104288508D01*
X109186081Y-104288150D01*
X109167320Y-104287616D01*
X109154229Y-104286843D01*
X109145874Y-104285771D01*
X109141325Y-104284337D01*
X109139649Y-104282480D01*
X109139567Y-104281817D01*
X109141653Y-104276180D01*
X109143424Y-104275467D01*
X109147863Y-104272814D01*
X109157747Y-104265373D01*
X109172137Y-104253913D01*
X109190093Y-104239208D01*
X109210677Y-104222028D01*
X109232949Y-104203146D01*
X109255971Y-104183334D01*
X109263500Y-104176786D01*
X109275559Y-104166928D01*
X109286294Y-104159276D01*
X109292226Y-104156009D01*
X109299092Y-104154639D01*
X109312849Y-104152794D01*
X109331945Y-104150651D01*
X109354830Y-104148385D01*
X109375726Y-104146527D01*
X109407532Y-104143807D01*
X109443484Y-104140679D01*
X109479821Y-104137472D01*
X109512781Y-104134518D01*
X109522684Y-104133617D01*
X109591988Y-104127345D01*
X109654142Y-104121848D01*
X109708826Y-104117152D01*
X109755720Y-104113286D01*
X109793617Y-104110342D01*
X109818318Y-104108369D01*
X109843711Y-104106114D01*
X109866642Y-104103871D01*
X109882517Y-104102109D01*
X109903805Y-104099796D01*
X109928594Y-104097524D01*
X109951929Y-104095744D01*
X109954484Y-104095579D01*
X109978063Y-104093816D01*
X110004440Y-104091418D01*
X110028215Y-104088881D01*
X110029932Y-104088676D01*
X110046778Y-104086891D01*
X110060190Y-104085938D01*
X110068140Y-104085939D01*
G36*
X106275231Y-103129994D02*
G01*
X106285849Y-103134913D01*
X106301790Y-103142450D01*
X106321909Y-103152060D01*
X106345060Y-103163202D01*
X106352573Y-103166833D01*
X106379127Y-103179656D01*
X106405541Y-103192367D01*
X106429974Y-103204083D01*
X106450585Y-103213921D01*
X106465532Y-103220999D01*
X106466217Y-103221320D01*
X106482923Y-103229210D01*
X106504657Y-103239550D01*
X106528827Y-103251103D01*
X106552839Y-103262632D01*
X106557234Y-103264749D01*
X106586113Y-103278645D01*
X106614426Y-103292220D01*
X106643938Y-103306317D01*
X106676419Y-103321779D01*
X106713637Y-103339451D01*
X106741384Y-103352606D01*
X106762864Y-103362814D01*
X106788484Y-103375033D01*
X106814758Y-103387597D01*
X106834517Y-103397073D01*
X106877282Y-103417589D01*
X106924205Y-103440047D01*
X106971788Y-103462777D01*
X107016531Y-103484106D01*
X107029250Y-103490159D01*
X107048065Y-103499127D01*
X107071587Y-103510364D01*
X107096891Y-103522473D01*
X107121053Y-103534055D01*
X107122384Y-103534693D01*
X107146382Y-103546186D01*
X107171696Y-103558266D01*
X107195402Y-103569540D01*
X107214578Y-103578618D01*
X107215517Y-103579061D01*
X107234660Y-103588127D01*
X107258367Y-103599419D01*
X107283577Y-103611477D01*
X107306534Y-103622505D01*
X107351622Y-103644216D01*
X107389870Y-103662614D01*
X107422057Y-103678073D01*
X107448965Y-103690968D01*
X107471374Y-103701672D01*
X107490065Y-103710559D01*
X107505818Y-103718003D01*
X107513967Y-103721830D01*
X107550531Y-103739051D01*
X107579881Y-103753093D01*
X107602536Y-103764220D01*
X107619015Y-103772699D01*
X107629839Y-103778793D01*
X107635526Y-103782768D01*
X107636733Y-103784510D01*
X107633386Y-103788036D01*
X107624057Y-103786872D01*
X107617683Y-103784611D01*
X107609631Y-103781771D01*
X107596151Y-103777443D01*
X107579947Y-103772491D01*
X107577467Y-103771753D01*
X107559454Y-103766347D01*
X107542178Y-103761051D01*
X107529246Y-103756970D01*
X107528783Y-103756820D01*
X107515035Y-103752517D01*
X107497768Y-103747351D01*
X107486450Y-103744077D01*
X107468524Y-103738793D01*
X107447614Y-103732360D01*
X107431417Y-103727194D01*
X107414160Y-103721679D01*
X107392267Y-103714841D01*
X107369218Y-103707761D01*
X107357334Y-103704163D01*
X107328546Y-103695472D01*
X107298908Y-103686467D01*
X107270046Y-103677648D01*
X107243588Y-103669513D01*
X107221161Y-103662563D01*
X107204392Y-103657297D01*
X107198584Y-103655433D01*
X107185961Y-103651447D01*
X107168818Y-103646184D01*
X107150759Y-103640748D01*
X107149900Y-103640492D01*
X107130524Y-103634656D01*
X107110590Y-103628529D01*
X107094867Y-103623582D01*
X107076936Y-103617966D01*
X107056750Y-103611844D01*
X107046184Y-103608728D01*
X107020248Y-103601059D01*
X106991923Y-103592467D01*
X106965080Y-103584138D01*
X106948817Y-103578958D01*
X106936714Y-103575118D01*
X106917684Y-103569176D01*
X106892900Y-103561496D01*
X106863535Y-103552439D01*
X106830763Y-103542367D01*
X106795757Y-103531643D01*
X106771017Y-103524083D01*
X106750547Y-103517808D01*
X106732182Y-103512125D01*
X106717909Y-103507655D01*
X106709714Y-103505015D01*
X106709634Y-103504988D01*
X106700455Y-103502079D01*
X106686054Y-103497734D01*
X106669353Y-103492834D01*
X106667300Y-103492241D01*
X106649264Y-103486944D01*
X106631971Y-103481705D01*
X106619042Y-103477622D01*
X106618617Y-103477482D01*
X106603951Y-103472739D01*
X106584378Y-103466564D01*
X106561844Y-103459552D01*
X106538296Y-103452301D01*
X106515678Y-103445409D01*
X106495937Y-103439472D01*
X106481018Y-103435087D01*
X106474684Y-103433314D01*
X106463666Y-103430138D01*
X106455778Y-103426545D01*
X106449256Y-103420911D01*
X106442337Y-103411613D01*
X106433260Y-103397027D01*
X106430719Y-103392817D01*
X106419307Y-103373897D01*
X106411387Y-103360872D01*
X106406084Y-103352384D01*
X106402522Y-103347073D01*
X106399826Y-103343582D01*
X106397120Y-103340553D01*
X106396837Y-103340247D01*
X106390876Y-103331907D01*
X106384942Y-103321018D01*
X106378688Y-103308898D01*
X106369990Y-103293660D01*
X106359936Y-103277019D01*
X106349611Y-103260688D01*
X106340101Y-103246381D01*
X106332494Y-103235812D01*
X106327874Y-103230695D01*
X106327595Y-103230539D01*
X106324480Y-103225678D01*
X106324400Y-103224647D01*
X106322246Y-103219346D01*
X106316549Y-103208904D01*
X106308460Y-103195169D01*
X106299128Y-103179984D01*
X106289704Y-103165196D01*
X106281337Y-103152651D01*
X106275177Y-103144195D01*
X106272682Y-103141639D01*
X106270083Y-103137562D01*
X106269336Y-103131451D01*
X106271031Y-103128234D01*
X106271081Y-103128233D01*
X106275231Y-103129994D01*
G37*
X106275231Y-103129994D02*
X106285849Y-103134913D01*
X106301790Y-103142450D01*
X106321909Y-103152060D01*
X106345060Y-103163202D01*
X106352573Y-103166833D01*
X106379127Y-103179656D01*
X106405541Y-103192367D01*
X106429974Y-103204083D01*
X106450585Y-103213921D01*
X106465532Y-103220999D01*
X106466217Y-103221320D01*
X106482923Y-103229210D01*
X106504657Y-103239550D01*
X106528827Y-103251103D01*
X106552839Y-103262632D01*
X106557234Y-103264749D01*
X106586113Y-103278645D01*
X106614426Y-103292220D01*
X106643938Y-103306317D01*
X106676419Y-103321779D01*
X106713637Y-103339451D01*
X106741384Y-103352606D01*
X106762864Y-103362814D01*
X106788484Y-103375033D01*
X106814758Y-103387597D01*
X106834517Y-103397073D01*
X106877282Y-103417589D01*
X106924205Y-103440047D01*
X106971788Y-103462777D01*
X107016531Y-103484106D01*
X107029250Y-103490159D01*
X107048065Y-103499127D01*
X107071587Y-103510364D01*
X107096891Y-103522473D01*
X107121053Y-103534055D01*
X107122384Y-103534693D01*
X107146382Y-103546186D01*
X107171696Y-103558266D01*
X107195402Y-103569540D01*
X107214578Y-103578618D01*
X107215517Y-103579061D01*
X107234660Y-103588127D01*
X107258367Y-103599419D01*
X107283577Y-103611477D01*
X107306534Y-103622505D01*
X107351622Y-103644216D01*
X107389870Y-103662614D01*
X107422057Y-103678073D01*
X107448965Y-103690968D01*
X107471374Y-103701672D01*
X107490065Y-103710559D01*
X107505818Y-103718003D01*
X107513967Y-103721830D01*
X107550531Y-103739051D01*
X107579881Y-103753093D01*
X107602536Y-103764220D01*
X107619015Y-103772699D01*
X107629839Y-103778793D01*
X107635526Y-103782768D01*
X107636733Y-103784510D01*
X107633386Y-103788036D01*
X107624057Y-103786872D01*
X107617683Y-103784611D01*
X107609631Y-103781771D01*
X107596151Y-103777443D01*
X107579947Y-103772491D01*
X107577467Y-103771753D01*
X107559454Y-103766347D01*
X107542178Y-103761051D01*
X107529246Y-103756970D01*
X107528783Y-103756820D01*
X107515035Y-103752517D01*
X107497768Y-103747351D01*
X107486450Y-103744077D01*
X107468524Y-103738793D01*
X107447614Y-103732360D01*
X107431417Y-103727194D01*
X107414160Y-103721679D01*
X107392267Y-103714841D01*
X107369218Y-103707761D01*
X107357334Y-103704163D01*
X107328546Y-103695472D01*
X107298908Y-103686467D01*
X107270046Y-103677648D01*
X107243588Y-103669513D01*
X107221161Y-103662563D01*
X107204392Y-103657297D01*
X107198584Y-103655433D01*
X107185961Y-103651447D01*
X107168818Y-103646184D01*
X107150759Y-103640748D01*
X107149900Y-103640492D01*
X107130524Y-103634656D01*
X107110590Y-103628529D01*
X107094867Y-103623582D01*
X107076936Y-103617966D01*
X107056750Y-103611844D01*
X107046184Y-103608728D01*
X107020248Y-103601059D01*
X106991923Y-103592467D01*
X106965080Y-103584138D01*
X106948817Y-103578958D01*
X106936714Y-103575118D01*
X106917684Y-103569176D01*
X106892900Y-103561496D01*
X106863535Y-103552439D01*
X106830763Y-103542367D01*
X106795757Y-103531643D01*
X106771017Y-103524083D01*
X106750547Y-103517808D01*
X106732182Y-103512125D01*
X106717909Y-103507655D01*
X106709714Y-103505015D01*
X106709634Y-103504988D01*
X106700455Y-103502079D01*
X106686054Y-103497734D01*
X106669353Y-103492834D01*
X106667300Y-103492241D01*
X106649264Y-103486944D01*
X106631971Y-103481705D01*
X106619042Y-103477622D01*
X106618617Y-103477482D01*
X106603951Y-103472739D01*
X106584378Y-103466564D01*
X106561844Y-103459552D01*
X106538296Y-103452301D01*
X106515678Y-103445409D01*
X106495937Y-103439472D01*
X106481018Y-103435087D01*
X106474684Y-103433314D01*
X106463666Y-103430138D01*
X106455778Y-103426545D01*
X106449256Y-103420911D01*
X106442337Y-103411613D01*
X106433260Y-103397027D01*
X106430719Y-103392817D01*
X106419307Y-103373897D01*
X106411387Y-103360872D01*
X106406084Y-103352384D01*
X106402522Y-103347073D01*
X106399826Y-103343582D01*
X106397120Y-103340553D01*
X106396837Y-103340247D01*
X106390876Y-103331907D01*
X106384942Y-103321018D01*
X106378688Y-103308898D01*
X106369990Y-103293660D01*
X106359936Y-103277019D01*
X106349611Y-103260688D01*
X106340101Y-103246381D01*
X106332494Y-103235812D01*
X106327874Y-103230695D01*
X106327595Y-103230539D01*
X106324480Y-103225678D01*
X106324400Y-103224647D01*
X106322246Y-103219346D01*
X106316549Y-103208904D01*
X106308460Y-103195169D01*
X106299128Y-103179984D01*
X106289704Y-103165196D01*
X106281337Y-103152651D01*
X106275177Y-103144195D01*
X106272682Y-103141639D01*
X106270083Y-103137562D01*
X106269336Y-103131451D01*
X106271031Y-103128234D01*
X106271081Y-103128233D01*
X106275231Y-103129994D01*
G36*
X110651054Y-103139693D02*
G01*
X110648260Y-103147472D01*
X110641493Y-103158237D01*
X110640775Y-103159207D01*
X110633362Y-103170535D01*
X110628242Y-103180881D01*
X110627790Y-103182208D01*
X110624081Y-103189598D01*
X110620948Y-103191733D01*
X110617444Y-103195166D01*
X110617000Y-103198083D01*
X110615278Y-103203727D01*
X110613825Y-103204437D01*
X110610241Y-103207842D01*
X110604154Y-103216677D01*
X110598234Y-103226662D01*
X110589616Y-103241520D01*
X110578632Y-103259690D01*
X110567563Y-103277405D01*
X110566853Y-103278517D01*
X110555780Y-103296275D01*
X110544582Y-103314967D01*
X110535588Y-103330705D01*
X110535190Y-103331433D01*
X110525568Y-103348137D01*
X110514046Y-103366848D01*
X110506145Y-103378974D01*
X110497432Y-103392345D01*
X110490517Y-103403761D01*
X110486996Y-103410536D01*
X110481134Y-103421009D01*
X110473385Y-103429447D01*
X110466355Y-103433030D01*
X110466194Y-103433033D01*
X110460493Y-103434255D01*
X110448387Y-103437599D01*
X110431530Y-103442589D01*
X110411574Y-103448744D01*
X110406810Y-103450245D01*
X110384718Y-103457209D01*
X110363748Y-103463772D01*
X110346144Y-103469235D01*
X110334148Y-103472899D01*
X110333367Y-103473132D01*
X110317467Y-103477895D01*
X110299368Y-103483350D01*
X110292092Y-103485554D01*
X110245234Y-103499687D01*
X110207425Y-103510976D01*
X110195609Y-103514545D01*
X110176807Y-103520296D01*
X110152116Y-103527890D01*
X110122634Y-103536988D01*
X110089456Y-103547253D01*
X110053681Y-103558345D01*
X110016404Y-103569925D01*
X110001050Y-103574701D01*
X109976095Y-103582428D01*
X109948083Y-103591040D01*
X109921464Y-103599170D01*
X109910034Y-103602638D01*
X109885969Y-103609960D01*
X109859349Y-103618125D01*
X109834548Y-103625792D01*
X109825367Y-103628651D01*
X109806279Y-103634593D01*
X109788571Y-103640062D01*
X109774907Y-103644239D01*
X109770334Y-103645612D01*
X109756004Y-103649949D01*
X109740441Y-103654782D01*
X109738584Y-103655368D01*
X109723865Y-103659950D01*
X109706774Y-103665161D01*
X109700484Y-103667049D01*
X109684612Y-103671835D01*
X109661807Y-103678783D01*
X109633218Y-103687539D01*
X109599997Y-103697750D01*
X109563294Y-103709063D01*
X109524259Y-103721125D01*
X109522684Y-103721613D01*
X109500200Y-103728564D01*
X109478604Y-103735231D01*
X109460218Y-103740897D01*
X109447367Y-103744845D01*
X109446484Y-103745115D01*
X109430087Y-103750186D01*
X109413727Y-103755331D01*
X109408384Y-103757037D01*
X109395737Y-103760958D01*
X109378563Y-103766094D01*
X109360480Y-103771365D01*
X109359700Y-103771588D01*
X109343066Y-103776507D01*
X109328537Y-103781067D01*
X109318957Y-103784373D01*
X109318226Y-103784662D01*
X109306572Y-103788099D01*
X109298537Y-103787980D01*
X109296200Y-103785215D01*
X109299782Y-103782065D01*
X109309414Y-103776377D01*
X109323430Y-103769090D01*
X109333242Y-103764345D01*
X109347004Y-103757846D01*
X109363138Y-103750197D01*
X109382426Y-103741024D01*
X109405652Y-103729954D01*
X109433601Y-103716612D01*
X109467055Y-103700626D01*
X109506797Y-103681622D01*
X109539617Y-103665921D01*
X109556180Y-103657986D01*
X109578249Y-103647398D01*
X109603704Y-103635175D01*
X109630421Y-103622336D01*
X109651229Y-103612330D01*
X109674065Y-103601375D01*
X109694142Y-103591800D01*
X109710272Y-103584168D01*
X109721266Y-103579042D01*
X109725934Y-103576982D01*
X109726005Y-103576967D01*
X109730001Y-103575199D01*
X109740554Y-103570233D01*
X109756604Y-103562576D01*
X109777094Y-103552734D01*
X109800966Y-103541211D01*
X109818917Y-103532517D01*
X109844515Y-103520127D01*
X109867467Y-103509067D01*
X109886715Y-103499843D01*
X109901199Y-103492960D01*
X109909862Y-103488925D01*
X109911892Y-103488067D01*
X109915928Y-103486313D01*
X109926429Y-103481418D01*
X109942241Y-103473928D01*
X109962208Y-103464392D01*
X109985177Y-103453357D01*
X109991001Y-103450549D01*
X110017714Y-103437681D01*
X110044716Y-103424701D01*
X110070006Y-103412570D01*
X110091583Y-103402248D01*
X110106884Y-103394961D01*
X110121631Y-103387952D01*
X110142923Y-103377814D01*
X110169665Y-103365069D01*
X110200763Y-103350238D01*
X110235123Y-103333845D01*
X110271650Y-103316410D01*
X110309250Y-103298457D01*
X110346829Y-103280507D01*
X110383293Y-103263082D01*
X110384167Y-103262664D01*
X110401226Y-103254498D01*
X110423425Y-103243856D01*
X110448273Y-103231932D01*
X110473282Y-103219920D01*
X110481534Y-103215954D01*
X110523298Y-103195907D01*
X110559778Y-103178461D01*
X110590583Y-103163799D01*
X110615321Y-103152108D01*
X110633602Y-103143572D01*
X110645034Y-103138375D01*
X110649203Y-103136700D01*
X110651054Y-103139693D01*
G37*
X110651054Y-103139693D02*
X110648260Y-103147472D01*
X110641493Y-103158237D01*
X110640775Y-103159207D01*
X110633362Y-103170535D01*
X110628242Y-103180881D01*
X110627790Y-103182208D01*
X110624081Y-103189598D01*
X110620948Y-103191733D01*
X110617444Y-103195166D01*
X110617000Y-103198083D01*
X110615278Y-103203727D01*
X110613825Y-103204437D01*
X110610241Y-103207842D01*
X110604154Y-103216677D01*
X110598234Y-103226662D01*
X110589616Y-103241520D01*
X110578632Y-103259690D01*
X110567563Y-103277405D01*
X110566853Y-103278517D01*
X110555780Y-103296275D01*
X110544582Y-103314967D01*
X110535588Y-103330705D01*
X110535190Y-103331433D01*
X110525568Y-103348137D01*
X110514046Y-103366848D01*
X110506145Y-103378974D01*
X110497432Y-103392345D01*
X110490517Y-103403761D01*
X110486996Y-103410536D01*
X110481134Y-103421009D01*
X110473385Y-103429447D01*
X110466355Y-103433030D01*
X110466194Y-103433033D01*
X110460493Y-103434255D01*
X110448387Y-103437599D01*
X110431530Y-103442589D01*
X110411574Y-103448744D01*
X110406810Y-103450245D01*
X110384718Y-103457209D01*
X110363748Y-103463772D01*
X110346144Y-103469235D01*
X110334148Y-103472899D01*
X110333367Y-103473132D01*
X110317467Y-103477895D01*
X110299368Y-103483350D01*
X110292092Y-103485554D01*
X110245234Y-103499687D01*
X110207425Y-103510976D01*
X110195609Y-103514545D01*
X110176807Y-103520296D01*
X110152116Y-103527890D01*
X110122634Y-103536988D01*
X110089456Y-103547253D01*
X110053681Y-103558345D01*
X110016404Y-103569925D01*
X110001050Y-103574701D01*
X109976095Y-103582428D01*
X109948083Y-103591040D01*
X109921464Y-103599170D01*
X109910034Y-103602638D01*
X109885969Y-103609960D01*
X109859349Y-103618125D01*
X109834548Y-103625792D01*
X109825367Y-103628651D01*
X109806279Y-103634593D01*
X109788571Y-103640062D01*
X109774907Y-103644239D01*
X109770334Y-103645612D01*
X109756004Y-103649949D01*
X109740441Y-103654782D01*
X109738584Y-103655368D01*
X109723865Y-103659950D01*
X109706774Y-103665161D01*
X109700484Y-103667049D01*
X109684612Y-103671835D01*
X109661807Y-103678783D01*
X109633218Y-103687539D01*
X109599997Y-103697750D01*
X109563294Y-103709063D01*
X109524259Y-103721125D01*
X109522684Y-103721613D01*
X109500200Y-103728564D01*
X109478604Y-103735231D01*
X109460218Y-103740897D01*
X109447367Y-103744845D01*
X109446484Y-103745115D01*
X109430087Y-103750186D01*
X109413727Y-103755331D01*
X109408384Y-103757037D01*
X109395737Y-103760958D01*
X109378563Y-103766094D01*
X109360480Y-103771365D01*
X109359700Y-103771588D01*
X109343066Y-103776507D01*
X109328537Y-103781067D01*
X109318957Y-103784373D01*
X109318226Y-103784662D01*
X109306572Y-103788099D01*
X109298537Y-103787980D01*
X109296200Y-103785215D01*
X109299782Y-103782065D01*
X109309414Y-103776377D01*
X109323430Y-103769090D01*
X109333242Y-103764345D01*
X109347004Y-103757846D01*
X109363138Y-103750197D01*
X109382426Y-103741024D01*
X109405652Y-103729954D01*
X109433601Y-103716612D01*
X109467055Y-103700626D01*
X109506797Y-103681622D01*
X109539617Y-103665921D01*
X109556180Y-103657986D01*
X109578249Y-103647398D01*
X109603704Y-103635175D01*
X109630421Y-103622336D01*
X109651229Y-103612330D01*
X109674065Y-103601375D01*
X109694142Y-103591800D01*
X109710272Y-103584168D01*
X109721266Y-103579042D01*
X109725934Y-103576982D01*
X109726005Y-103576967D01*
X109730001Y-103575199D01*
X109740554Y-103570233D01*
X109756604Y-103562576D01*
X109777094Y-103552734D01*
X109800966Y-103541211D01*
X109818917Y-103532517D01*
X109844515Y-103520127D01*
X109867467Y-103509067D01*
X109886715Y-103499843D01*
X109901199Y-103492960D01*
X109909862Y-103488925D01*
X109911892Y-103488067D01*
X109915928Y-103486313D01*
X109926429Y-103481418D01*
X109942241Y-103473928D01*
X109962208Y-103464392D01*
X109985177Y-103453357D01*
X109991001Y-103450549D01*
X110017714Y-103437681D01*
X110044716Y-103424701D01*
X110070006Y-103412570D01*
X110091583Y-103402248D01*
X110106884Y-103394961D01*
X110121631Y-103387952D01*
X110142923Y-103377814D01*
X110169665Y-103365069D01*
X110200763Y-103350238D01*
X110235123Y-103333845D01*
X110271650Y-103316410D01*
X110309250Y-103298457D01*
X110346829Y-103280507D01*
X110383293Y-103263082D01*
X110384167Y-103262664D01*
X110401226Y-103254498D01*
X110423425Y-103243856D01*
X110448273Y-103231932D01*
X110473282Y-103219920D01*
X110481534Y-103215954D01*
X110523298Y-103195907D01*
X110559778Y-103178461D01*
X110590583Y-103163799D01*
X110615321Y-103152108D01*
X110633602Y-103143572D01*
X110645034Y-103138375D01*
X110649203Y-103136700D01*
X110651054Y-103139693D01*
D13*
%TO.C,C1*%
X109670000Y-114870000D02*
X109670000Y-114570000D01*
X108770000Y-114870000D02*
X108770000Y-114570000D01*
%TO.C,C2*%
X112880000Y-124772000D02*
X113180000Y-124772000D01*
X112880000Y-125672000D02*
X113180000Y-125672000D01*
D14*
%TO.C,D1*%
X114030365Y-120942100D02*
X112029635Y-120942100D01*
X112029635Y-122897900D02*
X114030365Y-122897900D01*
D15*
%TO.C,J1*%
X106730000Y-117230000D02*
G75*
G03*
X106730000Y-117230000I-100000J0D01*
G01*
D13*
X107950000Y-117860000D02*
X105410000Y-117860000D01*
X105410000Y-117860000D02*
X105410000Y-128520000D01*
X105410000Y-128520000D02*
X107950000Y-128520000D01*
X107950000Y-128520000D02*
X107950000Y-117860000D01*
%TO.C,J2*%
X120900000Y-130810000D02*
X110240000Y-130810000D01*
X120900000Y-133350000D02*
X120900000Y-130810000D01*
X110240000Y-133350000D02*
X120900000Y-133350000D01*
X110240000Y-130810000D02*
X110240000Y-133350000D01*
D15*
X109710000Y-132130000D02*
G75*
G03*
X109710000Y-132130000I-100000J0D01*
G01*
D13*
%TO.C,R1*%
X120104000Y-122864000D02*
X121704000Y-122864000D01*
X120104000Y-121484000D02*
X121704000Y-121484000D01*
%TO.C,R2*%
X125260000Y-131500000D02*
X123660000Y-131500000D01*
X125260000Y-130120000D02*
X123660000Y-130120000D01*
D15*
%TO.C,U1*%
X115670000Y-118890000D02*
G75*
G03*
X115670000Y-118890000I-100000J0D01*
G01*
D13*
X123190000Y-112538000D02*
X123190000Y-109540000D01*
X113030000Y-112538000D02*
X123190000Y-112538000D01*
X113030000Y-109540000D02*
X113030000Y-112538000D01*
D16*
%TO.C,U2*%
X120215800Y-124815600D02*
G75*
G03*
X120215800Y-124815600I-150000J0D01*
G01*
D14*
X123278900Y-124117100D02*
X119037100Y-124117100D01*
X119037100Y-129374900D02*
X123278900Y-129374900D01*
%TO.C,C1*%
D17*
X107870988Y-114889309D02*
X107848414Y-114911884D01*
X107780690Y-114934458D01*
X107735541Y-114934458D01*
X107667817Y-114911884D01*
X107622668Y-114866735D01*
X107600093Y-114821585D01*
X107577518Y-114731287D01*
X107577518Y-114663563D01*
X107600093Y-114573264D01*
X107622668Y-114528115D01*
X107667817Y-114482966D01*
X107735541Y-114460391D01*
X107780690Y-114460391D01*
X107848414Y-114482966D01*
X107870988Y-114505541D01*
X108322481Y-114934458D02*
X108051585Y-114934458D01*
X108187033Y-114934458D02*
X108187033Y-114460391D01*
X108141884Y-114528115D01*
X108096735Y-114573264D01*
X108051585Y-114595839D01*
%TO.C,C2*%
X112950988Y-124121309D02*
X112928414Y-124143884D01*
X112860690Y-124166458D01*
X112815541Y-124166458D01*
X112747817Y-124143884D01*
X112702668Y-124098735D01*
X112680093Y-124053585D01*
X112657518Y-123963287D01*
X112657518Y-123895563D01*
X112680093Y-123805264D01*
X112702668Y-123760115D01*
X112747817Y-123714966D01*
X112815541Y-123692391D01*
X112860690Y-123692391D01*
X112928414Y-123714966D01*
X112950988Y-123737541D01*
X113131585Y-123737541D02*
X113154160Y-123714966D01*
X113199309Y-123692391D01*
X113312182Y-123692391D01*
X113357331Y-123714966D01*
X113379906Y-123737541D01*
X113402481Y-123782690D01*
X113402481Y-123827839D01*
X113379906Y-123895563D01*
X113109011Y-124166458D01*
X113402481Y-124166458D01*
%TO.C,D1*%
D18*
X112317304Y-119832380D02*
X112317304Y-118832380D01*
X112555400Y-118832380D01*
X112698257Y-118880000D01*
X112793495Y-118975238D01*
X112841114Y-119070476D01*
X112888733Y-119260952D01*
X112888733Y-119403809D01*
X112841114Y-119594285D01*
X112793495Y-119689523D01*
X112698257Y-119784761D01*
X112555400Y-119832380D01*
X112317304Y-119832380D01*
X113841114Y-119832380D02*
X113269685Y-119832380D01*
X113555400Y-119832380D02*
X113555400Y-118832380D01*
X113460161Y-118975238D01*
X113364923Y-119070476D01*
X113269685Y-119118095D01*
X113030000Y-121372380D02*
X113030000Y-121610476D01*
X112791904Y-121515238D02*
X113030000Y-121610476D01*
X113268095Y-121515238D01*
X112887142Y-121800952D02*
X113030000Y-121610476D01*
X113172857Y-121800952D01*
%TO.C,J1*%
D17*
X105651333Y-129101904D02*
X105651333Y-129673333D01*
X105613238Y-129787619D01*
X105537047Y-129863809D01*
X105422761Y-129901904D01*
X105346571Y-129901904D01*
X106451333Y-129901904D02*
X105994190Y-129901904D01*
X106222761Y-129901904D02*
X106222761Y-129101904D01*
X106146571Y-129216190D01*
X106070380Y-129292380D01*
X105994190Y-129330476D01*
%TO.C,J2*%
X108953333Y-132657904D02*
X108953333Y-133229333D01*
X108915238Y-133343619D01*
X108839047Y-133419809D01*
X108724761Y-133457904D01*
X108648571Y-133457904D01*
X109296190Y-132734095D02*
X109334285Y-132696000D01*
X109410476Y-132657904D01*
X109600952Y-132657904D01*
X109677142Y-132696000D01*
X109715238Y-132734095D01*
X109753333Y-132810285D01*
X109753333Y-132886476D01*
X109715238Y-133000761D01*
X109258095Y-133457904D01*
X109753333Y-133457904D01*
%TO.C,R1*%
X120834688Y-121092132D02*
X120696064Y-120894098D01*
X120597047Y-121092132D02*
X120597047Y-120676261D01*
X120755474Y-120676261D01*
X120795081Y-120696064D01*
X120814884Y-120715867D01*
X120834688Y-120755474D01*
X120834688Y-120814884D01*
X120814884Y-120854491D01*
X120795081Y-120874294D01*
X120755474Y-120894098D01*
X120597047Y-120894098D01*
X121230755Y-121092132D02*
X120993115Y-121092132D01*
X121111935Y-121092132D02*
X121111935Y-120676261D01*
X121072328Y-120735671D01*
X121032721Y-120775278D01*
X120993115Y-120795081D01*
%TO.C,R2*%
X126676688Y-130998132D02*
X126538064Y-130800098D01*
X126439047Y-130998132D02*
X126439047Y-130582261D01*
X126597474Y-130582261D01*
X126637081Y-130602064D01*
X126656884Y-130621867D01*
X126676688Y-130661474D01*
X126676688Y-130720884D01*
X126656884Y-130760491D01*
X126637081Y-130780294D01*
X126597474Y-130800098D01*
X126439047Y-130800098D01*
X126835115Y-130621867D02*
X126854918Y-130602064D01*
X126894525Y-130582261D01*
X126993542Y-130582261D01*
X127033149Y-130602064D01*
X127052952Y-130621867D01*
X127072755Y-130661474D01*
X127072755Y-130701081D01*
X127052952Y-130760491D01*
X126815311Y-130998132D01*
X127072755Y-130998132D01*
%TO.C,U1*%
X123952095Y-110704380D02*
X123952095Y-111513904D01*
X123999714Y-111609142D01*
X124047333Y-111656761D01*
X124142571Y-111704380D01*
X124333047Y-111704380D01*
X124428285Y-111656761D01*
X124475904Y-111609142D01*
X124523523Y-111513904D01*
X124523523Y-110704380D01*
X125523523Y-111704380D02*
X124952095Y-111704380D01*
X125237809Y-111704380D02*
X125237809Y-110704380D01*
X125142571Y-110847238D01*
X125047333Y-110942476D01*
X124952095Y-110990095D01*
%TO.C,U2*%
D18*
X123698095Y-122896380D02*
X123698095Y-123705904D01*
X123745714Y-123801142D01*
X123793333Y-123848761D01*
X123888571Y-123896380D01*
X124079047Y-123896380D01*
X124174285Y-123848761D01*
X124221904Y-123801142D01*
X124269523Y-123705904D01*
X124269523Y-122896380D01*
X124698095Y-122991619D02*
X124745714Y-122944000D01*
X124840952Y-122896380D01*
X125079047Y-122896380D01*
X125174285Y-122944000D01*
X125221904Y-122991619D01*
X125269523Y-123086857D01*
X125269523Y-123182095D01*
X125221904Y-123324952D01*
X124650476Y-123896380D01*
X125269523Y-123896380D01*
%TD*%
M02*
