%TF.GenerationSoftware,KiCad,Pcbnew,5.1.10*%
%TF.CreationDate,2021-10-03T17:54:42-07:00*%
%TF.ProjectId,Instrumentation-Amplifier,496e7374-7275-46d6-956e-746174696f6e,2.0*%
%TF.SameCoordinates,Original*%
%TF.FileFunction,Legend,Top*%
%TF.FilePolarity,Positive*%
%FSLAX46Y46*%
G04 Gerber Fmt 4.6, Leading zero omitted, Abs format (unit mm)*
G04 Created by KiCad (PCBNEW 5.1.10) date 2021-10-03 17:54:42*
%MOMM*%
%LPD*%
G01*
G04 APERTURE LIST*
%ADD10C,0.076200*%
%ADD11C,0.101600*%
%ADD12C,0.127000*%
%ADD13C,0.200000*%
%ADD14C,0.120000*%
%ADD15C,0.010000*%
%ADD16C,0.400000*%
%ADD17C,0.152400*%
%ADD18C,0.150000*%
%ADD19C,0.015000*%
G04 APERTURE END LIST*
D10*
X105482571Y-106655809D02*
X105240666Y-106655809D01*
X105240666Y-106147809D01*
X105748666Y-106147809D02*
X105797047Y-106147809D01*
X105845428Y-106172000D01*
X105869619Y-106196190D01*
X105893809Y-106244571D01*
X105918000Y-106341333D01*
X105918000Y-106462285D01*
X105893809Y-106559047D01*
X105869619Y-106607428D01*
X105845428Y-106631619D01*
X105797047Y-106655809D01*
X105748666Y-106655809D01*
X105700285Y-106631619D01*
X105676095Y-106607428D01*
X105651904Y-106559047D01*
X105627714Y-106462285D01*
X105627714Y-106341333D01*
X105651904Y-106244571D01*
X105676095Y-106196190D01*
X105700285Y-106172000D01*
X105748666Y-106147809D01*
X106232476Y-106147809D02*
X106280857Y-106147809D01*
X106329238Y-106172000D01*
X106353428Y-106196190D01*
X106377619Y-106244571D01*
X106401809Y-106341333D01*
X106401809Y-106462285D01*
X106377619Y-106559047D01*
X106353428Y-106607428D01*
X106329238Y-106631619D01*
X106280857Y-106655809D01*
X106232476Y-106655809D01*
X106184095Y-106631619D01*
X106159904Y-106607428D01*
X106135714Y-106559047D01*
X106111523Y-106462285D01*
X106111523Y-106341333D01*
X106135714Y-106244571D01*
X106159904Y-106196190D01*
X106184095Y-106172000D01*
X106232476Y-106147809D01*
X106716285Y-106147809D02*
X106764666Y-106147809D01*
X106813047Y-106172000D01*
X106837238Y-106196190D01*
X106861428Y-106244571D01*
X106885619Y-106341333D01*
X106885619Y-106462285D01*
X106861428Y-106559047D01*
X106837238Y-106607428D01*
X106813047Y-106631619D01*
X106764666Y-106655809D01*
X106716285Y-106655809D01*
X106667904Y-106631619D01*
X106643714Y-106607428D01*
X106619523Y-106559047D01*
X106595333Y-106462285D01*
X106595333Y-106341333D01*
X106619523Y-106244571D01*
X106643714Y-106196190D01*
X106667904Y-106172000D01*
X106716285Y-106147809D01*
X107369428Y-106655809D02*
X107079142Y-106655809D01*
X107224285Y-106655809D02*
X107224285Y-106147809D01*
X107175904Y-106220380D01*
X107127523Y-106268761D01*
X107079142Y-106292952D01*
X108264476Y-106655809D02*
X108095142Y-106413904D01*
X107974190Y-106655809D02*
X107974190Y-106147809D01*
X108167714Y-106147809D01*
X108216095Y-106172000D01*
X108240285Y-106196190D01*
X108264476Y-106244571D01*
X108264476Y-106317142D01*
X108240285Y-106365523D01*
X108216095Y-106389714D01*
X108167714Y-106413904D01*
X107974190Y-106413904D01*
X108675714Y-106631619D02*
X108627333Y-106655809D01*
X108530571Y-106655809D01*
X108482190Y-106631619D01*
X108458000Y-106583238D01*
X108458000Y-106389714D01*
X108482190Y-106341333D01*
X108530571Y-106317142D01*
X108627333Y-106317142D01*
X108675714Y-106341333D01*
X108699904Y-106389714D01*
X108699904Y-106438095D01*
X108458000Y-106486476D01*
X108869238Y-106317142D02*
X108990190Y-106655809D01*
X109111142Y-106317142D01*
X109667523Y-106196190D02*
X109691714Y-106172000D01*
X109740095Y-106147809D01*
X109861047Y-106147809D01*
X109909428Y-106172000D01*
X109933619Y-106196190D01*
X109957809Y-106244571D01*
X109957809Y-106292952D01*
X109933619Y-106365523D01*
X109643333Y-106655809D01*
X109957809Y-106655809D01*
X110175523Y-106607428D02*
X110199714Y-106631619D01*
X110175523Y-106655809D01*
X110151333Y-106631619D01*
X110175523Y-106607428D01*
X110175523Y-106655809D01*
X110514190Y-106147809D02*
X110562571Y-106147809D01*
X110610952Y-106172000D01*
X110635142Y-106196190D01*
X110659333Y-106244571D01*
X110683523Y-106341333D01*
X110683523Y-106462285D01*
X110659333Y-106559047D01*
X110635142Y-106607428D01*
X110610952Y-106631619D01*
X110562571Y-106655809D01*
X110514190Y-106655809D01*
X110465809Y-106631619D01*
X110441619Y-106607428D01*
X110417428Y-106559047D01*
X110393238Y-106462285D01*
X110393238Y-106341333D01*
X110417428Y-106244571D01*
X110441619Y-106196190D01*
X110465809Y-106172000D01*
X110514190Y-106147809D01*
D11*
X121085428Y-132388428D02*
X121666000Y-132388428D01*
X121375714Y-132678714D02*
X121375714Y-132098142D01*
X122428000Y-132678714D02*
X121992571Y-132678714D01*
X122210285Y-132678714D02*
X122210285Y-131916714D01*
X122137714Y-132025571D01*
X122065142Y-132098142D01*
X121992571Y-132134428D01*
X122718285Y-131989285D02*
X122754571Y-131953000D01*
X122827142Y-131916714D01*
X123008571Y-131916714D01*
X123081142Y-131953000D01*
X123117428Y-131989285D01*
X123153714Y-132061857D01*
X123153714Y-132134428D01*
X123117428Y-132243285D01*
X122682000Y-132678714D01*
X123153714Y-132678714D01*
X123371428Y-131916714D02*
X123625428Y-132678714D01*
X123879428Y-131916714D01*
X116894428Y-130410857D02*
X116894428Y-129830285D01*
X117184714Y-130120571D02*
X116604142Y-130120571D01*
X117184714Y-129467428D02*
X116422714Y-129467428D01*
X117184714Y-129104571D02*
X116422714Y-129104571D01*
X117184714Y-128669142D01*
X116422714Y-128669142D01*
X114354428Y-130410857D02*
X114354428Y-129830285D01*
X114644714Y-129467428D02*
X113882714Y-129467428D01*
X114644714Y-129104571D02*
X113882714Y-129104571D01*
X114644714Y-128669142D01*
X113882714Y-128669142D01*
X111379000Y-129866571D02*
X111342714Y-129939142D01*
X111342714Y-130048000D01*
X111379000Y-130156857D01*
X111451571Y-130229428D01*
X111524142Y-130265714D01*
X111669285Y-130302000D01*
X111778142Y-130302000D01*
X111923285Y-130265714D01*
X111995857Y-130229428D01*
X112068428Y-130156857D01*
X112104714Y-130048000D01*
X112104714Y-129975428D01*
X112068428Y-129866571D01*
X112032142Y-129830285D01*
X111778142Y-129830285D01*
X111778142Y-129975428D01*
X112104714Y-129503714D02*
X111342714Y-129503714D01*
X112104714Y-129068285D01*
X111342714Y-129068285D01*
X112104714Y-128705428D02*
X111342714Y-128705428D01*
X111342714Y-128524000D01*
X111379000Y-128415142D01*
X111451571Y-128342571D01*
X111524142Y-128306285D01*
X111669285Y-128270000D01*
X111778142Y-128270000D01*
X111923285Y-128306285D01*
X111995857Y-128342571D01*
X112068428Y-128415142D01*
X112104714Y-128524000D01*
X112104714Y-128705428D01*
X108893428Y-126619000D02*
X108820857Y-126582714D01*
X108712000Y-126582714D01*
X108603142Y-126619000D01*
X108530571Y-126691571D01*
X108494285Y-126764142D01*
X108458000Y-126909285D01*
X108458000Y-127018142D01*
X108494285Y-127163285D01*
X108530571Y-127235857D01*
X108603142Y-127308428D01*
X108712000Y-127344714D01*
X108784571Y-127344714D01*
X108893428Y-127308428D01*
X108929714Y-127272142D01*
X108929714Y-127018142D01*
X108784571Y-127018142D01*
X109256285Y-127344714D02*
X109256285Y-126582714D01*
X109691714Y-127344714D01*
X109691714Y-126582714D01*
X110054571Y-127344714D02*
X110054571Y-126582714D01*
X110236000Y-126582714D01*
X110344857Y-126619000D01*
X110417428Y-126691571D01*
X110453714Y-126764142D01*
X110490000Y-126909285D01*
X110490000Y-127018142D01*
X110453714Y-127163285D01*
X110417428Y-127235857D01*
X110344857Y-127308428D01*
X110236000Y-127344714D01*
X110054571Y-127344714D01*
X108893428Y-124079000D02*
X108820857Y-124042714D01*
X108712000Y-124042714D01*
X108603142Y-124079000D01*
X108530571Y-124151571D01*
X108494285Y-124224142D01*
X108458000Y-124369285D01*
X108458000Y-124478142D01*
X108494285Y-124623285D01*
X108530571Y-124695857D01*
X108603142Y-124768428D01*
X108712000Y-124804714D01*
X108784571Y-124804714D01*
X108893428Y-124768428D01*
X108929714Y-124732142D01*
X108929714Y-124478142D01*
X108784571Y-124478142D01*
X109256285Y-124804714D02*
X109256285Y-124042714D01*
X109691714Y-124804714D01*
X109691714Y-124042714D01*
X110054571Y-124804714D02*
X110054571Y-124042714D01*
X110236000Y-124042714D01*
X110344857Y-124079000D01*
X110417428Y-124151571D01*
X110453714Y-124224142D01*
X110490000Y-124369285D01*
X110490000Y-124478142D01*
X110453714Y-124623285D01*
X110417428Y-124695857D01*
X110344857Y-124768428D01*
X110236000Y-124804714D01*
X110054571Y-124804714D01*
X108312857Y-121502714D02*
X108566857Y-122264714D01*
X108820857Y-121502714D01*
X109183714Y-122264714D02*
X109111142Y-122228428D01*
X109074857Y-122192142D01*
X109038571Y-122119571D01*
X109038571Y-121901857D01*
X109074857Y-121829285D01*
X109111142Y-121793000D01*
X109183714Y-121756714D01*
X109292571Y-121756714D01*
X109365142Y-121793000D01*
X109401428Y-121829285D01*
X109437714Y-121901857D01*
X109437714Y-122119571D01*
X109401428Y-122192142D01*
X109365142Y-122228428D01*
X109292571Y-122264714D01*
X109183714Y-122264714D01*
X110090857Y-121756714D02*
X110090857Y-122264714D01*
X109764285Y-121756714D02*
X109764285Y-122155857D01*
X109800571Y-122228428D01*
X109873142Y-122264714D01*
X109982000Y-122264714D01*
X110054571Y-122228428D01*
X110090857Y-122192142D01*
X110344857Y-121756714D02*
X110635142Y-121756714D01*
X110453714Y-121502714D02*
X110453714Y-122155857D01*
X110490000Y-122228428D01*
X110562571Y-122264714D01*
X110635142Y-122264714D01*
X108294714Y-119434428D02*
X108875285Y-119434428D01*
X108585000Y-119724714D02*
X108585000Y-119144142D01*
X109129285Y-118962714D02*
X109383285Y-119724714D01*
X109637285Y-118962714D01*
X109855000Y-119688428D02*
X109927571Y-119724714D01*
X110072714Y-119724714D01*
X110145285Y-119688428D01*
X110181571Y-119615857D01*
X110181571Y-119579571D01*
X110145285Y-119507000D01*
X110072714Y-119470714D01*
X109963857Y-119470714D01*
X109891285Y-119434428D01*
X109855000Y-119361857D01*
X109855000Y-119325571D01*
X109891285Y-119253000D01*
X109963857Y-119216714D01*
X110072714Y-119216714D01*
X110145285Y-119253000D01*
D12*
%TO.C,R3*%
X112450000Y-121120000D02*
X112450000Y-122720000D01*
X111070000Y-121120000D02*
X111070000Y-122720000D01*
%TO.C,R2*%
X125260000Y-131500000D02*
X123660000Y-131500000D01*
X125260000Y-130120000D02*
X123660000Y-130120000D01*
%TO.C,C2*%
X114658000Y-124910000D02*
X114958000Y-124910000D01*
X114658000Y-124010000D02*
X114958000Y-124010000D01*
%TO.C,R1*%
X123152000Y-120976000D02*
X124752000Y-120976000D01*
X123152000Y-122356000D02*
X124752000Y-122356000D01*
%TO.C,C1*%
X109670000Y-114870000D02*
X109670000Y-114570000D01*
X108770000Y-114870000D02*
X108770000Y-114570000D01*
%TO.C,U1*%
X112014000Y-109124000D02*
X112014000Y-112122000D01*
X112014000Y-112122000D02*
X122174000Y-112122000D01*
X122174000Y-112122000D02*
X122174000Y-109124000D01*
D13*
X114654000Y-118474000D02*
G75*
G03*
X114654000Y-118474000I-100000J0D01*
G01*
D14*
%TO.C,D1*%
X117871635Y-122897900D02*
X119872365Y-122897900D01*
X119872365Y-120942100D02*
X117871635Y-120942100D01*
X119253000Y-119380000D02*
X119253000Y-120396000D01*
X119253000Y-120396000D02*
X118364000Y-119888000D01*
X118364000Y-119888000D02*
X119253000Y-119380000D01*
X119253000Y-119888000D02*
X120142000Y-119888000D01*
X118364000Y-119380000D02*
X118364000Y-120396000D01*
X118364000Y-119888000D02*
X117729000Y-119888000D01*
D15*
%TO.C,LOGO1*%
G36*
X110143054Y-102123693D02*
G01*
X110140260Y-102131472D01*
X110133493Y-102142237D01*
X110132775Y-102143207D01*
X110125362Y-102154535D01*
X110120242Y-102164881D01*
X110119790Y-102166208D01*
X110116081Y-102173598D01*
X110112948Y-102175733D01*
X110109444Y-102179166D01*
X110109000Y-102182083D01*
X110107278Y-102187727D01*
X110105825Y-102188437D01*
X110102241Y-102191842D01*
X110096154Y-102200677D01*
X110090234Y-102210662D01*
X110081616Y-102225520D01*
X110070632Y-102243690D01*
X110059563Y-102261405D01*
X110058853Y-102262517D01*
X110047780Y-102280275D01*
X110036582Y-102298967D01*
X110027588Y-102314705D01*
X110027190Y-102315433D01*
X110017568Y-102332137D01*
X110006046Y-102350848D01*
X109998145Y-102362974D01*
X109989432Y-102376345D01*
X109982517Y-102387761D01*
X109978996Y-102394536D01*
X109973134Y-102405009D01*
X109965385Y-102413447D01*
X109958355Y-102417030D01*
X109958194Y-102417033D01*
X109952493Y-102418255D01*
X109940387Y-102421599D01*
X109923530Y-102426589D01*
X109903574Y-102432744D01*
X109898810Y-102434245D01*
X109876718Y-102441209D01*
X109855748Y-102447772D01*
X109838144Y-102453235D01*
X109826148Y-102456899D01*
X109825367Y-102457132D01*
X109809467Y-102461895D01*
X109791368Y-102467350D01*
X109784092Y-102469554D01*
X109737234Y-102483687D01*
X109699425Y-102494976D01*
X109687609Y-102498545D01*
X109668807Y-102504296D01*
X109644116Y-102511890D01*
X109614634Y-102520988D01*
X109581456Y-102531253D01*
X109545681Y-102542345D01*
X109508404Y-102553925D01*
X109493050Y-102558701D01*
X109468095Y-102566428D01*
X109440083Y-102575040D01*
X109413464Y-102583170D01*
X109402034Y-102586638D01*
X109377969Y-102593960D01*
X109351349Y-102602125D01*
X109326548Y-102609792D01*
X109317367Y-102612651D01*
X109298279Y-102618593D01*
X109280571Y-102624062D01*
X109266907Y-102628239D01*
X109262334Y-102629612D01*
X109248004Y-102633949D01*
X109232441Y-102638782D01*
X109230584Y-102639368D01*
X109215865Y-102643950D01*
X109198774Y-102649161D01*
X109192484Y-102651049D01*
X109176612Y-102655835D01*
X109153807Y-102662783D01*
X109125218Y-102671539D01*
X109091997Y-102681750D01*
X109055294Y-102693063D01*
X109016259Y-102705125D01*
X109014684Y-102705613D01*
X108992200Y-102712564D01*
X108970604Y-102719231D01*
X108952218Y-102724897D01*
X108939367Y-102728845D01*
X108938484Y-102729115D01*
X108922087Y-102734186D01*
X108905727Y-102739331D01*
X108900384Y-102741037D01*
X108887737Y-102744958D01*
X108870563Y-102750094D01*
X108852480Y-102755365D01*
X108851700Y-102755588D01*
X108835066Y-102760507D01*
X108820537Y-102765067D01*
X108810957Y-102768373D01*
X108810226Y-102768662D01*
X108798572Y-102772099D01*
X108790537Y-102771980D01*
X108788200Y-102769215D01*
X108791782Y-102766065D01*
X108801414Y-102760377D01*
X108815430Y-102753090D01*
X108825242Y-102748345D01*
X108839004Y-102741846D01*
X108855138Y-102734197D01*
X108874426Y-102725024D01*
X108897652Y-102713954D01*
X108925601Y-102700612D01*
X108959055Y-102684626D01*
X108998797Y-102665622D01*
X109031617Y-102649921D01*
X109048180Y-102641986D01*
X109070249Y-102631398D01*
X109095704Y-102619175D01*
X109122421Y-102606336D01*
X109143229Y-102596330D01*
X109166065Y-102585375D01*
X109186142Y-102575800D01*
X109202272Y-102568168D01*
X109213266Y-102563042D01*
X109217934Y-102560982D01*
X109218005Y-102560967D01*
X109222001Y-102559199D01*
X109232554Y-102554233D01*
X109248604Y-102546576D01*
X109269094Y-102536734D01*
X109292966Y-102525211D01*
X109310917Y-102516517D01*
X109336515Y-102504127D01*
X109359467Y-102493067D01*
X109378715Y-102483843D01*
X109393199Y-102476960D01*
X109401862Y-102472925D01*
X109403892Y-102472067D01*
X109407928Y-102470313D01*
X109418429Y-102465418D01*
X109434241Y-102457928D01*
X109454208Y-102448392D01*
X109477177Y-102437357D01*
X109483001Y-102434549D01*
X109509714Y-102421681D01*
X109536716Y-102408701D01*
X109562006Y-102396570D01*
X109583583Y-102386248D01*
X109598884Y-102378961D01*
X109613631Y-102371952D01*
X109634923Y-102361814D01*
X109661665Y-102349069D01*
X109692763Y-102334238D01*
X109727123Y-102317845D01*
X109763650Y-102300410D01*
X109801250Y-102282457D01*
X109838829Y-102264507D01*
X109875293Y-102247082D01*
X109876167Y-102246664D01*
X109893226Y-102238498D01*
X109915425Y-102227856D01*
X109940273Y-102215932D01*
X109965282Y-102203920D01*
X109973534Y-102199954D01*
X110015298Y-102179907D01*
X110051778Y-102162461D01*
X110082583Y-102147799D01*
X110107321Y-102136108D01*
X110125602Y-102127572D01*
X110137034Y-102122375D01*
X110141203Y-102120700D01*
X110143054Y-102123693D01*
G37*
X110143054Y-102123693D02*
X110140260Y-102131472D01*
X110133493Y-102142237D01*
X110132775Y-102143207D01*
X110125362Y-102154535D01*
X110120242Y-102164881D01*
X110119790Y-102166208D01*
X110116081Y-102173598D01*
X110112948Y-102175733D01*
X110109444Y-102179166D01*
X110109000Y-102182083D01*
X110107278Y-102187727D01*
X110105825Y-102188437D01*
X110102241Y-102191842D01*
X110096154Y-102200677D01*
X110090234Y-102210662D01*
X110081616Y-102225520D01*
X110070632Y-102243690D01*
X110059563Y-102261405D01*
X110058853Y-102262517D01*
X110047780Y-102280275D01*
X110036582Y-102298967D01*
X110027588Y-102314705D01*
X110027190Y-102315433D01*
X110017568Y-102332137D01*
X110006046Y-102350848D01*
X109998145Y-102362974D01*
X109989432Y-102376345D01*
X109982517Y-102387761D01*
X109978996Y-102394536D01*
X109973134Y-102405009D01*
X109965385Y-102413447D01*
X109958355Y-102417030D01*
X109958194Y-102417033D01*
X109952493Y-102418255D01*
X109940387Y-102421599D01*
X109923530Y-102426589D01*
X109903574Y-102432744D01*
X109898810Y-102434245D01*
X109876718Y-102441209D01*
X109855748Y-102447772D01*
X109838144Y-102453235D01*
X109826148Y-102456899D01*
X109825367Y-102457132D01*
X109809467Y-102461895D01*
X109791368Y-102467350D01*
X109784092Y-102469554D01*
X109737234Y-102483687D01*
X109699425Y-102494976D01*
X109687609Y-102498545D01*
X109668807Y-102504296D01*
X109644116Y-102511890D01*
X109614634Y-102520988D01*
X109581456Y-102531253D01*
X109545681Y-102542345D01*
X109508404Y-102553925D01*
X109493050Y-102558701D01*
X109468095Y-102566428D01*
X109440083Y-102575040D01*
X109413464Y-102583170D01*
X109402034Y-102586638D01*
X109377969Y-102593960D01*
X109351349Y-102602125D01*
X109326548Y-102609792D01*
X109317367Y-102612651D01*
X109298279Y-102618593D01*
X109280571Y-102624062D01*
X109266907Y-102628239D01*
X109262334Y-102629612D01*
X109248004Y-102633949D01*
X109232441Y-102638782D01*
X109230584Y-102639368D01*
X109215865Y-102643950D01*
X109198774Y-102649161D01*
X109192484Y-102651049D01*
X109176612Y-102655835D01*
X109153807Y-102662783D01*
X109125218Y-102671539D01*
X109091997Y-102681750D01*
X109055294Y-102693063D01*
X109016259Y-102705125D01*
X109014684Y-102705613D01*
X108992200Y-102712564D01*
X108970604Y-102719231D01*
X108952218Y-102724897D01*
X108939367Y-102728845D01*
X108938484Y-102729115D01*
X108922087Y-102734186D01*
X108905727Y-102739331D01*
X108900384Y-102741037D01*
X108887737Y-102744958D01*
X108870563Y-102750094D01*
X108852480Y-102755365D01*
X108851700Y-102755588D01*
X108835066Y-102760507D01*
X108820537Y-102765067D01*
X108810957Y-102768373D01*
X108810226Y-102768662D01*
X108798572Y-102772099D01*
X108790537Y-102771980D01*
X108788200Y-102769215D01*
X108791782Y-102766065D01*
X108801414Y-102760377D01*
X108815430Y-102753090D01*
X108825242Y-102748345D01*
X108839004Y-102741846D01*
X108855138Y-102734197D01*
X108874426Y-102725024D01*
X108897652Y-102713954D01*
X108925601Y-102700612D01*
X108959055Y-102684626D01*
X108998797Y-102665622D01*
X109031617Y-102649921D01*
X109048180Y-102641986D01*
X109070249Y-102631398D01*
X109095704Y-102619175D01*
X109122421Y-102606336D01*
X109143229Y-102596330D01*
X109166065Y-102585375D01*
X109186142Y-102575800D01*
X109202272Y-102568168D01*
X109213266Y-102563042D01*
X109217934Y-102560982D01*
X109218005Y-102560967D01*
X109222001Y-102559199D01*
X109232554Y-102554233D01*
X109248604Y-102546576D01*
X109269094Y-102536734D01*
X109292966Y-102525211D01*
X109310917Y-102516517D01*
X109336515Y-102504127D01*
X109359467Y-102493067D01*
X109378715Y-102483843D01*
X109393199Y-102476960D01*
X109401862Y-102472925D01*
X109403892Y-102472067D01*
X109407928Y-102470313D01*
X109418429Y-102465418D01*
X109434241Y-102457928D01*
X109454208Y-102448392D01*
X109477177Y-102437357D01*
X109483001Y-102434549D01*
X109509714Y-102421681D01*
X109536716Y-102408701D01*
X109562006Y-102396570D01*
X109583583Y-102386248D01*
X109598884Y-102378961D01*
X109613631Y-102371952D01*
X109634923Y-102361814D01*
X109661665Y-102349069D01*
X109692763Y-102334238D01*
X109727123Y-102317845D01*
X109763650Y-102300410D01*
X109801250Y-102282457D01*
X109838829Y-102264507D01*
X109875293Y-102247082D01*
X109876167Y-102246664D01*
X109893226Y-102238498D01*
X109915425Y-102227856D01*
X109940273Y-102215932D01*
X109965282Y-102203920D01*
X109973534Y-102199954D01*
X110015298Y-102179907D01*
X110051778Y-102162461D01*
X110082583Y-102147799D01*
X110107321Y-102136108D01*
X110125602Y-102127572D01*
X110137034Y-102122375D01*
X110141203Y-102120700D01*
X110143054Y-102123693D01*
G36*
X105767231Y-102113994D02*
G01*
X105777849Y-102118913D01*
X105793790Y-102126450D01*
X105813909Y-102136060D01*
X105837060Y-102147202D01*
X105844573Y-102150833D01*
X105871127Y-102163656D01*
X105897541Y-102176367D01*
X105921974Y-102188083D01*
X105942585Y-102197921D01*
X105957532Y-102204999D01*
X105958217Y-102205320D01*
X105974923Y-102213210D01*
X105996657Y-102223550D01*
X106020827Y-102235103D01*
X106044839Y-102246632D01*
X106049234Y-102248749D01*
X106078113Y-102262645D01*
X106106426Y-102276220D01*
X106135938Y-102290317D01*
X106168419Y-102305779D01*
X106205637Y-102323451D01*
X106233384Y-102336606D01*
X106254864Y-102346814D01*
X106280484Y-102359033D01*
X106306758Y-102371597D01*
X106326517Y-102381073D01*
X106369282Y-102401589D01*
X106416205Y-102424047D01*
X106463788Y-102446777D01*
X106508531Y-102468106D01*
X106521250Y-102474159D01*
X106540065Y-102483127D01*
X106563587Y-102494364D01*
X106588891Y-102506473D01*
X106613053Y-102518055D01*
X106614384Y-102518693D01*
X106638382Y-102530186D01*
X106663696Y-102542266D01*
X106687402Y-102553540D01*
X106706578Y-102562618D01*
X106707517Y-102563061D01*
X106726660Y-102572127D01*
X106750367Y-102583419D01*
X106775577Y-102595477D01*
X106798534Y-102606505D01*
X106843622Y-102628216D01*
X106881870Y-102646614D01*
X106914057Y-102662073D01*
X106940965Y-102674968D01*
X106963374Y-102685672D01*
X106982065Y-102694559D01*
X106997818Y-102702003D01*
X107005967Y-102705830D01*
X107042531Y-102723051D01*
X107071881Y-102737093D01*
X107094536Y-102748220D01*
X107111015Y-102756699D01*
X107121839Y-102762793D01*
X107127526Y-102766768D01*
X107128733Y-102768510D01*
X107125386Y-102772036D01*
X107116057Y-102770872D01*
X107109683Y-102768611D01*
X107101631Y-102765771D01*
X107088151Y-102761443D01*
X107071947Y-102756491D01*
X107069467Y-102755753D01*
X107051454Y-102750347D01*
X107034178Y-102745051D01*
X107021246Y-102740970D01*
X107020783Y-102740820D01*
X107007035Y-102736517D01*
X106989768Y-102731351D01*
X106978450Y-102728077D01*
X106960524Y-102722793D01*
X106939614Y-102716360D01*
X106923417Y-102711194D01*
X106906160Y-102705679D01*
X106884267Y-102698841D01*
X106861218Y-102691761D01*
X106849334Y-102688163D01*
X106820546Y-102679472D01*
X106790908Y-102670467D01*
X106762046Y-102661648D01*
X106735588Y-102653513D01*
X106713161Y-102646563D01*
X106696392Y-102641297D01*
X106690584Y-102639433D01*
X106677961Y-102635447D01*
X106660818Y-102630184D01*
X106642759Y-102624748D01*
X106641900Y-102624492D01*
X106622524Y-102618656D01*
X106602590Y-102612529D01*
X106586867Y-102607582D01*
X106568936Y-102601966D01*
X106548750Y-102595844D01*
X106538184Y-102592728D01*
X106512248Y-102585059D01*
X106483923Y-102576467D01*
X106457080Y-102568138D01*
X106440817Y-102562958D01*
X106428714Y-102559118D01*
X106409684Y-102553176D01*
X106384900Y-102545496D01*
X106355535Y-102536439D01*
X106322763Y-102526367D01*
X106287757Y-102515643D01*
X106263017Y-102508083D01*
X106242547Y-102501808D01*
X106224182Y-102496125D01*
X106209909Y-102491655D01*
X106201714Y-102489015D01*
X106201634Y-102488988D01*
X106192455Y-102486079D01*
X106178054Y-102481734D01*
X106161353Y-102476834D01*
X106159300Y-102476241D01*
X106141264Y-102470944D01*
X106123971Y-102465705D01*
X106111042Y-102461622D01*
X106110617Y-102461482D01*
X106095951Y-102456739D01*
X106076378Y-102450564D01*
X106053844Y-102443552D01*
X106030296Y-102436301D01*
X106007678Y-102429409D01*
X105987937Y-102423472D01*
X105973018Y-102419087D01*
X105966684Y-102417314D01*
X105955666Y-102414138D01*
X105947778Y-102410545D01*
X105941256Y-102404911D01*
X105934337Y-102395613D01*
X105925260Y-102381027D01*
X105922719Y-102376817D01*
X105911307Y-102357897D01*
X105903387Y-102344872D01*
X105898084Y-102336384D01*
X105894522Y-102331073D01*
X105891826Y-102327582D01*
X105889120Y-102324553D01*
X105888837Y-102324247D01*
X105882876Y-102315907D01*
X105876942Y-102305018D01*
X105870688Y-102292898D01*
X105861990Y-102277660D01*
X105851936Y-102261019D01*
X105841611Y-102244688D01*
X105832101Y-102230381D01*
X105824494Y-102219812D01*
X105819874Y-102214695D01*
X105819595Y-102214539D01*
X105816480Y-102209678D01*
X105816400Y-102208647D01*
X105814246Y-102203346D01*
X105808549Y-102192904D01*
X105800460Y-102179169D01*
X105791128Y-102163984D01*
X105781704Y-102149196D01*
X105773337Y-102136651D01*
X105767177Y-102128195D01*
X105764682Y-102125639D01*
X105762083Y-102121562D01*
X105761336Y-102115451D01*
X105763031Y-102112234D01*
X105763081Y-102112233D01*
X105767231Y-102113994D01*
G37*
X105767231Y-102113994D02*
X105777849Y-102118913D01*
X105793790Y-102126450D01*
X105813909Y-102136060D01*
X105837060Y-102147202D01*
X105844573Y-102150833D01*
X105871127Y-102163656D01*
X105897541Y-102176367D01*
X105921974Y-102188083D01*
X105942585Y-102197921D01*
X105957532Y-102204999D01*
X105958217Y-102205320D01*
X105974923Y-102213210D01*
X105996657Y-102223550D01*
X106020827Y-102235103D01*
X106044839Y-102246632D01*
X106049234Y-102248749D01*
X106078113Y-102262645D01*
X106106426Y-102276220D01*
X106135938Y-102290317D01*
X106168419Y-102305779D01*
X106205637Y-102323451D01*
X106233384Y-102336606D01*
X106254864Y-102346814D01*
X106280484Y-102359033D01*
X106306758Y-102371597D01*
X106326517Y-102381073D01*
X106369282Y-102401589D01*
X106416205Y-102424047D01*
X106463788Y-102446777D01*
X106508531Y-102468106D01*
X106521250Y-102474159D01*
X106540065Y-102483127D01*
X106563587Y-102494364D01*
X106588891Y-102506473D01*
X106613053Y-102518055D01*
X106614384Y-102518693D01*
X106638382Y-102530186D01*
X106663696Y-102542266D01*
X106687402Y-102553540D01*
X106706578Y-102562618D01*
X106707517Y-102563061D01*
X106726660Y-102572127D01*
X106750367Y-102583419D01*
X106775577Y-102595477D01*
X106798534Y-102606505D01*
X106843622Y-102628216D01*
X106881870Y-102646614D01*
X106914057Y-102662073D01*
X106940965Y-102674968D01*
X106963374Y-102685672D01*
X106982065Y-102694559D01*
X106997818Y-102702003D01*
X107005967Y-102705830D01*
X107042531Y-102723051D01*
X107071881Y-102737093D01*
X107094536Y-102748220D01*
X107111015Y-102756699D01*
X107121839Y-102762793D01*
X107127526Y-102766768D01*
X107128733Y-102768510D01*
X107125386Y-102772036D01*
X107116057Y-102770872D01*
X107109683Y-102768611D01*
X107101631Y-102765771D01*
X107088151Y-102761443D01*
X107071947Y-102756491D01*
X107069467Y-102755753D01*
X107051454Y-102750347D01*
X107034178Y-102745051D01*
X107021246Y-102740970D01*
X107020783Y-102740820D01*
X107007035Y-102736517D01*
X106989768Y-102731351D01*
X106978450Y-102728077D01*
X106960524Y-102722793D01*
X106939614Y-102716360D01*
X106923417Y-102711194D01*
X106906160Y-102705679D01*
X106884267Y-102698841D01*
X106861218Y-102691761D01*
X106849334Y-102688163D01*
X106820546Y-102679472D01*
X106790908Y-102670467D01*
X106762046Y-102661648D01*
X106735588Y-102653513D01*
X106713161Y-102646563D01*
X106696392Y-102641297D01*
X106690584Y-102639433D01*
X106677961Y-102635447D01*
X106660818Y-102630184D01*
X106642759Y-102624748D01*
X106641900Y-102624492D01*
X106622524Y-102618656D01*
X106602590Y-102612529D01*
X106586867Y-102607582D01*
X106568936Y-102601966D01*
X106548750Y-102595844D01*
X106538184Y-102592728D01*
X106512248Y-102585059D01*
X106483923Y-102576467D01*
X106457080Y-102568138D01*
X106440817Y-102562958D01*
X106428714Y-102559118D01*
X106409684Y-102553176D01*
X106384900Y-102545496D01*
X106355535Y-102536439D01*
X106322763Y-102526367D01*
X106287757Y-102515643D01*
X106263017Y-102508083D01*
X106242547Y-102501808D01*
X106224182Y-102496125D01*
X106209909Y-102491655D01*
X106201714Y-102489015D01*
X106201634Y-102488988D01*
X106192455Y-102486079D01*
X106178054Y-102481734D01*
X106161353Y-102476834D01*
X106159300Y-102476241D01*
X106141264Y-102470944D01*
X106123971Y-102465705D01*
X106111042Y-102461622D01*
X106110617Y-102461482D01*
X106095951Y-102456739D01*
X106076378Y-102450564D01*
X106053844Y-102443552D01*
X106030296Y-102436301D01*
X106007678Y-102429409D01*
X105987937Y-102423472D01*
X105973018Y-102419087D01*
X105966684Y-102417314D01*
X105955666Y-102414138D01*
X105947778Y-102410545D01*
X105941256Y-102404911D01*
X105934337Y-102395613D01*
X105925260Y-102381027D01*
X105922719Y-102376817D01*
X105911307Y-102357897D01*
X105903387Y-102344872D01*
X105898084Y-102336384D01*
X105894522Y-102331073D01*
X105891826Y-102327582D01*
X105889120Y-102324553D01*
X105888837Y-102324247D01*
X105882876Y-102315907D01*
X105876942Y-102305018D01*
X105870688Y-102292898D01*
X105861990Y-102277660D01*
X105851936Y-102261019D01*
X105841611Y-102244688D01*
X105832101Y-102230381D01*
X105824494Y-102219812D01*
X105819874Y-102214695D01*
X105819595Y-102214539D01*
X105816480Y-102209678D01*
X105816400Y-102208647D01*
X105814246Y-102203346D01*
X105808549Y-102192904D01*
X105800460Y-102179169D01*
X105791128Y-102163984D01*
X105781704Y-102149196D01*
X105773337Y-102136651D01*
X105767177Y-102128195D01*
X105764682Y-102125639D01*
X105762083Y-102121562D01*
X105761336Y-102115451D01*
X105763031Y-102112234D01*
X105763081Y-102112233D01*
X105767231Y-102113994D01*
G36*
X109560140Y-103069939D02*
G01*
X109561390Y-103070279D01*
X109560081Y-103074450D01*
X109554978Y-103084300D01*
X109546875Y-103098391D01*
X109536569Y-103115288D01*
X109535684Y-103116701D01*
X109525005Y-103134080D01*
X109516224Y-103149072D01*
X109510220Y-103160124D01*
X109507872Y-103165685D01*
X109507867Y-103165790D01*
X109504952Y-103170328D01*
X109503634Y-103170567D01*
X109499582Y-103173835D01*
X109499400Y-103175166D01*
X109497150Y-103181079D01*
X109491411Y-103191045D01*
X109487222Y-103197391D01*
X109479235Y-103209396D01*
X109468818Y-103225654D01*
X109457893Y-103243158D01*
X109455033Y-103247825D01*
X109435024Y-103280633D01*
X109311637Y-103279819D01*
X109277912Y-103279550D01*
X109237681Y-103279151D01*
X109192903Y-103278646D01*
X109145539Y-103278060D01*
X109097547Y-103277416D01*
X109050888Y-103276739D01*
X109014684Y-103276171D01*
X108971747Y-103275501D01*
X108926843Y-103274854D01*
X108881733Y-103274254D01*
X108838177Y-103273720D01*
X108797938Y-103273276D01*
X108762776Y-103272943D01*
X108736342Y-103272752D01*
X108703444Y-103272508D01*
X108678081Y-103272150D01*
X108659320Y-103271616D01*
X108646229Y-103270843D01*
X108637874Y-103269771D01*
X108633325Y-103268337D01*
X108631649Y-103266480D01*
X108631567Y-103265817D01*
X108633653Y-103260180D01*
X108635424Y-103259467D01*
X108639863Y-103256814D01*
X108649747Y-103249373D01*
X108664137Y-103237913D01*
X108682093Y-103223208D01*
X108702677Y-103206028D01*
X108724949Y-103187146D01*
X108747971Y-103167334D01*
X108755500Y-103160786D01*
X108767559Y-103150928D01*
X108778294Y-103143276D01*
X108784226Y-103140009D01*
X108791092Y-103138639D01*
X108804849Y-103136794D01*
X108823945Y-103134651D01*
X108846830Y-103132385D01*
X108867726Y-103130527D01*
X108899532Y-103127807D01*
X108935484Y-103124679D01*
X108971821Y-103121472D01*
X109004781Y-103118518D01*
X109014684Y-103117617D01*
X109083988Y-103111345D01*
X109146142Y-103105848D01*
X109200826Y-103101152D01*
X109247720Y-103097286D01*
X109285617Y-103094342D01*
X109310318Y-103092369D01*
X109335711Y-103090114D01*
X109358642Y-103087871D01*
X109374517Y-103086109D01*
X109395805Y-103083796D01*
X109420594Y-103081524D01*
X109443929Y-103079744D01*
X109446484Y-103079579D01*
X109470063Y-103077816D01*
X109496440Y-103075418D01*
X109520215Y-103072881D01*
X109521932Y-103072676D01*
X109538778Y-103070891D01*
X109552190Y-103069938D01*
X109560140Y-103069939D01*
G37*
X109560140Y-103069939D02*
X109561390Y-103070279D01*
X109560081Y-103074450D01*
X109554978Y-103084300D01*
X109546875Y-103098391D01*
X109536569Y-103115288D01*
X109535684Y-103116701D01*
X109525005Y-103134080D01*
X109516224Y-103149072D01*
X109510220Y-103160124D01*
X109507872Y-103165685D01*
X109507867Y-103165790D01*
X109504952Y-103170328D01*
X109503634Y-103170567D01*
X109499582Y-103173835D01*
X109499400Y-103175166D01*
X109497150Y-103181079D01*
X109491411Y-103191045D01*
X109487222Y-103197391D01*
X109479235Y-103209396D01*
X109468818Y-103225654D01*
X109457893Y-103243158D01*
X109455033Y-103247825D01*
X109435024Y-103280633D01*
X109311637Y-103279819D01*
X109277912Y-103279550D01*
X109237681Y-103279151D01*
X109192903Y-103278646D01*
X109145539Y-103278060D01*
X109097547Y-103277416D01*
X109050888Y-103276739D01*
X109014684Y-103276171D01*
X108971747Y-103275501D01*
X108926843Y-103274854D01*
X108881733Y-103274254D01*
X108838177Y-103273720D01*
X108797938Y-103273276D01*
X108762776Y-103272943D01*
X108736342Y-103272752D01*
X108703444Y-103272508D01*
X108678081Y-103272150D01*
X108659320Y-103271616D01*
X108646229Y-103270843D01*
X108637874Y-103269771D01*
X108633325Y-103268337D01*
X108631649Y-103266480D01*
X108631567Y-103265817D01*
X108633653Y-103260180D01*
X108635424Y-103259467D01*
X108639863Y-103256814D01*
X108649747Y-103249373D01*
X108664137Y-103237913D01*
X108682093Y-103223208D01*
X108702677Y-103206028D01*
X108724949Y-103187146D01*
X108747971Y-103167334D01*
X108755500Y-103160786D01*
X108767559Y-103150928D01*
X108778294Y-103143276D01*
X108784226Y-103140009D01*
X108791092Y-103138639D01*
X108804849Y-103136794D01*
X108823945Y-103134651D01*
X108846830Y-103132385D01*
X108867726Y-103130527D01*
X108899532Y-103127807D01*
X108935484Y-103124679D01*
X108971821Y-103121472D01*
X109004781Y-103118518D01*
X109014684Y-103117617D01*
X109083988Y-103111345D01*
X109146142Y-103105848D01*
X109200826Y-103101152D01*
X109247720Y-103097286D01*
X109285617Y-103094342D01*
X109310318Y-103092369D01*
X109335711Y-103090114D01*
X109358642Y-103087871D01*
X109374517Y-103086109D01*
X109395805Y-103083796D01*
X109420594Y-103081524D01*
X109443929Y-103079744D01*
X109446484Y-103079579D01*
X109470063Y-103077816D01*
X109496440Y-103075418D01*
X109520215Y-103072881D01*
X109521932Y-103072676D01*
X109538778Y-103070891D01*
X109552190Y-103069938D01*
X109560140Y-103069939D01*
G36*
X106376259Y-103070485D02*
G01*
X106387308Y-103071799D01*
X106404550Y-103073496D01*
X106425733Y-103075367D01*
X106448603Y-103077204D01*
X106451400Y-103077416D01*
X106476965Y-103079462D01*
X106503679Y-103081807D01*
X106528282Y-103084153D01*
X106546650Y-103086103D01*
X106566957Y-103088256D01*
X106592143Y-103090650D01*
X106618637Y-103092959D01*
X106637667Y-103094471D01*
X106673311Y-103097258D01*
X106716230Y-103100802D01*
X106765276Y-103105002D01*
X106819301Y-103109761D01*
X106877155Y-103114977D01*
X106904367Y-103117470D01*
X106933926Y-103120153D01*
X106968406Y-103123226D01*
X107004289Y-103126378D01*
X107038058Y-103129298D01*
X107051495Y-103130442D01*
X107076668Y-103132699D01*
X107099298Y-103134963D01*
X107117877Y-103137065D01*
X107130900Y-103138834D01*
X107136666Y-103140019D01*
X107140339Y-103141782D01*
X107145290Y-103145002D01*
X107152441Y-103150418D01*
X107162716Y-103158774D01*
X107177039Y-103170810D01*
X107196334Y-103187269D01*
X107208942Y-103198083D01*
X107222048Y-103209209D01*
X107238449Y-103222953D01*
X107254881Y-103236584D01*
X107256965Y-103238300D01*
X107269759Y-103249322D01*
X107279555Y-103258707D01*
X107284821Y-103264949D01*
X107285317Y-103266201D01*
X107282098Y-103267444D01*
X107272226Y-103268589D01*
X107255422Y-103269648D01*
X107231405Y-103270630D01*
X107199897Y-103271545D01*
X107160616Y-103272405D01*
X107113284Y-103273220D01*
X107087458Y-103273601D01*
X107037538Y-103274302D01*
X106981508Y-103275086D01*
X106921726Y-103275922D01*
X106860547Y-103276776D01*
X106800329Y-103277615D01*
X106743427Y-103278406D01*
X106692198Y-103279117D01*
X106688109Y-103279174D01*
X106486667Y-103281965D01*
X106479420Y-103271774D01*
X106473858Y-103263511D01*
X106465400Y-103250440D01*
X106455591Y-103234959D01*
X106452386Y-103229833D01*
X106443178Y-103215472D01*
X106435431Y-103204145D01*
X106430352Y-103197589D01*
X106429300Y-103196672D01*
X106426034Y-103191836D01*
X106426000Y-103191250D01*
X106423870Y-103186424D01*
X106418001Y-103175791D01*
X106409174Y-103160702D01*
X106398172Y-103142508D01*
X106392134Y-103132723D01*
X106380322Y-103113383D01*
X106370304Y-103096358D01*
X106362866Y-103083032D01*
X106358795Y-103074791D01*
X106358267Y-103073030D01*
X106361181Y-103069928D01*
X106370631Y-103069782D01*
X106376259Y-103070485D01*
G37*
X106376259Y-103070485D02*
X106387308Y-103071799D01*
X106404550Y-103073496D01*
X106425733Y-103075367D01*
X106448603Y-103077204D01*
X106451400Y-103077416D01*
X106476965Y-103079462D01*
X106503679Y-103081807D01*
X106528282Y-103084153D01*
X106546650Y-103086103D01*
X106566957Y-103088256D01*
X106592143Y-103090650D01*
X106618637Y-103092959D01*
X106637667Y-103094471D01*
X106673311Y-103097258D01*
X106716230Y-103100802D01*
X106765276Y-103105002D01*
X106819301Y-103109761D01*
X106877155Y-103114977D01*
X106904367Y-103117470D01*
X106933926Y-103120153D01*
X106968406Y-103123226D01*
X107004289Y-103126378D01*
X107038058Y-103129298D01*
X107051495Y-103130442D01*
X107076668Y-103132699D01*
X107099298Y-103134963D01*
X107117877Y-103137065D01*
X107130900Y-103138834D01*
X107136666Y-103140019D01*
X107140339Y-103141782D01*
X107145290Y-103145002D01*
X107152441Y-103150418D01*
X107162716Y-103158774D01*
X107177039Y-103170810D01*
X107196334Y-103187269D01*
X107208942Y-103198083D01*
X107222048Y-103209209D01*
X107238449Y-103222953D01*
X107254881Y-103236584D01*
X107256965Y-103238300D01*
X107269759Y-103249322D01*
X107279555Y-103258707D01*
X107284821Y-103264949D01*
X107285317Y-103266201D01*
X107282098Y-103267444D01*
X107272226Y-103268589D01*
X107255422Y-103269648D01*
X107231405Y-103270630D01*
X107199897Y-103271545D01*
X107160616Y-103272405D01*
X107113284Y-103273220D01*
X107087458Y-103273601D01*
X107037538Y-103274302D01*
X106981508Y-103275086D01*
X106921726Y-103275922D01*
X106860547Y-103276776D01*
X106800329Y-103277615D01*
X106743427Y-103278406D01*
X106692198Y-103279117D01*
X106688109Y-103279174D01*
X106486667Y-103281965D01*
X106479420Y-103271774D01*
X106473858Y-103263511D01*
X106465400Y-103250440D01*
X106455591Y-103234959D01*
X106452386Y-103229833D01*
X106443178Y-103215472D01*
X106435431Y-103204145D01*
X106430352Y-103197589D01*
X106429300Y-103196672D01*
X106426034Y-103191836D01*
X106426000Y-103191250D01*
X106423870Y-103186424D01*
X106418001Y-103175791D01*
X106409174Y-103160702D01*
X106398172Y-103142508D01*
X106392134Y-103132723D01*
X106380322Y-103113383D01*
X106370304Y-103096358D01*
X106362866Y-103083032D01*
X106358795Y-103074791D01*
X106358267Y-103073030D01*
X106361181Y-103069928D01*
X106370631Y-103069782D01*
X106376259Y-103070485D01*
G36*
X109726006Y-102800317D02*
G01*
X109727937Y-102803226D01*
X109728000Y-102804303D01*
X109725999Y-102809991D01*
X109724261Y-102810733D01*
X109719917Y-102814169D01*
X109717952Y-102818142D01*
X109714783Y-102824385D01*
X109707970Y-102836125D01*
X109698472Y-102851757D01*
X109687251Y-102869672D01*
X109685696Y-102872117D01*
X109674171Y-102890408D01*
X109664087Y-102906811D01*
X109656456Y-102919648D01*
X109652295Y-102927243D01*
X109652086Y-102927700D01*
X109648021Y-102935389D01*
X109640702Y-102947822D01*
X109631515Y-102962662D01*
X109628815Y-102966902D01*
X109619969Y-102981168D01*
X109613248Y-102992897D01*
X109609736Y-103000159D01*
X109609467Y-103001276D01*
X109606724Y-103005356D01*
X109605915Y-103005467D01*
X109602066Y-103008925D01*
X109596577Y-103017624D01*
X109594311Y-103022018D01*
X109587621Y-103033438D01*
X109580754Y-103041730D01*
X109578965Y-103043127D01*
X109572452Y-103045011D01*
X109559069Y-103047328D01*
X109540389Y-103049859D01*
X109517984Y-103052383D01*
X109500610Y-103054057D01*
X109469649Y-103056863D01*
X109434705Y-103060077D01*
X109399618Y-103063342D01*
X109368226Y-103066303D01*
X109361817Y-103066915D01*
X109299851Y-103072834D01*
X109244247Y-103078116D01*
X109192941Y-103082955D01*
X109143869Y-103087543D01*
X109094967Y-103092071D01*
X109044171Y-103096733D01*
X108989416Y-103101721D01*
X108957534Y-103104612D01*
X108930657Y-103107119D01*
X108903513Y-103109776D01*
X108878624Y-103112328D01*
X108858513Y-103114520D01*
X108851700Y-103115321D01*
X108831765Y-103117427D01*
X108811969Y-103118989D01*
X108796114Y-103119715D01*
X108794099Y-103119734D01*
X108784311Y-103120043D01*
X108776308Y-103121581D01*
X108768275Y-103125313D01*
X108758393Y-103132205D01*
X108744845Y-103143222D01*
X108736271Y-103150458D01*
X108717873Y-103165985D01*
X108695939Y-103184394D01*
X108673462Y-103203178D01*
X108656688Y-103217133D01*
X108636217Y-103234179D01*
X108614033Y-103252754D01*
X108593040Y-103270420D01*
X108578481Y-103282750D01*
X108563921Y-103295063D01*
X108544592Y-103311301D01*
X108522252Y-103329995D01*
X108498658Y-103349675D01*
X108476482Y-103368109D01*
X108455631Y-103385420D01*
X108436507Y-103401319D01*
X108420253Y-103414854D01*
X108408010Y-103425073D01*
X108400922Y-103431027D01*
X108400239Y-103431609D01*
X108392783Y-103437856D01*
X108380944Y-103447627D01*
X108366918Y-103459113D01*
X108362558Y-103462666D01*
X108348217Y-103474423D01*
X108335326Y-103485136D01*
X108326123Y-103492940D01*
X108324437Y-103494416D01*
X108316751Y-103501013D01*
X108304725Y-103511072D01*
X108290597Y-103522725D01*
X108286390Y-103526166D01*
X108271259Y-103538668D01*
X108252371Y-103554500D01*
X108232362Y-103571442D01*
X108217235Y-103584375D01*
X108198695Y-103600128D01*
X108185572Y-103610747D01*
X108177024Y-103616798D01*
X108172209Y-103618849D01*
X108170283Y-103617467D01*
X108170134Y-103616055D01*
X108173065Y-103612676D01*
X108181593Y-103603720D01*
X108195319Y-103589589D01*
X108213847Y-103570686D01*
X108236778Y-103547412D01*
X108263714Y-103520169D01*
X108294258Y-103489360D01*
X108328010Y-103455386D01*
X108364574Y-103418650D01*
X108403551Y-103379553D01*
X108444544Y-103338498D01*
X108474955Y-103308080D01*
X108526718Y-103256374D01*
X108572834Y-103210402D01*
X108613601Y-103169876D01*
X108649322Y-103134505D01*
X108680294Y-103103999D01*
X108706819Y-103078069D01*
X108729197Y-103056423D01*
X108747728Y-103038772D01*
X108762712Y-103024826D01*
X108774449Y-103014294D01*
X108783240Y-103006887D01*
X108789383Y-103002315D01*
X108793181Y-103000287D01*
X108793513Y-103000196D01*
X108804508Y-102997737D01*
X108820446Y-102994247D01*
X108837990Y-102990457D01*
X108839000Y-102990241D01*
X108859060Y-102985925D01*
X108880106Y-102981369D01*
X108896150Y-102977871D01*
X108914403Y-102973908D01*
X108935654Y-102969347D01*
X108951184Y-102966047D01*
X108966451Y-102962778D01*
X108987459Y-102958218D01*
X109011685Y-102952918D01*
X109036605Y-102947428D01*
X109042200Y-102946189D01*
X109080500Y-102937735D01*
X109111823Y-102930897D01*
X109137447Y-102925401D01*
X109158649Y-102920975D01*
X109176707Y-102917344D01*
X109179784Y-102916742D01*
X109187238Y-102915270D01*
X109195420Y-102913600D01*
X109205416Y-102911498D01*
X109218311Y-102908730D01*
X109235192Y-102905060D01*
X109257143Y-102900255D01*
X109285250Y-102894079D01*
X109318425Y-102886777D01*
X109338245Y-102882479D01*
X109357343Y-102878454D01*
X109372550Y-102875364D01*
X109376634Y-102874576D01*
X109387688Y-102872357D01*
X109404910Y-102868728D01*
X109426209Y-102864138D01*
X109449491Y-102859034D01*
X109457067Y-102857355D01*
X109481787Y-102851883D01*
X109506396Y-102846477D01*
X109528371Y-102841687D01*
X109545191Y-102838066D01*
X109548084Y-102837453D01*
X109568490Y-102833124D01*
X109590615Y-102828400D01*
X109605234Y-102825260D01*
X109624316Y-102821228D01*
X109644339Y-102817126D01*
X109656034Y-102814807D01*
X109671747Y-102811544D01*
X109686099Y-102808214D01*
X109692017Y-102806658D01*
X109709467Y-102801940D01*
X109720323Y-102799857D01*
X109726006Y-102800317D01*
G37*
X109726006Y-102800317D02*
X109727937Y-102803226D01*
X109728000Y-102804303D01*
X109725999Y-102809991D01*
X109724261Y-102810733D01*
X109719917Y-102814169D01*
X109717952Y-102818142D01*
X109714783Y-102824385D01*
X109707970Y-102836125D01*
X109698472Y-102851757D01*
X109687251Y-102869672D01*
X109685696Y-102872117D01*
X109674171Y-102890408D01*
X109664087Y-102906811D01*
X109656456Y-102919648D01*
X109652295Y-102927243D01*
X109652086Y-102927700D01*
X109648021Y-102935389D01*
X109640702Y-102947822D01*
X109631515Y-102962662D01*
X109628815Y-102966902D01*
X109619969Y-102981168D01*
X109613248Y-102992897D01*
X109609736Y-103000159D01*
X109609467Y-103001276D01*
X109606724Y-103005356D01*
X109605915Y-103005467D01*
X109602066Y-103008925D01*
X109596577Y-103017624D01*
X109594311Y-103022018D01*
X109587621Y-103033438D01*
X109580754Y-103041730D01*
X109578965Y-103043127D01*
X109572452Y-103045011D01*
X109559069Y-103047328D01*
X109540389Y-103049859D01*
X109517984Y-103052383D01*
X109500610Y-103054057D01*
X109469649Y-103056863D01*
X109434705Y-103060077D01*
X109399618Y-103063342D01*
X109368226Y-103066303D01*
X109361817Y-103066915D01*
X109299851Y-103072834D01*
X109244247Y-103078116D01*
X109192941Y-103082955D01*
X109143869Y-103087543D01*
X109094967Y-103092071D01*
X109044171Y-103096733D01*
X108989416Y-103101721D01*
X108957534Y-103104612D01*
X108930657Y-103107119D01*
X108903513Y-103109776D01*
X108878624Y-103112328D01*
X108858513Y-103114520D01*
X108851700Y-103115321D01*
X108831765Y-103117427D01*
X108811969Y-103118989D01*
X108796114Y-103119715D01*
X108794099Y-103119734D01*
X108784311Y-103120043D01*
X108776308Y-103121581D01*
X108768275Y-103125313D01*
X108758393Y-103132205D01*
X108744845Y-103143222D01*
X108736271Y-103150458D01*
X108717873Y-103165985D01*
X108695939Y-103184394D01*
X108673462Y-103203178D01*
X108656688Y-103217133D01*
X108636217Y-103234179D01*
X108614033Y-103252754D01*
X108593040Y-103270420D01*
X108578481Y-103282750D01*
X108563921Y-103295063D01*
X108544592Y-103311301D01*
X108522252Y-103329995D01*
X108498658Y-103349675D01*
X108476482Y-103368109D01*
X108455631Y-103385420D01*
X108436507Y-103401319D01*
X108420253Y-103414854D01*
X108408010Y-103425073D01*
X108400922Y-103431027D01*
X108400239Y-103431609D01*
X108392783Y-103437856D01*
X108380944Y-103447627D01*
X108366918Y-103459113D01*
X108362558Y-103462666D01*
X108348217Y-103474423D01*
X108335326Y-103485136D01*
X108326123Y-103492940D01*
X108324437Y-103494416D01*
X108316751Y-103501013D01*
X108304725Y-103511072D01*
X108290597Y-103522725D01*
X108286390Y-103526166D01*
X108271259Y-103538668D01*
X108252371Y-103554500D01*
X108232362Y-103571442D01*
X108217235Y-103584375D01*
X108198695Y-103600128D01*
X108185572Y-103610747D01*
X108177024Y-103616798D01*
X108172209Y-103618849D01*
X108170283Y-103617467D01*
X108170134Y-103616055D01*
X108173065Y-103612676D01*
X108181593Y-103603720D01*
X108195319Y-103589589D01*
X108213847Y-103570686D01*
X108236778Y-103547412D01*
X108263714Y-103520169D01*
X108294258Y-103489360D01*
X108328010Y-103455386D01*
X108364574Y-103418650D01*
X108403551Y-103379553D01*
X108444544Y-103338498D01*
X108474955Y-103308080D01*
X108526718Y-103256374D01*
X108572834Y-103210402D01*
X108613601Y-103169876D01*
X108649322Y-103134505D01*
X108680294Y-103103999D01*
X108706819Y-103078069D01*
X108729197Y-103056423D01*
X108747728Y-103038772D01*
X108762712Y-103024826D01*
X108774449Y-103014294D01*
X108783240Y-103006887D01*
X108789383Y-103002315D01*
X108793181Y-103000287D01*
X108793513Y-103000196D01*
X108804508Y-102997737D01*
X108820446Y-102994247D01*
X108837990Y-102990457D01*
X108839000Y-102990241D01*
X108859060Y-102985925D01*
X108880106Y-102981369D01*
X108896150Y-102977871D01*
X108914403Y-102973908D01*
X108935654Y-102969347D01*
X108951184Y-102966047D01*
X108966451Y-102962778D01*
X108987459Y-102958218D01*
X109011685Y-102952918D01*
X109036605Y-102947428D01*
X109042200Y-102946189D01*
X109080500Y-102937735D01*
X109111823Y-102930897D01*
X109137447Y-102925401D01*
X109158649Y-102920975D01*
X109176707Y-102917344D01*
X109179784Y-102916742D01*
X109187238Y-102915270D01*
X109195420Y-102913600D01*
X109205416Y-102911498D01*
X109218311Y-102908730D01*
X109235192Y-102905060D01*
X109257143Y-102900255D01*
X109285250Y-102894079D01*
X109318425Y-102886777D01*
X109338245Y-102882479D01*
X109357343Y-102878454D01*
X109372550Y-102875364D01*
X109376634Y-102874576D01*
X109387688Y-102872357D01*
X109404910Y-102868728D01*
X109426209Y-102864138D01*
X109449491Y-102859034D01*
X109457067Y-102857355D01*
X109481787Y-102851883D01*
X109506396Y-102846477D01*
X109528371Y-102841687D01*
X109545191Y-102838066D01*
X109548084Y-102837453D01*
X109568490Y-102833124D01*
X109590615Y-102828400D01*
X109605234Y-102825260D01*
X109624316Y-102821228D01*
X109644339Y-102817126D01*
X109656034Y-102814807D01*
X109671747Y-102811544D01*
X109686099Y-102808214D01*
X109692017Y-102806658D01*
X109709467Y-102801940D01*
X109720323Y-102799857D01*
X109726006Y-102800317D01*
G36*
X106202286Y-102800804D02*
G01*
X106218025Y-102803731D01*
X106230024Y-102806299D01*
X106265265Y-102814176D01*
X106295019Y-102820738D01*
X106322046Y-102826589D01*
X106349107Y-102832329D01*
X106356150Y-102833807D01*
X106373143Y-102837383D01*
X106387737Y-102840486D01*
X106397287Y-102842553D01*
X106398484Y-102842820D01*
X106410904Y-102845604D01*
X106429467Y-102849721D01*
X106452068Y-102854710D01*
X106476605Y-102860108D01*
X106500975Y-102865454D01*
X106523077Y-102870286D01*
X106540806Y-102874141D01*
X106550884Y-102876308D01*
X106582548Y-102883040D01*
X106607347Y-102888318D01*
X106626697Y-102892448D01*
X106642014Y-102895732D01*
X106654717Y-102898474D01*
X106666221Y-102900977D01*
X106671534Y-102902139D01*
X106690214Y-102906093D01*
X106712314Y-102910573D01*
X106732209Y-102914449D01*
X106748176Y-102917638D01*
X106760835Y-102920469D01*
X106767946Y-102922432D01*
X106768581Y-102922719D01*
X106774272Y-102924475D01*
X106785468Y-102926865D01*
X106794689Y-102928516D01*
X106809228Y-102931211D01*
X106830480Y-102935524D01*
X106856916Y-102941129D01*
X106887010Y-102947699D01*
X106919234Y-102954907D01*
X106936117Y-102958752D01*
X106948606Y-102961532D01*
X106965910Y-102965281D01*
X106984554Y-102969247D01*
X106986917Y-102969744D01*
X107009153Y-102974469D01*
X107034019Y-102979837D01*
X107054650Y-102984358D01*
X107075109Y-102988850D01*
X107096531Y-102993489D01*
X107114363Y-102997289D01*
X107114751Y-102997371D01*
X107140986Y-103002880D01*
X107444419Y-103306336D01*
X107486494Y-103348474D01*
X107526809Y-103388967D01*
X107564967Y-103427411D01*
X107600573Y-103463400D01*
X107633228Y-103496531D01*
X107662538Y-103526397D01*
X107688104Y-103552594D01*
X107709531Y-103574717D01*
X107726422Y-103592362D01*
X107738380Y-103605123D01*
X107745009Y-103612596D01*
X107746268Y-103614458D01*
X107742582Y-103614221D01*
X107734289Y-103609322D01*
X107723062Y-103600778D01*
X107721062Y-103599104D01*
X107705404Y-103585886D01*
X107688720Y-103571885D01*
X107677049Y-103562150D01*
X107649706Y-103539426D01*
X107627032Y-103520531D01*
X107607164Y-103503905D01*
X107588239Y-103487989D01*
X107568394Y-103471221D01*
X107560197Y-103464278D01*
X107545372Y-103451814D01*
X107528813Y-103438035D01*
X107520183Y-103430916D01*
X107505425Y-103418719D01*
X107490042Y-103405876D01*
X107482083Y-103399166D01*
X107468554Y-103387792D01*
X107452887Y-103374760D01*
X107443983Y-103367416D01*
X107429185Y-103355210D01*
X107413718Y-103342360D01*
X107405715Y-103335666D01*
X107395581Y-103327196D01*
X107380857Y-103314945D01*
X107363483Y-103300523D01*
X107345396Y-103285542D01*
X107344580Y-103284866D01*
X107324081Y-103267839D01*
X107301877Y-103249284D01*
X107280869Y-103231630D01*
X107266240Y-103219250D01*
X107247916Y-103203716D01*
X107226248Y-103185423D01*
X107204395Y-103167035D01*
X107190939Y-103155750D01*
X107150482Y-103121883D01*
X107096216Y-103117029D01*
X107072413Y-103114906D01*
X107043222Y-103112311D01*
X107011689Y-103109515D01*
X106980862Y-103106788D01*
X106967867Y-103105641D01*
X106942371Y-103103337D01*
X106918608Y-103101090D01*
X106898369Y-103099076D01*
X106883445Y-103097473D01*
X106876850Y-103096651D01*
X106865832Y-103095323D01*
X106848809Y-103093586D01*
X106828220Y-103091678D01*
X106809117Y-103090048D01*
X106793085Y-103088720D01*
X106776384Y-103087293D01*
X106758051Y-103085677D01*
X106737120Y-103083783D01*
X106712629Y-103081522D01*
X106683613Y-103078806D01*
X106649108Y-103075546D01*
X106608151Y-103071651D01*
X106559776Y-103067034D01*
X106557234Y-103066791D01*
X106526616Y-103063894D01*
X106492133Y-103060678D01*
X106457619Y-103057498D01*
X106426911Y-103054710D01*
X106421428Y-103054219D01*
X106397864Y-103052005D01*
X106376586Y-103049807D01*
X106359346Y-103047820D01*
X106347897Y-103046242D01*
X106344848Y-103045656D01*
X106336826Y-103040900D01*
X106327444Y-103029865D01*
X106316482Y-103012586D01*
X106304895Y-102992785D01*
X106296804Y-102979126D01*
X106291480Y-102970414D01*
X106288193Y-102965453D01*
X106286300Y-102963133D01*
X106280653Y-102955534D01*
X106274495Y-102944828D01*
X106270867Y-102936675D01*
X106267228Y-102930430D01*
X106265054Y-102929267D01*
X106261286Y-102925782D01*
X106257047Y-102917625D01*
X106251952Y-102907209D01*
X106244264Y-102893827D01*
X106239924Y-102886933D01*
X106229947Y-102871130D01*
X106219516Y-102853831D01*
X106216002Y-102847775D01*
X106209054Y-102836653D01*
X106203345Y-102829351D01*
X106200961Y-102827667D01*
X106197757Y-102824249D01*
X106197400Y-102821619D01*
X106194612Y-102813969D01*
X106190546Y-102808717D01*
X106186131Y-102802493D01*
X106186128Y-102799427D01*
X106191029Y-102799272D01*
X106202286Y-102800804D01*
G37*
X106202286Y-102800804D02*
X106218025Y-102803731D01*
X106230024Y-102806299D01*
X106265265Y-102814176D01*
X106295019Y-102820738D01*
X106322046Y-102826589D01*
X106349107Y-102832329D01*
X106356150Y-102833807D01*
X106373143Y-102837383D01*
X106387737Y-102840486D01*
X106397287Y-102842553D01*
X106398484Y-102842820D01*
X106410904Y-102845604D01*
X106429467Y-102849721D01*
X106452068Y-102854710D01*
X106476605Y-102860108D01*
X106500975Y-102865454D01*
X106523077Y-102870286D01*
X106540806Y-102874141D01*
X106550884Y-102876308D01*
X106582548Y-102883040D01*
X106607347Y-102888318D01*
X106626697Y-102892448D01*
X106642014Y-102895732D01*
X106654717Y-102898474D01*
X106666221Y-102900977D01*
X106671534Y-102902139D01*
X106690214Y-102906093D01*
X106712314Y-102910573D01*
X106732209Y-102914449D01*
X106748176Y-102917638D01*
X106760835Y-102920469D01*
X106767946Y-102922432D01*
X106768581Y-102922719D01*
X106774272Y-102924475D01*
X106785468Y-102926865D01*
X106794689Y-102928516D01*
X106809228Y-102931211D01*
X106830480Y-102935524D01*
X106856916Y-102941129D01*
X106887010Y-102947699D01*
X106919234Y-102954907D01*
X106936117Y-102958752D01*
X106948606Y-102961532D01*
X106965910Y-102965281D01*
X106984554Y-102969247D01*
X106986917Y-102969744D01*
X107009153Y-102974469D01*
X107034019Y-102979837D01*
X107054650Y-102984358D01*
X107075109Y-102988850D01*
X107096531Y-102993489D01*
X107114363Y-102997289D01*
X107114751Y-102997371D01*
X107140986Y-103002880D01*
X107444419Y-103306336D01*
X107486494Y-103348474D01*
X107526809Y-103388967D01*
X107564967Y-103427411D01*
X107600573Y-103463400D01*
X107633228Y-103496531D01*
X107662538Y-103526397D01*
X107688104Y-103552594D01*
X107709531Y-103574717D01*
X107726422Y-103592362D01*
X107738380Y-103605123D01*
X107745009Y-103612596D01*
X107746268Y-103614458D01*
X107742582Y-103614221D01*
X107734289Y-103609322D01*
X107723062Y-103600778D01*
X107721062Y-103599104D01*
X107705404Y-103585886D01*
X107688720Y-103571885D01*
X107677049Y-103562150D01*
X107649706Y-103539426D01*
X107627032Y-103520531D01*
X107607164Y-103503905D01*
X107588239Y-103487989D01*
X107568394Y-103471221D01*
X107560197Y-103464278D01*
X107545372Y-103451814D01*
X107528813Y-103438035D01*
X107520183Y-103430916D01*
X107505425Y-103418719D01*
X107490042Y-103405876D01*
X107482083Y-103399166D01*
X107468554Y-103387792D01*
X107452887Y-103374760D01*
X107443983Y-103367416D01*
X107429185Y-103355210D01*
X107413718Y-103342360D01*
X107405715Y-103335666D01*
X107395581Y-103327196D01*
X107380857Y-103314945D01*
X107363483Y-103300523D01*
X107345396Y-103285542D01*
X107344580Y-103284866D01*
X107324081Y-103267839D01*
X107301877Y-103249284D01*
X107280869Y-103231630D01*
X107266240Y-103219250D01*
X107247916Y-103203716D01*
X107226248Y-103185423D01*
X107204395Y-103167035D01*
X107190939Y-103155750D01*
X107150482Y-103121883D01*
X107096216Y-103117029D01*
X107072413Y-103114906D01*
X107043222Y-103112311D01*
X107011689Y-103109515D01*
X106980862Y-103106788D01*
X106967867Y-103105641D01*
X106942371Y-103103337D01*
X106918608Y-103101090D01*
X106898369Y-103099076D01*
X106883445Y-103097473D01*
X106876850Y-103096651D01*
X106865832Y-103095323D01*
X106848809Y-103093586D01*
X106828220Y-103091678D01*
X106809117Y-103090048D01*
X106793085Y-103088720D01*
X106776384Y-103087293D01*
X106758051Y-103085677D01*
X106737120Y-103083783D01*
X106712629Y-103081522D01*
X106683613Y-103078806D01*
X106649108Y-103075546D01*
X106608151Y-103071651D01*
X106559776Y-103067034D01*
X106557234Y-103066791D01*
X106526616Y-103063894D01*
X106492133Y-103060678D01*
X106457619Y-103057498D01*
X106426911Y-103054710D01*
X106421428Y-103054219D01*
X106397864Y-103052005D01*
X106376586Y-103049807D01*
X106359346Y-103047820D01*
X106347897Y-103046242D01*
X106344848Y-103045656D01*
X106336826Y-103040900D01*
X106327444Y-103029865D01*
X106316482Y-103012586D01*
X106304895Y-102992785D01*
X106296804Y-102979126D01*
X106291480Y-102970414D01*
X106288193Y-102965453D01*
X106286300Y-102963133D01*
X106280653Y-102955534D01*
X106274495Y-102944828D01*
X106270867Y-102936675D01*
X106267228Y-102930430D01*
X106265054Y-102929267D01*
X106261286Y-102925782D01*
X106257047Y-102917625D01*
X106251952Y-102907209D01*
X106244264Y-102893827D01*
X106239924Y-102886933D01*
X106229947Y-102871130D01*
X106219516Y-102853831D01*
X106216002Y-102847775D01*
X106209054Y-102836653D01*
X106203345Y-102829351D01*
X106200961Y-102827667D01*
X106197757Y-102824249D01*
X106197400Y-102821619D01*
X106194612Y-102813969D01*
X106190546Y-102808717D01*
X106186131Y-102802493D01*
X106186128Y-102799427D01*
X106191029Y-102799272D01*
X106202286Y-102800804D01*
G36*
X109943234Y-102446667D02*
G01*
X109940089Y-102454829D01*
X109932740Y-102468368D01*
X109920900Y-102487959D01*
X109916384Y-102495193D01*
X109905769Y-102512462D01*
X109897056Y-102527322D01*
X109891128Y-102538217D01*
X109888869Y-102543591D01*
X109888867Y-102543647D01*
X109886185Y-102548068D01*
X109885092Y-102548267D01*
X109881270Y-102551830D01*
X109878906Y-102557876D01*
X109874166Y-102568625D01*
X109868922Y-102576083D01*
X109860697Y-102586711D01*
X109855227Y-102595049D01*
X109851134Y-102601866D01*
X109843469Y-102614533D01*
X109833070Y-102631674D01*
X109820775Y-102651910D01*
X109807421Y-102673863D01*
X109793847Y-102696158D01*
X109780890Y-102717416D01*
X109769389Y-102736260D01*
X109760180Y-102751313D01*
X109759623Y-102752221D01*
X109751808Y-102763866D01*
X109744448Y-102770469D01*
X109734233Y-102774278D01*
X109723981Y-102776415D01*
X109711170Y-102778934D01*
X109692360Y-102782796D01*
X109669820Y-102787526D01*
X109645821Y-102792652D01*
X109639100Y-102794104D01*
X109614871Y-102799347D01*
X109591245Y-102804446D01*
X109570573Y-102808896D01*
X109555202Y-102812190D01*
X109552317Y-102812805D01*
X109521008Y-102819463D01*
X109496619Y-102824653D01*
X109477787Y-102828666D01*
X109463150Y-102831792D01*
X109451344Y-102834322D01*
X109441009Y-102836548D01*
X109433784Y-102838109D01*
X109399168Y-102845592D01*
X109371738Y-102851501D01*
X109350405Y-102856067D01*
X109334082Y-102859521D01*
X109321683Y-102862092D01*
X109312119Y-102864011D01*
X109304667Y-102865439D01*
X109293613Y-102867655D01*
X109276392Y-102871283D01*
X109255095Y-102875877D01*
X109231814Y-102880987D01*
X109224234Y-102882671D01*
X109200757Y-102887860D01*
X109178592Y-102892691D01*
X109159828Y-102896711D01*
X109146559Y-102899469D01*
X109143800Y-102900015D01*
X109127360Y-102903380D01*
X109110851Y-102907043D01*
X109107817Y-102907761D01*
X109095317Y-102910614D01*
X109077998Y-102914375D01*
X109059341Y-102918291D01*
X109057017Y-102918769D01*
X109035413Y-102923250D01*
X109010719Y-102928456D01*
X108988114Y-102933295D01*
X108987167Y-102933500D01*
X108964792Y-102938304D01*
X108940078Y-102943545D01*
X108918206Y-102948126D01*
X108917317Y-102948310D01*
X108896995Y-102952591D01*
X108875890Y-102957150D01*
X108858475Y-102961021D01*
X108858050Y-102961118D01*
X108838753Y-102965388D01*
X108817392Y-102969926D01*
X108806354Y-102972186D01*
X108780058Y-102977460D01*
X108448802Y-103308963D01*
X108404766Y-103353002D01*
X108362388Y-103395326D01*
X108322050Y-103435554D01*
X108284140Y-103473305D01*
X108249041Y-103508197D01*
X108217140Y-103539848D01*
X108188821Y-103567877D01*
X108164469Y-103591901D01*
X108144471Y-103611540D01*
X108129211Y-103626411D01*
X108119074Y-103636133D01*
X108114446Y-103640325D01*
X108114206Y-103640466D01*
X108110950Y-103637230D01*
X108110867Y-103636306D01*
X108113484Y-103630687D01*
X108119935Y-103622174D01*
X108121473Y-103620431D01*
X108128166Y-103612563D01*
X108138845Y-103599458D01*
X108152334Y-103582595D01*
X108167459Y-103563448D01*
X108183045Y-103543495D01*
X108194796Y-103528283D01*
X108203775Y-103516647D01*
X108215510Y-103501517D01*
X108228938Y-103484255D01*
X108242996Y-103466222D01*
X108256621Y-103448778D01*
X108268751Y-103433286D01*
X108278324Y-103421106D01*
X108284276Y-103413599D01*
X108285534Y-103412056D01*
X108290303Y-103406180D01*
X108299645Y-103394422D01*
X108312931Y-103377579D01*
X108329534Y-103356451D01*
X108348825Y-103331837D01*
X108370178Y-103304534D01*
X108385038Y-103285501D01*
X108399424Y-103267100D01*
X108415260Y-103246900D01*
X108429481Y-103228811D01*
X108431511Y-103226234D01*
X108443397Y-103211158D01*
X108451722Y-103200576D01*
X108458162Y-103192327D01*
X108464391Y-103184251D01*
X108472085Y-103174190D01*
X108482918Y-103159981D01*
X108484531Y-103157867D01*
X108495778Y-103143220D01*
X108505598Y-103130625D01*
X108512509Y-103121972D01*
X108514365Y-103119767D01*
X108520032Y-103112909D01*
X108528521Y-103102142D01*
X108534505Y-103094367D01*
X108542802Y-103083583D01*
X108548971Y-103075766D01*
X108551134Y-103073200D01*
X108554533Y-103069063D01*
X108561699Y-103059934D01*
X108571269Y-103047556D01*
X108574330Y-103043567D01*
X108585628Y-103029066D01*
X108596226Y-103015887D01*
X108604101Y-103006536D01*
X108605022Y-103005510D01*
X108611553Y-102997662D01*
X108614604Y-102992645D01*
X108614634Y-102992410D01*
X108617157Y-102987861D01*
X108623412Y-102979794D01*
X108625327Y-102977550D01*
X108632746Y-102968591D01*
X108643390Y-102955212D01*
X108655400Y-102939762D01*
X108660192Y-102933500D01*
X108670933Y-102919487D01*
X108679761Y-102908148D01*
X108685417Y-102901093D01*
X108686705Y-102899633D01*
X108689236Y-102896740D01*
X108694835Y-102889733D01*
X108704009Y-102877962D01*
X108717265Y-102860778D01*
X108735110Y-102837529D01*
X108736048Y-102836305D01*
X108748341Y-102820866D01*
X108758170Y-102810685D01*
X108767834Y-102804018D01*
X108779632Y-102799122D01*
X108788860Y-102796261D01*
X108807728Y-102790626D01*
X108827637Y-102784496D01*
X108839000Y-102780891D01*
X108854493Y-102775979D01*
X108876215Y-102769220D01*
X108902284Y-102761193D01*
X108930815Y-102752478D01*
X108959928Y-102743653D01*
X108970234Y-102740547D01*
X108982618Y-102736789D01*
X109000248Y-102731398D01*
X109020283Y-102725244D01*
X109031617Y-102721751D01*
X109055492Y-102714397D01*
X109082171Y-102706201D01*
X109106997Y-102698594D01*
X109114167Y-102696402D01*
X109134225Y-102690262D01*
X109159206Y-102682595D01*
X109185941Y-102674376D01*
X109211263Y-102666575D01*
X109211534Y-102666492D01*
X109244030Y-102656473D01*
X109270038Y-102648464D01*
X109291158Y-102641976D01*
X109308989Y-102636520D01*
X109325133Y-102631607D01*
X109341189Y-102626747D01*
X109358759Y-102621450D01*
X109363934Y-102619893D01*
X109387611Y-102612731D01*
X109413468Y-102604850D01*
X109437323Y-102597529D01*
X109446484Y-102594697D01*
X109468007Y-102588061D01*
X109493459Y-102580275D01*
X109518660Y-102572618D01*
X109529034Y-102569484D01*
X109548327Y-102563636D01*
X109565553Y-102558349D01*
X109578509Y-102554305D01*
X109584067Y-102552506D01*
X109592138Y-102549918D01*
X109606328Y-102545509D01*
X109624647Y-102539891D01*
X109645108Y-102533679D01*
X109645450Y-102533576D01*
X109671255Y-102525731D01*
X109700941Y-102516630D01*
X109730314Y-102507561D01*
X109749167Y-102501696D01*
X109773335Y-102494210D01*
X109798650Y-102486477D01*
X109821907Y-102479472D01*
X109838067Y-102474698D01*
X109859719Y-102468315D01*
X109882021Y-102461595D01*
X109903058Y-102455128D01*
X109920919Y-102449506D01*
X109933689Y-102445322D01*
X109938047Y-102443773D01*
X109942459Y-102443207D01*
X109943234Y-102446667D01*
G37*
X109943234Y-102446667D02*
X109940089Y-102454829D01*
X109932740Y-102468368D01*
X109920900Y-102487959D01*
X109916384Y-102495193D01*
X109905769Y-102512462D01*
X109897056Y-102527322D01*
X109891128Y-102538217D01*
X109888869Y-102543591D01*
X109888867Y-102543647D01*
X109886185Y-102548068D01*
X109885092Y-102548267D01*
X109881270Y-102551830D01*
X109878906Y-102557876D01*
X109874166Y-102568625D01*
X109868922Y-102576083D01*
X109860697Y-102586711D01*
X109855227Y-102595049D01*
X109851134Y-102601866D01*
X109843469Y-102614533D01*
X109833070Y-102631674D01*
X109820775Y-102651910D01*
X109807421Y-102673863D01*
X109793847Y-102696158D01*
X109780890Y-102717416D01*
X109769389Y-102736260D01*
X109760180Y-102751313D01*
X109759623Y-102752221D01*
X109751808Y-102763866D01*
X109744448Y-102770469D01*
X109734233Y-102774278D01*
X109723981Y-102776415D01*
X109711170Y-102778934D01*
X109692360Y-102782796D01*
X109669820Y-102787526D01*
X109645821Y-102792652D01*
X109639100Y-102794104D01*
X109614871Y-102799347D01*
X109591245Y-102804446D01*
X109570573Y-102808896D01*
X109555202Y-102812190D01*
X109552317Y-102812805D01*
X109521008Y-102819463D01*
X109496619Y-102824653D01*
X109477787Y-102828666D01*
X109463150Y-102831792D01*
X109451344Y-102834322D01*
X109441009Y-102836548D01*
X109433784Y-102838109D01*
X109399168Y-102845592D01*
X109371738Y-102851501D01*
X109350405Y-102856067D01*
X109334082Y-102859521D01*
X109321683Y-102862092D01*
X109312119Y-102864011D01*
X109304667Y-102865439D01*
X109293613Y-102867655D01*
X109276392Y-102871283D01*
X109255095Y-102875877D01*
X109231814Y-102880987D01*
X109224234Y-102882671D01*
X109200757Y-102887860D01*
X109178592Y-102892691D01*
X109159828Y-102896711D01*
X109146559Y-102899469D01*
X109143800Y-102900015D01*
X109127360Y-102903380D01*
X109110851Y-102907043D01*
X109107817Y-102907761D01*
X109095317Y-102910614D01*
X109077998Y-102914375D01*
X109059341Y-102918291D01*
X109057017Y-102918769D01*
X109035413Y-102923250D01*
X109010719Y-102928456D01*
X108988114Y-102933295D01*
X108987167Y-102933500D01*
X108964792Y-102938304D01*
X108940078Y-102943545D01*
X108918206Y-102948126D01*
X108917317Y-102948310D01*
X108896995Y-102952591D01*
X108875890Y-102957150D01*
X108858475Y-102961021D01*
X108858050Y-102961118D01*
X108838753Y-102965388D01*
X108817392Y-102969926D01*
X108806354Y-102972186D01*
X108780058Y-102977460D01*
X108448802Y-103308963D01*
X108404766Y-103353002D01*
X108362388Y-103395326D01*
X108322050Y-103435554D01*
X108284140Y-103473305D01*
X108249041Y-103508197D01*
X108217140Y-103539848D01*
X108188821Y-103567877D01*
X108164469Y-103591901D01*
X108144471Y-103611540D01*
X108129211Y-103626411D01*
X108119074Y-103636133D01*
X108114446Y-103640325D01*
X108114206Y-103640466D01*
X108110950Y-103637230D01*
X108110867Y-103636306D01*
X108113484Y-103630687D01*
X108119935Y-103622174D01*
X108121473Y-103620431D01*
X108128166Y-103612563D01*
X108138845Y-103599458D01*
X108152334Y-103582595D01*
X108167459Y-103563448D01*
X108183045Y-103543495D01*
X108194796Y-103528283D01*
X108203775Y-103516647D01*
X108215510Y-103501517D01*
X108228938Y-103484255D01*
X108242996Y-103466222D01*
X108256621Y-103448778D01*
X108268751Y-103433286D01*
X108278324Y-103421106D01*
X108284276Y-103413599D01*
X108285534Y-103412056D01*
X108290303Y-103406180D01*
X108299645Y-103394422D01*
X108312931Y-103377579D01*
X108329534Y-103356451D01*
X108348825Y-103331837D01*
X108370178Y-103304534D01*
X108385038Y-103285501D01*
X108399424Y-103267100D01*
X108415260Y-103246900D01*
X108429481Y-103228811D01*
X108431511Y-103226234D01*
X108443397Y-103211158D01*
X108451722Y-103200576D01*
X108458162Y-103192327D01*
X108464391Y-103184251D01*
X108472085Y-103174190D01*
X108482918Y-103159981D01*
X108484531Y-103157867D01*
X108495778Y-103143220D01*
X108505598Y-103130625D01*
X108512509Y-103121972D01*
X108514365Y-103119767D01*
X108520032Y-103112909D01*
X108528521Y-103102142D01*
X108534505Y-103094367D01*
X108542802Y-103083583D01*
X108548971Y-103075766D01*
X108551134Y-103073200D01*
X108554533Y-103069063D01*
X108561699Y-103059934D01*
X108571269Y-103047556D01*
X108574330Y-103043567D01*
X108585628Y-103029066D01*
X108596226Y-103015887D01*
X108604101Y-103006536D01*
X108605022Y-103005510D01*
X108611553Y-102997662D01*
X108614604Y-102992645D01*
X108614634Y-102992410D01*
X108617157Y-102987861D01*
X108623412Y-102979794D01*
X108625327Y-102977550D01*
X108632746Y-102968591D01*
X108643390Y-102955212D01*
X108655400Y-102939762D01*
X108660192Y-102933500D01*
X108670933Y-102919487D01*
X108679761Y-102908148D01*
X108685417Y-102901093D01*
X108686705Y-102899633D01*
X108689236Y-102896740D01*
X108694835Y-102889733D01*
X108704009Y-102877962D01*
X108717265Y-102860778D01*
X108735110Y-102837529D01*
X108736048Y-102836305D01*
X108748341Y-102820866D01*
X108758170Y-102810685D01*
X108767834Y-102804018D01*
X108779632Y-102799122D01*
X108788860Y-102796261D01*
X108807728Y-102790626D01*
X108827637Y-102784496D01*
X108839000Y-102780891D01*
X108854493Y-102775979D01*
X108876215Y-102769220D01*
X108902284Y-102761193D01*
X108930815Y-102752478D01*
X108959928Y-102743653D01*
X108970234Y-102740547D01*
X108982618Y-102736789D01*
X109000248Y-102731398D01*
X109020283Y-102725244D01*
X109031617Y-102721751D01*
X109055492Y-102714397D01*
X109082171Y-102706201D01*
X109106997Y-102698594D01*
X109114167Y-102696402D01*
X109134225Y-102690262D01*
X109159206Y-102682595D01*
X109185941Y-102674376D01*
X109211263Y-102666575D01*
X109211534Y-102666492D01*
X109244030Y-102656473D01*
X109270038Y-102648464D01*
X109291158Y-102641976D01*
X109308989Y-102636520D01*
X109325133Y-102631607D01*
X109341189Y-102626747D01*
X109358759Y-102621450D01*
X109363934Y-102619893D01*
X109387611Y-102612731D01*
X109413468Y-102604850D01*
X109437323Y-102597529D01*
X109446484Y-102594697D01*
X109468007Y-102588061D01*
X109493459Y-102580275D01*
X109518660Y-102572618D01*
X109529034Y-102569484D01*
X109548327Y-102563636D01*
X109565553Y-102558349D01*
X109578509Y-102554305D01*
X109584067Y-102552506D01*
X109592138Y-102549918D01*
X109606328Y-102545509D01*
X109624647Y-102539891D01*
X109645108Y-102533679D01*
X109645450Y-102533576D01*
X109671255Y-102525731D01*
X109700941Y-102516630D01*
X109730314Y-102507561D01*
X109749167Y-102501696D01*
X109773335Y-102494210D01*
X109798650Y-102486477D01*
X109821907Y-102479472D01*
X109838067Y-102474698D01*
X109859719Y-102468315D01*
X109882021Y-102461595D01*
X109903058Y-102455128D01*
X109920919Y-102449506D01*
X109933689Y-102445322D01*
X109938047Y-102443773D01*
X109942459Y-102443207D01*
X109943234Y-102446667D01*
G36*
X105980415Y-102444284D02*
G01*
X105997536Y-102448662D01*
X106021845Y-102455899D01*
X106025491Y-102457027D01*
X106048610Y-102464182D01*
X106076267Y-102472712D01*
X106104901Y-102481519D01*
X106129667Y-102489114D01*
X106153013Y-102496266D01*
X106175920Y-102503297D01*
X106195952Y-102509456D01*
X106210674Y-102513997D01*
X106212217Y-102514475D01*
X106230141Y-102520001D01*
X106254323Y-102527418D01*
X106282915Y-102536163D01*
X106314071Y-102545671D01*
X106345946Y-102555379D01*
X106376693Y-102564724D01*
X106392134Y-102569407D01*
X106415802Y-102576608D01*
X106441650Y-102584517D01*
X106465500Y-102591855D01*
X106474684Y-102594697D01*
X106496202Y-102601337D01*
X106521649Y-102609135D01*
X106546845Y-102616812D01*
X106557234Y-102619961D01*
X106581476Y-102627335D01*
X106609345Y-102635876D01*
X106636391Y-102644218D01*
X106648250Y-102647899D01*
X106676903Y-102656801D01*
X106707441Y-102666263D01*
X106738471Y-102675856D01*
X106768600Y-102685151D01*
X106796436Y-102693718D01*
X106820586Y-102701128D01*
X106839656Y-102706953D01*
X106852255Y-102710762D01*
X106853567Y-102711153D01*
X106869466Y-102715903D01*
X106887564Y-102721351D01*
X106894842Y-102723554D01*
X106912690Y-102728956D01*
X106931585Y-102734652D01*
X106938234Y-102736650D01*
X106966120Y-102745044D01*
X106990188Y-102752365D01*
X107014438Y-102759838D01*
X107041950Y-102768400D01*
X107071015Y-102777451D01*
X107093403Y-102784364D01*
X107110508Y-102789556D01*
X107123724Y-102793444D01*
X107134446Y-102796444D01*
X107144069Y-102798975D01*
X107144608Y-102799113D01*
X107155495Y-102802450D01*
X107161891Y-102805505D01*
X107162600Y-102806451D01*
X107165181Y-102811002D01*
X107171694Y-102819280D01*
X107175300Y-102823433D01*
X107182943Y-102832491D01*
X107187469Y-102838818D01*
X107188000Y-102840114D01*
X107190598Y-102844567D01*
X107196953Y-102852213D01*
X107197947Y-102853297D01*
X107206455Y-102863533D01*
X107216151Y-102876660D01*
X107219676Y-102881828D01*
X107226973Y-102892026D01*
X107232639Y-102898468D01*
X107234482Y-102899633D01*
X107238524Y-102902954D01*
X107241328Y-102907613D01*
X107246277Y-102915490D01*
X107254486Y-102926400D01*
X107259055Y-102931954D01*
X107268083Y-102943020D01*
X107279974Y-102958191D01*
X107292599Y-102974737D01*
X107296588Y-102980067D01*
X107307181Y-102994142D01*
X107315956Y-103005510D01*
X107321644Y-103012537D01*
X107322959Y-103013933D01*
X107326566Y-103018039D01*
X107333975Y-103027307D01*
X107343912Y-103040124D01*
X107349847Y-103047912D01*
X107361361Y-103062924D01*
X107371778Y-103076179D01*
X107379479Y-103085632D01*
X107381652Y-103088128D01*
X107389109Y-103097091D01*
X107397871Y-103108701D01*
X107399722Y-103111300D01*
X107407602Y-103122321D01*
X107415171Y-103132314D01*
X107424548Y-103144012D01*
X107433831Y-103155296D01*
X107442853Y-103166530D01*
X107453682Y-103180459D01*
X107459231Y-103187763D01*
X107470992Y-103203002D01*
X107484048Y-103219344D01*
X107489407Y-103225863D01*
X107501242Y-103240475D01*
X107514218Y-103257097D01*
X107520816Y-103265817D01*
X107539303Y-103290366D01*
X107558466Y-103315155D01*
X107580658Y-103343227D01*
X107581700Y-103344534D01*
X107593061Y-103358844D01*
X107603931Y-103372643D01*
X107611333Y-103382141D01*
X107620909Y-103394442D01*
X107631746Y-103408209D01*
X107634617Y-103411827D01*
X107645755Y-103425938D01*
X107660294Y-103444512D01*
X107676761Y-103465648D01*
X107693679Y-103487447D01*
X107709573Y-103508008D01*
X107722970Y-103525433D01*
X107731312Y-103536386D01*
X107742106Y-103550292D01*
X107752843Y-103563516D01*
X107758927Y-103570616D01*
X107769222Y-103583013D01*
X107779417Y-103596571D01*
X107780508Y-103598133D01*
X107789697Y-103610429D01*
X107799100Y-103621549D01*
X107800518Y-103623052D01*
X107808458Y-103632851D01*
X107809692Y-103638695D01*
X107805008Y-103640185D01*
X107801379Y-103637202D01*
X107792182Y-103628585D01*
X107777805Y-103614718D01*
X107758637Y-103595987D01*
X107735064Y-103572776D01*
X107707474Y-103545469D01*
X107676255Y-103514451D01*
X107641794Y-103480107D01*
X107604480Y-103442822D01*
X107564699Y-103402979D01*
X107522840Y-103360963D01*
X107479290Y-103317159D01*
X107471115Y-103308927D01*
X107142513Y-102977950D01*
X107066831Y-102961593D01*
X107041137Y-102956069D01*
X107016951Y-102950921D01*
X106996040Y-102946522D01*
X106980170Y-102943243D01*
X106972100Y-102941642D01*
X106959313Y-102939103D01*
X106941349Y-102935378D01*
X106921296Y-102931110D01*
X106912834Y-102929276D01*
X106890529Y-102924438D01*
X106866778Y-102919326D01*
X106845822Y-102914854D01*
X106840867Y-102913806D01*
X106811002Y-102907493D01*
X106786843Y-102902355D01*
X106765807Y-102897831D01*
X106745314Y-102893364D01*
X106722780Y-102888395D01*
X106696934Y-102882656D01*
X106673458Y-102877479D01*
X106651292Y-102872674D01*
X106632529Y-102868689D01*
X106619260Y-102865971D01*
X106616500Y-102865439D01*
X106608148Y-102863832D01*
X106597624Y-102861708D01*
X106583856Y-102858841D01*
X106565771Y-102855003D01*
X106542298Y-102849969D01*
X106512366Y-102843510D01*
X106487384Y-102838105D01*
X106447960Y-102829599D01*
X106414876Y-102822535D01*
X106386210Y-102816502D01*
X106370967Y-102813339D01*
X106354603Y-102809899D01*
X106332688Y-102805202D01*
X106307935Y-102799835D01*
X106283056Y-102794383D01*
X106279950Y-102793698D01*
X106255902Y-102788477D01*
X106232243Y-102783498D01*
X106211451Y-102779273D01*
X106196003Y-102776313D01*
X106194022Y-102775962D01*
X106167361Y-102771314D01*
X106150412Y-102743399D01*
X106141512Y-102728727D01*
X106133777Y-102715950D01*
X106128733Y-102707589D01*
X106128389Y-102707017D01*
X106123497Y-102699493D01*
X106121061Y-102696433D01*
X106117820Y-102691904D01*
X106111772Y-102682383D01*
X106106161Y-102673150D01*
X106098258Y-102659932D01*
X106091435Y-102648542D01*
X106088417Y-102643517D01*
X106083380Y-102635045D01*
X106076109Y-102622698D01*
X106071567Y-102614946D01*
X106064559Y-102603860D01*
X106058926Y-102596557D01*
X106056642Y-102594837D01*
X106053821Y-102591390D01*
X106053467Y-102588483D01*
X106051425Y-102582846D01*
X106049692Y-102582133D01*
X106045966Y-102578545D01*
X106043262Y-102571550D01*
X106039862Y-102563621D01*
X106036453Y-102560967D01*
X106032511Y-102557673D01*
X106032300Y-102556168D01*
X106030162Y-102551159D01*
X106024420Y-102540697D01*
X106016084Y-102526431D01*
X106006165Y-102510006D01*
X105995673Y-102493071D01*
X105985616Y-102477272D01*
X105977006Y-102464257D01*
X105970852Y-102455673D01*
X105970146Y-102454800D01*
X105965347Y-102448021D01*
X105965004Y-102443990D01*
X105969799Y-102442735D01*
X105980415Y-102444284D01*
G37*
X105980415Y-102444284D02*
X105997536Y-102448662D01*
X106021845Y-102455899D01*
X106025491Y-102457027D01*
X106048610Y-102464182D01*
X106076267Y-102472712D01*
X106104901Y-102481519D01*
X106129667Y-102489114D01*
X106153013Y-102496266D01*
X106175920Y-102503297D01*
X106195952Y-102509456D01*
X106210674Y-102513997D01*
X106212217Y-102514475D01*
X106230141Y-102520001D01*
X106254323Y-102527418D01*
X106282915Y-102536163D01*
X106314071Y-102545671D01*
X106345946Y-102555379D01*
X106376693Y-102564724D01*
X106392134Y-102569407D01*
X106415802Y-102576608D01*
X106441650Y-102584517D01*
X106465500Y-102591855D01*
X106474684Y-102594697D01*
X106496202Y-102601337D01*
X106521649Y-102609135D01*
X106546845Y-102616812D01*
X106557234Y-102619961D01*
X106581476Y-102627335D01*
X106609345Y-102635876D01*
X106636391Y-102644218D01*
X106648250Y-102647899D01*
X106676903Y-102656801D01*
X106707441Y-102666263D01*
X106738471Y-102675856D01*
X106768600Y-102685151D01*
X106796436Y-102693718D01*
X106820586Y-102701128D01*
X106839656Y-102706953D01*
X106852255Y-102710762D01*
X106853567Y-102711153D01*
X106869466Y-102715903D01*
X106887564Y-102721351D01*
X106894842Y-102723554D01*
X106912690Y-102728956D01*
X106931585Y-102734652D01*
X106938234Y-102736650D01*
X106966120Y-102745044D01*
X106990188Y-102752365D01*
X107014438Y-102759838D01*
X107041950Y-102768400D01*
X107071015Y-102777451D01*
X107093403Y-102784364D01*
X107110508Y-102789556D01*
X107123724Y-102793444D01*
X107134446Y-102796444D01*
X107144069Y-102798975D01*
X107144608Y-102799113D01*
X107155495Y-102802450D01*
X107161891Y-102805505D01*
X107162600Y-102806451D01*
X107165181Y-102811002D01*
X107171694Y-102819280D01*
X107175300Y-102823433D01*
X107182943Y-102832491D01*
X107187469Y-102838818D01*
X107188000Y-102840114D01*
X107190598Y-102844567D01*
X107196953Y-102852213D01*
X107197947Y-102853297D01*
X107206455Y-102863533D01*
X107216151Y-102876660D01*
X107219676Y-102881828D01*
X107226973Y-102892026D01*
X107232639Y-102898468D01*
X107234482Y-102899633D01*
X107238524Y-102902954D01*
X107241328Y-102907613D01*
X107246277Y-102915490D01*
X107254486Y-102926400D01*
X107259055Y-102931954D01*
X107268083Y-102943020D01*
X107279974Y-102958191D01*
X107292599Y-102974737D01*
X107296588Y-102980067D01*
X107307181Y-102994142D01*
X107315956Y-103005510D01*
X107321644Y-103012537D01*
X107322959Y-103013933D01*
X107326566Y-103018039D01*
X107333975Y-103027307D01*
X107343912Y-103040124D01*
X107349847Y-103047912D01*
X107361361Y-103062924D01*
X107371778Y-103076179D01*
X107379479Y-103085632D01*
X107381652Y-103088128D01*
X107389109Y-103097091D01*
X107397871Y-103108701D01*
X107399722Y-103111300D01*
X107407602Y-103122321D01*
X107415171Y-103132314D01*
X107424548Y-103144012D01*
X107433831Y-103155296D01*
X107442853Y-103166530D01*
X107453682Y-103180459D01*
X107459231Y-103187763D01*
X107470992Y-103203002D01*
X107484048Y-103219344D01*
X107489407Y-103225863D01*
X107501242Y-103240475D01*
X107514218Y-103257097D01*
X107520816Y-103265817D01*
X107539303Y-103290366D01*
X107558466Y-103315155D01*
X107580658Y-103343227D01*
X107581700Y-103344534D01*
X107593061Y-103358844D01*
X107603931Y-103372643D01*
X107611333Y-103382141D01*
X107620909Y-103394442D01*
X107631746Y-103408209D01*
X107634617Y-103411827D01*
X107645755Y-103425938D01*
X107660294Y-103444512D01*
X107676761Y-103465648D01*
X107693679Y-103487447D01*
X107709573Y-103508008D01*
X107722970Y-103525433D01*
X107731312Y-103536386D01*
X107742106Y-103550292D01*
X107752843Y-103563516D01*
X107758927Y-103570616D01*
X107769222Y-103583013D01*
X107779417Y-103596571D01*
X107780508Y-103598133D01*
X107789697Y-103610429D01*
X107799100Y-103621549D01*
X107800518Y-103623052D01*
X107808458Y-103632851D01*
X107809692Y-103638695D01*
X107805008Y-103640185D01*
X107801379Y-103637202D01*
X107792182Y-103628585D01*
X107777805Y-103614718D01*
X107758637Y-103595987D01*
X107735064Y-103572776D01*
X107707474Y-103545469D01*
X107676255Y-103514451D01*
X107641794Y-103480107D01*
X107604480Y-103442822D01*
X107564699Y-103402979D01*
X107522840Y-103360963D01*
X107479290Y-103317159D01*
X107471115Y-103308927D01*
X107142513Y-102977950D01*
X107066831Y-102961593D01*
X107041137Y-102956069D01*
X107016951Y-102950921D01*
X106996040Y-102946522D01*
X106980170Y-102943243D01*
X106972100Y-102941642D01*
X106959313Y-102939103D01*
X106941349Y-102935378D01*
X106921296Y-102931110D01*
X106912834Y-102929276D01*
X106890529Y-102924438D01*
X106866778Y-102919326D01*
X106845822Y-102914854D01*
X106840867Y-102913806D01*
X106811002Y-102907493D01*
X106786843Y-102902355D01*
X106765807Y-102897831D01*
X106745314Y-102893364D01*
X106722780Y-102888395D01*
X106696934Y-102882656D01*
X106673458Y-102877479D01*
X106651292Y-102872674D01*
X106632529Y-102868689D01*
X106619260Y-102865971D01*
X106616500Y-102865439D01*
X106608148Y-102863832D01*
X106597624Y-102861708D01*
X106583856Y-102858841D01*
X106565771Y-102855003D01*
X106542298Y-102849969D01*
X106512366Y-102843510D01*
X106487384Y-102838105D01*
X106447960Y-102829599D01*
X106414876Y-102822535D01*
X106386210Y-102816502D01*
X106370967Y-102813339D01*
X106354603Y-102809899D01*
X106332688Y-102805202D01*
X106307935Y-102799835D01*
X106283056Y-102794383D01*
X106279950Y-102793698D01*
X106255902Y-102788477D01*
X106232243Y-102783498D01*
X106211451Y-102779273D01*
X106196003Y-102776313D01*
X106194022Y-102775962D01*
X106167361Y-102771314D01*
X106150412Y-102743399D01*
X106141512Y-102728727D01*
X106133777Y-102715950D01*
X106128733Y-102707589D01*
X106128389Y-102707017D01*
X106123497Y-102699493D01*
X106121061Y-102696433D01*
X106117820Y-102691904D01*
X106111772Y-102682383D01*
X106106161Y-102673150D01*
X106098258Y-102659932D01*
X106091435Y-102648542D01*
X106088417Y-102643517D01*
X106083380Y-102635045D01*
X106076109Y-102622698D01*
X106071567Y-102614946D01*
X106064559Y-102603860D01*
X106058926Y-102596557D01*
X106056642Y-102594837D01*
X106053821Y-102591390D01*
X106053467Y-102588483D01*
X106051425Y-102582846D01*
X106049692Y-102582133D01*
X106045966Y-102578545D01*
X106043262Y-102571550D01*
X106039862Y-102563621D01*
X106036453Y-102560967D01*
X106032511Y-102557673D01*
X106032300Y-102556168D01*
X106030162Y-102551159D01*
X106024420Y-102540697D01*
X106016084Y-102526431D01*
X106006165Y-102510006D01*
X105995673Y-102493071D01*
X105985616Y-102477272D01*
X105977006Y-102464257D01*
X105970852Y-102455673D01*
X105970146Y-102454800D01*
X105965347Y-102448021D01*
X105965004Y-102443990D01*
X105969799Y-102442735D01*
X105980415Y-102444284D01*
G36*
X105476715Y-101635857D02*
G01*
X105486784Y-101641149D01*
X105500315Y-101648728D01*
X105504827Y-101651332D01*
X105521012Y-101660730D01*
X105536190Y-101669529D01*
X105547433Y-101676034D01*
X105548642Y-101676732D01*
X105562510Y-101684735D01*
X105576158Y-101692617D01*
X105584249Y-101697265D01*
X105598217Y-101705259D01*
X105616581Y-101715753D01*
X105637862Y-101727903D01*
X105657650Y-101739190D01*
X105679610Y-101751741D01*
X105699307Y-101763052D01*
X105715446Y-101772376D01*
X105726729Y-101778962D01*
X105731733Y-101781979D01*
X105739589Y-101786637D01*
X105750760Y-101792744D01*
X105752900Y-101793868D01*
X105762244Y-101798902D01*
X105776985Y-101807032D01*
X105795162Y-101817168D01*
X105814810Y-101828221D01*
X105816400Y-101829120D01*
X105836077Y-101840176D01*
X105854440Y-101850368D01*
X105869530Y-101858616D01*
X105879386Y-101863839D01*
X105879900Y-101864100D01*
X105891999Y-101870372D01*
X105902173Y-101875947D01*
X105903184Y-101876535D01*
X105909964Y-101880329D01*
X105922542Y-101887195D01*
X105939243Y-101896225D01*
X105958391Y-101906509D01*
X105962450Y-101908681D01*
X105982889Y-101919630D01*
X106002195Y-101930009D01*
X106018340Y-101938724D01*
X106029293Y-101944682D01*
X106030184Y-101945171D01*
X106047338Y-101954406D01*
X106071009Y-101966835D01*
X106100116Y-101981913D01*
X106133580Y-101999094D01*
X106170321Y-102017835D01*
X106209259Y-102037591D01*
X106249314Y-102057815D01*
X106289406Y-102077964D01*
X106328455Y-102097492D01*
X106365382Y-102115855D01*
X106399106Y-102132508D01*
X106428548Y-102146904D01*
X106452627Y-102158501D01*
X106457750Y-102160931D01*
X106495233Y-102178507D01*
X106538438Y-102198548D01*
X106585334Y-102220118D01*
X106633887Y-102242280D01*
X106673650Y-102260303D01*
X106725360Y-102283252D01*
X106781701Y-102307539D01*
X106840239Y-102332151D01*
X106898543Y-102356080D01*
X106954180Y-102378315D01*
X107004719Y-102397847D01*
X107005967Y-102398318D01*
X107027852Y-102406624D01*
X107047440Y-102414132D01*
X107063123Y-102420220D01*
X107073295Y-102424267D01*
X107075817Y-102425334D01*
X107088180Y-102430360D01*
X107107303Y-102437420D01*
X107131846Y-102446076D01*
X107160471Y-102455888D01*
X107191840Y-102466418D01*
X107224613Y-102477228D01*
X107257453Y-102487879D01*
X107289021Y-102497931D01*
X107317978Y-102506948D01*
X107342985Y-102514490D01*
X107362705Y-102520118D01*
X107373597Y-102522907D01*
X107396210Y-102528131D01*
X107432217Y-102602757D01*
X107445934Y-102631134D01*
X107462007Y-102664302D01*
X107479070Y-102699444D01*
X107495755Y-102733748D01*
X107509552Y-102762050D01*
X107523054Y-102789753D01*
X107536653Y-102817724D01*
X107549435Y-102844082D01*
X107560489Y-102866946D01*
X107568902Y-102884435D01*
X107570097Y-102886933D01*
X107578688Y-102904910D01*
X107589787Y-102928133D01*
X107602249Y-102954209D01*
X107614932Y-102980746D01*
X107621689Y-102994883D01*
X107634376Y-103021277D01*
X107649500Y-103052506D01*
X107665727Y-103085826D01*
X107681721Y-103118494D01*
X107694082Y-103143594D01*
X107705936Y-103167796D01*
X107716396Y-103189560D01*
X107724909Y-103207703D01*
X107730923Y-103221043D01*
X107733886Y-103228395D01*
X107734100Y-103229319D01*
X107737031Y-103233835D01*
X107738333Y-103234067D01*
X107742274Y-103237406D01*
X107742567Y-103239321D01*
X107744330Y-103245434D01*
X107748995Y-103256842D01*
X107755628Y-103271292D01*
X107757058Y-103274246D01*
X107763564Y-103287622D01*
X107772859Y-103306811D01*
X107784065Y-103329992D01*
X107796302Y-103355347D01*
X107808238Y-103380116D01*
X107822612Y-103409901D01*
X107838685Y-103443097D01*
X107854988Y-103476672D01*
X107870049Y-103507597D01*
X107878413Y-103524713D01*
X107889176Y-103546942D01*
X107898502Y-103566675D01*
X107905793Y-103582609D01*
X107910453Y-103593438D01*
X107911900Y-103597738D01*
X107914893Y-103602163D01*
X107916133Y-103602366D01*
X107920110Y-103605685D01*
X107920367Y-103607413D01*
X107922105Y-103613699D01*
X107926636Y-103624756D01*
X107932933Y-103638497D01*
X107939973Y-103652832D01*
X107946728Y-103665674D01*
X107952173Y-103674935D01*
X107955284Y-103678527D01*
X107955292Y-103678527D01*
X107958306Y-103675252D01*
X107958467Y-103673742D01*
X107960247Y-103668448D01*
X107965158Y-103656993D01*
X107972558Y-103640797D01*
X107981806Y-103621280D01*
X107987672Y-103609184D01*
X108000225Y-103583429D01*
X108014897Y-103553206D01*
X108030151Y-103521683D01*
X108044453Y-103492029D01*
X108049412Y-103481716D01*
X108062149Y-103455317D01*
X108075700Y-103427428D01*
X108088794Y-103400651D01*
X108100161Y-103377590D01*
X108104874Y-103368118D01*
X108113783Y-103349822D01*
X108121076Y-103333941D01*
X108126000Y-103322183D01*
X108127800Y-103316260D01*
X108130204Y-103310859D01*
X108132034Y-103310266D01*
X108136121Y-103307026D01*
X108136267Y-103305891D01*
X108138057Y-103300972D01*
X108143074Y-103289610D01*
X108150783Y-103272948D01*
X108160654Y-103252130D01*
X108172151Y-103228297D01*
X108178185Y-103215932D01*
X108191400Y-103188867D01*
X108204323Y-103162241D01*
X108216149Y-103137726D01*
X108226074Y-103116991D01*
X108233293Y-103101708D01*
X108234734Y-103098600D01*
X108240381Y-103086450D01*
X108247217Y-103071949D01*
X108255580Y-103054397D01*
X108265808Y-103033093D01*
X108278239Y-103007336D01*
X108293210Y-102976426D01*
X108311059Y-102939662D01*
X108332124Y-102896342D01*
X108343914Y-102872117D01*
X108357404Y-102844340D01*
X108371594Y-102815007D01*
X108385324Y-102786528D01*
X108397428Y-102761315D01*
X108405161Y-102745117D01*
X108416839Y-102720627D01*
X108430467Y-102692160D01*
X108444298Y-102663356D01*
X108455898Y-102639283D01*
X108466698Y-102616824D01*
X108477341Y-102594514D01*
X108486710Y-102574705D01*
X108493690Y-102559748D01*
X108494582Y-102557805D01*
X108499081Y-102547831D01*
X108502890Y-102540508D01*
X108507353Y-102535044D01*
X108513816Y-102530647D01*
X108523623Y-102526525D01*
X108538118Y-102521887D01*
X108558645Y-102515940D01*
X108572300Y-102512024D01*
X108624756Y-102496137D01*
X108683470Y-102476967D01*
X108747126Y-102455011D01*
X108814408Y-102430769D01*
X108883999Y-102404739D01*
X108954582Y-102377420D01*
X109024842Y-102349310D01*
X109093461Y-102320909D01*
X109159124Y-102292715D01*
X109204308Y-102272608D01*
X109222226Y-102264555D01*
X109237116Y-102257969D01*
X109247412Y-102253533D01*
X109251541Y-102251933D01*
X109255769Y-102250257D01*
X109266027Y-102245717D01*
X109280682Y-102239046D01*
X109294751Y-102232540D01*
X109312624Y-102224230D01*
X109335944Y-102213400D01*
X109362477Y-102201088D01*
X109389986Y-102188331D01*
X109410500Y-102178824D01*
X109428890Y-102170134D01*
X109453765Y-102158123D01*
X109484068Y-102143320D01*
X109518743Y-102126253D01*
X109556732Y-102107450D01*
X109596980Y-102087440D01*
X109638428Y-102066751D01*
X109680022Y-102045910D01*
X109720703Y-102025446D01*
X109759416Y-102005886D01*
X109795103Y-101987761D01*
X109826708Y-101971596D01*
X109853174Y-101957921D01*
X109867700Y-101950311D01*
X109897742Y-101934317D01*
X109933478Y-101915078D01*
X109973232Y-101893513D01*
X110015325Y-101870541D01*
X110058079Y-101847080D01*
X110099816Y-101824049D01*
X110138859Y-101802366D01*
X110173530Y-101782950D01*
X110176734Y-101781145D01*
X110200911Y-101767502D01*
X110219879Y-101756764D01*
X110235812Y-101747692D01*
X110250884Y-101739047D01*
X110267267Y-101729590D01*
X110272536Y-101726540D01*
X110312747Y-101703301D01*
X110346218Y-101684059D01*
X110373501Y-101668509D01*
X110395150Y-101656348D01*
X110411717Y-101647273D01*
X110423755Y-101640980D01*
X110431819Y-101637165D01*
X110436459Y-101635526D01*
X110438136Y-101635625D01*
X110438230Y-101640874D01*
X110434403Y-101649527D01*
X110434130Y-101649982D01*
X110428516Y-101659366D01*
X110420401Y-101673155D01*
X110411511Y-101688418D01*
X110411232Y-101688900D01*
X110400344Y-101707226D01*
X110387676Y-101727859D01*
X110377032Y-101744674D01*
X110368426Y-101758528D01*
X110362003Y-101769899D01*
X110358894Y-101776750D01*
X110358767Y-101777483D01*
X110356405Y-101781853D01*
X110355496Y-101782033D01*
X110351695Y-101785433D01*
X110346068Y-101793963D01*
X110343895Y-101797908D01*
X110338250Y-101808231D01*
X110334156Y-101814945D01*
X110333407Y-101815900D01*
X110329747Y-101820889D01*
X110326261Y-101826483D01*
X110322184Y-101833210D01*
X110314666Y-101845438D01*
X110304746Y-101861486D01*
X110293462Y-101879670D01*
X110292395Y-101881387D01*
X110281143Y-101899781D01*
X110271353Y-101916346D01*
X110264018Y-101929360D01*
X110260135Y-101937100D01*
X110259989Y-101937479D01*
X110255877Y-101944893D01*
X110252581Y-101947133D01*
X110248835Y-101950387D01*
X110248700Y-101951534D01*
X110246482Y-101957136D01*
X110240711Y-101967298D01*
X110233884Y-101977935D01*
X110226096Y-101990251D01*
X110220729Y-102000172D01*
X110219067Y-102004932D01*
X110216432Y-102010693D01*
X110215318Y-102011339D01*
X110211594Y-102015376D01*
X110204783Y-102024994D01*
X110196079Y-102038464D01*
X110191718Y-102045558D01*
X110182584Y-102060035D01*
X110174797Y-102071248D01*
X110169529Y-102077559D01*
X110168243Y-102078366D01*
X110163293Y-102080094D01*
X110152206Y-102084836D01*
X110136469Y-102091930D01*
X110117572Y-102100715D01*
X110111117Y-102103767D01*
X110091727Y-102112921D01*
X110075241Y-102120609D01*
X110063078Y-102126176D01*
X110056659Y-102128967D01*
X110056041Y-102129167D01*
X110051771Y-102130840D01*
X110041638Y-102135327D01*
X110027434Y-102141823D01*
X110019292Y-102145610D01*
X109995537Y-102156667D01*
X109965223Y-102170698D01*
X109929498Y-102187174D01*
X109889509Y-102205566D01*
X109855000Y-102221404D01*
X109806667Y-102243582D01*
X109763559Y-102263410D01*
X109724613Y-102281392D01*
X109688769Y-102298033D01*
X109654968Y-102313837D01*
X109622147Y-102329309D01*
X109589246Y-102344954D01*
X109555205Y-102361276D01*
X109518962Y-102378779D01*
X109479458Y-102397968D01*
X109435630Y-102419348D01*
X109386420Y-102443424D01*
X109330765Y-102470699D01*
X109325834Y-102473117D01*
X109294512Y-102488454D01*
X109263107Y-102503792D01*
X109233151Y-102518385D01*
X109206174Y-102531488D01*
X109183709Y-102542357D01*
X109167285Y-102550246D01*
X109167084Y-102550342D01*
X109149917Y-102558582D01*
X109126871Y-102569718D01*
X109099667Y-102582914D01*
X109070028Y-102597335D01*
X109039672Y-102612145D01*
X109021034Y-102621260D01*
X108987159Y-102637842D01*
X108949285Y-102656378D01*
X108910111Y-102675547D01*
X108872335Y-102694029D01*
X108838657Y-102710504D01*
X108829774Y-102714848D01*
X108799424Y-102729832D01*
X108775887Y-102741821D01*
X108758273Y-102751332D01*
X108745692Y-102758883D01*
X108737253Y-102764989D01*
X108732065Y-102770169D01*
X108730436Y-102772532D01*
X108724618Y-102781065D01*
X108720241Y-102785247D01*
X108719839Y-102785333D01*
X108716230Y-102788790D01*
X108714313Y-102793180D01*
X108710211Y-102800529D01*
X108702240Y-102811261D01*
X108695135Y-102819639D01*
X108684920Y-102831799D01*
X108676476Y-102843189D01*
X108672999Y-102848833D01*
X108666056Y-102859775D01*
X108657888Y-102870000D01*
X108650324Y-102879214D01*
X108640523Y-102892356D01*
X108632488Y-102903838D01*
X108623753Y-102916513D01*
X108616473Y-102926665D01*
X108612517Y-102931742D01*
X108609312Y-102935472D01*
X108604725Y-102941242D01*
X108598101Y-102949923D01*
X108588787Y-102962388D01*
X108576129Y-102979508D01*
X108559471Y-103002157D01*
X108549275Y-103016050D01*
X108534562Y-103036013D01*
X108520672Y-103054691D01*
X108508787Y-103070505D01*
X108500090Y-103081880D01*
X108497210Y-103085528D01*
X108488246Y-103096956D01*
X108480570Y-103107319D01*
X108479167Y-103109339D01*
X108467109Y-103127004D01*
X108459137Y-103138378D01*
X108454694Y-103144251D01*
X108453854Y-103145167D01*
X108449908Y-103149981D01*
X108441471Y-103161075D01*
X108428987Y-103177848D01*
X108412902Y-103199701D01*
X108393663Y-103226036D01*
X108390898Y-103229833D01*
X108379634Y-103245260D01*
X108369980Y-103258393D01*
X108363177Y-103267549D01*
X108360762Y-103270706D01*
X108356410Y-103276375D01*
X108347806Y-103287805D01*
X108335728Y-103303949D01*
X108320955Y-103323759D01*
X108304265Y-103346184D01*
X108286436Y-103370178D01*
X108268246Y-103394691D01*
X108250475Y-103418675D01*
X108233900Y-103441081D01*
X108219298Y-103460862D01*
X108207450Y-103476968D01*
X108199133Y-103488351D01*
X108196515Y-103491981D01*
X108190248Y-103500548D01*
X108181104Y-103512816D01*
X108170763Y-103526558D01*
X108160903Y-103539550D01*
X108153204Y-103549567D01*
X108149945Y-103553683D01*
X108145992Y-103559024D01*
X108138696Y-103569318D01*
X108129496Y-103582531D01*
X108127603Y-103585273D01*
X108117452Y-103599650D01*
X108108123Y-103612258D01*
X108101449Y-103620625D01*
X108100886Y-103621257D01*
X108093689Y-103630232D01*
X108085089Y-103642374D01*
X108082233Y-103646722D01*
X108074763Y-103657974D01*
X108068535Y-103666668D01*
X108066813Y-103668800D01*
X108064013Y-103672019D01*
X108060927Y-103675765D01*
X108056551Y-103681331D01*
X108049878Y-103690013D01*
X108039902Y-103703103D01*
X108028788Y-103717725D01*
X108003860Y-103750533D01*
X107953814Y-103750533D01*
X107928925Y-103750151D01*
X107911857Y-103748965D01*
X107901999Y-103746916D01*
X107899284Y-103745241D01*
X107885538Y-103728724D01*
X107877191Y-103717963D01*
X107873891Y-103712501D01*
X107873805Y-103712023D01*
X107871318Y-103707301D01*
X107866128Y-103700649D01*
X107857450Y-103689965D01*
X107851503Y-103682010D01*
X107847245Y-103676167D01*
X107838898Y-103664841D01*
X107827347Y-103649221D01*
X107813473Y-103630495D01*
X107798162Y-103609853D01*
X107782295Y-103588485D01*
X107766756Y-103567580D01*
X107752429Y-103548326D01*
X107740196Y-103531914D01*
X107730940Y-103519532D01*
X107725546Y-103512370D01*
X107724760Y-103511350D01*
X107720653Y-103505871D01*
X107713297Y-103495840D01*
X107705537Y-103485159D01*
X107695312Y-103471040D01*
X107686952Y-103459545D01*
X107679162Y-103448922D01*
X107670650Y-103437417D01*
X107660123Y-103423279D01*
X107646287Y-103404755D01*
X107640162Y-103396560D01*
X107626660Y-103378477D01*
X107614419Y-103362040D01*
X107604621Y-103348839D01*
X107598448Y-103340467D01*
X107597679Y-103339410D01*
X107587463Y-103325420D01*
X107574356Y-103307656D01*
X107559207Y-103287251D01*
X107542864Y-103265336D01*
X107526177Y-103243042D01*
X107509996Y-103221503D01*
X107495169Y-103201850D01*
X107482547Y-103185215D01*
X107472978Y-103172729D01*
X107467312Y-103165526D01*
X107466421Y-103164477D01*
X107460799Y-103157364D01*
X107458933Y-103153483D01*
X107456478Y-103148512D01*
X107451525Y-103141937D01*
X107440166Y-103128303D01*
X107432280Y-103118184D01*
X107425715Y-103108771D01*
X107423290Y-103105058D01*
X107416732Y-103095299D01*
X107411697Y-103088471D01*
X107411406Y-103088127D01*
X107407725Y-103083385D01*
X107400164Y-103073333D01*
X107389849Y-103059491D01*
X107377906Y-103043377D01*
X107365459Y-103026510D01*
X107353634Y-103010411D01*
X107343556Y-102996597D01*
X107341242Y-102993402D01*
X107333970Y-102983604D01*
X107324817Y-102971590D01*
X107322408Y-102968479D01*
X107315375Y-102958906D01*
X107311222Y-102952241D01*
X107310747Y-102950909D01*
X107308114Y-102946457D01*
X107301563Y-102938498D01*
X107298951Y-102935617D01*
X107288524Y-102923004D01*
X107278764Y-102909142D01*
X107277914Y-102907779D01*
X107269164Y-102894907D01*
X107259817Y-102883140D01*
X107258592Y-102881784D01*
X107249274Y-102870439D01*
X107240262Y-102857582D01*
X107239712Y-102856705D01*
X107231728Y-102844929D01*
X107223854Y-102834927D01*
X107223030Y-102834017D01*
X107216064Y-102825610D01*
X107207037Y-102813580D01*
X107202031Y-102806500D01*
X107192697Y-102793482D01*
X107183686Y-102781736D01*
X107179981Y-102777277D01*
X107173769Y-102769248D01*
X107171070Y-102763897D01*
X107171067Y-102763801D01*
X107167508Y-102760634D01*
X107157969Y-102754903D01*
X107144158Y-102747594D01*
X107136142Y-102743635D01*
X107121537Y-102736584D01*
X107101088Y-102726710D01*
X107076575Y-102714874D01*
X107049777Y-102701934D01*
X107022474Y-102688750D01*
X107017200Y-102686204D01*
X106992731Y-102674413D01*
X106970956Y-102663970D01*
X106952984Y-102655401D01*
X106939921Y-102649234D01*
X106932875Y-102645995D01*
X106931963Y-102645633D01*
X106927964Y-102643876D01*
X106917484Y-102638963D01*
X106901660Y-102631438D01*
X106881627Y-102621840D01*
X106858522Y-102610712D01*
X106850879Y-102607019D01*
X106823521Y-102593809D01*
X106795560Y-102580338D01*
X106769055Y-102567597D01*
X106746062Y-102556573D01*
X106728684Y-102548278D01*
X106706231Y-102537603D01*
X106680060Y-102525161D01*
X106654099Y-102512820D01*
X106639784Y-102506015D01*
X106617236Y-102495259D01*
X106590456Y-102482428D01*
X106562827Y-102469145D01*
X106538184Y-102457252D01*
X106491314Y-102434605D01*
X106444520Y-102412050D01*
X106399617Y-102390459D01*
X106358422Y-102370706D01*
X106322750Y-102353665D01*
X106318050Y-102351426D01*
X106295035Y-102340449D01*
X106267963Y-102327511D01*
X106240408Y-102314319D01*
X106218567Y-102303844D01*
X106195105Y-102292603D01*
X106170473Y-102280843D01*
X106147618Y-102269968D01*
X106129667Y-102261468D01*
X106042470Y-102220076D01*
X105954968Y-102177955D01*
X105932618Y-102167108D01*
X105908056Y-102155223D01*
X105883727Y-102143545D01*
X105861641Y-102133032D01*
X105843806Y-102124642D01*
X105835251Y-102120692D01*
X105802296Y-102105328D01*
X105774585Y-102091660D01*
X105752796Y-102080047D01*
X105737607Y-102070848D01*
X105730171Y-102064964D01*
X105722892Y-102055584D01*
X105714943Y-102043161D01*
X105713144Y-102039984D01*
X105705232Y-102026096D01*
X105695248Y-102009351D01*
X105684280Y-101991481D01*
X105673415Y-101974217D01*
X105663740Y-101959290D01*
X105656343Y-101948429D01*
X105652626Y-101943656D01*
X105647881Y-101937052D01*
X105647067Y-101934257D01*
X105644895Y-101929654D01*
X105638845Y-101919094D01*
X105629620Y-101903742D01*
X105617919Y-101884762D01*
X105604444Y-101863320D01*
X105603311Y-101861534D01*
X105583398Y-101830077D01*
X105566635Y-101803354D01*
X105551558Y-101778997D01*
X105536705Y-101754642D01*
X105520610Y-101727921D01*
X105518789Y-101724883D01*
X105513822Y-101717353D01*
X105511281Y-101714300D01*
X105507837Y-101709530D01*
X105502307Y-101700312D01*
X105500698Y-101697444D01*
X105494057Y-101686391D01*
X105488126Y-101678028D01*
X105487258Y-101677033D01*
X105482663Y-101669312D01*
X105481967Y-101665832D01*
X105478993Y-101658687D01*
X105475617Y-101655033D01*
X105471289Y-101648705D01*
X105469236Y-101640829D01*
X105470062Y-101634956D01*
X105472018Y-101633867D01*
X105476715Y-101635857D01*
G37*
X105476715Y-101635857D02*
X105486784Y-101641149D01*
X105500315Y-101648728D01*
X105504827Y-101651332D01*
X105521012Y-101660730D01*
X105536190Y-101669529D01*
X105547433Y-101676034D01*
X105548642Y-101676732D01*
X105562510Y-101684735D01*
X105576158Y-101692617D01*
X105584249Y-101697265D01*
X105598217Y-101705259D01*
X105616581Y-101715753D01*
X105637862Y-101727903D01*
X105657650Y-101739190D01*
X105679610Y-101751741D01*
X105699307Y-101763052D01*
X105715446Y-101772376D01*
X105726729Y-101778962D01*
X105731733Y-101781979D01*
X105739589Y-101786637D01*
X105750760Y-101792744D01*
X105752900Y-101793868D01*
X105762244Y-101798902D01*
X105776985Y-101807032D01*
X105795162Y-101817168D01*
X105814810Y-101828221D01*
X105816400Y-101829120D01*
X105836077Y-101840176D01*
X105854440Y-101850368D01*
X105869530Y-101858616D01*
X105879386Y-101863839D01*
X105879900Y-101864100D01*
X105891999Y-101870372D01*
X105902173Y-101875947D01*
X105903184Y-101876535D01*
X105909964Y-101880329D01*
X105922542Y-101887195D01*
X105939243Y-101896225D01*
X105958391Y-101906509D01*
X105962450Y-101908681D01*
X105982889Y-101919630D01*
X106002195Y-101930009D01*
X106018340Y-101938724D01*
X106029293Y-101944682D01*
X106030184Y-101945171D01*
X106047338Y-101954406D01*
X106071009Y-101966835D01*
X106100116Y-101981913D01*
X106133580Y-101999094D01*
X106170321Y-102017835D01*
X106209259Y-102037591D01*
X106249314Y-102057815D01*
X106289406Y-102077964D01*
X106328455Y-102097492D01*
X106365382Y-102115855D01*
X106399106Y-102132508D01*
X106428548Y-102146904D01*
X106452627Y-102158501D01*
X106457750Y-102160931D01*
X106495233Y-102178507D01*
X106538438Y-102198548D01*
X106585334Y-102220118D01*
X106633887Y-102242280D01*
X106673650Y-102260303D01*
X106725360Y-102283252D01*
X106781701Y-102307539D01*
X106840239Y-102332151D01*
X106898543Y-102356080D01*
X106954180Y-102378315D01*
X107004719Y-102397847D01*
X107005967Y-102398318D01*
X107027852Y-102406624D01*
X107047440Y-102414132D01*
X107063123Y-102420220D01*
X107073295Y-102424267D01*
X107075817Y-102425334D01*
X107088180Y-102430360D01*
X107107303Y-102437420D01*
X107131846Y-102446076D01*
X107160471Y-102455888D01*
X107191840Y-102466418D01*
X107224613Y-102477228D01*
X107257453Y-102487879D01*
X107289021Y-102497931D01*
X107317978Y-102506948D01*
X107342985Y-102514490D01*
X107362705Y-102520118D01*
X107373597Y-102522907D01*
X107396210Y-102528131D01*
X107432217Y-102602757D01*
X107445934Y-102631134D01*
X107462007Y-102664302D01*
X107479070Y-102699444D01*
X107495755Y-102733748D01*
X107509552Y-102762050D01*
X107523054Y-102789753D01*
X107536653Y-102817724D01*
X107549435Y-102844082D01*
X107560489Y-102866946D01*
X107568902Y-102884435D01*
X107570097Y-102886933D01*
X107578688Y-102904910D01*
X107589787Y-102928133D01*
X107602249Y-102954209D01*
X107614932Y-102980746D01*
X107621689Y-102994883D01*
X107634376Y-103021277D01*
X107649500Y-103052506D01*
X107665727Y-103085826D01*
X107681721Y-103118494D01*
X107694082Y-103143594D01*
X107705936Y-103167796D01*
X107716396Y-103189560D01*
X107724909Y-103207703D01*
X107730923Y-103221043D01*
X107733886Y-103228395D01*
X107734100Y-103229319D01*
X107737031Y-103233835D01*
X107738333Y-103234067D01*
X107742274Y-103237406D01*
X107742567Y-103239321D01*
X107744330Y-103245434D01*
X107748995Y-103256842D01*
X107755628Y-103271292D01*
X107757058Y-103274246D01*
X107763564Y-103287622D01*
X107772859Y-103306811D01*
X107784065Y-103329992D01*
X107796302Y-103355347D01*
X107808238Y-103380116D01*
X107822612Y-103409901D01*
X107838685Y-103443097D01*
X107854988Y-103476672D01*
X107870049Y-103507597D01*
X107878413Y-103524713D01*
X107889176Y-103546942D01*
X107898502Y-103566675D01*
X107905793Y-103582609D01*
X107910453Y-103593438D01*
X107911900Y-103597738D01*
X107914893Y-103602163D01*
X107916133Y-103602366D01*
X107920110Y-103605685D01*
X107920367Y-103607413D01*
X107922105Y-103613699D01*
X107926636Y-103624756D01*
X107932933Y-103638497D01*
X107939973Y-103652832D01*
X107946728Y-103665674D01*
X107952173Y-103674935D01*
X107955284Y-103678527D01*
X107955292Y-103678527D01*
X107958306Y-103675252D01*
X107958467Y-103673742D01*
X107960247Y-103668448D01*
X107965158Y-103656993D01*
X107972558Y-103640797D01*
X107981806Y-103621280D01*
X107987672Y-103609184D01*
X108000225Y-103583429D01*
X108014897Y-103553206D01*
X108030151Y-103521683D01*
X108044453Y-103492029D01*
X108049412Y-103481716D01*
X108062149Y-103455317D01*
X108075700Y-103427428D01*
X108088794Y-103400651D01*
X108100161Y-103377590D01*
X108104874Y-103368118D01*
X108113783Y-103349822D01*
X108121076Y-103333941D01*
X108126000Y-103322183D01*
X108127800Y-103316260D01*
X108130204Y-103310859D01*
X108132034Y-103310266D01*
X108136121Y-103307026D01*
X108136267Y-103305891D01*
X108138057Y-103300972D01*
X108143074Y-103289610D01*
X108150783Y-103272948D01*
X108160654Y-103252130D01*
X108172151Y-103228297D01*
X108178185Y-103215932D01*
X108191400Y-103188867D01*
X108204323Y-103162241D01*
X108216149Y-103137726D01*
X108226074Y-103116991D01*
X108233293Y-103101708D01*
X108234734Y-103098600D01*
X108240381Y-103086450D01*
X108247217Y-103071949D01*
X108255580Y-103054397D01*
X108265808Y-103033093D01*
X108278239Y-103007336D01*
X108293210Y-102976426D01*
X108311059Y-102939662D01*
X108332124Y-102896342D01*
X108343914Y-102872117D01*
X108357404Y-102844340D01*
X108371594Y-102815007D01*
X108385324Y-102786528D01*
X108397428Y-102761315D01*
X108405161Y-102745117D01*
X108416839Y-102720627D01*
X108430467Y-102692160D01*
X108444298Y-102663356D01*
X108455898Y-102639283D01*
X108466698Y-102616824D01*
X108477341Y-102594514D01*
X108486710Y-102574705D01*
X108493690Y-102559748D01*
X108494582Y-102557805D01*
X108499081Y-102547831D01*
X108502890Y-102540508D01*
X108507353Y-102535044D01*
X108513816Y-102530647D01*
X108523623Y-102526525D01*
X108538118Y-102521887D01*
X108558645Y-102515940D01*
X108572300Y-102512024D01*
X108624756Y-102496137D01*
X108683470Y-102476967D01*
X108747126Y-102455011D01*
X108814408Y-102430769D01*
X108883999Y-102404739D01*
X108954582Y-102377420D01*
X109024842Y-102349310D01*
X109093461Y-102320909D01*
X109159124Y-102292715D01*
X109204308Y-102272608D01*
X109222226Y-102264555D01*
X109237116Y-102257969D01*
X109247412Y-102253533D01*
X109251541Y-102251933D01*
X109255769Y-102250257D01*
X109266027Y-102245717D01*
X109280682Y-102239046D01*
X109294751Y-102232540D01*
X109312624Y-102224230D01*
X109335944Y-102213400D01*
X109362477Y-102201088D01*
X109389986Y-102188331D01*
X109410500Y-102178824D01*
X109428890Y-102170134D01*
X109453765Y-102158123D01*
X109484068Y-102143320D01*
X109518743Y-102126253D01*
X109556732Y-102107450D01*
X109596980Y-102087440D01*
X109638428Y-102066751D01*
X109680022Y-102045910D01*
X109720703Y-102025446D01*
X109759416Y-102005886D01*
X109795103Y-101987761D01*
X109826708Y-101971596D01*
X109853174Y-101957921D01*
X109867700Y-101950311D01*
X109897742Y-101934317D01*
X109933478Y-101915078D01*
X109973232Y-101893513D01*
X110015325Y-101870541D01*
X110058079Y-101847080D01*
X110099816Y-101824049D01*
X110138859Y-101802366D01*
X110173530Y-101782950D01*
X110176734Y-101781145D01*
X110200911Y-101767502D01*
X110219879Y-101756764D01*
X110235812Y-101747692D01*
X110250884Y-101739047D01*
X110267267Y-101729590D01*
X110272536Y-101726540D01*
X110312747Y-101703301D01*
X110346218Y-101684059D01*
X110373501Y-101668509D01*
X110395150Y-101656348D01*
X110411717Y-101647273D01*
X110423755Y-101640980D01*
X110431819Y-101637165D01*
X110436459Y-101635526D01*
X110438136Y-101635625D01*
X110438230Y-101640874D01*
X110434403Y-101649527D01*
X110434130Y-101649982D01*
X110428516Y-101659366D01*
X110420401Y-101673155D01*
X110411511Y-101688418D01*
X110411232Y-101688900D01*
X110400344Y-101707226D01*
X110387676Y-101727859D01*
X110377032Y-101744674D01*
X110368426Y-101758528D01*
X110362003Y-101769899D01*
X110358894Y-101776750D01*
X110358767Y-101777483D01*
X110356405Y-101781853D01*
X110355496Y-101782033D01*
X110351695Y-101785433D01*
X110346068Y-101793963D01*
X110343895Y-101797908D01*
X110338250Y-101808231D01*
X110334156Y-101814945D01*
X110333407Y-101815900D01*
X110329747Y-101820889D01*
X110326261Y-101826483D01*
X110322184Y-101833210D01*
X110314666Y-101845438D01*
X110304746Y-101861486D01*
X110293462Y-101879670D01*
X110292395Y-101881387D01*
X110281143Y-101899781D01*
X110271353Y-101916346D01*
X110264018Y-101929360D01*
X110260135Y-101937100D01*
X110259989Y-101937479D01*
X110255877Y-101944893D01*
X110252581Y-101947133D01*
X110248835Y-101950387D01*
X110248700Y-101951534D01*
X110246482Y-101957136D01*
X110240711Y-101967298D01*
X110233884Y-101977935D01*
X110226096Y-101990251D01*
X110220729Y-102000172D01*
X110219067Y-102004932D01*
X110216432Y-102010693D01*
X110215318Y-102011339D01*
X110211594Y-102015376D01*
X110204783Y-102024994D01*
X110196079Y-102038464D01*
X110191718Y-102045558D01*
X110182584Y-102060035D01*
X110174797Y-102071248D01*
X110169529Y-102077559D01*
X110168243Y-102078366D01*
X110163293Y-102080094D01*
X110152206Y-102084836D01*
X110136469Y-102091930D01*
X110117572Y-102100715D01*
X110111117Y-102103767D01*
X110091727Y-102112921D01*
X110075241Y-102120609D01*
X110063078Y-102126176D01*
X110056659Y-102128967D01*
X110056041Y-102129167D01*
X110051771Y-102130840D01*
X110041638Y-102135327D01*
X110027434Y-102141823D01*
X110019292Y-102145610D01*
X109995537Y-102156667D01*
X109965223Y-102170698D01*
X109929498Y-102187174D01*
X109889509Y-102205566D01*
X109855000Y-102221404D01*
X109806667Y-102243582D01*
X109763559Y-102263410D01*
X109724613Y-102281392D01*
X109688769Y-102298033D01*
X109654968Y-102313837D01*
X109622147Y-102329309D01*
X109589246Y-102344954D01*
X109555205Y-102361276D01*
X109518962Y-102378779D01*
X109479458Y-102397968D01*
X109435630Y-102419348D01*
X109386420Y-102443424D01*
X109330765Y-102470699D01*
X109325834Y-102473117D01*
X109294512Y-102488454D01*
X109263107Y-102503792D01*
X109233151Y-102518385D01*
X109206174Y-102531488D01*
X109183709Y-102542357D01*
X109167285Y-102550246D01*
X109167084Y-102550342D01*
X109149917Y-102558582D01*
X109126871Y-102569718D01*
X109099667Y-102582914D01*
X109070028Y-102597335D01*
X109039672Y-102612145D01*
X109021034Y-102621260D01*
X108987159Y-102637842D01*
X108949285Y-102656378D01*
X108910111Y-102675547D01*
X108872335Y-102694029D01*
X108838657Y-102710504D01*
X108829774Y-102714848D01*
X108799424Y-102729832D01*
X108775887Y-102741821D01*
X108758273Y-102751332D01*
X108745692Y-102758883D01*
X108737253Y-102764989D01*
X108732065Y-102770169D01*
X108730436Y-102772532D01*
X108724618Y-102781065D01*
X108720241Y-102785247D01*
X108719839Y-102785333D01*
X108716230Y-102788790D01*
X108714313Y-102793180D01*
X108710211Y-102800529D01*
X108702240Y-102811261D01*
X108695135Y-102819639D01*
X108684920Y-102831799D01*
X108676476Y-102843189D01*
X108672999Y-102848833D01*
X108666056Y-102859775D01*
X108657888Y-102870000D01*
X108650324Y-102879214D01*
X108640523Y-102892356D01*
X108632488Y-102903838D01*
X108623753Y-102916513D01*
X108616473Y-102926665D01*
X108612517Y-102931742D01*
X108609312Y-102935472D01*
X108604725Y-102941242D01*
X108598101Y-102949923D01*
X108588787Y-102962388D01*
X108576129Y-102979508D01*
X108559471Y-103002157D01*
X108549275Y-103016050D01*
X108534562Y-103036013D01*
X108520672Y-103054691D01*
X108508787Y-103070505D01*
X108500090Y-103081880D01*
X108497210Y-103085528D01*
X108488246Y-103096956D01*
X108480570Y-103107319D01*
X108479167Y-103109339D01*
X108467109Y-103127004D01*
X108459137Y-103138378D01*
X108454694Y-103144251D01*
X108453854Y-103145167D01*
X108449908Y-103149981D01*
X108441471Y-103161075D01*
X108428987Y-103177848D01*
X108412902Y-103199701D01*
X108393663Y-103226036D01*
X108390898Y-103229833D01*
X108379634Y-103245260D01*
X108369980Y-103258393D01*
X108363177Y-103267549D01*
X108360762Y-103270706D01*
X108356410Y-103276375D01*
X108347806Y-103287805D01*
X108335728Y-103303949D01*
X108320955Y-103323759D01*
X108304265Y-103346184D01*
X108286436Y-103370178D01*
X108268246Y-103394691D01*
X108250475Y-103418675D01*
X108233900Y-103441081D01*
X108219298Y-103460862D01*
X108207450Y-103476968D01*
X108199133Y-103488351D01*
X108196515Y-103491981D01*
X108190248Y-103500548D01*
X108181104Y-103512816D01*
X108170763Y-103526558D01*
X108160903Y-103539550D01*
X108153204Y-103549567D01*
X108149945Y-103553683D01*
X108145992Y-103559024D01*
X108138696Y-103569318D01*
X108129496Y-103582531D01*
X108127603Y-103585273D01*
X108117452Y-103599650D01*
X108108123Y-103612258D01*
X108101449Y-103620625D01*
X108100886Y-103621257D01*
X108093689Y-103630232D01*
X108085089Y-103642374D01*
X108082233Y-103646722D01*
X108074763Y-103657974D01*
X108068535Y-103666668D01*
X108066813Y-103668800D01*
X108064013Y-103672019D01*
X108060927Y-103675765D01*
X108056551Y-103681331D01*
X108049878Y-103690013D01*
X108039902Y-103703103D01*
X108028788Y-103717725D01*
X108003860Y-103750533D01*
X107953814Y-103750533D01*
X107928925Y-103750151D01*
X107911857Y-103748965D01*
X107901999Y-103746916D01*
X107899284Y-103745241D01*
X107885538Y-103728724D01*
X107877191Y-103717963D01*
X107873891Y-103712501D01*
X107873805Y-103712023D01*
X107871318Y-103707301D01*
X107866128Y-103700649D01*
X107857450Y-103689965D01*
X107851503Y-103682010D01*
X107847245Y-103676167D01*
X107838898Y-103664841D01*
X107827347Y-103649221D01*
X107813473Y-103630495D01*
X107798162Y-103609853D01*
X107782295Y-103588485D01*
X107766756Y-103567580D01*
X107752429Y-103548326D01*
X107740196Y-103531914D01*
X107730940Y-103519532D01*
X107725546Y-103512370D01*
X107724760Y-103511350D01*
X107720653Y-103505871D01*
X107713297Y-103495840D01*
X107705537Y-103485159D01*
X107695312Y-103471040D01*
X107686952Y-103459545D01*
X107679162Y-103448922D01*
X107670650Y-103437417D01*
X107660123Y-103423279D01*
X107646287Y-103404755D01*
X107640162Y-103396560D01*
X107626660Y-103378477D01*
X107614419Y-103362040D01*
X107604621Y-103348839D01*
X107598448Y-103340467D01*
X107597679Y-103339410D01*
X107587463Y-103325420D01*
X107574356Y-103307656D01*
X107559207Y-103287251D01*
X107542864Y-103265336D01*
X107526177Y-103243042D01*
X107509996Y-103221503D01*
X107495169Y-103201850D01*
X107482547Y-103185215D01*
X107472978Y-103172729D01*
X107467312Y-103165526D01*
X107466421Y-103164477D01*
X107460799Y-103157364D01*
X107458933Y-103153483D01*
X107456478Y-103148512D01*
X107451525Y-103141937D01*
X107440166Y-103128303D01*
X107432280Y-103118184D01*
X107425715Y-103108771D01*
X107423290Y-103105058D01*
X107416732Y-103095299D01*
X107411697Y-103088471D01*
X107411406Y-103088127D01*
X107407725Y-103083385D01*
X107400164Y-103073333D01*
X107389849Y-103059491D01*
X107377906Y-103043377D01*
X107365459Y-103026510D01*
X107353634Y-103010411D01*
X107343556Y-102996597D01*
X107341242Y-102993402D01*
X107333970Y-102983604D01*
X107324817Y-102971590D01*
X107322408Y-102968479D01*
X107315375Y-102958906D01*
X107311222Y-102952241D01*
X107310747Y-102950909D01*
X107308114Y-102946457D01*
X107301563Y-102938498D01*
X107298951Y-102935617D01*
X107288524Y-102923004D01*
X107278764Y-102909142D01*
X107277914Y-102907779D01*
X107269164Y-102894907D01*
X107259817Y-102883140D01*
X107258592Y-102881784D01*
X107249274Y-102870439D01*
X107240262Y-102857582D01*
X107239712Y-102856705D01*
X107231728Y-102844929D01*
X107223854Y-102834927D01*
X107223030Y-102834017D01*
X107216064Y-102825610D01*
X107207037Y-102813580D01*
X107202031Y-102806500D01*
X107192697Y-102793482D01*
X107183686Y-102781736D01*
X107179981Y-102777277D01*
X107173769Y-102769248D01*
X107171070Y-102763897D01*
X107171067Y-102763801D01*
X107167508Y-102760634D01*
X107157969Y-102754903D01*
X107144158Y-102747594D01*
X107136142Y-102743635D01*
X107121537Y-102736584D01*
X107101088Y-102726710D01*
X107076575Y-102714874D01*
X107049777Y-102701934D01*
X107022474Y-102688750D01*
X107017200Y-102686204D01*
X106992731Y-102674413D01*
X106970956Y-102663970D01*
X106952984Y-102655401D01*
X106939921Y-102649234D01*
X106932875Y-102645995D01*
X106931963Y-102645633D01*
X106927964Y-102643876D01*
X106917484Y-102638963D01*
X106901660Y-102631438D01*
X106881627Y-102621840D01*
X106858522Y-102610712D01*
X106850879Y-102607019D01*
X106823521Y-102593809D01*
X106795560Y-102580338D01*
X106769055Y-102567597D01*
X106746062Y-102556573D01*
X106728684Y-102548278D01*
X106706231Y-102537603D01*
X106680060Y-102525161D01*
X106654099Y-102512820D01*
X106639784Y-102506015D01*
X106617236Y-102495259D01*
X106590456Y-102482428D01*
X106562827Y-102469145D01*
X106538184Y-102457252D01*
X106491314Y-102434605D01*
X106444520Y-102412050D01*
X106399617Y-102390459D01*
X106358422Y-102370706D01*
X106322750Y-102353665D01*
X106318050Y-102351426D01*
X106295035Y-102340449D01*
X106267963Y-102327511D01*
X106240408Y-102314319D01*
X106218567Y-102303844D01*
X106195105Y-102292603D01*
X106170473Y-102280843D01*
X106147618Y-102269968D01*
X106129667Y-102261468D01*
X106042470Y-102220076D01*
X105954968Y-102177955D01*
X105932618Y-102167108D01*
X105908056Y-102155223D01*
X105883727Y-102143545D01*
X105861641Y-102133032D01*
X105843806Y-102124642D01*
X105835251Y-102120692D01*
X105802296Y-102105328D01*
X105774585Y-102091660D01*
X105752796Y-102080047D01*
X105737607Y-102070848D01*
X105730171Y-102064964D01*
X105722892Y-102055584D01*
X105714943Y-102043161D01*
X105713144Y-102039984D01*
X105705232Y-102026096D01*
X105695248Y-102009351D01*
X105684280Y-101991481D01*
X105673415Y-101974217D01*
X105663740Y-101959290D01*
X105656343Y-101948429D01*
X105652626Y-101943656D01*
X105647881Y-101937052D01*
X105647067Y-101934257D01*
X105644895Y-101929654D01*
X105638845Y-101919094D01*
X105629620Y-101903742D01*
X105617919Y-101884762D01*
X105604444Y-101863320D01*
X105603311Y-101861534D01*
X105583398Y-101830077D01*
X105566635Y-101803354D01*
X105551558Y-101778997D01*
X105536705Y-101754642D01*
X105520610Y-101727921D01*
X105518789Y-101724883D01*
X105513822Y-101717353D01*
X105511281Y-101714300D01*
X105507837Y-101709530D01*
X105502307Y-101700312D01*
X105500698Y-101697444D01*
X105494057Y-101686391D01*
X105488126Y-101678028D01*
X105487258Y-101677033D01*
X105482663Y-101669312D01*
X105481967Y-101665832D01*
X105478993Y-101658687D01*
X105475617Y-101655033D01*
X105471289Y-101648705D01*
X105469236Y-101640829D01*
X105470062Y-101634956D01*
X105472018Y-101633867D01*
X105476715Y-101635857D01*
G36*
X110972600Y-104618367D02*
G01*
X111133467Y-104618367D01*
X111133467Y-104732667D01*
X110837133Y-104732667D01*
X110837133Y-104224667D01*
X110972600Y-104224667D01*
X110972600Y-104618367D01*
G37*
X110972600Y-104618367D02*
X111133467Y-104618367D01*
X111133467Y-104732667D01*
X110837133Y-104732667D01*
X110837133Y-104224667D01*
X110972600Y-104224667D01*
X110972600Y-104618367D01*
G36*
X110422267Y-104732667D02*
G01*
X110286800Y-104732667D01*
X110286800Y-104224667D01*
X110422267Y-104224667D01*
X110422267Y-104732667D01*
G37*
X110422267Y-104732667D02*
X110286800Y-104732667D01*
X110286800Y-104224667D01*
X110422267Y-104224667D01*
X110422267Y-104732667D01*
G36*
X109875963Y-104224722D02*
G01*
X109895274Y-104224966D01*
X109908347Y-104225513D01*
X109916299Y-104226478D01*
X109920242Y-104227978D01*
X109921291Y-104230127D01*
X109920902Y-104232075D01*
X109918852Y-104237181D01*
X109913757Y-104249387D01*
X109905907Y-104268011D01*
X109895592Y-104292369D01*
X109883102Y-104321780D01*
X109868726Y-104355560D01*
X109852755Y-104393029D01*
X109835478Y-104433502D01*
X109817185Y-104476298D01*
X109813456Y-104485017D01*
X109708412Y-104730550D01*
X109598884Y-104732638D01*
X109495167Y-104485093D01*
X109477010Y-104441708D01*
X109459822Y-104400543D01*
X109443883Y-104362276D01*
X109429474Y-104327586D01*
X109416877Y-104297153D01*
X109406372Y-104271656D01*
X109398240Y-104251773D01*
X109392763Y-104238184D01*
X109390221Y-104231568D01*
X109390081Y-104231107D01*
X109390547Y-104228753D01*
X109393826Y-104227042D01*
X109401010Y-104225878D01*
X109413194Y-104225162D01*
X109431471Y-104224797D01*
X109456934Y-104224685D01*
X109462048Y-104224684D01*
X109535384Y-104224702D01*
X109594611Y-104374795D01*
X109607878Y-104408184D01*
X109620233Y-104438836D01*
X109631327Y-104465919D01*
X109640812Y-104488598D01*
X109648337Y-104506041D01*
X109653554Y-104517413D01*
X109656112Y-104521881D01*
X109656265Y-104521886D01*
X109658323Y-104517396D01*
X109663130Y-104505917D01*
X109670327Y-104488334D01*
X109679554Y-104465533D01*
X109690454Y-104438402D01*
X109702668Y-104407826D01*
X109715837Y-104374691D01*
X109716993Y-104371775D01*
X109775295Y-104224667D01*
X109849300Y-104224667D01*
X109875963Y-104224722D01*
G37*
X109875963Y-104224722D02*
X109895274Y-104224966D01*
X109908347Y-104225513D01*
X109916299Y-104226478D01*
X109920242Y-104227978D01*
X109921291Y-104230127D01*
X109920902Y-104232075D01*
X109918852Y-104237181D01*
X109913757Y-104249387D01*
X109905907Y-104268011D01*
X109895592Y-104292369D01*
X109883102Y-104321780D01*
X109868726Y-104355560D01*
X109852755Y-104393029D01*
X109835478Y-104433502D01*
X109817185Y-104476298D01*
X109813456Y-104485017D01*
X109708412Y-104730550D01*
X109598884Y-104732638D01*
X109495167Y-104485093D01*
X109477010Y-104441708D01*
X109459822Y-104400543D01*
X109443883Y-104362276D01*
X109429474Y-104327586D01*
X109416877Y-104297153D01*
X109406372Y-104271656D01*
X109398240Y-104251773D01*
X109392763Y-104238184D01*
X109390221Y-104231568D01*
X109390081Y-104231107D01*
X109390547Y-104228753D01*
X109393826Y-104227042D01*
X109401010Y-104225878D01*
X109413194Y-104225162D01*
X109431471Y-104224797D01*
X109456934Y-104224685D01*
X109462048Y-104224684D01*
X109535384Y-104224702D01*
X109594611Y-104374795D01*
X109607878Y-104408184D01*
X109620233Y-104438836D01*
X109631327Y-104465919D01*
X109640812Y-104488598D01*
X109648337Y-104506041D01*
X109653554Y-104517413D01*
X109656112Y-104521881D01*
X109656265Y-104521886D01*
X109658323Y-104517396D01*
X109663130Y-104505917D01*
X109670327Y-104488334D01*
X109679554Y-104465533D01*
X109690454Y-104438402D01*
X109702668Y-104407826D01*
X109715837Y-104374691D01*
X109716993Y-104371775D01*
X109775295Y-104224667D01*
X109849300Y-104224667D01*
X109875963Y-104224722D01*
G36*
X109029500Y-104338967D02*
G01*
X108872867Y-104338967D01*
X108872867Y-104419400D01*
X109021034Y-104419400D01*
X109021034Y-104537933D01*
X108872867Y-104537933D01*
X108872867Y-104618367D01*
X109029500Y-104618367D01*
X109029500Y-104732667D01*
X108737400Y-104732667D01*
X108737400Y-104224667D01*
X109029500Y-104224667D01*
X109029500Y-104338967D01*
G37*
X109029500Y-104338967D02*
X108872867Y-104338967D01*
X108872867Y-104419400D01*
X109021034Y-104419400D01*
X109021034Y-104537933D01*
X108872867Y-104537933D01*
X108872867Y-104618367D01*
X109029500Y-104618367D01*
X109029500Y-104732667D01*
X108737400Y-104732667D01*
X108737400Y-104224667D01*
X109029500Y-104224667D01*
X109029500Y-104338967D01*
G36*
X108006092Y-104224740D02*
G01*
X108046365Y-104224953D01*
X108079467Y-104225659D01*
X108106690Y-104227047D01*
X108129325Y-104229306D01*
X108148662Y-104232626D01*
X108165992Y-104237196D01*
X108182606Y-104243206D01*
X108199796Y-104250846D01*
X108206707Y-104254197D01*
X108243329Y-104276728D01*
X108275918Y-104305696D01*
X108303357Y-104339734D01*
X108324524Y-104377480D01*
X108337230Y-104413271D01*
X108340367Y-104430208D01*
X108342626Y-104452096D01*
X108343668Y-104475438D01*
X108343700Y-104480003D01*
X108341283Y-104522715D01*
X108333552Y-104560048D01*
X108319793Y-104593732D01*
X108299288Y-104625500D01*
X108271321Y-104657082D01*
X108269813Y-104658590D01*
X108241885Y-104683894D01*
X108216455Y-104701697D01*
X108208234Y-104706139D01*
X108192766Y-104713521D01*
X108178496Y-104719401D01*
X108164197Y-104723949D01*
X108148640Y-104727332D01*
X108130597Y-104729718D01*
X108108842Y-104731276D01*
X108082145Y-104732174D01*
X108049279Y-104732581D01*
X108014727Y-104732667D01*
X107899200Y-104732667D01*
X107899200Y-104619428D01*
X108034667Y-104619428D01*
X108070602Y-104617542D01*
X108090910Y-104615937D01*
X108106508Y-104612997D01*
X108121143Y-104607765D01*
X108134972Y-104601136D01*
X108162313Y-104583093D01*
X108182712Y-104560347D01*
X108196270Y-104532724D01*
X108203087Y-104500050D01*
X108204000Y-104480783D01*
X108200452Y-104445659D01*
X108190044Y-104414508D01*
X108173133Y-104388044D01*
X108150076Y-104366980D01*
X108145683Y-104364059D01*
X108129665Y-104354966D01*
X108113692Y-104348637D01*
X108095112Y-104344298D01*
X108071275Y-104341174D01*
X108065359Y-104340600D01*
X108034667Y-104337751D01*
X108034667Y-104619428D01*
X107899200Y-104619428D01*
X107899200Y-104224667D01*
X108006092Y-104224740D01*
G37*
X108006092Y-104224740D02*
X108046365Y-104224953D01*
X108079467Y-104225659D01*
X108106690Y-104227047D01*
X108129325Y-104229306D01*
X108148662Y-104232626D01*
X108165992Y-104237196D01*
X108182606Y-104243206D01*
X108199796Y-104250846D01*
X108206707Y-104254197D01*
X108243329Y-104276728D01*
X108275918Y-104305696D01*
X108303357Y-104339734D01*
X108324524Y-104377480D01*
X108337230Y-104413271D01*
X108340367Y-104430208D01*
X108342626Y-104452096D01*
X108343668Y-104475438D01*
X108343700Y-104480003D01*
X108341283Y-104522715D01*
X108333552Y-104560048D01*
X108319793Y-104593732D01*
X108299288Y-104625500D01*
X108271321Y-104657082D01*
X108269813Y-104658590D01*
X108241885Y-104683894D01*
X108216455Y-104701697D01*
X108208234Y-104706139D01*
X108192766Y-104713521D01*
X108178496Y-104719401D01*
X108164197Y-104723949D01*
X108148640Y-104727332D01*
X108130597Y-104729718D01*
X108108842Y-104731276D01*
X108082145Y-104732174D01*
X108049279Y-104732581D01*
X108014727Y-104732667D01*
X107899200Y-104732667D01*
X107899200Y-104619428D01*
X108034667Y-104619428D01*
X108070602Y-104617542D01*
X108090910Y-104615937D01*
X108106508Y-104612997D01*
X108121143Y-104607765D01*
X108134972Y-104601136D01*
X108162313Y-104583093D01*
X108182712Y-104560347D01*
X108196270Y-104532724D01*
X108203087Y-104500050D01*
X108204000Y-104480783D01*
X108200452Y-104445659D01*
X108190044Y-104414508D01*
X108173133Y-104388044D01*
X108150076Y-104366980D01*
X108145683Y-104364059D01*
X108129665Y-104354966D01*
X108113692Y-104348637D01*
X108095112Y-104344298D01*
X108071275Y-104341174D01*
X108065359Y-104340600D01*
X108034667Y-104337751D01*
X108034667Y-104619428D01*
X107899200Y-104619428D01*
X107899200Y-104224667D01*
X108006092Y-104224740D01*
G36*
X106661146Y-104376792D02*
G01*
X106779484Y-104528918D01*
X106780595Y-104376792D01*
X106781706Y-104224667D01*
X106917067Y-104224667D01*
X106917067Y-104732667D01*
X106778756Y-104732667D01*
X106662703Y-104582988D01*
X106546650Y-104433310D01*
X106545538Y-104582988D01*
X106544427Y-104732667D01*
X106409067Y-104732667D01*
X106409067Y-104224667D01*
X106542809Y-104224667D01*
X106661146Y-104376792D01*
G37*
X106661146Y-104376792D02*
X106779484Y-104528918D01*
X106780595Y-104376792D01*
X106781706Y-104224667D01*
X106917067Y-104224667D01*
X106917067Y-104732667D01*
X106778756Y-104732667D01*
X106662703Y-104582988D01*
X106546650Y-104433310D01*
X106545538Y-104582988D01*
X106544427Y-104732667D01*
X106409067Y-104732667D01*
X106409067Y-104224667D01*
X106542809Y-104224667D01*
X106661146Y-104376792D01*
G36*
X105686004Y-104395183D02*
G01*
X105687283Y-104565699D01*
X105697971Y-104586455D01*
X105712069Y-104606161D01*
X105730863Y-104619175D01*
X105754854Y-104625771D01*
X105771558Y-104626764D01*
X105792138Y-104625201D01*
X105808406Y-104620089D01*
X105813885Y-104617239D01*
X105823982Y-104610887D01*
X105832446Y-104603857D01*
X105839419Y-104595379D01*
X105845044Y-104584686D01*
X105849465Y-104571011D01*
X105852822Y-104553585D01*
X105855259Y-104531641D01*
X105856918Y-104504410D01*
X105857942Y-104471126D01*
X105858474Y-104431020D01*
X105858654Y-104383325D01*
X105858660Y-104376008D01*
X105858734Y-104224667D01*
X105994200Y-104224667D01*
X105994165Y-104382358D01*
X105994026Y-104433298D01*
X105993596Y-104476600D01*
X105992818Y-104513087D01*
X105991638Y-104543587D01*
X105989999Y-104568922D01*
X105987846Y-104589919D01*
X105985123Y-104607401D01*
X105981773Y-104622195D01*
X105977743Y-104635124D01*
X105976928Y-104637349D01*
X105962404Y-104664780D01*
X105940862Y-104689869D01*
X105913663Y-104711505D01*
X105882167Y-104728577D01*
X105852899Y-104738704D01*
X105832219Y-104742663D01*
X105806257Y-104745572D01*
X105778154Y-104747263D01*
X105751049Y-104747564D01*
X105728082Y-104746308D01*
X105723267Y-104745717D01*
X105680614Y-104736379D01*
X105643288Y-104721381D01*
X105611754Y-104701032D01*
X105586478Y-104675637D01*
X105567928Y-104645502D01*
X105566803Y-104643019D01*
X105562795Y-104632950D01*
X105559452Y-104621900D01*
X105556716Y-104609040D01*
X105554530Y-104593542D01*
X105552836Y-104574575D01*
X105551577Y-104551313D01*
X105550694Y-104522924D01*
X105550131Y-104488581D01*
X105549830Y-104447455D01*
X105549732Y-104398716D01*
X105549732Y-104397175D01*
X105549700Y-104224667D01*
X105684724Y-104224667D01*
X105686004Y-104395183D01*
G37*
X105686004Y-104395183D02*
X105687283Y-104565699D01*
X105697971Y-104586455D01*
X105712069Y-104606161D01*
X105730863Y-104619175D01*
X105754854Y-104625771D01*
X105771558Y-104626764D01*
X105792138Y-104625201D01*
X105808406Y-104620089D01*
X105813885Y-104617239D01*
X105823982Y-104610887D01*
X105832446Y-104603857D01*
X105839419Y-104595379D01*
X105845044Y-104584686D01*
X105849465Y-104571011D01*
X105852822Y-104553585D01*
X105855259Y-104531641D01*
X105856918Y-104504410D01*
X105857942Y-104471126D01*
X105858474Y-104431020D01*
X105858654Y-104383325D01*
X105858660Y-104376008D01*
X105858734Y-104224667D01*
X105994200Y-104224667D01*
X105994165Y-104382358D01*
X105994026Y-104433298D01*
X105993596Y-104476600D01*
X105992818Y-104513087D01*
X105991638Y-104543587D01*
X105989999Y-104568922D01*
X105987846Y-104589919D01*
X105985123Y-104607401D01*
X105981773Y-104622195D01*
X105977743Y-104635124D01*
X105976928Y-104637349D01*
X105962404Y-104664780D01*
X105940862Y-104689869D01*
X105913663Y-104711505D01*
X105882167Y-104728577D01*
X105852899Y-104738704D01*
X105832219Y-104742663D01*
X105806257Y-104745572D01*
X105778154Y-104747263D01*
X105751049Y-104747564D01*
X105728082Y-104746308D01*
X105723267Y-104745717D01*
X105680614Y-104736379D01*
X105643288Y-104721381D01*
X105611754Y-104701032D01*
X105586478Y-104675637D01*
X105567928Y-104645502D01*
X105566803Y-104643019D01*
X105562795Y-104632950D01*
X105559452Y-104621900D01*
X105556716Y-104609040D01*
X105554530Y-104593542D01*
X105552836Y-104574575D01*
X105551577Y-104551313D01*
X105550694Y-104522924D01*
X105550131Y-104488581D01*
X105549830Y-104447455D01*
X105549732Y-104398716D01*
X105549732Y-104397175D01*
X105549700Y-104224667D01*
X105684724Y-104224667D01*
X105686004Y-104395183D01*
G36*
X105008553Y-104215127D02*
G01*
X105035049Y-104217813D01*
X105056517Y-104222225D01*
X105078196Y-104228652D01*
X105098343Y-104235826D01*
X105115430Y-104243077D01*
X105127932Y-104249734D01*
X105134323Y-104255127D01*
X105134834Y-104256620D01*
X105132951Y-104262238D01*
X105127804Y-104273728D01*
X105120139Y-104289506D01*
X105110707Y-104307990D01*
X105108980Y-104311289D01*
X105083126Y-104360512D01*
X105071938Y-104353073D01*
X105043843Y-104337512D01*
X105016946Y-104328655D01*
X104992154Y-104326604D01*
X104970377Y-104331461D01*
X104956152Y-104340042D01*
X104947349Y-104350019D01*
X104942003Y-104360912D01*
X104941942Y-104361163D01*
X104941385Y-104369789D01*
X104945241Y-104377888D01*
X104953414Y-104386994D01*
X104962314Y-104394411D01*
X104974132Y-104401186D01*
X104990584Y-104408137D01*
X105013385Y-104416083D01*
X105016307Y-104417038D01*
X105049041Y-104428379D01*
X105074972Y-104439096D01*
X105095648Y-104449984D01*
X105112614Y-104461836D01*
X105124614Y-104472602D01*
X105139262Y-104490601D01*
X105148996Y-104511426D01*
X105154373Y-104536755D01*
X105155950Y-104567262D01*
X105152861Y-104608705D01*
X105143592Y-104644440D01*
X105127951Y-104674743D01*
X105105750Y-104699890D01*
X105076798Y-104720154D01*
X105040906Y-104735812D01*
X105039279Y-104736361D01*
X105016546Y-104741942D01*
X104988776Y-104745754D01*
X104959259Y-104747561D01*
X104931282Y-104747128D01*
X104914148Y-104745329D01*
X104896600Y-104741773D01*
X104876445Y-104736566D01*
X104863348Y-104732560D01*
X104848243Y-104726817D01*
X104831069Y-104719220D01*
X104813821Y-104710788D01*
X104798492Y-104702541D01*
X104787075Y-104695497D01*
X104781630Y-104690786D01*
X104782917Y-104686415D01*
X104787349Y-104676220D01*
X104794100Y-104661852D01*
X104802342Y-104644964D01*
X104811250Y-104627208D01*
X104819996Y-104610237D01*
X104827754Y-104595703D01*
X104833698Y-104585259D01*
X104836527Y-104581034D01*
X104840270Y-104582551D01*
X104848833Y-104587859D01*
X104858194Y-104594286D01*
X104883550Y-104610806D01*
X104905915Y-104621699D01*
X104927610Y-104627926D01*
X104944714Y-104630104D01*
X104964074Y-104630557D01*
X104978555Y-104628355D01*
X104988292Y-104624666D01*
X105003648Y-104613817D01*
X105012964Y-104599749D01*
X105015717Y-104584269D01*
X105011387Y-104569186D01*
X105006298Y-104562244D01*
X104998419Y-104554761D01*
X104989045Y-104548337D01*
X104976624Y-104542243D01*
X104959601Y-104535755D01*
X104936423Y-104528144D01*
X104927409Y-104525340D01*
X104893080Y-104513741D01*
X104865993Y-104502088D01*
X104844955Y-104489620D01*
X104828773Y-104475572D01*
X104816251Y-104459184D01*
X104811866Y-104451551D01*
X104807740Y-104442637D01*
X104805046Y-104433120D01*
X104803494Y-104420934D01*
X104802799Y-104404017D01*
X104802665Y-104385533D01*
X104802944Y-104362409D01*
X104803995Y-104345335D01*
X104806136Y-104331907D01*
X104809688Y-104319721D01*
X104812344Y-104312713D01*
X104829032Y-104282318D01*
X104852845Y-104256235D01*
X104883405Y-104234854D01*
X104892587Y-104230025D01*
X104906459Y-104223306D01*
X104917340Y-104218807D01*
X104927548Y-104216089D01*
X104939401Y-104214712D01*
X104955215Y-104214235D01*
X104975864Y-104214216D01*
X105008553Y-104215127D01*
G37*
X105008553Y-104215127D02*
X105035049Y-104217813D01*
X105056517Y-104222225D01*
X105078196Y-104228652D01*
X105098343Y-104235826D01*
X105115430Y-104243077D01*
X105127932Y-104249734D01*
X105134323Y-104255127D01*
X105134834Y-104256620D01*
X105132951Y-104262238D01*
X105127804Y-104273728D01*
X105120139Y-104289506D01*
X105110707Y-104307990D01*
X105108980Y-104311289D01*
X105083126Y-104360512D01*
X105071938Y-104353073D01*
X105043843Y-104337512D01*
X105016946Y-104328655D01*
X104992154Y-104326604D01*
X104970377Y-104331461D01*
X104956152Y-104340042D01*
X104947349Y-104350019D01*
X104942003Y-104360912D01*
X104941942Y-104361163D01*
X104941385Y-104369789D01*
X104945241Y-104377888D01*
X104953414Y-104386994D01*
X104962314Y-104394411D01*
X104974132Y-104401186D01*
X104990584Y-104408137D01*
X105013385Y-104416083D01*
X105016307Y-104417038D01*
X105049041Y-104428379D01*
X105074972Y-104439096D01*
X105095648Y-104449984D01*
X105112614Y-104461836D01*
X105124614Y-104472602D01*
X105139262Y-104490601D01*
X105148996Y-104511426D01*
X105154373Y-104536755D01*
X105155950Y-104567262D01*
X105152861Y-104608705D01*
X105143592Y-104644440D01*
X105127951Y-104674743D01*
X105105750Y-104699890D01*
X105076798Y-104720154D01*
X105040906Y-104735812D01*
X105039279Y-104736361D01*
X105016546Y-104741942D01*
X104988776Y-104745754D01*
X104959259Y-104747561D01*
X104931282Y-104747128D01*
X104914148Y-104745329D01*
X104896600Y-104741773D01*
X104876445Y-104736566D01*
X104863348Y-104732560D01*
X104848243Y-104726817D01*
X104831069Y-104719220D01*
X104813821Y-104710788D01*
X104798492Y-104702541D01*
X104787075Y-104695497D01*
X104781630Y-104690786D01*
X104782917Y-104686415D01*
X104787349Y-104676220D01*
X104794100Y-104661852D01*
X104802342Y-104644964D01*
X104811250Y-104627208D01*
X104819996Y-104610237D01*
X104827754Y-104595703D01*
X104833698Y-104585259D01*
X104836527Y-104581034D01*
X104840270Y-104582551D01*
X104848833Y-104587859D01*
X104858194Y-104594286D01*
X104883550Y-104610806D01*
X104905915Y-104621699D01*
X104927610Y-104627926D01*
X104944714Y-104630104D01*
X104964074Y-104630557D01*
X104978555Y-104628355D01*
X104988292Y-104624666D01*
X105003648Y-104613817D01*
X105012964Y-104599749D01*
X105015717Y-104584269D01*
X105011387Y-104569186D01*
X105006298Y-104562244D01*
X104998419Y-104554761D01*
X104989045Y-104548337D01*
X104976624Y-104542243D01*
X104959601Y-104535755D01*
X104936423Y-104528144D01*
X104927409Y-104525340D01*
X104893080Y-104513741D01*
X104865993Y-104502088D01*
X104844955Y-104489620D01*
X104828773Y-104475572D01*
X104816251Y-104459184D01*
X104811866Y-104451551D01*
X104807740Y-104442637D01*
X104805046Y-104433120D01*
X104803494Y-104420934D01*
X104802799Y-104404017D01*
X104802665Y-104385533D01*
X104802944Y-104362409D01*
X104803995Y-104345335D01*
X104806136Y-104331907D01*
X104809688Y-104319721D01*
X104812344Y-104312713D01*
X104829032Y-104282318D01*
X104852845Y-104256235D01*
X104883405Y-104234854D01*
X104892587Y-104230025D01*
X104906459Y-104223306D01*
X104917340Y-104218807D01*
X104927548Y-104216089D01*
X104939401Y-104214712D01*
X104955215Y-104214235D01*
X104975864Y-104214216D01*
X105008553Y-104215127D01*
G36*
X110827293Y-105016576D02*
G01*
X110832640Y-105018104D01*
X110837839Y-105022031D01*
X110843708Y-105029260D01*
X110851061Y-105040697D01*
X110860716Y-105057243D01*
X110873489Y-105079803D01*
X110880098Y-105091499D01*
X110892918Y-105113940D01*
X110902357Y-105129805D01*
X110909063Y-105139965D01*
X110913683Y-105145290D01*
X110916865Y-105146652D01*
X110919257Y-105144921D01*
X110919530Y-105144535D01*
X110923317Y-105138346D01*
X110930408Y-105126241D01*
X110939959Y-105109681D01*
X110951124Y-105090129D01*
X110957813Y-105078333D01*
X110969421Y-105058239D01*
X110979916Y-105040861D01*
X110988473Y-105027505D01*
X110994270Y-105019474D01*
X110996083Y-105017754D01*
X111003174Y-105016836D01*
X111015062Y-105016819D01*
X111020630Y-105017105D01*
X111040067Y-105018417D01*
X110987395Y-105109433D01*
X110934723Y-105200450D01*
X110934611Y-105269242D01*
X110934500Y-105338033D01*
X110896400Y-105338033D01*
X110896400Y-105202372D01*
X110843713Y-105110394D01*
X110791026Y-105018417D01*
X110812893Y-105017105D01*
X110820983Y-105016544D01*
X110827293Y-105016576D01*
G37*
X110827293Y-105016576D02*
X110832640Y-105018104D01*
X110837839Y-105022031D01*
X110843708Y-105029260D01*
X110851061Y-105040697D01*
X110860716Y-105057243D01*
X110873489Y-105079803D01*
X110880098Y-105091499D01*
X110892918Y-105113940D01*
X110902357Y-105129805D01*
X110909063Y-105139965D01*
X110913683Y-105145290D01*
X110916865Y-105146652D01*
X110919257Y-105144921D01*
X110919530Y-105144535D01*
X110923317Y-105138346D01*
X110930408Y-105126241D01*
X110939959Y-105109681D01*
X110951124Y-105090129D01*
X110957813Y-105078333D01*
X110969421Y-105058239D01*
X110979916Y-105040861D01*
X110988473Y-105027505D01*
X110994270Y-105019474D01*
X110996083Y-105017754D01*
X111003174Y-105016836D01*
X111015062Y-105016819D01*
X111020630Y-105017105D01*
X111040067Y-105018417D01*
X110987395Y-105109433D01*
X110934723Y-105200450D01*
X110934611Y-105269242D01*
X110934500Y-105338033D01*
X110896400Y-105338033D01*
X110896400Y-105202372D01*
X110843713Y-105110394D01*
X110791026Y-105018417D01*
X110812893Y-105017105D01*
X110820983Y-105016544D01*
X110827293Y-105016576D01*
G36*
X110059380Y-105016923D02*
G01*
X110082341Y-105017775D01*
X110098917Y-105019022D01*
X110111191Y-105021011D01*
X110121243Y-105024091D01*
X110131157Y-105028612D01*
X110132118Y-105029104D01*
X110151828Y-105043199D01*
X110164839Y-105061982D01*
X110171424Y-105085953D01*
X110172407Y-105102691D01*
X110169052Y-105131907D01*
X110159166Y-105155759D01*
X110142678Y-105174359D01*
X110119516Y-105187820D01*
X110116467Y-105189026D01*
X110097359Y-105196279D01*
X110145494Y-105263981D01*
X110160310Y-105284983D01*
X110173279Y-105303680D01*
X110183651Y-105318966D01*
X110190678Y-105329733D01*
X110193607Y-105334874D01*
X110193648Y-105335069D01*
X110189836Y-105336697D01*
X110179955Y-105337402D01*
X110169733Y-105337186D01*
X110145799Y-105335917D01*
X110098824Y-105267283D01*
X110084237Y-105246187D01*
X110071170Y-105227701D01*
X110060400Y-105212891D01*
X110052704Y-105202823D01*
X110048859Y-105198563D01*
X110048675Y-105198491D01*
X110047619Y-105202437D01*
X110046711Y-105213459D01*
X110046016Y-105230164D01*
X110045596Y-105251163D01*
X110045500Y-105268183D01*
X110045500Y-105338033D01*
X110007400Y-105338033D01*
X110007400Y-105160233D01*
X110045500Y-105160233D01*
X110067725Y-105160227D01*
X110085130Y-105158610D01*
X110100972Y-105154462D01*
X110104767Y-105152818D01*
X110120309Y-105140634D01*
X110130065Y-105123636D01*
X110132843Y-105104122D01*
X110132383Y-105099610D01*
X110127811Y-105081496D01*
X110119520Y-105068556D01*
X110106233Y-105059798D01*
X110086677Y-105054228D01*
X110071249Y-105051986D01*
X110045500Y-105049073D01*
X110045500Y-105160233D01*
X110007400Y-105160233D01*
X110007400Y-105015429D01*
X110059380Y-105016923D01*
G37*
X110059380Y-105016923D02*
X110082341Y-105017775D01*
X110098917Y-105019022D01*
X110111191Y-105021011D01*
X110121243Y-105024091D01*
X110131157Y-105028612D01*
X110132118Y-105029104D01*
X110151828Y-105043199D01*
X110164839Y-105061982D01*
X110171424Y-105085953D01*
X110172407Y-105102691D01*
X110169052Y-105131907D01*
X110159166Y-105155759D01*
X110142678Y-105174359D01*
X110119516Y-105187820D01*
X110116467Y-105189026D01*
X110097359Y-105196279D01*
X110145494Y-105263981D01*
X110160310Y-105284983D01*
X110173279Y-105303680D01*
X110183651Y-105318966D01*
X110190678Y-105329733D01*
X110193607Y-105334874D01*
X110193648Y-105335069D01*
X110189836Y-105336697D01*
X110179955Y-105337402D01*
X110169733Y-105337186D01*
X110145799Y-105335917D01*
X110098824Y-105267283D01*
X110084237Y-105246187D01*
X110071170Y-105227701D01*
X110060400Y-105212891D01*
X110052704Y-105202823D01*
X110048859Y-105198563D01*
X110048675Y-105198491D01*
X110047619Y-105202437D01*
X110046711Y-105213459D01*
X110046016Y-105230164D01*
X110045596Y-105251163D01*
X110045500Y-105268183D01*
X110045500Y-105338033D01*
X110007400Y-105338033D01*
X110007400Y-105160233D01*
X110045500Y-105160233D01*
X110067725Y-105160227D01*
X110085130Y-105158610D01*
X110100972Y-105154462D01*
X110104767Y-105152818D01*
X110120309Y-105140634D01*
X110130065Y-105123636D01*
X110132843Y-105104122D01*
X110132383Y-105099610D01*
X110127811Y-105081496D01*
X110119520Y-105068556D01*
X110106233Y-105059798D01*
X110086677Y-105054228D01*
X110071249Y-105051986D01*
X110045500Y-105049073D01*
X110045500Y-105160233D01*
X110007400Y-105160233D01*
X110007400Y-105015429D01*
X110059380Y-105016923D01*
G36*
X109380867Y-105050167D02*
G01*
X109304667Y-105050167D01*
X109304667Y-105338033D01*
X109262334Y-105338033D01*
X109262334Y-105050167D01*
X109186134Y-105050167D01*
X109186134Y-105016300D01*
X109380867Y-105016300D01*
X109380867Y-105050167D01*
G37*
X109380867Y-105050167D02*
X109304667Y-105050167D01*
X109304667Y-105338033D01*
X109262334Y-105338033D01*
X109262334Y-105050167D01*
X109186134Y-105050167D01*
X109186134Y-105016300D01*
X109380867Y-105016300D01*
X109380867Y-105050167D01*
G36*
X108563834Y-105050167D02*
G01*
X108436834Y-105050167D01*
X108436834Y-105143300D01*
X108559600Y-105143300D01*
X108559600Y-105181400D01*
X108436834Y-105181400D01*
X108436834Y-105299933D01*
X108563834Y-105299933D01*
X108563834Y-105338033D01*
X108394500Y-105338033D01*
X108394500Y-105016300D01*
X108563834Y-105016300D01*
X108563834Y-105050167D01*
G37*
X108563834Y-105050167D02*
X108436834Y-105050167D01*
X108436834Y-105143300D01*
X108559600Y-105143300D01*
X108559600Y-105181400D01*
X108436834Y-105181400D01*
X108436834Y-105299933D01*
X108563834Y-105299933D01*
X108563834Y-105338033D01*
X108394500Y-105338033D01*
X108394500Y-105016300D01*
X108563834Y-105016300D01*
X108563834Y-105050167D01*
G36*
X107585933Y-105145314D02*
G01*
X107715149Y-105016300D01*
X107769995Y-105016300D01*
X107695272Y-105091442D01*
X107620549Y-105166583D01*
X107696249Y-105249133D01*
X107716440Y-105271261D01*
X107734611Y-105291387D01*
X107750011Y-105308662D01*
X107761889Y-105322237D01*
X107769493Y-105331262D01*
X107772075Y-105334858D01*
X107768290Y-105336495D01*
X107758293Y-105337621D01*
X107745742Y-105337979D01*
X107719283Y-105337925D01*
X107655783Y-105266110D01*
X107637410Y-105245478D01*
X107620843Y-105227155D01*
X107606915Y-105212040D01*
X107596462Y-105201034D01*
X107590318Y-105195037D01*
X107589108Y-105194197D01*
X107588067Y-105198168D01*
X107587169Y-105209233D01*
X107586475Y-105226021D01*
X107586045Y-105247158D01*
X107585933Y-105266067D01*
X107585933Y-105338033D01*
X107543600Y-105338033D01*
X107543600Y-105016300D01*
X107585933Y-105016300D01*
X107585933Y-105145314D01*
G37*
X107585933Y-105145314D02*
X107715149Y-105016300D01*
X107769995Y-105016300D01*
X107695272Y-105091442D01*
X107620549Y-105166583D01*
X107696249Y-105249133D01*
X107716440Y-105271261D01*
X107734611Y-105291387D01*
X107750011Y-105308662D01*
X107761889Y-105322237D01*
X107769493Y-105331262D01*
X107772075Y-105334858D01*
X107768290Y-105336495D01*
X107758293Y-105337621D01*
X107745742Y-105337979D01*
X107719283Y-105337925D01*
X107655783Y-105266110D01*
X107637410Y-105245478D01*
X107620843Y-105227155D01*
X107606915Y-105212040D01*
X107596462Y-105201034D01*
X107590318Y-105195037D01*
X107589108Y-105194197D01*
X107588067Y-105198168D01*
X107587169Y-105209233D01*
X107586475Y-105226021D01*
X107586045Y-105247158D01*
X107585933Y-105266067D01*
X107585933Y-105338033D01*
X107543600Y-105338033D01*
X107543600Y-105016300D01*
X107585933Y-105016300D01*
X107585933Y-105145314D01*
G36*
X104950299Y-105017951D02*
G01*
X104978860Y-105023137D01*
X105000868Y-105032205D01*
X105016970Y-105045501D01*
X105027811Y-105063375D01*
X105032866Y-105079929D01*
X105035376Y-105108043D01*
X105031060Y-105134214D01*
X105020590Y-105157185D01*
X105004637Y-105175698D01*
X104983875Y-105188495D01*
X104972909Y-105192112D01*
X104964519Y-105194817D01*
X104961267Y-105196999D01*
X104963609Y-105200905D01*
X104970125Y-105210578D01*
X104980045Y-105224908D01*
X104992604Y-105242787D01*
X105007031Y-105263106D01*
X105007110Y-105263215D01*
X105021793Y-105283838D01*
X105034865Y-105302294D01*
X105045492Y-105317395D01*
X105052839Y-105327955D01*
X105056043Y-105332742D01*
X105055680Y-105335827D01*
X105049283Y-105337496D01*
X105035698Y-105338031D01*
X105034386Y-105338033D01*
X105009639Y-105338033D01*
X104961522Y-105268183D01*
X104946702Y-105246918D01*
X104933374Y-105228261D01*
X104922314Y-105213264D01*
X104914302Y-105202979D01*
X104910115Y-105198455D01*
X104909819Y-105198333D01*
X104908626Y-105202334D01*
X104907601Y-105213405D01*
X104906816Y-105230153D01*
X104906342Y-105251181D01*
X104906234Y-105268183D01*
X104906234Y-105338033D01*
X104868134Y-105338033D01*
X104868134Y-105160233D01*
X104906234Y-105160233D01*
X104927314Y-105160233D01*
X104944132Y-105158739D01*
X104960871Y-105154998D01*
X104965577Y-105153358D01*
X104981360Y-105143167D01*
X104991284Y-105128793D01*
X104995506Y-105112010D01*
X104994185Y-105094590D01*
X104987479Y-105078309D01*
X104975544Y-105064939D01*
X104958539Y-105056255D01*
X104956901Y-105055799D01*
X104941126Y-105052556D01*
X104925485Y-105050663D01*
X104922109Y-105050507D01*
X104906234Y-105050167D01*
X104906234Y-105160233D01*
X104868134Y-105160233D01*
X104868134Y-105016300D01*
X104914541Y-105016300D01*
X104950299Y-105017951D01*
G37*
X104950299Y-105017951D02*
X104978860Y-105023137D01*
X105000868Y-105032205D01*
X105016970Y-105045501D01*
X105027811Y-105063375D01*
X105032866Y-105079929D01*
X105035376Y-105108043D01*
X105031060Y-105134214D01*
X105020590Y-105157185D01*
X105004637Y-105175698D01*
X104983875Y-105188495D01*
X104972909Y-105192112D01*
X104964519Y-105194817D01*
X104961267Y-105196999D01*
X104963609Y-105200905D01*
X104970125Y-105210578D01*
X104980045Y-105224908D01*
X104992604Y-105242787D01*
X105007031Y-105263106D01*
X105007110Y-105263215D01*
X105021793Y-105283838D01*
X105034865Y-105302294D01*
X105045492Y-105317395D01*
X105052839Y-105327955D01*
X105056043Y-105332742D01*
X105055680Y-105335827D01*
X105049283Y-105337496D01*
X105035698Y-105338031D01*
X105034386Y-105338033D01*
X105009639Y-105338033D01*
X104961522Y-105268183D01*
X104946702Y-105246918D01*
X104933374Y-105228261D01*
X104922314Y-105213264D01*
X104914302Y-105202979D01*
X104910115Y-105198455D01*
X104909819Y-105198333D01*
X104908626Y-105202334D01*
X104907601Y-105213405D01*
X104906816Y-105230153D01*
X104906342Y-105251181D01*
X104906234Y-105268183D01*
X104906234Y-105338033D01*
X104868134Y-105338033D01*
X104868134Y-105160233D01*
X104906234Y-105160233D01*
X104927314Y-105160233D01*
X104944132Y-105158739D01*
X104960871Y-105154998D01*
X104965577Y-105153358D01*
X104981360Y-105143167D01*
X104991284Y-105128793D01*
X104995506Y-105112010D01*
X104994185Y-105094590D01*
X104987479Y-105078309D01*
X104975544Y-105064939D01*
X104958539Y-105056255D01*
X104956901Y-105055799D01*
X104941126Y-105052556D01*
X104925485Y-105050663D01*
X104922109Y-105050507D01*
X104906234Y-105050167D01*
X104906234Y-105160233D01*
X104868134Y-105160233D01*
X104868134Y-105016300D01*
X104914541Y-105016300D01*
X104950299Y-105017951D01*
G36*
X106820767Y-105010563D02*
G01*
X106835070Y-105011993D01*
X106847201Y-105015102D01*
X106860305Y-105020553D01*
X106867825Y-105024176D01*
X106895900Y-105037997D01*
X106895900Y-105063132D01*
X106895330Y-105078612D01*
X106893225Y-105086306D01*
X106888998Y-105086840D01*
X106882060Y-105080842D01*
X106880681Y-105079342D01*
X106865992Y-105067576D01*
X106845845Y-105057385D01*
X106823243Y-105050050D01*
X106804966Y-105047064D01*
X106774970Y-105048822D01*
X106746341Y-105058239D01*
X106720365Y-105074507D01*
X106698330Y-105096818D01*
X106681520Y-105124365D01*
X106681389Y-105124649D01*
X106675655Y-105138615D01*
X106672659Y-105151018D01*
X106671821Y-105165424D01*
X106672308Y-105180616D01*
X106675170Y-105206706D01*
X106681612Y-105227910D01*
X106692908Y-105247488D01*
X106703910Y-105261418D01*
X106725508Y-105282070D01*
X106749372Y-105295359D01*
X106777395Y-105302222D01*
X106788439Y-105303274D01*
X106816887Y-105302874D01*
X106841398Y-105297038D01*
X106864943Y-105284856D01*
X106877325Y-105276068D01*
X106896311Y-105261576D01*
X106895047Y-105288045D01*
X106893784Y-105314514D01*
X106869030Y-105327154D01*
X106855306Y-105333558D01*
X106842799Y-105337532D01*
X106828440Y-105339746D01*
X106809164Y-105340867D01*
X106805530Y-105340986D01*
X106781062Y-105340870D01*
X106760985Y-105339048D01*
X106749850Y-105336569D01*
X106713952Y-105320554D01*
X106683480Y-105298244D01*
X106658886Y-105270032D01*
X106644416Y-105244912D01*
X106637913Y-105230103D01*
X106634004Y-105217484D01*
X106632048Y-105203827D01*
X106631404Y-105185904D01*
X106631370Y-105179283D01*
X106634487Y-105141056D01*
X106644247Y-105107694D01*
X106661088Y-105078298D01*
X106685451Y-105051971D01*
X106699151Y-105040759D01*
X106721893Y-105025972D01*
X106745150Y-105016447D01*
X106771434Y-105011430D01*
X106801150Y-105010152D01*
X106820767Y-105010563D01*
G37*
X106820767Y-105010563D02*
X106835070Y-105011993D01*
X106847201Y-105015102D01*
X106860305Y-105020553D01*
X106867825Y-105024176D01*
X106895900Y-105037997D01*
X106895900Y-105063132D01*
X106895330Y-105078612D01*
X106893225Y-105086306D01*
X106888998Y-105086840D01*
X106882060Y-105080842D01*
X106880681Y-105079342D01*
X106865992Y-105067576D01*
X106845845Y-105057385D01*
X106823243Y-105050050D01*
X106804966Y-105047064D01*
X106774970Y-105048822D01*
X106746341Y-105058239D01*
X106720365Y-105074507D01*
X106698330Y-105096818D01*
X106681520Y-105124365D01*
X106681389Y-105124649D01*
X106675655Y-105138615D01*
X106672659Y-105151018D01*
X106671821Y-105165424D01*
X106672308Y-105180616D01*
X106675170Y-105206706D01*
X106681612Y-105227910D01*
X106692908Y-105247488D01*
X106703910Y-105261418D01*
X106725508Y-105282070D01*
X106749372Y-105295359D01*
X106777395Y-105302222D01*
X106788439Y-105303274D01*
X106816887Y-105302874D01*
X106841398Y-105297038D01*
X106864943Y-105284856D01*
X106877325Y-105276068D01*
X106896311Y-105261576D01*
X106895047Y-105288045D01*
X106893784Y-105314514D01*
X106869030Y-105327154D01*
X106855306Y-105333558D01*
X106842799Y-105337532D01*
X106828440Y-105339746D01*
X106809164Y-105340867D01*
X106805530Y-105340986D01*
X106781062Y-105340870D01*
X106760985Y-105339048D01*
X106749850Y-105336569D01*
X106713952Y-105320554D01*
X106683480Y-105298244D01*
X106658886Y-105270032D01*
X106644416Y-105244912D01*
X106637913Y-105230103D01*
X106634004Y-105217484D01*
X106632048Y-105203827D01*
X106631404Y-105185904D01*
X106631370Y-105179283D01*
X106634487Y-105141056D01*
X106644247Y-105107694D01*
X106661088Y-105078298D01*
X106685451Y-105051971D01*
X106699151Y-105040759D01*
X106721893Y-105025972D01*
X106745150Y-105016447D01*
X106771434Y-105011430D01*
X106801150Y-105010152D01*
X106820767Y-105010563D01*
G36*
X105864698Y-105010937D02*
G01*
X105882262Y-105012957D01*
X105897575Y-105016840D01*
X105906505Y-105020076D01*
X105932821Y-105034241D01*
X105957987Y-105054754D01*
X105979838Y-105079558D01*
X105995184Y-105104454D01*
X106001458Y-105117780D01*
X106005476Y-105128736D01*
X106007729Y-105139930D01*
X106008709Y-105153972D01*
X106008911Y-105173471D01*
X106008904Y-105177092D01*
X106008635Y-105197999D01*
X106007648Y-105213011D01*
X106005486Y-105224696D01*
X106001693Y-105235623D01*
X105996464Y-105247017D01*
X105979017Y-105274762D01*
X105955647Y-105300029D01*
X105928790Y-105320385D01*
X105915884Y-105327456D01*
X105901743Y-105333611D01*
X105888599Y-105337474D01*
X105873421Y-105339666D01*
X105853178Y-105340809D01*
X105850267Y-105340905D01*
X105822818Y-105340775D01*
X105801413Y-105338575D01*
X105792211Y-105336359D01*
X105758461Y-105320958D01*
X105727803Y-105297719D01*
X105717530Y-105287451D01*
X105696120Y-105258845D01*
X105682054Y-105227550D01*
X105675102Y-105194659D01*
X105675047Y-105168273D01*
X105715623Y-105168273D01*
X105717646Y-105200390D01*
X105727203Y-105230177D01*
X105743875Y-105256648D01*
X105767247Y-105278820D01*
X105787847Y-105291496D01*
X105801984Y-105298255D01*
X105813248Y-105302091D01*
X105824960Y-105303643D01*
X105840441Y-105303552D01*
X105848540Y-105303193D01*
X105868656Y-105301599D01*
X105883440Y-105298642D01*
X105896007Y-105293573D01*
X105901811Y-105290378D01*
X105925152Y-105272882D01*
X105945801Y-105250286D01*
X105960991Y-105225649D01*
X105961632Y-105224251D01*
X105969117Y-105198488D01*
X105970642Y-105169811D01*
X105966288Y-105141239D01*
X105958777Y-105120782D01*
X105940891Y-105093141D01*
X105917811Y-105071465D01*
X105890712Y-105056284D01*
X105860767Y-105048124D01*
X105829153Y-105047513D01*
X105805851Y-105052091D01*
X105783398Y-105062182D01*
X105761456Y-105078277D01*
X105742147Y-105098290D01*
X105727593Y-105120141D01*
X105721549Y-105134811D01*
X105715623Y-105168273D01*
X105675047Y-105168273D01*
X105675032Y-105161269D01*
X105681616Y-105128472D01*
X105694622Y-105097364D01*
X105713821Y-105069040D01*
X105738981Y-105044593D01*
X105769874Y-105025118D01*
X105773048Y-105023590D01*
X105787630Y-105017134D01*
X105799759Y-105013167D01*
X105812452Y-105011105D01*
X105828731Y-105010365D01*
X105841800Y-105010314D01*
X105864698Y-105010937D01*
G37*
X105864698Y-105010937D02*
X105882262Y-105012957D01*
X105897575Y-105016840D01*
X105906505Y-105020076D01*
X105932821Y-105034241D01*
X105957987Y-105054754D01*
X105979838Y-105079558D01*
X105995184Y-105104454D01*
X106001458Y-105117780D01*
X106005476Y-105128736D01*
X106007729Y-105139930D01*
X106008709Y-105153972D01*
X106008911Y-105173471D01*
X106008904Y-105177092D01*
X106008635Y-105197999D01*
X106007648Y-105213011D01*
X106005486Y-105224696D01*
X106001693Y-105235623D01*
X105996464Y-105247017D01*
X105979017Y-105274762D01*
X105955647Y-105300029D01*
X105928790Y-105320385D01*
X105915884Y-105327456D01*
X105901743Y-105333611D01*
X105888599Y-105337474D01*
X105873421Y-105339666D01*
X105853178Y-105340809D01*
X105850267Y-105340905D01*
X105822818Y-105340775D01*
X105801413Y-105338575D01*
X105792211Y-105336359D01*
X105758461Y-105320958D01*
X105727803Y-105297719D01*
X105717530Y-105287451D01*
X105696120Y-105258845D01*
X105682054Y-105227550D01*
X105675102Y-105194659D01*
X105675047Y-105168273D01*
X105715623Y-105168273D01*
X105717646Y-105200390D01*
X105727203Y-105230177D01*
X105743875Y-105256648D01*
X105767247Y-105278820D01*
X105787847Y-105291496D01*
X105801984Y-105298255D01*
X105813248Y-105302091D01*
X105824960Y-105303643D01*
X105840441Y-105303552D01*
X105848540Y-105303193D01*
X105868656Y-105301599D01*
X105883440Y-105298642D01*
X105896007Y-105293573D01*
X105901811Y-105290378D01*
X105925152Y-105272882D01*
X105945801Y-105250286D01*
X105960991Y-105225649D01*
X105961632Y-105224251D01*
X105969117Y-105198488D01*
X105970642Y-105169811D01*
X105966288Y-105141239D01*
X105958777Y-105120782D01*
X105940891Y-105093141D01*
X105917811Y-105071465D01*
X105890712Y-105056284D01*
X105860767Y-105048124D01*
X105829153Y-105047513D01*
X105805851Y-105052091D01*
X105783398Y-105062182D01*
X105761456Y-105078277D01*
X105742147Y-105098290D01*
X105727593Y-105120141D01*
X105721549Y-105134811D01*
X105715623Y-105168273D01*
X105675047Y-105168273D01*
X105675032Y-105161269D01*
X105681616Y-105128472D01*
X105694622Y-105097364D01*
X105713821Y-105069040D01*
X105738981Y-105044593D01*
X105769874Y-105025118D01*
X105773048Y-105023590D01*
X105787630Y-105017134D01*
X105799759Y-105013167D01*
X105812452Y-105011105D01*
X105828731Y-105010365D01*
X105841800Y-105010314D01*
X105864698Y-105010937D01*
D13*
%TO.C,P2*%
X109710000Y-132130000D02*
G75*
G03*
X109710000Y-132130000I-100000J0D01*
G01*
D12*
X110240000Y-130810000D02*
X110240000Y-133350000D01*
X110240000Y-133350000D02*
X120900000Y-133350000D01*
X120900000Y-133350000D02*
X120900000Y-130810000D01*
X120900000Y-130810000D02*
X110240000Y-130810000D01*
D13*
%TO.C,P1*%
X106730000Y-117230000D02*
G75*
G03*
X106730000Y-117230000I-100000J0D01*
G01*
D12*
X107950000Y-117860000D02*
X105410000Y-117860000D01*
X105410000Y-117860000D02*
X105410000Y-128520000D01*
X105410000Y-128520000D02*
X107950000Y-128520000D01*
X107950000Y-128520000D02*
X107950000Y-117860000D01*
D14*
%TO.C,U2*%
X119037100Y-129374900D02*
X123278900Y-129374900D01*
X123278900Y-124117100D02*
X119037100Y-124117100D01*
D16*
X120215800Y-124815600D02*
G75*
G03*
X120215800Y-124815600I-150000J0D01*
G01*
%TO.C,R3*%
D17*
X111848900Y-119828128D02*
X111518700Y-119356414D01*
X111282842Y-119828128D02*
X111282842Y-118837528D01*
X111660214Y-118837528D01*
X111754557Y-118884700D01*
X111801728Y-118931871D01*
X111848900Y-119026214D01*
X111848900Y-119167728D01*
X111801728Y-119262071D01*
X111754557Y-119309242D01*
X111660214Y-119356414D01*
X111282842Y-119356414D01*
X112179100Y-118837528D02*
X112792328Y-118837528D01*
X112462128Y-119214900D01*
X112603642Y-119214900D01*
X112697985Y-119262071D01*
X112745157Y-119309242D01*
X112792328Y-119403585D01*
X112792328Y-119639442D01*
X112745157Y-119733785D01*
X112697985Y-119780957D01*
X112603642Y-119828128D01*
X112320614Y-119828128D01*
X112226271Y-119780957D01*
X112179100Y-119733785D01*
%TO.C,R2*%
X125818900Y-132909128D02*
X125488700Y-132437414D01*
X125252842Y-132909128D02*
X125252842Y-131918528D01*
X125630214Y-131918528D01*
X125724557Y-131965700D01*
X125771728Y-132012871D01*
X125818900Y-132107214D01*
X125818900Y-132248728D01*
X125771728Y-132343071D01*
X125724557Y-132390242D01*
X125630214Y-132437414D01*
X125252842Y-132437414D01*
X126196271Y-132012871D02*
X126243442Y-131965700D01*
X126337785Y-131918528D01*
X126573642Y-131918528D01*
X126667985Y-131965700D01*
X126715157Y-132012871D01*
X126762328Y-132107214D01*
X126762328Y-132201557D01*
X126715157Y-132343071D01*
X126149100Y-132909128D01*
X126762328Y-132909128D01*
%TO.C,C2*%
X114642900Y-123035785D02*
X114595728Y-123082957D01*
X114454214Y-123130128D01*
X114359871Y-123130128D01*
X114218357Y-123082957D01*
X114124014Y-122988614D01*
X114076842Y-122894271D01*
X114029671Y-122705585D01*
X114029671Y-122564071D01*
X114076842Y-122375385D01*
X114124014Y-122281042D01*
X114218357Y-122186700D01*
X114359871Y-122139528D01*
X114454214Y-122139528D01*
X114595728Y-122186700D01*
X114642900Y-122233871D01*
X115020271Y-122233871D02*
X115067442Y-122186700D01*
X115161785Y-122139528D01*
X115397642Y-122139528D01*
X115491985Y-122186700D01*
X115539157Y-122233871D01*
X115586328Y-122328214D01*
X115586328Y-122422557D01*
X115539157Y-122564071D01*
X114973100Y-123130128D01*
X115586328Y-123130128D01*
%TO.C,R1*%
X124040900Y-120590128D02*
X123710700Y-120118414D01*
X123474842Y-120590128D02*
X123474842Y-119599528D01*
X123852214Y-119599528D01*
X123946557Y-119646700D01*
X123993728Y-119693871D01*
X124040900Y-119788214D01*
X124040900Y-119929728D01*
X123993728Y-120024071D01*
X123946557Y-120071242D01*
X123852214Y-120118414D01*
X123474842Y-120118414D01*
X124984328Y-120590128D02*
X124418271Y-120590128D01*
X124701300Y-120590128D02*
X124701300Y-119599528D01*
X124606957Y-119741042D01*
X124512614Y-119835385D01*
X124418271Y-119882557D01*
%TO.C,C1*%
X106514900Y-115161785D02*
X106467728Y-115208957D01*
X106326214Y-115256128D01*
X106231871Y-115256128D01*
X106090357Y-115208957D01*
X105996014Y-115114614D01*
X105948842Y-115020271D01*
X105901671Y-114831585D01*
X105901671Y-114690071D01*
X105948842Y-114501385D01*
X105996014Y-114407042D01*
X106090357Y-114312700D01*
X106231871Y-114265528D01*
X106326214Y-114265528D01*
X106467728Y-114312700D01*
X106514900Y-114359871D01*
X107458328Y-115256128D02*
X106892271Y-115256128D01*
X107175300Y-115256128D02*
X107175300Y-114265528D01*
X107080957Y-114407042D01*
X106986614Y-114501385D01*
X106892271Y-114548557D01*
%TO.C,U1*%
X109154980Y-110185104D02*
X109964504Y-110185104D01*
X110059742Y-110137485D01*
X110107361Y-110089866D01*
X110154980Y-109994628D01*
X110154980Y-109804152D01*
X110107361Y-109708914D01*
X110059742Y-109661295D01*
X109964504Y-109613676D01*
X109154980Y-109613676D01*
X110154980Y-108613676D02*
X110154980Y-109185104D01*
X110154980Y-108899390D02*
X109154980Y-108899390D01*
X109297838Y-108994628D01*
X109393076Y-109089866D01*
X109440695Y-109185104D01*
%TO.C,D1*%
D18*
X120673904Y-120594380D02*
X120673904Y-119594380D01*
X120912000Y-119594380D01*
X121054857Y-119642000D01*
X121150095Y-119737238D01*
X121197714Y-119832476D01*
X121245333Y-120022952D01*
X121245333Y-120165809D01*
X121197714Y-120356285D01*
X121150095Y-120451523D01*
X121054857Y-120546761D01*
X120912000Y-120594380D01*
X120673904Y-120594380D01*
X122197714Y-120594380D02*
X121626285Y-120594380D01*
X121912000Y-120594380D02*
X121912000Y-119594380D01*
X121816761Y-119737238D01*
X121721523Y-119832476D01*
X121626285Y-119880095D01*
%TO.C,P2*%
D11*
X109137523Y-130155904D02*
X109137523Y-129355904D01*
X109442285Y-129355904D01*
X109518476Y-129394000D01*
X109556571Y-129432095D01*
X109594666Y-129508285D01*
X109594666Y-129622571D01*
X109556571Y-129698761D01*
X109518476Y-129736857D01*
X109442285Y-129774952D01*
X109137523Y-129774952D01*
X109899428Y-129432095D02*
X109937523Y-129394000D01*
X110013714Y-129355904D01*
X110204190Y-129355904D01*
X110280380Y-129394000D01*
X110318476Y-129432095D01*
X110356571Y-129508285D01*
X110356571Y-129584476D01*
X110318476Y-129698761D01*
X109861333Y-130155904D01*
X110356571Y-130155904D01*
%TO.C,P1*%
D19*
X109454904Y-123805876D02*
X108654904Y-123805876D01*
X108654904Y-123501114D01*
X108693000Y-123424923D01*
X108731095Y-123386828D01*
X108807285Y-123348733D01*
X108921571Y-123348733D01*
X108997761Y-123386828D01*
X109035857Y-123424923D01*
X109073952Y-123501114D01*
X109073952Y-123805876D01*
X109454904Y-122586828D02*
X109454904Y-123043971D01*
X109454904Y-122815400D02*
X108654904Y-122815400D01*
X108769190Y-122891590D01*
X108845380Y-122967780D01*
X108883476Y-123043971D01*
%TO.C,U2*%
D18*
X123698095Y-122896380D02*
X123698095Y-123705904D01*
X123745714Y-123801142D01*
X123793333Y-123848761D01*
X123888571Y-123896380D01*
X124079047Y-123896380D01*
X124174285Y-123848761D01*
X124221904Y-123801142D01*
X124269523Y-123705904D01*
X124269523Y-122896380D01*
X124698095Y-122991619D02*
X124745714Y-122944000D01*
X124840952Y-122896380D01*
X125079047Y-122896380D01*
X125174285Y-122944000D01*
X125221904Y-122991619D01*
X125269523Y-123086857D01*
X125269523Y-123182095D01*
X125221904Y-123324952D01*
X124650476Y-123896380D01*
X125269523Y-123896380D01*
X117094000Y-124166380D02*
X117094000Y-124404476D01*
X116855904Y-124309238D02*
X117094000Y-124404476D01*
X117332095Y-124309238D01*
X116951142Y-124594952D02*
X117094000Y-124404476D01*
X117236857Y-124594952D01*
%TD*%
M02*
