%TF.GenerationSoftware,KiCad,Pcbnew,5.1.10*%
%TF.CreationDate,2021-10-03T17:54:42-07:00*%
%TF.ProjectId,Instrumentation-Amplifier,496e7374-7275-46d6-956e-746174696f6e,2.0*%
%TF.SameCoordinates,Original*%
%TF.FileFunction,Paste,Top*%
%TF.FilePolarity,Positive*%
%FSLAX46Y46*%
G04 Gerber Fmt 4.6, Leading zero omitted, Abs format (unit mm)*
G04 Created by KiCad (PCBNEW 5.1.10) date 2021-10-03 17:54:42*
%MOMM*%
%LPD*%
G01*
G04 APERTURE LIST*
%ADD10C,0.010000*%
%ADD11R,1.020000X0.940000*%
%ADD12R,0.940000X1.020000*%
%ADD13R,1.100000X1.000000*%
%ADD14R,1.000000X1.100000*%
%ADD15R,0.990000X3.790000*%
%ADD16R,0.965200X1.295400*%
%ADD17R,1.981200X0.558800*%
G04 APERTURE END LIST*
D10*
%TO.C,U1*%
G36*
X115564000Y-105719000D02*
G01*
X115564000Y-104269000D01*
X116824000Y-104269000D01*
X116824000Y-105719000D01*
X115564000Y-105719000D01*
G37*
X115564000Y-105719000D02*
X115564000Y-104269000D01*
X116824000Y-104269000D01*
X116824000Y-105719000D01*
X115564000Y-105719000D01*
G36*
X113764000Y-105719000D02*
G01*
X113764000Y-104269000D01*
X115024000Y-104269000D01*
X115024000Y-105719000D01*
X113764000Y-105719000D01*
G37*
X113764000Y-105719000D02*
X113764000Y-104269000D01*
X115024000Y-104269000D01*
X115024000Y-105719000D01*
X113764000Y-105719000D01*
G36*
X111964000Y-105719000D02*
G01*
X111964000Y-104269000D01*
X113224000Y-104269000D01*
X113224000Y-105719000D01*
X111964000Y-105719000D01*
G37*
X111964000Y-105719000D02*
X111964000Y-104269000D01*
X113224000Y-104269000D01*
X113224000Y-105719000D01*
X111964000Y-105719000D01*
G36*
X117364000Y-105719000D02*
G01*
X117364000Y-104269000D01*
X118624000Y-104269000D01*
X118624000Y-105719000D01*
X117364000Y-105719000D01*
G37*
X117364000Y-105719000D02*
X117364000Y-104269000D01*
X118624000Y-104269000D01*
X118624000Y-105719000D01*
X117364000Y-105719000D01*
G36*
X119164000Y-105719000D02*
G01*
X119164000Y-104269000D01*
X120424000Y-104269000D01*
X120424000Y-105719000D01*
X119164000Y-105719000D01*
G37*
X119164000Y-105719000D02*
X119164000Y-104269000D01*
X120424000Y-104269000D01*
X120424000Y-105719000D01*
X119164000Y-105719000D01*
G36*
X120964000Y-105719000D02*
G01*
X120964000Y-104269000D01*
X122224000Y-104269000D01*
X122224000Y-105719000D01*
X120964000Y-105719000D01*
G37*
X120964000Y-105719000D02*
X120964000Y-104269000D01*
X122224000Y-104269000D01*
X122224000Y-105719000D01*
X120964000Y-105719000D01*
G36*
X115564000Y-103179000D02*
G01*
X115564000Y-101729000D01*
X116824000Y-101729000D01*
X116824000Y-103179000D01*
X115564000Y-103179000D01*
G37*
X115564000Y-103179000D02*
X115564000Y-101729000D01*
X116824000Y-101729000D01*
X116824000Y-103179000D01*
X115564000Y-103179000D01*
G36*
X113764000Y-103179000D02*
G01*
X113764000Y-101729000D01*
X115024000Y-101729000D01*
X115024000Y-103179000D01*
X113764000Y-103179000D01*
G37*
X113764000Y-103179000D02*
X113764000Y-101729000D01*
X115024000Y-101729000D01*
X115024000Y-103179000D01*
X113764000Y-103179000D01*
G36*
X111964000Y-103179000D02*
G01*
X111964000Y-101729000D01*
X113224000Y-101729000D01*
X113224000Y-103179000D01*
X111964000Y-103179000D01*
G37*
X111964000Y-103179000D02*
X111964000Y-101729000D01*
X113224000Y-101729000D01*
X113224000Y-103179000D01*
X111964000Y-103179000D01*
G36*
X117364000Y-103179000D02*
G01*
X117364000Y-101729000D01*
X118624000Y-101729000D01*
X118624000Y-103179000D01*
X117364000Y-103179000D01*
G37*
X117364000Y-103179000D02*
X117364000Y-101729000D01*
X118624000Y-101729000D01*
X118624000Y-103179000D01*
X117364000Y-103179000D01*
G36*
X119164000Y-103179000D02*
G01*
X119164000Y-101729000D01*
X120424000Y-101729000D01*
X120424000Y-103179000D01*
X119164000Y-103179000D01*
G37*
X119164000Y-103179000D02*
X119164000Y-101729000D01*
X120424000Y-101729000D01*
X120424000Y-103179000D01*
X119164000Y-103179000D01*
G36*
X120964000Y-103179000D02*
G01*
X120964000Y-101729000D01*
X122224000Y-101729000D01*
X122224000Y-103179000D01*
X120964000Y-103179000D01*
G37*
X120964000Y-103179000D02*
X120964000Y-101729000D01*
X122224000Y-101729000D01*
X122224000Y-103179000D01*
X120964000Y-103179000D01*
G36*
X115564000Y-108259000D02*
G01*
X115564000Y-106809000D01*
X116824000Y-106809000D01*
X116824000Y-108259000D01*
X115564000Y-108259000D01*
G37*
X115564000Y-108259000D02*
X115564000Y-106809000D01*
X116824000Y-106809000D01*
X116824000Y-108259000D01*
X115564000Y-108259000D01*
G36*
X113764000Y-108259000D02*
G01*
X113764000Y-106809000D01*
X115024000Y-106809000D01*
X115024000Y-108259000D01*
X113764000Y-108259000D01*
G37*
X113764000Y-108259000D02*
X113764000Y-106809000D01*
X115024000Y-106809000D01*
X115024000Y-108259000D01*
X113764000Y-108259000D01*
G36*
X111964000Y-108259000D02*
G01*
X111964000Y-106809000D01*
X113224000Y-106809000D01*
X113224000Y-108259000D01*
X111964000Y-108259000D01*
G37*
X111964000Y-108259000D02*
X111964000Y-106809000D01*
X113224000Y-106809000D01*
X113224000Y-108259000D01*
X111964000Y-108259000D01*
G36*
X117364000Y-108259000D02*
G01*
X117364000Y-106809000D01*
X118624000Y-106809000D01*
X118624000Y-108259000D01*
X117364000Y-108259000D01*
G37*
X117364000Y-108259000D02*
X117364000Y-106809000D01*
X118624000Y-106809000D01*
X118624000Y-108259000D01*
X117364000Y-108259000D01*
G36*
X119164000Y-108259000D02*
G01*
X119164000Y-106809000D01*
X120424000Y-106809000D01*
X120424000Y-108259000D01*
X119164000Y-108259000D01*
G37*
X119164000Y-108259000D02*
X119164000Y-106809000D01*
X120424000Y-106809000D01*
X120424000Y-108259000D01*
X119164000Y-108259000D01*
G36*
X120964000Y-108259000D02*
G01*
X120964000Y-106809000D01*
X122224000Y-106809000D01*
X122224000Y-108259000D01*
X120964000Y-108259000D01*
G37*
X120964000Y-108259000D02*
X120964000Y-106809000D01*
X122224000Y-106809000D01*
X122224000Y-108259000D01*
X120964000Y-108259000D01*
%TD*%
D11*
%TO.C,R3*%
X111760000Y-121130000D03*
X111760000Y-122710000D03*
%TD*%
D12*
%TO.C,R2*%
X125250000Y-130810000D03*
X123670000Y-130810000D03*
%TD*%
D13*
%TO.C,C2*%
X113958000Y-124460000D03*
X115658000Y-124460000D03*
%TD*%
D12*
%TO.C,R1*%
X123162000Y-121666000D03*
X124742000Y-121666000D03*
%TD*%
D14*
%TO.C,C1*%
X109220000Y-115570000D03*
X109220000Y-113870000D03*
%TD*%
D15*
%TO.C,U1*%
X114554000Y-115874000D03*
X117094000Y-115874000D03*
X119634000Y-115874000D03*
%TD*%
D16*
%TO.C,D1*%
X117348000Y-121920000D03*
X120396000Y-121920000D03*
%TD*%
D17*
%TO.C,U2*%
X118694200Y-124841000D03*
X118694200Y-126111000D03*
X118694200Y-127381000D03*
X118694200Y-128651000D03*
X123621800Y-128651000D03*
X123621800Y-127381000D03*
X123621800Y-126111000D03*
X123621800Y-124841000D03*
%TD*%
M02*
