%TF.GenerationSoftware,KiCad,Pcbnew,5.1.10*%
%TF.CreationDate,2021-06-12T19:58:10-07:00*%
%TF.ProjectId,Instrumentation-Amplifier,496e7374-7275-46d6-956e-746174696f6e,2.0*%
%TF.SameCoordinates,Original*%
%TF.FileFunction,Copper,L1,Top*%
%TF.FilePolarity,Positive*%
%FSLAX46Y46*%
G04 Gerber Fmt 4.6, Leading zero omitted, Abs format (unit mm)*
G04 Created by KiCad (PCBNEW 5.1.10) date 2021-06-12 19:58:10*
%MOMM*%
%LPD*%
G01*
G04 APERTURE LIST*
%TA.AperFunction,SMDPad,CuDef*%
%ADD10R,1.000000X1.100000*%
%TD*%
%TA.AperFunction,SMDPad,CuDef*%
%ADD11R,1.100000X1.000000*%
%TD*%
%TA.AperFunction,SMDPad,CuDef*%
%ADD12R,0.965200X1.295400*%
%TD*%
%TA.AperFunction,ComponentPad*%
%ADD13R,1.605000X1.605000*%
%TD*%
%TA.AperFunction,ComponentPad*%
%ADD14C,1.605000*%
%TD*%
%TA.AperFunction,SMDPad,CuDef*%
%ADD15R,0.940000X1.020000*%
%TD*%
%TA.AperFunction,SMDPad,CuDef*%
%ADD16R,10.840000X7.620000*%
%TD*%
%TA.AperFunction,SMDPad,CuDef*%
%ADD17R,0.990000X3.790000*%
%TD*%
%TA.AperFunction,SMDPad,CuDef*%
%ADD18R,1.981200X0.558800*%
%TD*%
%TA.AperFunction,ViaPad*%
%ADD19C,0.800000*%
%TD*%
%TA.AperFunction,Conductor*%
%ADD20C,0.381000*%
%TD*%
%TA.AperFunction,Conductor*%
%ADD21C,0.254000*%
%TD*%
%TA.AperFunction,Conductor*%
%ADD22C,0.100000*%
%TD*%
G04 APERTURE END LIST*
D10*
%TO.P,C1,2*%
%TO.N,/+Vs*%
X109220000Y-113870000D03*
%TO.P,C1,1*%
%TO.N,Earth*%
X109220000Y-115570000D03*
%TD*%
D11*
%TO.P,C2,1*%
%TO.N,Earth*%
X112180000Y-125222000D03*
%TO.P,C2,2*%
%TO.N,~*%
X113880000Y-125222000D03*
%TD*%
D12*
%TO.P,D1,2*%
%TO.N,~*%
X114554000Y-121920000D03*
%TO.P,D1,1*%
%TO.N,Earth*%
X111506000Y-121920000D03*
%TD*%
D13*
%TO.P,J1,1*%
%TO.N,/+Vs*%
X106680000Y-119380000D03*
D14*
%TO.P,J1,2*%
%TO.N,/Vout*%
X106680000Y-121920000D03*
%TO.P,J1,3*%
%TO.N,Earth*%
X106680000Y-124460000D03*
%TO.P,J1,4*%
X106680000Y-127000000D03*
%TD*%
%TO.P,J2,4*%
%TO.N,~*%
X119380000Y-132080000D03*
%TO.P,J2,3*%
%TO.N,Net-(J2-Pad3)*%
X116840000Y-132080000D03*
%TO.P,J2,2*%
%TO.N,Net-(J2-Pad2)*%
X114300000Y-132080000D03*
D13*
%TO.P,J2,1*%
%TO.N,Earth*%
X111760000Y-132080000D03*
%TD*%
D15*
%TO.P,R1,2*%
%TO.N,Net-(R1-Pad2)*%
X121694000Y-122174000D03*
%TO.P,R1,1*%
%TO.N,Net-(R1-Pad1)*%
X120114000Y-122174000D03*
%TD*%
%TO.P,R2,1*%
%TO.N,/Vout*%
X125250000Y-130810000D03*
%TO.P,R2,2*%
%TO.N,Earth*%
X123670000Y-130810000D03*
%TD*%
D16*
%TO.P,U1,4*%
%TO.N,N/C*%
X118110000Y-105410000D03*
D17*
%TO.P,U1,3*%
%TO.N,~*%
X120650000Y-116290000D03*
%TO.P,U1,2*%
%TO.N,Earth*%
X118110000Y-116290000D03*
%TO.P,U1,1*%
%TO.N,/+Vs*%
X115570000Y-116290000D03*
%TD*%
D18*
%TO.P,U2,8*%
%TO.N,Net-(R1-Pad2)*%
X123621800Y-124841000D03*
%TO.P,U2,7*%
%TO.N,~*%
X123621800Y-126111000D03*
%TO.P,U2,6*%
%TO.N,/Vout*%
X123621800Y-127381000D03*
%TO.P,U2,5*%
%TO.N,Earth*%
X123621800Y-128651000D03*
%TO.P,U2,4*%
X118694200Y-128651000D03*
%TO.P,U2,3*%
%TO.N,Net-(J2-Pad3)*%
X118694200Y-127381000D03*
%TO.P,U2,2*%
%TO.N,Net-(J2-Pad2)*%
X118694200Y-126111000D03*
%TO.P,U2,1*%
%TO.N,Net-(R1-Pad1)*%
X118694200Y-124841000D03*
%TD*%
D19*
%TO.N,Earth*%
X118618000Y-130048000D03*
%TO.N,/Vout*%
X109728000Y-122936000D03*
X121920000Y-128016000D03*
%TD*%
D20*
%TO.N,Earth*%
X106680000Y-124460000D02*
X110744000Y-124460000D01*
X110744000Y-124460000D02*
X111506000Y-123698000D01*
X111506000Y-123698000D02*
X111506000Y-121920000D01*
X111760000Y-132080000D02*
X107950000Y-132080000D01*
X106680000Y-130810000D02*
X106680000Y-127000000D01*
X107950000Y-132080000D02*
X106680000Y-130810000D01*
X106680000Y-127000000D02*
X106680000Y-124460000D01*
X111506000Y-121920000D02*
X110490000Y-121920000D01*
X109220000Y-120650000D02*
X109220000Y-115570000D01*
X110490000Y-121920000D02*
X109220000Y-120650000D01*
X118110000Y-118566000D02*
X117042000Y-119634000D01*
X118110000Y-116290000D02*
X118110000Y-118566000D01*
X117042000Y-119634000D02*
X112014000Y-119634000D01*
X111506000Y-120142000D02*
X111506000Y-121920000D01*
X112014000Y-119634000D02*
X111506000Y-120142000D01*
X123670000Y-128699200D02*
X123621800Y-128651000D01*
X123670000Y-130810000D02*
X123670000Y-128699200D01*
X123670000Y-130810000D02*
X123670000Y-133632000D01*
X123670000Y-133632000D02*
X123444000Y-133858000D01*
X123444000Y-133858000D02*
X112014000Y-133858000D01*
X111760000Y-133604000D02*
X111760000Y-132080000D01*
X112014000Y-133858000D02*
X111760000Y-133604000D01*
X118694200Y-129971800D02*
X118618000Y-130048000D01*
X118694200Y-128651000D02*
X118694200Y-129971800D01*
X112180000Y-126326000D02*
X112180000Y-125222000D01*
X111506000Y-127000000D02*
X112180000Y-126326000D01*
X106680000Y-127000000D02*
X111506000Y-127000000D01*
D21*
%TO.N,~*%
X114554000Y-121920000D02*
X118110000Y-121920000D01*
X120650000Y-119380000D02*
X120650000Y-116290000D01*
X118110000Y-121920000D02*
X120650000Y-119380000D01*
X121158000Y-126746000D02*
X121793000Y-126111000D01*
X121158000Y-130302000D02*
X121158000Y-126746000D01*
X121793000Y-126111000D02*
X123621800Y-126111000D01*
X119380000Y-132080000D02*
X121158000Y-130302000D01*
X120650000Y-116290000D02*
X125180000Y-116290000D01*
X125180000Y-116290000D02*
X125984000Y-117094000D01*
X125984000Y-117094000D02*
X125984000Y-125730000D01*
X125603000Y-126111000D02*
X123621800Y-126111000D01*
X125984000Y-125730000D02*
X125603000Y-126111000D01*
X113880000Y-125222000D02*
X113880000Y-124118000D01*
X114554000Y-123444000D02*
X114554000Y-121920000D01*
X113880000Y-124118000D02*
X114554000Y-123444000D01*
%TO.N,Net-(J2-Pad3)*%
X117449600Y-127381000D02*
X118694200Y-127381000D01*
X116840000Y-127990600D02*
X117449600Y-127381000D01*
X116840000Y-132080000D02*
X116840000Y-127990600D01*
%TO.N,Net-(J2-Pad2)*%
X114300000Y-132080000D02*
X114300000Y-127000000D01*
X115189000Y-126111000D02*
X118694200Y-126111000D01*
X114300000Y-127000000D02*
X115189000Y-126111000D01*
%TO.N,Net-(R1-Pad2)*%
X123621800Y-124101800D02*
X121694000Y-122174000D01*
X123621800Y-124841000D02*
X123621800Y-124101800D01*
%TO.N,Net-(R1-Pad1)*%
X118694200Y-123593800D02*
X120114000Y-122174000D01*
X118694200Y-124841000D02*
X118694200Y-123593800D01*
%TO.N,/Vout*%
X125250000Y-130810000D02*
X125250000Y-127536000D01*
X125095000Y-127381000D02*
X123621800Y-127381000D01*
X125250000Y-127536000D02*
X125095000Y-127381000D01*
X108712000Y-121920000D02*
X109728000Y-122936000D01*
X106680000Y-121920000D02*
X108712000Y-121920000D01*
X121920000Y-128016000D02*
X121920000Y-127762000D01*
X122301000Y-127381000D02*
X123621800Y-127381000D01*
X121920000Y-127762000D02*
X122301000Y-127381000D01*
D20*
%TO.N,/+Vs*%
X106680000Y-119380000D02*
X106680000Y-114554000D01*
X107364000Y-113870000D02*
X109220000Y-113870000D01*
X106680000Y-114554000D02*
X107364000Y-113870000D01*
X109220000Y-113870000D02*
X111584000Y-113870000D01*
X114004000Y-116290000D02*
X115570000Y-116290000D01*
X111584000Y-113870000D02*
X114004000Y-116290000D01*
%TD*%
D21*
%TO.N,Earth*%
X112335506Y-101069463D02*
X112238815Y-101148815D01*
X112159463Y-101245506D01*
X112100498Y-101355820D01*
X112064188Y-101475518D01*
X112051928Y-101600000D01*
X112051928Y-109220000D01*
X112064188Y-109344482D01*
X112100498Y-109464180D01*
X112159463Y-109574494D01*
X112238815Y-109671185D01*
X112335506Y-109750537D01*
X112445820Y-109809502D01*
X112565518Y-109845812D01*
X112690000Y-109858072D01*
X123530000Y-109858072D01*
X123654482Y-109845812D01*
X123774180Y-109809502D01*
X123884494Y-109750537D01*
X123981185Y-109671185D01*
X124060537Y-109574494D01*
X124119502Y-109464180D01*
X124155812Y-109344482D01*
X124168072Y-109220000D01*
X124168072Y-101600000D01*
X124155812Y-101475518D01*
X124119502Y-101355820D01*
X124060537Y-101245506D01*
X123981185Y-101148815D01*
X123884494Y-101069463D01*
X123829373Y-101040000D01*
X127560001Y-101040000D01*
X127560000Y-133910000D01*
X104850000Y-133910000D01*
X104850000Y-132882500D01*
X110319428Y-132882500D01*
X110331688Y-133006982D01*
X110367998Y-133126680D01*
X110426963Y-133236994D01*
X110506315Y-133333685D01*
X110603006Y-133413037D01*
X110713320Y-133472002D01*
X110833018Y-133508312D01*
X110957500Y-133520572D01*
X111474250Y-133517500D01*
X111633000Y-133358750D01*
X111633000Y-132207000D01*
X110481250Y-132207000D01*
X110322500Y-132365750D01*
X110319428Y-132882500D01*
X104850000Y-132882500D01*
X104850000Y-131277500D01*
X110319428Y-131277500D01*
X110322500Y-131794250D01*
X110481250Y-131953000D01*
X111633000Y-131953000D01*
X111633000Y-130801250D01*
X111887000Y-130801250D01*
X111887000Y-131953000D01*
X111907000Y-131953000D01*
X111907000Y-132207000D01*
X111887000Y-132207000D01*
X111887000Y-133358750D01*
X112045750Y-133517500D01*
X112562500Y-133520572D01*
X112686982Y-133508312D01*
X112806680Y-133472002D01*
X112916994Y-133413037D01*
X113013685Y-133333685D01*
X113093037Y-133236994D01*
X113152002Y-133126680D01*
X113188312Y-133006982D01*
X113188826Y-133001758D01*
X113383647Y-133196579D01*
X113619089Y-133353896D01*
X113880697Y-133462257D01*
X114158419Y-133517500D01*
X114441581Y-133517500D01*
X114719303Y-133462257D01*
X114980911Y-133353896D01*
X115216353Y-133196579D01*
X115416579Y-132996353D01*
X115570000Y-132766742D01*
X115723421Y-132996353D01*
X115923647Y-133196579D01*
X116159089Y-133353896D01*
X116420697Y-133462257D01*
X116698419Y-133517500D01*
X116981581Y-133517500D01*
X117259303Y-133462257D01*
X117520911Y-133353896D01*
X117756353Y-133196579D01*
X117956579Y-132996353D01*
X118110000Y-132766742D01*
X118263421Y-132996353D01*
X118463647Y-133196579D01*
X118699089Y-133353896D01*
X118960697Y-133462257D01*
X119238419Y-133517500D01*
X119521581Y-133517500D01*
X119799303Y-133462257D01*
X120060911Y-133353896D01*
X120296353Y-133196579D01*
X120496579Y-132996353D01*
X120653896Y-132760911D01*
X120762257Y-132499303D01*
X120817500Y-132221581D01*
X120817500Y-131938419D01*
X120781283Y-131756347D01*
X121217630Y-131320000D01*
X122561928Y-131320000D01*
X122574188Y-131444482D01*
X122610498Y-131564180D01*
X122669463Y-131674494D01*
X122748815Y-131771185D01*
X122845506Y-131850537D01*
X122955820Y-131909502D01*
X123075518Y-131945812D01*
X123200000Y-131958072D01*
X123384250Y-131955000D01*
X123543000Y-131796250D01*
X123543000Y-130937000D01*
X122723750Y-130937000D01*
X122565000Y-131095750D01*
X122561928Y-131320000D01*
X121217630Y-131320000D01*
X121670347Y-130867283D01*
X121699422Y-130843422D01*
X121778584Y-130746963D01*
X121794645Y-130727393D01*
X121865401Y-130595016D01*
X121865402Y-130595015D01*
X121908974Y-130451378D01*
X121920000Y-130339426D01*
X121920000Y-130339423D01*
X121923686Y-130302000D01*
X121923490Y-130300000D01*
X122561928Y-130300000D01*
X122565000Y-130524250D01*
X122723750Y-130683000D01*
X123543000Y-130683000D01*
X123543000Y-129823750D01*
X123384250Y-129665000D01*
X123200000Y-129661928D01*
X123075518Y-129674188D01*
X122955820Y-129710498D01*
X122845506Y-129769463D01*
X122748815Y-129848815D01*
X122669463Y-129945506D01*
X122610498Y-130055820D01*
X122574188Y-130175518D01*
X122561928Y-130300000D01*
X121923490Y-130300000D01*
X121920000Y-130264577D01*
X121920000Y-129051000D01*
X122005264Y-129051000D01*
X122005692Y-129056400D01*
X122042293Y-129176010D01*
X122101525Y-129286180D01*
X122181111Y-129382679D01*
X122277995Y-129461796D01*
X122388452Y-129520493D01*
X122508238Y-129556512D01*
X122632749Y-129568470D01*
X123336050Y-129565400D01*
X123494800Y-129406650D01*
X123494800Y-128778000D01*
X123474800Y-128778000D01*
X123474800Y-128524000D01*
X123494800Y-128524000D01*
X123494800Y-128504000D01*
X123748800Y-128504000D01*
X123748800Y-128524000D01*
X123768800Y-128524000D01*
X123768800Y-128778000D01*
X123748800Y-128778000D01*
X123748800Y-129406650D01*
X123907550Y-129565400D01*
X124488000Y-129567934D01*
X124488000Y-129736059D01*
X124460000Y-129751025D01*
X124384180Y-129710498D01*
X124264482Y-129674188D01*
X124140000Y-129661928D01*
X123955750Y-129665000D01*
X123797000Y-129823750D01*
X123797000Y-130683000D01*
X123817000Y-130683000D01*
X123817000Y-130937000D01*
X123797000Y-130937000D01*
X123797000Y-131796250D01*
X123955750Y-131955000D01*
X124140000Y-131958072D01*
X124264482Y-131945812D01*
X124384180Y-131909502D01*
X124460000Y-131868975D01*
X124535820Y-131909502D01*
X124655518Y-131945812D01*
X124780000Y-131958072D01*
X125720000Y-131958072D01*
X125844482Y-131945812D01*
X125964180Y-131909502D01*
X126074494Y-131850537D01*
X126171185Y-131771185D01*
X126250537Y-131674494D01*
X126309502Y-131564180D01*
X126345812Y-131444482D01*
X126358072Y-131320000D01*
X126358072Y-130300000D01*
X126345812Y-130175518D01*
X126309502Y-130055820D01*
X126250537Y-129945506D01*
X126171185Y-129848815D01*
X126074494Y-129769463D01*
X126012000Y-129736059D01*
X126012000Y-127573422D01*
X126015686Y-127535999D01*
X126009998Y-127478249D01*
X126000974Y-127386622D01*
X125957402Y-127242985D01*
X125886645Y-127110608D01*
X125791422Y-126994578D01*
X125762346Y-126970716D01*
X125662460Y-126870830D01*
X125752378Y-126861974D01*
X125896015Y-126818402D01*
X126028392Y-126747645D01*
X126144422Y-126652422D01*
X126168284Y-126623346D01*
X126496346Y-126295284D01*
X126525422Y-126271422D01*
X126620645Y-126155392D01*
X126691402Y-126023015D01*
X126734974Y-125879378D01*
X126746000Y-125767426D01*
X126746000Y-125767424D01*
X126749686Y-125730001D01*
X126746000Y-125692578D01*
X126746000Y-117131423D01*
X126749686Y-117094000D01*
X126745978Y-117056353D01*
X126734974Y-116944622D01*
X126691402Y-116800985D01*
X126645652Y-116715392D01*
X126620645Y-116668607D01*
X126570440Y-116607433D01*
X126525422Y-116552578D01*
X126496347Y-116528717D01*
X125745284Y-115777654D01*
X125721422Y-115748578D01*
X125605392Y-115653355D01*
X125473015Y-115582598D01*
X125329378Y-115539026D01*
X125217426Y-115528000D01*
X125217423Y-115528000D01*
X125180000Y-115524314D01*
X125142577Y-115528000D01*
X121783072Y-115528000D01*
X121783072Y-114395000D01*
X121770812Y-114270518D01*
X121734502Y-114150820D01*
X121675537Y-114040506D01*
X121596185Y-113943815D01*
X121499494Y-113864463D01*
X121389180Y-113805498D01*
X121269482Y-113769188D01*
X121145000Y-113756928D01*
X120155000Y-113756928D01*
X120030518Y-113769188D01*
X119910820Y-113805498D01*
X119800506Y-113864463D01*
X119703815Y-113943815D01*
X119624463Y-114040506D01*
X119565498Y-114150820D01*
X119529188Y-114270518D01*
X119516928Y-114395000D01*
X119516928Y-118185000D01*
X119529188Y-118309482D01*
X119565498Y-118429180D01*
X119624463Y-118539494D01*
X119703815Y-118636185D01*
X119800506Y-118715537D01*
X119888000Y-118762304D01*
X119888000Y-119064369D01*
X117794370Y-121158000D01*
X115663415Y-121158000D01*
X115662412Y-121147818D01*
X115626102Y-121028120D01*
X115567137Y-120917806D01*
X115487785Y-120821115D01*
X115391094Y-120741763D01*
X115280780Y-120682798D01*
X115161082Y-120646488D01*
X115036600Y-120634228D01*
X114071400Y-120634228D01*
X113946918Y-120646488D01*
X113827220Y-120682798D01*
X113716906Y-120741763D01*
X113620215Y-120821115D01*
X113540863Y-120917806D01*
X113481898Y-121028120D01*
X113445588Y-121147818D01*
X113433328Y-121272300D01*
X113433328Y-122567700D01*
X113445588Y-122692182D01*
X113481898Y-122811880D01*
X113540863Y-122922194D01*
X113620215Y-123018885D01*
X113716906Y-123098237D01*
X113785479Y-123134891D01*
X113367649Y-123552721D01*
X113338579Y-123576578D01*
X113314722Y-123605648D01*
X113314721Y-123605649D01*
X113243355Y-123692608D01*
X113172599Y-123824985D01*
X113129027Y-123968622D01*
X113114314Y-124118000D01*
X113114874Y-124123685D01*
X113085820Y-124132498D01*
X113030000Y-124162335D01*
X112974180Y-124132498D01*
X112854482Y-124096188D01*
X112730000Y-124083928D01*
X112465750Y-124087000D01*
X112307000Y-124245750D01*
X112307000Y-125095000D01*
X112327000Y-125095000D01*
X112327000Y-125349000D01*
X112307000Y-125349000D01*
X112307000Y-126198250D01*
X112465750Y-126357000D01*
X112730000Y-126360072D01*
X112854482Y-126347812D01*
X112974180Y-126311502D01*
X113030000Y-126281665D01*
X113085820Y-126311502D01*
X113205518Y-126347812D01*
X113330000Y-126360072D01*
X113862298Y-126360072D01*
X113787649Y-126434721D01*
X113758579Y-126458578D01*
X113734722Y-126487648D01*
X113734721Y-126487649D01*
X113663355Y-126574608D01*
X113592599Y-126706985D01*
X113549027Y-126850622D01*
X113534314Y-127000000D01*
X113538001Y-127037433D01*
X113538000Y-130860286D01*
X113383647Y-130963421D01*
X113188826Y-131158242D01*
X113188312Y-131153018D01*
X113152002Y-131033320D01*
X113093037Y-130923006D01*
X113013685Y-130826315D01*
X112916994Y-130746963D01*
X112806680Y-130687998D01*
X112686982Y-130651688D01*
X112562500Y-130639428D01*
X112045750Y-130642500D01*
X111887000Y-130801250D01*
X111633000Y-130801250D01*
X111474250Y-130642500D01*
X110957500Y-130639428D01*
X110833018Y-130651688D01*
X110713320Y-130687998D01*
X110603006Y-130746963D01*
X110506315Y-130826315D01*
X110426963Y-130923006D01*
X110367998Y-131033320D01*
X110331688Y-131153018D01*
X110319428Y-131277500D01*
X104850000Y-131277500D01*
X104850000Y-127994487D01*
X105865118Y-127994487D01*
X105937004Y-128238712D01*
X106192941Y-128359862D01*
X106467596Y-128428752D01*
X106750413Y-128442738D01*
X107030524Y-128401279D01*
X107297165Y-128305970D01*
X107422996Y-128238712D01*
X107494882Y-127994487D01*
X106680000Y-127179605D01*
X105865118Y-127994487D01*
X104850000Y-127994487D01*
X104850000Y-127070413D01*
X105237262Y-127070413D01*
X105278721Y-127350524D01*
X105374030Y-127617165D01*
X105441288Y-127742996D01*
X105685513Y-127814882D01*
X106500395Y-127000000D01*
X106859605Y-127000000D01*
X107674487Y-127814882D01*
X107918712Y-127742996D01*
X108039862Y-127487059D01*
X108108752Y-127212404D01*
X108122738Y-126929587D01*
X108081279Y-126649476D01*
X107985970Y-126382835D01*
X107918712Y-126257004D01*
X107674487Y-126185118D01*
X106859605Y-127000000D01*
X106500395Y-127000000D01*
X105685513Y-126185118D01*
X105441288Y-126257004D01*
X105320138Y-126512941D01*
X105251248Y-126787596D01*
X105237262Y-127070413D01*
X104850000Y-127070413D01*
X104850000Y-125454487D01*
X105865118Y-125454487D01*
X105937004Y-125698712D01*
X105999091Y-125728102D01*
X105937004Y-125761288D01*
X105865118Y-126005513D01*
X106680000Y-126820395D01*
X107494882Y-126005513D01*
X107422996Y-125761288D01*
X107360909Y-125731898D01*
X107379426Y-125722000D01*
X110991928Y-125722000D01*
X111004188Y-125846482D01*
X111040498Y-125966180D01*
X111099463Y-126076494D01*
X111178815Y-126173185D01*
X111275506Y-126252537D01*
X111385820Y-126311502D01*
X111505518Y-126347812D01*
X111630000Y-126360072D01*
X111894250Y-126357000D01*
X112053000Y-126198250D01*
X112053000Y-125349000D01*
X111153750Y-125349000D01*
X110995000Y-125507750D01*
X110991928Y-125722000D01*
X107379426Y-125722000D01*
X107422996Y-125698712D01*
X107494882Y-125454487D01*
X106680000Y-124639605D01*
X105865118Y-125454487D01*
X104850000Y-125454487D01*
X104850000Y-124530413D01*
X105237262Y-124530413D01*
X105278721Y-124810524D01*
X105374030Y-125077165D01*
X105441288Y-125202996D01*
X105685513Y-125274882D01*
X106500395Y-124460000D01*
X106859605Y-124460000D01*
X107674487Y-125274882D01*
X107918712Y-125202996D01*
X108039862Y-124947059D01*
X108096312Y-124722000D01*
X110991928Y-124722000D01*
X110995000Y-124936250D01*
X111153750Y-125095000D01*
X112053000Y-125095000D01*
X112053000Y-124245750D01*
X111894250Y-124087000D01*
X111630000Y-124083928D01*
X111505518Y-124096188D01*
X111385820Y-124132498D01*
X111275506Y-124191463D01*
X111178815Y-124270815D01*
X111099463Y-124367506D01*
X111040498Y-124477820D01*
X111004188Y-124597518D01*
X110991928Y-124722000D01*
X108096312Y-124722000D01*
X108108752Y-124672404D01*
X108122738Y-124389587D01*
X108081279Y-124109476D01*
X107985970Y-123842835D01*
X107918712Y-123717004D01*
X107674487Y-123645118D01*
X106859605Y-124460000D01*
X106500395Y-124460000D01*
X105685513Y-123645118D01*
X105441288Y-123717004D01*
X105320138Y-123972941D01*
X105251248Y-124247596D01*
X105237262Y-124530413D01*
X104850000Y-124530413D01*
X104850000Y-118577500D01*
X105239428Y-118577500D01*
X105239428Y-120182500D01*
X105251688Y-120306982D01*
X105287998Y-120426680D01*
X105346963Y-120536994D01*
X105426315Y-120633685D01*
X105523006Y-120713037D01*
X105633320Y-120772002D01*
X105753018Y-120808312D01*
X105758242Y-120808826D01*
X105563421Y-121003647D01*
X105406104Y-121239089D01*
X105297743Y-121500697D01*
X105242500Y-121778419D01*
X105242500Y-122061581D01*
X105297743Y-122339303D01*
X105406104Y-122600911D01*
X105563421Y-122836353D01*
X105763647Y-123036579D01*
X105994272Y-123190678D01*
X105937004Y-123221288D01*
X105865118Y-123465513D01*
X106680000Y-124280395D01*
X107494882Y-123465513D01*
X107422996Y-123221288D01*
X107362660Y-123192727D01*
X107596353Y-123036579D01*
X107796579Y-122836353D01*
X107899714Y-122682000D01*
X108396370Y-122682000D01*
X108693000Y-122978631D01*
X108693000Y-123037939D01*
X108732774Y-123237898D01*
X108810795Y-123426256D01*
X108924063Y-123595774D01*
X109068226Y-123739937D01*
X109237744Y-123853205D01*
X109426102Y-123931226D01*
X109626061Y-123971000D01*
X109829939Y-123971000D01*
X110029898Y-123931226D01*
X110218256Y-123853205D01*
X110387774Y-123739937D01*
X110531937Y-123595774D01*
X110645205Y-123426256D01*
X110723226Y-123237898D01*
X110743116Y-123137904D01*
X110779220Y-123157202D01*
X110898918Y-123193512D01*
X111023400Y-123205772D01*
X111220250Y-123202700D01*
X111379000Y-123043950D01*
X111379000Y-122047000D01*
X111633000Y-122047000D01*
X111633000Y-123043950D01*
X111791750Y-123202700D01*
X111988600Y-123205772D01*
X112113082Y-123193512D01*
X112232780Y-123157202D01*
X112343094Y-123098237D01*
X112439785Y-123018885D01*
X112519137Y-122922194D01*
X112578102Y-122811880D01*
X112614412Y-122692182D01*
X112626672Y-122567700D01*
X112623600Y-122205750D01*
X112464850Y-122047000D01*
X111633000Y-122047000D01*
X111379000Y-122047000D01*
X110547150Y-122047000D01*
X110424931Y-122169220D01*
X110387774Y-122132063D01*
X110218256Y-122018795D01*
X110029898Y-121940774D01*
X109829939Y-121901000D01*
X109770631Y-121901000D01*
X109277284Y-121407654D01*
X109253422Y-121378578D01*
X109137392Y-121283355D01*
X109116710Y-121272300D01*
X110385328Y-121272300D01*
X110388400Y-121634250D01*
X110547150Y-121793000D01*
X111379000Y-121793000D01*
X111379000Y-120796050D01*
X111633000Y-120796050D01*
X111633000Y-121793000D01*
X112464850Y-121793000D01*
X112623600Y-121634250D01*
X112626672Y-121272300D01*
X112614412Y-121147818D01*
X112578102Y-121028120D01*
X112519137Y-120917806D01*
X112439785Y-120821115D01*
X112343094Y-120741763D01*
X112232780Y-120682798D01*
X112113082Y-120646488D01*
X111988600Y-120634228D01*
X111791750Y-120637300D01*
X111633000Y-120796050D01*
X111379000Y-120796050D01*
X111220250Y-120637300D01*
X111023400Y-120634228D01*
X110898918Y-120646488D01*
X110779220Y-120682798D01*
X110668906Y-120741763D01*
X110572215Y-120821115D01*
X110492863Y-120917806D01*
X110433898Y-121028120D01*
X110397588Y-121147818D01*
X110385328Y-121272300D01*
X109116710Y-121272300D01*
X109005015Y-121212598D01*
X108861378Y-121169026D01*
X108749426Y-121158000D01*
X108749423Y-121158000D01*
X108712000Y-121154314D01*
X108674577Y-121158000D01*
X107899714Y-121158000D01*
X107796579Y-121003647D01*
X107601758Y-120808826D01*
X107606982Y-120808312D01*
X107726680Y-120772002D01*
X107836994Y-120713037D01*
X107933685Y-120633685D01*
X108013037Y-120536994D01*
X108072002Y-120426680D01*
X108108312Y-120306982D01*
X108120572Y-120182500D01*
X108120572Y-118577500D01*
X108108312Y-118453018D01*
X108072002Y-118333320D01*
X108013037Y-118223006D01*
X107933685Y-118126315D01*
X107836994Y-118046963D01*
X107726680Y-117987998D01*
X107606982Y-117951688D01*
X107505500Y-117941693D01*
X107505500Y-116120000D01*
X108081928Y-116120000D01*
X108094188Y-116244482D01*
X108130498Y-116364180D01*
X108189463Y-116474494D01*
X108268815Y-116571185D01*
X108365506Y-116650537D01*
X108475820Y-116709502D01*
X108595518Y-116745812D01*
X108720000Y-116758072D01*
X108934250Y-116755000D01*
X109093000Y-116596250D01*
X109093000Y-115697000D01*
X109347000Y-115697000D01*
X109347000Y-116596250D01*
X109505750Y-116755000D01*
X109720000Y-116758072D01*
X109844482Y-116745812D01*
X109964180Y-116709502D01*
X110074494Y-116650537D01*
X110171185Y-116571185D01*
X110250537Y-116474494D01*
X110309502Y-116364180D01*
X110345812Y-116244482D01*
X110358072Y-116120000D01*
X110355000Y-115855750D01*
X110196250Y-115697000D01*
X109347000Y-115697000D01*
X109093000Y-115697000D01*
X108243750Y-115697000D01*
X108085000Y-115855750D01*
X108081928Y-116120000D01*
X107505500Y-116120000D01*
X107505500Y-114895932D01*
X107705933Y-114695500D01*
X108147239Y-114695500D01*
X108160335Y-114720000D01*
X108130498Y-114775820D01*
X108094188Y-114895518D01*
X108081928Y-115020000D01*
X108085000Y-115284250D01*
X108243750Y-115443000D01*
X109093000Y-115443000D01*
X109093000Y-115423000D01*
X109347000Y-115423000D01*
X109347000Y-115443000D01*
X110196250Y-115443000D01*
X110355000Y-115284250D01*
X110358072Y-115020000D01*
X110345812Y-114895518D01*
X110309502Y-114775820D01*
X110279665Y-114720000D01*
X110292761Y-114695500D01*
X111242068Y-114695500D01*
X113391611Y-116845045D01*
X113417459Y-116876541D01*
X113448955Y-116902389D01*
X113448958Y-116902392D01*
X113543157Y-116979699D01*
X113657794Y-117040974D01*
X113686566Y-117056353D01*
X113842174Y-117103556D01*
X113963447Y-117115500D01*
X113963449Y-117115500D01*
X114004000Y-117119494D01*
X114044550Y-117115500D01*
X114436928Y-117115500D01*
X114436928Y-118185000D01*
X114449188Y-118309482D01*
X114485498Y-118429180D01*
X114544463Y-118539494D01*
X114623815Y-118636185D01*
X114720506Y-118715537D01*
X114830820Y-118774502D01*
X114950518Y-118810812D01*
X115075000Y-118823072D01*
X116065000Y-118823072D01*
X116189482Y-118810812D01*
X116309180Y-118774502D01*
X116419494Y-118715537D01*
X116516185Y-118636185D01*
X116595537Y-118539494D01*
X116654502Y-118429180D01*
X116690812Y-118309482D01*
X116703072Y-118185000D01*
X116976928Y-118185000D01*
X116989188Y-118309482D01*
X117025498Y-118429180D01*
X117084463Y-118539494D01*
X117163815Y-118636185D01*
X117260506Y-118715537D01*
X117370820Y-118774502D01*
X117490518Y-118810812D01*
X117615000Y-118823072D01*
X117824250Y-118820000D01*
X117983000Y-118661250D01*
X117983000Y-116417000D01*
X118237000Y-116417000D01*
X118237000Y-118661250D01*
X118395750Y-118820000D01*
X118605000Y-118823072D01*
X118729482Y-118810812D01*
X118849180Y-118774502D01*
X118959494Y-118715537D01*
X119056185Y-118636185D01*
X119135537Y-118539494D01*
X119194502Y-118429180D01*
X119230812Y-118309482D01*
X119243072Y-118185000D01*
X119240000Y-116575750D01*
X119081250Y-116417000D01*
X118237000Y-116417000D01*
X117983000Y-116417000D01*
X117138750Y-116417000D01*
X116980000Y-116575750D01*
X116976928Y-118185000D01*
X116703072Y-118185000D01*
X116703072Y-114395000D01*
X116976928Y-114395000D01*
X116980000Y-116004250D01*
X117138750Y-116163000D01*
X117983000Y-116163000D01*
X117983000Y-113918750D01*
X118237000Y-113918750D01*
X118237000Y-116163000D01*
X119081250Y-116163000D01*
X119240000Y-116004250D01*
X119243072Y-114395000D01*
X119230812Y-114270518D01*
X119194502Y-114150820D01*
X119135537Y-114040506D01*
X119056185Y-113943815D01*
X118959494Y-113864463D01*
X118849180Y-113805498D01*
X118729482Y-113769188D01*
X118605000Y-113756928D01*
X118395750Y-113760000D01*
X118237000Y-113918750D01*
X117983000Y-113918750D01*
X117824250Y-113760000D01*
X117615000Y-113756928D01*
X117490518Y-113769188D01*
X117370820Y-113805498D01*
X117260506Y-113864463D01*
X117163815Y-113943815D01*
X117084463Y-114040506D01*
X117025498Y-114150820D01*
X116989188Y-114270518D01*
X116976928Y-114395000D01*
X116703072Y-114395000D01*
X116690812Y-114270518D01*
X116654502Y-114150820D01*
X116595537Y-114040506D01*
X116516185Y-113943815D01*
X116419494Y-113864463D01*
X116309180Y-113805498D01*
X116189482Y-113769188D01*
X116065000Y-113756928D01*
X115075000Y-113756928D01*
X114950518Y-113769188D01*
X114830820Y-113805498D01*
X114720506Y-113864463D01*
X114623815Y-113943815D01*
X114544463Y-114040506D01*
X114485498Y-114150820D01*
X114449188Y-114270518D01*
X114436928Y-114395000D01*
X114436928Y-115464500D01*
X114345934Y-115464500D01*
X112196398Y-113314966D01*
X112170541Y-113283459D01*
X112044842Y-113180301D01*
X111901434Y-113103647D01*
X111745826Y-113056444D01*
X111624553Y-113044500D01*
X111624550Y-113044500D01*
X111584000Y-113040506D01*
X111543450Y-113044500D01*
X110292761Y-113044500D01*
X110250537Y-112965506D01*
X110171185Y-112868815D01*
X110074494Y-112789463D01*
X109964180Y-112730498D01*
X109844482Y-112694188D01*
X109720000Y-112681928D01*
X108720000Y-112681928D01*
X108595518Y-112694188D01*
X108475820Y-112730498D01*
X108365506Y-112789463D01*
X108268815Y-112868815D01*
X108189463Y-112965506D01*
X108147239Y-113044500D01*
X107404550Y-113044500D01*
X107363999Y-113040506D01*
X107323449Y-113044500D01*
X107323447Y-113044500D01*
X107202174Y-113056444D01*
X107046566Y-113103647D01*
X106903157Y-113180301D01*
X106841596Y-113230823D01*
X106777459Y-113283459D01*
X106751606Y-113314961D01*
X106124961Y-113941607D01*
X106093460Y-113967459D01*
X106067609Y-113998959D01*
X105990301Y-114093158D01*
X105913647Y-114236567D01*
X105866445Y-114392174D01*
X105850506Y-114554000D01*
X105854501Y-114594560D01*
X105854500Y-117941693D01*
X105753018Y-117951688D01*
X105633320Y-117987998D01*
X105523006Y-118046963D01*
X105426315Y-118126315D01*
X105346963Y-118223006D01*
X105287998Y-118333320D01*
X105251688Y-118453018D01*
X105239428Y-118577500D01*
X104850000Y-118577500D01*
X104850000Y-101040000D01*
X112390627Y-101040000D01*
X112335506Y-101069463D01*
%TA.AperFunction,Conductor*%
D22*
G36*
X112335506Y-101069463D02*
G01*
X112238815Y-101148815D01*
X112159463Y-101245506D01*
X112100498Y-101355820D01*
X112064188Y-101475518D01*
X112051928Y-101600000D01*
X112051928Y-109220000D01*
X112064188Y-109344482D01*
X112100498Y-109464180D01*
X112159463Y-109574494D01*
X112238815Y-109671185D01*
X112335506Y-109750537D01*
X112445820Y-109809502D01*
X112565518Y-109845812D01*
X112690000Y-109858072D01*
X123530000Y-109858072D01*
X123654482Y-109845812D01*
X123774180Y-109809502D01*
X123884494Y-109750537D01*
X123981185Y-109671185D01*
X124060537Y-109574494D01*
X124119502Y-109464180D01*
X124155812Y-109344482D01*
X124168072Y-109220000D01*
X124168072Y-101600000D01*
X124155812Y-101475518D01*
X124119502Y-101355820D01*
X124060537Y-101245506D01*
X123981185Y-101148815D01*
X123884494Y-101069463D01*
X123829373Y-101040000D01*
X127560001Y-101040000D01*
X127560000Y-133910000D01*
X104850000Y-133910000D01*
X104850000Y-132882500D01*
X110319428Y-132882500D01*
X110331688Y-133006982D01*
X110367998Y-133126680D01*
X110426963Y-133236994D01*
X110506315Y-133333685D01*
X110603006Y-133413037D01*
X110713320Y-133472002D01*
X110833018Y-133508312D01*
X110957500Y-133520572D01*
X111474250Y-133517500D01*
X111633000Y-133358750D01*
X111633000Y-132207000D01*
X110481250Y-132207000D01*
X110322500Y-132365750D01*
X110319428Y-132882500D01*
X104850000Y-132882500D01*
X104850000Y-131277500D01*
X110319428Y-131277500D01*
X110322500Y-131794250D01*
X110481250Y-131953000D01*
X111633000Y-131953000D01*
X111633000Y-130801250D01*
X111887000Y-130801250D01*
X111887000Y-131953000D01*
X111907000Y-131953000D01*
X111907000Y-132207000D01*
X111887000Y-132207000D01*
X111887000Y-133358750D01*
X112045750Y-133517500D01*
X112562500Y-133520572D01*
X112686982Y-133508312D01*
X112806680Y-133472002D01*
X112916994Y-133413037D01*
X113013685Y-133333685D01*
X113093037Y-133236994D01*
X113152002Y-133126680D01*
X113188312Y-133006982D01*
X113188826Y-133001758D01*
X113383647Y-133196579D01*
X113619089Y-133353896D01*
X113880697Y-133462257D01*
X114158419Y-133517500D01*
X114441581Y-133517500D01*
X114719303Y-133462257D01*
X114980911Y-133353896D01*
X115216353Y-133196579D01*
X115416579Y-132996353D01*
X115570000Y-132766742D01*
X115723421Y-132996353D01*
X115923647Y-133196579D01*
X116159089Y-133353896D01*
X116420697Y-133462257D01*
X116698419Y-133517500D01*
X116981581Y-133517500D01*
X117259303Y-133462257D01*
X117520911Y-133353896D01*
X117756353Y-133196579D01*
X117956579Y-132996353D01*
X118110000Y-132766742D01*
X118263421Y-132996353D01*
X118463647Y-133196579D01*
X118699089Y-133353896D01*
X118960697Y-133462257D01*
X119238419Y-133517500D01*
X119521581Y-133517500D01*
X119799303Y-133462257D01*
X120060911Y-133353896D01*
X120296353Y-133196579D01*
X120496579Y-132996353D01*
X120653896Y-132760911D01*
X120762257Y-132499303D01*
X120817500Y-132221581D01*
X120817500Y-131938419D01*
X120781283Y-131756347D01*
X121217630Y-131320000D01*
X122561928Y-131320000D01*
X122574188Y-131444482D01*
X122610498Y-131564180D01*
X122669463Y-131674494D01*
X122748815Y-131771185D01*
X122845506Y-131850537D01*
X122955820Y-131909502D01*
X123075518Y-131945812D01*
X123200000Y-131958072D01*
X123384250Y-131955000D01*
X123543000Y-131796250D01*
X123543000Y-130937000D01*
X122723750Y-130937000D01*
X122565000Y-131095750D01*
X122561928Y-131320000D01*
X121217630Y-131320000D01*
X121670347Y-130867283D01*
X121699422Y-130843422D01*
X121778584Y-130746963D01*
X121794645Y-130727393D01*
X121865401Y-130595016D01*
X121865402Y-130595015D01*
X121908974Y-130451378D01*
X121920000Y-130339426D01*
X121920000Y-130339423D01*
X121923686Y-130302000D01*
X121923490Y-130300000D01*
X122561928Y-130300000D01*
X122565000Y-130524250D01*
X122723750Y-130683000D01*
X123543000Y-130683000D01*
X123543000Y-129823750D01*
X123384250Y-129665000D01*
X123200000Y-129661928D01*
X123075518Y-129674188D01*
X122955820Y-129710498D01*
X122845506Y-129769463D01*
X122748815Y-129848815D01*
X122669463Y-129945506D01*
X122610498Y-130055820D01*
X122574188Y-130175518D01*
X122561928Y-130300000D01*
X121923490Y-130300000D01*
X121920000Y-130264577D01*
X121920000Y-129051000D01*
X122005264Y-129051000D01*
X122005692Y-129056400D01*
X122042293Y-129176010D01*
X122101525Y-129286180D01*
X122181111Y-129382679D01*
X122277995Y-129461796D01*
X122388452Y-129520493D01*
X122508238Y-129556512D01*
X122632749Y-129568470D01*
X123336050Y-129565400D01*
X123494800Y-129406650D01*
X123494800Y-128778000D01*
X123474800Y-128778000D01*
X123474800Y-128524000D01*
X123494800Y-128524000D01*
X123494800Y-128504000D01*
X123748800Y-128504000D01*
X123748800Y-128524000D01*
X123768800Y-128524000D01*
X123768800Y-128778000D01*
X123748800Y-128778000D01*
X123748800Y-129406650D01*
X123907550Y-129565400D01*
X124488000Y-129567934D01*
X124488000Y-129736059D01*
X124460000Y-129751025D01*
X124384180Y-129710498D01*
X124264482Y-129674188D01*
X124140000Y-129661928D01*
X123955750Y-129665000D01*
X123797000Y-129823750D01*
X123797000Y-130683000D01*
X123817000Y-130683000D01*
X123817000Y-130937000D01*
X123797000Y-130937000D01*
X123797000Y-131796250D01*
X123955750Y-131955000D01*
X124140000Y-131958072D01*
X124264482Y-131945812D01*
X124384180Y-131909502D01*
X124460000Y-131868975D01*
X124535820Y-131909502D01*
X124655518Y-131945812D01*
X124780000Y-131958072D01*
X125720000Y-131958072D01*
X125844482Y-131945812D01*
X125964180Y-131909502D01*
X126074494Y-131850537D01*
X126171185Y-131771185D01*
X126250537Y-131674494D01*
X126309502Y-131564180D01*
X126345812Y-131444482D01*
X126358072Y-131320000D01*
X126358072Y-130300000D01*
X126345812Y-130175518D01*
X126309502Y-130055820D01*
X126250537Y-129945506D01*
X126171185Y-129848815D01*
X126074494Y-129769463D01*
X126012000Y-129736059D01*
X126012000Y-127573422D01*
X126015686Y-127535999D01*
X126009998Y-127478249D01*
X126000974Y-127386622D01*
X125957402Y-127242985D01*
X125886645Y-127110608D01*
X125791422Y-126994578D01*
X125762346Y-126970716D01*
X125662460Y-126870830D01*
X125752378Y-126861974D01*
X125896015Y-126818402D01*
X126028392Y-126747645D01*
X126144422Y-126652422D01*
X126168284Y-126623346D01*
X126496346Y-126295284D01*
X126525422Y-126271422D01*
X126620645Y-126155392D01*
X126691402Y-126023015D01*
X126734974Y-125879378D01*
X126746000Y-125767426D01*
X126746000Y-125767424D01*
X126749686Y-125730001D01*
X126746000Y-125692578D01*
X126746000Y-117131423D01*
X126749686Y-117094000D01*
X126745978Y-117056353D01*
X126734974Y-116944622D01*
X126691402Y-116800985D01*
X126645652Y-116715392D01*
X126620645Y-116668607D01*
X126570440Y-116607433D01*
X126525422Y-116552578D01*
X126496347Y-116528717D01*
X125745284Y-115777654D01*
X125721422Y-115748578D01*
X125605392Y-115653355D01*
X125473015Y-115582598D01*
X125329378Y-115539026D01*
X125217426Y-115528000D01*
X125217423Y-115528000D01*
X125180000Y-115524314D01*
X125142577Y-115528000D01*
X121783072Y-115528000D01*
X121783072Y-114395000D01*
X121770812Y-114270518D01*
X121734502Y-114150820D01*
X121675537Y-114040506D01*
X121596185Y-113943815D01*
X121499494Y-113864463D01*
X121389180Y-113805498D01*
X121269482Y-113769188D01*
X121145000Y-113756928D01*
X120155000Y-113756928D01*
X120030518Y-113769188D01*
X119910820Y-113805498D01*
X119800506Y-113864463D01*
X119703815Y-113943815D01*
X119624463Y-114040506D01*
X119565498Y-114150820D01*
X119529188Y-114270518D01*
X119516928Y-114395000D01*
X119516928Y-118185000D01*
X119529188Y-118309482D01*
X119565498Y-118429180D01*
X119624463Y-118539494D01*
X119703815Y-118636185D01*
X119800506Y-118715537D01*
X119888000Y-118762304D01*
X119888000Y-119064369D01*
X117794370Y-121158000D01*
X115663415Y-121158000D01*
X115662412Y-121147818D01*
X115626102Y-121028120D01*
X115567137Y-120917806D01*
X115487785Y-120821115D01*
X115391094Y-120741763D01*
X115280780Y-120682798D01*
X115161082Y-120646488D01*
X115036600Y-120634228D01*
X114071400Y-120634228D01*
X113946918Y-120646488D01*
X113827220Y-120682798D01*
X113716906Y-120741763D01*
X113620215Y-120821115D01*
X113540863Y-120917806D01*
X113481898Y-121028120D01*
X113445588Y-121147818D01*
X113433328Y-121272300D01*
X113433328Y-122567700D01*
X113445588Y-122692182D01*
X113481898Y-122811880D01*
X113540863Y-122922194D01*
X113620215Y-123018885D01*
X113716906Y-123098237D01*
X113785479Y-123134891D01*
X113367649Y-123552721D01*
X113338579Y-123576578D01*
X113314722Y-123605648D01*
X113314721Y-123605649D01*
X113243355Y-123692608D01*
X113172599Y-123824985D01*
X113129027Y-123968622D01*
X113114314Y-124118000D01*
X113114874Y-124123685D01*
X113085820Y-124132498D01*
X113030000Y-124162335D01*
X112974180Y-124132498D01*
X112854482Y-124096188D01*
X112730000Y-124083928D01*
X112465750Y-124087000D01*
X112307000Y-124245750D01*
X112307000Y-125095000D01*
X112327000Y-125095000D01*
X112327000Y-125349000D01*
X112307000Y-125349000D01*
X112307000Y-126198250D01*
X112465750Y-126357000D01*
X112730000Y-126360072D01*
X112854482Y-126347812D01*
X112974180Y-126311502D01*
X113030000Y-126281665D01*
X113085820Y-126311502D01*
X113205518Y-126347812D01*
X113330000Y-126360072D01*
X113862298Y-126360072D01*
X113787649Y-126434721D01*
X113758579Y-126458578D01*
X113734722Y-126487648D01*
X113734721Y-126487649D01*
X113663355Y-126574608D01*
X113592599Y-126706985D01*
X113549027Y-126850622D01*
X113534314Y-127000000D01*
X113538001Y-127037433D01*
X113538000Y-130860286D01*
X113383647Y-130963421D01*
X113188826Y-131158242D01*
X113188312Y-131153018D01*
X113152002Y-131033320D01*
X113093037Y-130923006D01*
X113013685Y-130826315D01*
X112916994Y-130746963D01*
X112806680Y-130687998D01*
X112686982Y-130651688D01*
X112562500Y-130639428D01*
X112045750Y-130642500D01*
X111887000Y-130801250D01*
X111633000Y-130801250D01*
X111474250Y-130642500D01*
X110957500Y-130639428D01*
X110833018Y-130651688D01*
X110713320Y-130687998D01*
X110603006Y-130746963D01*
X110506315Y-130826315D01*
X110426963Y-130923006D01*
X110367998Y-131033320D01*
X110331688Y-131153018D01*
X110319428Y-131277500D01*
X104850000Y-131277500D01*
X104850000Y-127994487D01*
X105865118Y-127994487D01*
X105937004Y-128238712D01*
X106192941Y-128359862D01*
X106467596Y-128428752D01*
X106750413Y-128442738D01*
X107030524Y-128401279D01*
X107297165Y-128305970D01*
X107422996Y-128238712D01*
X107494882Y-127994487D01*
X106680000Y-127179605D01*
X105865118Y-127994487D01*
X104850000Y-127994487D01*
X104850000Y-127070413D01*
X105237262Y-127070413D01*
X105278721Y-127350524D01*
X105374030Y-127617165D01*
X105441288Y-127742996D01*
X105685513Y-127814882D01*
X106500395Y-127000000D01*
X106859605Y-127000000D01*
X107674487Y-127814882D01*
X107918712Y-127742996D01*
X108039862Y-127487059D01*
X108108752Y-127212404D01*
X108122738Y-126929587D01*
X108081279Y-126649476D01*
X107985970Y-126382835D01*
X107918712Y-126257004D01*
X107674487Y-126185118D01*
X106859605Y-127000000D01*
X106500395Y-127000000D01*
X105685513Y-126185118D01*
X105441288Y-126257004D01*
X105320138Y-126512941D01*
X105251248Y-126787596D01*
X105237262Y-127070413D01*
X104850000Y-127070413D01*
X104850000Y-125454487D01*
X105865118Y-125454487D01*
X105937004Y-125698712D01*
X105999091Y-125728102D01*
X105937004Y-125761288D01*
X105865118Y-126005513D01*
X106680000Y-126820395D01*
X107494882Y-126005513D01*
X107422996Y-125761288D01*
X107360909Y-125731898D01*
X107379426Y-125722000D01*
X110991928Y-125722000D01*
X111004188Y-125846482D01*
X111040498Y-125966180D01*
X111099463Y-126076494D01*
X111178815Y-126173185D01*
X111275506Y-126252537D01*
X111385820Y-126311502D01*
X111505518Y-126347812D01*
X111630000Y-126360072D01*
X111894250Y-126357000D01*
X112053000Y-126198250D01*
X112053000Y-125349000D01*
X111153750Y-125349000D01*
X110995000Y-125507750D01*
X110991928Y-125722000D01*
X107379426Y-125722000D01*
X107422996Y-125698712D01*
X107494882Y-125454487D01*
X106680000Y-124639605D01*
X105865118Y-125454487D01*
X104850000Y-125454487D01*
X104850000Y-124530413D01*
X105237262Y-124530413D01*
X105278721Y-124810524D01*
X105374030Y-125077165D01*
X105441288Y-125202996D01*
X105685513Y-125274882D01*
X106500395Y-124460000D01*
X106859605Y-124460000D01*
X107674487Y-125274882D01*
X107918712Y-125202996D01*
X108039862Y-124947059D01*
X108096312Y-124722000D01*
X110991928Y-124722000D01*
X110995000Y-124936250D01*
X111153750Y-125095000D01*
X112053000Y-125095000D01*
X112053000Y-124245750D01*
X111894250Y-124087000D01*
X111630000Y-124083928D01*
X111505518Y-124096188D01*
X111385820Y-124132498D01*
X111275506Y-124191463D01*
X111178815Y-124270815D01*
X111099463Y-124367506D01*
X111040498Y-124477820D01*
X111004188Y-124597518D01*
X110991928Y-124722000D01*
X108096312Y-124722000D01*
X108108752Y-124672404D01*
X108122738Y-124389587D01*
X108081279Y-124109476D01*
X107985970Y-123842835D01*
X107918712Y-123717004D01*
X107674487Y-123645118D01*
X106859605Y-124460000D01*
X106500395Y-124460000D01*
X105685513Y-123645118D01*
X105441288Y-123717004D01*
X105320138Y-123972941D01*
X105251248Y-124247596D01*
X105237262Y-124530413D01*
X104850000Y-124530413D01*
X104850000Y-118577500D01*
X105239428Y-118577500D01*
X105239428Y-120182500D01*
X105251688Y-120306982D01*
X105287998Y-120426680D01*
X105346963Y-120536994D01*
X105426315Y-120633685D01*
X105523006Y-120713037D01*
X105633320Y-120772002D01*
X105753018Y-120808312D01*
X105758242Y-120808826D01*
X105563421Y-121003647D01*
X105406104Y-121239089D01*
X105297743Y-121500697D01*
X105242500Y-121778419D01*
X105242500Y-122061581D01*
X105297743Y-122339303D01*
X105406104Y-122600911D01*
X105563421Y-122836353D01*
X105763647Y-123036579D01*
X105994272Y-123190678D01*
X105937004Y-123221288D01*
X105865118Y-123465513D01*
X106680000Y-124280395D01*
X107494882Y-123465513D01*
X107422996Y-123221288D01*
X107362660Y-123192727D01*
X107596353Y-123036579D01*
X107796579Y-122836353D01*
X107899714Y-122682000D01*
X108396370Y-122682000D01*
X108693000Y-122978631D01*
X108693000Y-123037939D01*
X108732774Y-123237898D01*
X108810795Y-123426256D01*
X108924063Y-123595774D01*
X109068226Y-123739937D01*
X109237744Y-123853205D01*
X109426102Y-123931226D01*
X109626061Y-123971000D01*
X109829939Y-123971000D01*
X110029898Y-123931226D01*
X110218256Y-123853205D01*
X110387774Y-123739937D01*
X110531937Y-123595774D01*
X110645205Y-123426256D01*
X110723226Y-123237898D01*
X110743116Y-123137904D01*
X110779220Y-123157202D01*
X110898918Y-123193512D01*
X111023400Y-123205772D01*
X111220250Y-123202700D01*
X111379000Y-123043950D01*
X111379000Y-122047000D01*
X111633000Y-122047000D01*
X111633000Y-123043950D01*
X111791750Y-123202700D01*
X111988600Y-123205772D01*
X112113082Y-123193512D01*
X112232780Y-123157202D01*
X112343094Y-123098237D01*
X112439785Y-123018885D01*
X112519137Y-122922194D01*
X112578102Y-122811880D01*
X112614412Y-122692182D01*
X112626672Y-122567700D01*
X112623600Y-122205750D01*
X112464850Y-122047000D01*
X111633000Y-122047000D01*
X111379000Y-122047000D01*
X110547150Y-122047000D01*
X110424931Y-122169220D01*
X110387774Y-122132063D01*
X110218256Y-122018795D01*
X110029898Y-121940774D01*
X109829939Y-121901000D01*
X109770631Y-121901000D01*
X109277284Y-121407654D01*
X109253422Y-121378578D01*
X109137392Y-121283355D01*
X109116710Y-121272300D01*
X110385328Y-121272300D01*
X110388400Y-121634250D01*
X110547150Y-121793000D01*
X111379000Y-121793000D01*
X111379000Y-120796050D01*
X111633000Y-120796050D01*
X111633000Y-121793000D01*
X112464850Y-121793000D01*
X112623600Y-121634250D01*
X112626672Y-121272300D01*
X112614412Y-121147818D01*
X112578102Y-121028120D01*
X112519137Y-120917806D01*
X112439785Y-120821115D01*
X112343094Y-120741763D01*
X112232780Y-120682798D01*
X112113082Y-120646488D01*
X111988600Y-120634228D01*
X111791750Y-120637300D01*
X111633000Y-120796050D01*
X111379000Y-120796050D01*
X111220250Y-120637300D01*
X111023400Y-120634228D01*
X110898918Y-120646488D01*
X110779220Y-120682798D01*
X110668906Y-120741763D01*
X110572215Y-120821115D01*
X110492863Y-120917806D01*
X110433898Y-121028120D01*
X110397588Y-121147818D01*
X110385328Y-121272300D01*
X109116710Y-121272300D01*
X109005015Y-121212598D01*
X108861378Y-121169026D01*
X108749426Y-121158000D01*
X108749423Y-121158000D01*
X108712000Y-121154314D01*
X108674577Y-121158000D01*
X107899714Y-121158000D01*
X107796579Y-121003647D01*
X107601758Y-120808826D01*
X107606982Y-120808312D01*
X107726680Y-120772002D01*
X107836994Y-120713037D01*
X107933685Y-120633685D01*
X108013037Y-120536994D01*
X108072002Y-120426680D01*
X108108312Y-120306982D01*
X108120572Y-120182500D01*
X108120572Y-118577500D01*
X108108312Y-118453018D01*
X108072002Y-118333320D01*
X108013037Y-118223006D01*
X107933685Y-118126315D01*
X107836994Y-118046963D01*
X107726680Y-117987998D01*
X107606982Y-117951688D01*
X107505500Y-117941693D01*
X107505500Y-116120000D01*
X108081928Y-116120000D01*
X108094188Y-116244482D01*
X108130498Y-116364180D01*
X108189463Y-116474494D01*
X108268815Y-116571185D01*
X108365506Y-116650537D01*
X108475820Y-116709502D01*
X108595518Y-116745812D01*
X108720000Y-116758072D01*
X108934250Y-116755000D01*
X109093000Y-116596250D01*
X109093000Y-115697000D01*
X109347000Y-115697000D01*
X109347000Y-116596250D01*
X109505750Y-116755000D01*
X109720000Y-116758072D01*
X109844482Y-116745812D01*
X109964180Y-116709502D01*
X110074494Y-116650537D01*
X110171185Y-116571185D01*
X110250537Y-116474494D01*
X110309502Y-116364180D01*
X110345812Y-116244482D01*
X110358072Y-116120000D01*
X110355000Y-115855750D01*
X110196250Y-115697000D01*
X109347000Y-115697000D01*
X109093000Y-115697000D01*
X108243750Y-115697000D01*
X108085000Y-115855750D01*
X108081928Y-116120000D01*
X107505500Y-116120000D01*
X107505500Y-114895932D01*
X107705933Y-114695500D01*
X108147239Y-114695500D01*
X108160335Y-114720000D01*
X108130498Y-114775820D01*
X108094188Y-114895518D01*
X108081928Y-115020000D01*
X108085000Y-115284250D01*
X108243750Y-115443000D01*
X109093000Y-115443000D01*
X109093000Y-115423000D01*
X109347000Y-115423000D01*
X109347000Y-115443000D01*
X110196250Y-115443000D01*
X110355000Y-115284250D01*
X110358072Y-115020000D01*
X110345812Y-114895518D01*
X110309502Y-114775820D01*
X110279665Y-114720000D01*
X110292761Y-114695500D01*
X111242068Y-114695500D01*
X113391611Y-116845045D01*
X113417459Y-116876541D01*
X113448955Y-116902389D01*
X113448958Y-116902392D01*
X113543157Y-116979699D01*
X113657794Y-117040974D01*
X113686566Y-117056353D01*
X113842174Y-117103556D01*
X113963447Y-117115500D01*
X113963449Y-117115500D01*
X114004000Y-117119494D01*
X114044550Y-117115500D01*
X114436928Y-117115500D01*
X114436928Y-118185000D01*
X114449188Y-118309482D01*
X114485498Y-118429180D01*
X114544463Y-118539494D01*
X114623815Y-118636185D01*
X114720506Y-118715537D01*
X114830820Y-118774502D01*
X114950518Y-118810812D01*
X115075000Y-118823072D01*
X116065000Y-118823072D01*
X116189482Y-118810812D01*
X116309180Y-118774502D01*
X116419494Y-118715537D01*
X116516185Y-118636185D01*
X116595537Y-118539494D01*
X116654502Y-118429180D01*
X116690812Y-118309482D01*
X116703072Y-118185000D01*
X116976928Y-118185000D01*
X116989188Y-118309482D01*
X117025498Y-118429180D01*
X117084463Y-118539494D01*
X117163815Y-118636185D01*
X117260506Y-118715537D01*
X117370820Y-118774502D01*
X117490518Y-118810812D01*
X117615000Y-118823072D01*
X117824250Y-118820000D01*
X117983000Y-118661250D01*
X117983000Y-116417000D01*
X118237000Y-116417000D01*
X118237000Y-118661250D01*
X118395750Y-118820000D01*
X118605000Y-118823072D01*
X118729482Y-118810812D01*
X118849180Y-118774502D01*
X118959494Y-118715537D01*
X119056185Y-118636185D01*
X119135537Y-118539494D01*
X119194502Y-118429180D01*
X119230812Y-118309482D01*
X119243072Y-118185000D01*
X119240000Y-116575750D01*
X119081250Y-116417000D01*
X118237000Y-116417000D01*
X117983000Y-116417000D01*
X117138750Y-116417000D01*
X116980000Y-116575750D01*
X116976928Y-118185000D01*
X116703072Y-118185000D01*
X116703072Y-114395000D01*
X116976928Y-114395000D01*
X116980000Y-116004250D01*
X117138750Y-116163000D01*
X117983000Y-116163000D01*
X117983000Y-113918750D01*
X118237000Y-113918750D01*
X118237000Y-116163000D01*
X119081250Y-116163000D01*
X119240000Y-116004250D01*
X119243072Y-114395000D01*
X119230812Y-114270518D01*
X119194502Y-114150820D01*
X119135537Y-114040506D01*
X119056185Y-113943815D01*
X118959494Y-113864463D01*
X118849180Y-113805498D01*
X118729482Y-113769188D01*
X118605000Y-113756928D01*
X118395750Y-113760000D01*
X118237000Y-113918750D01*
X117983000Y-113918750D01*
X117824250Y-113760000D01*
X117615000Y-113756928D01*
X117490518Y-113769188D01*
X117370820Y-113805498D01*
X117260506Y-113864463D01*
X117163815Y-113943815D01*
X117084463Y-114040506D01*
X117025498Y-114150820D01*
X116989188Y-114270518D01*
X116976928Y-114395000D01*
X116703072Y-114395000D01*
X116690812Y-114270518D01*
X116654502Y-114150820D01*
X116595537Y-114040506D01*
X116516185Y-113943815D01*
X116419494Y-113864463D01*
X116309180Y-113805498D01*
X116189482Y-113769188D01*
X116065000Y-113756928D01*
X115075000Y-113756928D01*
X114950518Y-113769188D01*
X114830820Y-113805498D01*
X114720506Y-113864463D01*
X114623815Y-113943815D01*
X114544463Y-114040506D01*
X114485498Y-114150820D01*
X114449188Y-114270518D01*
X114436928Y-114395000D01*
X114436928Y-115464500D01*
X114345934Y-115464500D01*
X112196398Y-113314966D01*
X112170541Y-113283459D01*
X112044842Y-113180301D01*
X111901434Y-113103647D01*
X111745826Y-113056444D01*
X111624553Y-113044500D01*
X111624550Y-113044500D01*
X111584000Y-113040506D01*
X111543450Y-113044500D01*
X110292761Y-113044500D01*
X110250537Y-112965506D01*
X110171185Y-112868815D01*
X110074494Y-112789463D01*
X109964180Y-112730498D01*
X109844482Y-112694188D01*
X109720000Y-112681928D01*
X108720000Y-112681928D01*
X108595518Y-112694188D01*
X108475820Y-112730498D01*
X108365506Y-112789463D01*
X108268815Y-112868815D01*
X108189463Y-112965506D01*
X108147239Y-113044500D01*
X107404550Y-113044500D01*
X107363999Y-113040506D01*
X107323449Y-113044500D01*
X107323447Y-113044500D01*
X107202174Y-113056444D01*
X107046566Y-113103647D01*
X106903157Y-113180301D01*
X106841596Y-113230823D01*
X106777459Y-113283459D01*
X106751606Y-113314961D01*
X106124961Y-113941607D01*
X106093460Y-113967459D01*
X106067609Y-113998959D01*
X105990301Y-114093158D01*
X105913647Y-114236567D01*
X105866445Y-114392174D01*
X105850506Y-114554000D01*
X105854501Y-114594560D01*
X105854500Y-117941693D01*
X105753018Y-117951688D01*
X105633320Y-117987998D01*
X105523006Y-118046963D01*
X105426315Y-118126315D01*
X105346963Y-118223006D01*
X105287998Y-118333320D01*
X105251688Y-118453018D01*
X105239428Y-118577500D01*
X104850000Y-118577500D01*
X104850000Y-101040000D01*
X112390627Y-101040000D01*
X112335506Y-101069463D01*
G37*
%TD.AperFunction*%
D21*
X120979820Y-123273502D02*
X121099518Y-123309812D01*
X121224000Y-123322072D01*
X121764442Y-123322072D01*
X122408079Y-123965710D01*
X122387020Y-123972098D01*
X122276706Y-124031063D01*
X122180015Y-124110415D01*
X122100663Y-124207106D01*
X122041698Y-124317420D01*
X122005388Y-124437118D01*
X121993128Y-124561600D01*
X121993128Y-125120400D01*
X122005388Y-125244882D01*
X122036972Y-125349000D01*
X121830423Y-125349000D01*
X121793000Y-125345314D01*
X121755577Y-125349000D01*
X121755574Y-125349000D01*
X121643622Y-125360026D01*
X121499985Y-125403598D01*
X121438364Y-125436535D01*
X121367607Y-125474355D01*
X121326916Y-125507750D01*
X121251578Y-125569578D01*
X121227716Y-125598654D01*
X120645649Y-126180721D01*
X120616579Y-126204578D01*
X120592722Y-126233648D01*
X120592721Y-126233649D01*
X120521355Y-126320608D01*
X120450599Y-126452985D01*
X120407027Y-126596622D01*
X120392314Y-126746000D01*
X120396001Y-126783433D01*
X120396000Y-129986370D01*
X119703653Y-130678717D01*
X119521581Y-130642500D01*
X119238419Y-130642500D01*
X118960697Y-130697743D01*
X118699089Y-130806104D01*
X118463647Y-130963421D01*
X118263421Y-131163647D01*
X118110000Y-131393258D01*
X117956579Y-131163647D01*
X117756353Y-130963421D01*
X117602000Y-130860286D01*
X117602000Y-129558564D01*
X117705149Y-129568470D01*
X118408450Y-129565400D01*
X118567200Y-129406650D01*
X118567200Y-128778000D01*
X118821200Y-128778000D01*
X118821200Y-129406650D01*
X118979950Y-129565400D01*
X119683251Y-129568470D01*
X119807762Y-129556512D01*
X119927548Y-129520493D01*
X120038005Y-129461796D01*
X120134889Y-129382679D01*
X120214475Y-129286180D01*
X120273707Y-129176010D01*
X120310308Y-129056400D01*
X120319800Y-128936750D01*
X120161050Y-128778000D01*
X118821200Y-128778000D01*
X118567200Y-128778000D01*
X118547200Y-128778000D01*
X118547200Y-128524000D01*
X118567200Y-128524000D01*
X118567200Y-128504000D01*
X118821200Y-128504000D01*
X118821200Y-128524000D01*
X120161050Y-128524000D01*
X120319800Y-128365250D01*
X120310308Y-128245600D01*
X120273707Y-128125990D01*
X120214515Y-128015895D01*
X120215337Y-128014894D01*
X120274302Y-127904580D01*
X120310612Y-127784882D01*
X120322872Y-127660400D01*
X120322872Y-127101600D01*
X120310612Y-126977118D01*
X120274302Y-126857420D01*
X120215337Y-126747106D01*
X120214429Y-126746000D01*
X120215337Y-126744894D01*
X120274302Y-126634580D01*
X120310612Y-126514882D01*
X120322872Y-126390400D01*
X120322872Y-125831600D01*
X120310612Y-125707118D01*
X120274302Y-125587420D01*
X120215337Y-125477106D01*
X120214429Y-125476000D01*
X120215337Y-125474894D01*
X120274302Y-125364580D01*
X120310612Y-125244882D01*
X120322872Y-125120400D01*
X120322872Y-124561600D01*
X120310612Y-124437118D01*
X120274302Y-124317420D01*
X120215337Y-124207106D01*
X120135985Y-124110415D01*
X120039294Y-124031063D01*
X119928980Y-123972098D01*
X119809282Y-123935788D01*
X119684800Y-123923528D01*
X119456200Y-123923528D01*
X119456200Y-123909430D01*
X120043559Y-123322072D01*
X120584000Y-123322072D01*
X120708482Y-123309812D01*
X120828180Y-123273502D01*
X120904000Y-123232975D01*
X120979820Y-123273502D01*
%TA.AperFunction,Conductor*%
D22*
G36*
X120979820Y-123273502D02*
G01*
X121099518Y-123309812D01*
X121224000Y-123322072D01*
X121764442Y-123322072D01*
X122408079Y-123965710D01*
X122387020Y-123972098D01*
X122276706Y-124031063D01*
X122180015Y-124110415D01*
X122100663Y-124207106D01*
X122041698Y-124317420D01*
X122005388Y-124437118D01*
X121993128Y-124561600D01*
X121993128Y-125120400D01*
X122005388Y-125244882D01*
X122036972Y-125349000D01*
X121830423Y-125349000D01*
X121793000Y-125345314D01*
X121755577Y-125349000D01*
X121755574Y-125349000D01*
X121643622Y-125360026D01*
X121499985Y-125403598D01*
X121438364Y-125436535D01*
X121367607Y-125474355D01*
X121326916Y-125507750D01*
X121251578Y-125569578D01*
X121227716Y-125598654D01*
X120645649Y-126180721D01*
X120616579Y-126204578D01*
X120592722Y-126233648D01*
X120592721Y-126233649D01*
X120521355Y-126320608D01*
X120450599Y-126452985D01*
X120407027Y-126596622D01*
X120392314Y-126746000D01*
X120396001Y-126783433D01*
X120396000Y-129986370D01*
X119703653Y-130678717D01*
X119521581Y-130642500D01*
X119238419Y-130642500D01*
X118960697Y-130697743D01*
X118699089Y-130806104D01*
X118463647Y-130963421D01*
X118263421Y-131163647D01*
X118110000Y-131393258D01*
X117956579Y-131163647D01*
X117756353Y-130963421D01*
X117602000Y-130860286D01*
X117602000Y-129558564D01*
X117705149Y-129568470D01*
X118408450Y-129565400D01*
X118567200Y-129406650D01*
X118567200Y-128778000D01*
X118821200Y-128778000D01*
X118821200Y-129406650D01*
X118979950Y-129565400D01*
X119683251Y-129568470D01*
X119807762Y-129556512D01*
X119927548Y-129520493D01*
X120038005Y-129461796D01*
X120134889Y-129382679D01*
X120214475Y-129286180D01*
X120273707Y-129176010D01*
X120310308Y-129056400D01*
X120319800Y-128936750D01*
X120161050Y-128778000D01*
X118821200Y-128778000D01*
X118567200Y-128778000D01*
X118547200Y-128778000D01*
X118547200Y-128524000D01*
X118567200Y-128524000D01*
X118567200Y-128504000D01*
X118821200Y-128504000D01*
X118821200Y-128524000D01*
X120161050Y-128524000D01*
X120319800Y-128365250D01*
X120310308Y-128245600D01*
X120273707Y-128125990D01*
X120214515Y-128015895D01*
X120215337Y-128014894D01*
X120274302Y-127904580D01*
X120310612Y-127784882D01*
X120322872Y-127660400D01*
X120322872Y-127101600D01*
X120310612Y-126977118D01*
X120274302Y-126857420D01*
X120215337Y-126747106D01*
X120214429Y-126746000D01*
X120215337Y-126744894D01*
X120274302Y-126634580D01*
X120310612Y-126514882D01*
X120322872Y-126390400D01*
X120322872Y-125831600D01*
X120310612Y-125707118D01*
X120274302Y-125587420D01*
X120215337Y-125477106D01*
X120214429Y-125476000D01*
X120215337Y-125474894D01*
X120274302Y-125364580D01*
X120310612Y-125244882D01*
X120322872Y-125120400D01*
X120322872Y-124561600D01*
X120310612Y-124437118D01*
X120274302Y-124317420D01*
X120215337Y-124207106D01*
X120135985Y-124110415D01*
X120039294Y-124031063D01*
X119928980Y-123972098D01*
X119809282Y-123935788D01*
X119684800Y-123923528D01*
X119456200Y-123923528D01*
X119456200Y-123909430D01*
X120043559Y-123322072D01*
X120584000Y-123322072D01*
X120708482Y-123309812D01*
X120828180Y-123273502D01*
X120904000Y-123232975D01*
X120979820Y-123273502D01*
G37*
%TD.AperFunction*%
%TD*%
M02*
