%TF.GenerationSoftware,KiCad,Pcbnew,5.1.10*%
%TF.CreationDate,2021-09-22T17:39:45-07:00*%
%TF.ProjectId,Instrumentation-Amplifier,496e7374-7275-46d6-956e-746174696f6e,2.0*%
%TF.SameCoordinates,Original*%
%TF.FileFunction,Legend,Top*%
%TF.FilePolarity,Positive*%
%FSLAX46Y46*%
G04 Gerber Fmt 4.6, Leading zero omitted, Abs format (unit mm)*
G04 Created by KiCad (PCBNEW 5.1.10) date 2021-09-22 17:39:45*
%MOMM*%
%LPD*%
G01*
G04 APERTURE LIST*
%ADD10C,0.076200*%
%ADD11C,0.101600*%
%ADD12C,0.010000*%
%ADD13C,0.127000*%
%ADD14C,0.120000*%
%ADD15C,0.200000*%
%ADD16C,0.400000*%
%ADD17C,0.150000*%
G04 APERTURE END LIST*
D10*
X105609571Y-102058409D02*
X105367666Y-102058409D01*
X105367666Y-101550409D01*
X105875666Y-101550409D02*
X105924047Y-101550409D01*
X105972428Y-101574600D01*
X105996619Y-101598790D01*
X106020809Y-101647171D01*
X106045000Y-101743933D01*
X106045000Y-101864885D01*
X106020809Y-101961647D01*
X105996619Y-102010028D01*
X105972428Y-102034219D01*
X105924047Y-102058409D01*
X105875666Y-102058409D01*
X105827285Y-102034219D01*
X105803095Y-102010028D01*
X105778904Y-101961647D01*
X105754714Y-101864885D01*
X105754714Y-101743933D01*
X105778904Y-101647171D01*
X105803095Y-101598790D01*
X105827285Y-101574600D01*
X105875666Y-101550409D01*
X106359476Y-101550409D02*
X106407857Y-101550409D01*
X106456238Y-101574600D01*
X106480428Y-101598790D01*
X106504619Y-101647171D01*
X106528809Y-101743933D01*
X106528809Y-101864885D01*
X106504619Y-101961647D01*
X106480428Y-102010028D01*
X106456238Y-102034219D01*
X106407857Y-102058409D01*
X106359476Y-102058409D01*
X106311095Y-102034219D01*
X106286904Y-102010028D01*
X106262714Y-101961647D01*
X106238523Y-101864885D01*
X106238523Y-101743933D01*
X106262714Y-101647171D01*
X106286904Y-101598790D01*
X106311095Y-101574600D01*
X106359476Y-101550409D01*
X106843285Y-101550409D02*
X106891666Y-101550409D01*
X106940047Y-101574600D01*
X106964238Y-101598790D01*
X106988428Y-101647171D01*
X107012619Y-101743933D01*
X107012619Y-101864885D01*
X106988428Y-101961647D01*
X106964238Y-102010028D01*
X106940047Y-102034219D01*
X106891666Y-102058409D01*
X106843285Y-102058409D01*
X106794904Y-102034219D01*
X106770714Y-102010028D01*
X106746523Y-101961647D01*
X106722333Y-101864885D01*
X106722333Y-101743933D01*
X106746523Y-101647171D01*
X106770714Y-101598790D01*
X106794904Y-101574600D01*
X106843285Y-101550409D01*
X107496428Y-102058409D02*
X107206142Y-102058409D01*
X107351285Y-102058409D02*
X107351285Y-101550409D01*
X107302904Y-101622980D01*
X107254523Y-101671361D01*
X107206142Y-101695552D01*
X108391476Y-102058409D02*
X108222142Y-101816504D01*
X108101190Y-102058409D02*
X108101190Y-101550409D01*
X108294714Y-101550409D01*
X108343095Y-101574600D01*
X108367285Y-101598790D01*
X108391476Y-101647171D01*
X108391476Y-101719742D01*
X108367285Y-101768123D01*
X108343095Y-101792314D01*
X108294714Y-101816504D01*
X108101190Y-101816504D01*
X108802714Y-102034219D02*
X108754333Y-102058409D01*
X108657571Y-102058409D01*
X108609190Y-102034219D01*
X108585000Y-101985838D01*
X108585000Y-101792314D01*
X108609190Y-101743933D01*
X108657571Y-101719742D01*
X108754333Y-101719742D01*
X108802714Y-101743933D01*
X108826904Y-101792314D01*
X108826904Y-101840695D01*
X108585000Y-101889076D01*
X108996238Y-101719742D02*
X109117190Y-102058409D01*
X109238142Y-101719742D01*
X109794523Y-101598790D02*
X109818714Y-101574600D01*
X109867095Y-101550409D01*
X109988047Y-101550409D01*
X110036428Y-101574600D01*
X110060619Y-101598790D01*
X110084809Y-101647171D01*
X110084809Y-101695552D01*
X110060619Y-101768123D01*
X109770333Y-102058409D01*
X110084809Y-102058409D01*
X110302523Y-102010028D02*
X110326714Y-102034219D01*
X110302523Y-102058409D01*
X110278333Y-102034219D01*
X110302523Y-102010028D01*
X110302523Y-102058409D01*
X110641190Y-101550409D02*
X110689571Y-101550409D01*
X110737952Y-101574600D01*
X110762142Y-101598790D01*
X110786333Y-101647171D01*
X110810523Y-101743933D01*
X110810523Y-101864885D01*
X110786333Y-101961647D01*
X110762142Y-102010028D01*
X110737952Y-102034219D01*
X110689571Y-102058409D01*
X110641190Y-102058409D01*
X110592809Y-102034219D01*
X110568619Y-102010028D01*
X110544428Y-101961647D01*
X110520238Y-101864885D01*
X110520238Y-101743933D01*
X110544428Y-101647171D01*
X110568619Y-101598790D01*
X110592809Y-101574600D01*
X110641190Y-101550409D01*
D11*
X121085428Y-132388428D02*
X121666000Y-132388428D01*
X121375714Y-132678714D02*
X121375714Y-132098142D01*
X122428000Y-132678714D02*
X121992571Y-132678714D01*
X122210285Y-132678714D02*
X122210285Y-131916714D01*
X122137714Y-132025571D01*
X122065142Y-132098142D01*
X121992571Y-132134428D01*
X122718285Y-131989285D02*
X122754571Y-131953000D01*
X122827142Y-131916714D01*
X123008571Y-131916714D01*
X123081142Y-131953000D01*
X123117428Y-131989285D01*
X123153714Y-132061857D01*
X123153714Y-132134428D01*
X123117428Y-132243285D01*
X122682000Y-132678714D01*
X123153714Y-132678714D01*
X123371428Y-131916714D02*
X123625428Y-132678714D01*
X123879428Y-131916714D01*
X116894428Y-130410857D02*
X116894428Y-129830285D01*
X117184714Y-130120571D02*
X116604142Y-130120571D01*
X117184714Y-129467428D02*
X116422714Y-129467428D01*
X117184714Y-129104571D02*
X116422714Y-129104571D01*
X117184714Y-128669142D01*
X116422714Y-128669142D01*
X114354428Y-130410857D02*
X114354428Y-129830285D01*
X114644714Y-129467428D02*
X113882714Y-129467428D01*
X114644714Y-129104571D02*
X113882714Y-129104571D01*
X114644714Y-128669142D01*
X113882714Y-128669142D01*
X111379000Y-129866571D02*
X111342714Y-129939142D01*
X111342714Y-130048000D01*
X111379000Y-130156857D01*
X111451571Y-130229428D01*
X111524142Y-130265714D01*
X111669285Y-130302000D01*
X111778142Y-130302000D01*
X111923285Y-130265714D01*
X111995857Y-130229428D01*
X112068428Y-130156857D01*
X112104714Y-130048000D01*
X112104714Y-129975428D01*
X112068428Y-129866571D01*
X112032142Y-129830285D01*
X111778142Y-129830285D01*
X111778142Y-129975428D01*
X112104714Y-129503714D02*
X111342714Y-129503714D01*
X112104714Y-129068285D01*
X111342714Y-129068285D01*
X112104714Y-128705428D02*
X111342714Y-128705428D01*
X111342714Y-128524000D01*
X111379000Y-128415142D01*
X111451571Y-128342571D01*
X111524142Y-128306285D01*
X111669285Y-128270000D01*
X111778142Y-128270000D01*
X111923285Y-128306285D01*
X111995857Y-128342571D01*
X112068428Y-128415142D01*
X112104714Y-128524000D01*
X112104714Y-128705428D01*
X108893428Y-126619000D02*
X108820857Y-126582714D01*
X108712000Y-126582714D01*
X108603142Y-126619000D01*
X108530571Y-126691571D01*
X108494285Y-126764142D01*
X108458000Y-126909285D01*
X108458000Y-127018142D01*
X108494285Y-127163285D01*
X108530571Y-127235857D01*
X108603142Y-127308428D01*
X108712000Y-127344714D01*
X108784571Y-127344714D01*
X108893428Y-127308428D01*
X108929714Y-127272142D01*
X108929714Y-127018142D01*
X108784571Y-127018142D01*
X109256285Y-127344714D02*
X109256285Y-126582714D01*
X109691714Y-127344714D01*
X109691714Y-126582714D01*
X110054571Y-127344714D02*
X110054571Y-126582714D01*
X110236000Y-126582714D01*
X110344857Y-126619000D01*
X110417428Y-126691571D01*
X110453714Y-126764142D01*
X110490000Y-126909285D01*
X110490000Y-127018142D01*
X110453714Y-127163285D01*
X110417428Y-127235857D01*
X110344857Y-127308428D01*
X110236000Y-127344714D01*
X110054571Y-127344714D01*
X108893428Y-124079000D02*
X108820857Y-124042714D01*
X108712000Y-124042714D01*
X108603142Y-124079000D01*
X108530571Y-124151571D01*
X108494285Y-124224142D01*
X108458000Y-124369285D01*
X108458000Y-124478142D01*
X108494285Y-124623285D01*
X108530571Y-124695857D01*
X108603142Y-124768428D01*
X108712000Y-124804714D01*
X108784571Y-124804714D01*
X108893428Y-124768428D01*
X108929714Y-124732142D01*
X108929714Y-124478142D01*
X108784571Y-124478142D01*
X109256285Y-124804714D02*
X109256285Y-124042714D01*
X109691714Y-124804714D01*
X109691714Y-124042714D01*
X110054571Y-124804714D02*
X110054571Y-124042714D01*
X110236000Y-124042714D01*
X110344857Y-124079000D01*
X110417428Y-124151571D01*
X110453714Y-124224142D01*
X110490000Y-124369285D01*
X110490000Y-124478142D01*
X110453714Y-124623285D01*
X110417428Y-124695857D01*
X110344857Y-124768428D01*
X110236000Y-124804714D01*
X110054571Y-124804714D01*
X108312857Y-121502714D02*
X108566857Y-122264714D01*
X108820857Y-121502714D01*
X109183714Y-122264714D02*
X109111142Y-122228428D01*
X109074857Y-122192142D01*
X109038571Y-122119571D01*
X109038571Y-121901857D01*
X109074857Y-121829285D01*
X109111142Y-121793000D01*
X109183714Y-121756714D01*
X109292571Y-121756714D01*
X109365142Y-121793000D01*
X109401428Y-121829285D01*
X109437714Y-121901857D01*
X109437714Y-122119571D01*
X109401428Y-122192142D01*
X109365142Y-122228428D01*
X109292571Y-122264714D01*
X109183714Y-122264714D01*
X110090857Y-121756714D02*
X110090857Y-122264714D01*
X109764285Y-121756714D02*
X109764285Y-122155857D01*
X109800571Y-122228428D01*
X109873142Y-122264714D01*
X109982000Y-122264714D01*
X110054571Y-122228428D01*
X110090857Y-122192142D01*
X110344857Y-121756714D02*
X110635142Y-121756714D01*
X110453714Y-121502714D02*
X110453714Y-122155857D01*
X110490000Y-122228428D01*
X110562571Y-122264714D01*
X110635142Y-122264714D01*
X108294714Y-119434428D02*
X108875285Y-119434428D01*
X108585000Y-119724714D02*
X108585000Y-119144142D01*
X109129285Y-118962714D02*
X109383285Y-119724714D01*
X109637285Y-118962714D01*
X109855000Y-119688428D02*
X109927571Y-119724714D01*
X110072714Y-119724714D01*
X110145285Y-119688428D01*
X110181571Y-119615857D01*
X110181571Y-119579571D01*
X110145285Y-119507000D01*
X110072714Y-119470714D01*
X109963857Y-119470714D01*
X109891285Y-119434428D01*
X109855000Y-119361857D01*
X109855000Y-119325571D01*
X109891285Y-119253000D01*
X109963857Y-119216714D01*
X110072714Y-119216714D01*
X110145285Y-119253000D01*
D12*
%TO.C,G\u002A\u002A\u002A*%
G36*
X106017098Y-106052337D02*
G01*
X106034662Y-106054357D01*
X106049975Y-106058240D01*
X106058905Y-106061476D01*
X106085221Y-106075641D01*
X106110387Y-106096154D01*
X106132238Y-106120958D01*
X106147584Y-106145854D01*
X106153858Y-106159180D01*
X106157876Y-106170136D01*
X106160129Y-106181330D01*
X106161109Y-106195372D01*
X106161311Y-106214871D01*
X106161304Y-106218492D01*
X106161035Y-106239399D01*
X106160048Y-106254411D01*
X106157886Y-106266096D01*
X106154093Y-106277023D01*
X106148864Y-106288417D01*
X106131417Y-106316162D01*
X106108047Y-106341429D01*
X106081190Y-106361785D01*
X106068284Y-106368856D01*
X106054143Y-106375011D01*
X106040999Y-106378874D01*
X106025821Y-106381066D01*
X106005578Y-106382209D01*
X106002667Y-106382305D01*
X105975218Y-106382175D01*
X105953813Y-106379975D01*
X105944611Y-106377759D01*
X105910861Y-106362358D01*
X105880203Y-106339119D01*
X105869930Y-106328851D01*
X105848520Y-106300245D01*
X105834454Y-106268950D01*
X105827502Y-106236059D01*
X105827447Y-106209673D01*
X105868023Y-106209673D01*
X105870046Y-106241790D01*
X105879603Y-106271577D01*
X105896275Y-106298048D01*
X105919647Y-106320220D01*
X105940247Y-106332896D01*
X105954384Y-106339655D01*
X105965648Y-106343491D01*
X105977360Y-106345043D01*
X105992841Y-106344952D01*
X106000940Y-106344593D01*
X106021056Y-106342999D01*
X106035840Y-106340042D01*
X106048407Y-106334973D01*
X106054211Y-106331778D01*
X106077552Y-106314282D01*
X106098201Y-106291686D01*
X106113391Y-106267049D01*
X106114032Y-106265651D01*
X106121517Y-106239888D01*
X106123042Y-106211211D01*
X106118688Y-106182639D01*
X106111177Y-106162182D01*
X106093291Y-106134541D01*
X106070211Y-106112865D01*
X106043112Y-106097684D01*
X106013167Y-106089524D01*
X105981553Y-106088913D01*
X105958251Y-106093491D01*
X105935798Y-106103582D01*
X105913856Y-106119677D01*
X105894547Y-106139690D01*
X105879993Y-106161541D01*
X105873949Y-106176211D01*
X105868023Y-106209673D01*
X105827447Y-106209673D01*
X105827432Y-106202669D01*
X105834016Y-106169872D01*
X105847022Y-106138764D01*
X105866221Y-106110440D01*
X105891381Y-106085993D01*
X105922274Y-106066518D01*
X105925448Y-106064990D01*
X105940030Y-106058534D01*
X105952159Y-106054567D01*
X105964852Y-106052505D01*
X105981131Y-106051765D01*
X105994200Y-106051714D01*
X106017098Y-106052337D01*
G37*
X106017098Y-106052337D02*
X106034662Y-106054357D01*
X106049975Y-106058240D01*
X106058905Y-106061476D01*
X106085221Y-106075641D01*
X106110387Y-106096154D01*
X106132238Y-106120958D01*
X106147584Y-106145854D01*
X106153858Y-106159180D01*
X106157876Y-106170136D01*
X106160129Y-106181330D01*
X106161109Y-106195372D01*
X106161311Y-106214871D01*
X106161304Y-106218492D01*
X106161035Y-106239399D01*
X106160048Y-106254411D01*
X106157886Y-106266096D01*
X106154093Y-106277023D01*
X106148864Y-106288417D01*
X106131417Y-106316162D01*
X106108047Y-106341429D01*
X106081190Y-106361785D01*
X106068284Y-106368856D01*
X106054143Y-106375011D01*
X106040999Y-106378874D01*
X106025821Y-106381066D01*
X106005578Y-106382209D01*
X106002667Y-106382305D01*
X105975218Y-106382175D01*
X105953813Y-106379975D01*
X105944611Y-106377759D01*
X105910861Y-106362358D01*
X105880203Y-106339119D01*
X105869930Y-106328851D01*
X105848520Y-106300245D01*
X105834454Y-106268950D01*
X105827502Y-106236059D01*
X105827447Y-106209673D01*
X105868023Y-106209673D01*
X105870046Y-106241790D01*
X105879603Y-106271577D01*
X105896275Y-106298048D01*
X105919647Y-106320220D01*
X105940247Y-106332896D01*
X105954384Y-106339655D01*
X105965648Y-106343491D01*
X105977360Y-106345043D01*
X105992841Y-106344952D01*
X106000940Y-106344593D01*
X106021056Y-106342999D01*
X106035840Y-106340042D01*
X106048407Y-106334973D01*
X106054211Y-106331778D01*
X106077552Y-106314282D01*
X106098201Y-106291686D01*
X106113391Y-106267049D01*
X106114032Y-106265651D01*
X106121517Y-106239888D01*
X106123042Y-106211211D01*
X106118688Y-106182639D01*
X106111177Y-106162182D01*
X106093291Y-106134541D01*
X106070211Y-106112865D01*
X106043112Y-106097684D01*
X106013167Y-106089524D01*
X105981553Y-106088913D01*
X105958251Y-106093491D01*
X105935798Y-106103582D01*
X105913856Y-106119677D01*
X105894547Y-106139690D01*
X105879993Y-106161541D01*
X105873949Y-106176211D01*
X105868023Y-106209673D01*
X105827447Y-106209673D01*
X105827432Y-106202669D01*
X105834016Y-106169872D01*
X105847022Y-106138764D01*
X105866221Y-106110440D01*
X105891381Y-106085993D01*
X105922274Y-106066518D01*
X105925448Y-106064990D01*
X105940030Y-106058534D01*
X105952159Y-106054567D01*
X105964852Y-106052505D01*
X105981131Y-106051765D01*
X105994200Y-106051714D01*
X106017098Y-106052337D01*
G36*
X106973167Y-106051963D02*
G01*
X106987470Y-106053393D01*
X106999601Y-106056502D01*
X107012705Y-106061953D01*
X107020225Y-106065576D01*
X107048300Y-106079397D01*
X107048300Y-106104532D01*
X107047730Y-106120012D01*
X107045625Y-106127706D01*
X107041398Y-106128240D01*
X107034460Y-106122242D01*
X107033081Y-106120742D01*
X107018392Y-106108976D01*
X106998245Y-106098785D01*
X106975643Y-106091450D01*
X106957366Y-106088464D01*
X106927370Y-106090222D01*
X106898741Y-106099639D01*
X106872765Y-106115907D01*
X106850730Y-106138218D01*
X106833920Y-106165765D01*
X106833789Y-106166049D01*
X106828055Y-106180015D01*
X106825059Y-106192418D01*
X106824221Y-106206824D01*
X106824708Y-106222016D01*
X106827570Y-106248106D01*
X106834012Y-106269310D01*
X106845308Y-106288888D01*
X106856310Y-106302818D01*
X106877908Y-106323470D01*
X106901772Y-106336759D01*
X106929795Y-106343622D01*
X106940839Y-106344674D01*
X106969287Y-106344274D01*
X106993798Y-106338438D01*
X107017343Y-106326256D01*
X107029725Y-106317468D01*
X107048711Y-106302976D01*
X107047447Y-106329445D01*
X107046184Y-106355914D01*
X107021430Y-106368554D01*
X107007706Y-106374958D01*
X106995199Y-106378932D01*
X106980840Y-106381146D01*
X106961564Y-106382267D01*
X106957930Y-106382386D01*
X106933462Y-106382270D01*
X106913385Y-106380448D01*
X106902250Y-106377969D01*
X106866352Y-106361954D01*
X106835880Y-106339644D01*
X106811286Y-106311432D01*
X106796816Y-106286312D01*
X106790313Y-106271503D01*
X106786404Y-106258884D01*
X106784448Y-106245227D01*
X106783804Y-106227304D01*
X106783770Y-106220683D01*
X106786887Y-106182456D01*
X106796647Y-106149094D01*
X106813488Y-106119698D01*
X106837851Y-106093371D01*
X106851551Y-106082159D01*
X106874293Y-106067372D01*
X106897550Y-106057847D01*
X106923834Y-106052830D01*
X106953550Y-106051552D01*
X106973167Y-106051963D01*
G37*
X106973167Y-106051963D02*
X106987470Y-106053393D01*
X106999601Y-106056502D01*
X107012705Y-106061953D01*
X107020225Y-106065576D01*
X107048300Y-106079397D01*
X107048300Y-106104532D01*
X107047730Y-106120012D01*
X107045625Y-106127706D01*
X107041398Y-106128240D01*
X107034460Y-106122242D01*
X107033081Y-106120742D01*
X107018392Y-106108976D01*
X106998245Y-106098785D01*
X106975643Y-106091450D01*
X106957366Y-106088464D01*
X106927370Y-106090222D01*
X106898741Y-106099639D01*
X106872765Y-106115907D01*
X106850730Y-106138218D01*
X106833920Y-106165765D01*
X106833789Y-106166049D01*
X106828055Y-106180015D01*
X106825059Y-106192418D01*
X106824221Y-106206824D01*
X106824708Y-106222016D01*
X106827570Y-106248106D01*
X106834012Y-106269310D01*
X106845308Y-106288888D01*
X106856310Y-106302818D01*
X106877908Y-106323470D01*
X106901772Y-106336759D01*
X106929795Y-106343622D01*
X106940839Y-106344674D01*
X106969287Y-106344274D01*
X106993798Y-106338438D01*
X107017343Y-106326256D01*
X107029725Y-106317468D01*
X107048711Y-106302976D01*
X107047447Y-106329445D01*
X107046184Y-106355914D01*
X107021430Y-106368554D01*
X107007706Y-106374958D01*
X106995199Y-106378932D01*
X106980840Y-106381146D01*
X106961564Y-106382267D01*
X106957930Y-106382386D01*
X106933462Y-106382270D01*
X106913385Y-106380448D01*
X106902250Y-106377969D01*
X106866352Y-106361954D01*
X106835880Y-106339644D01*
X106811286Y-106311432D01*
X106796816Y-106286312D01*
X106790313Y-106271503D01*
X106786404Y-106258884D01*
X106784448Y-106245227D01*
X106783804Y-106227304D01*
X106783770Y-106220683D01*
X106786887Y-106182456D01*
X106796647Y-106149094D01*
X106813488Y-106119698D01*
X106837851Y-106093371D01*
X106851551Y-106082159D01*
X106874293Y-106067372D01*
X106897550Y-106057847D01*
X106923834Y-106052830D01*
X106953550Y-106051552D01*
X106973167Y-106051963D01*
G36*
X105102699Y-106059351D02*
G01*
X105131260Y-106064537D01*
X105153268Y-106073605D01*
X105169370Y-106086901D01*
X105180211Y-106104775D01*
X105185266Y-106121329D01*
X105187776Y-106149443D01*
X105183460Y-106175614D01*
X105172990Y-106198585D01*
X105157037Y-106217098D01*
X105136275Y-106229895D01*
X105125309Y-106233512D01*
X105116919Y-106236217D01*
X105113667Y-106238399D01*
X105116009Y-106242305D01*
X105122525Y-106251978D01*
X105132445Y-106266308D01*
X105145004Y-106284187D01*
X105159431Y-106304506D01*
X105159510Y-106304615D01*
X105174193Y-106325238D01*
X105187265Y-106343694D01*
X105197892Y-106358795D01*
X105205239Y-106369355D01*
X105208443Y-106374142D01*
X105208080Y-106377227D01*
X105201683Y-106378896D01*
X105188098Y-106379431D01*
X105186786Y-106379433D01*
X105162039Y-106379433D01*
X105113922Y-106309583D01*
X105099102Y-106288318D01*
X105085774Y-106269661D01*
X105074714Y-106254664D01*
X105066702Y-106244379D01*
X105062515Y-106239855D01*
X105062219Y-106239733D01*
X105061026Y-106243734D01*
X105060001Y-106254805D01*
X105059216Y-106271553D01*
X105058742Y-106292581D01*
X105058634Y-106309583D01*
X105058634Y-106379433D01*
X105020534Y-106379433D01*
X105020534Y-106201633D01*
X105058634Y-106201633D01*
X105079714Y-106201633D01*
X105096532Y-106200139D01*
X105113271Y-106196398D01*
X105117977Y-106194758D01*
X105133760Y-106184567D01*
X105143684Y-106170193D01*
X105147906Y-106153410D01*
X105146585Y-106135990D01*
X105139879Y-106119709D01*
X105127944Y-106106339D01*
X105110939Y-106097655D01*
X105109301Y-106097199D01*
X105093526Y-106093956D01*
X105077885Y-106092063D01*
X105074509Y-106091907D01*
X105058634Y-106091567D01*
X105058634Y-106201633D01*
X105020534Y-106201633D01*
X105020534Y-106057700D01*
X105066941Y-106057700D01*
X105102699Y-106059351D01*
G37*
X105102699Y-106059351D02*
X105131260Y-106064537D01*
X105153268Y-106073605D01*
X105169370Y-106086901D01*
X105180211Y-106104775D01*
X105185266Y-106121329D01*
X105187776Y-106149443D01*
X105183460Y-106175614D01*
X105172990Y-106198585D01*
X105157037Y-106217098D01*
X105136275Y-106229895D01*
X105125309Y-106233512D01*
X105116919Y-106236217D01*
X105113667Y-106238399D01*
X105116009Y-106242305D01*
X105122525Y-106251978D01*
X105132445Y-106266308D01*
X105145004Y-106284187D01*
X105159431Y-106304506D01*
X105159510Y-106304615D01*
X105174193Y-106325238D01*
X105187265Y-106343694D01*
X105197892Y-106358795D01*
X105205239Y-106369355D01*
X105208443Y-106374142D01*
X105208080Y-106377227D01*
X105201683Y-106378896D01*
X105188098Y-106379431D01*
X105186786Y-106379433D01*
X105162039Y-106379433D01*
X105113922Y-106309583D01*
X105099102Y-106288318D01*
X105085774Y-106269661D01*
X105074714Y-106254664D01*
X105066702Y-106244379D01*
X105062515Y-106239855D01*
X105062219Y-106239733D01*
X105061026Y-106243734D01*
X105060001Y-106254805D01*
X105059216Y-106271553D01*
X105058742Y-106292581D01*
X105058634Y-106309583D01*
X105058634Y-106379433D01*
X105020534Y-106379433D01*
X105020534Y-106201633D01*
X105058634Y-106201633D01*
X105079714Y-106201633D01*
X105096532Y-106200139D01*
X105113271Y-106196398D01*
X105117977Y-106194758D01*
X105133760Y-106184567D01*
X105143684Y-106170193D01*
X105147906Y-106153410D01*
X105146585Y-106135990D01*
X105139879Y-106119709D01*
X105127944Y-106106339D01*
X105110939Y-106097655D01*
X105109301Y-106097199D01*
X105093526Y-106093956D01*
X105077885Y-106092063D01*
X105074509Y-106091907D01*
X105058634Y-106091567D01*
X105058634Y-106201633D01*
X105020534Y-106201633D01*
X105020534Y-106057700D01*
X105066941Y-106057700D01*
X105102699Y-106059351D01*
G36*
X107738333Y-106186714D02*
G01*
X107867549Y-106057700D01*
X107922395Y-106057700D01*
X107847672Y-106132842D01*
X107772949Y-106207983D01*
X107848649Y-106290533D01*
X107868840Y-106312661D01*
X107887011Y-106332787D01*
X107902411Y-106350062D01*
X107914289Y-106363637D01*
X107921893Y-106372662D01*
X107924475Y-106376258D01*
X107920690Y-106377895D01*
X107910693Y-106379021D01*
X107898142Y-106379379D01*
X107871683Y-106379325D01*
X107808183Y-106307510D01*
X107789810Y-106286878D01*
X107773243Y-106268555D01*
X107759315Y-106253440D01*
X107748862Y-106242434D01*
X107742718Y-106236437D01*
X107741508Y-106235597D01*
X107740467Y-106239568D01*
X107739569Y-106250633D01*
X107738875Y-106267421D01*
X107738445Y-106288558D01*
X107738333Y-106307467D01*
X107738333Y-106379433D01*
X107696000Y-106379433D01*
X107696000Y-106057700D01*
X107738333Y-106057700D01*
X107738333Y-106186714D01*
G37*
X107738333Y-106186714D02*
X107867549Y-106057700D01*
X107922395Y-106057700D01*
X107847672Y-106132842D01*
X107772949Y-106207983D01*
X107848649Y-106290533D01*
X107868840Y-106312661D01*
X107887011Y-106332787D01*
X107902411Y-106350062D01*
X107914289Y-106363637D01*
X107921893Y-106372662D01*
X107924475Y-106376258D01*
X107920690Y-106377895D01*
X107910693Y-106379021D01*
X107898142Y-106379379D01*
X107871683Y-106379325D01*
X107808183Y-106307510D01*
X107789810Y-106286878D01*
X107773243Y-106268555D01*
X107759315Y-106253440D01*
X107748862Y-106242434D01*
X107742718Y-106236437D01*
X107741508Y-106235597D01*
X107740467Y-106239568D01*
X107739569Y-106250633D01*
X107738875Y-106267421D01*
X107738445Y-106288558D01*
X107738333Y-106307467D01*
X107738333Y-106379433D01*
X107696000Y-106379433D01*
X107696000Y-106057700D01*
X107738333Y-106057700D01*
X107738333Y-106186714D01*
G36*
X108716234Y-106091567D02*
G01*
X108589234Y-106091567D01*
X108589234Y-106184700D01*
X108712000Y-106184700D01*
X108712000Y-106222800D01*
X108589234Y-106222800D01*
X108589234Y-106341333D01*
X108716234Y-106341333D01*
X108716234Y-106379433D01*
X108546900Y-106379433D01*
X108546900Y-106057700D01*
X108716234Y-106057700D01*
X108716234Y-106091567D01*
G37*
X108716234Y-106091567D02*
X108589234Y-106091567D01*
X108589234Y-106184700D01*
X108712000Y-106184700D01*
X108712000Y-106222800D01*
X108589234Y-106222800D01*
X108589234Y-106341333D01*
X108716234Y-106341333D01*
X108716234Y-106379433D01*
X108546900Y-106379433D01*
X108546900Y-106057700D01*
X108716234Y-106057700D01*
X108716234Y-106091567D01*
G36*
X109533267Y-106091567D02*
G01*
X109457067Y-106091567D01*
X109457067Y-106379433D01*
X109414734Y-106379433D01*
X109414734Y-106091567D01*
X109338534Y-106091567D01*
X109338534Y-106057700D01*
X109533267Y-106057700D01*
X109533267Y-106091567D01*
G37*
X109533267Y-106091567D02*
X109457067Y-106091567D01*
X109457067Y-106379433D01*
X109414734Y-106379433D01*
X109414734Y-106091567D01*
X109338534Y-106091567D01*
X109338534Y-106057700D01*
X109533267Y-106057700D01*
X109533267Y-106091567D01*
G36*
X110211780Y-106058323D02*
G01*
X110234741Y-106059175D01*
X110251317Y-106060422D01*
X110263591Y-106062411D01*
X110273643Y-106065491D01*
X110283557Y-106070012D01*
X110284518Y-106070504D01*
X110304228Y-106084599D01*
X110317239Y-106103382D01*
X110323824Y-106127353D01*
X110324807Y-106144091D01*
X110321452Y-106173307D01*
X110311566Y-106197159D01*
X110295078Y-106215759D01*
X110271916Y-106229220D01*
X110268867Y-106230426D01*
X110249759Y-106237679D01*
X110297894Y-106305381D01*
X110312710Y-106326383D01*
X110325679Y-106345080D01*
X110336051Y-106360366D01*
X110343078Y-106371133D01*
X110346007Y-106376274D01*
X110346048Y-106376469D01*
X110342236Y-106378097D01*
X110332355Y-106378802D01*
X110322133Y-106378586D01*
X110298199Y-106377317D01*
X110251224Y-106308683D01*
X110236637Y-106287587D01*
X110223570Y-106269101D01*
X110212800Y-106254291D01*
X110205104Y-106244223D01*
X110201259Y-106239963D01*
X110201075Y-106239891D01*
X110200019Y-106243837D01*
X110199111Y-106254859D01*
X110198416Y-106271564D01*
X110197996Y-106292563D01*
X110197900Y-106309583D01*
X110197900Y-106379433D01*
X110159800Y-106379433D01*
X110159800Y-106201633D01*
X110197900Y-106201633D01*
X110220125Y-106201627D01*
X110237530Y-106200010D01*
X110253372Y-106195862D01*
X110257167Y-106194218D01*
X110272709Y-106182034D01*
X110282465Y-106165036D01*
X110285243Y-106145522D01*
X110284783Y-106141010D01*
X110280211Y-106122896D01*
X110271920Y-106109956D01*
X110258633Y-106101198D01*
X110239077Y-106095628D01*
X110223649Y-106093386D01*
X110197900Y-106090473D01*
X110197900Y-106201633D01*
X110159800Y-106201633D01*
X110159800Y-106056829D01*
X110211780Y-106058323D01*
G37*
X110211780Y-106058323D02*
X110234741Y-106059175D01*
X110251317Y-106060422D01*
X110263591Y-106062411D01*
X110273643Y-106065491D01*
X110283557Y-106070012D01*
X110284518Y-106070504D01*
X110304228Y-106084599D01*
X110317239Y-106103382D01*
X110323824Y-106127353D01*
X110324807Y-106144091D01*
X110321452Y-106173307D01*
X110311566Y-106197159D01*
X110295078Y-106215759D01*
X110271916Y-106229220D01*
X110268867Y-106230426D01*
X110249759Y-106237679D01*
X110297894Y-106305381D01*
X110312710Y-106326383D01*
X110325679Y-106345080D01*
X110336051Y-106360366D01*
X110343078Y-106371133D01*
X110346007Y-106376274D01*
X110346048Y-106376469D01*
X110342236Y-106378097D01*
X110332355Y-106378802D01*
X110322133Y-106378586D01*
X110298199Y-106377317D01*
X110251224Y-106308683D01*
X110236637Y-106287587D01*
X110223570Y-106269101D01*
X110212800Y-106254291D01*
X110205104Y-106244223D01*
X110201259Y-106239963D01*
X110201075Y-106239891D01*
X110200019Y-106243837D01*
X110199111Y-106254859D01*
X110198416Y-106271564D01*
X110197996Y-106292563D01*
X110197900Y-106309583D01*
X110197900Y-106379433D01*
X110159800Y-106379433D01*
X110159800Y-106201633D01*
X110197900Y-106201633D01*
X110220125Y-106201627D01*
X110237530Y-106200010D01*
X110253372Y-106195862D01*
X110257167Y-106194218D01*
X110272709Y-106182034D01*
X110282465Y-106165036D01*
X110285243Y-106145522D01*
X110284783Y-106141010D01*
X110280211Y-106122896D01*
X110271920Y-106109956D01*
X110258633Y-106101198D01*
X110239077Y-106095628D01*
X110223649Y-106093386D01*
X110197900Y-106090473D01*
X110197900Y-106201633D01*
X110159800Y-106201633D01*
X110159800Y-106056829D01*
X110211780Y-106058323D01*
G36*
X110979693Y-106057976D02*
G01*
X110985040Y-106059504D01*
X110990239Y-106063431D01*
X110996108Y-106070660D01*
X111003461Y-106082097D01*
X111013116Y-106098643D01*
X111025889Y-106121203D01*
X111032498Y-106132899D01*
X111045318Y-106155340D01*
X111054757Y-106171205D01*
X111061463Y-106181365D01*
X111066083Y-106186690D01*
X111069265Y-106188052D01*
X111071657Y-106186321D01*
X111071930Y-106185935D01*
X111075717Y-106179746D01*
X111082808Y-106167641D01*
X111092359Y-106151081D01*
X111103524Y-106131529D01*
X111110213Y-106119733D01*
X111121821Y-106099639D01*
X111132316Y-106082261D01*
X111140873Y-106068905D01*
X111146670Y-106060874D01*
X111148483Y-106059154D01*
X111155574Y-106058236D01*
X111167462Y-106058219D01*
X111173030Y-106058505D01*
X111192467Y-106059817D01*
X111139795Y-106150833D01*
X111087123Y-106241850D01*
X111087011Y-106310642D01*
X111086900Y-106379433D01*
X111048800Y-106379433D01*
X111048800Y-106243772D01*
X110996113Y-106151794D01*
X110943426Y-106059817D01*
X110965293Y-106058505D01*
X110973383Y-106057944D01*
X110979693Y-106057976D01*
G37*
X110979693Y-106057976D02*
X110985040Y-106059504D01*
X110990239Y-106063431D01*
X110996108Y-106070660D01*
X111003461Y-106082097D01*
X111013116Y-106098643D01*
X111025889Y-106121203D01*
X111032498Y-106132899D01*
X111045318Y-106155340D01*
X111054757Y-106171205D01*
X111061463Y-106181365D01*
X111066083Y-106186690D01*
X111069265Y-106188052D01*
X111071657Y-106186321D01*
X111071930Y-106185935D01*
X111075717Y-106179746D01*
X111082808Y-106167641D01*
X111092359Y-106151081D01*
X111103524Y-106131529D01*
X111110213Y-106119733D01*
X111121821Y-106099639D01*
X111132316Y-106082261D01*
X111140873Y-106068905D01*
X111146670Y-106060874D01*
X111148483Y-106059154D01*
X111155574Y-106058236D01*
X111167462Y-106058219D01*
X111173030Y-106058505D01*
X111192467Y-106059817D01*
X111139795Y-106150833D01*
X111087123Y-106241850D01*
X111087011Y-106310642D01*
X111086900Y-106379433D01*
X111048800Y-106379433D01*
X111048800Y-106243772D01*
X110996113Y-106151794D01*
X110943426Y-106059817D01*
X110965293Y-106058505D01*
X110973383Y-106057944D01*
X110979693Y-106057976D01*
G36*
X105160953Y-105256527D02*
G01*
X105187449Y-105259213D01*
X105208917Y-105263625D01*
X105230596Y-105270052D01*
X105250743Y-105277226D01*
X105267830Y-105284477D01*
X105280332Y-105291134D01*
X105286723Y-105296527D01*
X105287234Y-105298020D01*
X105285351Y-105303638D01*
X105280204Y-105315128D01*
X105272539Y-105330906D01*
X105263107Y-105349390D01*
X105261380Y-105352689D01*
X105235526Y-105401912D01*
X105224338Y-105394473D01*
X105196243Y-105378912D01*
X105169346Y-105370055D01*
X105144554Y-105368004D01*
X105122777Y-105372861D01*
X105108552Y-105381442D01*
X105099749Y-105391419D01*
X105094403Y-105402312D01*
X105094342Y-105402563D01*
X105093785Y-105411189D01*
X105097641Y-105419288D01*
X105105814Y-105428394D01*
X105114714Y-105435811D01*
X105126532Y-105442586D01*
X105142984Y-105449537D01*
X105165785Y-105457483D01*
X105168707Y-105458438D01*
X105201441Y-105469779D01*
X105227372Y-105480496D01*
X105248048Y-105491384D01*
X105265014Y-105503236D01*
X105277014Y-105514002D01*
X105291662Y-105532001D01*
X105301396Y-105552826D01*
X105306773Y-105578155D01*
X105308350Y-105608662D01*
X105305261Y-105650105D01*
X105295992Y-105685840D01*
X105280351Y-105716143D01*
X105258150Y-105741290D01*
X105229198Y-105761554D01*
X105193306Y-105777212D01*
X105191679Y-105777761D01*
X105168946Y-105783342D01*
X105141176Y-105787154D01*
X105111659Y-105788961D01*
X105083682Y-105788528D01*
X105066548Y-105786729D01*
X105049000Y-105783173D01*
X105028845Y-105777966D01*
X105015748Y-105773960D01*
X105000643Y-105768217D01*
X104983469Y-105760620D01*
X104966221Y-105752188D01*
X104950892Y-105743941D01*
X104939475Y-105736897D01*
X104934030Y-105732186D01*
X104935317Y-105727815D01*
X104939749Y-105717620D01*
X104946500Y-105703252D01*
X104954742Y-105686364D01*
X104963650Y-105668608D01*
X104972396Y-105651637D01*
X104980154Y-105637103D01*
X104986098Y-105626659D01*
X104988927Y-105622434D01*
X104992670Y-105623951D01*
X105001233Y-105629259D01*
X105010594Y-105635686D01*
X105035950Y-105652206D01*
X105058315Y-105663099D01*
X105080010Y-105669326D01*
X105097114Y-105671504D01*
X105116474Y-105671957D01*
X105130955Y-105669755D01*
X105140692Y-105666066D01*
X105156048Y-105655217D01*
X105165364Y-105641149D01*
X105168117Y-105625669D01*
X105163787Y-105610586D01*
X105158698Y-105603644D01*
X105150819Y-105596161D01*
X105141445Y-105589737D01*
X105129024Y-105583643D01*
X105112001Y-105577155D01*
X105088823Y-105569544D01*
X105079809Y-105566740D01*
X105045480Y-105555141D01*
X105018393Y-105543488D01*
X104997355Y-105531020D01*
X104981173Y-105516972D01*
X104968651Y-105500584D01*
X104964266Y-105492951D01*
X104960140Y-105484037D01*
X104957446Y-105474520D01*
X104955894Y-105462334D01*
X104955199Y-105445417D01*
X104955065Y-105426933D01*
X104955344Y-105403809D01*
X104956395Y-105386735D01*
X104958536Y-105373307D01*
X104962088Y-105361121D01*
X104964744Y-105354113D01*
X104981432Y-105323718D01*
X105005245Y-105297635D01*
X105035805Y-105276254D01*
X105044987Y-105271425D01*
X105058859Y-105264706D01*
X105069740Y-105260207D01*
X105079948Y-105257489D01*
X105091801Y-105256112D01*
X105107615Y-105255635D01*
X105128264Y-105255616D01*
X105160953Y-105256527D01*
G37*
X105160953Y-105256527D02*
X105187449Y-105259213D01*
X105208917Y-105263625D01*
X105230596Y-105270052D01*
X105250743Y-105277226D01*
X105267830Y-105284477D01*
X105280332Y-105291134D01*
X105286723Y-105296527D01*
X105287234Y-105298020D01*
X105285351Y-105303638D01*
X105280204Y-105315128D01*
X105272539Y-105330906D01*
X105263107Y-105349390D01*
X105261380Y-105352689D01*
X105235526Y-105401912D01*
X105224338Y-105394473D01*
X105196243Y-105378912D01*
X105169346Y-105370055D01*
X105144554Y-105368004D01*
X105122777Y-105372861D01*
X105108552Y-105381442D01*
X105099749Y-105391419D01*
X105094403Y-105402312D01*
X105094342Y-105402563D01*
X105093785Y-105411189D01*
X105097641Y-105419288D01*
X105105814Y-105428394D01*
X105114714Y-105435811D01*
X105126532Y-105442586D01*
X105142984Y-105449537D01*
X105165785Y-105457483D01*
X105168707Y-105458438D01*
X105201441Y-105469779D01*
X105227372Y-105480496D01*
X105248048Y-105491384D01*
X105265014Y-105503236D01*
X105277014Y-105514002D01*
X105291662Y-105532001D01*
X105301396Y-105552826D01*
X105306773Y-105578155D01*
X105308350Y-105608662D01*
X105305261Y-105650105D01*
X105295992Y-105685840D01*
X105280351Y-105716143D01*
X105258150Y-105741290D01*
X105229198Y-105761554D01*
X105193306Y-105777212D01*
X105191679Y-105777761D01*
X105168946Y-105783342D01*
X105141176Y-105787154D01*
X105111659Y-105788961D01*
X105083682Y-105788528D01*
X105066548Y-105786729D01*
X105049000Y-105783173D01*
X105028845Y-105777966D01*
X105015748Y-105773960D01*
X105000643Y-105768217D01*
X104983469Y-105760620D01*
X104966221Y-105752188D01*
X104950892Y-105743941D01*
X104939475Y-105736897D01*
X104934030Y-105732186D01*
X104935317Y-105727815D01*
X104939749Y-105717620D01*
X104946500Y-105703252D01*
X104954742Y-105686364D01*
X104963650Y-105668608D01*
X104972396Y-105651637D01*
X104980154Y-105637103D01*
X104986098Y-105626659D01*
X104988927Y-105622434D01*
X104992670Y-105623951D01*
X105001233Y-105629259D01*
X105010594Y-105635686D01*
X105035950Y-105652206D01*
X105058315Y-105663099D01*
X105080010Y-105669326D01*
X105097114Y-105671504D01*
X105116474Y-105671957D01*
X105130955Y-105669755D01*
X105140692Y-105666066D01*
X105156048Y-105655217D01*
X105165364Y-105641149D01*
X105168117Y-105625669D01*
X105163787Y-105610586D01*
X105158698Y-105603644D01*
X105150819Y-105596161D01*
X105141445Y-105589737D01*
X105129024Y-105583643D01*
X105112001Y-105577155D01*
X105088823Y-105569544D01*
X105079809Y-105566740D01*
X105045480Y-105555141D01*
X105018393Y-105543488D01*
X104997355Y-105531020D01*
X104981173Y-105516972D01*
X104968651Y-105500584D01*
X104964266Y-105492951D01*
X104960140Y-105484037D01*
X104957446Y-105474520D01*
X104955894Y-105462334D01*
X104955199Y-105445417D01*
X104955065Y-105426933D01*
X104955344Y-105403809D01*
X104956395Y-105386735D01*
X104958536Y-105373307D01*
X104962088Y-105361121D01*
X104964744Y-105354113D01*
X104981432Y-105323718D01*
X105005245Y-105297635D01*
X105035805Y-105276254D01*
X105044987Y-105271425D01*
X105058859Y-105264706D01*
X105069740Y-105260207D01*
X105079948Y-105257489D01*
X105091801Y-105256112D01*
X105107615Y-105255635D01*
X105128264Y-105255616D01*
X105160953Y-105256527D01*
G36*
X105838404Y-105436583D02*
G01*
X105839683Y-105607099D01*
X105850371Y-105627855D01*
X105864469Y-105647561D01*
X105883263Y-105660575D01*
X105907254Y-105667171D01*
X105923958Y-105668164D01*
X105944538Y-105666601D01*
X105960806Y-105661489D01*
X105966285Y-105658639D01*
X105976382Y-105652287D01*
X105984846Y-105645257D01*
X105991819Y-105636779D01*
X105997444Y-105626086D01*
X106001865Y-105612411D01*
X106005222Y-105594985D01*
X106007659Y-105573041D01*
X106009318Y-105545810D01*
X106010342Y-105512526D01*
X106010874Y-105472420D01*
X106011054Y-105424725D01*
X106011060Y-105417408D01*
X106011134Y-105266067D01*
X106146600Y-105266067D01*
X106146565Y-105423758D01*
X106146426Y-105474698D01*
X106145996Y-105518000D01*
X106145218Y-105554487D01*
X106144038Y-105584987D01*
X106142399Y-105610322D01*
X106140246Y-105631319D01*
X106137523Y-105648801D01*
X106134173Y-105663595D01*
X106130143Y-105676524D01*
X106129328Y-105678749D01*
X106114804Y-105706180D01*
X106093262Y-105731269D01*
X106066063Y-105752905D01*
X106034567Y-105769977D01*
X106005299Y-105780104D01*
X105984619Y-105784063D01*
X105958657Y-105786972D01*
X105930554Y-105788663D01*
X105903449Y-105788964D01*
X105880482Y-105787708D01*
X105875667Y-105787117D01*
X105833014Y-105777779D01*
X105795688Y-105762781D01*
X105764154Y-105742432D01*
X105738878Y-105717037D01*
X105720328Y-105686902D01*
X105719203Y-105684419D01*
X105715195Y-105674350D01*
X105711852Y-105663300D01*
X105709116Y-105650440D01*
X105706930Y-105634942D01*
X105705236Y-105615975D01*
X105703977Y-105592713D01*
X105703094Y-105564324D01*
X105702531Y-105529981D01*
X105702230Y-105488855D01*
X105702132Y-105440116D01*
X105702132Y-105438575D01*
X105702100Y-105266067D01*
X105837124Y-105266067D01*
X105838404Y-105436583D01*
G37*
X105838404Y-105436583D02*
X105839683Y-105607099D01*
X105850371Y-105627855D01*
X105864469Y-105647561D01*
X105883263Y-105660575D01*
X105907254Y-105667171D01*
X105923958Y-105668164D01*
X105944538Y-105666601D01*
X105960806Y-105661489D01*
X105966285Y-105658639D01*
X105976382Y-105652287D01*
X105984846Y-105645257D01*
X105991819Y-105636779D01*
X105997444Y-105626086D01*
X106001865Y-105612411D01*
X106005222Y-105594985D01*
X106007659Y-105573041D01*
X106009318Y-105545810D01*
X106010342Y-105512526D01*
X106010874Y-105472420D01*
X106011054Y-105424725D01*
X106011060Y-105417408D01*
X106011134Y-105266067D01*
X106146600Y-105266067D01*
X106146565Y-105423758D01*
X106146426Y-105474698D01*
X106145996Y-105518000D01*
X106145218Y-105554487D01*
X106144038Y-105584987D01*
X106142399Y-105610322D01*
X106140246Y-105631319D01*
X106137523Y-105648801D01*
X106134173Y-105663595D01*
X106130143Y-105676524D01*
X106129328Y-105678749D01*
X106114804Y-105706180D01*
X106093262Y-105731269D01*
X106066063Y-105752905D01*
X106034567Y-105769977D01*
X106005299Y-105780104D01*
X105984619Y-105784063D01*
X105958657Y-105786972D01*
X105930554Y-105788663D01*
X105903449Y-105788964D01*
X105880482Y-105787708D01*
X105875667Y-105787117D01*
X105833014Y-105777779D01*
X105795688Y-105762781D01*
X105764154Y-105742432D01*
X105738878Y-105717037D01*
X105720328Y-105686902D01*
X105719203Y-105684419D01*
X105715195Y-105674350D01*
X105711852Y-105663300D01*
X105709116Y-105650440D01*
X105706930Y-105634942D01*
X105705236Y-105615975D01*
X105703977Y-105592713D01*
X105703094Y-105564324D01*
X105702531Y-105529981D01*
X105702230Y-105488855D01*
X105702132Y-105440116D01*
X105702132Y-105438575D01*
X105702100Y-105266067D01*
X105837124Y-105266067D01*
X105838404Y-105436583D01*
G36*
X106813546Y-105418192D02*
G01*
X106931884Y-105570318D01*
X106932995Y-105418192D01*
X106934106Y-105266067D01*
X107069467Y-105266067D01*
X107069467Y-105774067D01*
X106931156Y-105774067D01*
X106815103Y-105624388D01*
X106699050Y-105474710D01*
X106697938Y-105624388D01*
X106696827Y-105774067D01*
X106561467Y-105774067D01*
X106561467Y-105266067D01*
X106695209Y-105266067D01*
X106813546Y-105418192D01*
G37*
X106813546Y-105418192D02*
X106931884Y-105570318D01*
X106932995Y-105418192D01*
X106934106Y-105266067D01*
X107069467Y-105266067D01*
X107069467Y-105774067D01*
X106931156Y-105774067D01*
X106815103Y-105624388D01*
X106699050Y-105474710D01*
X106697938Y-105624388D01*
X106696827Y-105774067D01*
X106561467Y-105774067D01*
X106561467Y-105266067D01*
X106695209Y-105266067D01*
X106813546Y-105418192D01*
G36*
X108158492Y-105266140D02*
G01*
X108198765Y-105266353D01*
X108231867Y-105267059D01*
X108259090Y-105268447D01*
X108281725Y-105270706D01*
X108301062Y-105274026D01*
X108318392Y-105278596D01*
X108335006Y-105284606D01*
X108352196Y-105292246D01*
X108359107Y-105295597D01*
X108395729Y-105318128D01*
X108428318Y-105347096D01*
X108455757Y-105381134D01*
X108476924Y-105418880D01*
X108489630Y-105454671D01*
X108492767Y-105471608D01*
X108495026Y-105493496D01*
X108496068Y-105516838D01*
X108496100Y-105521403D01*
X108493683Y-105564115D01*
X108485952Y-105601448D01*
X108472193Y-105635132D01*
X108451688Y-105666900D01*
X108423721Y-105698482D01*
X108422213Y-105699990D01*
X108394285Y-105725294D01*
X108368855Y-105743097D01*
X108360634Y-105747539D01*
X108345166Y-105754921D01*
X108330896Y-105760801D01*
X108316597Y-105765349D01*
X108301040Y-105768732D01*
X108282997Y-105771118D01*
X108261242Y-105772676D01*
X108234545Y-105773574D01*
X108201679Y-105773981D01*
X108167127Y-105774067D01*
X108051600Y-105774067D01*
X108051600Y-105660828D01*
X108187067Y-105660828D01*
X108223002Y-105658942D01*
X108243310Y-105657337D01*
X108258908Y-105654397D01*
X108273543Y-105649165D01*
X108287372Y-105642536D01*
X108314713Y-105624493D01*
X108335112Y-105601747D01*
X108348670Y-105574124D01*
X108355487Y-105541450D01*
X108356400Y-105522183D01*
X108352852Y-105487059D01*
X108342444Y-105455908D01*
X108325533Y-105429444D01*
X108302476Y-105408380D01*
X108298083Y-105405459D01*
X108282065Y-105396366D01*
X108266092Y-105390037D01*
X108247512Y-105385698D01*
X108223675Y-105382574D01*
X108217759Y-105382000D01*
X108187067Y-105379151D01*
X108187067Y-105660828D01*
X108051600Y-105660828D01*
X108051600Y-105266067D01*
X108158492Y-105266140D01*
G37*
X108158492Y-105266140D02*
X108198765Y-105266353D01*
X108231867Y-105267059D01*
X108259090Y-105268447D01*
X108281725Y-105270706D01*
X108301062Y-105274026D01*
X108318392Y-105278596D01*
X108335006Y-105284606D01*
X108352196Y-105292246D01*
X108359107Y-105295597D01*
X108395729Y-105318128D01*
X108428318Y-105347096D01*
X108455757Y-105381134D01*
X108476924Y-105418880D01*
X108489630Y-105454671D01*
X108492767Y-105471608D01*
X108495026Y-105493496D01*
X108496068Y-105516838D01*
X108496100Y-105521403D01*
X108493683Y-105564115D01*
X108485952Y-105601448D01*
X108472193Y-105635132D01*
X108451688Y-105666900D01*
X108423721Y-105698482D01*
X108422213Y-105699990D01*
X108394285Y-105725294D01*
X108368855Y-105743097D01*
X108360634Y-105747539D01*
X108345166Y-105754921D01*
X108330896Y-105760801D01*
X108316597Y-105765349D01*
X108301040Y-105768732D01*
X108282997Y-105771118D01*
X108261242Y-105772676D01*
X108234545Y-105773574D01*
X108201679Y-105773981D01*
X108167127Y-105774067D01*
X108051600Y-105774067D01*
X108051600Y-105660828D01*
X108187067Y-105660828D01*
X108223002Y-105658942D01*
X108243310Y-105657337D01*
X108258908Y-105654397D01*
X108273543Y-105649165D01*
X108287372Y-105642536D01*
X108314713Y-105624493D01*
X108335112Y-105601747D01*
X108348670Y-105574124D01*
X108355487Y-105541450D01*
X108356400Y-105522183D01*
X108352852Y-105487059D01*
X108342444Y-105455908D01*
X108325533Y-105429444D01*
X108302476Y-105408380D01*
X108298083Y-105405459D01*
X108282065Y-105396366D01*
X108266092Y-105390037D01*
X108247512Y-105385698D01*
X108223675Y-105382574D01*
X108217759Y-105382000D01*
X108187067Y-105379151D01*
X108187067Y-105660828D01*
X108051600Y-105660828D01*
X108051600Y-105266067D01*
X108158492Y-105266140D01*
G36*
X109181900Y-105380367D02*
G01*
X109025267Y-105380367D01*
X109025267Y-105460800D01*
X109173434Y-105460800D01*
X109173434Y-105579333D01*
X109025267Y-105579333D01*
X109025267Y-105659767D01*
X109181900Y-105659767D01*
X109181900Y-105774067D01*
X108889800Y-105774067D01*
X108889800Y-105266067D01*
X109181900Y-105266067D01*
X109181900Y-105380367D01*
G37*
X109181900Y-105380367D02*
X109025267Y-105380367D01*
X109025267Y-105460800D01*
X109173434Y-105460800D01*
X109173434Y-105579333D01*
X109025267Y-105579333D01*
X109025267Y-105659767D01*
X109181900Y-105659767D01*
X109181900Y-105774067D01*
X108889800Y-105774067D01*
X108889800Y-105266067D01*
X109181900Y-105266067D01*
X109181900Y-105380367D01*
G36*
X110028363Y-105266122D02*
G01*
X110047674Y-105266366D01*
X110060747Y-105266913D01*
X110068699Y-105267878D01*
X110072642Y-105269378D01*
X110073691Y-105271527D01*
X110073302Y-105273475D01*
X110071252Y-105278581D01*
X110066157Y-105290787D01*
X110058307Y-105309411D01*
X110047992Y-105333769D01*
X110035502Y-105363180D01*
X110021126Y-105396960D01*
X110005155Y-105434429D01*
X109987878Y-105474902D01*
X109969585Y-105517698D01*
X109965856Y-105526417D01*
X109860812Y-105771950D01*
X109751284Y-105774038D01*
X109647567Y-105526493D01*
X109629410Y-105483108D01*
X109612222Y-105441943D01*
X109596283Y-105403676D01*
X109581874Y-105368986D01*
X109569277Y-105338553D01*
X109558772Y-105313056D01*
X109550640Y-105293173D01*
X109545163Y-105279584D01*
X109542621Y-105272968D01*
X109542481Y-105272507D01*
X109542947Y-105270153D01*
X109546226Y-105268442D01*
X109553410Y-105267278D01*
X109565594Y-105266562D01*
X109583871Y-105266197D01*
X109609334Y-105266085D01*
X109614448Y-105266084D01*
X109687784Y-105266102D01*
X109747011Y-105416195D01*
X109760278Y-105449584D01*
X109772633Y-105480236D01*
X109783727Y-105507319D01*
X109793212Y-105529998D01*
X109800737Y-105547441D01*
X109805954Y-105558813D01*
X109808512Y-105563281D01*
X109808665Y-105563286D01*
X109810723Y-105558796D01*
X109815530Y-105547317D01*
X109822727Y-105529734D01*
X109831954Y-105506933D01*
X109842854Y-105479802D01*
X109855068Y-105449226D01*
X109868237Y-105416091D01*
X109869393Y-105413175D01*
X109927695Y-105266067D01*
X110001700Y-105266067D01*
X110028363Y-105266122D01*
G37*
X110028363Y-105266122D02*
X110047674Y-105266366D01*
X110060747Y-105266913D01*
X110068699Y-105267878D01*
X110072642Y-105269378D01*
X110073691Y-105271527D01*
X110073302Y-105273475D01*
X110071252Y-105278581D01*
X110066157Y-105290787D01*
X110058307Y-105309411D01*
X110047992Y-105333769D01*
X110035502Y-105363180D01*
X110021126Y-105396960D01*
X110005155Y-105434429D01*
X109987878Y-105474902D01*
X109969585Y-105517698D01*
X109965856Y-105526417D01*
X109860812Y-105771950D01*
X109751284Y-105774038D01*
X109647567Y-105526493D01*
X109629410Y-105483108D01*
X109612222Y-105441943D01*
X109596283Y-105403676D01*
X109581874Y-105368986D01*
X109569277Y-105338553D01*
X109558772Y-105313056D01*
X109550640Y-105293173D01*
X109545163Y-105279584D01*
X109542621Y-105272968D01*
X109542481Y-105272507D01*
X109542947Y-105270153D01*
X109546226Y-105268442D01*
X109553410Y-105267278D01*
X109565594Y-105266562D01*
X109583871Y-105266197D01*
X109609334Y-105266085D01*
X109614448Y-105266084D01*
X109687784Y-105266102D01*
X109747011Y-105416195D01*
X109760278Y-105449584D01*
X109772633Y-105480236D01*
X109783727Y-105507319D01*
X109793212Y-105529998D01*
X109800737Y-105547441D01*
X109805954Y-105558813D01*
X109808512Y-105563281D01*
X109808665Y-105563286D01*
X109810723Y-105558796D01*
X109815530Y-105547317D01*
X109822727Y-105529734D01*
X109831954Y-105506933D01*
X109842854Y-105479802D01*
X109855068Y-105449226D01*
X109868237Y-105416091D01*
X109869393Y-105413175D01*
X109927695Y-105266067D01*
X110001700Y-105266067D01*
X110028363Y-105266122D01*
G36*
X110574667Y-105774067D02*
G01*
X110439200Y-105774067D01*
X110439200Y-105266067D01*
X110574667Y-105266067D01*
X110574667Y-105774067D01*
G37*
X110574667Y-105774067D02*
X110439200Y-105774067D01*
X110439200Y-105266067D01*
X110574667Y-105266067D01*
X110574667Y-105774067D01*
G36*
X111125000Y-105659767D02*
G01*
X111285867Y-105659767D01*
X111285867Y-105774067D01*
X110989533Y-105774067D01*
X110989533Y-105266067D01*
X111125000Y-105266067D01*
X111125000Y-105659767D01*
G37*
X111125000Y-105659767D02*
X111285867Y-105659767D01*
X111285867Y-105774067D01*
X110989533Y-105774067D01*
X110989533Y-105266067D01*
X111125000Y-105266067D01*
X111125000Y-105659767D01*
G36*
X105629115Y-102677257D02*
G01*
X105639184Y-102682549D01*
X105652715Y-102690128D01*
X105657227Y-102692732D01*
X105673412Y-102702130D01*
X105688590Y-102710929D01*
X105699833Y-102717434D01*
X105701042Y-102718132D01*
X105714910Y-102726135D01*
X105728558Y-102734017D01*
X105736649Y-102738665D01*
X105750617Y-102746659D01*
X105768981Y-102757153D01*
X105790262Y-102769303D01*
X105810050Y-102780590D01*
X105832010Y-102793141D01*
X105851707Y-102804452D01*
X105867846Y-102813776D01*
X105879129Y-102820362D01*
X105884133Y-102823379D01*
X105891989Y-102828037D01*
X105903160Y-102834144D01*
X105905300Y-102835268D01*
X105914644Y-102840302D01*
X105929385Y-102848432D01*
X105947562Y-102858568D01*
X105967210Y-102869621D01*
X105968800Y-102870520D01*
X105988477Y-102881576D01*
X106006840Y-102891768D01*
X106021930Y-102900016D01*
X106031786Y-102905239D01*
X106032300Y-102905500D01*
X106044399Y-102911772D01*
X106054573Y-102917347D01*
X106055584Y-102917935D01*
X106062364Y-102921729D01*
X106074942Y-102928595D01*
X106091643Y-102937625D01*
X106110791Y-102947909D01*
X106114850Y-102950081D01*
X106135289Y-102961030D01*
X106154595Y-102971409D01*
X106170740Y-102980124D01*
X106181693Y-102986082D01*
X106182584Y-102986571D01*
X106199738Y-102995806D01*
X106223409Y-103008235D01*
X106252516Y-103023313D01*
X106285980Y-103040494D01*
X106322721Y-103059235D01*
X106361659Y-103078991D01*
X106401714Y-103099215D01*
X106441806Y-103119364D01*
X106480855Y-103138892D01*
X106517782Y-103157255D01*
X106551506Y-103173908D01*
X106580948Y-103188304D01*
X106605027Y-103199901D01*
X106610150Y-103202331D01*
X106647633Y-103219907D01*
X106690838Y-103239948D01*
X106737734Y-103261518D01*
X106786287Y-103283680D01*
X106826050Y-103301703D01*
X106877760Y-103324652D01*
X106934101Y-103348939D01*
X106992639Y-103373551D01*
X107050943Y-103397480D01*
X107106580Y-103419715D01*
X107157119Y-103439247D01*
X107158367Y-103439718D01*
X107180252Y-103448024D01*
X107199840Y-103455532D01*
X107215523Y-103461620D01*
X107225695Y-103465667D01*
X107228217Y-103466734D01*
X107240580Y-103471760D01*
X107259703Y-103478820D01*
X107284246Y-103487476D01*
X107312871Y-103497288D01*
X107344240Y-103507818D01*
X107377013Y-103518628D01*
X107409853Y-103529279D01*
X107441421Y-103539331D01*
X107470378Y-103548348D01*
X107495385Y-103555890D01*
X107515105Y-103561518D01*
X107525997Y-103564307D01*
X107548610Y-103569531D01*
X107584617Y-103644157D01*
X107598334Y-103672534D01*
X107614407Y-103705702D01*
X107631470Y-103740844D01*
X107648155Y-103775148D01*
X107661952Y-103803450D01*
X107675454Y-103831153D01*
X107689053Y-103859124D01*
X107701835Y-103885482D01*
X107712889Y-103908346D01*
X107721302Y-103925835D01*
X107722497Y-103928333D01*
X107731088Y-103946310D01*
X107742187Y-103969533D01*
X107754649Y-103995609D01*
X107767332Y-104022146D01*
X107774089Y-104036283D01*
X107786776Y-104062677D01*
X107801900Y-104093906D01*
X107818127Y-104127226D01*
X107834121Y-104159894D01*
X107846482Y-104184994D01*
X107858336Y-104209196D01*
X107868796Y-104230960D01*
X107877309Y-104249103D01*
X107883323Y-104262443D01*
X107886286Y-104269795D01*
X107886500Y-104270719D01*
X107889431Y-104275235D01*
X107890733Y-104275467D01*
X107894674Y-104278806D01*
X107894967Y-104280721D01*
X107896730Y-104286834D01*
X107901395Y-104298242D01*
X107908028Y-104312692D01*
X107909458Y-104315646D01*
X107915964Y-104329022D01*
X107925259Y-104348211D01*
X107936465Y-104371392D01*
X107948702Y-104396747D01*
X107960638Y-104421516D01*
X107975012Y-104451301D01*
X107991085Y-104484497D01*
X108007388Y-104518072D01*
X108022449Y-104548997D01*
X108030813Y-104566113D01*
X108041576Y-104588342D01*
X108050902Y-104608075D01*
X108058193Y-104624009D01*
X108062853Y-104634838D01*
X108064300Y-104639138D01*
X108067293Y-104643563D01*
X108068533Y-104643766D01*
X108072510Y-104647085D01*
X108072767Y-104648813D01*
X108074505Y-104655099D01*
X108079036Y-104666156D01*
X108085333Y-104679897D01*
X108092373Y-104694232D01*
X108099128Y-104707074D01*
X108104573Y-104716335D01*
X108107684Y-104719927D01*
X108107692Y-104719927D01*
X108110706Y-104716652D01*
X108110867Y-104715142D01*
X108112647Y-104709848D01*
X108117558Y-104698393D01*
X108124958Y-104682197D01*
X108134206Y-104662680D01*
X108140072Y-104650584D01*
X108152625Y-104624829D01*
X108167297Y-104594606D01*
X108182551Y-104563083D01*
X108196853Y-104533429D01*
X108201812Y-104523116D01*
X108214549Y-104496717D01*
X108228100Y-104468828D01*
X108241194Y-104442051D01*
X108252561Y-104418990D01*
X108257274Y-104409518D01*
X108266183Y-104391222D01*
X108273476Y-104375341D01*
X108278400Y-104363583D01*
X108280200Y-104357660D01*
X108282604Y-104352259D01*
X108284434Y-104351666D01*
X108288521Y-104348426D01*
X108288667Y-104347291D01*
X108290457Y-104342372D01*
X108295474Y-104331010D01*
X108303183Y-104314348D01*
X108313054Y-104293530D01*
X108324551Y-104269697D01*
X108330585Y-104257332D01*
X108343800Y-104230267D01*
X108356723Y-104203641D01*
X108368549Y-104179126D01*
X108378474Y-104158391D01*
X108385693Y-104143108D01*
X108387134Y-104140000D01*
X108392781Y-104127850D01*
X108399617Y-104113349D01*
X108407980Y-104095797D01*
X108418208Y-104074493D01*
X108430639Y-104048736D01*
X108445610Y-104017826D01*
X108463459Y-103981062D01*
X108484524Y-103937742D01*
X108496314Y-103913517D01*
X108509804Y-103885740D01*
X108523994Y-103856407D01*
X108537724Y-103827928D01*
X108549828Y-103802715D01*
X108557561Y-103786517D01*
X108569239Y-103762027D01*
X108582867Y-103733560D01*
X108596698Y-103704756D01*
X108608298Y-103680683D01*
X108619098Y-103658224D01*
X108629741Y-103635914D01*
X108639110Y-103616105D01*
X108646090Y-103601148D01*
X108646982Y-103599205D01*
X108651481Y-103589231D01*
X108655290Y-103581908D01*
X108659753Y-103576444D01*
X108666216Y-103572047D01*
X108676023Y-103567925D01*
X108690518Y-103563287D01*
X108711045Y-103557340D01*
X108724700Y-103553424D01*
X108777156Y-103537537D01*
X108835870Y-103518367D01*
X108899526Y-103496411D01*
X108966808Y-103472169D01*
X109036399Y-103446139D01*
X109106982Y-103418820D01*
X109177242Y-103390710D01*
X109245861Y-103362309D01*
X109311524Y-103334115D01*
X109356708Y-103314008D01*
X109374626Y-103305955D01*
X109389516Y-103299369D01*
X109399812Y-103294933D01*
X109403941Y-103293333D01*
X109408169Y-103291657D01*
X109418427Y-103287117D01*
X109433082Y-103280446D01*
X109447151Y-103273940D01*
X109465024Y-103265630D01*
X109488344Y-103254800D01*
X109514877Y-103242488D01*
X109542386Y-103229731D01*
X109562900Y-103220224D01*
X109581290Y-103211534D01*
X109606165Y-103199523D01*
X109636468Y-103184720D01*
X109671143Y-103167653D01*
X109709132Y-103148850D01*
X109749380Y-103128840D01*
X109790828Y-103108151D01*
X109832422Y-103087310D01*
X109873103Y-103066846D01*
X109911816Y-103047286D01*
X109947503Y-103029161D01*
X109979108Y-103012996D01*
X110005574Y-102999321D01*
X110020100Y-102991711D01*
X110050142Y-102975717D01*
X110085878Y-102956478D01*
X110125632Y-102934913D01*
X110167725Y-102911941D01*
X110210479Y-102888480D01*
X110252216Y-102865449D01*
X110291259Y-102843766D01*
X110325930Y-102824350D01*
X110329134Y-102822545D01*
X110353311Y-102808902D01*
X110372279Y-102798164D01*
X110388212Y-102789092D01*
X110403284Y-102780447D01*
X110419667Y-102770990D01*
X110424936Y-102767940D01*
X110465147Y-102744701D01*
X110498618Y-102725459D01*
X110525901Y-102709909D01*
X110547550Y-102697748D01*
X110564117Y-102688673D01*
X110576155Y-102682380D01*
X110584219Y-102678565D01*
X110588859Y-102676926D01*
X110590536Y-102677025D01*
X110590630Y-102682274D01*
X110586803Y-102690927D01*
X110586530Y-102691382D01*
X110580916Y-102700766D01*
X110572801Y-102714555D01*
X110563911Y-102729818D01*
X110563632Y-102730300D01*
X110552744Y-102748626D01*
X110540076Y-102769259D01*
X110529432Y-102786074D01*
X110520826Y-102799928D01*
X110514403Y-102811299D01*
X110511294Y-102818150D01*
X110511167Y-102818883D01*
X110508805Y-102823253D01*
X110507896Y-102823433D01*
X110504095Y-102826833D01*
X110498468Y-102835363D01*
X110496295Y-102839308D01*
X110490650Y-102849631D01*
X110486556Y-102856345D01*
X110485807Y-102857300D01*
X110482147Y-102862289D01*
X110478661Y-102867883D01*
X110474584Y-102874610D01*
X110467066Y-102886838D01*
X110457146Y-102902886D01*
X110445862Y-102921070D01*
X110444795Y-102922787D01*
X110433543Y-102941181D01*
X110423753Y-102957746D01*
X110416418Y-102970760D01*
X110412535Y-102978500D01*
X110412389Y-102978879D01*
X110408277Y-102986293D01*
X110404981Y-102988533D01*
X110401235Y-102991787D01*
X110401100Y-102992934D01*
X110398882Y-102998536D01*
X110393111Y-103008698D01*
X110386284Y-103019335D01*
X110378496Y-103031651D01*
X110373129Y-103041572D01*
X110371467Y-103046332D01*
X110368832Y-103052093D01*
X110367718Y-103052739D01*
X110363994Y-103056776D01*
X110357183Y-103066394D01*
X110348479Y-103079864D01*
X110344118Y-103086958D01*
X110334984Y-103101435D01*
X110327197Y-103112648D01*
X110321929Y-103118959D01*
X110320643Y-103119766D01*
X110315693Y-103121494D01*
X110304606Y-103126236D01*
X110288869Y-103133330D01*
X110269972Y-103142115D01*
X110263517Y-103145167D01*
X110244127Y-103154321D01*
X110227641Y-103162009D01*
X110215478Y-103167576D01*
X110209059Y-103170367D01*
X110208441Y-103170567D01*
X110204171Y-103172240D01*
X110194038Y-103176727D01*
X110179834Y-103183223D01*
X110171692Y-103187010D01*
X110147937Y-103198067D01*
X110117623Y-103212098D01*
X110081898Y-103228574D01*
X110041909Y-103246966D01*
X110007400Y-103262804D01*
X109959067Y-103284982D01*
X109915959Y-103304810D01*
X109877013Y-103322792D01*
X109841169Y-103339433D01*
X109807368Y-103355237D01*
X109774547Y-103370709D01*
X109741646Y-103386354D01*
X109707605Y-103402676D01*
X109671362Y-103420179D01*
X109631858Y-103439368D01*
X109588030Y-103460748D01*
X109538820Y-103484824D01*
X109483165Y-103512099D01*
X109478234Y-103514517D01*
X109446912Y-103529854D01*
X109415507Y-103545192D01*
X109385551Y-103559785D01*
X109358574Y-103572888D01*
X109336109Y-103583757D01*
X109319685Y-103591646D01*
X109319484Y-103591742D01*
X109302317Y-103599982D01*
X109279271Y-103611118D01*
X109252067Y-103624314D01*
X109222428Y-103638735D01*
X109192072Y-103653545D01*
X109173434Y-103662660D01*
X109139559Y-103679242D01*
X109101685Y-103697778D01*
X109062511Y-103716947D01*
X109024735Y-103735429D01*
X108991057Y-103751904D01*
X108982174Y-103756248D01*
X108951824Y-103771232D01*
X108928287Y-103783221D01*
X108910673Y-103792732D01*
X108898092Y-103800283D01*
X108889653Y-103806389D01*
X108884465Y-103811569D01*
X108882836Y-103813932D01*
X108877018Y-103822465D01*
X108872641Y-103826647D01*
X108872239Y-103826733D01*
X108868630Y-103830190D01*
X108866713Y-103834580D01*
X108862611Y-103841929D01*
X108854640Y-103852661D01*
X108847535Y-103861039D01*
X108837320Y-103873199D01*
X108828876Y-103884589D01*
X108825399Y-103890233D01*
X108818456Y-103901175D01*
X108810288Y-103911400D01*
X108802724Y-103920614D01*
X108792923Y-103933756D01*
X108784888Y-103945238D01*
X108776153Y-103957913D01*
X108768873Y-103968065D01*
X108764917Y-103973142D01*
X108761712Y-103976872D01*
X108757125Y-103982642D01*
X108750501Y-103991323D01*
X108741187Y-104003788D01*
X108728529Y-104020908D01*
X108711871Y-104043557D01*
X108701675Y-104057450D01*
X108686962Y-104077413D01*
X108673072Y-104096091D01*
X108661187Y-104111905D01*
X108652490Y-104123280D01*
X108649610Y-104126928D01*
X108640646Y-104138356D01*
X108632970Y-104148719D01*
X108631567Y-104150739D01*
X108619509Y-104168404D01*
X108611537Y-104179778D01*
X108607094Y-104185651D01*
X108606254Y-104186567D01*
X108602308Y-104191381D01*
X108593871Y-104202475D01*
X108581387Y-104219248D01*
X108565302Y-104241101D01*
X108546063Y-104267436D01*
X108543298Y-104271233D01*
X108532034Y-104286660D01*
X108522380Y-104299793D01*
X108515577Y-104308949D01*
X108513162Y-104312106D01*
X108508810Y-104317775D01*
X108500206Y-104329205D01*
X108488128Y-104345349D01*
X108473355Y-104365159D01*
X108456665Y-104387584D01*
X108438836Y-104411578D01*
X108420646Y-104436091D01*
X108402875Y-104460075D01*
X108386300Y-104482481D01*
X108371698Y-104502262D01*
X108359850Y-104518368D01*
X108351533Y-104529751D01*
X108348915Y-104533381D01*
X108342648Y-104541948D01*
X108333504Y-104554216D01*
X108323163Y-104567958D01*
X108313303Y-104580950D01*
X108305604Y-104590967D01*
X108302345Y-104595083D01*
X108298392Y-104600424D01*
X108291096Y-104610718D01*
X108281896Y-104623931D01*
X108280003Y-104626673D01*
X108269852Y-104641050D01*
X108260523Y-104653658D01*
X108253849Y-104662025D01*
X108253286Y-104662657D01*
X108246089Y-104671632D01*
X108237489Y-104683774D01*
X108234633Y-104688122D01*
X108227163Y-104699374D01*
X108220935Y-104708068D01*
X108219213Y-104710200D01*
X108216413Y-104713419D01*
X108213327Y-104717165D01*
X108208951Y-104722731D01*
X108202278Y-104731413D01*
X108192302Y-104744503D01*
X108181188Y-104759125D01*
X108156260Y-104791933D01*
X108106214Y-104791933D01*
X108081325Y-104791551D01*
X108064257Y-104790365D01*
X108054399Y-104788316D01*
X108051684Y-104786641D01*
X108037938Y-104770124D01*
X108029591Y-104759363D01*
X108026291Y-104753901D01*
X108026205Y-104753423D01*
X108023718Y-104748701D01*
X108018528Y-104742049D01*
X108009850Y-104731365D01*
X108003903Y-104723410D01*
X107999645Y-104717567D01*
X107991298Y-104706241D01*
X107979747Y-104690621D01*
X107965873Y-104671895D01*
X107950562Y-104651253D01*
X107934695Y-104629885D01*
X107919156Y-104608980D01*
X107904829Y-104589726D01*
X107892596Y-104573314D01*
X107883340Y-104560932D01*
X107877946Y-104553770D01*
X107877160Y-104552750D01*
X107873053Y-104547271D01*
X107865697Y-104537240D01*
X107857937Y-104526559D01*
X107847712Y-104512440D01*
X107839352Y-104500945D01*
X107831562Y-104490322D01*
X107823050Y-104478817D01*
X107812523Y-104464679D01*
X107798687Y-104446155D01*
X107792562Y-104437960D01*
X107779060Y-104419877D01*
X107766819Y-104403440D01*
X107757021Y-104390239D01*
X107750848Y-104381867D01*
X107750079Y-104380810D01*
X107739863Y-104366820D01*
X107726756Y-104349056D01*
X107711607Y-104328651D01*
X107695264Y-104306736D01*
X107678577Y-104284442D01*
X107662396Y-104262903D01*
X107647569Y-104243250D01*
X107634947Y-104226615D01*
X107625378Y-104214129D01*
X107619712Y-104206926D01*
X107618821Y-104205877D01*
X107613199Y-104198764D01*
X107611333Y-104194883D01*
X107608878Y-104189912D01*
X107603925Y-104183337D01*
X107592566Y-104169703D01*
X107584680Y-104159584D01*
X107578115Y-104150171D01*
X107575690Y-104146458D01*
X107569132Y-104136699D01*
X107564097Y-104129871D01*
X107563806Y-104129527D01*
X107560125Y-104124785D01*
X107552564Y-104114733D01*
X107542249Y-104100891D01*
X107530306Y-104084777D01*
X107517859Y-104067910D01*
X107506034Y-104051811D01*
X107495956Y-104037997D01*
X107493642Y-104034802D01*
X107486370Y-104025004D01*
X107477217Y-104012990D01*
X107474808Y-104009879D01*
X107467775Y-104000306D01*
X107463622Y-103993641D01*
X107463147Y-103992309D01*
X107460514Y-103987857D01*
X107453963Y-103979898D01*
X107451351Y-103977017D01*
X107440924Y-103964404D01*
X107431164Y-103950542D01*
X107430314Y-103949179D01*
X107421564Y-103936307D01*
X107412217Y-103924540D01*
X107410992Y-103923184D01*
X107401674Y-103911839D01*
X107392662Y-103898982D01*
X107392112Y-103898105D01*
X107384128Y-103886329D01*
X107376254Y-103876327D01*
X107375430Y-103875417D01*
X107368464Y-103867010D01*
X107359437Y-103854980D01*
X107354431Y-103847900D01*
X107345097Y-103834882D01*
X107336086Y-103823136D01*
X107332381Y-103818677D01*
X107326169Y-103810648D01*
X107323470Y-103805297D01*
X107323467Y-103805201D01*
X107319908Y-103802034D01*
X107310369Y-103796303D01*
X107296558Y-103788994D01*
X107288542Y-103785035D01*
X107273937Y-103777984D01*
X107253488Y-103768110D01*
X107228975Y-103756274D01*
X107202177Y-103743334D01*
X107174874Y-103730150D01*
X107169600Y-103727604D01*
X107145131Y-103715813D01*
X107123356Y-103705370D01*
X107105384Y-103696801D01*
X107092321Y-103690634D01*
X107085275Y-103687395D01*
X107084363Y-103687033D01*
X107080364Y-103685276D01*
X107069884Y-103680363D01*
X107054060Y-103672838D01*
X107034027Y-103663240D01*
X107010922Y-103652112D01*
X107003279Y-103648419D01*
X106975921Y-103635209D01*
X106947960Y-103621738D01*
X106921455Y-103608997D01*
X106898462Y-103597973D01*
X106881084Y-103589678D01*
X106858631Y-103579003D01*
X106832460Y-103566561D01*
X106806499Y-103554220D01*
X106792184Y-103547415D01*
X106769636Y-103536659D01*
X106742856Y-103523828D01*
X106715227Y-103510545D01*
X106690584Y-103498652D01*
X106643714Y-103476005D01*
X106596920Y-103453450D01*
X106552017Y-103431859D01*
X106510822Y-103412106D01*
X106475150Y-103395065D01*
X106470450Y-103392826D01*
X106447435Y-103381849D01*
X106420363Y-103368911D01*
X106392808Y-103355719D01*
X106370967Y-103345244D01*
X106347505Y-103334003D01*
X106322873Y-103322243D01*
X106300018Y-103311368D01*
X106282067Y-103302868D01*
X106194870Y-103261476D01*
X106107368Y-103219355D01*
X106085018Y-103208508D01*
X106060456Y-103196623D01*
X106036127Y-103184945D01*
X106014041Y-103174432D01*
X105996206Y-103166042D01*
X105987651Y-103162092D01*
X105954696Y-103146728D01*
X105926985Y-103133060D01*
X105905196Y-103121447D01*
X105890007Y-103112248D01*
X105882571Y-103106364D01*
X105875292Y-103096984D01*
X105867343Y-103084561D01*
X105865544Y-103081384D01*
X105857632Y-103067496D01*
X105847648Y-103050751D01*
X105836680Y-103032881D01*
X105825815Y-103015617D01*
X105816140Y-103000690D01*
X105808743Y-102989829D01*
X105805026Y-102985056D01*
X105800281Y-102978452D01*
X105799467Y-102975657D01*
X105797295Y-102971054D01*
X105791245Y-102960494D01*
X105782020Y-102945142D01*
X105770319Y-102926162D01*
X105756844Y-102904720D01*
X105755711Y-102902934D01*
X105735798Y-102871477D01*
X105719035Y-102844754D01*
X105703958Y-102820397D01*
X105689105Y-102796042D01*
X105673010Y-102769321D01*
X105671189Y-102766283D01*
X105666222Y-102758753D01*
X105663681Y-102755700D01*
X105660237Y-102750930D01*
X105654707Y-102741712D01*
X105653098Y-102738844D01*
X105646457Y-102727791D01*
X105640526Y-102719428D01*
X105639658Y-102718433D01*
X105635063Y-102710712D01*
X105634367Y-102707232D01*
X105631393Y-102700087D01*
X105628017Y-102696433D01*
X105623689Y-102690105D01*
X105621636Y-102682229D01*
X105622462Y-102676356D01*
X105624418Y-102675267D01*
X105629115Y-102677257D01*
G37*
X105629115Y-102677257D02*
X105639184Y-102682549D01*
X105652715Y-102690128D01*
X105657227Y-102692732D01*
X105673412Y-102702130D01*
X105688590Y-102710929D01*
X105699833Y-102717434D01*
X105701042Y-102718132D01*
X105714910Y-102726135D01*
X105728558Y-102734017D01*
X105736649Y-102738665D01*
X105750617Y-102746659D01*
X105768981Y-102757153D01*
X105790262Y-102769303D01*
X105810050Y-102780590D01*
X105832010Y-102793141D01*
X105851707Y-102804452D01*
X105867846Y-102813776D01*
X105879129Y-102820362D01*
X105884133Y-102823379D01*
X105891989Y-102828037D01*
X105903160Y-102834144D01*
X105905300Y-102835268D01*
X105914644Y-102840302D01*
X105929385Y-102848432D01*
X105947562Y-102858568D01*
X105967210Y-102869621D01*
X105968800Y-102870520D01*
X105988477Y-102881576D01*
X106006840Y-102891768D01*
X106021930Y-102900016D01*
X106031786Y-102905239D01*
X106032300Y-102905500D01*
X106044399Y-102911772D01*
X106054573Y-102917347D01*
X106055584Y-102917935D01*
X106062364Y-102921729D01*
X106074942Y-102928595D01*
X106091643Y-102937625D01*
X106110791Y-102947909D01*
X106114850Y-102950081D01*
X106135289Y-102961030D01*
X106154595Y-102971409D01*
X106170740Y-102980124D01*
X106181693Y-102986082D01*
X106182584Y-102986571D01*
X106199738Y-102995806D01*
X106223409Y-103008235D01*
X106252516Y-103023313D01*
X106285980Y-103040494D01*
X106322721Y-103059235D01*
X106361659Y-103078991D01*
X106401714Y-103099215D01*
X106441806Y-103119364D01*
X106480855Y-103138892D01*
X106517782Y-103157255D01*
X106551506Y-103173908D01*
X106580948Y-103188304D01*
X106605027Y-103199901D01*
X106610150Y-103202331D01*
X106647633Y-103219907D01*
X106690838Y-103239948D01*
X106737734Y-103261518D01*
X106786287Y-103283680D01*
X106826050Y-103301703D01*
X106877760Y-103324652D01*
X106934101Y-103348939D01*
X106992639Y-103373551D01*
X107050943Y-103397480D01*
X107106580Y-103419715D01*
X107157119Y-103439247D01*
X107158367Y-103439718D01*
X107180252Y-103448024D01*
X107199840Y-103455532D01*
X107215523Y-103461620D01*
X107225695Y-103465667D01*
X107228217Y-103466734D01*
X107240580Y-103471760D01*
X107259703Y-103478820D01*
X107284246Y-103487476D01*
X107312871Y-103497288D01*
X107344240Y-103507818D01*
X107377013Y-103518628D01*
X107409853Y-103529279D01*
X107441421Y-103539331D01*
X107470378Y-103548348D01*
X107495385Y-103555890D01*
X107515105Y-103561518D01*
X107525997Y-103564307D01*
X107548610Y-103569531D01*
X107584617Y-103644157D01*
X107598334Y-103672534D01*
X107614407Y-103705702D01*
X107631470Y-103740844D01*
X107648155Y-103775148D01*
X107661952Y-103803450D01*
X107675454Y-103831153D01*
X107689053Y-103859124D01*
X107701835Y-103885482D01*
X107712889Y-103908346D01*
X107721302Y-103925835D01*
X107722497Y-103928333D01*
X107731088Y-103946310D01*
X107742187Y-103969533D01*
X107754649Y-103995609D01*
X107767332Y-104022146D01*
X107774089Y-104036283D01*
X107786776Y-104062677D01*
X107801900Y-104093906D01*
X107818127Y-104127226D01*
X107834121Y-104159894D01*
X107846482Y-104184994D01*
X107858336Y-104209196D01*
X107868796Y-104230960D01*
X107877309Y-104249103D01*
X107883323Y-104262443D01*
X107886286Y-104269795D01*
X107886500Y-104270719D01*
X107889431Y-104275235D01*
X107890733Y-104275467D01*
X107894674Y-104278806D01*
X107894967Y-104280721D01*
X107896730Y-104286834D01*
X107901395Y-104298242D01*
X107908028Y-104312692D01*
X107909458Y-104315646D01*
X107915964Y-104329022D01*
X107925259Y-104348211D01*
X107936465Y-104371392D01*
X107948702Y-104396747D01*
X107960638Y-104421516D01*
X107975012Y-104451301D01*
X107991085Y-104484497D01*
X108007388Y-104518072D01*
X108022449Y-104548997D01*
X108030813Y-104566113D01*
X108041576Y-104588342D01*
X108050902Y-104608075D01*
X108058193Y-104624009D01*
X108062853Y-104634838D01*
X108064300Y-104639138D01*
X108067293Y-104643563D01*
X108068533Y-104643766D01*
X108072510Y-104647085D01*
X108072767Y-104648813D01*
X108074505Y-104655099D01*
X108079036Y-104666156D01*
X108085333Y-104679897D01*
X108092373Y-104694232D01*
X108099128Y-104707074D01*
X108104573Y-104716335D01*
X108107684Y-104719927D01*
X108107692Y-104719927D01*
X108110706Y-104716652D01*
X108110867Y-104715142D01*
X108112647Y-104709848D01*
X108117558Y-104698393D01*
X108124958Y-104682197D01*
X108134206Y-104662680D01*
X108140072Y-104650584D01*
X108152625Y-104624829D01*
X108167297Y-104594606D01*
X108182551Y-104563083D01*
X108196853Y-104533429D01*
X108201812Y-104523116D01*
X108214549Y-104496717D01*
X108228100Y-104468828D01*
X108241194Y-104442051D01*
X108252561Y-104418990D01*
X108257274Y-104409518D01*
X108266183Y-104391222D01*
X108273476Y-104375341D01*
X108278400Y-104363583D01*
X108280200Y-104357660D01*
X108282604Y-104352259D01*
X108284434Y-104351666D01*
X108288521Y-104348426D01*
X108288667Y-104347291D01*
X108290457Y-104342372D01*
X108295474Y-104331010D01*
X108303183Y-104314348D01*
X108313054Y-104293530D01*
X108324551Y-104269697D01*
X108330585Y-104257332D01*
X108343800Y-104230267D01*
X108356723Y-104203641D01*
X108368549Y-104179126D01*
X108378474Y-104158391D01*
X108385693Y-104143108D01*
X108387134Y-104140000D01*
X108392781Y-104127850D01*
X108399617Y-104113349D01*
X108407980Y-104095797D01*
X108418208Y-104074493D01*
X108430639Y-104048736D01*
X108445610Y-104017826D01*
X108463459Y-103981062D01*
X108484524Y-103937742D01*
X108496314Y-103913517D01*
X108509804Y-103885740D01*
X108523994Y-103856407D01*
X108537724Y-103827928D01*
X108549828Y-103802715D01*
X108557561Y-103786517D01*
X108569239Y-103762027D01*
X108582867Y-103733560D01*
X108596698Y-103704756D01*
X108608298Y-103680683D01*
X108619098Y-103658224D01*
X108629741Y-103635914D01*
X108639110Y-103616105D01*
X108646090Y-103601148D01*
X108646982Y-103599205D01*
X108651481Y-103589231D01*
X108655290Y-103581908D01*
X108659753Y-103576444D01*
X108666216Y-103572047D01*
X108676023Y-103567925D01*
X108690518Y-103563287D01*
X108711045Y-103557340D01*
X108724700Y-103553424D01*
X108777156Y-103537537D01*
X108835870Y-103518367D01*
X108899526Y-103496411D01*
X108966808Y-103472169D01*
X109036399Y-103446139D01*
X109106982Y-103418820D01*
X109177242Y-103390710D01*
X109245861Y-103362309D01*
X109311524Y-103334115D01*
X109356708Y-103314008D01*
X109374626Y-103305955D01*
X109389516Y-103299369D01*
X109399812Y-103294933D01*
X109403941Y-103293333D01*
X109408169Y-103291657D01*
X109418427Y-103287117D01*
X109433082Y-103280446D01*
X109447151Y-103273940D01*
X109465024Y-103265630D01*
X109488344Y-103254800D01*
X109514877Y-103242488D01*
X109542386Y-103229731D01*
X109562900Y-103220224D01*
X109581290Y-103211534D01*
X109606165Y-103199523D01*
X109636468Y-103184720D01*
X109671143Y-103167653D01*
X109709132Y-103148850D01*
X109749380Y-103128840D01*
X109790828Y-103108151D01*
X109832422Y-103087310D01*
X109873103Y-103066846D01*
X109911816Y-103047286D01*
X109947503Y-103029161D01*
X109979108Y-103012996D01*
X110005574Y-102999321D01*
X110020100Y-102991711D01*
X110050142Y-102975717D01*
X110085878Y-102956478D01*
X110125632Y-102934913D01*
X110167725Y-102911941D01*
X110210479Y-102888480D01*
X110252216Y-102865449D01*
X110291259Y-102843766D01*
X110325930Y-102824350D01*
X110329134Y-102822545D01*
X110353311Y-102808902D01*
X110372279Y-102798164D01*
X110388212Y-102789092D01*
X110403284Y-102780447D01*
X110419667Y-102770990D01*
X110424936Y-102767940D01*
X110465147Y-102744701D01*
X110498618Y-102725459D01*
X110525901Y-102709909D01*
X110547550Y-102697748D01*
X110564117Y-102688673D01*
X110576155Y-102682380D01*
X110584219Y-102678565D01*
X110588859Y-102676926D01*
X110590536Y-102677025D01*
X110590630Y-102682274D01*
X110586803Y-102690927D01*
X110586530Y-102691382D01*
X110580916Y-102700766D01*
X110572801Y-102714555D01*
X110563911Y-102729818D01*
X110563632Y-102730300D01*
X110552744Y-102748626D01*
X110540076Y-102769259D01*
X110529432Y-102786074D01*
X110520826Y-102799928D01*
X110514403Y-102811299D01*
X110511294Y-102818150D01*
X110511167Y-102818883D01*
X110508805Y-102823253D01*
X110507896Y-102823433D01*
X110504095Y-102826833D01*
X110498468Y-102835363D01*
X110496295Y-102839308D01*
X110490650Y-102849631D01*
X110486556Y-102856345D01*
X110485807Y-102857300D01*
X110482147Y-102862289D01*
X110478661Y-102867883D01*
X110474584Y-102874610D01*
X110467066Y-102886838D01*
X110457146Y-102902886D01*
X110445862Y-102921070D01*
X110444795Y-102922787D01*
X110433543Y-102941181D01*
X110423753Y-102957746D01*
X110416418Y-102970760D01*
X110412535Y-102978500D01*
X110412389Y-102978879D01*
X110408277Y-102986293D01*
X110404981Y-102988533D01*
X110401235Y-102991787D01*
X110401100Y-102992934D01*
X110398882Y-102998536D01*
X110393111Y-103008698D01*
X110386284Y-103019335D01*
X110378496Y-103031651D01*
X110373129Y-103041572D01*
X110371467Y-103046332D01*
X110368832Y-103052093D01*
X110367718Y-103052739D01*
X110363994Y-103056776D01*
X110357183Y-103066394D01*
X110348479Y-103079864D01*
X110344118Y-103086958D01*
X110334984Y-103101435D01*
X110327197Y-103112648D01*
X110321929Y-103118959D01*
X110320643Y-103119766D01*
X110315693Y-103121494D01*
X110304606Y-103126236D01*
X110288869Y-103133330D01*
X110269972Y-103142115D01*
X110263517Y-103145167D01*
X110244127Y-103154321D01*
X110227641Y-103162009D01*
X110215478Y-103167576D01*
X110209059Y-103170367D01*
X110208441Y-103170567D01*
X110204171Y-103172240D01*
X110194038Y-103176727D01*
X110179834Y-103183223D01*
X110171692Y-103187010D01*
X110147937Y-103198067D01*
X110117623Y-103212098D01*
X110081898Y-103228574D01*
X110041909Y-103246966D01*
X110007400Y-103262804D01*
X109959067Y-103284982D01*
X109915959Y-103304810D01*
X109877013Y-103322792D01*
X109841169Y-103339433D01*
X109807368Y-103355237D01*
X109774547Y-103370709D01*
X109741646Y-103386354D01*
X109707605Y-103402676D01*
X109671362Y-103420179D01*
X109631858Y-103439368D01*
X109588030Y-103460748D01*
X109538820Y-103484824D01*
X109483165Y-103512099D01*
X109478234Y-103514517D01*
X109446912Y-103529854D01*
X109415507Y-103545192D01*
X109385551Y-103559785D01*
X109358574Y-103572888D01*
X109336109Y-103583757D01*
X109319685Y-103591646D01*
X109319484Y-103591742D01*
X109302317Y-103599982D01*
X109279271Y-103611118D01*
X109252067Y-103624314D01*
X109222428Y-103638735D01*
X109192072Y-103653545D01*
X109173434Y-103662660D01*
X109139559Y-103679242D01*
X109101685Y-103697778D01*
X109062511Y-103716947D01*
X109024735Y-103735429D01*
X108991057Y-103751904D01*
X108982174Y-103756248D01*
X108951824Y-103771232D01*
X108928287Y-103783221D01*
X108910673Y-103792732D01*
X108898092Y-103800283D01*
X108889653Y-103806389D01*
X108884465Y-103811569D01*
X108882836Y-103813932D01*
X108877018Y-103822465D01*
X108872641Y-103826647D01*
X108872239Y-103826733D01*
X108868630Y-103830190D01*
X108866713Y-103834580D01*
X108862611Y-103841929D01*
X108854640Y-103852661D01*
X108847535Y-103861039D01*
X108837320Y-103873199D01*
X108828876Y-103884589D01*
X108825399Y-103890233D01*
X108818456Y-103901175D01*
X108810288Y-103911400D01*
X108802724Y-103920614D01*
X108792923Y-103933756D01*
X108784888Y-103945238D01*
X108776153Y-103957913D01*
X108768873Y-103968065D01*
X108764917Y-103973142D01*
X108761712Y-103976872D01*
X108757125Y-103982642D01*
X108750501Y-103991323D01*
X108741187Y-104003788D01*
X108728529Y-104020908D01*
X108711871Y-104043557D01*
X108701675Y-104057450D01*
X108686962Y-104077413D01*
X108673072Y-104096091D01*
X108661187Y-104111905D01*
X108652490Y-104123280D01*
X108649610Y-104126928D01*
X108640646Y-104138356D01*
X108632970Y-104148719D01*
X108631567Y-104150739D01*
X108619509Y-104168404D01*
X108611537Y-104179778D01*
X108607094Y-104185651D01*
X108606254Y-104186567D01*
X108602308Y-104191381D01*
X108593871Y-104202475D01*
X108581387Y-104219248D01*
X108565302Y-104241101D01*
X108546063Y-104267436D01*
X108543298Y-104271233D01*
X108532034Y-104286660D01*
X108522380Y-104299793D01*
X108515577Y-104308949D01*
X108513162Y-104312106D01*
X108508810Y-104317775D01*
X108500206Y-104329205D01*
X108488128Y-104345349D01*
X108473355Y-104365159D01*
X108456665Y-104387584D01*
X108438836Y-104411578D01*
X108420646Y-104436091D01*
X108402875Y-104460075D01*
X108386300Y-104482481D01*
X108371698Y-104502262D01*
X108359850Y-104518368D01*
X108351533Y-104529751D01*
X108348915Y-104533381D01*
X108342648Y-104541948D01*
X108333504Y-104554216D01*
X108323163Y-104567958D01*
X108313303Y-104580950D01*
X108305604Y-104590967D01*
X108302345Y-104595083D01*
X108298392Y-104600424D01*
X108291096Y-104610718D01*
X108281896Y-104623931D01*
X108280003Y-104626673D01*
X108269852Y-104641050D01*
X108260523Y-104653658D01*
X108253849Y-104662025D01*
X108253286Y-104662657D01*
X108246089Y-104671632D01*
X108237489Y-104683774D01*
X108234633Y-104688122D01*
X108227163Y-104699374D01*
X108220935Y-104708068D01*
X108219213Y-104710200D01*
X108216413Y-104713419D01*
X108213327Y-104717165D01*
X108208951Y-104722731D01*
X108202278Y-104731413D01*
X108192302Y-104744503D01*
X108181188Y-104759125D01*
X108156260Y-104791933D01*
X108106214Y-104791933D01*
X108081325Y-104791551D01*
X108064257Y-104790365D01*
X108054399Y-104788316D01*
X108051684Y-104786641D01*
X108037938Y-104770124D01*
X108029591Y-104759363D01*
X108026291Y-104753901D01*
X108026205Y-104753423D01*
X108023718Y-104748701D01*
X108018528Y-104742049D01*
X108009850Y-104731365D01*
X108003903Y-104723410D01*
X107999645Y-104717567D01*
X107991298Y-104706241D01*
X107979747Y-104690621D01*
X107965873Y-104671895D01*
X107950562Y-104651253D01*
X107934695Y-104629885D01*
X107919156Y-104608980D01*
X107904829Y-104589726D01*
X107892596Y-104573314D01*
X107883340Y-104560932D01*
X107877946Y-104553770D01*
X107877160Y-104552750D01*
X107873053Y-104547271D01*
X107865697Y-104537240D01*
X107857937Y-104526559D01*
X107847712Y-104512440D01*
X107839352Y-104500945D01*
X107831562Y-104490322D01*
X107823050Y-104478817D01*
X107812523Y-104464679D01*
X107798687Y-104446155D01*
X107792562Y-104437960D01*
X107779060Y-104419877D01*
X107766819Y-104403440D01*
X107757021Y-104390239D01*
X107750848Y-104381867D01*
X107750079Y-104380810D01*
X107739863Y-104366820D01*
X107726756Y-104349056D01*
X107711607Y-104328651D01*
X107695264Y-104306736D01*
X107678577Y-104284442D01*
X107662396Y-104262903D01*
X107647569Y-104243250D01*
X107634947Y-104226615D01*
X107625378Y-104214129D01*
X107619712Y-104206926D01*
X107618821Y-104205877D01*
X107613199Y-104198764D01*
X107611333Y-104194883D01*
X107608878Y-104189912D01*
X107603925Y-104183337D01*
X107592566Y-104169703D01*
X107584680Y-104159584D01*
X107578115Y-104150171D01*
X107575690Y-104146458D01*
X107569132Y-104136699D01*
X107564097Y-104129871D01*
X107563806Y-104129527D01*
X107560125Y-104124785D01*
X107552564Y-104114733D01*
X107542249Y-104100891D01*
X107530306Y-104084777D01*
X107517859Y-104067910D01*
X107506034Y-104051811D01*
X107495956Y-104037997D01*
X107493642Y-104034802D01*
X107486370Y-104025004D01*
X107477217Y-104012990D01*
X107474808Y-104009879D01*
X107467775Y-104000306D01*
X107463622Y-103993641D01*
X107463147Y-103992309D01*
X107460514Y-103987857D01*
X107453963Y-103979898D01*
X107451351Y-103977017D01*
X107440924Y-103964404D01*
X107431164Y-103950542D01*
X107430314Y-103949179D01*
X107421564Y-103936307D01*
X107412217Y-103924540D01*
X107410992Y-103923184D01*
X107401674Y-103911839D01*
X107392662Y-103898982D01*
X107392112Y-103898105D01*
X107384128Y-103886329D01*
X107376254Y-103876327D01*
X107375430Y-103875417D01*
X107368464Y-103867010D01*
X107359437Y-103854980D01*
X107354431Y-103847900D01*
X107345097Y-103834882D01*
X107336086Y-103823136D01*
X107332381Y-103818677D01*
X107326169Y-103810648D01*
X107323470Y-103805297D01*
X107323467Y-103805201D01*
X107319908Y-103802034D01*
X107310369Y-103796303D01*
X107296558Y-103788994D01*
X107288542Y-103785035D01*
X107273937Y-103777984D01*
X107253488Y-103768110D01*
X107228975Y-103756274D01*
X107202177Y-103743334D01*
X107174874Y-103730150D01*
X107169600Y-103727604D01*
X107145131Y-103715813D01*
X107123356Y-103705370D01*
X107105384Y-103696801D01*
X107092321Y-103690634D01*
X107085275Y-103687395D01*
X107084363Y-103687033D01*
X107080364Y-103685276D01*
X107069884Y-103680363D01*
X107054060Y-103672838D01*
X107034027Y-103663240D01*
X107010922Y-103652112D01*
X107003279Y-103648419D01*
X106975921Y-103635209D01*
X106947960Y-103621738D01*
X106921455Y-103608997D01*
X106898462Y-103597973D01*
X106881084Y-103589678D01*
X106858631Y-103579003D01*
X106832460Y-103566561D01*
X106806499Y-103554220D01*
X106792184Y-103547415D01*
X106769636Y-103536659D01*
X106742856Y-103523828D01*
X106715227Y-103510545D01*
X106690584Y-103498652D01*
X106643714Y-103476005D01*
X106596920Y-103453450D01*
X106552017Y-103431859D01*
X106510822Y-103412106D01*
X106475150Y-103395065D01*
X106470450Y-103392826D01*
X106447435Y-103381849D01*
X106420363Y-103368911D01*
X106392808Y-103355719D01*
X106370967Y-103345244D01*
X106347505Y-103334003D01*
X106322873Y-103322243D01*
X106300018Y-103311368D01*
X106282067Y-103302868D01*
X106194870Y-103261476D01*
X106107368Y-103219355D01*
X106085018Y-103208508D01*
X106060456Y-103196623D01*
X106036127Y-103184945D01*
X106014041Y-103174432D01*
X105996206Y-103166042D01*
X105987651Y-103162092D01*
X105954696Y-103146728D01*
X105926985Y-103133060D01*
X105905196Y-103121447D01*
X105890007Y-103112248D01*
X105882571Y-103106364D01*
X105875292Y-103096984D01*
X105867343Y-103084561D01*
X105865544Y-103081384D01*
X105857632Y-103067496D01*
X105847648Y-103050751D01*
X105836680Y-103032881D01*
X105825815Y-103015617D01*
X105816140Y-103000690D01*
X105808743Y-102989829D01*
X105805026Y-102985056D01*
X105800281Y-102978452D01*
X105799467Y-102975657D01*
X105797295Y-102971054D01*
X105791245Y-102960494D01*
X105782020Y-102945142D01*
X105770319Y-102926162D01*
X105756844Y-102904720D01*
X105755711Y-102902934D01*
X105735798Y-102871477D01*
X105719035Y-102844754D01*
X105703958Y-102820397D01*
X105689105Y-102796042D01*
X105673010Y-102769321D01*
X105671189Y-102766283D01*
X105666222Y-102758753D01*
X105663681Y-102755700D01*
X105660237Y-102750930D01*
X105654707Y-102741712D01*
X105653098Y-102738844D01*
X105646457Y-102727791D01*
X105640526Y-102719428D01*
X105639658Y-102718433D01*
X105635063Y-102710712D01*
X105634367Y-102707232D01*
X105631393Y-102700087D01*
X105628017Y-102696433D01*
X105623689Y-102690105D01*
X105621636Y-102682229D01*
X105622462Y-102676356D01*
X105624418Y-102675267D01*
X105629115Y-102677257D01*
G36*
X106132815Y-103485684D02*
G01*
X106149936Y-103490062D01*
X106174245Y-103497299D01*
X106177891Y-103498427D01*
X106201010Y-103505582D01*
X106228667Y-103514112D01*
X106257301Y-103522919D01*
X106282067Y-103530514D01*
X106305413Y-103537666D01*
X106328320Y-103544697D01*
X106348352Y-103550856D01*
X106363074Y-103555397D01*
X106364617Y-103555875D01*
X106382541Y-103561401D01*
X106406723Y-103568818D01*
X106435315Y-103577563D01*
X106466471Y-103587071D01*
X106498346Y-103596779D01*
X106529093Y-103606124D01*
X106544534Y-103610807D01*
X106568202Y-103618008D01*
X106594050Y-103625917D01*
X106617900Y-103633255D01*
X106627084Y-103636097D01*
X106648602Y-103642737D01*
X106674049Y-103650535D01*
X106699245Y-103658212D01*
X106709634Y-103661361D01*
X106733876Y-103668735D01*
X106761745Y-103677276D01*
X106788791Y-103685618D01*
X106800650Y-103689299D01*
X106829303Y-103698201D01*
X106859841Y-103707663D01*
X106890871Y-103717256D01*
X106921000Y-103726551D01*
X106948836Y-103735118D01*
X106972986Y-103742528D01*
X106992056Y-103748353D01*
X107004655Y-103752162D01*
X107005967Y-103752553D01*
X107021866Y-103757303D01*
X107039964Y-103762751D01*
X107047242Y-103764954D01*
X107065090Y-103770356D01*
X107083985Y-103776052D01*
X107090634Y-103778050D01*
X107118520Y-103786444D01*
X107142588Y-103793765D01*
X107166838Y-103801238D01*
X107194350Y-103809800D01*
X107223415Y-103818851D01*
X107245803Y-103825764D01*
X107262908Y-103830956D01*
X107276124Y-103834844D01*
X107286846Y-103837844D01*
X107296469Y-103840375D01*
X107297008Y-103840513D01*
X107307895Y-103843850D01*
X107314291Y-103846905D01*
X107315000Y-103847851D01*
X107317581Y-103852402D01*
X107324094Y-103860680D01*
X107327700Y-103864833D01*
X107335343Y-103873891D01*
X107339869Y-103880218D01*
X107340400Y-103881514D01*
X107342998Y-103885967D01*
X107349353Y-103893613D01*
X107350347Y-103894697D01*
X107358855Y-103904933D01*
X107368551Y-103918060D01*
X107372076Y-103923228D01*
X107379373Y-103933426D01*
X107385039Y-103939868D01*
X107386882Y-103941033D01*
X107390924Y-103944354D01*
X107393728Y-103949013D01*
X107398677Y-103956890D01*
X107406886Y-103967800D01*
X107411455Y-103973354D01*
X107420483Y-103984420D01*
X107432374Y-103999591D01*
X107444999Y-104016137D01*
X107448988Y-104021467D01*
X107459581Y-104035542D01*
X107468356Y-104046910D01*
X107474044Y-104053937D01*
X107475359Y-104055333D01*
X107478966Y-104059439D01*
X107486375Y-104068707D01*
X107496312Y-104081524D01*
X107502247Y-104089312D01*
X107513761Y-104104324D01*
X107524178Y-104117579D01*
X107531879Y-104127032D01*
X107534052Y-104129528D01*
X107541509Y-104138491D01*
X107550271Y-104150101D01*
X107552122Y-104152700D01*
X107560002Y-104163721D01*
X107567571Y-104173714D01*
X107576948Y-104185412D01*
X107586231Y-104196696D01*
X107595253Y-104207930D01*
X107606082Y-104221859D01*
X107611631Y-104229163D01*
X107623392Y-104244402D01*
X107636448Y-104260744D01*
X107641807Y-104267263D01*
X107653642Y-104281875D01*
X107666618Y-104298497D01*
X107673216Y-104307217D01*
X107691703Y-104331766D01*
X107710866Y-104356555D01*
X107733058Y-104384627D01*
X107734100Y-104385934D01*
X107745461Y-104400244D01*
X107756331Y-104414043D01*
X107763733Y-104423541D01*
X107773309Y-104435842D01*
X107784146Y-104449609D01*
X107787017Y-104453227D01*
X107798155Y-104467338D01*
X107812694Y-104485912D01*
X107829161Y-104507048D01*
X107846079Y-104528847D01*
X107861973Y-104549408D01*
X107875370Y-104566833D01*
X107883712Y-104577786D01*
X107894506Y-104591692D01*
X107905243Y-104604916D01*
X107911327Y-104612016D01*
X107921622Y-104624413D01*
X107931817Y-104637971D01*
X107932908Y-104639533D01*
X107942097Y-104651829D01*
X107951500Y-104662949D01*
X107952918Y-104664452D01*
X107960858Y-104674251D01*
X107962092Y-104680095D01*
X107957408Y-104681585D01*
X107953779Y-104678602D01*
X107944582Y-104669985D01*
X107930205Y-104656118D01*
X107911037Y-104637387D01*
X107887464Y-104614176D01*
X107859874Y-104586869D01*
X107828655Y-104555851D01*
X107794194Y-104521507D01*
X107756880Y-104484222D01*
X107717099Y-104444379D01*
X107675240Y-104402363D01*
X107631690Y-104358559D01*
X107623515Y-104350327D01*
X107294913Y-104019350D01*
X107219231Y-104002993D01*
X107193537Y-103997469D01*
X107169351Y-103992321D01*
X107148440Y-103987922D01*
X107132570Y-103984643D01*
X107124500Y-103983042D01*
X107111713Y-103980503D01*
X107093749Y-103976778D01*
X107073696Y-103972510D01*
X107065234Y-103970676D01*
X107042929Y-103965838D01*
X107019178Y-103960726D01*
X106998222Y-103956254D01*
X106993267Y-103955206D01*
X106963402Y-103948893D01*
X106939243Y-103943755D01*
X106918207Y-103939231D01*
X106897714Y-103934764D01*
X106875180Y-103929795D01*
X106849334Y-103924056D01*
X106825858Y-103918879D01*
X106803692Y-103914074D01*
X106784929Y-103910089D01*
X106771660Y-103907371D01*
X106768900Y-103906839D01*
X106760548Y-103905232D01*
X106750024Y-103903108D01*
X106736256Y-103900241D01*
X106718171Y-103896403D01*
X106694698Y-103891369D01*
X106664766Y-103884910D01*
X106639784Y-103879505D01*
X106600360Y-103870999D01*
X106567276Y-103863935D01*
X106538610Y-103857902D01*
X106523367Y-103854739D01*
X106507003Y-103851299D01*
X106485088Y-103846602D01*
X106460335Y-103841235D01*
X106435456Y-103835783D01*
X106432350Y-103835098D01*
X106408302Y-103829877D01*
X106384643Y-103824898D01*
X106363851Y-103820673D01*
X106348403Y-103817713D01*
X106346422Y-103817362D01*
X106319761Y-103812714D01*
X106302812Y-103784799D01*
X106293912Y-103770127D01*
X106286177Y-103757350D01*
X106281133Y-103748989D01*
X106280789Y-103748417D01*
X106275897Y-103740893D01*
X106273461Y-103737833D01*
X106270220Y-103733304D01*
X106264172Y-103723783D01*
X106258561Y-103714550D01*
X106250658Y-103701332D01*
X106243835Y-103689942D01*
X106240817Y-103684917D01*
X106235780Y-103676445D01*
X106228509Y-103664098D01*
X106223967Y-103656346D01*
X106216959Y-103645260D01*
X106211326Y-103637957D01*
X106209042Y-103636237D01*
X106206221Y-103632790D01*
X106205867Y-103629883D01*
X106203825Y-103624246D01*
X106202092Y-103623533D01*
X106198366Y-103619945D01*
X106195662Y-103612950D01*
X106192262Y-103605021D01*
X106188853Y-103602367D01*
X106184911Y-103599073D01*
X106184700Y-103597568D01*
X106182562Y-103592559D01*
X106176820Y-103582097D01*
X106168484Y-103567831D01*
X106158565Y-103551406D01*
X106148073Y-103534471D01*
X106138016Y-103518672D01*
X106129406Y-103505657D01*
X106123252Y-103497073D01*
X106122546Y-103496200D01*
X106117747Y-103489421D01*
X106117404Y-103485390D01*
X106122199Y-103484135D01*
X106132815Y-103485684D01*
G37*
X106132815Y-103485684D02*
X106149936Y-103490062D01*
X106174245Y-103497299D01*
X106177891Y-103498427D01*
X106201010Y-103505582D01*
X106228667Y-103514112D01*
X106257301Y-103522919D01*
X106282067Y-103530514D01*
X106305413Y-103537666D01*
X106328320Y-103544697D01*
X106348352Y-103550856D01*
X106363074Y-103555397D01*
X106364617Y-103555875D01*
X106382541Y-103561401D01*
X106406723Y-103568818D01*
X106435315Y-103577563D01*
X106466471Y-103587071D01*
X106498346Y-103596779D01*
X106529093Y-103606124D01*
X106544534Y-103610807D01*
X106568202Y-103618008D01*
X106594050Y-103625917D01*
X106617900Y-103633255D01*
X106627084Y-103636097D01*
X106648602Y-103642737D01*
X106674049Y-103650535D01*
X106699245Y-103658212D01*
X106709634Y-103661361D01*
X106733876Y-103668735D01*
X106761745Y-103677276D01*
X106788791Y-103685618D01*
X106800650Y-103689299D01*
X106829303Y-103698201D01*
X106859841Y-103707663D01*
X106890871Y-103717256D01*
X106921000Y-103726551D01*
X106948836Y-103735118D01*
X106972986Y-103742528D01*
X106992056Y-103748353D01*
X107004655Y-103752162D01*
X107005967Y-103752553D01*
X107021866Y-103757303D01*
X107039964Y-103762751D01*
X107047242Y-103764954D01*
X107065090Y-103770356D01*
X107083985Y-103776052D01*
X107090634Y-103778050D01*
X107118520Y-103786444D01*
X107142588Y-103793765D01*
X107166838Y-103801238D01*
X107194350Y-103809800D01*
X107223415Y-103818851D01*
X107245803Y-103825764D01*
X107262908Y-103830956D01*
X107276124Y-103834844D01*
X107286846Y-103837844D01*
X107296469Y-103840375D01*
X107297008Y-103840513D01*
X107307895Y-103843850D01*
X107314291Y-103846905D01*
X107315000Y-103847851D01*
X107317581Y-103852402D01*
X107324094Y-103860680D01*
X107327700Y-103864833D01*
X107335343Y-103873891D01*
X107339869Y-103880218D01*
X107340400Y-103881514D01*
X107342998Y-103885967D01*
X107349353Y-103893613D01*
X107350347Y-103894697D01*
X107358855Y-103904933D01*
X107368551Y-103918060D01*
X107372076Y-103923228D01*
X107379373Y-103933426D01*
X107385039Y-103939868D01*
X107386882Y-103941033D01*
X107390924Y-103944354D01*
X107393728Y-103949013D01*
X107398677Y-103956890D01*
X107406886Y-103967800D01*
X107411455Y-103973354D01*
X107420483Y-103984420D01*
X107432374Y-103999591D01*
X107444999Y-104016137D01*
X107448988Y-104021467D01*
X107459581Y-104035542D01*
X107468356Y-104046910D01*
X107474044Y-104053937D01*
X107475359Y-104055333D01*
X107478966Y-104059439D01*
X107486375Y-104068707D01*
X107496312Y-104081524D01*
X107502247Y-104089312D01*
X107513761Y-104104324D01*
X107524178Y-104117579D01*
X107531879Y-104127032D01*
X107534052Y-104129528D01*
X107541509Y-104138491D01*
X107550271Y-104150101D01*
X107552122Y-104152700D01*
X107560002Y-104163721D01*
X107567571Y-104173714D01*
X107576948Y-104185412D01*
X107586231Y-104196696D01*
X107595253Y-104207930D01*
X107606082Y-104221859D01*
X107611631Y-104229163D01*
X107623392Y-104244402D01*
X107636448Y-104260744D01*
X107641807Y-104267263D01*
X107653642Y-104281875D01*
X107666618Y-104298497D01*
X107673216Y-104307217D01*
X107691703Y-104331766D01*
X107710866Y-104356555D01*
X107733058Y-104384627D01*
X107734100Y-104385934D01*
X107745461Y-104400244D01*
X107756331Y-104414043D01*
X107763733Y-104423541D01*
X107773309Y-104435842D01*
X107784146Y-104449609D01*
X107787017Y-104453227D01*
X107798155Y-104467338D01*
X107812694Y-104485912D01*
X107829161Y-104507048D01*
X107846079Y-104528847D01*
X107861973Y-104549408D01*
X107875370Y-104566833D01*
X107883712Y-104577786D01*
X107894506Y-104591692D01*
X107905243Y-104604916D01*
X107911327Y-104612016D01*
X107921622Y-104624413D01*
X107931817Y-104637971D01*
X107932908Y-104639533D01*
X107942097Y-104651829D01*
X107951500Y-104662949D01*
X107952918Y-104664452D01*
X107960858Y-104674251D01*
X107962092Y-104680095D01*
X107957408Y-104681585D01*
X107953779Y-104678602D01*
X107944582Y-104669985D01*
X107930205Y-104656118D01*
X107911037Y-104637387D01*
X107887464Y-104614176D01*
X107859874Y-104586869D01*
X107828655Y-104555851D01*
X107794194Y-104521507D01*
X107756880Y-104484222D01*
X107717099Y-104444379D01*
X107675240Y-104402363D01*
X107631690Y-104358559D01*
X107623515Y-104350327D01*
X107294913Y-104019350D01*
X107219231Y-104002993D01*
X107193537Y-103997469D01*
X107169351Y-103992321D01*
X107148440Y-103987922D01*
X107132570Y-103984643D01*
X107124500Y-103983042D01*
X107111713Y-103980503D01*
X107093749Y-103976778D01*
X107073696Y-103972510D01*
X107065234Y-103970676D01*
X107042929Y-103965838D01*
X107019178Y-103960726D01*
X106998222Y-103956254D01*
X106993267Y-103955206D01*
X106963402Y-103948893D01*
X106939243Y-103943755D01*
X106918207Y-103939231D01*
X106897714Y-103934764D01*
X106875180Y-103929795D01*
X106849334Y-103924056D01*
X106825858Y-103918879D01*
X106803692Y-103914074D01*
X106784929Y-103910089D01*
X106771660Y-103907371D01*
X106768900Y-103906839D01*
X106760548Y-103905232D01*
X106750024Y-103903108D01*
X106736256Y-103900241D01*
X106718171Y-103896403D01*
X106694698Y-103891369D01*
X106664766Y-103884910D01*
X106639784Y-103879505D01*
X106600360Y-103870999D01*
X106567276Y-103863935D01*
X106538610Y-103857902D01*
X106523367Y-103854739D01*
X106507003Y-103851299D01*
X106485088Y-103846602D01*
X106460335Y-103841235D01*
X106435456Y-103835783D01*
X106432350Y-103835098D01*
X106408302Y-103829877D01*
X106384643Y-103824898D01*
X106363851Y-103820673D01*
X106348403Y-103817713D01*
X106346422Y-103817362D01*
X106319761Y-103812714D01*
X106302812Y-103784799D01*
X106293912Y-103770127D01*
X106286177Y-103757350D01*
X106281133Y-103748989D01*
X106280789Y-103748417D01*
X106275897Y-103740893D01*
X106273461Y-103737833D01*
X106270220Y-103733304D01*
X106264172Y-103723783D01*
X106258561Y-103714550D01*
X106250658Y-103701332D01*
X106243835Y-103689942D01*
X106240817Y-103684917D01*
X106235780Y-103676445D01*
X106228509Y-103664098D01*
X106223967Y-103656346D01*
X106216959Y-103645260D01*
X106211326Y-103637957D01*
X106209042Y-103636237D01*
X106206221Y-103632790D01*
X106205867Y-103629883D01*
X106203825Y-103624246D01*
X106202092Y-103623533D01*
X106198366Y-103619945D01*
X106195662Y-103612950D01*
X106192262Y-103605021D01*
X106188853Y-103602367D01*
X106184911Y-103599073D01*
X106184700Y-103597568D01*
X106182562Y-103592559D01*
X106176820Y-103582097D01*
X106168484Y-103567831D01*
X106158565Y-103551406D01*
X106148073Y-103534471D01*
X106138016Y-103518672D01*
X106129406Y-103505657D01*
X106123252Y-103497073D01*
X106122546Y-103496200D01*
X106117747Y-103489421D01*
X106117404Y-103485390D01*
X106122199Y-103484135D01*
X106132815Y-103485684D01*
G36*
X110095634Y-103488067D02*
G01*
X110092489Y-103496229D01*
X110085140Y-103509768D01*
X110073300Y-103529359D01*
X110068784Y-103536593D01*
X110058169Y-103553862D01*
X110049456Y-103568722D01*
X110043528Y-103579617D01*
X110041269Y-103584991D01*
X110041267Y-103585047D01*
X110038585Y-103589468D01*
X110037492Y-103589667D01*
X110033670Y-103593230D01*
X110031306Y-103599276D01*
X110026566Y-103610025D01*
X110021322Y-103617483D01*
X110013097Y-103628111D01*
X110007627Y-103636449D01*
X110003534Y-103643266D01*
X109995869Y-103655933D01*
X109985470Y-103673074D01*
X109973175Y-103693310D01*
X109959821Y-103715263D01*
X109946247Y-103737558D01*
X109933290Y-103758816D01*
X109921789Y-103777660D01*
X109912580Y-103792713D01*
X109912023Y-103793621D01*
X109904208Y-103805266D01*
X109896848Y-103811869D01*
X109886633Y-103815678D01*
X109876381Y-103817815D01*
X109863570Y-103820334D01*
X109844760Y-103824196D01*
X109822220Y-103828926D01*
X109798221Y-103834052D01*
X109791500Y-103835504D01*
X109767271Y-103840747D01*
X109743645Y-103845846D01*
X109722973Y-103850296D01*
X109707602Y-103853590D01*
X109704717Y-103854205D01*
X109673408Y-103860863D01*
X109649019Y-103866053D01*
X109630187Y-103870066D01*
X109615550Y-103873192D01*
X109603744Y-103875722D01*
X109593409Y-103877948D01*
X109586184Y-103879509D01*
X109551568Y-103886992D01*
X109524138Y-103892901D01*
X109502805Y-103897467D01*
X109486482Y-103900921D01*
X109474083Y-103903492D01*
X109464519Y-103905411D01*
X109457067Y-103906839D01*
X109446013Y-103909055D01*
X109428792Y-103912683D01*
X109407495Y-103917277D01*
X109384214Y-103922387D01*
X109376634Y-103924071D01*
X109353157Y-103929260D01*
X109330992Y-103934091D01*
X109312228Y-103938111D01*
X109298959Y-103940869D01*
X109296200Y-103941415D01*
X109279760Y-103944780D01*
X109263251Y-103948443D01*
X109260217Y-103949161D01*
X109247717Y-103952014D01*
X109230398Y-103955775D01*
X109211741Y-103959691D01*
X109209417Y-103960169D01*
X109187813Y-103964650D01*
X109163119Y-103969856D01*
X109140514Y-103974695D01*
X109139567Y-103974900D01*
X109117192Y-103979704D01*
X109092478Y-103984945D01*
X109070606Y-103989526D01*
X109069717Y-103989710D01*
X109049395Y-103993991D01*
X109028290Y-103998550D01*
X109010875Y-104002421D01*
X109010450Y-104002518D01*
X108991153Y-104006788D01*
X108969792Y-104011326D01*
X108958754Y-104013586D01*
X108932458Y-104018860D01*
X108601202Y-104350363D01*
X108557166Y-104394402D01*
X108514788Y-104436726D01*
X108474450Y-104476954D01*
X108436540Y-104514705D01*
X108401441Y-104549597D01*
X108369540Y-104581248D01*
X108341221Y-104609277D01*
X108316869Y-104633301D01*
X108296871Y-104652940D01*
X108281611Y-104667811D01*
X108271474Y-104677533D01*
X108266846Y-104681725D01*
X108266606Y-104681866D01*
X108263350Y-104678630D01*
X108263267Y-104677706D01*
X108265884Y-104672087D01*
X108272335Y-104663574D01*
X108273873Y-104661831D01*
X108280566Y-104653963D01*
X108291245Y-104640858D01*
X108304734Y-104623995D01*
X108319859Y-104604848D01*
X108335445Y-104584895D01*
X108347196Y-104569683D01*
X108356175Y-104558047D01*
X108367910Y-104542917D01*
X108381338Y-104525655D01*
X108395396Y-104507622D01*
X108409021Y-104490178D01*
X108421151Y-104474686D01*
X108430724Y-104462506D01*
X108436676Y-104454999D01*
X108437934Y-104453456D01*
X108442703Y-104447580D01*
X108452045Y-104435822D01*
X108465331Y-104418979D01*
X108481934Y-104397851D01*
X108501225Y-104373237D01*
X108522578Y-104345934D01*
X108537438Y-104326901D01*
X108551824Y-104308500D01*
X108567660Y-104288300D01*
X108581881Y-104270211D01*
X108583911Y-104267634D01*
X108595797Y-104252558D01*
X108604122Y-104241976D01*
X108610562Y-104233727D01*
X108616791Y-104225651D01*
X108624485Y-104215590D01*
X108635318Y-104201381D01*
X108636931Y-104199267D01*
X108648178Y-104184620D01*
X108657998Y-104172025D01*
X108664909Y-104163372D01*
X108666765Y-104161167D01*
X108672432Y-104154309D01*
X108680921Y-104143542D01*
X108686905Y-104135767D01*
X108695202Y-104124983D01*
X108701371Y-104117166D01*
X108703534Y-104114600D01*
X108706933Y-104110463D01*
X108714099Y-104101334D01*
X108723669Y-104088956D01*
X108726730Y-104084967D01*
X108738028Y-104070466D01*
X108748626Y-104057287D01*
X108756501Y-104047936D01*
X108757422Y-104046910D01*
X108763953Y-104039062D01*
X108767004Y-104034045D01*
X108767034Y-104033810D01*
X108769557Y-104029261D01*
X108775812Y-104021194D01*
X108777727Y-104018950D01*
X108785146Y-104009991D01*
X108795790Y-103996612D01*
X108807800Y-103981162D01*
X108812592Y-103974900D01*
X108823333Y-103960887D01*
X108832161Y-103949548D01*
X108837817Y-103942493D01*
X108839105Y-103941033D01*
X108841636Y-103938140D01*
X108847235Y-103931133D01*
X108856409Y-103919362D01*
X108869665Y-103902178D01*
X108887510Y-103878929D01*
X108888448Y-103877705D01*
X108900741Y-103862266D01*
X108910570Y-103852085D01*
X108920234Y-103845418D01*
X108932032Y-103840522D01*
X108941260Y-103837661D01*
X108960128Y-103832026D01*
X108980037Y-103825896D01*
X108991400Y-103822291D01*
X109006893Y-103817379D01*
X109028615Y-103810620D01*
X109054684Y-103802593D01*
X109083215Y-103793878D01*
X109112328Y-103785053D01*
X109122634Y-103781947D01*
X109135018Y-103778189D01*
X109152648Y-103772798D01*
X109172683Y-103766644D01*
X109184017Y-103763151D01*
X109207892Y-103755797D01*
X109234571Y-103747601D01*
X109259397Y-103739994D01*
X109266567Y-103737802D01*
X109286625Y-103731662D01*
X109311606Y-103723995D01*
X109338341Y-103715776D01*
X109363663Y-103707975D01*
X109363934Y-103707892D01*
X109396430Y-103697873D01*
X109422438Y-103689864D01*
X109443558Y-103683376D01*
X109461389Y-103677920D01*
X109477533Y-103673007D01*
X109493589Y-103668147D01*
X109511159Y-103662850D01*
X109516334Y-103661293D01*
X109540011Y-103654131D01*
X109565868Y-103646250D01*
X109589723Y-103638929D01*
X109598884Y-103636097D01*
X109620407Y-103629461D01*
X109645859Y-103621675D01*
X109671060Y-103614018D01*
X109681434Y-103610884D01*
X109700727Y-103605036D01*
X109717953Y-103599749D01*
X109730909Y-103595705D01*
X109736467Y-103593906D01*
X109744538Y-103591318D01*
X109758728Y-103586909D01*
X109777047Y-103581291D01*
X109797508Y-103575079D01*
X109797850Y-103574976D01*
X109823655Y-103567131D01*
X109853341Y-103558030D01*
X109882714Y-103548961D01*
X109901567Y-103543096D01*
X109925735Y-103535610D01*
X109951050Y-103527877D01*
X109974307Y-103520872D01*
X109990467Y-103516098D01*
X110012119Y-103509715D01*
X110034421Y-103502995D01*
X110055458Y-103496528D01*
X110073319Y-103490906D01*
X110086089Y-103486722D01*
X110090447Y-103485173D01*
X110094859Y-103484607D01*
X110095634Y-103488067D01*
G37*
X110095634Y-103488067D02*
X110092489Y-103496229D01*
X110085140Y-103509768D01*
X110073300Y-103529359D01*
X110068784Y-103536593D01*
X110058169Y-103553862D01*
X110049456Y-103568722D01*
X110043528Y-103579617D01*
X110041269Y-103584991D01*
X110041267Y-103585047D01*
X110038585Y-103589468D01*
X110037492Y-103589667D01*
X110033670Y-103593230D01*
X110031306Y-103599276D01*
X110026566Y-103610025D01*
X110021322Y-103617483D01*
X110013097Y-103628111D01*
X110007627Y-103636449D01*
X110003534Y-103643266D01*
X109995869Y-103655933D01*
X109985470Y-103673074D01*
X109973175Y-103693310D01*
X109959821Y-103715263D01*
X109946247Y-103737558D01*
X109933290Y-103758816D01*
X109921789Y-103777660D01*
X109912580Y-103792713D01*
X109912023Y-103793621D01*
X109904208Y-103805266D01*
X109896848Y-103811869D01*
X109886633Y-103815678D01*
X109876381Y-103817815D01*
X109863570Y-103820334D01*
X109844760Y-103824196D01*
X109822220Y-103828926D01*
X109798221Y-103834052D01*
X109791500Y-103835504D01*
X109767271Y-103840747D01*
X109743645Y-103845846D01*
X109722973Y-103850296D01*
X109707602Y-103853590D01*
X109704717Y-103854205D01*
X109673408Y-103860863D01*
X109649019Y-103866053D01*
X109630187Y-103870066D01*
X109615550Y-103873192D01*
X109603744Y-103875722D01*
X109593409Y-103877948D01*
X109586184Y-103879509D01*
X109551568Y-103886992D01*
X109524138Y-103892901D01*
X109502805Y-103897467D01*
X109486482Y-103900921D01*
X109474083Y-103903492D01*
X109464519Y-103905411D01*
X109457067Y-103906839D01*
X109446013Y-103909055D01*
X109428792Y-103912683D01*
X109407495Y-103917277D01*
X109384214Y-103922387D01*
X109376634Y-103924071D01*
X109353157Y-103929260D01*
X109330992Y-103934091D01*
X109312228Y-103938111D01*
X109298959Y-103940869D01*
X109296200Y-103941415D01*
X109279760Y-103944780D01*
X109263251Y-103948443D01*
X109260217Y-103949161D01*
X109247717Y-103952014D01*
X109230398Y-103955775D01*
X109211741Y-103959691D01*
X109209417Y-103960169D01*
X109187813Y-103964650D01*
X109163119Y-103969856D01*
X109140514Y-103974695D01*
X109139567Y-103974900D01*
X109117192Y-103979704D01*
X109092478Y-103984945D01*
X109070606Y-103989526D01*
X109069717Y-103989710D01*
X109049395Y-103993991D01*
X109028290Y-103998550D01*
X109010875Y-104002421D01*
X109010450Y-104002518D01*
X108991153Y-104006788D01*
X108969792Y-104011326D01*
X108958754Y-104013586D01*
X108932458Y-104018860D01*
X108601202Y-104350363D01*
X108557166Y-104394402D01*
X108514788Y-104436726D01*
X108474450Y-104476954D01*
X108436540Y-104514705D01*
X108401441Y-104549597D01*
X108369540Y-104581248D01*
X108341221Y-104609277D01*
X108316869Y-104633301D01*
X108296871Y-104652940D01*
X108281611Y-104667811D01*
X108271474Y-104677533D01*
X108266846Y-104681725D01*
X108266606Y-104681866D01*
X108263350Y-104678630D01*
X108263267Y-104677706D01*
X108265884Y-104672087D01*
X108272335Y-104663574D01*
X108273873Y-104661831D01*
X108280566Y-104653963D01*
X108291245Y-104640858D01*
X108304734Y-104623995D01*
X108319859Y-104604848D01*
X108335445Y-104584895D01*
X108347196Y-104569683D01*
X108356175Y-104558047D01*
X108367910Y-104542917D01*
X108381338Y-104525655D01*
X108395396Y-104507622D01*
X108409021Y-104490178D01*
X108421151Y-104474686D01*
X108430724Y-104462506D01*
X108436676Y-104454999D01*
X108437934Y-104453456D01*
X108442703Y-104447580D01*
X108452045Y-104435822D01*
X108465331Y-104418979D01*
X108481934Y-104397851D01*
X108501225Y-104373237D01*
X108522578Y-104345934D01*
X108537438Y-104326901D01*
X108551824Y-104308500D01*
X108567660Y-104288300D01*
X108581881Y-104270211D01*
X108583911Y-104267634D01*
X108595797Y-104252558D01*
X108604122Y-104241976D01*
X108610562Y-104233727D01*
X108616791Y-104225651D01*
X108624485Y-104215590D01*
X108635318Y-104201381D01*
X108636931Y-104199267D01*
X108648178Y-104184620D01*
X108657998Y-104172025D01*
X108664909Y-104163372D01*
X108666765Y-104161167D01*
X108672432Y-104154309D01*
X108680921Y-104143542D01*
X108686905Y-104135767D01*
X108695202Y-104124983D01*
X108701371Y-104117166D01*
X108703534Y-104114600D01*
X108706933Y-104110463D01*
X108714099Y-104101334D01*
X108723669Y-104088956D01*
X108726730Y-104084967D01*
X108738028Y-104070466D01*
X108748626Y-104057287D01*
X108756501Y-104047936D01*
X108757422Y-104046910D01*
X108763953Y-104039062D01*
X108767004Y-104034045D01*
X108767034Y-104033810D01*
X108769557Y-104029261D01*
X108775812Y-104021194D01*
X108777727Y-104018950D01*
X108785146Y-104009991D01*
X108795790Y-103996612D01*
X108807800Y-103981162D01*
X108812592Y-103974900D01*
X108823333Y-103960887D01*
X108832161Y-103949548D01*
X108837817Y-103942493D01*
X108839105Y-103941033D01*
X108841636Y-103938140D01*
X108847235Y-103931133D01*
X108856409Y-103919362D01*
X108869665Y-103902178D01*
X108887510Y-103878929D01*
X108888448Y-103877705D01*
X108900741Y-103862266D01*
X108910570Y-103852085D01*
X108920234Y-103845418D01*
X108932032Y-103840522D01*
X108941260Y-103837661D01*
X108960128Y-103832026D01*
X108980037Y-103825896D01*
X108991400Y-103822291D01*
X109006893Y-103817379D01*
X109028615Y-103810620D01*
X109054684Y-103802593D01*
X109083215Y-103793878D01*
X109112328Y-103785053D01*
X109122634Y-103781947D01*
X109135018Y-103778189D01*
X109152648Y-103772798D01*
X109172683Y-103766644D01*
X109184017Y-103763151D01*
X109207892Y-103755797D01*
X109234571Y-103747601D01*
X109259397Y-103739994D01*
X109266567Y-103737802D01*
X109286625Y-103731662D01*
X109311606Y-103723995D01*
X109338341Y-103715776D01*
X109363663Y-103707975D01*
X109363934Y-103707892D01*
X109396430Y-103697873D01*
X109422438Y-103689864D01*
X109443558Y-103683376D01*
X109461389Y-103677920D01*
X109477533Y-103673007D01*
X109493589Y-103668147D01*
X109511159Y-103662850D01*
X109516334Y-103661293D01*
X109540011Y-103654131D01*
X109565868Y-103646250D01*
X109589723Y-103638929D01*
X109598884Y-103636097D01*
X109620407Y-103629461D01*
X109645859Y-103621675D01*
X109671060Y-103614018D01*
X109681434Y-103610884D01*
X109700727Y-103605036D01*
X109717953Y-103599749D01*
X109730909Y-103595705D01*
X109736467Y-103593906D01*
X109744538Y-103591318D01*
X109758728Y-103586909D01*
X109777047Y-103581291D01*
X109797508Y-103575079D01*
X109797850Y-103574976D01*
X109823655Y-103567131D01*
X109853341Y-103558030D01*
X109882714Y-103548961D01*
X109901567Y-103543096D01*
X109925735Y-103535610D01*
X109951050Y-103527877D01*
X109974307Y-103520872D01*
X109990467Y-103516098D01*
X110012119Y-103509715D01*
X110034421Y-103502995D01*
X110055458Y-103496528D01*
X110073319Y-103490906D01*
X110086089Y-103486722D01*
X110090447Y-103485173D01*
X110094859Y-103484607D01*
X110095634Y-103488067D01*
G36*
X106354686Y-103842204D02*
G01*
X106370425Y-103845131D01*
X106382424Y-103847699D01*
X106417665Y-103855576D01*
X106447419Y-103862138D01*
X106474446Y-103867989D01*
X106501507Y-103873729D01*
X106508550Y-103875207D01*
X106525543Y-103878783D01*
X106540137Y-103881886D01*
X106549687Y-103883953D01*
X106550884Y-103884220D01*
X106563304Y-103887004D01*
X106581867Y-103891121D01*
X106604468Y-103896110D01*
X106629005Y-103901508D01*
X106653375Y-103906854D01*
X106675477Y-103911686D01*
X106693206Y-103915541D01*
X106703284Y-103917708D01*
X106734948Y-103924440D01*
X106759747Y-103929718D01*
X106779097Y-103933848D01*
X106794414Y-103937132D01*
X106807117Y-103939874D01*
X106818621Y-103942377D01*
X106823934Y-103943539D01*
X106842614Y-103947493D01*
X106864714Y-103951973D01*
X106884609Y-103955849D01*
X106900576Y-103959038D01*
X106913235Y-103961869D01*
X106920346Y-103963832D01*
X106920981Y-103964119D01*
X106926672Y-103965875D01*
X106937868Y-103968265D01*
X106947089Y-103969916D01*
X106961628Y-103972611D01*
X106982880Y-103976924D01*
X107009316Y-103982529D01*
X107039410Y-103989099D01*
X107071634Y-103996307D01*
X107088517Y-104000152D01*
X107101006Y-104002932D01*
X107118310Y-104006681D01*
X107136954Y-104010647D01*
X107139317Y-104011144D01*
X107161553Y-104015869D01*
X107186419Y-104021237D01*
X107207050Y-104025758D01*
X107227509Y-104030250D01*
X107248931Y-104034889D01*
X107266763Y-104038689D01*
X107267151Y-104038771D01*
X107293386Y-104044280D01*
X107596819Y-104347736D01*
X107638894Y-104389874D01*
X107679209Y-104430367D01*
X107717367Y-104468811D01*
X107752973Y-104504800D01*
X107785628Y-104537931D01*
X107814938Y-104567797D01*
X107840504Y-104593994D01*
X107861931Y-104616117D01*
X107878822Y-104633762D01*
X107890780Y-104646523D01*
X107897409Y-104653996D01*
X107898668Y-104655858D01*
X107894982Y-104655621D01*
X107886689Y-104650722D01*
X107875462Y-104642178D01*
X107873462Y-104640504D01*
X107857804Y-104627286D01*
X107841120Y-104613285D01*
X107829449Y-104603550D01*
X107802106Y-104580826D01*
X107779432Y-104561931D01*
X107759564Y-104545305D01*
X107740639Y-104529389D01*
X107720794Y-104512621D01*
X107712597Y-104505678D01*
X107697772Y-104493214D01*
X107681213Y-104479435D01*
X107672583Y-104472316D01*
X107657825Y-104460119D01*
X107642442Y-104447276D01*
X107634483Y-104440566D01*
X107620954Y-104429192D01*
X107605287Y-104416160D01*
X107596383Y-104408816D01*
X107581585Y-104396610D01*
X107566118Y-104383760D01*
X107558115Y-104377066D01*
X107547981Y-104368596D01*
X107533257Y-104356345D01*
X107515883Y-104341923D01*
X107497796Y-104326942D01*
X107496980Y-104326266D01*
X107476481Y-104309239D01*
X107454277Y-104290684D01*
X107433269Y-104273030D01*
X107418640Y-104260650D01*
X107400316Y-104245116D01*
X107378648Y-104226823D01*
X107356795Y-104208435D01*
X107343339Y-104197150D01*
X107302882Y-104163283D01*
X107248616Y-104158429D01*
X107224813Y-104156306D01*
X107195622Y-104153711D01*
X107164089Y-104150915D01*
X107133262Y-104148188D01*
X107120267Y-104147041D01*
X107094771Y-104144737D01*
X107071008Y-104142490D01*
X107050769Y-104140476D01*
X107035845Y-104138873D01*
X107029250Y-104138051D01*
X107018232Y-104136723D01*
X107001209Y-104134986D01*
X106980620Y-104133078D01*
X106961517Y-104131448D01*
X106945485Y-104130120D01*
X106928784Y-104128693D01*
X106910451Y-104127077D01*
X106889520Y-104125183D01*
X106865029Y-104122922D01*
X106836013Y-104120206D01*
X106801508Y-104116946D01*
X106760551Y-104113051D01*
X106712176Y-104108434D01*
X106709634Y-104108191D01*
X106679016Y-104105294D01*
X106644533Y-104102078D01*
X106610019Y-104098898D01*
X106579311Y-104096110D01*
X106573828Y-104095619D01*
X106550264Y-104093405D01*
X106528986Y-104091207D01*
X106511746Y-104089220D01*
X106500297Y-104087642D01*
X106497248Y-104087056D01*
X106489226Y-104082300D01*
X106479844Y-104071265D01*
X106468882Y-104053986D01*
X106457295Y-104034185D01*
X106449204Y-104020526D01*
X106443880Y-104011814D01*
X106440593Y-104006853D01*
X106438700Y-104004533D01*
X106433053Y-103996934D01*
X106426895Y-103986228D01*
X106423267Y-103978075D01*
X106419628Y-103971830D01*
X106417454Y-103970667D01*
X106413686Y-103967182D01*
X106409447Y-103959025D01*
X106404352Y-103948609D01*
X106396664Y-103935227D01*
X106392324Y-103928333D01*
X106382347Y-103912530D01*
X106371916Y-103895231D01*
X106368402Y-103889175D01*
X106361454Y-103878053D01*
X106355745Y-103870751D01*
X106353361Y-103869067D01*
X106350157Y-103865649D01*
X106349800Y-103863019D01*
X106347012Y-103855369D01*
X106342946Y-103850117D01*
X106338531Y-103843893D01*
X106338528Y-103840827D01*
X106343429Y-103840672D01*
X106354686Y-103842204D01*
G37*
X106354686Y-103842204D02*
X106370425Y-103845131D01*
X106382424Y-103847699D01*
X106417665Y-103855576D01*
X106447419Y-103862138D01*
X106474446Y-103867989D01*
X106501507Y-103873729D01*
X106508550Y-103875207D01*
X106525543Y-103878783D01*
X106540137Y-103881886D01*
X106549687Y-103883953D01*
X106550884Y-103884220D01*
X106563304Y-103887004D01*
X106581867Y-103891121D01*
X106604468Y-103896110D01*
X106629005Y-103901508D01*
X106653375Y-103906854D01*
X106675477Y-103911686D01*
X106693206Y-103915541D01*
X106703284Y-103917708D01*
X106734948Y-103924440D01*
X106759747Y-103929718D01*
X106779097Y-103933848D01*
X106794414Y-103937132D01*
X106807117Y-103939874D01*
X106818621Y-103942377D01*
X106823934Y-103943539D01*
X106842614Y-103947493D01*
X106864714Y-103951973D01*
X106884609Y-103955849D01*
X106900576Y-103959038D01*
X106913235Y-103961869D01*
X106920346Y-103963832D01*
X106920981Y-103964119D01*
X106926672Y-103965875D01*
X106937868Y-103968265D01*
X106947089Y-103969916D01*
X106961628Y-103972611D01*
X106982880Y-103976924D01*
X107009316Y-103982529D01*
X107039410Y-103989099D01*
X107071634Y-103996307D01*
X107088517Y-104000152D01*
X107101006Y-104002932D01*
X107118310Y-104006681D01*
X107136954Y-104010647D01*
X107139317Y-104011144D01*
X107161553Y-104015869D01*
X107186419Y-104021237D01*
X107207050Y-104025758D01*
X107227509Y-104030250D01*
X107248931Y-104034889D01*
X107266763Y-104038689D01*
X107267151Y-104038771D01*
X107293386Y-104044280D01*
X107596819Y-104347736D01*
X107638894Y-104389874D01*
X107679209Y-104430367D01*
X107717367Y-104468811D01*
X107752973Y-104504800D01*
X107785628Y-104537931D01*
X107814938Y-104567797D01*
X107840504Y-104593994D01*
X107861931Y-104616117D01*
X107878822Y-104633762D01*
X107890780Y-104646523D01*
X107897409Y-104653996D01*
X107898668Y-104655858D01*
X107894982Y-104655621D01*
X107886689Y-104650722D01*
X107875462Y-104642178D01*
X107873462Y-104640504D01*
X107857804Y-104627286D01*
X107841120Y-104613285D01*
X107829449Y-104603550D01*
X107802106Y-104580826D01*
X107779432Y-104561931D01*
X107759564Y-104545305D01*
X107740639Y-104529389D01*
X107720794Y-104512621D01*
X107712597Y-104505678D01*
X107697772Y-104493214D01*
X107681213Y-104479435D01*
X107672583Y-104472316D01*
X107657825Y-104460119D01*
X107642442Y-104447276D01*
X107634483Y-104440566D01*
X107620954Y-104429192D01*
X107605287Y-104416160D01*
X107596383Y-104408816D01*
X107581585Y-104396610D01*
X107566118Y-104383760D01*
X107558115Y-104377066D01*
X107547981Y-104368596D01*
X107533257Y-104356345D01*
X107515883Y-104341923D01*
X107497796Y-104326942D01*
X107496980Y-104326266D01*
X107476481Y-104309239D01*
X107454277Y-104290684D01*
X107433269Y-104273030D01*
X107418640Y-104260650D01*
X107400316Y-104245116D01*
X107378648Y-104226823D01*
X107356795Y-104208435D01*
X107343339Y-104197150D01*
X107302882Y-104163283D01*
X107248616Y-104158429D01*
X107224813Y-104156306D01*
X107195622Y-104153711D01*
X107164089Y-104150915D01*
X107133262Y-104148188D01*
X107120267Y-104147041D01*
X107094771Y-104144737D01*
X107071008Y-104142490D01*
X107050769Y-104140476D01*
X107035845Y-104138873D01*
X107029250Y-104138051D01*
X107018232Y-104136723D01*
X107001209Y-104134986D01*
X106980620Y-104133078D01*
X106961517Y-104131448D01*
X106945485Y-104130120D01*
X106928784Y-104128693D01*
X106910451Y-104127077D01*
X106889520Y-104125183D01*
X106865029Y-104122922D01*
X106836013Y-104120206D01*
X106801508Y-104116946D01*
X106760551Y-104113051D01*
X106712176Y-104108434D01*
X106709634Y-104108191D01*
X106679016Y-104105294D01*
X106644533Y-104102078D01*
X106610019Y-104098898D01*
X106579311Y-104096110D01*
X106573828Y-104095619D01*
X106550264Y-104093405D01*
X106528986Y-104091207D01*
X106511746Y-104089220D01*
X106500297Y-104087642D01*
X106497248Y-104087056D01*
X106489226Y-104082300D01*
X106479844Y-104071265D01*
X106468882Y-104053986D01*
X106457295Y-104034185D01*
X106449204Y-104020526D01*
X106443880Y-104011814D01*
X106440593Y-104006853D01*
X106438700Y-104004533D01*
X106433053Y-103996934D01*
X106426895Y-103986228D01*
X106423267Y-103978075D01*
X106419628Y-103971830D01*
X106417454Y-103970667D01*
X106413686Y-103967182D01*
X106409447Y-103959025D01*
X106404352Y-103948609D01*
X106396664Y-103935227D01*
X106392324Y-103928333D01*
X106382347Y-103912530D01*
X106371916Y-103895231D01*
X106368402Y-103889175D01*
X106361454Y-103878053D01*
X106355745Y-103870751D01*
X106353361Y-103869067D01*
X106350157Y-103865649D01*
X106349800Y-103863019D01*
X106347012Y-103855369D01*
X106342946Y-103850117D01*
X106338531Y-103843893D01*
X106338528Y-103840827D01*
X106343429Y-103840672D01*
X106354686Y-103842204D01*
G36*
X109878406Y-103841717D02*
G01*
X109880337Y-103844626D01*
X109880400Y-103845703D01*
X109878399Y-103851391D01*
X109876661Y-103852133D01*
X109872317Y-103855569D01*
X109870352Y-103859542D01*
X109867183Y-103865785D01*
X109860370Y-103877525D01*
X109850872Y-103893157D01*
X109839651Y-103911072D01*
X109838096Y-103913517D01*
X109826571Y-103931808D01*
X109816487Y-103948211D01*
X109808856Y-103961048D01*
X109804695Y-103968643D01*
X109804486Y-103969100D01*
X109800421Y-103976789D01*
X109793102Y-103989222D01*
X109783915Y-104004062D01*
X109781215Y-104008302D01*
X109772369Y-104022568D01*
X109765648Y-104034297D01*
X109762136Y-104041559D01*
X109761867Y-104042676D01*
X109759124Y-104046756D01*
X109758315Y-104046867D01*
X109754466Y-104050325D01*
X109748977Y-104059024D01*
X109746711Y-104063418D01*
X109740021Y-104074838D01*
X109733154Y-104083130D01*
X109731365Y-104084527D01*
X109724852Y-104086411D01*
X109711469Y-104088728D01*
X109692789Y-104091259D01*
X109670384Y-104093783D01*
X109653010Y-104095457D01*
X109622049Y-104098263D01*
X109587105Y-104101477D01*
X109552018Y-104104742D01*
X109520626Y-104107703D01*
X109514217Y-104108315D01*
X109452251Y-104114234D01*
X109396647Y-104119516D01*
X109345341Y-104124355D01*
X109296269Y-104128943D01*
X109247367Y-104133471D01*
X109196571Y-104138133D01*
X109141816Y-104143121D01*
X109109934Y-104146012D01*
X109083057Y-104148519D01*
X109055913Y-104151176D01*
X109031024Y-104153728D01*
X109010913Y-104155920D01*
X109004100Y-104156721D01*
X108984165Y-104158827D01*
X108964369Y-104160389D01*
X108948514Y-104161115D01*
X108946499Y-104161134D01*
X108936711Y-104161443D01*
X108928708Y-104162981D01*
X108920675Y-104166713D01*
X108910793Y-104173605D01*
X108897245Y-104184622D01*
X108888671Y-104191858D01*
X108870273Y-104207385D01*
X108848339Y-104225794D01*
X108825862Y-104244578D01*
X108809088Y-104258533D01*
X108788617Y-104275579D01*
X108766433Y-104294154D01*
X108745440Y-104311820D01*
X108730881Y-104324150D01*
X108716321Y-104336463D01*
X108696992Y-104352701D01*
X108674652Y-104371395D01*
X108651058Y-104391075D01*
X108628882Y-104409509D01*
X108608031Y-104426820D01*
X108588907Y-104442719D01*
X108572653Y-104456254D01*
X108560410Y-104466473D01*
X108553322Y-104472427D01*
X108552639Y-104473009D01*
X108545183Y-104479256D01*
X108533344Y-104489027D01*
X108519318Y-104500513D01*
X108514958Y-104504066D01*
X108500617Y-104515823D01*
X108487726Y-104526536D01*
X108478523Y-104534340D01*
X108476837Y-104535816D01*
X108469151Y-104542413D01*
X108457125Y-104552472D01*
X108442997Y-104564125D01*
X108438790Y-104567566D01*
X108423659Y-104580068D01*
X108404771Y-104595900D01*
X108384762Y-104612842D01*
X108369635Y-104625775D01*
X108351095Y-104641528D01*
X108337972Y-104652147D01*
X108329424Y-104658198D01*
X108324609Y-104660249D01*
X108322683Y-104658867D01*
X108322534Y-104657455D01*
X108325465Y-104654076D01*
X108333993Y-104645120D01*
X108347719Y-104630989D01*
X108366247Y-104612086D01*
X108389178Y-104588812D01*
X108416114Y-104561569D01*
X108446658Y-104530760D01*
X108480410Y-104496786D01*
X108516974Y-104460050D01*
X108555951Y-104420953D01*
X108596944Y-104379898D01*
X108627355Y-104349480D01*
X108679118Y-104297774D01*
X108725234Y-104251802D01*
X108766001Y-104211276D01*
X108801722Y-104175905D01*
X108832694Y-104145399D01*
X108859219Y-104119469D01*
X108881597Y-104097823D01*
X108900128Y-104080172D01*
X108915112Y-104066226D01*
X108926849Y-104055694D01*
X108935640Y-104048287D01*
X108941783Y-104043715D01*
X108945581Y-104041687D01*
X108945913Y-104041596D01*
X108956908Y-104039137D01*
X108972846Y-104035647D01*
X108990390Y-104031857D01*
X108991400Y-104031641D01*
X109011460Y-104027325D01*
X109032506Y-104022769D01*
X109048550Y-104019271D01*
X109066803Y-104015308D01*
X109088054Y-104010747D01*
X109103584Y-104007447D01*
X109118851Y-104004178D01*
X109139859Y-103999618D01*
X109164085Y-103994318D01*
X109189005Y-103988828D01*
X109194600Y-103987589D01*
X109232900Y-103979135D01*
X109264223Y-103972297D01*
X109289847Y-103966801D01*
X109311049Y-103962375D01*
X109329107Y-103958744D01*
X109332184Y-103958142D01*
X109339638Y-103956670D01*
X109347820Y-103955000D01*
X109357816Y-103952898D01*
X109370711Y-103950130D01*
X109387592Y-103946460D01*
X109409543Y-103941655D01*
X109437650Y-103935479D01*
X109470825Y-103928177D01*
X109490645Y-103923879D01*
X109509743Y-103919854D01*
X109524950Y-103916764D01*
X109529034Y-103915976D01*
X109540088Y-103913757D01*
X109557310Y-103910128D01*
X109578609Y-103905538D01*
X109601891Y-103900434D01*
X109609467Y-103898755D01*
X109634187Y-103893283D01*
X109658796Y-103887877D01*
X109680771Y-103883087D01*
X109697591Y-103879466D01*
X109700484Y-103878853D01*
X109720890Y-103874524D01*
X109743015Y-103869800D01*
X109757634Y-103866660D01*
X109776716Y-103862628D01*
X109796739Y-103858526D01*
X109808434Y-103856207D01*
X109824147Y-103852944D01*
X109838499Y-103849614D01*
X109844417Y-103848058D01*
X109861867Y-103843340D01*
X109872723Y-103841257D01*
X109878406Y-103841717D01*
G37*
X109878406Y-103841717D02*
X109880337Y-103844626D01*
X109880400Y-103845703D01*
X109878399Y-103851391D01*
X109876661Y-103852133D01*
X109872317Y-103855569D01*
X109870352Y-103859542D01*
X109867183Y-103865785D01*
X109860370Y-103877525D01*
X109850872Y-103893157D01*
X109839651Y-103911072D01*
X109838096Y-103913517D01*
X109826571Y-103931808D01*
X109816487Y-103948211D01*
X109808856Y-103961048D01*
X109804695Y-103968643D01*
X109804486Y-103969100D01*
X109800421Y-103976789D01*
X109793102Y-103989222D01*
X109783915Y-104004062D01*
X109781215Y-104008302D01*
X109772369Y-104022568D01*
X109765648Y-104034297D01*
X109762136Y-104041559D01*
X109761867Y-104042676D01*
X109759124Y-104046756D01*
X109758315Y-104046867D01*
X109754466Y-104050325D01*
X109748977Y-104059024D01*
X109746711Y-104063418D01*
X109740021Y-104074838D01*
X109733154Y-104083130D01*
X109731365Y-104084527D01*
X109724852Y-104086411D01*
X109711469Y-104088728D01*
X109692789Y-104091259D01*
X109670384Y-104093783D01*
X109653010Y-104095457D01*
X109622049Y-104098263D01*
X109587105Y-104101477D01*
X109552018Y-104104742D01*
X109520626Y-104107703D01*
X109514217Y-104108315D01*
X109452251Y-104114234D01*
X109396647Y-104119516D01*
X109345341Y-104124355D01*
X109296269Y-104128943D01*
X109247367Y-104133471D01*
X109196571Y-104138133D01*
X109141816Y-104143121D01*
X109109934Y-104146012D01*
X109083057Y-104148519D01*
X109055913Y-104151176D01*
X109031024Y-104153728D01*
X109010913Y-104155920D01*
X109004100Y-104156721D01*
X108984165Y-104158827D01*
X108964369Y-104160389D01*
X108948514Y-104161115D01*
X108946499Y-104161134D01*
X108936711Y-104161443D01*
X108928708Y-104162981D01*
X108920675Y-104166713D01*
X108910793Y-104173605D01*
X108897245Y-104184622D01*
X108888671Y-104191858D01*
X108870273Y-104207385D01*
X108848339Y-104225794D01*
X108825862Y-104244578D01*
X108809088Y-104258533D01*
X108788617Y-104275579D01*
X108766433Y-104294154D01*
X108745440Y-104311820D01*
X108730881Y-104324150D01*
X108716321Y-104336463D01*
X108696992Y-104352701D01*
X108674652Y-104371395D01*
X108651058Y-104391075D01*
X108628882Y-104409509D01*
X108608031Y-104426820D01*
X108588907Y-104442719D01*
X108572653Y-104456254D01*
X108560410Y-104466473D01*
X108553322Y-104472427D01*
X108552639Y-104473009D01*
X108545183Y-104479256D01*
X108533344Y-104489027D01*
X108519318Y-104500513D01*
X108514958Y-104504066D01*
X108500617Y-104515823D01*
X108487726Y-104526536D01*
X108478523Y-104534340D01*
X108476837Y-104535816D01*
X108469151Y-104542413D01*
X108457125Y-104552472D01*
X108442997Y-104564125D01*
X108438790Y-104567566D01*
X108423659Y-104580068D01*
X108404771Y-104595900D01*
X108384762Y-104612842D01*
X108369635Y-104625775D01*
X108351095Y-104641528D01*
X108337972Y-104652147D01*
X108329424Y-104658198D01*
X108324609Y-104660249D01*
X108322683Y-104658867D01*
X108322534Y-104657455D01*
X108325465Y-104654076D01*
X108333993Y-104645120D01*
X108347719Y-104630989D01*
X108366247Y-104612086D01*
X108389178Y-104588812D01*
X108416114Y-104561569D01*
X108446658Y-104530760D01*
X108480410Y-104496786D01*
X108516974Y-104460050D01*
X108555951Y-104420953D01*
X108596944Y-104379898D01*
X108627355Y-104349480D01*
X108679118Y-104297774D01*
X108725234Y-104251802D01*
X108766001Y-104211276D01*
X108801722Y-104175905D01*
X108832694Y-104145399D01*
X108859219Y-104119469D01*
X108881597Y-104097823D01*
X108900128Y-104080172D01*
X108915112Y-104066226D01*
X108926849Y-104055694D01*
X108935640Y-104048287D01*
X108941783Y-104043715D01*
X108945581Y-104041687D01*
X108945913Y-104041596D01*
X108956908Y-104039137D01*
X108972846Y-104035647D01*
X108990390Y-104031857D01*
X108991400Y-104031641D01*
X109011460Y-104027325D01*
X109032506Y-104022769D01*
X109048550Y-104019271D01*
X109066803Y-104015308D01*
X109088054Y-104010747D01*
X109103584Y-104007447D01*
X109118851Y-104004178D01*
X109139859Y-103999618D01*
X109164085Y-103994318D01*
X109189005Y-103988828D01*
X109194600Y-103987589D01*
X109232900Y-103979135D01*
X109264223Y-103972297D01*
X109289847Y-103966801D01*
X109311049Y-103962375D01*
X109329107Y-103958744D01*
X109332184Y-103958142D01*
X109339638Y-103956670D01*
X109347820Y-103955000D01*
X109357816Y-103952898D01*
X109370711Y-103950130D01*
X109387592Y-103946460D01*
X109409543Y-103941655D01*
X109437650Y-103935479D01*
X109470825Y-103928177D01*
X109490645Y-103923879D01*
X109509743Y-103919854D01*
X109524950Y-103916764D01*
X109529034Y-103915976D01*
X109540088Y-103913757D01*
X109557310Y-103910128D01*
X109578609Y-103905538D01*
X109601891Y-103900434D01*
X109609467Y-103898755D01*
X109634187Y-103893283D01*
X109658796Y-103887877D01*
X109680771Y-103883087D01*
X109697591Y-103879466D01*
X109700484Y-103878853D01*
X109720890Y-103874524D01*
X109743015Y-103869800D01*
X109757634Y-103866660D01*
X109776716Y-103862628D01*
X109796739Y-103858526D01*
X109808434Y-103856207D01*
X109824147Y-103852944D01*
X109838499Y-103849614D01*
X109844417Y-103848058D01*
X109861867Y-103843340D01*
X109872723Y-103841257D01*
X109878406Y-103841717D01*
G36*
X106528659Y-104111885D02*
G01*
X106539708Y-104113199D01*
X106556950Y-104114896D01*
X106578133Y-104116767D01*
X106601003Y-104118604D01*
X106603800Y-104118816D01*
X106629365Y-104120862D01*
X106656079Y-104123207D01*
X106680682Y-104125553D01*
X106699050Y-104127503D01*
X106719357Y-104129656D01*
X106744543Y-104132050D01*
X106771037Y-104134359D01*
X106790067Y-104135871D01*
X106825711Y-104138658D01*
X106868630Y-104142202D01*
X106917676Y-104146402D01*
X106971701Y-104151161D01*
X107029555Y-104156377D01*
X107056767Y-104158870D01*
X107086326Y-104161553D01*
X107120806Y-104164626D01*
X107156689Y-104167778D01*
X107190458Y-104170698D01*
X107203895Y-104171842D01*
X107229068Y-104174099D01*
X107251698Y-104176363D01*
X107270277Y-104178465D01*
X107283300Y-104180234D01*
X107289066Y-104181419D01*
X107292739Y-104183182D01*
X107297690Y-104186402D01*
X107304841Y-104191818D01*
X107315116Y-104200174D01*
X107329439Y-104212210D01*
X107348734Y-104228669D01*
X107361342Y-104239483D01*
X107374448Y-104250609D01*
X107390849Y-104264353D01*
X107407281Y-104277984D01*
X107409365Y-104279700D01*
X107422159Y-104290722D01*
X107431955Y-104300107D01*
X107437221Y-104306349D01*
X107437717Y-104307601D01*
X107434498Y-104308844D01*
X107424626Y-104309989D01*
X107407822Y-104311048D01*
X107383805Y-104312030D01*
X107352297Y-104312945D01*
X107313016Y-104313805D01*
X107265684Y-104314620D01*
X107239858Y-104315001D01*
X107189938Y-104315702D01*
X107133908Y-104316486D01*
X107074126Y-104317322D01*
X107012947Y-104318176D01*
X106952729Y-104319015D01*
X106895827Y-104319806D01*
X106844598Y-104320517D01*
X106840509Y-104320574D01*
X106639067Y-104323365D01*
X106631820Y-104313174D01*
X106626258Y-104304911D01*
X106617800Y-104291840D01*
X106607991Y-104276359D01*
X106604786Y-104271233D01*
X106595578Y-104256872D01*
X106587831Y-104245545D01*
X106582752Y-104238989D01*
X106581700Y-104238072D01*
X106578434Y-104233236D01*
X106578400Y-104232650D01*
X106576270Y-104227824D01*
X106570401Y-104217191D01*
X106561574Y-104202102D01*
X106550572Y-104183908D01*
X106544534Y-104174123D01*
X106532722Y-104154783D01*
X106522704Y-104137758D01*
X106515266Y-104124432D01*
X106511195Y-104116191D01*
X106510667Y-104114430D01*
X106513581Y-104111328D01*
X106523031Y-104111182D01*
X106528659Y-104111885D01*
G37*
X106528659Y-104111885D02*
X106539708Y-104113199D01*
X106556950Y-104114896D01*
X106578133Y-104116767D01*
X106601003Y-104118604D01*
X106603800Y-104118816D01*
X106629365Y-104120862D01*
X106656079Y-104123207D01*
X106680682Y-104125553D01*
X106699050Y-104127503D01*
X106719357Y-104129656D01*
X106744543Y-104132050D01*
X106771037Y-104134359D01*
X106790067Y-104135871D01*
X106825711Y-104138658D01*
X106868630Y-104142202D01*
X106917676Y-104146402D01*
X106971701Y-104151161D01*
X107029555Y-104156377D01*
X107056767Y-104158870D01*
X107086326Y-104161553D01*
X107120806Y-104164626D01*
X107156689Y-104167778D01*
X107190458Y-104170698D01*
X107203895Y-104171842D01*
X107229068Y-104174099D01*
X107251698Y-104176363D01*
X107270277Y-104178465D01*
X107283300Y-104180234D01*
X107289066Y-104181419D01*
X107292739Y-104183182D01*
X107297690Y-104186402D01*
X107304841Y-104191818D01*
X107315116Y-104200174D01*
X107329439Y-104212210D01*
X107348734Y-104228669D01*
X107361342Y-104239483D01*
X107374448Y-104250609D01*
X107390849Y-104264353D01*
X107407281Y-104277984D01*
X107409365Y-104279700D01*
X107422159Y-104290722D01*
X107431955Y-104300107D01*
X107437221Y-104306349D01*
X107437717Y-104307601D01*
X107434498Y-104308844D01*
X107424626Y-104309989D01*
X107407822Y-104311048D01*
X107383805Y-104312030D01*
X107352297Y-104312945D01*
X107313016Y-104313805D01*
X107265684Y-104314620D01*
X107239858Y-104315001D01*
X107189938Y-104315702D01*
X107133908Y-104316486D01*
X107074126Y-104317322D01*
X107012947Y-104318176D01*
X106952729Y-104319015D01*
X106895827Y-104319806D01*
X106844598Y-104320517D01*
X106840509Y-104320574D01*
X106639067Y-104323365D01*
X106631820Y-104313174D01*
X106626258Y-104304911D01*
X106617800Y-104291840D01*
X106607991Y-104276359D01*
X106604786Y-104271233D01*
X106595578Y-104256872D01*
X106587831Y-104245545D01*
X106582752Y-104238989D01*
X106581700Y-104238072D01*
X106578434Y-104233236D01*
X106578400Y-104232650D01*
X106576270Y-104227824D01*
X106570401Y-104217191D01*
X106561574Y-104202102D01*
X106550572Y-104183908D01*
X106544534Y-104174123D01*
X106532722Y-104154783D01*
X106522704Y-104137758D01*
X106515266Y-104124432D01*
X106511195Y-104116191D01*
X106510667Y-104114430D01*
X106513581Y-104111328D01*
X106523031Y-104111182D01*
X106528659Y-104111885D01*
G36*
X109712540Y-104111339D02*
G01*
X109713790Y-104111679D01*
X109712481Y-104115850D01*
X109707378Y-104125700D01*
X109699275Y-104139791D01*
X109688969Y-104156688D01*
X109688084Y-104158101D01*
X109677405Y-104175480D01*
X109668624Y-104190472D01*
X109662620Y-104201524D01*
X109660272Y-104207085D01*
X109660267Y-104207190D01*
X109657352Y-104211728D01*
X109656034Y-104211967D01*
X109651982Y-104215235D01*
X109651800Y-104216566D01*
X109649550Y-104222479D01*
X109643811Y-104232445D01*
X109639622Y-104238791D01*
X109631635Y-104250796D01*
X109621218Y-104267054D01*
X109610293Y-104284558D01*
X109607433Y-104289225D01*
X109587424Y-104322033D01*
X109464037Y-104321219D01*
X109430312Y-104320950D01*
X109390081Y-104320551D01*
X109345303Y-104320046D01*
X109297939Y-104319460D01*
X109249947Y-104318816D01*
X109203288Y-104318139D01*
X109167084Y-104317571D01*
X109124147Y-104316901D01*
X109079243Y-104316254D01*
X109034133Y-104315654D01*
X108990577Y-104315120D01*
X108950338Y-104314676D01*
X108915176Y-104314343D01*
X108888742Y-104314152D01*
X108855844Y-104313908D01*
X108830481Y-104313550D01*
X108811720Y-104313016D01*
X108798629Y-104312243D01*
X108790274Y-104311171D01*
X108785725Y-104309737D01*
X108784049Y-104307880D01*
X108783967Y-104307217D01*
X108786053Y-104301580D01*
X108787824Y-104300867D01*
X108792263Y-104298214D01*
X108802147Y-104290773D01*
X108816537Y-104279313D01*
X108834493Y-104264608D01*
X108855077Y-104247428D01*
X108877349Y-104228546D01*
X108900371Y-104208734D01*
X108907900Y-104202186D01*
X108919959Y-104192328D01*
X108930694Y-104184676D01*
X108936626Y-104181409D01*
X108943492Y-104180039D01*
X108957249Y-104178194D01*
X108976345Y-104176051D01*
X108999230Y-104173785D01*
X109020126Y-104171927D01*
X109051932Y-104169207D01*
X109087884Y-104166079D01*
X109124221Y-104162872D01*
X109157181Y-104159918D01*
X109167084Y-104159017D01*
X109236388Y-104152745D01*
X109298542Y-104147248D01*
X109353226Y-104142552D01*
X109400120Y-104138686D01*
X109438017Y-104135742D01*
X109462718Y-104133769D01*
X109488111Y-104131514D01*
X109511042Y-104129271D01*
X109526917Y-104127509D01*
X109548205Y-104125196D01*
X109572994Y-104122924D01*
X109596329Y-104121144D01*
X109598884Y-104120979D01*
X109622463Y-104119216D01*
X109648840Y-104116818D01*
X109672615Y-104114281D01*
X109674332Y-104114076D01*
X109691178Y-104112291D01*
X109704590Y-104111338D01*
X109712540Y-104111339D01*
G37*
X109712540Y-104111339D02*
X109713790Y-104111679D01*
X109712481Y-104115850D01*
X109707378Y-104125700D01*
X109699275Y-104139791D01*
X109688969Y-104156688D01*
X109688084Y-104158101D01*
X109677405Y-104175480D01*
X109668624Y-104190472D01*
X109662620Y-104201524D01*
X109660272Y-104207085D01*
X109660267Y-104207190D01*
X109657352Y-104211728D01*
X109656034Y-104211967D01*
X109651982Y-104215235D01*
X109651800Y-104216566D01*
X109649550Y-104222479D01*
X109643811Y-104232445D01*
X109639622Y-104238791D01*
X109631635Y-104250796D01*
X109621218Y-104267054D01*
X109610293Y-104284558D01*
X109607433Y-104289225D01*
X109587424Y-104322033D01*
X109464037Y-104321219D01*
X109430312Y-104320950D01*
X109390081Y-104320551D01*
X109345303Y-104320046D01*
X109297939Y-104319460D01*
X109249947Y-104318816D01*
X109203288Y-104318139D01*
X109167084Y-104317571D01*
X109124147Y-104316901D01*
X109079243Y-104316254D01*
X109034133Y-104315654D01*
X108990577Y-104315120D01*
X108950338Y-104314676D01*
X108915176Y-104314343D01*
X108888742Y-104314152D01*
X108855844Y-104313908D01*
X108830481Y-104313550D01*
X108811720Y-104313016D01*
X108798629Y-104312243D01*
X108790274Y-104311171D01*
X108785725Y-104309737D01*
X108784049Y-104307880D01*
X108783967Y-104307217D01*
X108786053Y-104301580D01*
X108787824Y-104300867D01*
X108792263Y-104298214D01*
X108802147Y-104290773D01*
X108816537Y-104279313D01*
X108834493Y-104264608D01*
X108855077Y-104247428D01*
X108877349Y-104228546D01*
X108900371Y-104208734D01*
X108907900Y-104202186D01*
X108919959Y-104192328D01*
X108930694Y-104184676D01*
X108936626Y-104181409D01*
X108943492Y-104180039D01*
X108957249Y-104178194D01*
X108976345Y-104176051D01*
X108999230Y-104173785D01*
X109020126Y-104171927D01*
X109051932Y-104169207D01*
X109087884Y-104166079D01*
X109124221Y-104162872D01*
X109157181Y-104159918D01*
X109167084Y-104159017D01*
X109236388Y-104152745D01*
X109298542Y-104147248D01*
X109353226Y-104142552D01*
X109400120Y-104138686D01*
X109438017Y-104135742D01*
X109462718Y-104133769D01*
X109488111Y-104131514D01*
X109511042Y-104129271D01*
X109526917Y-104127509D01*
X109548205Y-104125196D01*
X109572994Y-104122924D01*
X109596329Y-104121144D01*
X109598884Y-104120979D01*
X109622463Y-104119216D01*
X109648840Y-104116818D01*
X109672615Y-104114281D01*
X109674332Y-104114076D01*
X109691178Y-104112291D01*
X109704590Y-104111338D01*
X109712540Y-104111339D01*
G36*
X105919631Y-103155394D02*
G01*
X105930249Y-103160313D01*
X105946190Y-103167850D01*
X105966309Y-103177460D01*
X105989460Y-103188602D01*
X105996973Y-103192233D01*
X106023527Y-103205056D01*
X106049941Y-103217767D01*
X106074374Y-103229483D01*
X106094985Y-103239321D01*
X106109932Y-103246399D01*
X106110617Y-103246720D01*
X106127323Y-103254610D01*
X106149057Y-103264950D01*
X106173227Y-103276503D01*
X106197239Y-103288032D01*
X106201634Y-103290149D01*
X106230513Y-103304045D01*
X106258826Y-103317620D01*
X106288338Y-103331717D01*
X106320819Y-103347179D01*
X106358037Y-103364851D01*
X106385784Y-103378006D01*
X106407264Y-103388214D01*
X106432884Y-103400433D01*
X106459158Y-103412997D01*
X106478917Y-103422473D01*
X106521682Y-103442989D01*
X106568605Y-103465447D01*
X106616188Y-103488177D01*
X106660931Y-103509506D01*
X106673650Y-103515559D01*
X106692465Y-103524527D01*
X106715987Y-103535764D01*
X106741291Y-103547873D01*
X106765453Y-103559455D01*
X106766784Y-103560093D01*
X106790782Y-103571586D01*
X106816096Y-103583666D01*
X106839802Y-103594940D01*
X106858978Y-103604018D01*
X106859917Y-103604461D01*
X106879060Y-103613527D01*
X106902767Y-103624819D01*
X106927977Y-103636877D01*
X106950934Y-103647905D01*
X106996022Y-103669616D01*
X107034270Y-103688014D01*
X107066457Y-103703473D01*
X107093365Y-103716368D01*
X107115774Y-103727072D01*
X107134465Y-103735959D01*
X107150218Y-103743403D01*
X107158367Y-103747230D01*
X107194931Y-103764451D01*
X107224281Y-103778493D01*
X107246936Y-103789620D01*
X107263415Y-103798099D01*
X107274239Y-103804193D01*
X107279926Y-103808168D01*
X107281133Y-103809910D01*
X107277786Y-103813436D01*
X107268457Y-103812272D01*
X107262083Y-103810011D01*
X107254031Y-103807171D01*
X107240551Y-103802843D01*
X107224347Y-103797891D01*
X107221867Y-103797153D01*
X107203854Y-103791747D01*
X107186578Y-103786451D01*
X107173646Y-103782370D01*
X107173183Y-103782220D01*
X107159435Y-103777917D01*
X107142168Y-103772751D01*
X107130850Y-103769477D01*
X107112924Y-103764193D01*
X107092014Y-103757760D01*
X107075817Y-103752594D01*
X107058560Y-103747079D01*
X107036667Y-103740241D01*
X107013618Y-103733161D01*
X107001734Y-103729563D01*
X106972946Y-103720872D01*
X106943308Y-103711867D01*
X106914446Y-103703048D01*
X106887988Y-103694913D01*
X106865561Y-103687963D01*
X106848792Y-103682697D01*
X106842984Y-103680833D01*
X106830361Y-103676847D01*
X106813218Y-103671584D01*
X106795159Y-103666148D01*
X106794300Y-103665892D01*
X106774924Y-103660056D01*
X106754990Y-103653929D01*
X106739267Y-103648982D01*
X106721336Y-103643366D01*
X106701150Y-103637244D01*
X106690584Y-103634128D01*
X106664648Y-103626459D01*
X106636323Y-103617867D01*
X106609480Y-103609538D01*
X106593217Y-103604358D01*
X106581114Y-103600518D01*
X106562084Y-103594576D01*
X106537300Y-103586896D01*
X106507935Y-103577839D01*
X106475163Y-103567767D01*
X106440157Y-103557043D01*
X106415417Y-103549483D01*
X106394947Y-103543208D01*
X106376582Y-103537525D01*
X106362309Y-103533055D01*
X106354114Y-103530415D01*
X106354034Y-103530388D01*
X106344855Y-103527479D01*
X106330454Y-103523134D01*
X106313753Y-103518234D01*
X106311700Y-103517641D01*
X106293664Y-103512344D01*
X106276371Y-103507105D01*
X106263442Y-103503022D01*
X106263017Y-103502882D01*
X106248351Y-103498139D01*
X106228778Y-103491964D01*
X106206244Y-103484952D01*
X106182696Y-103477701D01*
X106160078Y-103470809D01*
X106140337Y-103464872D01*
X106125418Y-103460487D01*
X106119084Y-103458714D01*
X106108066Y-103455538D01*
X106100178Y-103451945D01*
X106093656Y-103446311D01*
X106086737Y-103437013D01*
X106077660Y-103422427D01*
X106075119Y-103418217D01*
X106063707Y-103399297D01*
X106055787Y-103386272D01*
X106050484Y-103377784D01*
X106046922Y-103372473D01*
X106044226Y-103368982D01*
X106041520Y-103365953D01*
X106041237Y-103365647D01*
X106035276Y-103357307D01*
X106029342Y-103346418D01*
X106023088Y-103334298D01*
X106014390Y-103319060D01*
X106004336Y-103302419D01*
X105994011Y-103286088D01*
X105984501Y-103271781D01*
X105976894Y-103261212D01*
X105972274Y-103256095D01*
X105971995Y-103255939D01*
X105968880Y-103251078D01*
X105968800Y-103250047D01*
X105966646Y-103244746D01*
X105960949Y-103234304D01*
X105952860Y-103220569D01*
X105943528Y-103205384D01*
X105934104Y-103190596D01*
X105925737Y-103178051D01*
X105919577Y-103169595D01*
X105917082Y-103167039D01*
X105914483Y-103162962D01*
X105913736Y-103156851D01*
X105915431Y-103153634D01*
X105915481Y-103153633D01*
X105919631Y-103155394D01*
G37*
X105919631Y-103155394D02*
X105930249Y-103160313D01*
X105946190Y-103167850D01*
X105966309Y-103177460D01*
X105989460Y-103188602D01*
X105996973Y-103192233D01*
X106023527Y-103205056D01*
X106049941Y-103217767D01*
X106074374Y-103229483D01*
X106094985Y-103239321D01*
X106109932Y-103246399D01*
X106110617Y-103246720D01*
X106127323Y-103254610D01*
X106149057Y-103264950D01*
X106173227Y-103276503D01*
X106197239Y-103288032D01*
X106201634Y-103290149D01*
X106230513Y-103304045D01*
X106258826Y-103317620D01*
X106288338Y-103331717D01*
X106320819Y-103347179D01*
X106358037Y-103364851D01*
X106385784Y-103378006D01*
X106407264Y-103388214D01*
X106432884Y-103400433D01*
X106459158Y-103412997D01*
X106478917Y-103422473D01*
X106521682Y-103442989D01*
X106568605Y-103465447D01*
X106616188Y-103488177D01*
X106660931Y-103509506D01*
X106673650Y-103515559D01*
X106692465Y-103524527D01*
X106715987Y-103535764D01*
X106741291Y-103547873D01*
X106765453Y-103559455D01*
X106766784Y-103560093D01*
X106790782Y-103571586D01*
X106816096Y-103583666D01*
X106839802Y-103594940D01*
X106858978Y-103604018D01*
X106859917Y-103604461D01*
X106879060Y-103613527D01*
X106902767Y-103624819D01*
X106927977Y-103636877D01*
X106950934Y-103647905D01*
X106996022Y-103669616D01*
X107034270Y-103688014D01*
X107066457Y-103703473D01*
X107093365Y-103716368D01*
X107115774Y-103727072D01*
X107134465Y-103735959D01*
X107150218Y-103743403D01*
X107158367Y-103747230D01*
X107194931Y-103764451D01*
X107224281Y-103778493D01*
X107246936Y-103789620D01*
X107263415Y-103798099D01*
X107274239Y-103804193D01*
X107279926Y-103808168D01*
X107281133Y-103809910D01*
X107277786Y-103813436D01*
X107268457Y-103812272D01*
X107262083Y-103810011D01*
X107254031Y-103807171D01*
X107240551Y-103802843D01*
X107224347Y-103797891D01*
X107221867Y-103797153D01*
X107203854Y-103791747D01*
X107186578Y-103786451D01*
X107173646Y-103782370D01*
X107173183Y-103782220D01*
X107159435Y-103777917D01*
X107142168Y-103772751D01*
X107130850Y-103769477D01*
X107112924Y-103764193D01*
X107092014Y-103757760D01*
X107075817Y-103752594D01*
X107058560Y-103747079D01*
X107036667Y-103740241D01*
X107013618Y-103733161D01*
X107001734Y-103729563D01*
X106972946Y-103720872D01*
X106943308Y-103711867D01*
X106914446Y-103703048D01*
X106887988Y-103694913D01*
X106865561Y-103687963D01*
X106848792Y-103682697D01*
X106842984Y-103680833D01*
X106830361Y-103676847D01*
X106813218Y-103671584D01*
X106795159Y-103666148D01*
X106794300Y-103665892D01*
X106774924Y-103660056D01*
X106754990Y-103653929D01*
X106739267Y-103648982D01*
X106721336Y-103643366D01*
X106701150Y-103637244D01*
X106690584Y-103634128D01*
X106664648Y-103626459D01*
X106636323Y-103617867D01*
X106609480Y-103609538D01*
X106593217Y-103604358D01*
X106581114Y-103600518D01*
X106562084Y-103594576D01*
X106537300Y-103586896D01*
X106507935Y-103577839D01*
X106475163Y-103567767D01*
X106440157Y-103557043D01*
X106415417Y-103549483D01*
X106394947Y-103543208D01*
X106376582Y-103537525D01*
X106362309Y-103533055D01*
X106354114Y-103530415D01*
X106354034Y-103530388D01*
X106344855Y-103527479D01*
X106330454Y-103523134D01*
X106313753Y-103518234D01*
X106311700Y-103517641D01*
X106293664Y-103512344D01*
X106276371Y-103507105D01*
X106263442Y-103503022D01*
X106263017Y-103502882D01*
X106248351Y-103498139D01*
X106228778Y-103491964D01*
X106206244Y-103484952D01*
X106182696Y-103477701D01*
X106160078Y-103470809D01*
X106140337Y-103464872D01*
X106125418Y-103460487D01*
X106119084Y-103458714D01*
X106108066Y-103455538D01*
X106100178Y-103451945D01*
X106093656Y-103446311D01*
X106086737Y-103437013D01*
X106077660Y-103422427D01*
X106075119Y-103418217D01*
X106063707Y-103399297D01*
X106055787Y-103386272D01*
X106050484Y-103377784D01*
X106046922Y-103372473D01*
X106044226Y-103368982D01*
X106041520Y-103365953D01*
X106041237Y-103365647D01*
X106035276Y-103357307D01*
X106029342Y-103346418D01*
X106023088Y-103334298D01*
X106014390Y-103319060D01*
X106004336Y-103302419D01*
X105994011Y-103286088D01*
X105984501Y-103271781D01*
X105976894Y-103261212D01*
X105972274Y-103256095D01*
X105971995Y-103255939D01*
X105968880Y-103251078D01*
X105968800Y-103250047D01*
X105966646Y-103244746D01*
X105960949Y-103234304D01*
X105952860Y-103220569D01*
X105943528Y-103205384D01*
X105934104Y-103190596D01*
X105925737Y-103178051D01*
X105919577Y-103169595D01*
X105917082Y-103167039D01*
X105914483Y-103162962D01*
X105913736Y-103156851D01*
X105915431Y-103153634D01*
X105915481Y-103153633D01*
X105919631Y-103155394D01*
G36*
X110295454Y-103165093D02*
G01*
X110292660Y-103172872D01*
X110285893Y-103183637D01*
X110285175Y-103184607D01*
X110277762Y-103195935D01*
X110272642Y-103206281D01*
X110272190Y-103207608D01*
X110268481Y-103214998D01*
X110265348Y-103217133D01*
X110261844Y-103220566D01*
X110261400Y-103223483D01*
X110259678Y-103229127D01*
X110258225Y-103229837D01*
X110254641Y-103233242D01*
X110248554Y-103242077D01*
X110242634Y-103252062D01*
X110234016Y-103266920D01*
X110223032Y-103285090D01*
X110211963Y-103302805D01*
X110211253Y-103303917D01*
X110200180Y-103321675D01*
X110188982Y-103340367D01*
X110179988Y-103356105D01*
X110179590Y-103356833D01*
X110169968Y-103373537D01*
X110158446Y-103392248D01*
X110150545Y-103404374D01*
X110141832Y-103417745D01*
X110134917Y-103429161D01*
X110131396Y-103435936D01*
X110125534Y-103446409D01*
X110117785Y-103454847D01*
X110110755Y-103458430D01*
X110110594Y-103458433D01*
X110104893Y-103459655D01*
X110092787Y-103462999D01*
X110075930Y-103467989D01*
X110055974Y-103474144D01*
X110051210Y-103475645D01*
X110029118Y-103482609D01*
X110008148Y-103489172D01*
X109990544Y-103494635D01*
X109978548Y-103498299D01*
X109977767Y-103498532D01*
X109961867Y-103503295D01*
X109943768Y-103508750D01*
X109936492Y-103510954D01*
X109889634Y-103525087D01*
X109851825Y-103536376D01*
X109840009Y-103539945D01*
X109821207Y-103545696D01*
X109796516Y-103553290D01*
X109767034Y-103562388D01*
X109733856Y-103572653D01*
X109698081Y-103583745D01*
X109660804Y-103595325D01*
X109645450Y-103600101D01*
X109620495Y-103607828D01*
X109592483Y-103616440D01*
X109565864Y-103624570D01*
X109554434Y-103628038D01*
X109530369Y-103635360D01*
X109503749Y-103643525D01*
X109478948Y-103651192D01*
X109469767Y-103654051D01*
X109450679Y-103659993D01*
X109432971Y-103665462D01*
X109419307Y-103669639D01*
X109414734Y-103671012D01*
X109400404Y-103675349D01*
X109384841Y-103680182D01*
X109382984Y-103680768D01*
X109368265Y-103685350D01*
X109351174Y-103690561D01*
X109344884Y-103692449D01*
X109329012Y-103697235D01*
X109306207Y-103704183D01*
X109277618Y-103712939D01*
X109244397Y-103723150D01*
X109207694Y-103734463D01*
X109168659Y-103746525D01*
X109167084Y-103747013D01*
X109144600Y-103753964D01*
X109123004Y-103760631D01*
X109104618Y-103766297D01*
X109091767Y-103770245D01*
X109090884Y-103770515D01*
X109074487Y-103775586D01*
X109058127Y-103780731D01*
X109052784Y-103782437D01*
X109040137Y-103786358D01*
X109022963Y-103791494D01*
X109004880Y-103796765D01*
X109004100Y-103796988D01*
X108987466Y-103801907D01*
X108972937Y-103806467D01*
X108963357Y-103809773D01*
X108962626Y-103810062D01*
X108950972Y-103813499D01*
X108942937Y-103813380D01*
X108940600Y-103810615D01*
X108944182Y-103807465D01*
X108953814Y-103801777D01*
X108967830Y-103794490D01*
X108977642Y-103789745D01*
X108991404Y-103783246D01*
X109007538Y-103775597D01*
X109026826Y-103766424D01*
X109050052Y-103755354D01*
X109078001Y-103742012D01*
X109111455Y-103726026D01*
X109151197Y-103707022D01*
X109184017Y-103691321D01*
X109200580Y-103683386D01*
X109222649Y-103672798D01*
X109248104Y-103660575D01*
X109274821Y-103647736D01*
X109295629Y-103637730D01*
X109318465Y-103626775D01*
X109338542Y-103617200D01*
X109354672Y-103609568D01*
X109365666Y-103604442D01*
X109370334Y-103602382D01*
X109370405Y-103602367D01*
X109374401Y-103600599D01*
X109384954Y-103595633D01*
X109401004Y-103587976D01*
X109421494Y-103578134D01*
X109445366Y-103566611D01*
X109463317Y-103557917D01*
X109488915Y-103545527D01*
X109511867Y-103534467D01*
X109531115Y-103525243D01*
X109545599Y-103518360D01*
X109554262Y-103514325D01*
X109556292Y-103513467D01*
X109560328Y-103511713D01*
X109570829Y-103506818D01*
X109586641Y-103499328D01*
X109606608Y-103489792D01*
X109629577Y-103478757D01*
X109635401Y-103475949D01*
X109662114Y-103463081D01*
X109689116Y-103450101D01*
X109714406Y-103437970D01*
X109735983Y-103427648D01*
X109751284Y-103420361D01*
X109766031Y-103413352D01*
X109787323Y-103403214D01*
X109814065Y-103390469D01*
X109845163Y-103375638D01*
X109879523Y-103359245D01*
X109916050Y-103341810D01*
X109953650Y-103323857D01*
X109991229Y-103305907D01*
X110027693Y-103288482D01*
X110028567Y-103288064D01*
X110045626Y-103279898D01*
X110067825Y-103269256D01*
X110092673Y-103257332D01*
X110117682Y-103245320D01*
X110125934Y-103241354D01*
X110167698Y-103221307D01*
X110204178Y-103203861D01*
X110234983Y-103189199D01*
X110259721Y-103177508D01*
X110278002Y-103168972D01*
X110289434Y-103163775D01*
X110293603Y-103162100D01*
X110295454Y-103165093D01*
G37*
X110295454Y-103165093D02*
X110292660Y-103172872D01*
X110285893Y-103183637D01*
X110285175Y-103184607D01*
X110277762Y-103195935D01*
X110272642Y-103206281D01*
X110272190Y-103207608D01*
X110268481Y-103214998D01*
X110265348Y-103217133D01*
X110261844Y-103220566D01*
X110261400Y-103223483D01*
X110259678Y-103229127D01*
X110258225Y-103229837D01*
X110254641Y-103233242D01*
X110248554Y-103242077D01*
X110242634Y-103252062D01*
X110234016Y-103266920D01*
X110223032Y-103285090D01*
X110211963Y-103302805D01*
X110211253Y-103303917D01*
X110200180Y-103321675D01*
X110188982Y-103340367D01*
X110179988Y-103356105D01*
X110179590Y-103356833D01*
X110169968Y-103373537D01*
X110158446Y-103392248D01*
X110150545Y-103404374D01*
X110141832Y-103417745D01*
X110134917Y-103429161D01*
X110131396Y-103435936D01*
X110125534Y-103446409D01*
X110117785Y-103454847D01*
X110110755Y-103458430D01*
X110110594Y-103458433D01*
X110104893Y-103459655D01*
X110092787Y-103462999D01*
X110075930Y-103467989D01*
X110055974Y-103474144D01*
X110051210Y-103475645D01*
X110029118Y-103482609D01*
X110008148Y-103489172D01*
X109990544Y-103494635D01*
X109978548Y-103498299D01*
X109977767Y-103498532D01*
X109961867Y-103503295D01*
X109943768Y-103508750D01*
X109936492Y-103510954D01*
X109889634Y-103525087D01*
X109851825Y-103536376D01*
X109840009Y-103539945D01*
X109821207Y-103545696D01*
X109796516Y-103553290D01*
X109767034Y-103562388D01*
X109733856Y-103572653D01*
X109698081Y-103583745D01*
X109660804Y-103595325D01*
X109645450Y-103600101D01*
X109620495Y-103607828D01*
X109592483Y-103616440D01*
X109565864Y-103624570D01*
X109554434Y-103628038D01*
X109530369Y-103635360D01*
X109503749Y-103643525D01*
X109478948Y-103651192D01*
X109469767Y-103654051D01*
X109450679Y-103659993D01*
X109432971Y-103665462D01*
X109419307Y-103669639D01*
X109414734Y-103671012D01*
X109400404Y-103675349D01*
X109384841Y-103680182D01*
X109382984Y-103680768D01*
X109368265Y-103685350D01*
X109351174Y-103690561D01*
X109344884Y-103692449D01*
X109329012Y-103697235D01*
X109306207Y-103704183D01*
X109277618Y-103712939D01*
X109244397Y-103723150D01*
X109207694Y-103734463D01*
X109168659Y-103746525D01*
X109167084Y-103747013D01*
X109144600Y-103753964D01*
X109123004Y-103760631D01*
X109104618Y-103766297D01*
X109091767Y-103770245D01*
X109090884Y-103770515D01*
X109074487Y-103775586D01*
X109058127Y-103780731D01*
X109052784Y-103782437D01*
X109040137Y-103786358D01*
X109022963Y-103791494D01*
X109004880Y-103796765D01*
X109004100Y-103796988D01*
X108987466Y-103801907D01*
X108972937Y-103806467D01*
X108963357Y-103809773D01*
X108962626Y-103810062D01*
X108950972Y-103813499D01*
X108942937Y-103813380D01*
X108940600Y-103810615D01*
X108944182Y-103807465D01*
X108953814Y-103801777D01*
X108967830Y-103794490D01*
X108977642Y-103789745D01*
X108991404Y-103783246D01*
X109007538Y-103775597D01*
X109026826Y-103766424D01*
X109050052Y-103755354D01*
X109078001Y-103742012D01*
X109111455Y-103726026D01*
X109151197Y-103707022D01*
X109184017Y-103691321D01*
X109200580Y-103683386D01*
X109222649Y-103672798D01*
X109248104Y-103660575D01*
X109274821Y-103647736D01*
X109295629Y-103637730D01*
X109318465Y-103626775D01*
X109338542Y-103617200D01*
X109354672Y-103609568D01*
X109365666Y-103604442D01*
X109370334Y-103602382D01*
X109370405Y-103602367D01*
X109374401Y-103600599D01*
X109384954Y-103595633D01*
X109401004Y-103587976D01*
X109421494Y-103578134D01*
X109445366Y-103566611D01*
X109463317Y-103557917D01*
X109488915Y-103545527D01*
X109511867Y-103534467D01*
X109531115Y-103525243D01*
X109545599Y-103518360D01*
X109554262Y-103514325D01*
X109556292Y-103513467D01*
X109560328Y-103511713D01*
X109570829Y-103506818D01*
X109586641Y-103499328D01*
X109606608Y-103489792D01*
X109629577Y-103478757D01*
X109635401Y-103475949D01*
X109662114Y-103463081D01*
X109689116Y-103450101D01*
X109714406Y-103437970D01*
X109735983Y-103427648D01*
X109751284Y-103420361D01*
X109766031Y-103413352D01*
X109787323Y-103403214D01*
X109814065Y-103390469D01*
X109845163Y-103375638D01*
X109879523Y-103359245D01*
X109916050Y-103341810D01*
X109953650Y-103323857D01*
X109991229Y-103305907D01*
X110027693Y-103288482D01*
X110028567Y-103288064D01*
X110045626Y-103279898D01*
X110067825Y-103269256D01*
X110092673Y-103257332D01*
X110117682Y-103245320D01*
X110125934Y-103241354D01*
X110167698Y-103221307D01*
X110204178Y-103203861D01*
X110234983Y-103189199D01*
X110259721Y-103177508D01*
X110278002Y-103168972D01*
X110289434Y-103163775D01*
X110293603Y-103162100D01*
X110295454Y-103165093D01*
D13*
%TO.C,C1*%
X113429200Y-116482000D02*
X113429200Y-116182000D01*
X112529200Y-116482000D02*
X112529200Y-116182000D01*
%TO.C,C2*%
X117528200Y-120084000D02*
X117828200Y-120084000D01*
X117528200Y-119184000D02*
X117828200Y-119184000D01*
D14*
%TO.C,D1*%
X114030365Y-120942100D02*
X112029635Y-120942100D01*
X112029635Y-122897900D02*
X114030365Y-122897900D01*
D13*
%TO.C,J1*%
X107950000Y-128520000D02*
X107950000Y-117860000D01*
X105410000Y-128520000D02*
X107950000Y-128520000D01*
X105410000Y-117860000D02*
X105410000Y-128520000D01*
X107950000Y-117860000D02*
X105410000Y-117860000D01*
D15*
X106730000Y-117230000D02*
G75*
G03*
X106730000Y-117230000I-100000J0D01*
G01*
D13*
%TO.C,J2*%
X120900000Y-130810000D02*
X110240000Y-130810000D01*
X120900000Y-133350000D02*
X120900000Y-130810000D01*
X110240000Y-133350000D02*
X120900000Y-133350000D01*
X110240000Y-130810000D02*
X110240000Y-133350000D01*
D15*
X109710000Y-132130000D02*
G75*
G03*
X109710000Y-132130000I-100000J0D01*
G01*
D13*
%TO.C,R1*%
X120104000Y-122864000D02*
X121704000Y-122864000D01*
X120104000Y-121484000D02*
X121704000Y-121484000D01*
%TO.C,R2*%
X125260000Y-130120000D02*
X123660000Y-130120000D01*
X125260000Y-131500000D02*
X123660000Y-131500000D01*
D15*
%TO.C,U1*%
X115085800Y-118804200D02*
G75*
G03*
X115085800Y-118804200I-100000J0D01*
G01*
D13*
X122605800Y-112452200D02*
X122605800Y-109454200D01*
X112445800Y-112452200D02*
X122605800Y-112452200D01*
X112445800Y-109454200D02*
X112445800Y-112452200D01*
D16*
%TO.C,U2*%
X120215800Y-124815600D02*
G75*
G03*
X120215800Y-124815600I-150000J0D01*
G01*
D14*
X123278900Y-124117100D02*
X119037100Y-124117100D01*
X119037100Y-129374900D02*
X123278900Y-129374900D01*
%TO.C,C1*%
D11*
X111023400Y-116426342D02*
X110987114Y-116462628D01*
X110878257Y-116498914D01*
X110805685Y-116498914D01*
X110696828Y-116462628D01*
X110624257Y-116390057D01*
X110587971Y-116317485D01*
X110551685Y-116172342D01*
X110551685Y-116063485D01*
X110587971Y-115918342D01*
X110624257Y-115845771D01*
X110696828Y-115773200D01*
X110805685Y-115736914D01*
X110878257Y-115736914D01*
X110987114Y-115773200D01*
X111023400Y-115809485D01*
X111749114Y-116498914D02*
X111313685Y-116498914D01*
X111531400Y-116498914D02*
X111531400Y-115736914D01*
X111458828Y-115845771D01*
X111386257Y-115918342D01*
X111313685Y-115954628D01*
%TO.C,C2*%
X117551200Y-121125342D02*
X117514914Y-121161628D01*
X117406057Y-121197914D01*
X117333485Y-121197914D01*
X117224628Y-121161628D01*
X117152057Y-121089057D01*
X117115771Y-121016485D01*
X117079485Y-120871342D01*
X117079485Y-120762485D01*
X117115771Y-120617342D01*
X117152057Y-120544771D01*
X117224628Y-120472200D01*
X117333485Y-120435914D01*
X117406057Y-120435914D01*
X117514914Y-120472200D01*
X117551200Y-120508485D01*
X117841485Y-120508485D02*
X117877771Y-120472200D01*
X117950342Y-120435914D01*
X118131771Y-120435914D01*
X118204342Y-120472200D01*
X118240628Y-120508485D01*
X118276914Y-120581057D01*
X118276914Y-120653628D01*
X118240628Y-120762485D01*
X117805200Y-121197914D01*
X118276914Y-121197914D01*
%TO.C,D1*%
D17*
X112317304Y-120340380D02*
X112317304Y-119340380D01*
X112555400Y-119340380D01*
X112698257Y-119388000D01*
X112793495Y-119483238D01*
X112841114Y-119578476D01*
X112888733Y-119768952D01*
X112888733Y-119911809D01*
X112841114Y-120102285D01*
X112793495Y-120197523D01*
X112698257Y-120292761D01*
X112555400Y-120340380D01*
X112317304Y-120340380D01*
X113841114Y-120340380D02*
X113269685Y-120340380D01*
X113555400Y-120340380D02*
X113555400Y-119340380D01*
X113460161Y-119483238D01*
X113364923Y-119578476D01*
X113269685Y-119626095D01*
X113030000Y-121372380D02*
X113030000Y-121610476D01*
X112791904Y-121515238D02*
X113030000Y-121610476D01*
X113268095Y-121515238D01*
X112887142Y-121800952D02*
X113030000Y-121610476D01*
X113172857Y-121800952D01*
%TO.C,J1*%
D11*
X108775533Y-128416104D02*
X108775533Y-128987533D01*
X108737438Y-129101819D01*
X108661247Y-129178009D01*
X108546961Y-129216104D01*
X108470771Y-129216104D01*
X109575533Y-129216104D02*
X109118390Y-129216104D01*
X109346961Y-129216104D02*
X109346961Y-128416104D01*
X109270771Y-128530390D01*
X109194580Y-128606580D01*
X109118390Y-128644676D01*
%TO.C,J2*%
X109893133Y-129355904D02*
X109893133Y-129927333D01*
X109855038Y-130041619D01*
X109778847Y-130117809D01*
X109664561Y-130155904D01*
X109588371Y-130155904D01*
X110235990Y-129432095D02*
X110274085Y-129394000D01*
X110350276Y-129355904D01*
X110540752Y-129355904D01*
X110616942Y-129394000D01*
X110655038Y-129432095D01*
X110693133Y-129508285D01*
X110693133Y-129584476D01*
X110655038Y-129698761D01*
X110197895Y-130155904D01*
X110693133Y-130155904D01*
%TO.C,R1*%
X120777000Y-121248714D02*
X120523000Y-120885857D01*
X120341571Y-121248714D02*
X120341571Y-120486714D01*
X120631857Y-120486714D01*
X120704428Y-120523000D01*
X120740714Y-120559285D01*
X120777000Y-120631857D01*
X120777000Y-120740714D01*
X120740714Y-120813285D01*
X120704428Y-120849571D01*
X120631857Y-120885857D01*
X120341571Y-120885857D01*
X121502714Y-121248714D02*
X121067285Y-121248714D01*
X121285000Y-121248714D02*
X121285000Y-120486714D01*
X121212428Y-120595571D01*
X121139857Y-120668142D01*
X121067285Y-120704428D01*
%TO.C,R2*%
X126619000Y-131154714D02*
X126365000Y-130791857D01*
X126183571Y-131154714D02*
X126183571Y-130392714D01*
X126473857Y-130392714D01*
X126546428Y-130429000D01*
X126582714Y-130465285D01*
X126619000Y-130537857D01*
X126619000Y-130646714D01*
X126582714Y-130719285D01*
X126546428Y-130755571D01*
X126473857Y-130791857D01*
X126183571Y-130791857D01*
X126909285Y-130465285D02*
X126945571Y-130429000D01*
X127018142Y-130392714D01*
X127199571Y-130392714D01*
X127272142Y-130429000D01*
X127308428Y-130465285D01*
X127344714Y-130537857D01*
X127344714Y-130610428D01*
X127308428Y-130719285D01*
X126873000Y-131154714D01*
X127344714Y-131154714D01*
%TO.C,U1*%
X123698095Y-110805980D02*
X123698095Y-111615504D01*
X123745714Y-111710742D01*
X123793333Y-111758361D01*
X123888571Y-111805980D01*
X124079047Y-111805980D01*
X124174285Y-111758361D01*
X124221904Y-111710742D01*
X124269523Y-111615504D01*
X124269523Y-110805980D01*
X125269523Y-111805980D02*
X124698095Y-111805980D01*
X124983809Y-111805980D02*
X124983809Y-110805980D01*
X124888571Y-110948838D01*
X124793333Y-111044076D01*
X124698095Y-111091695D01*
%TO.C,U2*%
D17*
X123698095Y-122896380D02*
X123698095Y-123705904D01*
X123745714Y-123801142D01*
X123793333Y-123848761D01*
X123888571Y-123896380D01*
X124079047Y-123896380D01*
X124174285Y-123848761D01*
X124221904Y-123801142D01*
X124269523Y-123705904D01*
X124269523Y-122896380D01*
X124698095Y-122991619D02*
X124745714Y-122944000D01*
X124840952Y-122896380D01*
X125079047Y-122896380D01*
X125174285Y-122944000D01*
X125221904Y-122991619D01*
X125269523Y-123086857D01*
X125269523Y-123182095D01*
X125221904Y-123324952D01*
X124650476Y-123896380D01*
X125269523Y-123896380D01*
X118440200Y-122591580D02*
X118440200Y-122829676D01*
X118202104Y-122734438D02*
X118440200Y-122829676D01*
X118678295Y-122734438D01*
X118297342Y-123020152D02*
X118440200Y-122829676D01*
X118583057Y-123020152D01*
%TD*%
M02*
