%TF.GenerationSoftware,KiCad,Pcbnew,5.1.10*%
%TF.CreationDate,2021-09-22T17:39:45-07:00*%
%TF.ProjectId,Instrumentation-Amplifier,496e7374-7275-46d6-956e-746174696f6e,2.0*%
%TF.SameCoordinates,Original*%
%TF.FileFunction,Copper,L1,Top*%
%TF.FilePolarity,Positive*%
%FSLAX46Y46*%
G04 Gerber Fmt 4.6, Leading zero omitted, Abs format (unit mm)*
G04 Created by KiCad (PCBNEW 5.1.10) date 2021-09-22 17:39:45*
%MOMM*%
%LPD*%
G01*
G04 APERTURE LIST*
%TA.AperFunction,SMDPad,CuDef*%
%ADD10R,1.000000X1.100000*%
%TD*%
%TA.AperFunction,SMDPad,CuDef*%
%ADD11R,1.100000X1.000000*%
%TD*%
%TA.AperFunction,SMDPad,CuDef*%
%ADD12R,0.965200X1.295400*%
%TD*%
%TA.AperFunction,ComponentPad*%
%ADD13R,1.605000X1.605000*%
%TD*%
%TA.AperFunction,ComponentPad*%
%ADD14C,1.605000*%
%TD*%
%TA.AperFunction,SMDPad,CuDef*%
%ADD15R,0.940000X1.020000*%
%TD*%
%TA.AperFunction,SMDPad,CuDef*%
%ADD16R,0.990000X3.790000*%
%TD*%
%TA.AperFunction,SMDPad,CuDef*%
%ADD17R,10.840000X7.620000*%
%TD*%
%TA.AperFunction,SMDPad,CuDef*%
%ADD18R,1.981200X0.558800*%
%TD*%
%TA.AperFunction,ViaPad*%
%ADD19C,0.800000*%
%TD*%
%TA.AperFunction,Conductor*%
%ADD20C,0.381000*%
%TD*%
%TA.AperFunction,Conductor*%
%ADD21C,0.254000*%
%TD*%
%TA.AperFunction,Conductor*%
%ADD22C,0.100000*%
%TD*%
G04 APERTURE END LIST*
D10*
%TO.P,C1,1*%
%TO.N,Earth*%
X112979200Y-117182000D03*
%TO.P,C1,2*%
%TO.N,/+Vs*%
X112979200Y-115482000D03*
%TD*%
D11*
%TO.P,C2,1*%
%TO.N,Earth*%
X116828200Y-119634000D03*
%TO.P,C2,2*%
%TO.N,~*%
X118528200Y-119634000D03*
%TD*%
D12*
%TO.P,D1,1*%
%TO.N,Earth*%
X111506000Y-121920000D03*
%TO.P,D1,2*%
%TO.N,~*%
X114554000Y-121920000D03*
%TD*%
D13*
%TO.P,J1,1*%
%TO.N,/+Vs*%
X106680000Y-119380000D03*
D14*
%TO.P,J1,2*%
%TO.N,/Vout*%
X106680000Y-121920000D03*
%TO.P,J1,3*%
%TO.N,Earth*%
X106680000Y-124460000D03*
%TO.P,J1,4*%
X106680000Y-127000000D03*
%TD*%
D13*
%TO.P,J2,1*%
%TO.N,Earth*%
X111760000Y-132080000D03*
D14*
%TO.P,J2,2*%
%TO.N,Net-(J2-Pad2)*%
X114300000Y-132080000D03*
%TO.P,J2,3*%
%TO.N,Net-(J2-Pad3)*%
X116840000Y-132080000D03*
%TO.P,J2,4*%
%TO.N,~*%
X119380000Y-132080000D03*
%TD*%
D15*
%TO.P,R1,1*%
%TO.N,Net-(R1-Pad1)*%
X120114000Y-122174000D03*
%TO.P,R1,2*%
%TO.N,Net-(R1-Pad2)*%
X121694000Y-122174000D03*
%TD*%
%TO.P,R2,1*%
%TO.N,/Vout*%
X125250000Y-130810000D03*
%TO.P,R2,2*%
%TO.N,Earth*%
X123670000Y-130810000D03*
%TD*%
D16*
%TO.P,U1,1*%
%TO.N,/+Vs*%
X114985800Y-116204200D03*
%TO.P,U1,2*%
%TO.N,Earth*%
X117525800Y-116204200D03*
%TO.P,U1,3*%
%TO.N,~*%
X120065800Y-116204200D03*
D17*
%TO.P,U1,4*%
%TO.N,N/C*%
X117525800Y-105324200D03*
%TD*%
D18*
%TO.P,U2,1*%
%TO.N,Net-(R1-Pad1)*%
X118694200Y-124841000D03*
%TO.P,U2,2*%
%TO.N,Net-(J2-Pad2)*%
X118694200Y-126111000D03*
%TO.P,U2,3*%
%TO.N,Net-(J2-Pad3)*%
X118694200Y-127381000D03*
%TO.P,U2,4*%
%TO.N,Earth*%
X118694200Y-128651000D03*
%TO.P,U2,5*%
X123621800Y-128651000D03*
%TO.P,U2,6*%
%TO.N,/Vout*%
X123621800Y-127381000D03*
%TO.P,U2,7*%
%TO.N,~*%
X123621800Y-126111000D03*
%TO.P,U2,8*%
%TO.N,Net-(R1-Pad2)*%
X123621800Y-124841000D03*
%TD*%
D19*
%TO.N,Earth*%
X118618000Y-130048000D03*
%TO.N,/Vout*%
X109728000Y-122936000D03*
X121920000Y-128016000D03*
%TD*%
D20*
%TO.N,Earth*%
X106680000Y-124460000D02*
X110744000Y-124460000D01*
X110744000Y-124460000D02*
X111506000Y-123698000D01*
X111506000Y-123698000D02*
X111506000Y-121920000D01*
X106680000Y-127000000D02*
X106680000Y-124460000D01*
X123670000Y-128699200D02*
X123621800Y-128651000D01*
X123670000Y-130810000D02*
X123670000Y-128699200D01*
X123670000Y-130810000D02*
X123670000Y-133632000D01*
X123670000Y-133632000D02*
X123444000Y-133858000D01*
X123444000Y-133858000D02*
X112014000Y-133858000D01*
X111760000Y-133604000D02*
X111760000Y-132080000D01*
X112014000Y-133858000D02*
X111760000Y-133604000D01*
X118694200Y-129971800D02*
X118618000Y-130048000D01*
X118694200Y-128651000D02*
X118694200Y-129971800D01*
D21*
%TO.N,~*%
X121158000Y-126746000D02*
X121793000Y-126111000D01*
X121158000Y-130302000D02*
X121158000Y-126746000D01*
X121793000Y-126111000D02*
X123621800Y-126111000D01*
X119380000Y-132080000D02*
X121158000Y-130302000D01*
X120650000Y-116290000D02*
X125180000Y-116290000D01*
X125180000Y-116290000D02*
X125984000Y-117094000D01*
X125984000Y-117094000D02*
X125984000Y-125730000D01*
X125603000Y-126111000D02*
X123621800Y-126111000D01*
X125984000Y-125730000D02*
X125603000Y-126111000D01*
X118528200Y-119634000D02*
X120040400Y-119634000D01*
X120040400Y-119634000D02*
X120269000Y-119405400D01*
X120269000Y-119405400D02*
X120269000Y-117271800D01*
X114554000Y-121920000D02*
X117449600Y-121920000D01*
X117449600Y-121920000D02*
X118541800Y-120827800D01*
X118541800Y-120827800D02*
X118541800Y-119608600D01*
%TO.N,Net-(J2-Pad3)*%
X117449600Y-127381000D02*
X118694200Y-127381000D01*
X116840000Y-127990600D02*
X117449600Y-127381000D01*
X116840000Y-132080000D02*
X116840000Y-127990600D01*
%TO.N,Net-(J2-Pad2)*%
X114300000Y-132080000D02*
X114300000Y-127000000D01*
X115189000Y-126111000D02*
X118694200Y-126111000D01*
X114300000Y-127000000D02*
X115189000Y-126111000D01*
%TO.N,Net-(R1-Pad2)*%
X123621800Y-124101800D02*
X121694000Y-122174000D01*
X123621800Y-124841000D02*
X123621800Y-124101800D01*
%TO.N,Net-(R1-Pad1)*%
X118694200Y-123593800D02*
X120114000Y-122174000D01*
X118694200Y-124841000D02*
X118694200Y-123593800D01*
%TO.N,/Vout*%
X125250000Y-130810000D02*
X125250000Y-127536000D01*
X125095000Y-127381000D02*
X123621800Y-127381000D01*
X125250000Y-127536000D02*
X125095000Y-127381000D01*
X108712000Y-121920000D02*
X109728000Y-122936000D01*
X106680000Y-121920000D02*
X108712000Y-121920000D01*
X121920000Y-128016000D02*
X121920000Y-127762000D01*
X122301000Y-127381000D02*
X123621800Y-127381000D01*
X121920000Y-127762000D02*
X122301000Y-127381000D01*
D20*
%TO.N,/+Vs*%
X112979200Y-115482000D02*
X115304200Y-115482000D01*
X106680000Y-119380000D02*
X109296200Y-119380000D01*
X109296200Y-119380000D02*
X110693200Y-117983000D01*
X110693200Y-117983000D02*
X110693200Y-116382800D01*
X110693200Y-116382800D02*
X111531400Y-115544600D01*
X111531400Y-115544600D02*
X113004600Y-115544600D01*
%TD*%
D21*
%TO.N,Earth*%
X111654615Y-101063015D02*
X111575263Y-101159706D01*
X111516298Y-101270020D01*
X111479988Y-101389718D01*
X111467728Y-101514200D01*
X111467728Y-109134200D01*
X111479988Y-109258682D01*
X111516298Y-109378380D01*
X111575263Y-109488694D01*
X111654615Y-109585385D01*
X111751306Y-109664737D01*
X111861620Y-109723702D01*
X111981318Y-109760012D01*
X112105800Y-109772272D01*
X122945800Y-109772272D01*
X123070282Y-109760012D01*
X123189980Y-109723702D01*
X123300294Y-109664737D01*
X123396985Y-109585385D01*
X123476337Y-109488694D01*
X123535302Y-109378380D01*
X123571612Y-109258682D01*
X123583872Y-109134200D01*
X123583872Y-102704042D01*
X124045000Y-102704042D01*
X124045000Y-103035958D01*
X124109754Y-103361496D01*
X124236772Y-103668147D01*
X124421175Y-103944125D01*
X124655875Y-104178825D01*
X124931853Y-104363228D01*
X125238504Y-104490246D01*
X125564042Y-104555000D01*
X125895958Y-104555000D01*
X126221496Y-104490246D01*
X126528147Y-104363228D01*
X126804125Y-104178825D01*
X127038825Y-103944125D01*
X127223228Y-103668147D01*
X127350246Y-103361496D01*
X127415000Y-103035958D01*
X127415000Y-102704042D01*
X127350246Y-102378504D01*
X127223228Y-102071853D01*
X127038825Y-101795875D01*
X126804125Y-101561175D01*
X126528147Y-101376772D01*
X126221496Y-101249754D01*
X125895958Y-101185000D01*
X125564042Y-101185000D01*
X125238504Y-101249754D01*
X124931853Y-101376772D01*
X124655875Y-101561175D01*
X124421175Y-101795875D01*
X124236772Y-102071853D01*
X124109754Y-102378504D01*
X124045000Y-102704042D01*
X123583872Y-102704042D01*
X123583872Y-101514200D01*
X123571612Y-101389718D01*
X123535302Y-101270020D01*
X123476337Y-101159706D01*
X123396985Y-101063015D01*
X123368941Y-101040000D01*
X127560001Y-101040000D01*
X127560000Y-133910000D01*
X104850000Y-133910000D01*
X104850000Y-131710842D01*
X105249000Y-131710842D01*
X105249000Y-132042758D01*
X105313754Y-132368296D01*
X105440772Y-132674947D01*
X105625175Y-132950925D01*
X105859875Y-133185625D01*
X106135853Y-133370028D01*
X106442504Y-133497046D01*
X106768042Y-133561800D01*
X107099958Y-133561800D01*
X107425496Y-133497046D01*
X107732147Y-133370028D01*
X108008125Y-133185625D01*
X108242825Y-132950925D01*
X108288545Y-132882500D01*
X110319428Y-132882500D01*
X110331688Y-133006982D01*
X110367998Y-133126680D01*
X110426963Y-133236994D01*
X110506315Y-133333685D01*
X110603006Y-133413037D01*
X110713320Y-133472002D01*
X110833018Y-133508312D01*
X110957500Y-133520572D01*
X111474250Y-133517500D01*
X111633000Y-133358750D01*
X111633000Y-132207000D01*
X110481250Y-132207000D01*
X110322500Y-132365750D01*
X110319428Y-132882500D01*
X108288545Y-132882500D01*
X108427228Y-132674947D01*
X108554246Y-132368296D01*
X108619000Y-132042758D01*
X108619000Y-131710842D01*
X108554246Y-131385304D01*
X108509593Y-131277500D01*
X110319428Y-131277500D01*
X110322500Y-131794250D01*
X110481250Y-131953000D01*
X111633000Y-131953000D01*
X111633000Y-130801250D01*
X111887000Y-130801250D01*
X111887000Y-131953000D01*
X111907000Y-131953000D01*
X111907000Y-132207000D01*
X111887000Y-132207000D01*
X111887000Y-133358750D01*
X112045750Y-133517500D01*
X112562500Y-133520572D01*
X112686982Y-133508312D01*
X112806680Y-133472002D01*
X112916994Y-133413037D01*
X113013685Y-133333685D01*
X113093037Y-133236994D01*
X113152002Y-133126680D01*
X113188312Y-133006982D01*
X113188826Y-133001758D01*
X113383647Y-133196579D01*
X113619089Y-133353896D01*
X113880697Y-133462257D01*
X114158419Y-133517500D01*
X114441581Y-133517500D01*
X114719303Y-133462257D01*
X114980911Y-133353896D01*
X115216353Y-133196579D01*
X115416579Y-132996353D01*
X115570000Y-132766742D01*
X115723421Y-132996353D01*
X115923647Y-133196579D01*
X116159089Y-133353896D01*
X116420697Y-133462257D01*
X116698419Y-133517500D01*
X116981581Y-133517500D01*
X117259303Y-133462257D01*
X117520911Y-133353896D01*
X117756353Y-133196579D01*
X117956579Y-132996353D01*
X118110000Y-132766742D01*
X118263421Y-132996353D01*
X118463647Y-133196579D01*
X118699089Y-133353896D01*
X118960697Y-133462257D01*
X119238419Y-133517500D01*
X119521581Y-133517500D01*
X119799303Y-133462257D01*
X120060911Y-133353896D01*
X120296353Y-133196579D01*
X120496579Y-132996353D01*
X120653896Y-132760911D01*
X120762257Y-132499303D01*
X120817500Y-132221581D01*
X120817500Y-131938419D01*
X120781283Y-131756347D01*
X121217630Y-131320000D01*
X122561928Y-131320000D01*
X122574188Y-131444482D01*
X122610498Y-131564180D01*
X122669463Y-131674494D01*
X122748815Y-131771185D01*
X122845506Y-131850537D01*
X122955820Y-131909502D01*
X123075518Y-131945812D01*
X123200000Y-131958072D01*
X123384250Y-131955000D01*
X123543000Y-131796250D01*
X123543000Y-130937000D01*
X122723750Y-130937000D01*
X122565000Y-131095750D01*
X122561928Y-131320000D01*
X121217630Y-131320000D01*
X121670347Y-130867283D01*
X121699422Y-130843422D01*
X121778584Y-130746963D01*
X121794645Y-130727393D01*
X121865401Y-130595016D01*
X121865402Y-130595015D01*
X121908974Y-130451378D01*
X121920000Y-130339426D01*
X121920000Y-130339423D01*
X121923686Y-130302000D01*
X121923490Y-130300000D01*
X122561928Y-130300000D01*
X122565000Y-130524250D01*
X122723750Y-130683000D01*
X123543000Y-130683000D01*
X123543000Y-129823750D01*
X123384250Y-129665000D01*
X123200000Y-129661928D01*
X123075518Y-129674188D01*
X122955820Y-129710498D01*
X122845506Y-129769463D01*
X122748815Y-129848815D01*
X122669463Y-129945506D01*
X122610498Y-130055820D01*
X122574188Y-130175518D01*
X122561928Y-130300000D01*
X121923490Y-130300000D01*
X121920000Y-130264577D01*
X121920000Y-129051000D01*
X122005264Y-129051000D01*
X122005692Y-129056400D01*
X122042293Y-129176010D01*
X122101525Y-129286180D01*
X122181111Y-129382679D01*
X122277995Y-129461796D01*
X122388452Y-129520493D01*
X122508238Y-129556512D01*
X122632749Y-129568470D01*
X123336050Y-129565400D01*
X123494800Y-129406650D01*
X123494800Y-128778000D01*
X123474800Y-128778000D01*
X123474800Y-128524000D01*
X123494800Y-128524000D01*
X123494800Y-128504000D01*
X123748800Y-128504000D01*
X123748800Y-128524000D01*
X123768800Y-128524000D01*
X123768800Y-128778000D01*
X123748800Y-128778000D01*
X123748800Y-129406650D01*
X123907550Y-129565400D01*
X124488000Y-129567934D01*
X124488000Y-129736059D01*
X124460000Y-129751025D01*
X124384180Y-129710498D01*
X124264482Y-129674188D01*
X124140000Y-129661928D01*
X123955750Y-129665000D01*
X123797000Y-129823750D01*
X123797000Y-130683000D01*
X123817000Y-130683000D01*
X123817000Y-130937000D01*
X123797000Y-130937000D01*
X123797000Y-131796250D01*
X123955750Y-131955000D01*
X124140000Y-131958072D01*
X124264482Y-131945812D01*
X124384180Y-131909502D01*
X124460000Y-131868975D01*
X124535820Y-131909502D01*
X124655518Y-131945812D01*
X124780000Y-131958072D01*
X125720000Y-131958072D01*
X125844482Y-131945812D01*
X125964180Y-131909502D01*
X126074494Y-131850537D01*
X126171185Y-131771185D01*
X126250537Y-131674494D01*
X126309502Y-131564180D01*
X126345812Y-131444482D01*
X126358072Y-131320000D01*
X126358072Y-130300000D01*
X126345812Y-130175518D01*
X126309502Y-130055820D01*
X126250537Y-129945506D01*
X126171185Y-129848815D01*
X126074494Y-129769463D01*
X126012000Y-129736059D01*
X126012000Y-127573422D01*
X126015686Y-127535999D01*
X126009998Y-127478249D01*
X126000974Y-127386622D01*
X125957402Y-127242985D01*
X125886645Y-127110608D01*
X125791422Y-126994578D01*
X125762346Y-126970716D01*
X125662460Y-126870830D01*
X125752378Y-126861974D01*
X125896015Y-126818402D01*
X126028392Y-126747645D01*
X126144422Y-126652422D01*
X126168284Y-126623346D01*
X126496346Y-126295284D01*
X126525422Y-126271422D01*
X126620645Y-126155392D01*
X126691402Y-126023015D01*
X126734974Y-125879378D01*
X126746000Y-125767426D01*
X126746000Y-125767424D01*
X126749686Y-125730001D01*
X126746000Y-125692578D01*
X126746000Y-117131423D01*
X126749686Y-117094000D01*
X126745845Y-117055000D01*
X126734974Y-116944622D01*
X126691402Y-116800985D01*
X126620646Y-116668609D01*
X126620645Y-116668607D01*
X126581986Y-116621502D01*
X126525422Y-116552578D01*
X126496347Y-116528717D01*
X125745284Y-115777654D01*
X125721422Y-115748578D01*
X125605392Y-115653355D01*
X125473015Y-115582598D01*
X125329378Y-115539026D01*
X125217426Y-115528000D01*
X125217423Y-115528000D01*
X125180000Y-115524314D01*
X125142577Y-115528000D01*
X121198872Y-115528000D01*
X121198872Y-114309200D01*
X121186612Y-114184718D01*
X121150302Y-114065020D01*
X121091337Y-113954706D01*
X121011985Y-113858015D01*
X120915294Y-113778663D01*
X120804980Y-113719698D01*
X120685282Y-113683388D01*
X120560800Y-113671128D01*
X119570800Y-113671128D01*
X119446318Y-113683388D01*
X119326620Y-113719698D01*
X119216306Y-113778663D01*
X119119615Y-113858015D01*
X119040263Y-113954706D01*
X118981298Y-114065020D01*
X118944988Y-114184718D01*
X118932728Y-114309200D01*
X118932728Y-118099200D01*
X118944988Y-118223682D01*
X118981298Y-118343380D01*
X119040263Y-118453694D01*
X119074923Y-118495928D01*
X118516677Y-118495928D01*
X118551337Y-118453694D01*
X118610302Y-118343380D01*
X118646612Y-118223682D01*
X118658872Y-118099200D01*
X118655800Y-116489950D01*
X118497050Y-116331200D01*
X117652800Y-116331200D01*
X117652800Y-116351200D01*
X117398800Y-116351200D01*
X117398800Y-116331200D01*
X116554550Y-116331200D01*
X116395800Y-116489950D01*
X116392728Y-118099200D01*
X116404988Y-118223682D01*
X116441298Y-118343380D01*
X116500263Y-118453694D01*
X116537396Y-118498941D01*
X116278200Y-118495928D01*
X116153718Y-118508188D01*
X116034020Y-118544498D01*
X115923706Y-118603463D01*
X115827015Y-118682815D01*
X115747663Y-118779506D01*
X115688698Y-118889820D01*
X115652388Y-119009518D01*
X115640128Y-119134000D01*
X115643200Y-119348250D01*
X115801950Y-119507000D01*
X116701200Y-119507000D01*
X116701200Y-119487000D01*
X116955200Y-119487000D01*
X116955200Y-119507000D01*
X116975200Y-119507000D01*
X116975200Y-119761000D01*
X116955200Y-119761000D01*
X116955200Y-120610250D01*
X117113950Y-120769000D01*
X117378200Y-120772072D01*
X117502682Y-120759812D01*
X117544992Y-120746977D01*
X117133970Y-121158000D01*
X115663415Y-121158000D01*
X115662412Y-121147818D01*
X115626102Y-121028120D01*
X115567137Y-120917806D01*
X115487785Y-120821115D01*
X115391094Y-120741763D01*
X115280780Y-120682798D01*
X115161082Y-120646488D01*
X115036600Y-120634228D01*
X114071400Y-120634228D01*
X113946918Y-120646488D01*
X113827220Y-120682798D01*
X113716906Y-120741763D01*
X113620215Y-120821115D01*
X113540863Y-120917806D01*
X113481898Y-121028120D01*
X113445588Y-121147818D01*
X113433328Y-121272300D01*
X113433328Y-122567700D01*
X113445588Y-122692182D01*
X113481898Y-122811880D01*
X113540863Y-122922194D01*
X113620215Y-123018885D01*
X113716906Y-123098237D01*
X113827220Y-123157202D01*
X113946918Y-123193512D01*
X114071400Y-123205772D01*
X115036600Y-123205772D01*
X115161082Y-123193512D01*
X115280780Y-123157202D01*
X115391094Y-123098237D01*
X115487785Y-123018885D01*
X115567137Y-122922194D01*
X115626102Y-122811880D01*
X115662412Y-122692182D01*
X115663415Y-122682000D01*
X117412177Y-122682000D01*
X117449600Y-122685686D01*
X117487023Y-122682000D01*
X117487026Y-122682000D01*
X117598978Y-122670974D01*
X117742615Y-122627402D01*
X117874992Y-122556645D01*
X117991022Y-122461422D01*
X118014884Y-122432346D01*
X119054153Y-121393078D01*
X119080232Y-121371676D01*
X119054498Y-121419820D01*
X119018188Y-121539518D01*
X119005928Y-121664000D01*
X119005928Y-122204441D01*
X118181849Y-123028521D01*
X118152779Y-123052378D01*
X118128922Y-123081448D01*
X118128921Y-123081449D01*
X118057555Y-123168408D01*
X117986799Y-123300785D01*
X117943227Y-123444422D01*
X117928514Y-123593800D01*
X117932201Y-123631233D01*
X117932201Y-123923528D01*
X117703600Y-123923528D01*
X117579118Y-123935788D01*
X117459420Y-123972098D01*
X117349106Y-124031063D01*
X117252415Y-124110415D01*
X117173063Y-124207106D01*
X117114098Y-124317420D01*
X117077788Y-124437118D01*
X117065528Y-124561600D01*
X117065528Y-125120400D01*
X117077788Y-125244882D01*
X117109372Y-125349000D01*
X115226423Y-125349000D01*
X115189000Y-125345314D01*
X115151577Y-125349000D01*
X115151574Y-125349000D01*
X115039622Y-125360026D01*
X114895985Y-125403598D01*
X114834364Y-125436535D01*
X114763607Y-125474355D01*
X114680904Y-125542228D01*
X114647578Y-125569578D01*
X114623721Y-125598649D01*
X113787649Y-126434721D01*
X113758579Y-126458578D01*
X113734722Y-126487648D01*
X113734721Y-126487649D01*
X113663355Y-126574608D01*
X113592599Y-126706985D01*
X113549027Y-126850622D01*
X113534314Y-127000000D01*
X113538001Y-127037433D01*
X113538000Y-130860286D01*
X113383647Y-130963421D01*
X113188826Y-131158242D01*
X113188312Y-131153018D01*
X113152002Y-131033320D01*
X113093037Y-130923006D01*
X113013685Y-130826315D01*
X112916994Y-130746963D01*
X112806680Y-130687998D01*
X112686982Y-130651688D01*
X112562500Y-130639428D01*
X112045750Y-130642500D01*
X111887000Y-130801250D01*
X111633000Y-130801250D01*
X111474250Y-130642500D01*
X110957500Y-130639428D01*
X110833018Y-130651688D01*
X110713320Y-130687998D01*
X110603006Y-130746963D01*
X110506315Y-130826315D01*
X110426963Y-130923006D01*
X110367998Y-131033320D01*
X110331688Y-131153018D01*
X110319428Y-131277500D01*
X108509593Y-131277500D01*
X108427228Y-131078653D01*
X108242825Y-130802675D01*
X108008125Y-130567975D01*
X107732147Y-130383572D01*
X107425496Y-130256554D01*
X107099958Y-130191800D01*
X106768042Y-130191800D01*
X106442504Y-130256554D01*
X106135853Y-130383572D01*
X105859875Y-130567975D01*
X105625175Y-130802675D01*
X105440772Y-131078653D01*
X105313754Y-131385304D01*
X105249000Y-131710842D01*
X104850000Y-131710842D01*
X104850000Y-127994487D01*
X105865118Y-127994487D01*
X105937004Y-128238712D01*
X106192941Y-128359862D01*
X106467596Y-128428752D01*
X106750413Y-128442738D01*
X107030524Y-128401279D01*
X107297165Y-128305970D01*
X107422996Y-128238712D01*
X107494882Y-127994487D01*
X106680000Y-127179605D01*
X105865118Y-127994487D01*
X104850000Y-127994487D01*
X104850000Y-127070413D01*
X105237262Y-127070413D01*
X105278721Y-127350524D01*
X105374030Y-127617165D01*
X105441288Y-127742996D01*
X105685513Y-127814882D01*
X106500395Y-127000000D01*
X106859605Y-127000000D01*
X107674487Y-127814882D01*
X107918712Y-127742996D01*
X108039862Y-127487059D01*
X108108752Y-127212404D01*
X108122738Y-126929587D01*
X108081279Y-126649476D01*
X107985970Y-126382835D01*
X107918712Y-126257004D01*
X107674487Y-126185118D01*
X106859605Y-127000000D01*
X106500395Y-127000000D01*
X105685513Y-126185118D01*
X105441288Y-126257004D01*
X105320138Y-126512941D01*
X105251248Y-126787596D01*
X105237262Y-127070413D01*
X104850000Y-127070413D01*
X104850000Y-125454487D01*
X105865118Y-125454487D01*
X105937004Y-125698712D01*
X105999091Y-125728102D01*
X105937004Y-125761288D01*
X105865118Y-126005513D01*
X106680000Y-126820395D01*
X107494882Y-126005513D01*
X107422996Y-125761288D01*
X107360909Y-125731898D01*
X107422996Y-125698712D01*
X107494882Y-125454487D01*
X106680000Y-124639605D01*
X105865118Y-125454487D01*
X104850000Y-125454487D01*
X104850000Y-124530413D01*
X105237262Y-124530413D01*
X105278721Y-124810524D01*
X105374030Y-125077165D01*
X105441288Y-125202996D01*
X105685513Y-125274882D01*
X106500395Y-124460000D01*
X106859605Y-124460000D01*
X107674487Y-125274882D01*
X107918712Y-125202996D01*
X108039862Y-124947059D01*
X108108752Y-124672404D01*
X108122738Y-124389587D01*
X108081279Y-124109476D01*
X107985970Y-123842835D01*
X107918712Y-123717004D01*
X107674487Y-123645118D01*
X106859605Y-124460000D01*
X106500395Y-124460000D01*
X105685513Y-123645118D01*
X105441288Y-123717004D01*
X105320138Y-123972941D01*
X105251248Y-124247596D01*
X105237262Y-124530413D01*
X104850000Y-124530413D01*
X104850000Y-118577500D01*
X105239428Y-118577500D01*
X105239428Y-120182500D01*
X105251688Y-120306982D01*
X105287998Y-120426680D01*
X105346963Y-120536994D01*
X105426315Y-120633685D01*
X105523006Y-120713037D01*
X105633320Y-120772002D01*
X105753018Y-120808312D01*
X105758242Y-120808826D01*
X105563421Y-121003647D01*
X105406104Y-121239089D01*
X105297743Y-121500697D01*
X105242500Y-121778419D01*
X105242500Y-122061581D01*
X105297743Y-122339303D01*
X105406104Y-122600911D01*
X105563421Y-122836353D01*
X105763647Y-123036579D01*
X105994272Y-123190678D01*
X105937004Y-123221288D01*
X105865118Y-123465513D01*
X106680000Y-124280395D01*
X107494882Y-123465513D01*
X107422996Y-123221288D01*
X107362660Y-123192727D01*
X107596353Y-123036579D01*
X107796579Y-122836353D01*
X107899714Y-122682000D01*
X108396370Y-122682000D01*
X108693000Y-122978631D01*
X108693000Y-123037939D01*
X108732774Y-123237898D01*
X108810795Y-123426256D01*
X108924063Y-123595774D01*
X109068226Y-123739937D01*
X109237744Y-123853205D01*
X109426102Y-123931226D01*
X109626061Y-123971000D01*
X109829939Y-123971000D01*
X110029898Y-123931226D01*
X110218256Y-123853205D01*
X110387774Y-123739937D01*
X110531937Y-123595774D01*
X110645205Y-123426256D01*
X110723226Y-123237898D01*
X110743116Y-123137904D01*
X110779220Y-123157202D01*
X110898918Y-123193512D01*
X111023400Y-123205772D01*
X111220250Y-123202700D01*
X111379000Y-123043950D01*
X111379000Y-122047000D01*
X111633000Y-122047000D01*
X111633000Y-123043950D01*
X111791750Y-123202700D01*
X111988600Y-123205772D01*
X112113082Y-123193512D01*
X112232780Y-123157202D01*
X112343094Y-123098237D01*
X112439785Y-123018885D01*
X112519137Y-122922194D01*
X112578102Y-122811880D01*
X112614412Y-122692182D01*
X112626672Y-122567700D01*
X112623600Y-122205750D01*
X112464850Y-122047000D01*
X111633000Y-122047000D01*
X111379000Y-122047000D01*
X110547150Y-122047000D01*
X110424931Y-122169220D01*
X110387774Y-122132063D01*
X110218256Y-122018795D01*
X110029898Y-121940774D01*
X109829939Y-121901000D01*
X109770631Y-121901000D01*
X109277284Y-121407654D01*
X109253422Y-121378578D01*
X109137392Y-121283355D01*
X109116710Y-121272300D01*
X110385328Y-121272300D01*
X110388400Y-121634250D01*
X110547150Y-121793000D01*
X111379000Y-121793000D01*
X111379000Y-120796050D01*
X111633000Y-120796050D01*
X111633000Y-121793000D01*
X112464850Y-121793000D01*
X112623600Y-121634250D01*
X112626672Y-121272300D01*
X112614412Y-121147818D01*
X112578102Y-121028120D01*
X112519137Y-120917806D01*
X112439785Y-120821115D01*
X112343094Y-120741763D01*
X112232780Y-120682798D01*
X112113082Y-120646488D01*
X111988600Y-120634228D01*
X111791750Y-120637300D01*
X111633000Y-120796050D01*
X111379000Y-120796050D01*
X111220250Y-120637300D01*
X111023400Y-120634228D01*
X110898918Y-120646488D01*
X110779220Y-120682798D01*
X110668906Y-120741763D01*
X110572215Y-120821115D01*
X110492863Y-120917806D01*
X110433898Y-121028120D01*
X110397588Y-121147818D01*
X110385328Y-121272300D01*
X109116710Y-121272300D01*
X109005015Y-121212598D01*
X108861378Y-121169026D01*
X108749426Y-121158000D01*
X108749423Y-121158000D01*
X108712000Y-121154314D01*
X108674577Y-121158000D01*
X107899714Y-121158000D01*
X107796579Y-121003647D01*
X107601758Y-120808826D01*
X107606982Y-120808312D01*
X107726680Y-120772002D01*
X107836994Y-120713037D01*
X107933685Y-120633685D01*
X108013037Y-120536994D01*
X108072002Y-120426680D01*
X108108312Y-120306982D01*
X108118307Y-120205500D01*
X109255650Y-120205500D01*
X109296200Y-120209494D01*
X109336750Y-120205500D01*
X109336753Y-120205500D01*
X109458026Y-120193556D01*
X109613634Y-120146353D01*
X109636744Y-120134000D01*
X115640128Y-120134000D01*
X115652388Y-120258482D01*
X115688698Y-120378180D01*
X115747663Y-120488494D01*
X115827015Y-120585185D01*
X115923706Y-120664537D01*
X116034020Y-120723502D01*
X116153718Y-120759812D01*
X116278200Y-120772072D01*
X116542450Y-120769000D01*
X116701200Y-120610250D01*
X116701200Y-119761000D01*
X115801950Y-119761000D01*
X115643200Y-119919750D01*
X115640128Y-120134000D01*
X109636744Y-120134000D01*
X109757042Y-120069699D01*
X109882741Y-119966541D01*
X109908598Y-119935034D01*
X111248241Y-118595392D01*
X111279741Y-118569541D01*
X111382899Y-118443842D01*
X111459553Y-118300434D01*
X111506756Y-118144826D01*
X111518700Y-118023553D01*
X111518700Y-118023544D01*
X111522693Y-117983001D01*
X111518700Y-117942458D01*
X111518700Y-117732000D01*
X111841128Y-117732000D01*
X111853388Y-117856482D01*
X111889698Y-117976180D01*
X111948663Y-118086494D01*
X112028015Y-118183185D01*
X112124706Y-118262537D01*
X112235020Y-118321502D01*
X112354718Y-118357812D01*
X112479200Y-118370072D01*
X112693450Y-118367000D01*
X112852200Y-118208250D01*
X112852200Y-117309000D01*
X112002950Y-117309000D01*
X111844200Y-117467750D01*
X111841128Y-117732000D01*
X111518700Y-117732000D01*
X111518700Y-116724733D01*
X111873333Y-116370100D01*
X111899170Y-116370100D01*
X111889698Y-116387820D01*
X111853388Y-116507518D01*
X111841128Y-116632000D01*
X111844200Y-116896250D01*
X112002950Y-117055000D01*
X112852200Y-117055000D01*
X112852200Y-117035000D01*
X113106200Y-117035000D01*
X113106200Y-117055000D01*
X113126200Y-117055000D01*
X113126200Y-117309000D01*
X113106200Y-117309000D01*
X113106200Y-118208250D01*
X113264950Y-118367000D01*
X113479200Y-118370072D01*
X113603682Y-118357812D01*
X113723380Y-118321502D01*
X113833694Y-118262537D01*
X113868187Y-118234229D01*
X113901298Y-118343380D01*
X113960263Y-118453694D01*
X114039615Y-118550385D01*
X114136306Y-118629737D01*
X114246620Y-118688702D01*
X114366318Y-118725012D01*
X114490800Y-118737272D01*
X115480800Y-118737272D01*
X115605282Y-118725012D01*
X115724980Y-118688702D01*
X115835294Y-118629737D01*
X115931985Y-118550385D01*
X116011337Y-118453694D01*
X116070302Y-118343380D01*
X116106612Y-118223682D01*
X116118872Y-118099200D01*
X116118872Y-115632495D01*
X116133694Y-115482000D01*
X116118872Y-115331505D01*
X116118872Y-114309200D01*
X116392728Y-114309200D01*
X116395800Y-115918450D01*
X116554550Y-116077200D01*
X117398800Y-116077200D01*
X117398800Y-113832950D01*
X117652800Y-113832950D01*
X117652800Y-116077200D01*
X118497050Y-116077200D01*
X118655800Y-115918450D01*
X118658872Y-114309200D01*
X118646612Y-114184718D01*
X118610302Y-114065020D01*
X118551337Y-113954706D01*
X118471985Y-113858015D01*
X118375294Y-113778663D01*
X118264980Y-113719698D01*
X118145282Y-113683388D01*
X118020800Y-113671128D01*
X117811550Y-113674200D01*
X117652800Y-113832950D01*
X117398800Y-113832950D01*
X117240050Y-113674200D01*
X117030800Y-113671128D01*
X116906318Y-113683388D01*
X116786620Y-113719698D01*
X116676306Y-113778663D01*
X116579615Y-113858015D01*
X116500263Y-113954706D01*
X116441298Y-114065020D01*
X116404988Y-114184718D01*
X116392728Y-114309200D01*
X116118872Y-114309200D01*
X116106612Y-114184718D01*
X116070302Y-114065020D01*
X116011337Y-113954706D01*
X115931985Y-113858015D01*
X115835294Y-113778663D01*
X115724980Y-113719698D01*
X115605282Y-113683388D01*
X115480800Y-113671128D01*
X114490800Y-113671128D01*
X114366318Y-113683388D01*
X114246620Y-113719698D01*
X114136306Y-113778663D01*
X114039615Y-113858015D01*
X113960263Y-113954706D01*
X113901298Y-114065020D01*
X113864988Y-114184718D01*
X113852728Y-114309200D01*
X113852728Y-114417084D01*
X113833694Y-114401463D01*
X113723380Y-114342498D01*
X113603682Y-114306188D01*
X113479200Y-114293928D01*
X112479200Y-114293928D01*
X112354718Y-114306188D01*
X112235020Y-114342498D01*
X112124706Y-114401463D01*
X112028015Y-114480815D01*
X111948663Y-114577506D01*
X111889698Y-114687820D01*
X111880209Y-114719100D01*
X111571950Y-114719100D01*
X111531400Y-114715106D01*
X111490849Y-114719100D01*
X111490847Y-114719100D01*
X111369574Y-114731044D01*
X111213966Y-114778247D01*
X111070557Y-114854901D01*
X110976358Y-114932208D01*
X110976355Y-114932211D01*
X110944859Y-114958059D01*
X110919011Y-114989556D01*
X110138161Y-115770407D01*
X110106660Y-115796259D01*
X110080809Y-115827759D01*
X110003501Y-115921958D01*
X109926847Y-116065367D01*
X109879645Y-116220974D01*
X109863706Y-116382800D01*
X109867701Y-116423360D01*
X109867700Y-117641067D01*
X108954268Y-118554500D01*
X108118307Y-118554500D01*
X108108312Y-118453018D01*
X108072002Y-118333320D01*
X108013037Y-118223006D01*
X107933685Y-118126315D01*
X107836994Y-118046963D01*
X107726680Y-117987998D01*
X107606982Y-117951688D01*
X107482500Y-117939428D01*
X105877500Y-117939428D01*
X105753018Y-117951688D01*
X105633320Y-117987998D01*
X105523006Y-118046963D01*
X105426315Y-118126315D01*
X105346963Y-118223006D01*
X105287998Y-118333320D01*
X105251688Y-118453018D01*
X105239428Y-118577500D01*
X104850000Y-118577500D01*
X104850000Y-101040000D01*
X111682659Y-101040000D01*
X111654615Y-101063015D01*
%TA.AperFunction,Conductor*%
D22*
G36*
X111654615Y-101063015D02*
G01*
X111575263Y-101159706D01*
X111516298Y-101270020D01*
X111479988Y-101389718D01*
X111467728Y-101514200D01*
X111467728Y-109134200D01*
X111479988Y-109258682D01*
X111516298Y-109378380D01*
X111575263Y-109488694D01*
X111654615Y-109585385D01*
X111751306Y-109664737D01*
X111861620Y-109723702D01*
X111981318Y-109760012D01*
X112105800Y-109772272D01*
X122945800Y-109772272D01*
X123070282Y-109760012D01*
X123189980Y-109723702D01*
X123300294Y-109664737D01*
X123396985Y-109585385D01*
X123476337Y-109488694D01*
X123535302Y-109378380D01*
X123571612Y-109258682D01*
X123583872Y-109134200D01*
X123583872Y-102704042D01*
X124045000Y-102704042D01*
X124045000Y-103035958D01*
X124109754Y-103361496D01*
X124236772Y-103668147D01*
X124421175Y-103944125D01*
X124655875Y-104178825D01*
X124931853Y-104363228D01*
X125238504Y-104490246D01*
X125564042Y-104555000D01*
X125895958Y-104555000D01*
X126221496Y-104490246D01*
X126528147Y-104363228D01*
X126804125Y-104178825D01*
X127038825Y-103944125D01*
X127223228Y-103668147D01*
X127350246Y-103361496D01*
X127415000Y-103035958D01*
X127415000Y-102704042D01*
X127350246Y-102378504D01*
X127223228Y-102071853D01*
X127038825Y-101795875D01*
X126804125Y-101561175D01*
X126528147Y-101376772D01*
X126221496Y-101249754D01*
X125895958Y-101185000D01*
X125564042Y-101185000D01*
X125238504Y-101249754D01*
X124931853Y-101376772D01*
X124655875Y-101561175D01*
X124421175Y-101795875D01*
X124236772Y-102071853D01*
X124109754Y-102378504D01*
X124045000Y-102704042D01*
X123583872Y-102704042D01*
X123583872Y-101514200D01*
X123571612Y-101389718D01*
X123535302Y-101270020D01*
X123476337Y-101159706D01*
X123396985Y-101063015D01*
X123368941Y-101040000D01*
X127560001Y-101040000D01*
X127560000Y-133910000D01*
X104850000Y-133910000D01*
X104850000Y-131710842D01*
X105249000Y-131710842D01*
X105249000Y-132042758D01*
X105313754Y-132368296D01*
X105440772Y-132674947D01*
X105625175Y-132950925D01*
X105859875Y-133185625D01*
X106135853Y-133370028D01*
X106442504Y-133497046D01*
X106768042Y-133561800D01*
X107099958Y-133561800D01*
X107425496Y-133497046D01*
X107732147Y-133370028D01*
X108008125Y-133185625D01*
X108242825Y-132950925D01*
X108288545Y-132882500D01*
X110319428Y-132882500D01*
X110331688Y-133006982D01*
X110367998Y-133126680D01*
X110426963Y-133236994D01*
X110506315Y-133333685D01*
X110603006Y-133413037D01*
X110713320Y-133472002D01*
X110833018Y-133508312D01*
X110957500Y-133520572D01*
X111474250Y-133517500D01*
X111633000Y-133358750D01*
X111633000Y-132207000D01*
X110481250Y-132207000D01*
X110322500Y-132365750D01*
X110319428Y-132882500D01*
X108288545Y-132882500D01*
X108427228Y-132674947D01*
X108554246Y-132368296D01*
X108619000Y-132042758D01*
X108619000Y-131710842D01*
X108554246Y-131385304D01*
X108509593Y-131277500D01*
X110319428Y-131277500D01*
X110322500Y-131794250D01*
X110481250Y-131953000D01*
X111633000Y-131953000D01*
X111633000Y-130801250D01*
X111887000Y-130801250D01*
X111887000Y-131953000D01*
X111907000Y-131953000D01*
X111907000Y-132207000D01*
X111887000Y-132207000D01*
X111887000Y-133358750D01*
X112045750Y-133517500D01*
X112562500Y-133520572D01*
X112686982Y-133508312D01*
X112806680Y-133472002D01*
X112916994Y-133413037D01*
X113013685Y-133333685D01*
X113093037Y-133236994D01*
X113152002Y-133126680D01*
X113188312Y-133006982D01*
X113188826Y-133001758D01*
X113383647Y-133196579D01*
X113619089Y-133353896D01*
X113880697Y-133462257D01*
X114158419Y-133517500D01*
X114441581Y-133517500D01*
X114719303Y-133462257D01*
X114980911Y-133353896D01*
X115216353Y-133196579D01*
X115416579Y-132996353D01*
X115570000Y-132766742D01*
X115723421Y-132996353D01*
X115923647Y-133196579D01*
X116159089Y-133353896D01*
X116420697Y-133462257D01*
X116698419Y-133517500D01*
X116981581Y-133517500D01*
X117259303Y-133462257D01*
X117520911Y-133353896D01*
X117756353Y-133196579D01*
X117956579Y-132996353D01*
X118110000Y-132766742D01*
X118263421Y-132996353D01*
X118463647Y-133196579D01*
X118699089Y-133353896D01*
X118960697Y-133462257D01*
X119238419Y-133517500D01*
X119521581Y-133517500D01*
X119799303Y-133462257D01*
X120060911Y-133353896D01*
X120296353Y-133196579D01*
X120496579Y-132996353D01*
X120653896Y-132760911D01*
X120762257Y-132499303D01*
X120817500Y-132221581D01*
X120817500Y-131938419D01*
X120781283Y-131756347D01*
X121217630Y-131320000D01*
X122561928Y-131320000D01*
X122574188Y-131444482D01*
X122610498Y-131564180D01*
X122669463Y-131674494D01*
X122748815Y-131771185D01*
X122845506Y-131850537D01*
X122955820Y-131909502D01*
X123075518Y-131945812D01*
X123200000Y-131958072D01*
X123384250Y-131955000D01*
X123543000Y-131796250D01*
X123543000Y-130937000D01*
X122723750Y-130937000D01*
X122565000Y-131095750D01*
X122561928Y-131320000D01*
X121217630Y-131320000D01*
X121670347Y-130867283D01*
X121699422Y-130843422D01*
X121778584Y-130746963D01*
X121794645Y-130727393D01*
X121865401Y-130595016D01*
X121865402Y-130595015D01*
X121908974Y-130451378D01*
X121920000Y-130339426D01*
X121920000Y-130339423D01*
X121923686Y-130302000D01*
X121923490Y-130300000D01*
X122561928Y-130300000D01*
X122565000Y-130524250D01*
X122723750Y-130683000D01*
X123543000Y-130683000D01*
X123543000Y-129823750D01*
X123384250Y-129665000D01*
X123200000Y-129661928D01*
X123075518Y-129674188D01*
X122955820Y-129710498D01*
X122845506Y-129769463D01*
X122748815Y-129848815D01*
X122669463Y-129945506D01*
X122610498Y-130055820D01*
X122574188Y-130175518D01*
X122561928Y-130300000D01*
X121923490Y-130300000D01*
X121920000Y-130264577D01*
X121920000Y-129051000D01*
X122005264Y-129051000D01*
X122005692Y-129056400D01*
X122042293Y-129176010D01*
X122101525Y-129286180D01*
X122181111Y-129382679D01*
X122277995Y-129461796D01*
X122388452Y-129520493D01*
X122508238Y-129556512D01*
X122632749Y-129568470D01*
X123336050Y-129565400D01*
X123494800Y-129406650D01*
X123494800Y-128778000D01*
X123474800Y-128778000D01*
X123474800Y-128524000D01*
X123494800Y-128524000D01*
X123494800Y-128504000D01*
X123748800Y-128504000D01*
X123748800Y-128524000D01*
X123768800Y-128524000D01*
X123768800Y-128778000D01*
X123748800Y-128778000D01*
X123748800Y-129406650D01*
X123907550Y-129565400D01*
X124488000Y-129567934D01*
X124488000Y-129736059D01*
X124460000Y-129751025D01*
X124384180Y-129710498D01*
X124264482Y-129674188D01*
X124140000Y-129661928D01*
X123955750Y-129665000D01*
X123797000Y-129823750D01*
X123797000Y-130683000D01*
X123817000Y-130683000D01*
X123817000Y-130937000D01*
X123797000Y-130937000D01*
X123797000Y-131796250D01*
X123955750Y-131955000D01*
X124140000Y-131958072D01*
X124264482Y-131945812D01*
X124384180Y-131909502D01*
X124460000Y-131868975D01*
X124535820Y-131909502D01*
X124655518Y-131945812D01*
X124780000Y-131958072D01*
X125720000Y-131958072D01*
X125844482Y-131945812D01*
X125964180Y-131909502D01*
X126074494Y-131850537D01*
X126171185Y-131771185D01*
X126250537Y-131674494D01*
X126309502Y-131564180D01*
X126345812Y-131444482D01*
X126358072Y-131320000D01*
X126358072Y-130300000D01*
X126345812Y-130175518D01*
X126309502Y-130055820D01*
X126250537Y-129945506D01*
X126171185Y-129848815D01*
X126074494Y-129769463D01*
X126012000Y-129736059D01*
X126012000Y-127573422D01*
X126015686Y-127535999D01*
X126009998Y-127478249D01*
X126000974Y-127386622D01*
X125957402Y-127242985D01*
X125886645Y-127110608D01*
X125791422Y-126994578D01*
X125762346Y-126970716D01*
X125662460Y-126870830D01*
X125752378Y-126861974D01*
X125896015Y-126818402D01*
X126028392Y-126747645D01*
X126144422Y-126652422D01*
X126168284Y-126623346D01*
X126496346Y-126295284D01*
X126525422Y-126271422D01*
X126620645Y-126155392D01*
X126691402Y-126023015D01*
X126734974Y-125879378D01*
X126746000Y-125767426D01*
X126746000Y-125767424D01*
X126749686Y-125730001D01*
X126746000Y-125692578D01*
X126746000Y-117131423D01*
X126749686Y-117094000D01*
X126745845Y-117055000D01*
X126734974Y-116944622D01*
X126691402Y-116800985D01*
X126620646Y-116668609D01*
X126620645Y-116668607D01*
X126581986Y-116621502D01*
X126525422Y-116552578D01*
X126496347Y-116528717D01*
X125745284Y-115777654D01*
X125721422Y-115748578D01*
X125605392Y-115653355D01*
X125473015Y-115582598D01*
X125329378Y-115539026D01*
X125217426Y-115528000D01*
X125217423Y-115528000D01*
X125180000Y-115524314D01*
X125142577Y-115528000D01*
X121198872Y-115528000D01*
X121198872Y-114309200D01*
X121186612Y-114184718D01*
X121150302Y-114065020D01*
X121091337Y-113954706D01*
X121011985Y-113858015D01*
X120915294Y-113778663D01*
X120804980Y-113719698D01*
X120685282Y-113683388D01*
X120560800Y-113671128D01*
X119570800Y-113671128D01*
X119446318Y-113683388D01*
X119326620Y-113719698D01*
X119216306Y-113778663D01*
X119119615Y-113858015D01*
X119040263Y-113954706D01*
X118981298Y-114065020D01*
X118944988Y-114184718D01*
X118932728Y-114309200D01*
X118932728Y-118099200D01*
X118944988Y-118223682D01*
X118981298Y-118343380D01*
X119040263Y-118453694D01*
X119074923Y-118495928D01*
X118516677Y-118495928D01*
X118551337Y-118453694D01*
X118610302Y-118343380D01*
X118646612Y-118223682D01*
X118658872Y-118099200D01*
X118655800Y-116489950D01*
X118497050Y-116331200D01*
X117652800Y-116331200D01*
X117652800Y-116351200D01*
X117398800Y-116351200D01*
X117398800Y-116331200D01*
X116554550Y-116331200D01*
X116395800Y-116489950D01*
X116392728Y-118099200D01*
X116404988Y-118223682D01*
X116441298Y-118343380D01*
X116500263Y-118453694D01*
X116537396Y-118498941D01*
X116278200Y-118495928D01*
X116153718Y-118508188D01*
X116034020Y-118544498D01*
X115923706Y-118603463D01*
X115827015Y-118682815D01*
X115747663Y-118779506D01*
X115688698Y-118889820D01*
X115652388Y-119009518D01*
X115640128Y-119134000D01*
X115643200Y-119348250D01*
X115801950Y-119507000D01*
X116701200Y-119507000D01*
X116701200Y-119487000D01*
X116955200Y-119487000D01*
X116955200Y-119507000D01*
X116975200Y-119507000D01*
X116975200Y-119761000D01*
X116955200Y-119761000D01*
X116955200Y-120610250D01*
X117113950Y-120769000D01*
X117378200Y-120772072D01*
X117502682Y-120759812D01*
X117544992Y-120746977D01*
X117133970Y-121158000D01*
X115663415Y-121158000D01*
X115662412Y-121147818D01*
X115626102Y-121028120D01*
X115567137Y-120917806D01*
X115487785Y-120821115D01*
X115391094Y-120741763D01*
X115280780Y-120682798D01*
X115161082Y-120646488D01*
X115036600Y-120634228D01*
X114071400Y-120634228D01*
X113946918Y-120646488D01*
X113827220Y-120682798D01*
X113716906Y-120741763D01*
X113620215Y-120821115D01*
X113540863Y-120917806D01*
X113481898Y-121028120D01*
X113445588Y-121147818D01*
X113433328Y-121272300D01*
X113433328Y-122567700D01*
X113445588Y-122692182D01*
X113481898Y-122811880D01*
X113540863Y-122922194D01*
X113620215Y-123018885D01*
X113716906Y-123098237D01*
X113827220Y-123157202D01*
X113946918Y-123193512D01*
X114071400Y-123205772D01*
X115036600Y-123205772D01*
X115161082Y-123193512D01*
X115280780Y-123157202D01*
X115391094Y-123098237D01*
X115487785Y-123018885D01*
X115567137Y-122922194D01*
X115626102Y-122811880D01*
X115662412Y-122692182D01*
X115663415Y-122682000D01*
X117412177Y-122682000D01*
X117449600Y-122685686D01*
X117487023Y-122682000D01*
X117487026Y-122682000D01*
X117598978Y-122670974D01*
X117742615Y-122627402D01*
X117874992Y-122556645D01*
X117991022Y-122461422D01*
X118014884Y-122432346D01*
X119054153Y-121393078D01*
X119080232Y-121371676D01*
X119054498Y-121419820D01*
X119018188Y-121539518D01*
X119005928Y-121664000D01*
X119005928Y-122204441D01*
X118181849Y-123028521D01*
X118152779Y-123052378D01*
X118128922Y-123081448D01*
X118128921Y-123081449D01*
X118057555Y-123168408D01*
X117986799Y-123300785D01*
X117943227Y-123444422D01*
X117928514Y-123593800D01*
X117932201Y-123631233D01*
X117932201Y-123923528D01*
X117703600Y-123923528D01*
X117579118Y-123935788D01*
X117459420Y-123972098D01*
X117349106Y-124031063D01*
X117252415Y-124110415D01*
X117173063Y-124207106D01*
X117114098Y-124317420D01*
X117077788Y-124437118D01*
X117065528Y-124561600D01*
X117065528Y-125120400D01*
X117077788Y-125244882D01*
X117109372Y-125349000D01*
X115226423Y-125349000D01*
X115189000Y-125345314D01*
X115151577Y-125349000D01*
X115151574Y-125349000D01*
X115039622Y-125360026D01*
X114895985Y-125403598D01*
X114834364Y-125436535D01*
X114763607Y-125474355D01*
X114680904Y-125542228D01*
X114647578Y-125569578D01*
X114623721Y-125598649D01*
X113787649Y-126434721D01*
X113758579Y-126458578D01*
X113734722Y-126487648D01*
X113734721Y-126487649D01*
X113663355Y-126574608D01*
X113592599Y-126706985D01*
X113549027Y-126850622D01*
X113534314Y-127000000D01*
X113538001Y-127037433D01*
X113538000Y-130860286D01*
X113383647Y-130963421D01*
X113188826Y-131158242D01*
X113188312Y-131153018D01*
X113152002Y-131033320D01*
X113093037Y-130923006D01*
X113013685Y-130826315D01*
X112916994Y-130746963D01*
X112806680Y-130687998D01*
X112686982Y-130651688D01*
X112562500Y-130639428D01*
X112045750Y-130642500D01*
X111887000Y-130801250D01*
X111633000Y-130801250D01*
X111474250Y-130642500D01*
X110957500Y-130639428D01*
X110833018Y-130651688D01*
X110713320Y-130687998D01*
X110603006Y-130746963D01*
X110506315Y-130826315D01*
X110426963Y-130923006D01*
X110367998Y-131033320D01*
X110331688Y-131153018D01*
X110319428Y-131277500D01*
X108509593Y-131277500D01*
X108427228Y-131078653D01*
X108242825Y-130802675D01*
X108008125Y-130567975D01*
X107732147Y-130383572D01*
X107425496Y-130256554D01*
X107099958Y-130191800D01*
X106768042Y-130191800D01*
X106442504Y-130256554D01*
X106135853Y-130383572D01*
X105859875Y-130567975D01*
X105625175Y-130802675D01*
X105440772Y-131078653D01*
X105313754Y-131385304D01*
X105249000Y-131710842D01*
X104850000Y-131710842D01*
X104850000Y-127994487D01*
X105865118Y-127994487D01*
X105937004Y-128238712D01*
X106192941Y-128359862D01*
X106467596Y-128428752D01*
X106750413Y-128442738D01*
X107030524Y-128401279D01*
X107297165Y-128305970D01*
X107422996Y-128238712D01*
X107494882Y-127994487D01*
X106680000Y-127179605D01*
X105865118Y-127994487D01*
X104850000Y-127994487D01*
X104850000Y-127070413D01*
X105237262Y-127070413D01*
X105278721Y-127350524D01*
X105374030Y-127617165D01*
X105441288Y-127742996D01*
X105685513Y-127814882D01*
X106500395Y-127000000D01*
X106859605Y-127000000D01*
X107674487Y-127814882D01*
X107918712Y-127742996D01*
X108039862Y-127487059D01*
X108108752Y-127212404D01*
X108122738Y-126929587D01*
X108081279Y-126649476D01*
X107985970Y-126382835D01*
X107918712Y-126257004D01*
X107674487Y-126185118D01*
X106859605Y-127000000D01*
X106500395Y-127000000D01*
X105685513Y-126185118D01*
X105441288Y-126257004D01*
X105320138Y-126512941D01*
X105251248Y-126787596D01*
X105237262Y-127070413D01*
X104850000Y-127070413D01*
X104850000Y-125454487D01*
X105865118Y-125454487D01*
X105937004Y-125698712D01*
X105999091Y-125728102D01*
X105937004Y-125761288D01*
X105865118Y-126005513D01*
X106680000Y-126820395D01*
X107494882Y-126005513D01*
X107422996Y-125761288D01*
X107360909Y-125731898D01*
X107422996Y-125698712D01*
X107494882Y-125454487D01*
X106680000Y-124639605D01*
X105865118Y-125454487D01*
X104850000Y-125454487D01*
X104850000Y-124530413D01*
X105237262Y-124530413D01*
X105278721Y-124810524D01*
X105374030Y-125077165D01*
X105441288Y-125202996D01*
X105685513Y-125274882D01*
X106500395Y-124460000D01*
X106859605Y-124460000D01*
X107674487Y-125274882D01*
X107918712Y-125202996D01*
X108039862Y-124947059D01*
X108108752Y-124672404D01*
X108122738Y-124389587D01*
X108081279Y-124109476D01*
X107985970Y-123842835D01*
X107918712Y-123717004D01*
X107674487Y-123645118D01*
X106859605Y-124460000D01*
X106500395Y-124460000D01*
X105685513Y-123645118D01*
X105441288Y-123717004D01*
X105320138Y-123972941D01*
X105251248Y-124247596D01*
X105237262Y-124530413D01*
X104850000Y-124530413D01*
X104850000Y-118577500D01*
X105239428Y-118577500D01*
X105239428Y-120182500D01*
X105251688Y-120306982D01*
X105287998Y-120426680D01*
X105346963Y-120536994D01*
X105426315Y-120633685D01*
X105523006Y-120713037D01*
X105633320Y-120772002D01*
X105753018Y-120808312D01*
X105758242Y-120808826D01*
X105563421Y-121003647D01*
X105406104Y-121239089D01*
X105297743Y-121500697D01*
X105242500Y-121778419D01*
X105242500Y-122061581D01*
X105297743Y-122339303D01*
X105406104Y-122600911D01*
X105563421Y-122836353D01*
X105763647Y-123036579D01*
X105994272Y-123190678D01*
X105937004Y-123221288D01*
X105865118Y-123465513D01*
X106680000Y-124280395D01*
X107494882Y-123465513D01*
X107422996Y-123221288D01*
X107362660Y-123192727D01*
X107596353Y-123036579D01*
X107796579Y-122836353D01*
X107899714Y-122682000D01*
X108396370Y-122682000D01*
X108693000Y-122978631D01*
X108693000Y-123037939D01*
X108732774Y-123237898D01*
X108810795Y-123426256D01*
X108924063Y-123595774D01*
X109068226Y-123739937D01*
X109237744Y-123853205D01*
X109426102Y-123931226D01*
X109626061Y-123971000D01*
X109829939Y-123971000D01*
X110029898Y-123931226D01*
X110218256Y-123853205D01*
X110387774Y-123739937D01*
X110531937Y-123595774D01*
X110645205Y-123426256D01*
X110723226Y-123237898D01*
X110743116Y-123137904D01*
X110779220Y-123157202D01*
X110898918Y-123193512D01*
X111023400Y-123205772D01*
X111220250Y-123202700D01*
X111379000Y-123043950D01*
X111379000Y-122047000D01*
X111633000Y-122047000D01*
X111633000Y-123043950D01*
X111791750Y-123202700D01*
X111988600Y-123205772D01*
X112113082Y-123193512D01*
X112232780Y-123157202D01*
X112343094Y-123098237D01*
X112439785Y-123018885D01*
X112519137Y-122922194D01*
X112578102Y-122811880D01*
X112614412Y-122692182D01*
X112626672Y-122567700D01*
X112623600Y-122205750D01*
X112464850Y-122047000D01*
X111633000Y-122047000D01*
X111379000Y-122047000D01*
X110547150Y-122047000D01*
X110424931Y-122169220D01*
X110387774Y-122132063D01*
X110218256Y-122018795D01*
X110029898Y-121940774D01*
X109829939Y-121901000D01*
X109770631Y-121901000D01*
X109277284Y-121407654D01*
X109253422Y-121378578D01*
X109137392Y-121283355D01*
X109116710Y-121272300D01*
X110385328Y-121272300D01*
X110388400Y-121634250D01*
X110547150Y-121793000D01*
X111379000Y-121793000D01*
X111379000Y-120796050D01*
X111633000Y-120796050D01*
X111633000Y-121793000D01*
X112464850Y-121793000D01*
X112623600Y-121634250D01*
X112626672Y-121272300D01*
X112614412Y-121147818D01*
X112578102Y-121028120D01*
X112519137Y-120917806D01*
X112439785Y-120821115D01*
X112343094Y-120741763D01*
X112232780Y-120682798D01*
X112113082Y-120646488D01*
X111988600Y-120634228D01*
X111791750Y-120637300D01*
X111633000Y-120796050D01*
X111379000Y-120796050D01*
X111220250Y-120637300D01*
X111023400Y-120634228D01*
X110898918Y-120646488D01*
X110779220Y-120682798D01*
X110668906Y-120741763D01*
X110572215Y-120821115D01*
X110492863Y-120917806D01*
X110433898Y-121028120D01*
X110397588Y-121147818D01*
X110385328Y-121272300D01*
X109116710Y-121272300D01*
X109005015Y-121212598D01*
X108861378Y-121169026D01*
X108749426Y-121158000D01*
X108749423Y-121158000D01*
X108712000Y-121154314D01*
X108674577Y-121158000D01*
X107899714Y-121158000D01*
X107796579Y-121003647D01*
X107601758Y-120808826D01*
X107606982Y-120808312D01*
X107726680Y-120772002D01*
X107836994Y-120713037D01*
X107933685Y-120633685D01*
X108013037Y-120536994D01*
X108072002Y-120426680D01*
X108108312Y-120306982D01*
X108118307Y-120205500D01*
X109255650Y-120205500D01*
X109296200Y-120209494D01*
X109336750Y-120205500D01*
X109336753Y-120205500D01*
X109458026Y-120193556D01*
X109613634Y-120146353D01*
X109636744Y-120134000D01*
X115640128Y-120134000D01*
X115652388Y-120258482D01*
X115688698Y-120378180D01*
X115747663Y-120488494D01*
X115827015Y-120585185D01*
X115923706Y-120664537D01*
X116034020Y-120723502D01*
X116153718Y-120759812D01*
X116278200Y-120772072D01*
X116542450Y-120769000D01*
X116701200Y-120610250D01*
X116701200Y-119761000D01*
X115801950Y-119761000D01*
X115643200Y-119919750D01*
X115640128Y-120134000D01*
X109636744Y-120134000D01*
X109757042Y-120069699D01*
X109882741Y-119966541D01*
X109908598Y-119935034D01*
X111248241Y-118595392D01*
X111279741Y-118569541D01*
X111382899Y-118443842D01*
X111459553Y-118300434D01*
X111506756Y-118144826D01*
X111518700Y-118023553D01*
X111518700Y-118023544D01*
X111522693Y-117983001D01*
X111518700Y-117942458D01*
X111518700Y-117732000D01*
X111841128Y-117732000D01*
X111853388Y-117856482D01*
X111889698Y-117976180D01*
X111948663Y-118086494D01*
X112028015Y-118183185D01*
X112124706Y-118262537D01*
X112235020Y-118321502D01*
X112354718Y-118357812D01*
X112479200Y-118370072D01*
X112693450Y-118367000D01*
X112852200Y-118208250D01*
X112852200Y-117309000D01*
X112002950Y-117309000D01*
X111844200Y-117467750D01*
X111841128Y-117732000D01*
X111518700Y-117732000D01*
X111518700Y-116724733D01*
X111873333Y-116370100D01*
X111899170Y-116370100D01*
X111889698Y-116387820D01*
X111853388Y-116507518D01*
X111841128Y-116632000D01*
X111844200Y-116896250D01*
X112002950Y-117055000D01*
X112852200Y-117055000D01*
X112852200Y-117035000D01*
X113106200Y-117035000D01*
X113106200Y-117055000D01*
X113126200Y-117055000D01*
X113126200Y-117309000D01*
X113106200Y-117309000D01*
X113106200Y-118208250D01*
X113264950Y-118367000D01*
X113479200Y-118370072D01*
X113603682Y-118357812D01*
X113723380Y-118321502D01*
X113833694Y-118262537D01*
X113868187Y-118234229D01*
X113901298Y-118343380D01*
X113960263Y-118453694D01*
X114039615Y-118550385D01*
X114136306Y-118629737D01*
X114246620Y-118688702D01*
X114366318Y-118725012D01*
X114490800Y-118737272D01*
X115480800Y-118737272D01*
X115605282Y-118725012D01*
X115724980Y-118688702D01*
X115835294Y-118629737D01*
X115931985Y-118550385D01*
X116011337Y-118453694D01*
X116070302Y-118343380D01*
X116106612Y-118223682D01*
X116118872Y-118099200D01*
X116118872Y-115632495D01*
X116133694Y-115482000D01*
X116118872Y-115331505D01*
X116118872Y-114309200D01*
X116392728Y-114309200D01*
X116395800Y-115918450D01*
X116554550Y-116077200D01*
X117398800Y-116077200D01*
X117398800Y-113832950D01*
X117652800Y-113832950D01*
X117652800Y-116077200D01*
X118497050Y-116077200D01*
X118655800Y-115918450D01*
X118658872Y-114309200D01*
X118646612Y-114184718D01*
X118610302Y-114065020D01*
X118551337Y-113954706D01*
X118471985Y-113858015D01*
X118375294Y-113778663D01*
X118264980Y-113719698D01*
X118145282Y-113683388D01*
X118020800Y-113671128D01*
X117811550Y-113674200D01*
X117652800Y-113832950D01*
X117398800Y-113832950D01*
X117240050Y-113674200D01*
X117030800Y-113671128D01*
X116906318Y-113683388D01*
X116786620Y-113719698D01*
X116676306Y-113778663D01*
X116579615Y-113858015D01*
X116500263Y-113954706D01*
X116441298Y-114065020D01*
X116404988Y-114184718D01*
X116392728Y-114309200D01*
X116118872Y-114309200D01*
X116106612Y-114184718D01*
X116070302Y-114065020D01*
X116011337Y-113954706D01*
X115931985Y-113858015D01*
X115835294Y-113778663D01*
X115724980Y-113719698D01*
X115605282Y-113683388D01*
X115480800Y-113671128D01*
X114490800Y-113671128D01*
X114366318Y-113683388D01*
X114246620Y-113719698D01*
X114136306Y-113778663D01*
X114039615Y-113858015D01*
X113960263Y-113954706D01*
X113901298Y-114065020D01*
X113864988Y-114184718D01*
X113852728Y-114309200D01*
X113852728Y-114417084D01*
X113833694Y-114401463D01*
X113723380Y-114342498D01*
X113603682Y-114306188D01*
X113479200Y-114293928D01*
X112479200Y-114293928D01*
X112354718Y-114306188D01*
X112235020Y-114342498D01*
X112124706Y-114401463D01*
X112028015Y-114480815D01*
X111948663Y-114577506D01*
X111889698Y-114687820D01*
X111880209Y-114719100D01*
X111571950Y-114719100D01*
X111531400Y-114715106D01*
X111490849Y-114719100D01*
X111490847Y-114719100D01*
X111369574Y-114731044D01*
X111213966Y-114778247D01*
X111070557Y-114854901D01*
X110976358Y-114932208D01*
X110976355Y-114932211D01*
X110944859Y-114958059D01*
X110919011Y-114989556D01*
X110138161Y-115770407D01*
X110106660Y-115796259D01*
X110080809Y-115827759D01*
X110003501Y-115921958D01*
X109926847Y-116065367D01*
X109879645Y-116220974D01*
X109863706Y-116382800D01*
X109867701Y-116423360D01*
X109867700Y-117641067D01*
X108954268Y-118554500D01*
X108118307Y-118554500D01*
X108108312Y-118453018D01*
X108072002Y-118333320D01*
X108013037Y-118223006D01*
X107933685Y-118126315D01*
X107836994Y-118046963D01*
X107726680Y-117987998D01*
X107606982Y-117951688D01*
X107482500Y-117939428D01*
X105877500Y-117939428D01*
X105753018Y-117951688D01*
X105633320Y-117987998D01*
X105523006Y-118046963D01*
X105426315Y-118126315D01*
X105346963Y-118223006D01*
X105287998Y-118333320D01*
X105251688Y-118453018D01*
X105239428Y-118577500D01*
X104850000Y-118577500D01*
X104850000Y-101040000D01*
X111682659Y-101040000D01*
X111654615Y-101063015D01*
G37*
%TD.AperFunction*%
D21*
X120979820Y-123273502D02*
X121099518Y-123309812D01*
X121224000Y-123322072D01*
X121764442Y-123322072D01*
X122408079Y-123965710D01*
X122387020Y-123972098D01*
X122276706Y-124031063D01*
X122180015Y-124110415D01*
X122100663Y-124207106D01*
X122041698Y-124317420D01*
X122005388Y-124437118D01*
X121993128Y-124561600D01*
X121993128Y-125120400D01*
X122005388Y-125244882D01*
X122036972Y-125349000D01*
X121830423Y-125349000D01*
X121793000Y-125345314D01*
X121755577Y-125349000D01*
X121755574Y-125349000D01*
X121643622Y-125360026D01*
X121499985Y-125403598D01*
X121438364Y-125436535D01*
X121367607Y-125474355D01*
X121325219Y-125509143D01*
X121251578Y-125569578D01*
X121227716Y-125598654D01*
X120645649Y-126180721D01*
X120616579Y-126204578D01*
X120592722Y-126233648D01*
X120592721Y-126233649D01*
X120521355Y-126320608D01*
X120450599Y-126452985D01*
X120407027Y-126596622D01*
X120392314Y-126746000D01*
X120396001Y-126783433D01*
X120396000Y-129986370D01*
X119703653Y-130678717D01*
X119521581Y-130642500D01*
X119238419Y-130642500D01*
X118960697Y-130697743D01*
X118699089Y-130806104D01*
X118463647Y-130963421D01*
X118263421Y-131163647D01*
X118110000Y-131393258D01*
X117956579Y-131163647D01*
X117756353Y-130963421D01*
X117602000Y-130860286D01*
X117602000Y-129558564D01*
X117705149Y-129568470D01*
X118408450Y-129565400D01*
X118567200Y-129406650D01*
X118567200Y-128778000D01*
X118821200Y-128778000D01*
X118821200Y-129406650D01*
X118979950Y-129565400D01*
X119683251Y-129568470D01*
X119807762Y-129556512D01*
X119927548Y-129520493D01*
X120038005Y-129461796D01*
X120134889Y-129382679D01*
X120214475Y-129286180D01*
X120273707Y-129176010D01*
X120310308Y-129056400D01*
X120319800Y-128936750D01*
X120161050Y-128778000D01*
X118821200Y-128778000D01*
X118567200Y-128778000D01*
X118547200Y-128778000D01*
X118547200Y-128524000D01*
X118567200Y-128524000D01*
X118567200Y-128504000D01*
X118821200Y-128504000D01*
X118821200Y-128524000D01*
X120161050Y-128524000D01*
X120319800Y-128365250D01*
X120310308Y-128245600D01*
X120273707Y-128125990D01*
X120214515Y-128015895D01*
X120215337Y-128014894D01*
X120274302Y-127904580D01*
X120310612Y-127784882D01*
X120322872Y-127660400D01*
X120322872Y-127101600D01*
X120310612Y-126977118D01*
X120274302Y-126857420D01*
X120215337Y-126747106D01*
X120214429Y-126746000D01*
X120215337Y-126744894D01*
X120274302Y-126634580D01*
X120310612Y-126514882D01*
X120322872Y-126390400D01*
X120322872Y-125831600D01*
X120310612Y-125707118D01*
X120274302Y-125587420D01*
X120215337Y-125477106D01*
X120214429Y-125476000D01*
X120215337Y-125474894D01*
X120274302Y-125364580D01*
X120310612Y-125244882D01*
X120322872Y-125120400D01*
X120322872Y-124561600D01*
X120310612Y-124437118D01*
X120274302Y-124317420D01*
X120215337Y-124207106D01*
X120135985Y-124110415D01*
X120039294Y-124031063D01*
X119928980Y-123972098D01*
X119809282Y-123935788D01*
X119684800Y-123923528D01*
X119456200Y-123923528D01*
X119456200Y-123909430D01*
X120043559Y-123322072D01*
X120584000Y-123322072D01*
X120708482Y-123309812D01*
X120828180Y-123273502D01*
X120904000Y-123232975D01*
X120979820Y-123273502D01*
%TA.AperFunction,Conductor*%
D22*
G36*
X120979820Y-123273502D02*
G01*
X121099518Y-123309812D01*
X121224000Y-123322072D01*
X121764442Y-123322072D01*
X122408079Y-123965710D01*
X122387020Y-123972098D01*
X122276706Y-124031063D01*
X122180015Y-124110415D01*
X122100663Y-124207106D01*
X122041698Y-124317420D01*
X122005388Y-124437118D01*
X121993128Y-124561600D01*
X121993128Y-125120400D01*
X122005388Y-125244882D01*
X122036972Y-125349000D01*
X121830423Y-125349000D01*
X121793000Y-125345314D01*
X121755577Y-125349000D01*
X121755574Y-125349000D01*
X121643622Y-125360026D01*
X121499985Y-125403598D01*
X121438364Y-125436535D01*
X121367607Y-125474355D01*
X121325219Y-125509143D01*
X121251578Y-125569578D01*
X121227716Y-125598654D01*
X120645649Y-126180721D01*
X120616579Y-126204578D01*
X120592722Y-126233648D01*
X120592721Y-126233649D01*
X120521355Y-126320608D01*
X120450599Y-126452985D01*
X120407027Y-126596622D01*
X120392314Y-126746000D01*
X120396001Y-126783433D01*
X120396000Y-129986370D01*
X119703653Y-130678717D01*
X119521581Y-130642500D01*
X119238419Y-130642500D01*
X118960697Y-130697743D01*
X118699089Y-130806104D01*
X118463647Y-130963421D01*
X118263421Y-131163647D01*
X118110000Y-131393258D01*
X117956579Y-131163647D01*
X117756353Y-130963421D01*
X117602000Y-130860286D01*
X117602000Y-129558564D01*
X117705149Y-129568470D01*
X118408450Y-129565400D01*
X118567200Y-129406650D01*
X118567200Y-128778000D01*
X118821200Y-128778000D01*
X118821200Y-129406650D01*
X118979950Y-129565400D01*
X119683251Y-129568470D01*
X119807762Y-129556512D01*
X119927548Y-129520493D01*
X120038005Y-129461796D01*
X120134889Y-129382679D01*
X120214475Y-129286180D01*
X120273707Y-129176010D01*
X120310308Y-129056400D01*
X120319800Y-128936750D01*
X120161050Y-128778000D01*
X118821200Y-128778000D01*
X118567200Y-128778000D01*
X118547200Y-128778000D01*
X118547200Y-128524000D01*
X118567200Y-128524000D01*
X118567200Y-128504000D01*
X118821200Y-128504000D01*
X118821200Y-128524000D01*
X120161050Y-128524000D01*
X120319800Y-128365250D01*
X120310308Y-128245600D01*
X120273707Y-128125990D01*
X120214515Y-128015895D01*
X120215337Y-128014894D01*
X120274302Y-127904580D01*
X120310612Y-127784882D01*
X120322872Y-127660400D01*
X120322872Y-127101600D01*
X120310612Y-126977118D01*
X120274302Y-126857420D01*
X120215337Y-126747106D01*
X120214429Y-126746000D01*
X120215337Y-126744894D01*
X120274302Y-126634580D01*
X120310612Y-126514882D01*
X120322872Y-126390400D01*
X120322872Y-125831600D01*
X120310612Y-125707118D01*
X120274302Y-125587420D01*
X120215337Y-125477106D01*
X120214429Y-125476000D01*
X120215337Y-125474894D01*
X120274302Y-125364580D01*
X120310612Y-125244882D01*
X120322872Y-125120400D01*
X120322872Y-124561600D01*
X120310612Y-124437118D01*
X120274302Y-124317420D01*
X120215337Y-124207106D01*
X120135985Y-124110415D01*
X120039294Y-124031063D01*
X119928980Y-123972098D01*
X119809282Y-123935788D01*
X119684800Y-123923528D01*
X119456200Y-123923528D01*
X119456200Y-123909430D01*
X120043559Y-123322072D01*
X120584000Y-123322072D01*
X120708482Y-123309812D01*
X120828180Y-123273502D01*
X120904000Y-123232975D01*
X120979820Y-123273502D01*
G37*
%TD.AperFunction*%
%TD*%
M02*
