%TF.GenerationSoftware,KiCad,Pcbnew,5.1.10*%
%TF.CreationDate,2021-09-22T17:39:45-07:00*%
%TF.ProjectId,Instrumentation-Amplifier,496e7374-7275-46d6-956e-746174696f6e,2.0*%
%TF.SameCoordinates,Original*%
%TF.FileFunction,Paste,Top*%
%TF.FilePolarity,Positive*%
%FSLAX46Y46*%
G04 Gerber Fmt 4.6, Leading zero omitted, Abs format (unit mm)*
G04 Created by KiCad (PCBNEW 5.1.10) date 2021-09-22 17:39:45*
%MOMM*%
%LPD*%
G01*
G04 APERTURE LIST*
%ADD10C,0.010000*%
%ADD11R,1.000000X1.100000*%
%ADD12R,1.100000X1.000000*%
%ADD13R,0.965200X1.295400*%
%ADD14R,0.940000X1.020000*%
%ADD15R,0.990000X3.790000*%
%ADD16R,1.981200X0.558800*%
G04 APERTURE END LIST*
D10*
%TO.C,U1*%
G36*
X121395800Y-108589200D02*
G01*
X121395800Y-107139200D01*
X122655800Y-107139200D01*
X122655800Y-108589200D01*
X121395800Y-108589200D01*
G37*
X121395800Y-108589200D02*
X121395800Y-107139200D01*
X122655800Y-107139200D01*
X122655800Y-108589200D01*
X121395800Y-108589200D01*
G36*
X119595800Y-108589200D02*
G01*
X119595800Y-107139200D01*
X120855800Y-107139200D01*
X120855800Y-108589200D01*
X119595800Y-108589200D01*
G37*
X119595800Y-108589200D02*
X119595800Y-107139200D01*
X120855800Y-107139200D01*
X120855800Y-108589200D01*
X119595800Y-108589200D01*
G36*
X117795800Y-108589200D02*
G01*
X117795800Y-107139200D01*
X119055800Y-107139200D01*
X119055800Y-108589200D01*
X117795800Y-108589200D01*
G37*
X117795800Y-108589200D02*
X117795800Y-107139200D01*
X119055800Y-107139200D01*
X119055800Y-108589200D01*
X117795800Y-108589200D01*
G36*
X112395800Y-108589200D02*
G01*
X112395800Y-107139200D01*
X113655800Y-107139200D01*
X113655800Y-108589200D01*
X112395800Y-108589200D01*
G37*
X112395800Y-108589200D02*
X112395800Y-107139200D01*
X113655800Y-107139200D01*
X113655800Y-108589200D01*
X112395800Y-108589200D01*
G36*
X114195800Y-108589200D02*
G01*
X114195800Y-107139200D01*
X115455800Y-107139200D01*
X115455800Y-108589200D01*
X114195800Y-108589200D01*
G37*
X114195800Y-108589200D02*
X114195800Y-107139200D01*
X115455800Y-107139200D01*
X115455800Y-108589200D01*
X114195800Y-108589200D01*
G36*
X115995800Y-108589200D02*
G01*
X115995800Y-107139200D01*
X117255800Y-107139200D01*
X117255800Y-108589200D01*
X115995800Y-108589200D01*
G37*
X115995800Y-108589200D02*
X115995800Y-107139200D01*
X117255800Y-107139200D01*
X117255800Y-108589200D01*
X115995800Y-108589200D01*
G36*
X121395800Y-103509200D02*
G01*
X121395800Y-102059200D01*
X122655800Y-102059200D01*
X122655800Y-103509200D01*
X121395800Y-103509200D01*
G37*
X121395800Y-103509200D02*
X121395800Y-102059200D01*
X122655800Y-102059200D01*
X122655800Y-103509200D01*
X121395800Y-103509200D01*
G36*
X119595800Y-103509200D02*
G01*
X119595800Y-102059200D01*
X120855800Y-102059200D01*
X120855800Y-103509200D01*
X119595800Y-103509200D01*
G37*
X119595800Y-103509200D02*
X119595800Y-102059200D01*
X120855800Y-102059200D01*
X120855800Y-103509200D01*
X119595800Y-103509200D01*
G36*
X117795800Y-103509200D02*
G01*
X117795800Y-102059200D01*
X119055800Y-102059200D01*
X119055800Y-103509200D01*
X117795800Y-103509200D01*
G37*
X117795800Y-103509200D02*
X117795800Y-102059200D01*
X119055800Y-102059200D01*
X119055800Y-103509200D01*
X117795800Y-103509200D01*
G36*
X112395800Y-103509200D02*
G01*
X112395800Y-102059200D01*
X113655800Y-102059200D01*
X113655800Y-103509200D01*
X112395800Y-103509200D01*
G37*
X112395800Y-103509200D02*
X112395800Y-102059200D01*
X113655800Y-102059200D01*
X113655800Y-103509200D01*
X112395800Y-103509200D01*
G36*
X114195800Y-103509200D02*
G01*
X114195800Y-102059200D01*
X115455800Y-102059200D01*
X115455800Y-103509200D01*
X114195800Y-103509200D01*
G37*
X114195800Y-103509200D02*
X114195800Y-102059200D01*
X115455800Y-102059200D01*
X115455800Y-103509200D01*
X114195800Y-103509200D01*
G36*
X115995800Y-103509200D02*
G01*
X115995800Y-102059200D01*
X117255800Y-102059200D01*
X117255800Y-103509200D01*
X115995800Y-103509200D01*
G37*
X115995800Y-103509200D02*
X115995800Y-102059200D01*
X117255800Y-102059200D01*
X117255800Y-103509200D01*
X115995800Y-103509200D01*
G36*
X121395800Y-106049200D02*
G01*
X121395800Y-104599200D01*
X122655800Y-104599200D01*
X122655800Y-106049200D01*
X121395800Y-106049200D01*
G37*
X121395800Y-106049200D02*
X121395800Y-104599200D01*
X122655800Y-104599200D01*
X122655800Y-106049200D01*
X121395800Y-106049200D01*
G36*
X119595800Y-106049200D02*
G01*
X119595800Y-104599200D01*
X120855800Y-104599200D01*
X120855800Y-106049200D01*
X119595800Y-106049200D01*
G37*
X119595800Y-106049200D02*
X119595800Y-104599200D01*
X120855800Y-104599200D01*
X120855800Y-106049200D01*
X119595800Y-106049200D01*
G36*
X117795800Y-106049200D02*
G01*
X117795800Y-104599200D01*
X119055800Y-104599200D01*
X119055800Y-106049200D01*
X117795800Y-106049200D01*
G37*
X117795800Y-106049200D02*
X117795800Y-104599200D01*
X119055800Y-104599200D01*
X119055800Y-106049200D01*
X117795800Y-106049200D01*
G36*
X112395800Y-106049200D02*
G01*
X112395800Y-104599200D01*
X113655800Y-104599200D01*
X113655800Y-106049200D01*
X112395800Y-106049200D01*
G37*
X112395800Y-106049200D02*
X112395800Y-104599200D01*
X113655800Y-104599200D01*
X113655800Y-106049200D01*
X112395800Y-106049200D01*
G36*
X114195800Y-106049200D02*
G01*
X114195800Y-104599200D01*
X115455800Y-104599200D01*
X115455800Y-106049200D01*
X114195800Y-106049200D01*
G37*
X114195800Y-106049200D02*
X114195800Y-104599200D01*
X115455800Y-104599200D01*
X115455800Y-106049200D01*
X114195800Y-106049200D01*
G36*
X115995800Y-106049200D02*
G01*
X115995800Y-104599200D01*
X117255800Y-104599200D01*
X117255800Y-106049200D01*
X115995800Y-106049200D01*
G37*
X115995800Y-106049200D02*
X115995800Y-104599200D01*
X117255800Y-104599200D01*
X117255800Y-106049200D01*
X115995800Y-106049200D01*
%TD*%
D11*
%TO.C,C1*%
X112979200Y-117182000D03*
X112979200Y-115482000D03*
%TD*%
D12*
%TO.C,C2*%
X116828200Y-119634000D03*
X118528200Y-119634000D03*
%TD*%
D13*
%TO.C,D1*%
X111506000Y-121920000D03*
X114554000Y-121920000D03*
%TD*%
D14*
%TO.C,R1*%
X120114000Y-122174000D03*
X121694000Y-122174000D03*
%TD*%
%TO.C,R2*%
X125250000Y-130810000D03*
X123670000Y-130810000D03*
%TD*%
D15*
%TO.C,U1*%
X114985800Y-116204200D03*
X117525800Y-116204200D03*
X120065800Y-116204200D03*
%TD*%
D16*
%TO.C,U2*%
X118694200Y-124841000D03*
X118694200Y-126111000D03*
X118694200Y-127381000D03*
X118694200Y-128651000D03*
X123621800Y-128651000D03*
X123621800Y-127381000D03*
X123621800Y-126111000D03*
X123621800Y-124841000D03*
%TD*%
M02*
