%TF.GenerationSoftware,KiCad,Pcbnew,5.1.10*%
%TF.CreationDate,2021-09-22T17:39:45-07:00*%
%TF.ProjectId,Instrumentation-Amplifier,496e7374-7275-46d6-956e-746174696f6e,2.0*%
%TF.SameCoordinates,Original*%
%TF.FileFunction,Copper,L2,Bot*%
%TF.FilePolarity,Positive*%
%FSLAX46Y46*%
G04 Gerber Fmt 4.6, Leading zero omitted, Abs format (unit mm)*
G04 Created by KiCad (PCBNEW 5.1.10) date 2021-09-22 17:39:45*
%MOMM*%
%LPD*%
G01*
G04 APERTURE LIST*
%TA.AperFunction,ComponentPad*%
%ADD10R,1.605000X1.605000*%
%TD*%
%TA.AperFunction,ComponentPad*%
%ADD11C,1.605000*%
%TD*%
%TA.AperFunction,ViaPad*%
%ADD12C,0.800000*%
%TD*%
%TA.AperFunction,Conductor*%
%ADD13C,0.381000*%
%TD*%
%TA.AperFunction,Conductor*%
%ADD14C,0.254000*%
%TD*%
%TA.AperFunction,Conductor*%
%ADD15C,0.100000*%
%TD*%
G04 APERTURE END LIST*
D10*
%TO.P,J1,1*%
%TO.N,/+Vs*%
X106680000Y-119380000D03*
D11*
%TO.P,J1,2*%
%TO.N,/Vout*%
X106680000Y-121920000D03*
%TO.P,J1,3*%
%TO.N,Earth*%
X106680000Y-124460000D03*
%TO.P,J1,4*%
X106680000Y-127000000D03*
%TD*%
D10*
%TO.P,J2,1*%
%TO.N,Earth*%
X111760000Y-132080000D03*
D11*
%TO.P,J2,2*%
%TO.N,Net-(J2-Pad2)*%
X114300000Y-132080000D03*
%TO.P,J2,3*%
%TO.N,Net-(J2-Pad3)*%
X116840000Y-132080000D03*
%TO.P,J2,4*%
%TO.N,~*%
X119380000Y-132080000D03*
%TD*%
D12*
%TO.N,Earth*%
X118618000Y-130048000D03*
%TO.N,/Vout*%
X109728000Y-122936000D03*
X121920000Y-128016000D03*
%TD*%
D13*
%TO.N,Earth*%
X118618000Y-130048000D02*
X112268000Y-130048000D01*
X111760000Y-130556000D02*
X111760000Y-132080000D01*
X112268000Y-130048000D02*
X111760000Y-130556000D01*
D14*
%TO.N,/Vout*%
X114808000Y-128016000D02*
X121920000Y-128016000D01*
X109728000Y-122936000D02*
X114808000Y-128016000D01*
%TD*%
%TO.N,Earth*%
X127560000Y-133910000D02*
X104850000Y-133910000D01*
X104850000Y-131710842D01*
X105249000Y-131710842D01*
X105249000Y-132042758D01*
X105313754Y-132368296D01*
X105440772Y-132674947D01*
X105625175Y-132950925D01*
X105859875Y-133185625D01*
X106135853Y-133370028D01*
X106442504Y-133497046D01*
X106768042Y-133561800D01*
X107099958Y-133561800D01*
X107425496Y-133497046D01*
X107732147Y-133370028D01*
X108008125Y-133185625D01*
X108242825Y-132950925D01*
X108288545Y-132882500D01*
X110319428Y-132882500D01*
X110331688Y-133006982D01*
X110367998Y-133126680D01*
X110426963Y-133236994D01*
X110506315Y-133333685D01*
X110603006Y-133413037D01*
X110713320Y-133472002D01*
X110833018Y-133508312D01*
X110957500Y-133520572D01*
X111474250Y-133517500D01*
X111633000Y-133358750D01*
X111633000Y-132207000D01*
X110481250Y-132207000D01*
X110322500Y-132365750D01*
X110319428Y-132882500D01*
X108288545Y-132882500D01*
X108427228Y-132674947D01*
X108554246Y-132368296D01*
X108619000Y-132042758D01*
X108619000Y-131710842D01*
X108554246Y-131385304D01*
X108509593Y-131277500D01*
X110319428Y-131277500D01*
X110322500Y-131794250D01*
X110481250Y-131953000D01*
X111633000Y-131953000D01*
X111633000Y-130801250D01*
X111887000Y-130801250D01*
X111887000Y-131953000D01*
X111907000Y-131953000D01*
X111907000Y-132207000D01*
X111887000Y-132207000D01*
X111887000Y-133358750D01*
X112045750Y-133517500D01*
X112562500Y-133520572D01*
X112686982Y-133508312D01*
X112806680Y-133472002D01*
X112916994Y-133413037D01*
X113013685Y-133333685D01*
X113093037Y-133236994D01*
X113152002Y-133126680D01*
X113188312Y-133006982D01*
X113188826Y-133001758D01*
X113383647Y-133196579D01*
X113619089Y-133353896D01*
X113880697Y-133462257D01*
X114158419Y-133517500D01*
X114441581Y-133517500D01*
X114719303Y-133462257D01*
X114980911Y-133353896D01*
X115216353Y-133196579D01*
X115416579Y-132996353D01*
X115570000Y-132766742D01*
X115723421Y-132996353D01*
X115923647Y-133196579D01*
X116159089Y-133353896D01*
X116420697Y-133462257D01*
X116698419Y-133517500D01*
X116981581Y-133517500D01*
X117259303Y-133462257D01*
X117520911Y-133353896D01*
X117756353Y-133196579D01*
X117956579Y-132996353D01*
X118110000Y-132766742D01*
X118263421Y-132996353D01*
X118463647Y-133196579D01*
X118699089Y-133353896D01*
X118960697Y-133462257D01*
X119238419Y-133517500D01*
X119521581Y-133517500D01*
X119799303Y-133462257D01*
X120060911Y-133353896D01*
X120296353Y-133196579D01*
X120496579Y-132996353D01*
X120653896Y-132760911D01*
X120762257Y-132499303D01*
X120817500Y-132221581D01*
X120817500Y-131938419D01*
X120762257Y-131660697D01*
X120653896Y-131399089D01*
X120496579Y-131163647D01*
X120296353Y-130963421D01*
X120060911Y-130806104D01*
X119799303Y-130697743D01*
X119521581Y-130642500D01*
X119238419Y-130642500D01*
X118960697Y-130697743D01*
X118699089Y-130806104D01*
X118463647Y-130963421D01*
X118263421Y-131163647D01*
X118110000Y-131393258D01*
X117956579Y-131163647D01*
X117756353Y-130963421D01*
X117520911Y-130806104D01*
X117259303Y-130697743D01*
X116981581Y-130642500D01*
X116698419Y-130642500D01*
X116420697Y-130697743D01*
X116159089Y-130806104D01*
X115923647Y-130963421D01*
X115723421Y-131163647D01*
X115570000Y-131393258D01*
X115416579Y-131163647D01*
X115216353Y-130963421D01*
X114980911Y-130806104D01*
X114719303Y-130697743D01*
X114441581Y-130642500D01*
X114158419Y-130642500D01*
X113880697Y-130697743D01*
X113619089Y-130806104D01*
X113383647Y-130963421D01*
X113188826Y-131158242D01*
X113188312Y-131153018D01*
X113152002Y-131033320D01*
X113093037Y-130923006D01*
X113013685Y-130826315D01*
X112916994Y-130746963D01*
X112806680Y-130687998D01*
X112686982Y-130651688D01*
X112562500Y-130639428D01*
X112045750Y-130642500D01*
X111887000Y-130801250D01*
X111633000Y-130801250D01*
X111474250Y-130642500D01*
X110957500Y-130639428D01*
X110833018Y-130651688D01*
X110713320Y-130687998D01*
X110603006Y-130746963D01*
X110506315Y-130826315D01*
X110426963Y-130923006D01*
X110367998Y-131033320D01*
X110331688Y-131153018D01*
X110319428Y-131277500D01*
X108509593Y-131277500D01*
X108427228Y-131078653D01*
X108242825Y-130802675D01*
X108008125Y-130567975D01*
X107732147Y-130383572D01*
X107425496Y-130256554D01*
X107099958Y-130191800D01*
X106768042Y-130191800D01*
X106442504Y-130256554D01*
X106135853Y-130383572D01*
X105859875Y-130567975D01*
X105625175Y-130802675D01*
X105440772Y-131078653D01*
X105313754Y-131385304D01*
X105249000Y-131710842D01*
X104850000Y-131710842D01*
X104850000Y-127994487D01*
X105865118Y-127994487D01*
X105937004Y-128238712D01*
X106192941Y-128359862D01*
X106467596Y-128428752D01*
X106750413Y-128442738D01*
X107030524Y-128401279D01*
X107297165Y-128305970D01*
X107422996Y-128238712D01*
X107494882Y-127994487D01*
X106680000Y-127179605D01*
X105865118Y-127994487D01*
X104850000Y-127994487D01*
X104850000Y-127070413D01*
X105237262Y-127070413D01*
X105278721Y-127350524D01*
X105374030Y-127617165D01*
X105441288Y-127742996D01*
X105685513Y-127814882D01*
X106500395Y-127000000D01*
X106859605Y-127000000D01*
X107674487Y-127814882D01*
X107918712Y-127742996D01*
X108039862Y-127487059D01*
X108108752Y-127212404D01*
X108122738Y-126929587D01*
X108081279Y-126649476D01*
X107985970Y-126382835D01*
X107918712Y-126257004D01*
X107674487Y-126185118D01*
X106859605Y-127000000D01*
X106500395Y-127000000D01*
X105685513Y-126185118D01*
X105441288Y-126257004D01*
X105320138Y-126512941D01*
X105251248Y-126787596D01*
X105237262Y-127070413D01*
X104850000Y-127070413D01*
X104850000Y-125454487D01*
X105865118Y-125454487D01*
X105937004Y-125698712D01*
X105999091Y-125728102D01*
X105937004Y-125761288D01*
X105865118Y-126005513D01*
X106680000Y-126820395D01*
X107494882Y-126005513D01*
X107422996Y-125761288D01*
X107360909Y-125731898D01*
X107422996Y-125698712D01*
X107494882Y-125454487D01*
X106680000Y-124639605D01*
X105865118Y-125454487D01*
X104850000Y-125454487D01*
X104850000Y-124530413D01*
X105237262Y-124530413D01*
X105278721Y-124810524D01*
X105374030Y-125077165D01*
X105441288Y-125202996D01*
X105685513Y-125274882D01*
X106500395Y-124460000D01*
X106859605Y-124460000D01*
X107674487Y-125274882D01*
X107918712Y-125202996D01*
X108039862Y-124947059D01*
X108108752Y-124672404D01*
X108122738Y-124389587D01*
X108081279Y-124109476D01*
X107985970Y-123842835D01*
X107918712Y-123717004D01*
X107674487Y-123645118D01*
X106859605Y-124460000D01*
X106500395Y-124460000D01*
X105685513Y-123645118D01*
X105441288Y-123717004D01*
X105320138Y-123972941D01*
X105251248Y-124247596D01*
X105237262Y-124530413D01*
X104850000Y-124530413D01*
X104850000Y-118577500D01*
X105239428Y-118577500D01*
X105239428Y-120182500D01*
X105251688Y-120306982D01*
X105287998Y-120426680D01*
X105346963Y-120536994D01*
X105426315Y-120633685D01*
X105523006Y-120713037D01*
X105633320Y-120772002D01*
X105753018Y-120808312D01*
X105758242Y-120808826D01*
X105563421Y-121003647D01*
X105406104Y-121239089D01*
X105297743Y-121500697D01*
X105242500Y-121778419D01*
X105242500Y-122061581D01*
X105297743Y-122339303D01*
X105406104Y-122600911D01*
X105563421Y-122836353D01*
X105763647Y-123036579D01*
X105994272Y-123190678D01*
X105937004Y-123221288D01*
X105865118Y-123465513D01*
X106680000Y-124280395D01*
X107494882Y-123465513D01*
X107422996Y-123221288D01*
X107362660Y-123192727D01*
X107596353Y-123036579D01*
X107796579Y-122836353D01*
X107798110Y-122834061D01*
X108693000Y-122834061D01*
X108693000Y-123037939D01*
X108732774Y-123237898D01*
X108810795Y-123426256D01*
X108924063Y-123595774D01*
X109068226Y-123739937D01*
X109237744Y-123853205D01*
X109426102Y-123931226D01*
X109626061Y-123971000D01*
X109685370Y-123971000D01*
X114242721Y-128528352D01*
X114266578Y-128557422D01*
X114295648Y-128581279D01*
X114382607Y-128652645D01*
X114425879Y-128675774D01*
X114514985Y-128723402D01*
X114658622Y-128766974D01*
X114770574Y-128778000D01*
X114770577Y-128778000D01*
X114808000Y-128781686D01*
X114845423Y-128778000D01*
X121218289Y-128778000D01*
X121260226Y-128819937D01*
X121429744Y-128933205D01*
X121618102Y-129011226D01*
X121818061Y-129051000D01*
X122021939Y-129051000D01*
X122221898Y-129011226D01*
X122410256Y-128933205D01*
X122579774Y-128819937D01*
X122723937Y-128675774D01*
X122837205Y-128506256D01*
X122915226Y-128317898D01*
X122955000Y-128117939D01*
X122955000Y-127914061D01*
X122915226Y-127714102D01*
X122837205Y-127525744D01*
X122723937Y-127356226D01*
X122579774Y-127212063D01*
X122410256Y-127098795D01*
X122221898Y-127020774D01*
X122021939Y-126981000D01*
X121818061Y-126981000D01*
X121618102Y-127020774D01*
X121429744Y-127098795D01*
X121260226Y-127212063D01*
X121218289Y-127254000D01*
X115123631Y-127254000D01*
X110763000Y-122893370D01*
X110763000Y-122834061D01*
X110723226Y-122634102D01*
X110645205Y-122445744D01*
X110531937Y-122276226D01*
X110387774Y-122132063D01*
X110218256Y-122018795D01*
X110029898Y-121940774D01*
X109829939Y-121901000D01*
X109626061Y-121901000D01*
X109426102Y-121940774D01*
X109237744Y-122018795D01*
X109068226Y-122132063D01*
X108924063Y-122276226D01*
X108810795Y-122445744D01*
X108732774Y-122634102D01*
X108693000Y-122834061D01*
X107798110Y-122834061D01*
X107953896Y-122600911D01*
X108062257Y-122339303D01*
X108117500Y-122061581D01*
X108117500Y-121778419D01*
X108062257Y-121500697D01*
X107953896Y-121239089D01*
X107796579Y-121003647D01*
X107601758Y-120808826D01*
X107606982Y-120808312D01*
X107726680Y-120772002D01*
X107836994Y-120713037D01*
X107933685Y-120633685D01*
X108013037Y-120536994D01*
X108072002Y-120426680D01*
X108108312Y-120306982D01*
X108120572Y-120182500D01*
X108120572Y-118577500D01*
X108108312Y-118453018D01*
X108072002Y-118333320D01*
X108013037Y-118223006D01*
X107933685Y-118126315D01*
X107836994Y-118046963D01*
X107726680Y-117987998D01*
X107606982Y-117951688D01*
X107482500Y-117939428D01*
X105877500Y-117939428D01*
X105753018Y-117951688D01*
X105633320Y-117987998D01*
X105523006Y-118046963D01*
X105426315Y-118126315D01*
X105346963Y-118223006D01*
X105287998Y-118333320D01*
X105251688Y-118453018D01*
X105239428Y-118577500D01*
X104850000Y-118577500D01*
X104850000Y-102704042D01*
X124045000Y-102704042D01*
X124045000Y-103035958D01*
X124109754Y-103361496D01*
X124236772Y-103668147D01*
X124421175Y-103944125D01*
X124655875Y-104178825D01*
X124931853Y-104363228D01*
X125238504Y-104490246D01*
X125564042Y-104555000D01*
X125895958Y-104555000D01*
X126221496Y-104490246D01*
X126528147Y-104363228D01*
X126804125Y-104178825D01*
X127038825Y-103944125D01*
X127223228Y-103668147D01*
X127350246Y-103361496D01*
X127415000Y-103035958D01*
X127415000Y-102704042D01*
X127350246Y-102378504D01*
X127223228Y-102071853D01*
X127038825Y-101795875D01*
X126804125Y-101561175D01*
X126528147Y-101376772D01*
X126221496Y-101249754D01*
X125895958Y-101185000D01*
X125564042Y-101185000D01*
X125238504Y-101249754D01*
X124931853Y-101376772D01*
X124655875Y-101561175D01*
X124421175Y-101795875D01*
X124236772Y-102071853D01*
X124109754Y-102378504D01*
X124045000Y-102704042D01*
X104850000Y-102704042D01*
X104850000Y-101040000D01*
X127560001Y-101040000D01*
X127560000Y-133910000D01*
%TA.AperFunction,Conductor*%
D15*
G36*
X127560000Y-133910000D02*
G01*
X104850000Y-133910000D01*
X104850000Y-131710842D01*
X105249000Y-131710842D01*
X105249000Y-132042758D01*
X105313754Y-132368296D01*
X105440772Y-132674947D01*
X105625175Y-132950925D01*
X105859875Y-133185625D01*
X106135853Y-133370028D01*
X106442504Y-133497046D01*
X106768042Y-133561800D01*
X107099958Y-133561800D01*
X107425496Y-133497046D01*
X107732147Y-133370028D01*
X108008125Y-133185625D01*
X108242825Y-132950925D01*
X108288545Y-132882500D01*
X110319428Y-132882500D01*
X110331688Y-133006982D01*
X110367998Y-133126680D01*
X110426963Y-133236994D01*
X110506315Y-133333685D01*
X110603006Y-133413037D01*
X110713320Y-133472002D01*
X110833018Y-133508312D01*
X110957500Y-133520572D01*
X111474250Y-133517500D01*
X111633000Y-133358750D01*
X111633000Y-132207000D01*
X110481250Y-132207000D01*
X110322500Y-132365750D01*
X110319428Y-132882500D01*
X108288545Y-132882500D01*
X108427228Y-132674947D01*
X108554246Y-132368296D01*
X108619000Y-132042758D01*
X108619000Y-131710842D01*
X108554246Y-131385304D01*
X108509593Y-131277500D01*
X110319428Y-131277500D01*
X110322500Y-131794250D01*
X110481250Y-131953000D01*
X111633000Y-131953000D01*
X111633000Y-130801250D01*
X111887000Y-130801250D01*
X111887000Y-131953000D01*
X111907000Y-131953000D01*
X111907000Y-132207000D01*
X111887000Y-132207000D01*
X111887000Y-133358750D01*
X112045750Y-133517500D01*
X112562500Y-133520572D01*
X112686982Y-133508312D01*
X112806680Y-133472002D01*
X112916994Y-133413037D01*
X113013685Y-133333685D01*
X113093037Y-133236994D01*
X113152002Y-133126680D01*
X113188312Y-133006982D01*
X113188826Y-133001758D01*
X113383647Y-133196579D01*
X113619089Y-133353896D01*
X113880697Y-133462257D01*
X114158419Y-133517500D01*
X114441581Y-133517500D01*
X114719303Y-133462257D01*
X114980911Y-133353896D01*
X115216353Y-133196579D01*
X115416579Y-132996353D01*
X115570000Y-132766742D01*
X115723421Y-132996353D01*
X115923647Y-133196579D01*
X116159089Y-133353896D01*
X116420697Y-133462257D01*
X116698419Y-133517500D01*
X116981581Y-133517500D01*
X117259303Y-133462257D01*
X117520911Y-133353896D01*
X117756353Y-133196579D01*
X117956579Y-132996353D01*
X118110000Y-132766742D01*
X118263421Y-132996353D01*
X118463647Y-133196579D01*
X118699089Y-133353896D01*
X118960697Y-133462257D01*
X119238419Y-133517500D01*
X119521581Y-133517500D01*
X119799303Y-133462257D01*
X120060911Y-133353896D01*
X120296353Y-133196579D01*
X120496579Y-132996353D01*
X120653896Y-132760911D01*
X120762257Y-132499303D01*
X120817500Y-132221581D01*
X120817500Y-131938419D01*
X120762257Y-131660697D01*
X120653896Y-131399089D01*
X120496579Y-131163647D01*
X120296353Y-130963421D01*
X120060911Y-130806104D01*
X119799303Y-130697743D01*
X119521581Y-130642500D01*
X119238419Y-130642500D01*
X118960697Y-130697743D01*
X118699089Y-130806104D01*
X118463647Y-130963421D01*
X118263421Y-131163647D01*
X118110000Y-131393258D01*
X117956579Y-131163647D01*
X117756353Y-130963421D01*
X117520911Y-130806104D01*
X117259303Y-130697743D01*
X116981581Y-130642500D01*
X116698419Y-130642500D01*
X116420697Y-130697743D01*
X116159089Y-130806104D01*
X115923647Y-130963421D01*
X115723421Y-131163647D01*
X115570000Y-131393258D01*
X115416579Y-131163647D01*
X115216353Y-130963421D01*
X114980911Y-130806104D01*
X114719303Y-130697743D01*
X114441581Y-130642500D01*
X114158419Y-130642500D01*
X113880697Y-130697743D01*
X113619089Y-130806104D01*
X113383647Y-130963421D01*
X113188826Y-131158242D01*
X113188312Y-131153018D01*
X113152002Y-131033320D01*
X113093037Y-130923006D01*
X113013685Y-130826315D01*
X112916994Y-130746963D01*
X112806680Y-130687998D01*
X112686982Y-130651688D01*
X112562500Y-130639428D01*
X112045750Y-130642500D01*
X111887000Y-130801250D01*
X111633000Y-130801250D01*
X111474250Y-130642500D01*
X110957500Y-130639428D01*
X110833018Y-130651688D01*
X110713320Y-130687998D01*
X110603006Y-130746963D01*
X110506315Y-130826315D01*
X110426963Y-130923006D01*
X110367998Y-131033320D01*
X110331688Y-131153018D01*
X110319428Y-131277500D01*
X108509593Y-131277500D01*
X108427228Y-131078653D01*
X108242825Y-130802675D01*
X108008125Y-130567975D01*
X107732147Y-130383572D01*
X107425496Y-130256554D01*
X107099958Y-130191800D01*
X106768042Y-130191800D01*
X106442504Y-130256554D01*
X106135853Y-130383572D01*
X105859875Y-130567975D01*
X105625175Y-130802675D01*
X105440772Y-131078653D01*
X105313754Y-131385304D01*
X105249000Y-131710842D01*
X104850000Y-131710842D01*
X104850000Y-127994487D01*
X105865118Y-127994487D01*
X105937004Y-128238712D01*
X106192941Y-128359862D01*
X106467596Y-128428752D01*
X106750413Y-128442738D01*
X107030524Y-128401279D01*
X107297165Y-128305970D01*
X107422996Y-128238712D01*
X107494882Y-127994487D01*
X106680000Y-127179605D01*
X105865118Y-127994487D01*
X104850000Y-127994487D01*
X104850000Y-127070413D01*
X105237262Y-127070413D01*
X105278721Y-127350524D01*
X105374030Y-127617165D01*
X105441288Y-127742996D01*
X105685513Y-127814882D01*
X106500395Y-127000000D01*
X106859605Y-127000000D01*
X107674487Y-127814882D01*
X107918712Y-127742996D01*
X108039862Y-127487059D01*
X108108752Y-127212404D01*
X108122738Y-126929587D01*
X108081279Y-126649476D01*
X107985970Y-126382835D01*
X107918712Y-126257004D01*
X107674487Y-126185118D01*
X106859605Y-127000000D01*
X106500395Y-127000000D01*
X105685513Y-126185118D01*
X105441288Y-126257004D01*
X105320138Y-126512941D01*
X105251248Y-126787596D01*
X105237262Y-127070413D01*
X104850000Y-127070413D01*
X104850000Y-125454487D01*
X105865118Y-125454487D01*
X105937004Y-125698712D01*
X105999091Y-125728102D01*
X105937004Y-125761288D01*
X105865118Y-126005513D01*
X106680000Y-126820395D01*
X107494882Y-126005513D01*
X107422996Y-125761288D01*
X107360909Y-125731898D01*
X107422996Y-125698712D01*
X107494882Y-125454487D01*
X106680000Y-124639605D01*
X105865118Y-125454487D01*
X104850000Y-125454487D01*
X104850000Y-124530413D01*
X105237262Y-124530413D01*
X105278721Y-124810524D01*
X105374030Y-125077165D01*
X105441288Y-125202996D01*
X105685513Y-125274882D01*
X106500395Y-124460000D01*
X106859605Y-124460000D01*
X107674487Y-125274882D01*
X107918712Y-125202996D01*
X108039862Y-124947059D01*
X108108752Y-124672404D01*
X108122738Y-124389587D01*
X108081279Y-124109476D01*
X107985970Y-123842835D01*
X107918712Y-123717004D01*
X107674487Y-123645118D01*
X106859605Y-124460000D01*
X106500395Y-124460000D01*
X105685513Y-123645118D01*
X105441288Y-123717004D01*
X105320138Y-123972941D01*
X105251248Y-124247596D01*
X105237262Y-124530413D01*
X104850000Y-124530413D01*
X104850000Y-118577500D01*
X105239428Y-118577500D01*
X105239428Y-120182500D01*
X105251688Y-120306982D01*
X105287998Y-120426680D01*
X105346963Y-120536994D01*
X105426315Y-120633685D01*
X105523006Y-120713037D01*
X105633320Y-120772002D01*
X105753018Y-120808312D01*
X105758242Y-120808826D01*
X105563421Y-121003647D01*
X105406104Y-121239089D01*
X105297743Y-121500697D01*
X105242500Y-121778419D01*
X105242500Y-122061581D01*
X105297743Y-122339303D01*
X105406104Y-122600911D01*
X105563421Y-122836353D01*
X105763647Y-123036579D01*
X105994272Y-123190678D01*
X105937004Y-123221288D01*
X105865118Y-123465513D01*
X106680000Y-124280395D01*
X107494882Y-123465513D01*
X107422996Y-123221288D01*
X107362660Y-123192727D01*
X107596353Y-123036579D01*
X107796579Y-122836353D01*
X107798110Y-122834061D01*
X108693000Y-122834061D01*
X108693000Y-123037939D01*
X108732774Y-123237898D01*
X108810795Y-123426256D01*
X108924063Y-123595774D01*
X109068226Y-123739937D01*
X109237744Y-123853205D01*
X109426102Y-123931226D01*
X109626061Y-123971000D01*
X109685370Y-123971000D01*
X114242721Y-128528352D01*
X114266578Y-128557422D01*
X114295648Y-128581279D01*
X114382607Y-128652645D01*
X114425879Y-128675774D01*
X114514985Y-128723402D01*
X114658622Y-128766974D01*
X114770574Y-128778000D01*
X114770577Y-128778000D01*
X114808000Y-128781686D01*
X114845423Y-128778000D01*
X121218289Y-128778000D01*
X121260226Y-128819937D01*
X121429744Y-128933205D01*
X121618102Y-129011226D01*
X121818061Y-129051000D01*
X122021939Y-129051000D01*
X122221898Y-129011226D01*
X122410256Y-128933205D01*
X122579774Y-128819937D01*
X122723937Y-128675774D01*
X122837205Y-128506256D01*
X122915226Y-128317898D01*
X122955000Y-128117939D01*
X122955000Y-127914061D01*
X122915226Y-127714102D01*
X122837205Y-127525744D01*
X122723937Y-127356226D01*
X122579774Y-127212063D01*
X122410256Y-127098795D01*
X122221898Y-127020774D01*
X122021939Y-126981000D01*
X121818061Y-126981000D01*
X121618102Y-127020774D01*
X121429744Y-127098795D01*
X121260226Y-127212063D01*
X121218289Y-127254000D01*
X115123631Y-127254000D01*
X110763000Y-122893370D01*
X110763000Y-122834061D01*
X110723226Y-122634102D01*
X110645205Y-122445744D01*
X110531937Y-122276226D01*
X110387774Y-122132063D01*
X110218256Y-122018795D01*
X110029898Y-121940774D01*
X109829939Y-121901000D01*
X109626061Y-121901000D01*
X109426102Y-121940774D01*
X109237744Y-122018795D01*
X109068226Y-122132063D01*
X108924063Y-122276226D01*
X108810795Y-122445744D01*
X108732774Y-122634102D01*
X108693000Y-122834061D01*
X107798110Y-122834061D01*
X107953896Y-122600911D01*
X108062257Y-122339303D01*
X108117500Y-122061581D01*
X108117500Y-121778419D01*
X108062257Y-121500697D01*
X107953896Y-121239089D01*
X107796579Y-121003647D01*
X107601758Y-120808826D01*
X107606982Y-120808312D01*
X107726680Y-120772002D01*
X107836994Y-120713037D01*
X107933685Y-120633685D01*
X108013037Y-120536994D01*
X108072002Y-120426680D01*
X108108312Y-120306982D01*
X108120572Y-120182500D01*
X108120572Y-118577500D01*
X108108312Y-118453018D01*
X108072002Y-118333320D01*
X108013037Y-118223006D01*
X107933685Y-118126315D01*
X107836994Y-118046963D01*
X107726680Y-117987998D01*
X107606982Y-117951688D01*
X107482500Y-117939428D01*
X105877500Y-117939428D01*
X105753018Y-117951688D01*
X105633320Y-117987998D01*
X105523006Y-118046963D01*
X105426315Y-118126315D01*
X105346963Y-118223006D01*
X105287998Y-118333320D01*
X105251688Y-118453018D01*
X105239428Y-118577500D01*
X104850000Y-118577500D01*
X104850000Y-102704042D01*
X124045000Y-102704042D01*
X124045000Y-103035958D01*
X124109754Y-103361496D01*
X124236772Y-103668147D01*
X124421175Y-103944125D01*
X124655875Y-104178825D01*
X124931853Y-104363228D01*
X125238504Y-104490246D01*
X125564042Y-104555000D01*
X125895958Y-104555000D01*
X126221496Y-104490246D01*
X126528147Y-104363228D01*
X126804125Y-104178825D01*
X127038825Y-103944125D01*
X127223228Y-103668147D01*
X127350246Y-103361496D01*
X127415000Y-103035958D01*
X127415000Y-102704042D01*
X127350246Y-102378504D01*
X127223228Y-102071853D01*
X127038825Y-101795875D01*
X126804125Y-101561175D01*
X126528147Y-101376772D01*
X126221496Y-101249754D01*
X125895958Y-101185000D01*
X125564042Y-101185000D01*
X125238504Y-101249754D01*
X124931853Y-101376772D01*
X124655875Y-101561175D01*
X124421175Y-101795875D01*
X124236772Y-102071853D01*
X124109754Y-102378504D01*
X124045000Y-102704042D01*
X104850000Y-102704042D01*
X104850000Y-101040000D01*
X127560001Y-101040000D01*
X127560000Y-133910000D01*
G37*
%TD.AperFunction*%
%TD*%
M02*
